%TF.GenerationSoftware,KiCad,Pcbnew,9.0.6*%
%TF.CreationDate,2026-03-26T22:56:50-06:00*%
%TF.ProjectId,Asistente,41736973-7465-46e7-9465-2e6b69636164,rev?*%
%TF.SameCoordinates,Original*%
%TF.FileFunction,Soldermask,Bot*%
%TF.FilePolarity,Negative*%
%FSLAX46Y46*%
G04 Gerber Fmt 4.6, Leading zero omitted, Abs format (unit mm)*
G04 Created by KiCad (PCBNEW 9.0.6) date 2026-03-26 22:56:50*
%MOMM*%
%LPD*%
G01*
G04 APERTURE LIST*
G04 Aperture macros list*
%AMRoundRect*
0 Rectangle with rounded corners*
0 $1 Rounding radius*
0 $2 $3 $4 $5 $6 $7 $8 $9 X,Y pos of 4 corners*
0 Add a 4 corners polygon primitive as box body*
4,1,4,$2,$3,$4,$5,$6,$7,$8,$9,$2,$3,0*
0 Add four circle primitives for the rounded corners*
1,1,$1+$1,$2,$3*
1,1,$1+$1,$4,$5*
1,1,$1+$1,$6,$7*
1,1,$1+$1,$8,$9*
0 Add four rect primitives between the rounded corners*
20,1,$1+$1,$2,$3,$4,$5,0*
20,1,$1+$1,$4,$5,$6,$7,0*
20,1,$1+$1,$6,$7,$8,$9,0*
20,1,$1+$1,$8,$9,$2,$3,0*%
G04 Aperture macros list end*
%ADD10R,1.700000X1.700000*%
%ADD11C,1.524000*%
%ADD12C,2.000000*%
%ADD13RoundRect,0.250000X-0.750000X0.750000X-0.750000X-0.750000X0.750000X-0.750000X0.750000X0.750000X0*%
%ADD14O,1.900000X1.524000*%
G04 APERTURE END LIST*
D10*
%TO.C,GNDMIC1*%
X165227000Y-77216000D03*
%TD*%
%TO.C,VDD*%
X165227000Y-96139000D03*
%TD*%
%TO.C,WS*%
X165100000Y-90950000D03*
%TD*%
D11*
%TO.C,U2*%
X140462000Y-35052000D03*
X143002000Y-35052000D03*
X153162000Y-35052000D03*
X155702000Y-35052000D03*
X155702000Y-54102000D03*
X153162000Y-54102000D03*
X145542000Y-54102000D03*
X143002000Y-54102000D03*
X140462000Y-54102000D03*
%TD*%
D12*
%TO.C,C1*%
X112014000Y-119726323D03*
D13*
X112014000Y-114726323D03*
%TD*%
D10*
%TO.C,SCK*%
X165100000Y-82042000D03*
%TD*%
%TO.C,R+*%
X151765000Y-28746750D03*
%TD*%
%TO.C,L+*%
X144881000Y-28746750D03*
%TD*%
%TO.C,L-*%
X137836500Y-28489500D03*
%TD*%
%TO.C,SCK*%
X164338000Y-113739000D03*
%TD*%
%TO.C,SDA*%
X164338000Y-109989000D03*
%TD*%
%TO.C,VDD*%
X164465000Y-106299000D03*
%TD*%
D14*
%TO.C,U1*%
X127762000Y-117303250D03*
X127762000Y-114763250D03*
X127762000Y-112223250D03*
X127762000Y-109683250D03*
X127762000Y-107143250D03*
X127762000Y-104603250D03*
X127762000Y-102063250D03*
X127762000Y-99523250D03*
X127762000Y-96983250D03*
X127762000Y-94443250D03*
X127762000Y-91903250D03*
X127762000Y-89363250D03*
X127762000Y-86823250D03*
X127762000Y-84283250D03*
X127762000Y-81743250D03*
X153162000Y-117303250D03*
X153162000Y-114763250D03*
X153162000Y-112223250D03*
X153162000Y-109683250D03*
X153162000Y-107143250D03*
X153162000Y-104603250D03*
X153162000Y-102063250D03*
X153162000Y-99523250D03*
X153162000Y-96983250D03*
X153162000Y-94443250D03*
X153162000Y-91903250D03*
X153162000Y-89363250D03*
X153162000Y-86823250D03*
X153162000Y-84283250D03*
X153162000Y-81743250D03*
%TD*%
D10*
%TO.C,SD*%
X165100000Y-86487000D03*
%TD*%
%TO.C,GND*%
X164338000Y-102489000D03*
%TD*%
%TO.C,R-*%
X158877000Y-28956000D03*
%TD*%
M02*
