M48
; DRILL file {KiCad 9.0.6} date 2026-03-22T19:20:42-0600
; FORMAT={-:-/ absolute / metric / decimal}
; #@! TF.CreationDate,2026-03-22T19:20:42-06:00
; #@! TF.GenerationSoftware,Kicad,Pcbnew,9.0.6
; #@! TF.FileFunction,Plated,1,2,PTH
FMAT,2
METRIC
; #@! TA.AperFunction,Plated,PTH,ComponentDrill
T1C0.762
; #@! TA.AperFunction,Plated,PTH,ComponentDrill
T2C0.800
; #@! TA.AperFunction,Plated,PTH,ComponentDrill
T3C1.000
%
G90
G05
T1
X138.049Y-37.084
X138.049Y-56.134
X140.589Y-37.084
X140.589Y-56.134
X143.129Y-56.134
X150.749Y-37.084
X150.749Y-56.134
X153.289Y-37.084
X153.289Y-56.134
T2
X132.842Y-81.788
X132.842Y-84.328
X132.842Y-86.868
X132.842Y-89.408
X132.842Y-91.948
X132.842Y-94.488
X132.842Y-97.028
X132.842Y-99.568
X132.842Y-102.108
X132.842Y-104.648
X132.842Y-107.188
X132.842Y-109.728
X132.842Y-112.268
X132.842Y-114.808
X132.842Y-117.348
X158.242Y-81.788
X158.242Y-84.328
X158.242Y-86.868
X158.242Y-89.408
X158.242Y-91.948
X158.242Y-94.488
X158.242Y-97.028
X158.242Y-99.568
X158.242Y-102.108
X158.242Y-104.648
X158.242Y-107.188
X158.242Y-109.728
X158.242Y-112.268
X158.242Y-114.808
X158.242Y-117.348
T3
X112.014Y-114.726
X112.014Y-119.726
M30
