M48
; DRILL file {KiCad 9.0.6} date 2026-03-26T22:57:03-0600
; FORMAT={-:-/ absolute / metric / decimal}
; #@! TF.CreationDate,2026-03-26T22:57:03-06:00
; #@! TF.GenerationSoftware,Kicad,Pcbnew,9.0.6
; #@! TF.FileFunction,Plated,1,2,PTH
FMAT,2
METRIC
; #@! TA.AperFunction,Plated,PTH,ComponentDrill
T1C0.762
; #@! TA.AperFunction,Plated,PTH,ComponentDrill
T2C0.800
; #@! TA.AperFunction,Plated,PTH,ComponentDrill
T3C1.000
%
G90
G05
T1
X140.462Y-35.052
X140.462Y-54.102
X143.002Y-35.052
X143.002Y-54.102
X145.542Y-54.102
X153.162Y-35.052
X153.162Y-54.102
X155.702Y-35.052
X155.702Y-54.102
T2
X127.762Y-81.743
X127.762Y-84.283
X127.762Y-86.823
X127.762Y-89.363
X127.762Y-91.903
X127.762Y-94.443
X127.762Y-96.983
X127.762Y-99.523
X127.762Y-102.063
X127.762Y-104.603
X127.762Y-107.143
X127.762Y-109.683
X127.762Y-112.223
X127.762Y-114.763
X127.762Y-117.303
X153.162Y-81.743
X153.162Y-84.283
X153.162Y-86.823
X153.162Y-89.363
X153.162Y-91.903
X153.162Y-94.443
X153.162Y-96.983
X153.162Y-99.523
X153.162Y-102.063
X153.162Y-104.603
X153.162Y-107.143
X153.162Y-109.683
X153.162Y-112.223
X153.162Y-114.763
X153.162Y-117.303
T3
X112.014Y-114.726
X112.014Y-119.726
X137.837Y-28.489
X144.881Y-28.747
X151.765Y-28.747
X158.877Y-28.956
X164.338Y-102.489
X164.338Y-109.989
X164.338Y-113.739
X164.465Y-106.299
X165.1Y-82.042
X165.1Y-86.487
X165.1Y-90.95
X165.227Y-77.216
X165.227Y-96.139
M30
