%TF.GenerationSoftware,KiCad,Pcbnew,9.0.6*%
%TF.CreationDate,2026-03-22T19:20:37-06:00*%
%TF.ProjectId,Asistente,41736973-7465-46e7-9465-2e6b69636164,rev?*%
%TF.SameCoordinates,Original*%
%TF.FileFunction,Copper,L1,Top*%
%TF.FilePolarity,Positive*%
%FSLAX46Y46*%
G04 Gerber Fmt 4.6, Leading zero omitted, Abs format (unit mm)*
G04 Created by KiCad (PCBNEW 9.0.6) date 2026-03-22 19:20:37*
%MOMM*%
%LPD*%
G01*
G04 APERTURE LIST*
G04 Aperture macros list*
%AMRoundRect*
0 Rectangle with rounded corners*
0 $1 Rounding radius*
0 $2 $3 $4 $5 $6 $7 $8 $9 X,Y pos of 4 corners*
0 Add a 4 corners polygon primitive as box body*
4,1,4,$2,$3,$4,$5,$6,$7,$8,$9,$2,$3,0*
0 Add four circle primitives for the rounded corners*
1,1,$1+$1,$2,$3*
1,1,$1+$1,$4,$5*
1,1,$1+$1,$6,$7*
1,1,$1+$1,$8,$9*
0 Add four rect primitives between the rounded corners*
20,1,$1+$1,$2,$3,$4,$5,0*
20,1,$1+$1,$4,$5,$6,$7,0*
20,1,$1+$1,$6,$7,$8,$9,0*
20,1,$1+$1,$8,$9,$2,$3,0*%
G04 Aperture macros list end*
%TA.AperFunction,SMDPad,CuDef*%
%ADD10RoundRect,0.200000X0.275000X-0.200000X0.275000X0.200000X-0.275000X0.200000X-0.275000X-0.200000X0*%
%TD*%
%TA.AperFunction,SMDPad,CuDef*%
%ADD11RoundRect,0.250000X0.475000X-0.250000X0.475000X0.250000X-0.475000X0.250000X-0.475000X-0.250000X0*%
%TD*%
%TA.AperFunction,ComponentPad*%
%ADD12C,1.524000*%
%TD*%
%TA.AperFunction,ComponentPad*%
%ADD13RoundRect,0.250000X-0.750000X0.750000X-0.750000X-0.750000X0.750000X-0.750000X0.750000X0.750000X0*%
%TD*%
%TA.AperFunction,ComponentPad*%
%ADD14C,2.000000*%
%TD*%
%TA.AperFunction,ComponentPad*%
%ADD15O,1.900000X1.524000*%
%TD*%
%TA.AperFunction,Conductor*%
%ADD16C,0.500000*%
%TD*%
%TA.AperFunction,Conductor*%
%ADD17C,0.200000*%
%TD*%
G04 APERTURE END LIST*
D10*
%TO.P,R4,1*%
%TO.N,Net-(U1-GPIO25)*%
X140589000Y-69913000D03*
%TO.P,R4,2*%
%TO.N,Net-(C2-Pad1)*%
X140589000Y-68263000D03*
%TD*%
%TO.P,R3,1*%
%TO.N,Net-(U1-GPIO26)*%
X150749000Y-70040000D03*
%TO.P,R3,2*%
%TO.N,Net-(C3-Pad1)*%
X150749000Y-68390000D03*
%TD*%
D11*
%TO.P,C3,1*%
%TO.N,Net-(C3-Pad1)*%
X150561000Y-63307000D03*
%TO.P,C3,2*%
%TO.N,Net-(U2-R)*%
X150561000Y-61407000D03*
%TD*%
D12*
%TO.P,U2,1,L*%
%TO.N,Net-(U2-L)*%
X138049000Y-56134000D03*
%TO.P,U2,2,T*%
%TO.N,GND*%
X140589000Y-56134000D03*
%TO.P,U2,3,R*%
%TO.N,Net-(U2-R)*%
X143129000Y-56134000D03*
%TO.P,U2,4,vin*%
%TO.N,+5V*%
X150749000Y-56134000D03*
%TO.P,U2,5,gnd*%
%TO.N,GND*%
X153289000Y-56134000D03*
%TO.P,U2,6,R-*%
%TO.N,Net-(U2-R-)*%
X153289000Y-37084000D03*
%TO.P,U2,7,R+*%
%TO.N,Net-(U2-R+)*%
X150749000Y-37084000D03*
%TO.P,U2,8,L+*%
%TO.N,Net-(U2-L+)*%
X140589000Y-37084000D03*
%TO.P,U2,9,L-*%
%TO.N,Net-(U2-L-)*%
X138049000Y-37084000D03*
%TD*%
D11*
%TO.P,C2,1*%
%TO.N,Net-(C2-Pad1)*%
X140589000Y-63434000D03*
%TO.P,C2,2*%
%TO.N,Net-(U2-L)*%
X140589000Y-61534000D03*
%TD*%
D13*
%TO.P,C1,1*%
%TO.N,+5V*%
X112014000Y-114726323D03*
D14*
%TO.P,C1,2*%
%TO.N,GND*%
X112014000Y-119726323D03*
%TD*%
D15*
%TO.P,U1,1,VIN*%
%TO.N,+5V*%
X132842000Y-117348000D03*
%TO.P,U1,2,GND*%
%TO.N,GND*%
X132842000Y-114808000D03*
%TO.P,U1,3,GPIO13*%
%TO.N,unconnected-(U1-GPIO13-Pad3)*%
X132842000Y-112268000D03*
%TO.P,U1,4,GPIO12*%
%TO.N,unconnected-(U1-GPIO12-Pad4)*%
X132842000Y-109728000D03*
%TO.P,U1,5,GPIO14*%
%TO.N,unconnected-(U1-GPIO14-Pad5)*%
X132842000Y-107188000D03*
%TO.P,U1,6,GPIO27*%
%TO.N,Net-(U1-GPIO27)*%
X132842000Y-104648000D03*
%TO.P,U1,7,GPIO26*%
%TO.N,Net-(U1-GPIO26)*%
X132842000Y-102108000D03*
%TO.P,U1,8,GPIO25*%
%TO.N,Net-(U1-GPIO25)*%
X132842000Y-99568000D03*
%TO.P,U1,9,GPIO33*%
%TO.N,Net-(U1-GPIO33)*%
X132842000Y-97028000D03*
%TO.P,U1,10,GPIO32*%
%TO.N,Net-(U1-GPIO32)*%
X132842000Y-94488000D03*
%TO.P,U1,11,GPIO35*%
%TO.N,unconnected-(U1-GPIO35-Pad11)*%
X132842000Y-91948000D03*
%TO.P,U1,12,GPIO34*%
%TO.N,unconnected-(U1-GPIO34-Pad12)*%
X132842000Y-89408000D03*
%TO.P,U1,13,GPIO39*%
%TO.N,unconnected-(U1-GPIO39-Pad13)*%
X132842000Y-86868000D03*
%TO.P,U1,14,GPIO36*%
%TO.N,unconnected-(U1-GPIO36-Pad14)*%
X132842000Y-84328000D03*
%TO.P,U1,15,EN*%
%TO.N,unconnected-(U1-EN-Pad15)*%
X132842000Y-81788000D03*
%TO.P,U1,16,3.3v*%
%TO.N,Net-(DS1-VDD)*%
X158242000Y-117348000D03*
%TO.P,U1,17,GND*%
%TO.N,unconnected-(U1-GND-Pad17)*%
X158242000Y-114808000D03*
%TO.P,U1,18,GPIO15*%
%TO.N,unconnected-(U1-GPIO15-Pad18)*%
X158242000Y-112268000D03*
%TO.P,U1,19,GPIO2*%
%TO.N,unconnected-(U1-GPIO2-Pad19)*%
X158242000Y-109728000D03*
%TO.P,U1,20,GPIO4*%
%TO.N,unconnected-(U1-GPIO4-Pad20)*%
X158242000Y-107188000D03*
%TO.P,U1,21,GPIO16*%
%TO.N,unconnected-(U1-GPIO16-Pad21)*%
X158242000Y-104648000D03*
%TO.P,U1,22,GPIO17*%
%TO.N,unconnected-(U1-GPIO17-Pad22)*%
X158242000Y-102108000D03*
%TO.P,U1,23,GPIO5*%
%TO.N,unconnected-(U1-GPIO5-Pad23)*%
X158242000Y-99568000D03*
%TO.P,U1,24,GPIO18*%
%TO.N,unconnected-(U1-GPIO18-Pad24)*%
X158242000Y-97028000D03*
%TO.P,U1,25,GPIO19*%
%TO.N,unconnected-(U1-GPIO19-Pad25)*%
X158242000Y-94488000D03*
%TO.P,U1,26,GPIO21*%
%TO.N,Net-(DS1-SDA)*%
X158242000Y-91948000D03*
%TO.P,U1,27,GPIO3*%
%TO.N,unconnected-(U1-GPIO3-Pad27)*%
X158242000Y-89408000D03*
%TO.P,U1,28,GPIO1*%
%TO.N,unconnected-(U1-GPIO1-Pad28)*%
X158242000Y-86868000D03*
%TO.P,U1,29,GPIO22*%
%TO.N,Net-(DS1-SCK)*%
X158242000Y-84328000D03*
%TO.P,U1,30,GPIO23*%
%TO.N,unconnected-(U1-GPIO23-Pad30)*%
X158242000Y-81788000D03*
%TD*%
D16*
%TO.N,+5V*%
X154559000Y-100076000D02*
X154559000Y-61595000D01*
X154559000Y-61595000D02*
X150749000Y-57785000D01*
X133096000Y-117094000D02*
X137541000Y-117094000D01*
X137541000Y-117094000D02*
X154559000Y-100076000D01*
X132842000Y-117348000D02*
X133096000Y-117094000D01*
X150749000Y-57785000D02*
X150749000Y-56134000D01*
X112014000Y-114726323D02*
X114635677Y-117348000D01*
X114635677Y-117348000D02*
X132842000Y-117348000D01*
D17*
%TO.N,Net-(U1-GPIO25)*%
X140589000Y-91821000D02*
X132842000Y-99568000D01*
X140589000Y-69685500D02*
X140589000Y-91821000D01*
%TO.N,Net-(U1-GPIO26)*%
X132842000Y-102108000D02*
X150749000Y-84201000D01*
X150749000Y-84201000D02*
X150749000Y-69812500D01*
%TO.N,Net-(U2-R)*%
X143129000Y-56134000D02*
X145288000Y-56134000D01*
X145288000Y-56134000D02*
X150561000Y-61407000D01*
%TO.N,Net-(U2-L)*%
X138049000Y-58994000D02*
X138049000Y-56134000D01*
X140589000Y-61534000D02*
X138049000Y-58994000D01*
%TO.N,Net-(C2-Pad1)*%
X140589000Y-68490500D02*
X140589000Y-63434000D01*
%TO.N,Net-(C3-Pad1)*%
X150561000Y-63307000D02*
X150561000Y-68429500D01*
X150561000Y-68429500D02*
X150749000Y-68617500D01*
%TD*%
%TA.AperFunction,Conductor*%
%TO.N,GND*%
G36*
X164034539Y-33794185D02*
G01*
X164080294Y-33846989D01*
X164091500Y-33898500D01*
X164091500Y-124598687D01*
X164071815Y-124665726D01*
X164019011Y-124711481D01*
X163967736Y-124722687D01*
X98541736Y-124847308D01*
X98474659Y-124827751D01*
X98428804Y-124775034D01*
X98417500Y-124723308D01*
X98417500Y-122337059D01*
X132199040Y-122337059D01*
X132199040Y-122599314D01*
X132219976Y-122758327D01*
X132233270Y-122859303D01*
X132254718Y-122939348D01*
X132301142Y-123112605D01*
X132301145Y-123112615D01*
X132401493Y-123354877D01*
X132401498Y-123354887D01*
X132532615Y-123581990D01*
X132692258Y-123790038D01*
X132692266Y-123790047D01*
X132877680Y-123975461D01*
X132877688Y-123975468D01*
X133085736Y-124135111D01*
X133312839Y-124266228D01*
X133312849Y-124266233D01*
X133555111Y-124366581D01*
X133555121Y-124366585D01*
X133808424Y-124434457D01*
X134068420Y-124468687D01*
X134068427Y-124468687D01*
X134330653Y-124468687D01*
X134330660Y-124468687D01*
X134590656Y-124434457D01*
X134843959Y-124366585D01*
X135086237Y-124266230D01*
X135313343Y-124135111D01*
X135521391Y-123975469D01*
X135521395Y-123975464D01*
X135521400Y-123975461D01*
X135706814Y-123790047D01*
X135706817Y-123790042D01*
X135706822Y-123790038D01*
X135866464Y-123581990D01*
X135997583Y-123354884D01*
X136097938Y-123112606D01*
X136165810Y-122859303D01*
X136200040Y-122599307D01*
X136200040Y-122337067D01*
X136200039Y-122337059D01*
X155199040Y-122337059D01*
X155199040Y-122599314D01*
X155219976Y-122758327D01*
X155233270Y-122859303D01*
X155254718Y-122939348D01*
X155301142Y-123112605D01*
X155301145Y-123112615D01*
X155401493Y-123354877D01*
X155401498Y-123354887D01*
X155532615Y-123581990D01*
X155692258Y-123790038D01*
X155692266Y-123790047D01*
X155877680Y-123975461D01*
X155877688Y-123975468D01*
X156085736Y-124135111D01*
X156312839Y-124266228D01*
X156312849Y-124266233D01*
X156555111Y-124366581D01*
X156555121Y-124366585D01*
X156808424Y-124434457D01*
X157068420Y-124468687D01*
X157068427Y-124468687D01*
X157330653Y-124468687D01*
X157330660Y-124468687D01*
X157590656Y-124434457D01*
X157843959Y-124366585D01*
X158086237Y-124266230D01*
X158313343Y-124135111D01*
X158521391Y-123975469D01*
X158521395Y-123975464D01*
X158521400Y-123975461D01*
X158706814Y-123790047D01*
X158706817Y-123790042D01*
X158706822Y-123790038D01*
X158866464Y-123581990D01*
X158997583Y-123354884D01*
X159097938Y-123112606D01*
X159165810Y-122859303D01*
X159200040Y-122599307D01*
X159200040Y-122337067D01*
X159165810Y-122077071D01*
X159097938Y-121823768D01*
X158999744Y-121586707D01*
X158997586Y-121581496D01*
X158997581Y-121581486D01*
X158866464Y-121354383D01*
X158706821Y-121146335D01*
X158706814Y-121146327D01*
X158521400Y-120960913D01*
X158521391Y-120960905D01*
X158313343Y-120801262D01*
X158086240Y-120670145D01*
X158086230Y-120670140D01*
X157843968Y-120569792D01*
X157843961Y-120569790D01*
X157843959Y-120569789D01*
X157590656Y-120501917D01*
X157532879Y-120494310D01*
X157330667Y-120467687D01*
X157330660Y-120467687D01*
X157068420Y-120467687D01*
X157068412Y-120467687D01*
X156837312Y-120498113D01*
X156808424Y-120501917D01*
X156555121Y-120569789D01*
X156555111Y-120569792D01*
X156312849Y-120670140D01*
X156312839Y-120670145D01*
X156085736Y-120801262D01*
X155877688Y-120960905D01*
X155692258Y-121146335D01*
X155532615Y-121354383D01*
X155401498Y-121581486D01*
X155401493Y-121581496D01*
X155301145Y-121823758D01*
X155301142Y-121823768D01*
X155233270Y-122077072D01*
X155199040Y-122337059D01*
X136200039Y-122337059D01*
X136165810Y-122077071D01*
X136097938Y-121823768D01*
X135999744Y-121586707D01*
X135997586Y-121581496D01*
X135997581Y-121581486D01*
X135866464Y-121354383D01*
X135706821Y-121146335D01*
X135706814Y-121146327D01*
X135521400Y-120960913D01*
X135521391Y-120960905D01*
X135313343Y-120801262D01*
X135086240Y-120670145D01*
X135086230Y-120670140D01*
X134843968Y-120569792D01*
X134843961Y-120569790D01*
X134843959Y-120569789D01*
X134590656Y-120501917D01*
X134532879Y-120494310D01*
X134330667Y-120467687D01*
X134330660Y-120467687D01*
X134068420Y-120467687D01*
X134068412Y-120467687D01*
X133837312Y-120498113D01*
X133808424Y-120501917D01*
X133555121Y-120569789D01*
X133555111Y-120569792D01*
X133312849Y-120670140D01*
X133312839Y-120670145D01*
X133085736Y-120801262D01*
X132877688Y-120960905D01*
X132692258Y-121146335D01*
X132532615Y-121354383D01*
X132401498Y-121581486D01*
X132401493Y-121581496D01*
X132301145Y-121823758D01*
X132301142Y-121823768D01*
X132233270Y-122077072D01*
X132199040Y-122337059D01*
X98417500Y-122337059D01*
X98417500Y-119608270D01*
X110514000Y-119608270D01*
X110514000Y-119844375D01*
X110550934Y-120077570D01*
X110623897Y-120302125D01*
X110731087Y-120512497D01*
X110791338Y-120595427D01*
X110791340Y-120595428D01*
X111531037Y-119855731D01*
X111548075Y-119919316D01*
X111613901Y-120033330D01*
X111706993Y-120126422D01*
X111821007Y-120192248D01*
X111884590Y-120209285D01*
X111144893Y-120948981D01*
X111227828Y-121009237D01*
X111438197Y-121116425D01*
X111662752Y-121189388D01*
X111662751Y-121189388D01*
X111895948Y-121226323D01*
X112132052Y-121226323D01*
X112365247Y-121189388D01*
X112589802Y-121116425D01*
X112800163Y-121009241D01*
X112800169Y-121009237D01*
X112883104Y-120948981D01*
X112883105Y-120948981D01*
X112143408Y-120209285D01*
X112206993Y-120192248D01*
X112321007Y-120126422D01*
X112414099Y-120033330D01*
X112479925Y-119919316D01*
X112496962Y-119855732D01*
X113236658Y-120595428D01*
X113236658Y-120595427D01*
X113296914Y-120512492D01*
X113296918Y-120512486D01*
X113404102Y-120302125D01*
X113477065Y-120077570D01*
X113514000Y-119844375D01*
X113514000Y-119608270D01*
X113477065Y-119375075D01*
X113404102Y-119150520D01*
X113296914Y-118940151D01*
X113236658Y-118857217D01*
X113236658Y-118857216D01*
X112496962Y-119596913D01*
X112479925Y-119533330D01*
X112414099Y-119419316D01*
X112321007Y-119326224D01*
X112206993Y-119260398D01*
X112143409Y-119243360D01*
X112883105Y-118503663D01*
X112883104Y-118503661D01*
X112800174Y-118443410D01*
X112589802Y-118336220D01*
X112365247Y-118263257D01*
X112365248Y-118263257D01*
X112132052Y-118226323D01*
X111895948Y-118226323D01*
X111662752Y-118263257D01*
X111438197Y-118336220D01*
X111227830Y-118443407D01*
X111144894Y-118503663D01*
X111884591Y-119243360D01*
X111821007Y-119260398D01*
X111706993Y-119326224D01*
X111613901Y-119419316D01*
X111548075Y-119533330D01*
X111531037Y-119596914D01*
X110791340Y-118857217D01*
X110731084Y-118940153D01*
X110623897Y-119150520D01*
X110550934Y-119375075D01*
X110514000Y-119608270D01*
X98417500Y-119608270D01*
X98417500Y-113922053D01*
X110813500Y-113922053D01*
X110813500Y-115530592D01*
X110816353Y-115561022D01*
X110816353Y-115561024D01*
X110861206Y-115689203D01*
X110861207Y-115689205D01*
X110941850Y-115798473D01*
X111051118Y-115879116D01*
X111093845Y-115894067D01*
X111179299Y-115923969D01*
X111209730Y-115926823D01*
X111209734Y-115926823D01*
X112526035Y-115926823D01*
X112593074Y-115946508D01*
X112613716Y-115963142D01*
X114359063Y-117708489D01*
X114461790Y-117767799D01*
X114485998Y-117774284D01*
X114486001Y-117774286D01*
X114486002Y-117774286D01*
X114516124Y-117782357D01*
X114576368Y-117798500D01*
X131731147Y-117798500D01*
X131798186Y-117818185D01*
X131834249Y-117853610D01*
X131906374Y-117961553D01*
X131906380Y-117961561D01*
X132040441Y-118095622D01*
X132145300Y-118165686D01*
X132198085Y-118200956D01*
X132373249Y-118273512D01*
X132559197Y-118310499D01*
X132559201Y-118310500D01*
X132559202Y-118310500D01*
X133124799Y-118310500D01*
X133124800Y-118310499D01*
X133310751Y-118273512D01*
X133485915Y-118200956D01*
X133643558Y-118095622D01*
X133777622Y-117961558D01*
X133882956Y-117803915D01*
X133955512Y-117628751D01*
X133955512Y-117628749D01*
X133957843Y-117623123D01*
X133959946Y-117623994D01*
X133992681Y-117574057D01*
X134056497Y-117545608D01*
X134073034Y-117544500D01*
X137600308Y-117544500D01*
X137600309Y-117544500D01*
X137690673Y-117520286D01*
X137714887Y-117513799D01*
X137817614Y-117454489D01*
X138018906Y-117253197D01*
X157091500Y-117253197D01*
X157091500Y-117442802D01*
X157128486Y-117628743D01*
X157128488Y-117628751D01*
X157201042Y-117803912D01*
X157306377Y-117961558D01*
X157440441Y-118095622D01*
X157545300Y-118165686D01*
X157598085Y-118200956D01*
X157773249Y-118273512D01*
X157959197Y-118310499D01*
X157959201Y-118310500D01*
X157959202Y-118310500D01*
X158524799Y-118310500D01*
X158524800Y-118310499D01*
X158710751Y-118273512D01*
X158885915Y-118200956D01*
X159043558Y-118095622D01*
X159177622Y-117961558D01*
X159282956Y-117803915D01*
X159355512Y-117628751D01*
X159392500Y-117442798D01*
X159392500Y-117253202D01*
X159355512Y-117067249D01*
X159282956Y-116892085D01*
X159177625Y-116734446D01*
X159177622Y-116734441D01*
X159043558Y-116600377D01*
X158885912Y-116495042D01*
X158710751Y-116422488D01*
X158710743Y-116422486D01*
X158524802Y-116385500D01*
X158524798Y-116385500D01*
X157959202Y-116385500D01*
X157959197Y-116385500D01*
X157773256Y-116422486D01*
X157773248Y-116422488D01*
X157598087Y-116495042D01*
X157440441Y-116600377D01*
X157306377Y-116734441D01*
X157201042Y-116892087D01*
X157128488Y-117067248D01*
X157128486Y-117067256D01*
X157091500Y-117253197D01*
X138018906Y-117253197D01*
X140558906Y-114713197D01*
X157091500Y-114713197D01*
X157091500Y-114902802D01*
X157128486Y-115088743D01*
X157128488Y-115088751D01*
X157201042Y-115263912D01*
X157306377Y-115421558D01*
X157440441Y-115555622D01*
X157545300Y-115625686D01*
X157598085Y-115660956D01*
X157773249Y-115733512D01*
X157959197Y-115770499D01*
X157959201Y-115770500D01*
X157959202Y-115770500D01*
X158524799Y-115770500D01*
X158524800Y-115770499D01*
X158710751Y-115733512D01*
X158885915Y-115660956D01*
X159043558Y-115555622D01*
X159177622Y-115421558D01*
X159282956Y-115263915D01*
X159355512Y-115088751D01*
X159392500Y-114902798D01*
X159392500Y-114713202D01*
X159355512Y-114527249D01*
X159282956Y-114352085D01*
X159247686Y-114299300D01*
X159177622Y-114194441D01*
X159043558Y-114060377D01*
X158885912Y-113955042D01*
X158710751Y-113882488D01*
X158710743Y-113882486D01*
X158524802Y-113845500D01*
X158524798Y-113845500D01*
X157959202Y-113845500D01*
X157959197Y-113845500D01*
X157773256Y-113882486D01*
X157773248Y-113882488D01*
X157598087Y-113955042D01*
X157440441Y-114060377D01*
X157306377Y-114194441D01*
X157201042Y-114352087D01*
X157128488Y-114527248D01*
X157128486Y-114527256D01*
X157091500Y-114713197D01*
X140558906Y-114713197D01*
X143098906Y-112173197D01*
X157091500Y-112173197D01*
X157091500Y-112362802D01*
X157128486Y-112548743D01*
X157128488Y-112548751D01*
X157201042Y-112723912D01*
X157306377Y-112881558D01*
X157440441Y-113015622D01*
X157545300Y-113085686D01*
X157598085Y-113120956D01*
X157773249Y-113193512D01*
X157959197Y-113230499D01*
X157959201Y-113230500D01*
X157959202Y-113230500D01*
X158524799Y-113230500D01*
X158524800Y-113230499D01*
X158710751Y-113193512D01*
X158885915Y-113120956D01*
X159043558Y-113015622D01*
X159177622Y-112881558D01*
X159282956Y-112723915D01*
X159355512Y-112548751D01*
X159392500Y-112362798D01*
X159392500Y-112173202D01*
X159355512Y-111987249D01*
X159282956Y-111812085D01*
X159247686Y-111759300D01*
X159177622Y-111654441D01*
X159043558Y-111520377D01*
X158885912Y-111415042D01*
X158710751Y-111342488D01*
X158710743Y-111342486D01*
X158524802Y-111305500D01*
X158524798Y-111305500D01*
X157959202Y-111305500D01*
X157959197Y-111305500D01*
X157773256Y-111342486D01*
X157773248Y-111342488D01*
X157598087Y-111415042D01*
X157440441Y-111520377D01*
X157306377Y-111654441D01*
X157201042Y-111812087D01*
X157128488Y-111987248D01*
X157128486Y-111987256D01*
X157091500Y-112173197D01*
X143098906Y-112173197D01*
X145638906Y-109633197D01*
X157091500Y-109633197D01*
X157091500Y-109822802D01*
X157128486Y-110008743D01*
X157128488Y-110008751D01*
X157201042Y-110183912D01*
X157306377Y-110341558D01*
X157440441Y-110475622D01*
X157545300Y-110545686D01*
X157598085Y-110580956D01*
X157773249Y-110653512D01*
X157959197Y-110690499D01*
X157959201Y-110690500D01*
X157959202Y-110690500D01*
X158524799Y-110690500D01*
X158524800Y-110690499D01*
X158710751Y-110653512D01*
X158885915Y-110580956D01*
X159043558Y-110475622D01*
X159177622Y-110341558D01*
X159282956Y-110183915D01*
X159355512Y-110008751D01*
X159392500Y-109822798D01*
X159392500Y-109633202D01*
X159355512Y-109447249D01*
X159282956Y-109272085D01*
X159247686Y-109219300D01*
X159177622Y-109114441D01*
X159043558Y-108980377D01*
X158885912Y-108875042D01*
X158710751Y-108802488D01*
X158710743Y-108802486D01*
X158524802Y-108765500D01*
X158524798Y-108765500D01*
X157959202Y-108765500D01*
X157959197Y-108765500D01*
X157773256Y-108802486D01*
X157773248Y-108802488D01*
X157598087Y-108875042D01*
X157440441Y-108980377D01*
X157306377Y-109114441D01*
X157201042Y-109272087D01*
X157128488Y-109447248D01*
X157128486Y-109447256D01*
X157091500Y-109633197D01*
X145638906Y-109633197D01*
X148178906Y-107093197D01*
X157091500Y-107093197D01*
X157091500Y-107282802D01*
X157128486Y-107468743D01*
X157128488Y-107468751D01*
X157201042Y-107643912D01*
X157306377Y-107801558D01*
X157440441Y-107935622D01*
X157545300Y-108005686D01*
X157598085Y-108040956D01*
X157773249Y-108113512D01*
X157959197Y-108150499D01*
X157959201Y-108150500D01*
X157959202Y-108150500D01*
X158524799Y-108150500D01*
X158524800Y-108150499D01*
X158710751Y-108113512D01*
X158885915Y-108040956D01*
X159043558Y-107935622D01*
X159177622Y-107801558D01*
X159282956Y-107643915D01*
X159355512Y-107468751D01*
X159392500Y-107282798D01*
X159392500Y-107093202D01*
X159355512Y-106907249D01*
X159282956Y-106732085D01*
X159247686Y-106679300D01*
X159177622Y-106574441D01*
X159043558Y-106440377D01*
X158885912Y-106335042D01*
X158710751Y-106262488D01*
X158710743Y-106262486D01*
X158524802Y-106225500D01*
X158524798Y-106225500D01*
X157959202Y-106225500D01*
X157959197Y-106225500D01*
X157773256Y-106262486D01*
X157773248Y-106262488D01*
X157598087Y-106335042D01*
X157440441Y-106440377D01*
X157306377Y-106574441D01*
X157201042Y-106732087D01*
X157128488Y-106907248D01*
X157128486Y-106907256D01*
X157091500Y-107093197D01*
X148178906Y-107093197D01*
X150718906Y-104553197D01*
X157091500Y-104553197D01*
X157091500Y-104742802D01*
X157128486Y-104928743D01*
X157128488Y-104928751D01*
X157201042Y-105103912D01*
X157306377Y-105261558D01*
X157440441Y-105395622D01*
X157545300Y-105465686D01*
X157598085Y-105500956D01*
X157773249Y-105573512D01*
X157959197Y-105610499D01*
X157959201Y-105610500D01*
X157959202Y-105610500D01*
X158524799Y-105610500D01*
X158524800Y-105610499D01*
X158710751Y-105573512D01*
X158885915Y-105500956D01*
X159043558Y-105395622D01*
X159177622Y-105261558D01*
X159282956Y-105103915D01*
X159355512Y-104928751D01*
X159392500Y-104742798D01*
X159392500Y-104553202D01*
X159355512Y-104367249D01*
X159282956Y-104192085D01*
X159247686Y-104139300D01*
X159177622Y-104034441D01*
X159043558Y-103900377D01*
X158885912Y-103795042D01*
X158710751Y-103722488D01*
X158710743Y-103722486D01*
X158524802Y-103685500D01*
X158524798Y-103685500D01*
X157959202Y-103685500D01*
X157959197Y-103685500D01*
X157773256Y-103722486D01*
X157773248Y-103722488D01*
X157598087Y-103795042D01*
X157440441Y-103900377D01*
X157306377Y-104034441D01*
X157201042Y-104192087D01*
X157128488Y-104367248D01*
X157128486Y-104367256D01*
X157091500Y-104553197D01*
X150718906Y-104553197D01*
X153258906Y-102013197D01*
X157091500Y-102013197D01*
X157091500Y-102202802D01*
X157128486Y-102388743D01*
X157128488Y-102388751D01*
X157201042Y-102563912D01*
X157306377Y-102721558D01*
X157440441Y-102855622D01*
X157545300Y-102925686D01*
X157598085Y-102960956D01*
X157773249Y-103033512D01*
X157959197Y-103070499D01*
X157959201Y-103070500D01*
X157959202Y-103070500D01*
X158524799Y-103070500D01*
X158524800Y-103070499D01*
X158710751Y-103033512D01*
X158885915Y-102960956D01*
X159043558Y-102855622D01*
X159177622Y-102721558D01*
X159282956Y-102563915D01*
X159355512Y-102388751D01*
X159392500Y-102202798D01*
X159392500Y-102013202D01*
X159355512Y-101827249D01*
X159282956Y-101652085D01*
X159218841Y-101556130D01*
X159177622Y-101494441D01*
X159043558Y-101360377D01*
X158885912Y-101255042D01*
X158710751Y-101182488D01*
X158710743Y-101182486D01*
X158524802Y-101145500D01*
X158524798Y-101145500D01*
X157959202Y-101145500D01*
X157959197Y-101145500D01*
X157773256Y-101182486D01*
X157773248Y-101182488D01*
X157598087Y-101255042D01*
X157440441Y-101360377D01*
X157306377Y-101494441D01*
X157201042Y-101652087D01*
X157128488Y-101827248D01*
X157128486Y-101827256D01*
X157091500Y-102013197D01*
X153258906Y-102013197D01*
X154919489Y-100352614D01*
X154978798Y-100249887D01*
X154978799Y-100249886D01*
X155009500Y-100135309D01*
X155009500Y-99473197D01*
X157091500Y-99473197D01*
X157091500Y-99662802D01*
X157128486Y-99848743D01*
X157128488Y-99848751D01*
X157201042Y-100023912D01*
X157306377Y-100181558D01*
X157440441Y-100315622D01*
X157545300Y-100385686D01*
X157598085Y-100420956D01*
X157773249Y-100493512D01*
X157959197Y-100530499D01*
X157959201Y-100530500D01*
X157959202Y-100530500D01*
X158524799Y-100530500D01*
X158524800Y-100530499D01*
X158710751Y-100493512D01*
X158885915Y-100420956D01*
X159043558Y-100315622D01*
X159177622Y-100181558D01*
X159282956Y-100023915D01*
X159355512Y-99848751D01*
X159392500Y-99662798D01*
X159392500Y-99473202D01*
X159355512Y-99287249D01*
X159282956Y-99112085D01*
X159218841Y-99016130D01*
X159177622Y-98954441D01*
X159043558Y-98820377D01*
X158885912Y-98715042D01*
X158710751Y-98642488D01*
X158710743Y-98642486D01*
X158524802Y-98605500D01*
X158524798Y-98605500D01*
X157959202Y-98605500D01*
X157959197Y-98605500D01*
X157773256Y-98642486D01*
X157773248Y-98642488D01*
X157598087Y-98715042D01*
X157440441Y-98820377D01*
X157306377Y-98954441D01*
X157201042Y-99112087D01*
X157128488Y-99287248D01*
X157128486Y-99287256D01*
X157091500Y-99473197D01*
X155009500Y-99473197D01*
X155009500Y-96933197D01*
X157091500Y-96933197D01*
X157091500Y-97122802D01*
X157128486Y-97308743D01*
X157128488Y-97308751D01*
X157201042Y-97483912D01*
X157306377Y-97641558D01*
X157440441Y-97775622D01*
X157545300Y-97845686D01*
X157598085Y-97880956D01*
X157773249Y-97953512D01*
X157959197Y-97990499D01*
X157959201Y-97990500D01*
X157959202Y-97990500D01*
X158524799Y-97990500D01*
X158524800Y-97990499D01*
X158710751Y-97953512D01*
X158885915Y-97880956D01*
X159043558Y-97775622D01*
X159177622Y-97641558D01*
X159282956Y-97483915D01*
X159355512Y-97308751D01*
X159392500Y-97122798D01*
X159392500Y-96933202D01*
X159355512Y-96747249D01*
X159282956Y-96572085D01*
X159247686Y-96519300D01*
X159177622Y-96414441D01*
X159043558Y-96280377D01*
X158885912Y-96175042D01*
X158710751Y-96102488D01*
X158710743Y-96102486D01*
X158524802Y-96065500D01*
X158524798Y-96065500D01*
X157959202Y-96065500D01*
X157959197Y-96065500D01*
X157773256Y-96102486D01*
X157773248Y-96102488D01*
X157598087Y-96175042D01*
X157440441Y-96280377D01*
X157306377Y-96414441D01*
X157201042Y-96572087D01*
X157128488Y-96747248D01*
X157128486Y-96747256D01*
X157091500Y-96933197D01*
X155009500Y-96933197D01*
X155009500Y-94393197D01*
X157091500Y-94393197D01*
X157091500Y-94582802D01*
X157128486Y-94768743D01*
X157128488Y-94768751D01*
X157201042Y-94943912D01*
X157306377Y-95101558D01*
X157440441Y-95235622D01*
X157545300Y-95305686D01*
X157598085Y-95340956D01*
X157773249Y-95413512D01*
X157959197Y-95450499D01*
X157959201Y-95450500D01*
X157959202Y-95450500D01*
X158524799Y-95450500D01*
X158524800Y-95450499D01*
X158710751Y-95413512D01*
X158885915Y-95340956D01*
X159043558Y-95235622D01*
X159177622Y-95101558D01*
X159282956Y-94943915D01*
X159355512Y-94768751D01*
X159392500Y-94582798D01*
X159392500Y-94393202D01*
X159355512Y-94207249D01*
X159282956Y-94032085D01*
X159247686Y-93979300D01*
X159177622Y-93874441D01*
X159043558Y-93740377D01*
X158885912Y-93635042D01*
X158710751Y-93562488D01*
X158710743Y-93562486D01*
X158524802Y-93525500D01*
X158524798Y-93525500D01*
X157959202Y-93525500D01*
X157959197Y-93525500D01*
X157773256Y-93562486D01*
X157773248Y-93562488D01*
X157598087Y-93635042D01*
X157440441Y-93740377D01*
X157306377Y-93874441D01*
X157201042Y-94032087D01*
X157128488Y-94207248D01*
X157128486Y-94207256D01*
X157091500Y-94393197D01*
X155009500Y-94393197D01*
X155009500Y-91853197D01*
X157091500Y-91853197D01*
X157091500Y-92042802D01*
X157128486Y-92228743D01*
X157128488Y-92228751D01*
X157201042Y-92403912D01*
X157306377Y-92561558D01*
X157440441Y-92695622D01*
X157545300Y-92765686D01*
X157598085Y-92800956D01*
X157773249Y-92873512D01*
X157959197Y-92910499D01*
X157959201Y-92910500D01*
X157959202Y-92910500D01*
X158524799Y-92910500D01*
X158524800Y-92910499D01*
X158710751Y-92873512D01*
X158885915Y-92800956D01*
X159043558Y-92695622D01*
X159177622Y-92561558D01*
X159282956Y-92403915D01*
X159355512Y-92228751D01*
X159392500Y-92042798D01*
X159392500Y-91853202D01*
X159355512Y-91667249D01*
X159282956Y-91492085D01*
X159247686Y-91439300D01*
X159177622Y-91334441D01*
X159043558Y-91200377D01*
X158885912Y-91095042D01*
X158710751Y-91022488D01*
X158710743Y-91022486D01*
X158524802Y-90985500D01*
X158524798Y-90985500D01*
X157959202Y-90985500D01*
X157959197Y-90985500D01*
X157773256Y-91022486D01*
X157773248Y-91022488D01*
X157598087Y-91095042D01*
X157440441Y-91200377D01*
X157306377Y-91334441D01*
X157201042Y-91492087D01*
X157128488Y-91667248D01*
X157128486Y-91667256D01*
X157091500Y-91853197D01*
X155009500Y-91853197D01*
X155009500Y-89313197D01*
X157091500Y-89313197D01*
X157091500Y-89502802D01*
X157128486Y-89688743D01*
X157128488Y-89688751D01*
X157201042Y-89863912D01*
X157306377Y-90021558D01*
X157440441Y-90155622D01*
X157545300Y-90225686D01*
X157598085Y-90260956D01*
X157773249Y-90333512D01*
X157959197Y-90370499D01*
X157959201Y-90370500D01*
X157959202Y-90370500D01*
X158524799Y-90370500D01*
X158524800Y-90370499D01*
X158710751Y-90333512D01*
X158885915Y-90260956D01*
X159043558Y-90155622D01*
X159177622Y-90021558D01*
X159282956Y-89863915D01*
X159355512Y-89688751D01*
X159392500Y-89502798D01*
X159392500Y-89313202D01*
X159355512Y-89127249D01*
X159282956Y-88952085D01*
X159247686Y-88899300D01*
X159177622Y-88794441D01*
X159043558Y-88660377D01*
X158885912Y-88555042D01*
X158710751Y-88482488D01*
X158710743Y-88482486D01*
X158524802Y-88445500D01*
X158524798Y-88445500D01*
X157959202Y-88445500D01*
X157959197Y-88445500D01*
X157773256Y-88482486D01*
X157773248Y-88482488D01*
X157598087Y-88555042D01*
X157440441Y-88660377D01*
X157306377Y-88794441D01*
X157201042Y-88952087D01*
X157128488Y-89127248D01*
X157128486Y-89127256D01*
X157091500Y-89313197D01*
X155009500Y-89313197D01*
X155009500Y-86773197D01*
X157091500Y-86773197D01*
X157091500Y-86962802D01*
X157128486Y-87148743D01*
X157128488Y-87148751D01*
X157201042Y-87323912D01*
X157306377Y-87481558D01*
X157440441Y-87615622D01*
X157545300Y-87685686D01*
X157598085Y-87720956D01*
X157773249Y-87793512D01*
X157959197Y-87830499D01*
X157959201Y-87830500D01*
X157959202Y-87830500D01*
X158524799Y-87830500D01*
X158524800Y-87830499D01*
X158710751Y-87793512D01*
X158885915Y-87720956D01*
X159043558Y-87615622D01*
X159177622Y-87481558D01*
X159282956Y-87323915D01*
X159355512Y-87148751D01*
X159392500Y-86962798D01*
X159392500Y-86773202D01*
X159355512Y-86587249D01*
X159282956Y-86412085D01*
X159247686Y-86359300D01*
X159177622Y-86254441D01*
X159043558Y-86120377D01*
X158885912Y-86015042D01*
X158710751Y-85942488D01*
X158710743Y-85942486D01*
X158524802Y-85905500D01*
X158524798Y-85905500D01*
X157959202Y-85905500D01*
X157959197Y-85905500D01*
X157773256Y-85942486D01*
X157773248Y-85942488D01*
X157598087Y-86015042D01*
X157440441Y-86120377D01*
X157306377Y-86254441D01*
X157201042Y-86412087D01*
X157128488Y-86587248D01*
X157128486Y-86587256D01*
X157091500Y-86773197D01*
X155009500Y-86773197D01*
X155009500Y-84233197D01*
X157091500Y-84233197D01*
X157091500Y-84422802D01*
X157128486Y-84608743D01*
X157128488Y-84608751D01*
X157201042Y-84783912D01*
X157306377Y-84941558D01*
X157440441Y-85075622D01*
X157545300Y-85145686D01*
X157598085Y-85180956D01*
X157773249Y-85253512D01*
X157959197Y-85290499D01*
X157959201Y-85290500D01*
X157959202Y-85290500D01*
X158524799Y-85290500D01*
X158524800Y-85290499D01*
X158710751Y-85253512D01*
X158885915Y-85180956D01*
X159043558Y-85075622D01*
X159177622Y-84941558D01*
X159282956Y-84783915D01*
X159355512Y-84608751D01*
X159392500Y-84422798D01*
X159392500Y-84233202D01*
X159355512Y-84047249D01*
X159282956Y-83872085D01*
X159247686Y-83819300D01*
X159177622Y-83714441D01*
X159043558Y-83580377D01*
X158885912Y-83475042D01*
X158710751Y-83402488D01*
X158710743Y-83402486D01*
X158524802Y-83365500D01*
X158524798Y-83365500D01*
X157959202Y-83365500D01*
X157959197Y-83365500D01*
X157773256Y-83402486D01*
X157773248Y-83402488D01*
X157598087Y-83475042D01*
X157440441Y-83580377D01*
X157306377Y-83714441D01*
X157201042Y-83872087D01*
X157128488Y-84047248D01*
X157128486Y-84047256D01*
X157091500Y-84233197D01*
X155009500Y-84233197D01*
X155009500Y-81693197D01*
X157091500Y-81693197D01*
X157091500Y-81882802D01*
X157128486Y-82068743D01*
X157128488Y-82068751D01*
X157201042Y-82243912D01*
X157306377Y-82401558D01*
X157440441Y-82535622D01*
X157545300Y-82605686D01*
X157598085Y-82640956D01*
X157773249Y-82713512D01*
X157959197Y-82750499D01*
X157959201Y-82750500D01*
X157959202Y-82750500D01*
X158524799Y-82750500D01*
X158524800Y-82750499D01*
X158710751Y-82713512D01*
X158885915Y-82640956D01*
X159043558Y-82535622D01*
X159177622Y-82401558D01*
X159282956Y-82243915D01*
X159355512Y-82068751D01*
X159392500Y-81882798D01*
X159392500Y-81693202D01*
X159355512Y-81507249D01*
X159282956Y-81332085D01*
X159247686Y-81279300D01*
X159177622Y-81174441D01*
X159043558Y-81040377D01*
X158885912Y-80935042D01*
X158710751Y-80862488D01*
X158710743Y-80862486D01*
X158524802Y-80825500D01*
X158524798Y-80825500D01*
X157959202Y-80825500D01*
X157959197Y-80825500D01*
X157773256Y-80862486D01*
X157773248Y-80862488D01*
X157598087Y-80935042D01*
X157440441Y-81040377D01*
X157306377Y-81174441D01*
X157201042Y-81332087D01*
X157128488Y-81507248D01*
X157128486Y-81507256D01*
X157091500Y-81693197D01*
X155009500Y-81693197D01*
X155009500Y-76966054D01*
X155029185Y-76899015D01*
X155081989Y-76853260D01*
X155151147Y-76843316D01*
X155214703Y-76872341D01*
X155252477Y-76931119D01*
X155253263Y-76933918D01*
X155254718Y-76939348D01*
X155301142Y-77112605D01*
X155301145Y-77112615D01*
X155401493Y-77354877D01*
X155401498Y-77354887D01*
X155532615Y-77581990D01*
X155692258Y-77790038D01*
X155692266Y-77790047D01*
X155877680Y-77975461D01*
X155877688Y-77975468D01*
X156085736Y-78135111D01*
X156312839Y-78266228D01*
X156312849Y-78266233D01*
X156555111Y-78366581D01*
X156555121Y-78366585D01*
X156808424Y-78434457D01*
X157068420Y-78468687D01*
X157068427Y-78468687D01*
X157330653Y-78468687D01*
X157330660Y-78468687D01*
X157590656Y-78434457D01*
X157843959Y-78366585D01*
X158086237Y-78266230D01*
X158313343Y-78135111D01*
X158521391Y-77975469D01*
X158521395Y-77975464D01*
X158521400Y-77975461D01*
X158706814Y-77790047D01*
X158706817Y-77790042D01*
X158706822Y-77790038D01*
X158866464Y-77581990D01*
X158997583Y-77354884D01*
X159097938Y-77112606D01*
X159165810Y-76859303D01*
X159200040Y-76599307D01*
X159200040Y-76337067D01*
X159165810Y-76077071D01*
X159097938Y-75823768D01*
X158999744Y-75586707D01*
X158997586Y-75581496D01*
X158997581Y-75581486D01*
X158866464Y-75354383D01*
X158706821Y-75146335D01*
X158706814Y-75146327D01*
X158521400Y-74960913D01*
X158521391Y-74960905D01*
X158313343Y-74801262D01*
X158086240Y-74670145D01*
X158086230Y-74670140D01*
X157843968Y-74569792D01*
X157843961Y-74569790D01*
X157843959Y-74569789D01*
X157590656Y-74501917D01*
X157532879Y-74494310D01*
X157330667Y-74467687D01*
X157330660Y-74467687D01*
X157068420Y-74467687D01*
X157068412Y-74467687D01*
X156837312Y-74498113D01*
X156808424Y-74501917D01*
X156555121Y-74569789D01*
X156555111Y-74569792D01*
X156312849Y-74670140D01*
X156312839Y-74670145D01*
X156085736Y-74801262D01*
X155877688Y-74960905D01*
X155692258Y-75146335D01*
X155532615Y-75354383D01*
X155401498Y-75581486D01*
X155401493Y-75581496D01*
X155301145Y-75823758D01*
X155301142Y-75823766D01*
X155301142Y-75823768D01*
X155261084Y-75973270D01*
X155253275Y-76002412D01*
X155216910Y-76062073D01*
X155154063Y-76092602D01*
X155084687Y-76084307D01*
X155030810Y-76039822D01*
X155009535Y-75973270D01*
X155009500Y-75970319D01*
X155009500Y-61535693D01*
X155009500Y-61535691D01*
X154978799Y-61421114D01*
X154978799Y-61421113D01*
X154978799Y-61421112D01*
X154919492Y-61318389D01*
X154919488Y-61318384D01*
X151235819Y-57634715D01*
X151202334Y-57573392D01*
X151199500Y-57547034D01*
X151199500Y-57056853D01*
X151219185Y-56989814D01*
X151254610Y-56953751D01*
X151298845Y-56924193D01*
X151362558Y-56881622D01*
X151496622Y-56747558D01*
X151601956Y-56589915D01*
X151674512Y-56414751D01*
X151711500Y-56228798D01*
X151711500Y-56039202D01*
X151711500Y-56039199D01*
X151710601Y-56034678D01*
X152027000Y-56034678D01*
X152027000Y-56233321D01*
X152058075Y-56429520D01*
X152058075Y-56429523D01*
X152119457Y-56618437D01*
X152209641Y-56795432D01*
X152236730Y-56832715D01*
X152236731Y-56832716D01*
X152908000Y-56161447D01*
X152908000Y-56184160D01*
X152933964Y-56281061D01*
X152984124Y-56367940D01*
X153055060Y-56438876D01*
X153141939Y-56489036D01*
X153238840Y-56515000D01*
X153261553Y-56515000D01*
X152590283Y-57186268D01*
X152590283Y-57186269D01*
X152627567Y-57213358D01*
X152804562Y-57303542D01*
X152993477Y-57364924D01*
X153189679Y-57396000D01*
X153388321Y-57396000D01*
X153584520Y-57364924D01*
X153584523Y-57364924D01*
X153773437Y-57303542D01*
X153950425Y-57213362D01*
X153987716Y-57186268D01*
X153316448Y-56515000D01*
X153339160Y-56515000D01*
X153436061Y-56489036D01*
X153522940Y-56438876D01*
X153593876Y-56367940D01*
X153644036Y-56281061D01*
X153670000Y-56184160D01*
X153670000Y-56161447D01*
X154341268Y-56832715D01*
X154368362Y-56795425D01*
X154458542Y-56618437D01*
X154519924Y-56429523D01*
X154519924Y-56429520D01*
X154551000Y-56233321D01*
X154551000Y-56034678D01*
X154519924Y-55838479D01*
X154519924Y-55838476D01*
X154458542Y-55649562D01*
X154368358Y-55472567D01*
X154341268Y-55435283D01*
X153670000Y-56106551D01*
X153670000Y-56083840D01*
X153644036Y-55986939D01*
X153593876Y-55900060D01*
X153522940Y-55829124D01*
X153436061Y-55778964D01*
X153339160Y-55753000D01*
X153316447Y-55753000D01*
X153987716Y-55081731D01*
X153987715Y-55081730D01*
X153950432Y-55054641D01*
X153773437Y-54964457D01*
X153584522Y-54903075D01*
X153388321Y-54872000D01*
X153189679Y-54872000D01*
X152993479Y-54903075D01*
X152993476Y-54903075D01*
X152804562Y-54964457D01*
X152627564Y-55054643D01*
X152590283Y-55081729D01*
X152590282Y-55081730D01*
X153261554Y-55753000D01*
X153238840Y-55753000D01*
X153141939Y-55778964D01*
X153055060Y-55829124D01*
X152984124Y-55900060D01*
X152933964Y-55986939D01*
X152908000Y-56083840D01*
X152908000Y-56106552D01*
X152236730Y-55435282D01*
X152236729Y-55435283D01*
X152209643Y-55472564D01*
X152119457Y-55649562D01*
X152058075Y-55838476D01*
X152058075Y-55838479D01*
X152027000Y-56034678D01*
X151710601Y-56034678D01*
X151683823Y-55900060D01*
X151674512Y-55853249D01*
X151601956Y-55678085D01*
X151566686Y-55625300D01*
X151496622Y-55520441D01*
X151362558Y-55386377D01*
X151204912Y-55281042D01*
X151114400Y-55243551D01*
X151029751Y-55208488D01*
X151029743Y-55208486D01*
X150843802Y-55171500D01*
X150843798Y-55171500D01*
X150654202Y-55171500D01*
X150654197Y-55171500D01*
X150468256Y-55208486D01*
X150468248Y-55208488D01*
X150293087Y-55281042D01*
X150135441Y-55386377D01*
X150001377Y-55520441D01*
X149896042Y-55678087D01*
X149823488Y-55853248D01*
X149823486Y-55853256D01*
X149786500Y-56039197D01*
X149786500Y-56228802D01*
X149823486Y-56414743D01*
X149823488Y-56414751D01*
X149896042Y-56589912D01*
X150001377Y-56747558D01*
X150135438Y-56881619D01*
X150135446Y-56881625D01*
X150243390Y-56953751D01*
X150288196Y-57007363D01*
X150298500Y-57056853D01*
X150298500Y-57844308D01*
X150322712Y-57934672D01*
X150329200Y-57958885D01*
X150329200Y-57958886D01*
X150329201Y-57958887D01*
X150388511Y-58061614D01*
X150388513Y-58061616D01*
X154072181Y-61745284D01*
X154105666Y-61806607D01*
X154108500Y-61832965D01*
X154108500Y-99838035D01*
X154088815Y-99905074D01*
X154072181Y-99925716D01*
X137390716Y-116607181D01*
X137329393Y-116640666D01*
X137303035Y-116643500D01*
X133738043Y-116643500D01*
X133671004Y-116623815D01*
X133650362Y-116607181D01*
X133643558Y-116600377D01*
X133485912Y-116495042D01*
X133310751Y-116422488D01*
X133310743Y-116422486D01*
X133124802Y-116385500D01*
X133124798Y-116385500D01*
X132559202Y-116385500D01*
X132559197Y-116385500D01*
X132373256Y-116422486D01*
X132373248Y-116422488D01*
X132198087Y-116495042D01*
X132040441Y-116600377D01*
X131906380Y-116734438D01*
X131906374Y-116734446D01*
X131834249Y-116842390D01*
X131780637Y-116887196D01*
X131731147Y-116897500D01*
X114873642Y-116897500D01*
X114806603Y-116877815D01*
X114785961Y-116861181D01*
X113250819Y-115326039D01*
X113236115Y-115299111D01*
X113219523Y-115273293D01*
X113218631Y-115267092D01*
X113217334Y-115264716D01*
X113214500Y-115238358D01*
X113214500Y-114557999D01*
X131415865Y-114557999D01*
X131415865Y-114558000D01*
X132526314Y-114558000D01*
X132521920Y-114562394D01*
X132469259Y-114653606D01*
X132442000Y-114755339D01*
X132442000Y-114860661D01*
X132469259Y-114962394D01*
X132521920Y-115053606D01*
X132526314Y-115058000D01*
X131415865Y-115058000D01*
X131423074Y-115103517D01*
X131484456Y-115292435D01*
X131574641Y-115469432D01*
X131691403Y-115630139D01*
X131691403Y-115630140D01*
X131831859Y-115770596D01*
X131992567Y-115887358D01*
X132169562Y-115977542D01*
X132358477Y-116038924D01*
X132554679Y-116070000D01*
X132592000Y-116070000D01*
X132592000Y-115123686D01*
X132596394Y-115128080D01*
X132687606Y-115180741D01*
X132789339Y-115208000D01*
X132894661Y-115208000D01*
X132996394Y-115180741D01*
X133087606Y-115128080D01*
X133092000Y-115123686D01*
X133092000Y-116070000D01*
X133129321Y-116070000D01*
X133325520Y-116038924D01*
X133325523Y-116038924D01*
X133514437Y-115977542D01*
X133691432Y-115887358D01*
X133852139Y-115770596D01*
X133852140Y-115770596D01*
X133992596Y-115630140D01*
X133992596Y-115630139D01*
X134109358Y-115469432D01*
X134199543Y-115292435D01*
X134260925Y-115103517D01*
X134268134Y-115058000D01*
X133157686Y-115058000D01*
X133162080Y-115053606D01*
X133214741Y-114962394D01*
X133242000Y-114860661D01*
X133242000Y-114755339D01*
X133214741Y-114653606D01*
X133162080Y-114562394D01*
X133157686Y-114558000D01*
X134268135Y-114558000D01*
X134268134Y-114557999D01*
X134260925Y-114512482D01*
X134199543Y-114323564D01*
X134109358Y-114146567D01*
X133992596Y-113985860D01*
X133992596Y-113985859D01*
X133852140Y-113845403D01*
X133691432Y-113728641D01*
X133514437Y-113638457D01*
X133325522Y-113577075D01*
X133129321Y-113546000D01*
X133092000Y-113546000D01*
X133092000Y-114492314D01*
X133087606Y-114487920D01*
X132996394Y-114435259D01*
X132894661Y-114408000D01*
X132789339Y-114408000D01*
X132687606Y-114435259D01*
X132596394Y-114487920D01*
X132592000Y-114492314D01*
X132592000Y-113546000D01*
X132554679Y-113546000D01*
X132358479Y-113577075D01*
X132358476Y-113577075D01*
X132169562Y-113638457D01*
X131992567Y-113728641D01*
X131831860Y-113845403D01*
X131831859Y-113845403D01*
X131691403Y-113985859D01*
X131691403Y-113985860D01*
X131574641Y-114146567D01*
X131484456Y-114323564D01*
X131423074Y-114512482D01*
X131415865Y-114557999D01*
X113214500Y-114557999D01*
X113214500Y-113922053D01*
X113211646Y-113891623D01*
X113211646Y-113891621D01*
X113166793Y-113763442D01*
X113166792Y-113763440D01*
X113086150Y-113654173D01*
X112976882Y-113573530D01*
X112976880Y-113573529D01*
X112848700Y-113528676D01*
X112818270Y-113525823D01*
X112818266Y-113525823D01*
X111209734Y-113525823D01*
X111209730Y-113525823D01*
X111179300Y-113528676D01*
X111179298Y-113528676D01*
X111051119Y-113573529D01*
X111051117Y-113573530D01*
X110941850Y-113654173D01*
X110861207Y-113763440D01*
X110861206Y-113763442D01*
X110816353Y-113891621D01*
X110816353Y-113891623D01*
X110813500Y-113922053D01*
X98417500Y-113922053D01*
X98417500Y-112173197D01*
X131691500Y-112173197D01*
X131691500Y-112362802D01*
X131728486Y-112548743D01*
X131728488Y-112548751D01*
X131801042Y-112723912D01*
X131906377Y-112881558D01*
X132040441Y-113015622D01*
X132145300Y-113085686D01*
X132198085Y-113120956D01*
X132373249Y-113193512D01*
X132559197Y-113230499D01*
X132559201Y-113230500D01*
X132559202Y-113230500D01*
X133124799Y-113230500D01*
X133124800Y-113230499D01*
X133310751Y-113193512D01*
X133485915Y-113120956D01*
X133643558Y-113015622D01*
X133777622Y-112881558D01*
X133882956Y-112723915D01*
X133955512Y-112548751D01*
X133992500Y-112362798D01*
X133992500Y-112173202D01*
X133955512Y-111987249D01*
X133882956Y-111812085D01*
X133847686Y-111759300D01*
X133777622Y-111654441D01*
X133643558Y-111520377D01*
X133485912Y-111415042D01*
X133310751Y-111342488D01*
X133310743Y-111342486D01*
X133124802Y-111305500D01*
X133124798Y-111305500D01*
X132559202Y-111305500D01*
X132559197Y-111305500D01*
X132373256Y-111342486D01*
X132373248Y-111342488D01*
X132198087Y-111415042D01*
X132040441Y-111520377D01*
X131906377Y-111654441D01*
X131801042Y-111812087D01*
X131728488Y-111987248D01*
X131728486Y-111987256D01*
X131691500Y-112173197D01*
X98417500Y-112173197D01*
X98417500Y-109633197D01*
X131691500Y-109633197D01*
X131691500Y-109822802D01*
X131728486Y-110008743D01*
X131728488Y-110008751D01*
X131801042Y-110183912D01*
X131906377Y-110341558D01*
X132040441Y-110475622D01*
X132145300Y-110545686D01*
X132198085Y-110580956D01*
X132373249Y-110653512D01*
X132559197Y-110690499D01*
X132559201Y-110690500D01*
X132559202Y-110690500D01*
X133124799Y-110690500D01*
X133124800Y-110690499D01*
X133310751Y-110653512D01*
X133485915Y-110580956D01*
X133643558Y-110475622D01*
X133777622Y-110341558D01*
X133882956Y-110183915D01*
X133955512Y-110008751D01*
X133992500Y-109822798D01*
X133992500Y-109633202D01*
X133955512Y-109447249D01*
X133882956Y-109272085D01*
X133847686Y-109219300D01*
X133777622Y-109114441D01*
X133643558Y-108980377D01*
X133485912Y-108875042D01*
X133310751Y-108802488D01*
X133310743Y-108802486D01*
X133124802Y-108765500D01*
X133124798Y-108765500D01*
X132559202Y-108765500D01*
X132559197Y-108765500D01*
X132373256Y-108802486D01*
X132373248Y-108802488D01*
X132198087Y-108875042D01*
X132040441Y-108980377D01*
X131906377Y-109114441D01*
X131801042Y-109272087D01*
X131728488Y-109447248D01*
X131728486Y-109447256D01*
X131691500Y-109633197D01*
X98417500Y-109633197D01*
X98417500Y-107093197D01*
X131691500Y-107093197D01*
X131691500Y-107282802D01*
X131728486Y-107468743D01*
X131728488Y-107468751D01*
X131801042Y-107643912D01*
X131906377Y-107801558D01*
X132040441Y-107935622D01*
X132145300Y-108005686D01*
X132198085Y-108040956D01*
X132373249Y-108113512D01*
X132559197Y-108150499D01*
X132559201Y-108150500D01*
X132559202Y-108150500D01*
X133124799Y-108150500D01*
X133124800Y-108150499D01*
X133310751Y-108113512D01*
X133485915Y-108040956D01*
X133643558Y-107935622D01*
X133777622Y-107801558D01*
X133882956Y-107643915D01*
X133955512Y-107468751D01*
X133992500Y-107282798D01*
X133992500Y-107093202D01*
X133955512Y-106907249D01*
X133882956Y-106732085D01*
X133847686Y-106679300D01*
X133777622Y-106574441D01*
X133643558Y-106440377D01*
X133485912Y-106335042D01*
X133310751Y-106262488D01*
X133310743Y-106262486D01*
X133124802Y-106225500D01*
X133124798Y-106225500D01*
X132559202Y-106225500D01*
X132559197Y-106225500D01*
X132373256Y-106262486D01*
X132373248Y-106262488D01*
X132198087Y-106335042D01*
X132040441Y-106440377D01*
X131906377Y-106574441D01*
X131801042Y-106732087D01*
X131728488Y-106907248D01*
X131728486Y-106907256D01*
X131691500Y-107093197D01*
X98417500Y-107093197D01*
X98417500Y-104553197D01*
X131691500Y-104553197D01*
X131691500Y-104742802D01*
X131728486Y-104928743D01*
X131728488Y-104928751D01*
X131801042Y-105103912D01*
X131906377Y-105261558D01*
X132040441Y-105395622D01*
X132145300Y-105465686D01*
X132198085Y-105500956D01*
X132373249Y-105573512D01*
X132559197Y-105610499D01*
X132559201Y-105610500D01*
X132559202Y-105610500D01*
X133124799Y-105610500D01*
X133124800Y-105610499D01*
X133310751Y-105573512D01*
X133485915Y-105500956D01*
X133643558Y-105395622D01*
X133777622Y-105261558D01*
X133882956Y-105103915D01*
X133955512Y-104928751D01*
X133992500Y-104742798D01*
X133992500Y-104553202D01*
X133955512Y-104367249D01*
X133882956Y-104192085D01*
X133847686Y-104139300D01*
X133777622Y-104034441D01*
X133643558Y-103900377D01*
X133485912Y-103795042D01*
X133310751Y-103722488D01*
X133310743Y-103722486D01*
X133124802Y-103685500D01*
X133124798Y-103685500D01*
X132559202Y-103685500D01*
X132559197Y-103685500D01*
X132373256Y-103722486D01*
X132373248Y-103722488D01*
X132198087Y-103795042D01*
X132040441Y-103900377D01*
X131906377Y-104034441D01*
X131801042Y-104192087D01*
X131728488Y-104367248D01*
X131728486Y-104367256D01*
X131691500Y-104553197D01*
X98417500Y-104553197D01*
X98417500Y-102013197D01*
X131691500Y-102013197D01*
X131691500Y-102202802D01*
X131728486Y-102388743D01*
X131728488Y-102388751D01*
X131801042Y-102563912D01*
X131906377Y-102721558D01*
X132040441Y-102855622D01*
X132145300Y-102925686D01*
X132198085Y-102960956D01*
X132373249Y-103033512D01*
X132559197Y-103070499D01*
X132559201Y-103070500D01*
X132559202Y-103070500D01*
X133124799Y-103070500D01*
X133124800Y-103070499D01*
X133310751Y-103033512D01*
X133485915Y-102960956D01*
X133643558Y-102855622D01*
X133777622Y-102721558D01*
X133882956Y-102563915D01*
X133955512Y-102388751D01*
X133992500Y-102202798D01*
X133992500Y-102013202D01*
X133955512Y-101827249D01*
X133882956Y-101652085D01*
X133875376Y-101640740D01*
X133854499Y-101574066D01*
X133872983Y-101506686D01*
X133890794Y-101484175D01*
X150989460Y-84385511D01*
X151029021Y-84316989D01*
X151049500Y-84240562D01*
X151049500Y-70747359D01*
X151069185Y-70680320D01*
X151121989Y-70634565D01*
X151140157Y-70629089D01*
X151140019Y-70628663D01*
X151149300Y-70625647D01*
X151149301Y-70625646D01*
X151149304Y-70625646D01*
X151262342Y-70568050D01*
X151352050Y-70478342D01*
X151409646Y-70365304D01*
X151409646Y-70365302D01*
X151409647Y-70365301D01*
X151424499Y-70271524D01*
X151424500Y-70271519D01*
X151424499Y-69808482D01*
X151409646Y-69714696D01*
X151352050Y-69601658D01*
X151352046Y-69601654D01*
X151352045Y-69601652D01*
X151262347Y-69511954D01*
X151262344Y-69511952D01*
X151262342Y-69511950D01*
X151185517Y-69472805D01*
X151149301Y-69454352D01*
X151055524Y-69439500D01*
X150442482Y-69439500D01*
X150361519Y-69452323D01*
X150348696Y-69454354D01*
X150235658Y-69511950D01*
X150235657Y-69511951D01*
X150235652Y-69511954D01*
X150145954Y-69601652D01*
X150145951Y-69601657D01*
X150088352Y-69714698D01*
X150073500Y-69808475D01*
X150073500Y-70271517D01*
X150084292Y-70339657D01*
X150088354Y-70365304D01*
X150145950Y-70478342D01*
X150145952Y-70478344D01*
X150145954Y-70478347D01*
X150235652Y-70568045D01*
X150235654Y-70568046D01*
X150235658Y-70568050D01*
X150338320Y-70620359D01*
X150348698Y-70625647D01*
X150357980Y-70628663D01*
X150357162Y-70631177D01*
X150407019Y-70654803D01*
X150443959Y-70714109D01*
X150448500Y-70747359D01*
X150448500Y-84025166D01*
X150428815Y-84092205D01*
X150412181Y-84112847D01*
X133384132Y-101140895D01*
X133322809Y-101174380D01*
X133272260Y-101174831D01*
X133124802Y-101145500D01*
X133124798Y-101145500D01*
X132559202Y-101145500D01*
X132559197Y-101145500D01*
X132373256Y-101182486D01*
X132373248Y-101182488D01*
X132198087Y-101255042D01*
X132040441Y-101360377D01*
X131906377Y-101494441D01*
X131801042Y-101652087D01*
X131728488Y-101827248D01*
X131728486Y-101827256D01*
X131691500Y-102013197D01*
X98417500Y-102013197D01*
X98417500Y-99473197D01*
X131691500Y-99473197D01*
X131691500Y-99662802D01*
X131728486Y-99848743D01*
X131728488Y-99848751D01*
X131801042Y-100023912D01*
X131906377Y-100181558D01*
X132040441Y-100315622D01*
X132145300Y-100385686D01*
X132198085Y-100420956D01*
X132373249Y-100493512D01*
X132559197Y-100530499D01*
X132559201Y-100530500D01*
X132559202Y-100530500D01*
X133124799Y-100530500D01*
X133124800Y-100530499D01*
X133310751Y-100493512D01*
X133485915Y-100420956D01*
X133643558Y-100315622D01*
X133777622Y-100181558D01*
X133882956Y-100023915D01*
X133955512Y-99848751D01*
X133992500Y-99662798D01*
X133992500Y-99473202D01*
X133955512Y-99287249D01*
X133882956Y-99112085D01*
X133875376Y-99100740D01*
X133854499Y-99034066D01*
X133872983Y-98966686D01*
X133890794Y-98944175D01*
X140829460Y-92005511D01*
X140869021Y-91936989D01*
X140889500Y-91860562D01*
X140889500Y-70620359D01*
X140909185Y-70553320D01*
X140961989Y-70507565D01*
X140980157Y-70502089D01*
X140980019Y-70501663D01*
X140989300Y-70498647D01*
X140989301Y-70498646D01*
X140989304Y-70498646D01*
X141102342Y-70441050D01*
X141192050Y-70351342D01*
X141249646Y-70238304D01*
X141249646Y-70238302D01*
X141249647Y-70238301D01*
X141264499Y-70144524D01*
X141264500Y-70144519D01*
X141264499Y-69681482D01*
X141249646Y-69587696D01*
X141192050Y-69474658D01*
X141192046Y-69474654D01*
X141192045Y-69474652D01*
X141102347Y-69384954D01*
X141102344Y-69384952D01*
X141102342Y-69384950D01*
X141025517Y-69345805D01*
X140989301Y-69327352D01*
X140895524Y-69312500D01*
X140282482Y-69312500D01*
X140201519Y-69325323D01*
X140188696Y-69327354D01*
X140075658Y-69384950D01*
X140075657Y-69384951D01*
X140075652Y-69384954D01*
X139985954Y-69474652D01*
X139985951Y-69474657D01*
X139928352Y-69587698D01*
X139913500Y-69681475D01*
X139913500Y-70144517D01*
X139924292Y-70212657D01*
X139928354Y-70238304D01*
X139985950Y-70351342D01*
X139985952Y-70351344D01*
X139985954Y-70351347D01*
X140075652Y-70441045D01*
X140075654Y-70441046D01*
X140075658Y-70441050D01*
X140188696Y-70498646D01*
X140188698Y-70498647D01*
X140197980Y-70501663D01*
X140197162Y-70504177D01*
X140247019Y-70527803D01*
X140283959Y-70587109D01*
X140288500Y-70620359D01*
X140288500Y-91645166D01*
X140268815Y-91712205D01*
X140252181Y-91732847D01*
X133384132Y-98600895D01*
X133322809Y-98634380D01*
X133272260Y-98634831D01*
X133124802Y-98605500D01*
X133124798Y-98605500D01*
X132559202Y-98605500D01*
X132559197Y-98605500D01*
X132373256Y-98642486D01*
X132373248Y-98642488D01*
X132198087Y-98715042D01*
X132040441Y-98820377D01*
X131906377Y-98954441D01*
X131801042Y-99112087D01*
X131728488Y-99287248D01*
X131728486Y-99287256D01*
X131691500Y-99473197D01*
X98417500Y-99473197D01*
X98417500Y-96933197D01*
X131691500Y-96933197D01*
X131691500Y-97122802D01*
X131728486Y-97308743D01*
X131728488Y-97308751D01*
X131801042Y-97483912D01*
X131906377Y-97641558D01*
X132040441Y-97775622D01*
X132145300Y-97845686D01*
X132198085Y-97880956D01*
X132373249Y-97953512D01*
X132559197Y-97990499D01*
X132559201Y-97990500D01*
X132559202Y-97990500D01*
X133124799Y-97990500D01*
X133124800Y-97990499D01*
X133310751Y-97953512D01*
X133485915Y-97880956D01*
X133643558Y-97775622D01*
X133777622Y-97641558D01*
X133882956Y-97483915D01*
X133955512Y-97308751D01*
X133992500Y-97122798D01*
X133992500Y-96933202D01*
X133955512Y-96747249D01*
X133882956Y-96572085D01*
X133847686Y-96519300D01*
X133777622Y-96414441D01*
X133643558Y-96280377D01*
X133485912Y-96175042D01*
X133310751Y-96102488D01*
X133310743Y-96102486D01*
X133124802Y-96065500D01*
X133124798Y-96065500D01*
X132559202Y-96065500D01*
X132559197Y-96065500D01*
X132373256Y-96102486D01*
X132373248Y-96102488D01*
X132198087Y-96175042D01*
X132040441Y-96280377D01*
X131906377Y-96414441D01*
X131801042Y-96572087D01*
X131728488Y-96747248D01*
X131728486Y-96747256D01*
X131691500Y-96933197D01*
X98417500Y-96933197D01*
X98417500Y-95114168D01*
X98437185Y-95047129D01*
X98450618Y-95029809D01*
X98530348Y-94943915D01*
X99041541Y-94393197D01*
X131691500Y-94393197D01*
X131691500Y-94582802D01*
X131728486Y-94768743D01*
X131728488Y-94768751D01*
X131801042Y-94943912D01*
X131906377Y-95101558D01*
X132040441Y-95235622D01*
X132145300Y-95305686D01*
X132198085Y-95340956D01*
X132373249Y-95413512D01*
X132559197Y-95450499D01*
X132559201Y-95450500D01*
X132559202Y-95450500D01*
X133124799Y-95450500D01*
X133124800Y-95450499D01*
X133310751Y-95413512D01*
X133485915Y-95340956D01*
X133643558Y-95235622D01*
X133777622Y-95101558D01*
X133882956Y-94943915D01*
X133955512Y-94768751D01*
X133992500Y-94582798D01*
X133992500Y-94393202D01*
X133955512Y-94207249D01*
X133882956Y-94032085D01*
X133847686Y-93979300D01*
X133777622Y-93874441D01*
X133643558Y-93740377D01*
X133485912Y-93635042D01*
X133310751Y-93562488D01*
X133310743Y-93562486D01*
X133124802Y-93525500D01*
X133124798Y-93525500D01*
X132559202Y-93525500D01*
X132559197Y-93525500D01*
X132373256Y-93562486D01*
X132373248Y-93562488D01*
X132198087Y-93635042D01*
X132040441Y-93740377D01*
X131906377Y-93874441D01*
X131801042Y-94032087D01*
X131728488Y-94207248D01*
X131728486Y-94207256D01*
X131691500Y-94393197D01*
X99041541Y-94393197D01*
X101399244Y-91853197D01*
X131691500Y-91853197D01*
X131691500Y-92042802D01*
X131728486Y-92228743D01*
X131728488Y-92228751D01*
X131801042Y-92403912D01*
X131906377Y-92561558D01*
X132040441Y-92695622D01*
X132145300Y-92765686D01*
X132198085Y-92800956D01*
X132373249Y-92873512D01*
X132559197Y-92910499D01*
X132559201Y-92910500D01*
X132559202Y-92910500D01*
X133124799Y-92910500D01*
X133124800Y-92910499D01*
X133310751Y-92873512D01*
X133485915Y-92800956D01*
X133643558Y-92695622D01*
X133777622Y-92561558D01*
X133882956Y-92403915D01*
X133955512Y-92228751D01*
X133992500Y-92042798D01*
X133992500Y-91853202D01*
X133955512Y-91667249D01*
X133882956Y-91492085D01*
X133847686Y-91439300D01*
X133777622Y-91334441D01*
X133643558Y-91200377D01*
X133485912Y-91095042D01*
X133310751Y-91022488D01*
X133310743Y-91022486D01*
X133124802Y-90985500D01*
X133124798Y-90985500D01*
X132559202Y-90985500D01*
X132559197Y-90985500D01*
X132373256Y-91022486D01*
X132373248Y-91022488D01*
X132198087Y-91095042D01*
X132040441Y-91200377D01*
X131906377Y-91334441D01*
X131801042Y-91492087D01*
X131728488Y-91667248D01*
X131728486Y-91667256D01*
X131691500Y-91853197D01*
X101399244Y-91853197D01*
X103580954Y-89502798D01*
X103756947Y-89313197D01*
X131691500Y-89313197D01*
X131691500Y-89502802D01*
X131728486Y-89688743D01*
X131728488Y-89688751D01*
X131801042Y-89863912D01*
X131906377Y-90021558D01*
X132040441Y-90155622D01*
X132145300Y-90225686D01*
X132198085Y-90260956D01*
X132373249Y-90333512D01*
X132559197Y-90370499D01*
X132559201Y-90370500D01*
X132559202Y-90370500D01*
X133124799Y-90370500D01*
X133124800Y-90370499D01*
X133310751Y-90333512D01*
X133485915Y-90260956D01*
X133643558Y-90155622D01*
X133777622Y-90021558D01*
X133882956Y-89863915D01*
X133955512Y-89688751D01*
X133992500Y-89502798D01*
X133992500Y-89313202D01*
X133955512Y-89127249D01*
X133882956Y-88952085D01*
X133847686Y-88899300D01*
X133777622Y-88794441D01*
X133643558Y-88660377D01*
X133485912Y-88555042D01*
X133310751Y-88482488D01*
X133310743Y-88482486D01*
X133124802Y-88445500D01*
X133124798Y-88445500D01*
X132559202Y-88445500D01*
X132559197Y-88445500D01*
X132373256Y-88482486D01*
X132373248Y-88482488D01*
X132198087Y-88555042D01*
X132040441Y-88660377D01*
X131906377Y-88794441D01*
X131801042Y-88952087D01*
X131728488Y-89127248D01*
X131728486Y-89127256D01*
X131691500Y-89313197D01*
X103756947Y-89313197D01*
X103840902Y-89222751D01*
X106114650Y-86773197D01*
X131691500Y-86773197D01*
X131691500Y-86962802D01*
X131728486Y-87148743D01*
X131728488Y-87148751D01*
X131801042Y-87323912D01*
X131906377Y-87481558D01*
X132040441Y-87615622D01*
X132145300Y-87685686D01*
X132198085Y-87720956D01*
X132373249Y-87793512D01*
X132559197Y-87830499D01*
X132559201Y-87830500D01*
X132559202Y-87830500D01*
X133124799Y-87830500D01*
X133124800Y-87830499D01*
X133310751Y-87793512D01*
X133485915Y-87720956D01*
X133643558Y-87615622D01*
X133777622Y-87481558D01*
X133882956Y-87323915D01*
X133955512Y-87148751D01*
X133992500Y-86962798D01*
X133992500Y-86773202D01*
X133955512Y-86587249D01*
X133882956Y-86412085D01*
X133847686Y-86359300D01*
X133777622Y-86254441D01*
X133643558Y-86120377D01*
X133485912Y-86015042D01*
X133310751Y-85942488D01*
X133310743Y-85942486D01*
X133124802Y-85905500D01*
X133124798Y-85905500D01*
X132559202Y-85905500D01*
X132559197Y-85905500D01*
X132373256Y-85942486D01*
X132373248Y-85942488D01*
X132198087Y-86015042D01*
X132040441Y-86120377D01*
X131906377Y-86254441D01*
X131801042Y-86412087D01*
X131728488Y-86587248D01*
X131728486Y-86587256D01*
X131691500Y-86773197D01*
X106114650Y-86773197D01*
X106920072Y-85905500D01*
X108472353Y-84233197D01*
X131691500Y-84233197D01*
X131691500Y-84422802D01*
X131728486Y-84608743D01*
X131728488Y-84608751D01*
X131801042Y-84783912D01*
X131906377Y-84941558D01*
X132040441Y-85075622D01*
X132145300Y-85145686D01*
X132198085Y-85180956D01*
X132373249Y-85253512D01*
X132559197Y-85290499D01*
X132559201Y-85290500D01*
X132559202Y-85290500D01*
X133124799Y-85290500D01*
X133124800Y-85290499D01*
X133310751Y-85253512D01*
X133485915Y-85180956D01*
X133643558Y-85075622D01*
X133777622Y-84941558D01*
X133882956Y-84783915D01*
X133955512Y-84608751D01*
X133992500Y-84422798D01*
X133992500Y-84233202D01*
X133955512Y-84047249D01*
X133882956Y-83872085D01*
X133847686Y-83819300D01*
X133777622Y-83714441D01*
X133643558Y-83580377D01*
X133485912Y-83475042D01*
X133310751Y-83402488D01*
X133310743Y-83402486D01*
X133124802Y-83365500D01*
X133124798Y-83365500D01*
X132559202Y-83365500D01*
X132559197Y-83365500D01*
X132373256Y-83402486D01*
X132373248Y-83402488D01*
X132198087Y-83475042D01*
X132040441Y-83580377D01*
X131906377Y-83714441D01*
X131801042Y-83872087D01*
X131728488Y-84047248D01*
X131728486Y-84047256D01*
X131691500Y-84233197D01*
X108472353Y-84233197D01*
X110830057Y-81693197D01*
X131691500Y-81693197D01*
X131691500Y-81882802D01*
X131728486Y-82068743D01*
X131728488Y-82068751D01*
X131801042Y-82243912D01*
X131906377Y-82401558D01*
X132040441Y-82535622D01*
X132145300Y-82605686D01*
X132198085Y-82640956D01*
X132373249Y-82713512D01*
X132559197Y-82750499D01*
X132559201Y-82750500D01*
X132559202Y-82750500D01*
X133124799Y-82750500D01*
X133124800Y-82750499D01*
X133310751Y-82713512D01*
X133485915Y-82640956D01*
X133643558Y-82535622D01*
X133777622Y-82401558D01*
X133882956Y-82243915D01*
X133955512Y-82068751D01*
X133992500Y-81882798D01*
X133992500Y-81693202D01*
X133955512Y-81507249D01*
X133882956Y-81332085D01*
X133847686Y-81279300D01*
X133777622Y-81174441D01*
X133643558Y-81040377D01*
X133485912Y-80935042D01*
X133310751Y-80862488D01*
X133310743Y-80862486D01*
X133124802Y-80825500D01*
X133124798Y-80825500D01*
X132559202Y-80825500D01*
X132559197Y-80825500D01*
X132373256Y-80862486D01*
X132373248Y-80862488D01*
X132198087Y-80935042D01*
X132040441Y-81040377D01*
X131906377Y-81174441D01*
X131801042Y-81332087D01*
X131728488Y-81507248D01*
X131728486Y-81507256D01*
X131691500Y-81693197D01*
X110830057Y-81693197D01*
X115801783Y-76337059D01*
X132199040Y-76337059D01*
X132199040Y-76599314D01*
X132219976Y-76758327D01*
X132233270Y-76859303D01*
X132254718Y-76939348D01*
X132301142Y-77112605D01*
X132301145Y-77112615D01*
X132401493Y-77354877D01*
X132401498Y-77354887D01*
X132532615Y-77581990D01*
X132692258Y-77790038D01*
X132692266Y-77790047D01*
X132877680Y-77975461D01*
X132877688Y-77975468D01*
X133085736Y-78135111D01*
X133312839Y-78266228D01*
X133312849Y-78266233D01*
X133555111Y-78366581D01*
X133555121Y-78366585D01*
X133808424Y-78434457D01*
X134068420Y-78468687D01*
X134068427Y-78468687D01*
X134330653Y-78468687D01*
X134330660Y-78468687D01*
X134590656Y-78434457D01*
X134843959Y-78366585D01*
X135086237Y-78266230D01*
X135313343Y-78135111D01*
X135521391Y-77975469D01*
X135521395Y-77975464D01*
X135521400Y-77975461D01*
X135706814Y-77790047D01*
X135706817Y-77790042D01*
X135706822Y-77790038D01*
X135866464Y-77581990D01*
X135997583Y-77354884D01*
X136097938Y-77112606D01*
X136165810Y-76859303D01*
X136200040Y-76599307D01*
X136200040Y-76337067D01*
X136165810Y-76077071D01*
X136097938Y-75823768D01*
X135999744Y-75586707D01*
X135997586Y-75581496D01*
X135997581Y-75581486D01*
X135866464Y-75354383D01*
X135706821Y-75146335D01*
X135706814Y-75146327D01*
X135521400Y-74960913D01*
X135521391Y-74960905D01*
X135313343Y-74801262D01*
X135086240Y-74670145D01*
X135086230Y-74670140D01*
X134843968Y-74569792D01*
X134843961Y-74569790D01*
X134843959Y-74569789D01*
X134590656Y-74501917D01*
X134532879Y-74494310D01*
X134330667Y-74467687D01*
X134330660Y-74467687D01*
X134068420Y-74467687D01*
X134068412Y-74467687D01*
X133837312Y-74498113D01*
X133808424Y-74501917D01*
X133555121Y-74569789D01*
X133555111Y-74569792D01*
X133312849Y-74670140D01*
X133312839Y-74670145D01*
X133085736Y-74801262D01*
X132877688Y-74960905D01*
X132692258Y-75146335D01*
X132532615Y-75354383D01*
X132401498Y-75581486D01*
X132401493Y-75581496D01*
X132301145Y-75823758D01*
X132301142Y-75823768D01*
X132233270Y-76077072D01*
X132199040Y-76337059D01*
X115801783Y-76337059D01*
X122915488Y-68673325D01*
X122955500Y-68633314D01*
X122960224Y-68625130D01*
X122966651Y-68618207D01*
X122966650Y-68618207D01*
X122966653Y-68618205D01*
X122993100Y-68568187D01*
X123021392Y-68519186D01*
X123023837Y-68510059D01*
X123028255Y-68501705D01*
X123040350Y-68448752D01*
X123041441Y-68444355D01*
X123055500Y-68391892D01*
X123055500Y-68382441D01*
X123057604Y-68373231D01*
X123055500Y-68316694D01*
X123055500Y-63129730D01*
X139663500Y-63129730D01*
X139663500Y-63738269D01*
X139666353Y-63768699D01*
X139666353Y-63768701D01*
X139705002Y-63879150D01*
X139711207Y-63896882D01*
X139791850Y-64006150D01*
X139901118Y-64086793D01*
X139943845Y-64101744D01*
X140029299Y-64131646D01*
X140059730Y-64134500D01*
X140059734Y-64134500D01*
X140164500Y-64134500D01*
X140231539Y-64154185D01*
X140277294Y-64206989D01*
X140288500Y-64258500D01*
X140288500Y-67555640D01*
X140268815Y-67622679D01*
X140216011Y-67668434D01*
X140197842Y-67673911D01*
X140197981Y-67674337D01*
X140188699Y-67677352D01*
X140133297Y-67705580D01*
X140075658Y-67734950D01*
X140075657Y-67734951D01*
X140075652Y-67734954D01*
X139985954Y-67824652D01*
X139985951Y-67824657D01*
X139928352Y-67937698D01*
X139913500Y-68031475D01*
X139913500Y-68494517D01*
X139924292Y-68562657D01*
X139928354Y-68588304D01*
X139985950Y-68701342D01*
X139985952Y-68701344D01*
X139985954Y-68701347D01*
X140075652Y-68791045D01*
X140075654Y-68791046D01*
X140075658Y-68791050D01*
X140188694Y-68848645D01*
X140188698Y-68848647D01*
X140282475Y-68863499D01*
X140282481Y-68863500D01*
X140895518Y-68863499D01*
X140989304Y-68848646D01*
X141102342Y-68791050D01*
X141192050Y-68701342D01*
X141249646Y-68588304D01*
X141249646Y-68588302D01*
X141249647Y-68588301D01*
X141264499Y-68494524D01*
X141264500Y-68494519D01*
X141264499Y-68031482D01*
X141249646Y-67937696D01*
X141192050Y-67824658D01*
X141192046Y-67824654D01*
X141192045Y-67824652D01*
X141102347Y-67734954D01*
X141102344Y-67734952D01*
X141102342Y-67734950D01*
X141025517Y-67695805D01*
X140989301Y-67677352D01*
X140980020Y-67674337D01*
X140980836Y-67671825D01*
X140930963Y-67648180D01*
X140894034Y-67588866D01*
X140889500Y-67555640D01*
X140889500Y-64258500D01*
X140909185Y-64191461D01*
X140961989Y-64145706D01*
X141013500Y-64134500D01*
X141118270Y-64134500D01*
X141148699Y-64131646D01*
X141148701Y-64131646D01*
X141212790Y-64109219D01*
X141276882Y-64086793D01*
X141386150Y-64006150D01*
X141466793Y-63896882D01*
X141489219Y-63832790D01*
X141511646Y-63768701D01*
X141511646Y-63768699D01*
X141514500Y-63738269D01*
X141514500Y-63129730D01*
X141511646Y-63099303D01*
X141511646Y-63099301D01*
X141477854Y-63002730D01*
X149635500Y-63002730D01*
X149635500Y-63611269D01*
X149638353Y-63641699D01*
X149638353Y-63641701D01*
X149683206Y-63769880D01*
X149683207Y-63769882D01*
X149763850Y-63879150D01*
X149873118Y-63959793D01*
X149915845Y-63974744D01*
X150001299Y-64004646D01*
X150031730Y-64007500D01*
X150031734Y-64007500D01*
X150136500Y-64007500D01*
X150203539Y-64027185D01*
X150249294Y-64079989D01*
X150260500Y-64131500D01*
X150260500Y-67785745D01*
X150240815Y-67852784D01*
X150224181Y-67873426D01*
X150145954Y-67951652D01*
X150145951Y-67951657D01*
X150088352Y-68064698D01*
X150073500Y-68158475D01*
X150073500Y-68621517D01*
X150081706Y-68673325D01*
X150088354Y-68715304D01*
X150145950Y-68828342D01*
X150145952Y-68828344D01*
X150145954Y-68828347D01*
X150235652Y-68918045D01*
X150235654Y-68918046D01*
X150235658Y-68918050D01*
X150348694Y-68975645D01*
X150348698Y-68975647D01*
X150442475Y-68990499D01*
X150442481Y-68990500D01*
X151055518Y-68990499D01*
X151149304Y-68975646D01*
X151262342Y-68918050D01*
X151352050Y-68828342D01*
X151409646Y-68715304D01*
X151409646Y-68715302D01*
X151409647Y-68715301D01*
X151424499Y-68621524D01*
X151424500Y-68621519D01*
X151424499Y-68158482D01*
X151409646Y-68064696D01*
X151352050Y-67951658D01*
X151352046Y-67951654D01*
X151352045Y-67951652D01*
X151262347Y-67861954D01*
X151262344Y-67861952D01*
X151262342Y-67861950D01*
X151185517Y-67822805D01*
X151149301Y-67804352D01*
X151055524Y-67789500D01*
X151055519Y-67789500D01*
X150985500Y-67789500D01*
X150918461Y-67769815D01*
X150872706Y-67717011D01*
X150861500Y-67665500D01*
X150861500Y-64131500D01*
X150881185Y-64064461D01*
X150933989Y-64018706D01*
X150985500Y-64007500D01*
X151090270Y-64007500D01*
X151120699Y-64004646D01*
X151120701Y-64004646D01*
X151184790Y-63982219D01*
X151248882Y-63959793D01*
X151358150Y-63879150D01*
X151438793Y-63769882D01*
X151461219Y-63705790D01*
X151483646Y-63641701D01*
X151483646Y-63641699D01*
X151486500Y-63611269D01*
X151486500Y-63002730D01*
X151483646Y-62972300D01*
X151483646Y-62972298D01*
X151438793Y-62844119D01*
X151438792Y-62844117D01*
X151358150Y-62734850D01*
X151248882Y-62654207D01*
X151248880Y-62654206D01*
X151120700Y-62609353D01*
X151090270Y-62606500D01*
X151090266Y-62606500D01*
X150031734Y-62606500D01*
X150031730Y-62606500D01*
X150001300Y-62609353D01*
X150001298Y-62609353D01*
X149873119Y-62654206D01*
X149873117Y-62654207D01*
X149763850Y-62734850D01*
X149683207Y-62844117D01*
X149683206Y-62844119D01*
X149638353Y-62972298D01*
X149638353Y-62972300D01*
X149635500Y-63002730D01*
X141477854Y-63002730D01*
X141466793Y-62971118D01*
X141386150Y-62861850D01*
X141276882Y-62781207D01*
X141276880Y-62781206D01*
X141148700Y-62736353D01*
X141118270Y-62733500D01*
X141118266Y-62733500D01*
X140059734Y-62733500D01*
X140059730Y-62733500D01*
X140029300Y-62736353D01*
X140029298Y-62736353D01*
X139901119Y-62781206D01*
X139901117Y-62781207D01*
X139791850Y-62861850D01*
X139711207Y-62971117D01*
X139711206Y-62971119D01*
X139666353Y-63099298D01*
X139666353Y-63099300D01*
X139663500Y-63129730D01*
X123055500Y-63129730D01*
X123055500Y-56039197D01*
X137086500Y-56039197D01*
X137086500Y-56228802D01*
X137123486Y-56414743D01*
X137123488Y-56414751D01*
X137196042Y-56589912D01*
X137301377Y-56747558D01*
X137435438Y-56881619D01*
X137435442Y-56881622D01*
X137593078Y-56986952D01*
X137593091Y-56986959D01*
X137671952Y-57019624D01*
X137726356Y-57063465D01*
X137748421Y-57129759D01*
X137748500Y-57134185D01*
X137748500Y-59033562D01*
X137762152Y-59084513D01*
X137768979Y-59109990D01*
X137768982Y-59109995D01*
X137808535Y-59178504D01*
X137808541Y-59178512D01*
X139653505Y-61023476D01*
X139686990Y-61084799D01*
X139682866Y-61152110D01*
X139666354Y-61199298D01*
X139666353Y-61199305D01*
X139663500Y-61229730D01*
X139663500Y-61838269D01*
X139666353Y-61868699D01*
X139666353Y-61868701D01*
X139705002Y-61979150D01*
X139711207Y-61996882D01*
X139791850Y-62106150D01*
X139901118Y-62186793D01*
X139943845Y-62201744D01*
X140029299Y-62231646D01*
X140059730Y-62234500D01*
X140059734Y-62234500D01*
X141118270Y-62234500D01*
X141148699Y-62231646D01*
X141148701Y-62231646D01*
X141212790Y-62209219D01*
X141276882Y-62186793D01*
X141386150Y-62106150D01*
X141466793Y-61996882D01*
X141489219Y-61932790D01*
X141511646Y-61868701D01*
X141511646Y-61868699D01*
X141514500Y-61838269D01*
X141514500Y-61229730D01*
X141511646Y-61199300D01*
X141511646Y-61199298D01*
X141471580Y-61084799D01*
X141466793Y-61071118D01*
X141386150Y-60961850D01*
X141276882Y-60881207D01*
X141276880Y-60881206D01*
X141148700Y-60836353D01*
X141118270Y-60833500D01*
X141118266Y-60833500D01*
X140364833Y-60833500D01*
X140297794Y-60813815D01*
X140277152Y-60797181D01*
X138385819Y-58905848D01*
X138352334Y-58844525D01*
X138349500Y-58818167D01*
X138349500Y-57134185D01*
X138369185Y-57067146D01*
X138421989Y-57021391D01*
X138426048Y-57019624D01*
X138504908Y-56986959D01*
X138504908Y-56986958D01*
X138504915Y-56986956D01*
X138662558Y-56881622D01*
X138796622Y-56747558D01*
X138901956Y-56589915D01*
X138974512Y-56414751D01*
X139011500Y-56228798D01*
X139011500Y-56039202D01*
X139011500Y-56039199D01*
X139010601Y-56034678D01*
X139327000Y-56034678D01*
X139327000Y-56233321D01*
X139358075Y-56429520D01*
X139358075Y-56429523D01*
X139419457Y-56618437D01*
X139509641Y-56795432D01*
X139536730Y-56832715D01*
X139536731Y-56832716D01*
X140208000Y-56161447D01*
X140208000Y-56184160D01*
X140233964Y-56281061D01*
X140284124Y-56367940D01*
X140355060Y-56438876D01*
X140441939Y-56489036D01*
X140538840Y-56515000D01*
X140561553Y-56515000D01*
X139890283Y-57186268D01*
X139890283Y-57186269D01*
X139927567Y-57213358D01*
X140104562Y-57303542D01*
X140293477Y-57364924D01*
X140489679Y-57396000D01*
X140688321Y-57396000D01*
X140884520Y-57364924D01*
X140884523Y-57364924D01*
X141073437Y-57303542D01*
X141250425Y-57213362D01*
X141287716Y-57186268D01*
X140616448Y-56515000D01*
X140639160Y-56515000D01*
X140736061Y-56489036D01*
X140822940Y-56438876D01*
X140893876Y-56367940D01*
X140944036Y-56281061D01*
X140970000Y-56184160D01*
X140970000Y-56161447D01*
X141641268Y-56832715D01*
X141668362Y-56795425D01*
X141758542Y-56618437D01*
X141819924Y-56429523D01*
X141819924Y-56429520D01*
X141851000Y-56233321D01*
X141851000Y-56039197D01*
X142166500Y-56039197D01*
X142166500Y-56228802D01*
X142203486Y-56414743D01*
X142203488Y-56414751D01*
X142276042Y-56589912D01*
X142381377Y-56747558D01*
X142515441Y-56881622D01*
X142620300Y-56951686D01*
X142673085Y-56986956D01*
X142673086Y-56986956D01*
X142673087Y-56986957D01*
X142712766Y-57003392D01*
X142848249Y-57059512D01*
X143034197Y-57096499D01*
X143034201Y-57096500D01*
X143034202Y-57096500D01*
X143223799Y-57096500D01*
X143223800Y-57096499D01*
X143409751Y-57059512D01*
X143584915Y-56986956D01*
X143742558Y-56881622D01*
X143876622Y-56747558D01*
X143981956Y-56589915D01*
X143996627Y-56554495D01*
X144014625Y-56511047D01*
X144058467Y-56456643D01*
X144124761Y-56434579D01*
X144129186Y-56434500D01*
X145112167Y-56434500D01*
X145179206Y-56454185D01*
X145199848Y-56470819D01*
X149625505Y-60896476D01*
X149658990Y-60957799D01*
X149654866Y-61025110D01*
X149638354Y-61072298D01*
X149638353Y-61072305D01*
X149635500Y-61102730D01*
X149635500Y-61711269D01*
X149638353Y-61741699D01*
X149638353Y-61741701D01*
X149683206Y-61869880D01*
X149683207Y-61869882D01*
X149763850Y-61979150D01*
X149873118Y-62059793D01*
X149915845Y-62074744D01*
X150001299Y-62104646D01*
X150031730Y-62107500D01*
X150031734Y-62107500D01*
X151090270Y-62107500D01*
X151120699Y-62104646D01*
X151120701Y-62104646D01*
X151184790Y-62082219D01*
X151248882Y-62059793D01*
X151358150Y-61979150D01*
X151438793Y-61869882D01*
X151482392Y-61745284D01*
X151483646Y-61741701D01*
X151483646Y-61741699D01*
X151486500Y-61711269D01*
X151486500Y-61102730D01*
X151483646Y-61072300D01*
X151483646Y-61072298D01*
X151443580Y-60957799D01*
X151438793Y-60944118D01*
X151358150Y-60834850D01*
X151248882Y-60754207D01*
X151248880Y-60754206D01*
X151120700Y-60709353D01*
X151090270Y-60706500D01*
X151090266Y-60706500D01*
X150336833Y-60706500D01*
X150269794Y-60686815D01*
X150249152Y-60670181D01*
X145472512Y-55893541D01*
X145472504Y-55893535D01*
X145403995Y-55853982D01*
X145403990Y-55853979D01*
X145378513Y-55847152D01*
X145327562Y-55833500D01*
X145327560Y-55833500D01*
X144129186Y-55833500D01*
X144062147Y-55813815D01*
X144016392Y-55761011D01*
X144014625Y-55756953D01*
X143981957Y-55678087D01*
X143876622Y-55520441D01*
X143742558Y-55386377D01*
X143584912Y-55281042D01*
X143409751Y-55208488D01*
X143409743Y-55208486D01*
X143223802Y-55171500D01*
X143223798Y-55171500D01*
X143034202Y-55171500D01*
X143034197Y-55171500D01*
X142848256Y-55208486D01*
X142848248Y-55208488D01*
X142673087Y-55281042D01*
X142515441Y-55386377D01*
X142381377Y-55520441D01*
X142276042Y-55678087D01*
X142203488Y-55853248D01*
X142203486Y-55853256D01*
X142166500Y-56039197D01*
X141851000Y-56039197D01*
X141851000Y-56034678D01*
X141819924Y-55838479D01*
X141819924Y-55838476D01*
X141758542Y-55649562D01*
X141668358Y-55472567D01*
X141641268Y-55435283D01*
X140970000Y-56106551D01*
X140970000Y-56083840D01*
X140944036Y-55986939D01*
X140893876Y-55900060D01*
X140822940Y-55829124D01*
X140736061Y-55778964D01*
X140639160Y-55753000D01*
X140616447Y-55753000D01*
X141287716Y-55081731D01*
X141287715Y-55081730D01*
X141250432Y-55054641D01*
X141073437Y-54964457D01*
X140884522Y-54903075D01*
X140688321Y-54872000D01*
X140489679Y-54872000D01*
X140293479Y-54903075D01*
X140293476Y-54903075D01*
X140104562Y-54964457D01*
X139927564Y-55054643D01*
X139890283Y-55081729D01*
X139890282Y-55081730D01*
X140561554Y-55753000D01*
X140538840Y-55753000D01*
X140441939Y-55778964D01*
X140355060Y-55829124D01*
X140284124Y-55900060D01*
X140233964Y-55986939D01*
X140208000Y-56083840D01*
X140208000Y-56106552D01*
X139536730Y-55435282D01*
X139536729Y-55435283D01*
X139509643Y-55472564D01*
X139419457Y-55649562D01*
X139358075Y-55838476D01*
X139358075Y-55838479D01*
X139327000Y-56034678D01*
X139010601Y-56034678D01*
X138983823Y-55900060D01*
X138974512Y-55853249D01*
X138901956Y-55678085D01*
X138866686Y-55625300D01*
X138796622Y-55520441D01*
X138662558Y-55386377D01*
X138504912Y-55281042D01*
X138414400Y-55243551D01*
X138329751Y-55208488D01*
X138329743Y-55208486D01*
X138143802Y-55171500D01*
X138143798Y-55171500D01*
X137954202Y-55171500D01*
X137954197Y-55171500D01*
X137768256Y-55208486D01*
X137768248Y-55208488D01*
X137593087Y-55281042D01*
X137435441Y-55386377D01*
X137301377Y-55520441D01*
X137196042Y-55678087D01*
X137123488Y-55853248D01*
X137123486Y-55853256D01*
X137086500Y-56039197D01*
X123055500Y-56039197D01*
X123055500Y-36989197D01*
X137086500Y-36989197D01*
X137086500Y-37178802D01*
X137123486Y-37364743D01*
X137123488Y-37364751D01*
X137196042Y-37539912D01*
X137301377Y-37697558D01*
X137435441Y-37831622D01*
X137540300Y-37901686D01*
X137593085Y-37936956D01*
X137768249Y-38009512D01*
X137954197Y-38046499D01*
X137954201Y-38046500D01*
X137954202Y-38046500D01*
X138143799Y-38046500D01*
X138143800Y-38046499D01*
X138329751Y-38009512D01*
X138504915Y-37936956D01*
X138662558Y-37831622D01*
X138796622Y-37697558D01*
X138901956Y-37539915D01*
X138974512Y-37364751D01*
X139011500Y-37178798D01*
X139011500Y-36989202D01*
X139011499Y-36989197D01*
X139626500Y-36989197D01*
X139626500Y-37178802D01*
X139663486Y-37364743D01*
X139663488Y-37364751D01*
X139736042Y-37539912D01*
X139841377Y-37697558D01*
X139975441Y-37831622D01*
X140080300Y-37901686D01*
X140133085Y-37936956D01*
X140308249Y-38009512D01*
X140494197Y-38046499D01*
X140494201Y-38046500D01*
X140494202Y-38046500D01*
X140683799Y-38046500D01*
X140683800Y-38046499D01*
X140869751Y-38009512D01*
X141044915Y-37936956D01*
X141202558Y-37831622D01*
X141336622Y-37697558D01*
X141441956Y-37539915D01*
X141514512Y-37364751D01*
X141551500Y-37178798D01*
X141551500Y-36989202D01*
X141551499Y-36989197D01*
X149786500Y-36989197D01*
X149786500Y-37178802D01*
X149823486Y-37364743D01*
X149823488Y-37364751D01*
X149896042Y-37539912D01*
X150001377Y-37697558D01*
X150135441Y-37831622D01*
X150240300Y-37901686D01*
X150293085Y-37936956D01*
X150468249Y-38009512D01*
X150654197Y-38046499D01*
X150654201Y-38046500D01*
X150654202Y-38046500D01*
X150843799Y-38046500D01*
X150843800Y-38046499D01*
X151029751Y-38009512D01*
X151204915Y-37936956D01*
X151362558Y-37831622D01*
X151496622Y-37697558D01*
X151601956Y-37539915D01*
X151674512Y-37364751D01*
X151711500Y-37178798D01*
X151711500Y-36989202D01*
X151711499Y-36989197D01*
X152326500Y-36989197D01*
X152326500Y-37178802D01*
X152363486Y-37364743D01*
X152363488Y-37364751D01*
X152436042Y-37539912D01*
X152541377Y-37697558D01*
X152675441Y-37831622D01*
X152780300Y-37901686D01*
X152833085Y-37936956D01*
X153008249Y-38009512D01*
X153194197Y-38046499D01*
X153194201Y-38046500D01*
X153194202Y-38046500D01*
X153383799Y-38046500D01*
X153383800Y-38046499D01*
X153569751Y-38009512D01*
X153744915Y-37936956D01*
X153902558Y-37831622D01*
X154036622Y-37697558D01*
X154141956Y-37539915D01*
X154214512Y-37364751D01*
X154251500Y-37178798D01*
X154251500Y-36989202D01*
X154214512Y-36803249D01*
X154141956Y-36628085D01*
X154106686Y-36575300D01*
X154036622Y-36470441D01*
X153902558Y-36336377D01*
X153744912Y-36231042D01*
X153569751Y-36158488D01*
X153569743Y-36158486D01*
X153383802Y-36121500D01*
X153383798Y-36121500D01*
X153194202Y-36121500D01*
X153194197Y-36121500D01*
X153008256Y-36158486D01*
X153008248Y-36158488D01*
X152833087Y-36231042D01*
X152675441Y-36336377D01*
X152541377Y-36470441D01*
X152436042Y-36628087D01*
X152363488Y-36803248D01*
X152363486Y-36803256D01*
X152326500Y-36989197D01*
X151711499Y-36989197D01*
X151674512Y-36803249D01*
X151601956Y-36628085D01*
X151566686Y-36575300D01*
X151496622Y-36470441D01*
X151362558Y-36336377D01*
X151204912Y-36231042D01*
X151029751Y-36158488D01*
X151029743Y-36158486D01*
X150843802Y-36121500D01*
X150843798Y-36121500D01*
X150654202Y-36121500D01*
X150654197Y-36121500D01*
X150468256Y-36158486D01*
X150468248Y-36158488D01*
X150293087Y-36231042D01*
X150135441Y-36336377D01*
X150001377Y-36470441D01*
X149896042Y-36628087D01*
X149823488Y-36803248D01*
X149823486Y-36803256D01*
X149786500Y-36989197D01*
X141551499Y-36989197D01*
X141514512Y-36803249D01*
X141441956Y-36628085D01*
X141406686Y-36575300D01*
X141336622Y-36470441D01*
X141202558Y-36336377D01*
X141044912Y-36231042D01*
X140869751Y-36158488D01*
X140869743Y-36158486D01*
X140683802Y-36121500D01*
X140683798Y-36121500D01*
X140494202Y-36121500D01*
X140494197Y-36121500D01*
X140308256Y-36158486D01*
X140308248Y-36158488D01*
X140133087Y-36231042D01*
X139975441Y-36336377D01*
X139841377Y-36470441D01*
X139736042Y-36628087D01*
X139663488Y-36803248D01*
X139663486Y-36803256D01*
X139626500Y-36989197D01*
X139011499Y-36989197D01*
X138974512Y-36803249D01*
X138901956Y-36628085D01*
X138866686Y-36575300D01*
X138796622Y-36470441D01*
X138662558Y-36336377D01*
X138504912Y-36231042D01*
X138329751Y-36158488D01*
X138329743Y-36158486D01*
X138143802Y-36121500D01*
X138143798Y-36121500D01*
X137954202Y-36121500D01*
X137954197Y-36121500D01*
X137768256Y-36158486D01*
X137768248Y-36158488D01*
X137593087Y-36231042D01*
X137435441Y-36336377D01*
X137301377Y-36470441D01*
X137196042Y-36628087D01*
X137123488Y-36803248D01*
X137123486Y-36803256D01*
X137086500Y-36989197D01*
X123055500Y-36989197D01*
X123055500Y-33898500D01*
X123075185Y-33831461D01*
X123127989Y-33785706D01*
X123179500Y-33774500D01*
X163967500Y-33774500D01*
X164034539Y-33794185D01*
G37*
%TD.AperFunction*%
%TD*%
M02*
