%TF.GenerationSoftware,KiCad,Pcbnew,9.0.6*%
%TF.CreationDate,2026-03-26T22:56:50-06:00*%
%TF.ProjectId,Asistente,41736973-7465-46e7-9465-2e6b69636164,rev?*%
%TF.SameCoordinates,Original*%
%TF.FileFunction,Copper,L1,Top*%
%TF.FilePolarity,Positive*%
%FSLAX46Y46*%
G04 Gerber Fmt 4.6, Leading zero omitted, Abs format (unit mm)*
G04 Created by KiCad (PCBNEW 9.0.6) date 2026-03-26 22:56:50*
%MOMM*%
%LPD*%
G01*
G04 APERTURE LIST*
G04 Aperture macros list*
%AMRoundRect*
0 Rectangle with rounded corners*
0 $1 Rounding radius*
0 $2 $3 $4 $5 $6 $7 $8 $9 X,Y pos of 4 corners*
0 Add a 4 corners polygon primitive as box body*
4,1,4,$2,$3,$4,$5,$6,$7,$8,$9,$2,$3,0*
0 Add four circle primitives for the rounded corners*
1,1,$1+$1,$2,$3*
1,1,$1+$1,$4,$5*
1,1,$1+$1,$6,$7*
1,1,$1+$1,$8,$9*
0 Add four rect primitives between the rounded corners*
20,1,$1+$1,$2,$3,$4,$5,0*
20,1,$1+$1,$4,$5,$6,$7,0*
20,1,$1+$1,$6,$7,$8,$9,0*
20,1,$1+$1,$8,$9,$2,$3,0*%
G04 Aperture macros list end*
%TA.AperFunction,ComponentPad*%
%ADD10R,1.700000X1.700000*%
%TD*%
%TA.AperFunction,ComponentPad*%
%ADD11C,1.524000*%
%TD*%
%TA.AperFunction,ComponentPad*%
%ADD12C,2.000000*%
%TD*%
%TA.AperFunction,ComponentPad*%
%ADD13RoundRect,0.250000X-0.750000X0.750000X-0.750000X-0.750000X0.750000X-0.750000X0.750000X0.750000X0*%
%TD*%
%TA.AperFunction,SMDPad,CuDef*%
%ADD14RoundRect,0.250000X0.475000X-0.250000X0.475000X0.250000X-0.475000X0.250000X-0.475000X-0.250000X0*%
%TD*%
%TA.AperFunction,SMDPad,CuDef*%
%ADD15RoundRect,0.200000X0.275000X-0.200000X0.275000X0.200000X-0.275000X0.200000X-0.275000X-0.200000X0*%
%TD*%
%TA.AperFunction,ComponentPad*%
%ADD16O,1.900000X1.524000*%
%TD*%
%TA.AperFunction,Conductor*%
%ADD17C,0.200000*%
%TD*%
%TA.AperFunction,Conductor*%
%ADD18C,0.500000*%
%TD*%
G04 APERTURE END LIST*
D10*
%TO.P,GNDMIC1,1,Pin_1*%
%TO.N,GND*%
X165227000Y-77216000D03*
%TD*%
%TO.P,VDD,1,Pin_1*%
%TO.N,Net-(DS1-VDD)*%
X165227000Y-96139000D03*
%TD*%
%TO.P,WS,1,Pin_1*%
%TO.N,Net-(J11-Pin_1)*%
X165100000Y-90950000D03*
%TD*%
D11*
%TO.P,U2,9,L-*%
%TO.N,Net-(J5-Pin_1)*%
X140462000Y-35052000D03*
%TO.P,U2,8,L+*%
%TO.N,Net-(J6-Pin_1)*%
X143002000Y-35052000D03*
%TO.P,U2,7,R+*%
%TO.N,Net-(J8-Pin_1)*%
X153162000Y-35052000D03*
%TO.P,U2,6,R-*%
%TO.N,Net-(J7-Pin_1)*%
X155702000Y-35052000D03*
%TO.P,U2,5,gnd*%
%TO.N,GND*%
X155702000Y-54102000D03*
%TO.P,U2,4,vin*%
%TO.N,+5V*%
X153162000Y-54102000D03*
%TO.P,U2,3,R*%
%TO.N,Net-(U2-R)*%
X145542000Y-54102000D03*
%TO.P,U2,2,T*%
%TO.N,GND*%
X143002000Y-54102000D03*
%TO.P,U2,1,L*%
%TO.N,Net-(U2-L)*%
X140462000Y-54102000D03*
%TD*%
D12*
%TO.P,C1,2*%
%TO.N,GND*%
X112014000Y-119726323D03*
D13*
%TO.P,C1,1*%
%TO.N,+5V*%
X112014000Y-114726323D03*
%TD*%
D10*
%TO.P,SCK,1,Pin_1*%
%TO.N,Net-(J10-Pin_1)*%
X165100000Y-82042000D03*
%TD*%
%TO.P,R+,1,Pin_1*%
%TO.N,Net-(J8-Pin_1)*%
X151765000Y-28746750D03*
%TD*%
%TO.P,L+,1,Pin_1*%
%TO.N,Net-(J6-Pin_1)*%
X144881000Y-28746750D03*
%TD*%
%TO.P,L-,1,Pin_1*%
%TO.N,Net-(J5-Pin_1)*%
X137836500Y-28489500D03*
%TD*%
%TO.P,SCK,1,Pin_1*%
%TO.N,Net-(DS1-SCK)*%
X164338000Y-113739000D03*
%TD*%
%TO.P,SDA,1,Pin_1*%
%TO.N,Net-(DS1-SDA)*%
X164338000Y-109989000D03*
%TD*%
%TO.P,VDD,1,Pin_1*%
%TO.N,Net-(DS1-VDD)*%
X164465000Y-106299000D03*
%TD*%
D14*
%TO.P,C3,1*%
%TO.N,Net-(C3-Pad1)*%
X152974000Y-61275000D03*
%TO.P,C3,2*%
%TO.N,Net-(U2-R)*%
X152974000Y-59375000D03*
%TD*%
D15*
%TO.P,R4,1*%
%TO.N,Net-(U1-GPIO25)*%
X143002000Y-67881000D03*
%TO.P,R4,2*%
%TO.N,Net-(C2-Pad1)*%
X143002000Y-66231000D03*
%TD*%
D14*
%TO.P,C2,1*%
%TO.N,Net-(C2-Pad1)*%
X143002000Y-61402000D03*
%TO.P,C2,2*%
%TO.N,Net-(U2-L)*%
X143002000Y-59502000D03*
%TD*%
D15*
%TO.P,R3,1*%
%TO.N,Net-(U1-GPIO26)*%
X153162000Y-68008000D03*
%TO.P,R3,2*%
%TO.N,Net-(C3-Pad1)*%
X153162000Y-66358000D03*
%TD*%
D16*
%TO.P,U1,1,VIN*%
%TO.N,+5V*%
X127762000Y-117303250D03*
%TO.P,U1,2,GND*%
%TO.N,GND*%
X127762000Y-114763250D03*
%TO.P,U1,3,GPIO13*%
%TO.N,unconnected-(U1-GPIO13-Pad3)*%
X127762000Y-112223250D03*
%TO.P,U1,4,GPIO12*%
%TO.N,unconnected-(U1-GPIO12-Pad4)*%
X127762000Y-109683250D03*
%TO.P,U1,5,GPIO14*%
%TO.N,unconnected-(U1-GPIO14-Pad5)*%
X127762000Y-107143250D03*
%TO.P,U1,6,GPIO27*%
%TO.N,Net-(J11-Pin_1)*%
X127762000Y-104603250D03*
%TO.P,U1,7,GPIO26*%
%TO.N,Net-(U1-GPIO26)*%
X127762000Y-102063250D03*
%TO.P,U1,8,GPIO25*%
%TO.N,Net-(U1-GPIO25)*%
X127762000Y-99523250D03*
%TO.P,U1,9,GPIO33*%
%TO.N,Net-(J9-Pin_1)*%
X127762000Y-96983250D03*
%TO.P,U1,10,GPIO32*%
%TO.N,Net-(J10-Pin_1)*%
X127762000Y-94443250D03*
%TO.P,U1,11,GPIO35*%
%TO.N,unconnected-(U1-GPIO35-Pad11)*%
X127762000Y-91903250D03*
%TO.P,U1,12,GPIO34*%
%TO.N,unconnected-(U1-GPIO34-Pad12)*%
X127762000Y-89363250D03*
%TO.P,U1,13,GPIO39*%
%TO.N,unconnected-(U1-GPIO39-Pad13)*%
X127762000Y-86823250D03*
%TO.P,U1,14,GPIO36*%
%TO.N,unconnected-(U1-GPIO36-Pad14)*%
X127762000Y-84283250D03*
%TO.P,U1,15,EN*%
%TO.N,unconnected-(U1-EN-Pad15)*%
X127762000Y-81743250D03*
%TO.P,U1,16,3.3v*%
%TO.N,Net-(DS1-VDD)*%
X153162000Y-117303250D03*
%TO.P,U1,17,GND*%
%TO.N,unconnected-(U1-GND-Pad17)*%
X153162000Y-114763250D03*
%TO.P,U1,18,GPIO15*%
%TO.N,unconnected-(U1-GPIO15-Pad18)*%
X153162000Y-112223250D03*
%TO.P,U1,19,GPIO2*%
%TO.N,unconnected-(U1-GPIO2-Pad19)*%
X153162000Y-109683250D03*
%TO.P,U1,20,GPIO4*%
%TO.N,unconnected-(U1-GPIO4-Pad20)*%
X153162000Y-107143250D03*
%TO.P,U1,21,GPIO16*%
%TO.N,unconnected-(U1-GPIO16-Pad21)*%
X153162000Y-104603250D03*
%TO.P,U1,22,GPIO17*%
%TO.N,unconnected-(U1-GPIO17-Pad22)*%
X153162000Y-102063250D03*
%TO.P,U1,23,GPIO5*%
%TO.N,unconnected-(U1-GPIO5-Pad23)*%
X153162000Y-99523250D03*
%TO.P,U1,24,GPIO18*%
%TO.N,unconnected-(U1-GPIO18-Pad24)*%
X153162000Y-96983250D03*
%TO.P,U1,25,GPIO19*%
%TO.N,unconnected-(U1-GPIO19-Pad25)*%
X153162000Y-94443250D03*
%TO.P,U1,26,GPIO21*%
%TO.N,Net-(DS1-SDA)*%
X153162000Y-91903250D03*
%TO.P,U1,27,GPIO3*%
%TO.N,unconnected-(U1-GPIO3-Pad27)*%
X153162000Y-89363250D03*
%TO.P,U1,28,GPIO1*%
%TO.N,unconnected-(U1-GPIO1-Pad28)*%
X153162000Y-86823250D03*
%TO.P,U1,29,GPIO22*%
%TO.N,Net-(DS1-SCK)*%
X153162000Y-84283250D03*
%TO.P,U1,30,GPIO23*%
%TO.N,unconnected-(U1-GPIO23-Pad30)*%
X153162000Y-81743250D03*
%TD*%
D10*
%TO.P,SD,1,Pin_1*%
%TO.N,Net-(J9-Pin_1)*%
X165100000Y-86487000D03*
%TD*%
%TO.P,GND,1,Pin_1*%
%TO.N,GND*%
X164338000Y-102489000D03*
%TD*%
%TO.P,R-,1,Pin_1*%
%TO.N,Net-(J7-Pin_1)*%
X158877000Y-28956000D03*
%TD*%
D17*
%TO.N,Net-(J7-Pin_1)*%
X155702000Y-32131000D02*
X158877000Y-28956000D01*
X155702000Y-35052000D02*
X155702000Y-32131000D01*
%TO.N,Net-(J5-Pin_1)*%
X137836500Y-32426500D02*
X140462000Y-35052000D01*
X137836500Y-28489500D02*
X137836500Y-32426500D01*
X138007500Y-28660500D02*
X137836500Y-28489500D01*
%TO.N,Net-(DS1-VDD)*%
X162560000Y-120015000D02*
X159848250Y-117303250D01*
X159848250Y-117303250D02*
X153162000Y-117303250D01*
X166243000Y-120015000D02*
X162560000Y-120015000D01*
X169926000Y-109601000D02*
X169926000Y-116332000D01*
X169926000Y-116332000D02*
X166243000Y-120015000D01*
X166624000Y-106299000D02*
X169926000Y-109601000D01*
X164465000Y-106299000D02*
X166624000Y-106299000D01*
%TO.N,Net-(U1-GPIO26)*%
X153162000Y-68008000D02*
X147428750Y-68008000D01*
X147428750Y-68008000D02*
X145669000Y-69767750D01*
%TO.N,Net-(U1-GPIO25)*%
X137268750Y-67881000D02*
X135509000Y-69640750D01*
X143002000Y-67881000D02*
X137268750Y-67881000D01*
D18*
%TO.N,+5V*%
X149479000Y-75692000D02*
X156972000Y-68199000D01*
X149479000Y-100031250D02*
X149479000Y-75692000D01*
X156972000Y-68199000D02*
X156972000Y-59563000D01*
D17*
%TO.N,Net-(J8-Pin_1)*%
X153162000Y-30143750D02*
X151765000Y-28746750D01*
X153162000Y-35052000D02*
X153162000Y-30143750D01*
%TO.N,Net-(J6-Pin_1)*%
X143002000Y-30625750D02*
X144881000Y-28746750D01*
X143002000Y-35052000D02*
X143002000Y-30625750D01*
%TO.N,Net-(DS1-SDA)*%
X153625250Y-91903250D02*
X153162000Y-91903250D01*
X155194000Y-93472000D02*
X153625250Y-91903250D01*
X155194000Y-110363000D02*
X155194000Y-93472000D01*
X163449000Y-118618000D02*
X155194000Y-110363000D01*
X165608000Y-118618000D02*
X163449000Y-118618000D01*
X166339000Y-117887000D02*
X165608000Y-118618000D01*
X166339000Y-111990000D02*
X166339000Y-117887000D01*
X164338000Y-109989000D02*
X166339000Y-111990000D01*
%TO.N,Net-(DS1-SCK)*%
X156718000Y-87839250D02*
X153162000Y-84283250D01*
X156718000Y-107056559D02*
X156718000Y-87839250D01*
X163400441Y-113739000D02*
X156718000Y-107056559D01*
X164338000Y-113739000D02*
X163400441Y-113739000D01*
%TO.N,Net-(U1-GPIO25)*%
X135509000Y-91776250D02*
X127762000Y-99523250D01*
X135509000Y-69640750D02*
X135509000Y-91776250D01*
D18*
%TO.N,+5V*%
X153162000Y-55753000D02*
X153162000Y-54102000D01*
X132461000Y-117049250D02*
X149479000Y-100031250D01*
X156972000Y-59563000D02*
X153162000Y-55753000D01*
X112014000Y-114726323D02*
X114635677Y-117348000D01*
X127762000Y-117303250D02*
X128016000Y-117049250D01*
X128016000Y-117049250D02*
X132461000Y-117049250D01*
X114635677Y-117348000D02*
X132842000Y-117348000D01*
D17*
%TO.N,Net-(U1-GPIO26)*%
X127762000Y-102063250D02*
X145669000Y-84156250D01*
X145669000Y-84156250D02*
X145669000Y-69767750D01*
%TO.N,Net-(U2-R)*%
X145542000Y-54102000D02*
X147701000Y-54102000D01*
X147701000Y-54102000D02*
X152974000Y-59375000D01*
%TO.N,Net-(U2-L)*%
X140462000Y-56962000D02*
X140462000Y-54102000D01*
X143002000Y-59502000D02*
X140462000Y-56962000D01*
%TO.N,Net-(C2-Pad1)*%
X143002000Y-66458500D02*
X143002000Y-61402000D01*
%TO.N,Net-(C3-Pad1)*%
X152974000Y-61275000D02*
X152974000Y-66397500D01*
X152974000Y-66397500D02*
X153162000Y-66585500D01*
%TD*%
%TA.AperFunction,Conductor*%
%TO.N,GND*%
G36*
X171402108Y-25793185D02*
G01*
X171447863Y-25845989D01*
X171459069Y-25897188D01*
X171710884Y-125994188D01*
X171691368Y-126061277D01*
X171638679Y-126107164D01*
X171586884Y-126118500D01*
X100113056Y-126118500D01*
X100046017Y-126098815D01*
X100000262Y-126046011D01*
X99990318Y-125976853D01*
X99998094Y-125948026D01*
X101475937Y-122292309D01*
X127119040Y-122292309D01*
X127119040Y-122554564D01*
X127139976Y-122713577D01*
X127153270Y-122814553D01*
X127174718Y-122894598D01*
X127221142Y-123067855D01*
X127221145Y-123067865D01*
X127321493Y-123310127D01*
X127321498Y-123310137D01*
X127452615Y-123537240D01*
X127612258Y-123745288D01*
X127612266Y-123745297D01*
X127797680Y-123930711D01*
X127797688Y-123930718D01*
X128005736Y-124090361D01*
X128232839Y-124221478D01*
X128232849Y-124221483D01*
X128475111Y-124321831D01*
X128475121Y-124321835D01*
X128728424Y-124389707D01*
X128988420Y-124423937D01*
X128988427Y-124423937D01*
X129250653Y-124423937D01*
X129250660Y-124423937D01*
X129510656Y-124389707D01*
X129763959Y-124321835D01*
X130006237Y-124221480D01*
X130233343Y-124090361D01*
X130441391Y-123930719D01*
X130441395Y-123930714D01*
X130441400Y-123930711D01*
X130626814Y-123745297D01*
X130626817Y-123745292D01*
X130626822Y-123745288D01*
X130786464Y-123537240D01*
X130917583Y-123310134D01*
X131017938Y-123067856D01*
X131085810Y-122814553D01*
X131120040Y-122554557D01*
X131120040Y-122292317D01*
X131120039Y-122292309D01*
X150119040Y-122292309D01*
X150119040Y-122554564D01*
X150139976Y-122713577D01*
X150153270Y-122814553D01*
X150174718Y-122894598D01*
X150221142Y-123067855D01*
X150221145Y-123067865D01*
X150321493Y-123310127D01*
X150321498Y-123310137D01*
X150452615Y-123537240D01*
X150612258Y-123745288D01*
X150612266Y-123745297D01*
X150797680Y-123930711D01*
X150797688Y-123930718D01*
X151005736Y-124090361D01*
X151232839Y-124221478D01*
X151232849Y-124221483D01*
X151475111Y-124321831D01*
X151475121Y-124321835D01*
X151728424Y-124389707D01*
X151988420Y-124423937D01*
X151988427Y-124423937D01*
X152250653Y-124423937D01*
X152250660Y-124423937D01*
X152510656Y-124389707D01*
X152763959Y-124321835D01*
X153006237Y-124221480D01*
X153233343Y-124090361D01*
X153441391Y-123930719D01*
X153441395Y-123930714D01*
X153441400Y-123930711D01*
X153626814Y-123745297D01*
X153626817Y-123745292D01*
X153626822Y-123745288D01*
X153786464Y-123537240D01*
X153917583Y-123310134D01*
X154017938Y-123067856D01*
X154085810Y-122814553D01*
X154120040Y-122554557D01*
X154120040Y-122292317D01*
X154085810Y-122032321D01*
X154017938Y-121779018D01*
X153919744Y-121541957D01*
X153917586Y-121536746D01*
X153917581Y-121536736D01*
X153786464Y-121309633D01*
X153626821Y-121101585D01*
X153626814Y-121101577D01*
X153441400Y-120916163D01*
X153441391Y-120916155D01*
X153233343Y-120756512D01*
X153006240Y-120625395D01*
X153006230Y-120625390D01*
X152763968Y-120525042D01*
X152763961Y-120525040D01*
X152763959Y-120525039D01*
X152510656Y-120457167D01*
X152452879Y-120449560D01*
X152250667Y-120422937D01*
X152250660Y-120422937D01*
X151988420Y-120422937D01*
X151988412Y-120422937D01*
X151757312Y-120453363D01*
X151728424Y-120457167D01*
X151521970Y-120512486D01*
X151475121Y-120525039D01*
X151475111Y-120525042D01*
X151232849Y-120625390D01*
X151232839Y-120625395D01*
X151005736Y-120756512D01*
X150797688Y-120916155D01*
X150612258Y-121101585D01*
X150452615Y-121309633D01*
X150321498Y-121536736D01*
X150321493Y-121536746D01*
X150221145Y-121779008D01*
X150221142Y-121779018D01*
X150153270Y-122032322D01*
X150119040Y-122292309D01*
X131120039Y-122292309D01*
X131085810Y-122032321D01*
X131017938Y-121779018D01*
X130919744Y-121541957D01*
X130917586Y-121536746D01*
X130917581Y-121536736D01*
X130786464Y-121309633D01*
X130626821Y-121101585D01*
X130626814Y-121101577D01*
X130441400Y-120916163D01*
X130441391Y-120916155D01*
X130233343Y-120756512D01*
X130006240Y-120625395D01*
X130006230Y-120625390D01*
X129763968Y-120525042D01*
X129763961Y-120525040D01*
X129763959Y-120525039D01*
X129510656Y-120457167D01*
X129452879Y-120449560D01*
X129250667Y-120422937D01*
X129250660Y-120422937D01*
X128988420Y-120422937D01*
X128988412Y-120422937D01*
X128757312Y-120453363D01*
X128728424Y-120457167D01*
X128521970Y-120512486D01*
X128475121Y-120525039D01*
X128475111Y-120525042D01*
X128232849Y-120625390D01*
X128232839Y-120625395D01*
X128005736Y-120756512D01*
X127797688Y-120916155D01*
X127612258Y-121101585D01*
X127452615Y-121309633D01*
X127321498Y-121536736D01*
X127321493Y-121536746D01*
X127221145Y-121779008D01*
X127221142Y-121779018D01*
X127153270Y-122032322D01*
X127119040Y-122292309D01*
X101475937Y-122292309D01*
X101496362Y-122241784D01*
X102056877Y-120855248D01*
X102560974Y-119608270D01*
X110514000Y-119608270D01*
X110514000Y-119844375D01*
X110550934Y-120077570D01*
X110623897Y-120302125D01*
X110731087Y-120512497D01*
X110791338Y-120595427D01*
X110791340Y-120595428D01*
X111531037Y-119855731D01*
X111548075Y-119919316D01*
X111613901Y-120033330D01*
X111706993Y-120126422D01*
X111821007Y-120192248D01*
X111884590Y-120209285D01*
X111144893Y-120948981D01*
X111227828Y-121009237D01*
X111438197Y-121116425D01*
X111662752Y-121189388D01*
X111662751Y-121189388D01*
X111895948Y-121226323D01*
X112132052Y-121226323D01*
X112365247Y-121189388D01*
X112589802Y-121116425D01*
X112800163Y-121009241D01*
X112800169Y-121009237D01*
X112883104Y-120948981D01*
X112883105Y-120948981D01*
X112143408Y-120209285D01*
X112206993Y-120192248D01*
X112321007Y-120126422D01*
X112414099Y-120033330D01*
X112479925Y-119919316D01*
X112496962Y-119855732D01*
X113236658Y-120595428D01*
X113236658Y-120595427D01*
X113296914Y-120512492D01*
X113296918Y-120512486D01*
X113404102Y-120302125D01*
X113477065Y-120077570D01*
X113514000Y-119844375D01*
X113514000Y-119608270D01*
X113477065Y-119375075D01*
X113404102Y-119150520D01*
X113296914Y-118940151D01*
X113236658Y-118857217D01*
X113236658Y-118857216D01*
X112496962Y-119596913D01*
X112479925Y-119533330D01*
X112414099Y-119419316D01*
X112321007Y-119326224D01*
X112206993Y-119260398D01*
X112143409Y-119243360D01*
X112883105Y-118503663D01*
X112883104Y-118503661D01*
X112800174Y-118443410D01*
X112589802Y-118336220D01*
X112365247Y-118263257D01*
X112365248Y-118263257D01*
X112132052Y-118226323D01*
X111895948Y-118226323D01*
X111662752Y-118263257D01*
X111438197Y-118336220D01*
X111227830Y-118443407D01*
X111144894Y-118503663D01*
X111884591Y-119243360D01*
X111821007Y-119260398D01*
X111706993Y-119326224D01*
X111613901Y-119419316D01*
X111548075Y-119533330D01*
X111531037Y-119596914D01*
X110791340Y-118857217D01*
X110731084Y-118940153D01*
X110623897Y-119150520D01*
X110550934Y-119375075D01*
X110514000Y-119608270D01*
X102560974Y-119608270D01*
X102581731Y-119556924D01*
X103007200Y-118504448D01*
X104009429Y-116025250D01*
X104859658Y-113922053D01*
X110813500Y-113922053D01*
X110813500Y-115530592D01*
X110816353Y-115561022D01*
X110816353Y-115561024D01*
X110861052Y-115688762D01*
X110861207Y-115689205D01*
X110941850Y-115798473D01*
X111051118Y-115879116D01*
X111093845Y-115894067D01*
X111179299Y-115923969D01*
X111209730Y-115926823D01*
X111209734Y-115926823D01*
X112526035Y-115926823D01*
X112593074Y-115946508D01*
X112613716Y-115963142D01*
X114359063Y-117708489D01*
X114446836Y-117759165D01*
X114461790Y-117767799D01*
X114473775Y-117771010D01*
X114473780Y-117771013D01*
X114473781Y-117771012D01*
X114495460Y-117776820D01*
X114576368Y-117798500D01*
X126681048Y-117798500D01*
X126748087Y-117818185D01*
X126784149Y-117853608D01*
X126811504Y-117894548D01*
X126826379Y-117916810D01*
X126960441Y-118050872D01*
X126991324Y-118071507D01*
X127118085Y-118156206D01*
X127293249Y-118228762D01*
X127466669Y-118263257D01*
X127479197Y-118265749D01*
X127479201Y-118265750D01*
X127479202Y-118265750D01*
X128044799Y-118265750D01*
X128044800Y-118265749D01*
X128230751Y-118228762D01*
X128405915Y-118156206D01*
X128563558Y-118050872D01*
X128697622Y-117916808D01*
X128739850Y-117853608D01*
X128793461Y-117808804D01*
X128842952Y-117798500D01*
X132901306Y-117798500D01*
X132901309Y-117798500D01*
X133015886Y-117767799D01*
X133118613Y-117708489D01*
X133202489Y-117624613D01*
X133261799Y-117521886D01*
X133292500Y-117407309D01*
X133292500Y-117288691D01*
X133270999Y-117208447D01*
X152011500Y-117208447D01*
X152011500Y-117398052D01*
X152048486Y-117583993D01*
X152048488Y-117584001D01*
X152121042Y-117759162D01*
X152226377Y-117916808D01*
X152360441Y-118050872D01*
X152391324Y-118071507D01*
X152518085Y-118156206D01*
X152693249Y-118228762D01*
X152866669Y-118263257D01*
X152879197Y-118265749D01*
X152879201Y-118265750D01*
X152879202Y-118265750D01*
X153444799Y-118265750D01*
X153444800Y-118265749D01*
X153630751Y-118228762D01*
X153805915Y-118156206D01*
X153963558Y-118050872D01*
X154097622Y-117916808D01*
X154202956Y-117759165D01*
X154223947Y-117708489D01*
X154235625Y-117680297D01*
X154279467Y-117625893D01*
X154345761Y-117603829D01*
X154350186Y-117603750D01*
X159672417Y-117603750D01*
X159739456Y-117623435D01*
X159760098Y-117640069D01*
X162375489Y-120255460D01*
X162434829Y-120289720D01*
X162444008Y-120295020D01*
X162444012Y-120295022D01*
X162520438Y-120315500D01*
X162520440Y-120315500D01*
X166282560Y-120315500D01*
X166282562Y-120315500D01*
X166358989Y-120295021D01*
X166427511Y-120255460D01*
X166483460Y-120199511D01*
X170166460Y-116516511D01*
X170206022Y-116447988D01*
X170226500Y-116371562D01*
X170226500Y-116292438D01*
X170226500Y-109561438D01*
X170206021Y-109485011D01*
X170206017Y-109485004D01*
X170166464Y-109416495D01*
X170166458Y-109416487D01*
X166808512Y-106058541D01*
X166808504Y-106058535D01*
X166739995Y-106018982D01*
X166739990Y-106018979D01*
X166714513Y-106012152D01*
X166663562Y-105998500D01*
X166663560Y-105998500D01*
X165639500Y-105998500D01*
X165572461Y-105978815D01*
X165526706Y-105926011D01*
X165515500Y-105874500D01*
X165515500Y-105429249D01*
X165515499Y-105429247D01*
X165503868Y-105370770D01*
X165503867Y-105370769D01*
X165459552Y-105304447D01*
X165393230Y-105260132D01*
X165393229Y-105260131D01*
X165334752Y-105248500D01*
X165334748Y-105248500D01*
X163595252Y-105248500D01*
X163595247Y-105248500D01*
X163536770Y-105260131D01*
X163536769Y-105260132D01*
X163470447Y-105304447D01*
X163426132Y-105370769D01*
X163426131Y-105370770D01*
X163414500Y-105429247D01*
X163414500Y-107168752D01*
X163426131Y-107227229D01*
X163426132Y-107227230D01*
X163470447Y-107293552D01*
X163536769Y-107337867D01*
X163536770Y-107337868D01*
X163595247Y-107349499D01*
X163595250Y-107349500D01*
X163595252Y-107349500D01*
X165334750Y-107349500D01*
X165334751Y-107349499D01*
X165349568Y-107346552D01*
X165393229Y-107337868D01*
X165393229Y-107337867D01*
X165393231Y-107337867D01*
X165459552Y-107293552D01*
X165503867Y-107227231D01*
X165503867Y-107227229D01*
X165503868Y-107227229D01*
X165515499Y-107168752D01*
X165515500Y-107168750D01*
X165515500Y-106723500D01*
X165535185Y-106656461D01*
X165587989Y-106610706D01*
X165639500Y-106599500D01*
X166448167Y-106599500D01*
X166515206Y-106619185D01*
X166535848Y-106635819D01*
X169589181Y-109689152D01*
X169622666Y-109750475D01*
X169625500Y-109776833D01*
X169625500Y-116156167D01*
X169605815Y-116223206D01*
X169589181Y-116243848D01*
X166154848Y-119678181D01*
X166093525Y-119711666D01*
X166067167Y-119714500D01*
X162735833Y-119714500D01*
X162668794Y-119694815D01*
X162648152Y-119678181D01*
X160032762Y-117062791D01*
X160032754Y-117062785D01*
X159964245Y-117023232D01*
X159964240Y-117023229D01*
X159938763Y-117016402D01*
X159887812Y-117002750D01*
X159887810Y-117002750D01*
X154350186Y-117002750D01*
X154283147Y-116983065D01*
X154237392Y-116930261D01*
X154235625Y-116926203D01*
X154202957Y-116847337D01*
X154199652Y-116842391D01*
X154167686Y-116794550D01*
X154097622Y-116689691D01*
X153963558Y-116555627D01*
X153805912Y-116450292D01*
X153630751Y-116377738D01*
X153630743Y-116377736D01*
X153444802Y-116340750D01*
X153444798Y-116340750D01*
X152879202Y-116340750D01*
X152879197Y-116340750D01*
X152693256Y-116377736D01*
X152693248Y-116377738D01*
X152518087Y-116450292D01*
X152360441Y-116555627D01*
X152226377Y-116689691D01*
X152121042Y-116847337D01*
X152048488Y-117022498D01*
X152048486Y-117022506D01*
X152011500Y-117208447D01*
X133270999Y-117208447D01*
X133261799Y-117174114D01*
X133202489Y-117071387D01*
X133201798Y-117070696D01*
X133198227Y-117062828D01*
X133194147Y-117033987D01*
X133187279Y-117005675D01*
X133189312Y-116999800D01*
X133188442Y-116993647D01*
X133200602Y-116967179D01*
X133210131Y-116939648D01*
X133216961Y-116931573D01*
X133217612Y-116930157D01*
X133218804Y-116929394D01*
X133223452Y-116923899D01*
X135478904Y-114668447D01*
X152011500Y-114668447D01*
X152011500Y-114858052D01*
X152048486Y-115043993D01*
X152048488Y-115044001D01*
X152121042Y-115219162D01*
X152226377Y-115376808D01*
X152360441Y-115510872D01*
X152465300Y-115580936D01*
X152518085Y-115616206D01*
X152693249Y-115688762D01*
X152879197Y-115725749D01*
X152879201Y-115725750D01*
X152879202Y-115725750D01*
X153444799Y-115725750D01*
X153444800Y-115725749D01*
X153630751Y-115688762D01*
X153805915Y-115616206D01*
X153963558Y-115510872D01*
X154097622Y-115376808D01*
X154202956Y-115219165D01*
X154275512Y-115044001D01*
X154312500Y-114858048D01*
X154312500Y-114668452D01*
X154275512Y-114482499D01*
X154202956Y-114307335D01*
X154167686Y-114254550D01*
X154097622Y-114149691D01*
X153963558Y-114015627D01*
X153805912Y-113910292D01*
X153630751Y-113837738D01*
X153630743Y-113837736D01*
X153444802Y-113800750D01*
X153444798Y-113800750D01*
X152879202Y-113800750D01*
X152879197Y-113800750D01*
X152693256Y-113837736D01*
X152693248Y-113837738D01*
X152518087Y-113910292D01*
X152360441Y-114015627D01*
X152226377Y-114149691D01*
X152121042Y-114307337D01*
X152048488Y-114482498D01*
X152048486Y-114482506D01*
X152011500Y-114668447D01*
X135478904Y-114668447D01*
X138018905Y-112128447D01*
X152011500Y-112128447D01*
X152011500Y-112318052D01*
X152048486Y-112503993D01*
X152048488Y-112504001D01*
X152121042Y-112679162D01*
X152226377Y-112836808D01*
X152360441Y-112970872D01*
X152440648Y-113024464D01*
X152518085Y-113076206D01*
X152693249Y-113148762D01*
X152879197Y-113185749D01*
X152879201Y-113185750D01*
X152879202Y-113185750D01*
X153444799Y-113185750D01*
X153444800Y-113185749D01*
X153630751Y-113148762D01*
X153805915Y-113076206D01*
X153963558Y-112970872D01*
X154097622Y-112836808D01*
X154202956Y-112679165D01*
X154275512Y-112504001D01*
X154312500Y-112318048D01*
X154312500Y-112128452D01*
X154275512Y-111942499D01*
X154202956Y-111767335D01*
X154167686Y-111714550D01*
X154097622Y-111609691D01*
X153963558Y-111475627D01*
X153805912Y-111370292D01*
X153630751Y-111297738D01*
X153630743Y-111297736D01*
X153444802Y-111260750D01*
X153444798Y-111260750D01*
X152879202Y-111260750D01*
X152879197Y-111260750D01*
X152693256Y-111297736D01*
X152693248Y-111297738D01*
X152518087Y-111370292D01*
X152360441Y-111475627D01*
X152226377Y-111609691D01*
X152121042Y-111767337D01*
X152048488Y-111942498D01*
X152048486Y-111942506D01*
X152011500Y-112128447D01*
X138018905Y-112128447D01*
X140558905Y-109588447D01*
X152011500Y-109588447D01*
X152011500Y-109778052D01*
X152048486Y-109963993D01*
X152048488Y-109964001D01*
X152121042Y-110139162D01*
X152226377Y-110296808D01*
X152360441Y-110430872D01*
X152518085Y-110536206D01*
X152693249Y-110608762D01*
X152879197Y-110645749D01*
X152879201Y-110645750D01*
X152879202Y-110645750D01*
X153444799Y-110645750D01*
X153444800Y-110645749D01*
X153630751Y-110608762D01*
X153805915Y-110536206D01*
X153963558Y-110430872D01*
X154097622Y-110296808D01*
X154202956Y-110139165D01*
X154275512Y-109964001D01*
X154312500Y-109778048D01*
X154312500Y-109588452D01*
X154275512Y-109402499D01*
X154202956Y-109227335D01*
X154130734Y-109119247D01*
X154097622Y-109069691D01*
X153963558Y-108935627D01*
X153805912Y-108830292D01*
X153630751Y-108757738D01*
X153630743Y-108757736D01*
X153444802Y-108720750D01*
X153444798Y-108720750D01*
X152879202Y-108720750D01*
X152879197Y-108720750D01*
X152693256Y-108757736D01*
X152693248Y-108757738D01*
X152518087Y-108830292D01*
X152360441Y-108935627D01*
X152226377Y-109069691D01*
X152121042Y-109227337D01*
X152048488Y-109402498D01*
X152048486Y-109402506D01*
X152011500Y-109588447D01*
X140558905Y-109588447D01*
X143098906Y-107048447D01*
X152011500Y-107048447D01*
X152011500Y-107238052D01*
X152048486Y-107423993D01*
X152048488Y-107424001D01*
X152121042Y-107599162D01*
X152226377Y-107756808D01*
X152360441Y-107890872D01*
X152465300Y-107960936D01*
X152518085Y-107996206D01*
X152693249Y-108068762D01*
X152879197Y-108105749D01*
X152879201Y-108105750D01*
X152879202Y-108105750D01*
X153444799Y-108105750D01*
X153444800Y-108105749D01*
X153630751Y-108068762D01*
X153805915Y-107996206D01*
X153963558Y-107890872D01*
X154097622Y-107756808D01*
X154202956Y-107599165D01*
X154275512Y-107424001D01*
X154312500Y-107238048D01*
X154312500Y-107048452D01*
X154275512Y-106862499D01*
X154202956Y-106687335D01*
X154167686Y-106634550D01*
X154097622Y-106529691D01*
X153963558Y-106395627D01*
X153805912Y-106290292D01*
X153630751Y-106217738D01*
X153630743Y-106217736D01*
X153444802Y-106180750D01*
X153444798Y-106180750D01*
X152879202Y-106180750D01*
X152879197Y-106180750D01*
X152693256Y-106217736D01*
X152693248Y-106217738D01*
X152518087Y-106290292D01*
X152360441Y-106395627D01*
X152226377Y-106529691D01*
X152121042Y-106687337D01*
X152048488Y-106862498D01*
X152048486Y-106862506D01*
X152011500Y-107048447D01*
X143098906Y-107048447D01*
X145638906Y-104508447D01*
X152011500Y-104508447D01*
X152011500Y-104698052D01*
X152048486Y-104883993D01*
X152048488Y-104884001D01*
X152121042Y-105059162D01*
X152226377Y-105216808D01*
X152360441Y-105350872D01*
X152390221Y-105370770D01*
X152518085Y-105456206D01*
X152693249Y-105528762D01*
X152879197Y-105565749D01*
X152879201Y-105565750D01*
X152879202Y-105565750D01*
X153444799Y-105565750D01*
X153444800Y-105565749D01*
X153630751Y-105528762D01*
X153805915Y-105456206D01*
X153963558Y-105350872D01*
X154097622Y-105216808D01*
X154202956Y-105059165D01*
X154275512Y-104884001D01*
X154312500Y-104698048D01*
X154312500Y-104508452D01*
X154275512Y-104322499D01*
X154202956Y-104147335D01*
X154167686Y-104094550D01*
X154097622Y-103989691D01*
X153963558Y-103855627D01*
X153805912Y-103750292D01*
X153630751Y-103677738D01*
X153630743Y-103677736D01*
X153444802Y-103640750D01*
X153444798Y-103640750D01*
X152879202Y-103640750D01*
X152879197Y-103640750D01*
X152693256Y-103677736D01*
X152693248Y-103677738D01*
X152518087Y-103750292D01*
X152360441Y-103855627D01*
X152226377Y-103989691D01*
X152121042Y-104147337D01*
X152048488Y-104322498D01*
X152048486Y-104322506D01*
X152011500Y-104508447D01*
X145638906Y-104508447D01*
X148178906Y-101968447D01*
X152011500Y-101968447D01*
X152011500Y-102158052D01*
X152048486Y-102343993D01*
X152048488Y-102344001D01*
X152121042Y-102519162D01*
X152226377Y-102676808D01*
X152360441Y-102810872D01*
X152465300Y-102880936D01*
X152518085Y-102916206D01*
X152693249Y-102988762D01*
X152879197Y-103025749D01*
X152879201Y-103025750D01*
X152879202Y-103025750D01*
X153444799Y-103025750D01*
X153444800Y-103025749D01*
X153630751Y-102988762D01*
X153805915Y-102916206D01*
X153963558Y-102810872D01*
X154097622Y-102676808D01*
X154202956Y-102519165D01*
X154275512Y-102344001D01*
X154312500Y-102158048D01*
X154312500Y-101968452D01*
X154275512Y-101782499D01*
X154202956Y-101607335D01*
X154167686Y-101554550D01*
X154097622Y-101449691D01*
X153963558Y-101315627D01*
X153805912Y-101210292D01*
X153630751Y-101137738D01*
X153630743Y-101137736D01*
X153444802Y-101100750D01*
X153444798Y-101100750D01*
X152879202Y-101100750D01*
X152879197Y-101100750D01*
X152693256Y-101137736D01*
X152693248Y-101137738D01*
X152518087Y-101210292D01*
X152360441Y-101315627D01*
X152226377Y-101449691D01*
X152121042Y-101607337D01*
X152048488Y-101782498D01*
X152048486Y-101782506D01*
X152011500Y-101968447D01*
X148178906Y-101968447D01*
X149839489Y-100307864D01*
X149898798Y-100205137D01*
X149898799Y-100205136D01*
X149929500Y-100090559D01*
X149929500Y-99428447D01*
X152011500Y-99428447D01*
X152011500Y-99618052D01*
X152048486Y-99803993D01*
X152048488Y-99804001D01*
X152121042Y-99979162D01*
X152226377Y-100136808D01*
X152360441Y-100270872D01*
X152465300Y-100340936D01*
X152518085Y-100376206D01*
X152693249Y-100448762D01*
X152879197Y-100485749D01*
X152879201Y-100485750D01*
X152879202Y-100485750D01*
X153444799Y-100485750D01*
X153444800Y-100485749D01*
X153630751Y-100448762D01*
X153805915Y-100376206D01*
X153963558Y-100270872D01*
X154097622Y-100136808D01*
X154202956Y-99979165D01*
X154275512Y-99804001D01*
X154312500Y-99618048D01*
X154312500Y-99428452D01*
X154275512Y-99242499D01*
X154202956Y-99067335D01*
X154138841Y-98971380D01*
X154097622Y-98909691D01*
X153963558Y-98775627D01*
X153805912Y-98670292D01*
X153630751Y-98597738D01*
X153630743Y-98597736D01*
X153444802Y-98560750D01*
X153444798Y-98560750D01*
X152879202Y-98560750D01*
X152879197Y-98560750D01*
X152693256Y-98597736D01*
X152693248Y-98597738D01*
X152518087Y-98670292D01*
X152360441Y-98775627D01*
X152226377Y-98909691D01*
X152121042Y-99067337D01*
X152048488Y-99242498D01*
X152048486Y-99242506D01*
X152011500Y-99428447D01*
X149929500Y-99428447D01*
X149929500Y-96888447D01*
X152011500Y-96888447D01*
X152011500Y-97078052D01*
X152048486Y-97263993D01*
X152048488Y-97264001D01*
X152121042Y-97439162D01*
X152226377Y-97596808D01*
X152360441Y-97730872D01*
X152465300Y-97800936D01*
X152518085Y-97836206D01*
X152693249Y-97908762D01*
X152879197Y-97945749D01*
X152879201Y-97945750D01*
X152879202Y-97945750D01*
X153444799Y-97945750D01*
X153444800Y-97945749D01*
X153630751Y-97908762D01*
X153805915Y-97836206D01*
X153963558Y-97730872D01*
X154097622Y-97596808D01*
X154202956Y-97439165D01*
X154275512Y-97264001D01*
X154312500Y-97078048D01*
X154312500Y-96888452D01*
X154275512Y-96702499D01*
X154202956Y-96527335D01*
X154167686Y-96474550D01*
X154097622Y-96369691D01*
X153963558Y-96235627D01*
X153805912Y-96130292D01*
X153630751Y-96057738D01*
X153630743Y-96057736D01*
X153444802Y-96020750D01*
X153444798Y-96020750D01*
X152879202Y-96020750D01*
X152879197Y-96020750D01*
X152693256Y-96057736D01*
X152693248Y-96057738D01*
X152518087Y-96130292D01*
X152360441Y-96235627D01*
X152226377Y-96369691D01*
X152121042Y-96527337D01*
X152048488Y-96702498D01*
X152048486Y-96702506D01*
X152011500Y-96888447D01*
X149929500Y-96888447D01*
X149929500Y-94348447D01*
X152011500Y-94348447D01*
X152011500Y-94538052D01*
X152048486Y-94723993D01*
X152048488Y-94724001D01*
X152121042Y-94899162D01*
X152226377Y-95056808D01*
X152360441Y-95190872D01*
X152390221Y-95210770D01*
X152518085Y-95296206D01*
X152693249Y-95368762D01*
X152879197Y-95405749D01*
X152879201Y-95405750D01*
X152879202Y-95405750D01*
X153444799Y-95405750D01*
X153444800Y-95405749D01*
X153630751Y-95368762D01*
X153805915Y-95296206D01*
X153963558Y-95190872D01*
X154097622Y-95056808D01*
X154202956Y-94899165D01*
X154275512Y-94724001D01*
X154312500Y-94538048D01*
X154312500Y-94348452D01*
X154275512Y-94162499D01*
X154202956Y-93987335D01*
X154167686Y-93934550D01*
X154097622Y-93829691D01*
X153963558Y-93695627D01*
X153805912Y-93590292D01*
X153630751Y-93517738D01*
X153630743Y-93517736D01*
X153444802Y-93480750D01*
X153444798Y-93480750D01*
X152879202Y-93480750D01*
X152879197Y-93480750D01*
X152693256Y-93517736D01*
X152693248Y-93517738D01*
X152518087Y-93590292D01*
X152360441Y-93695627D01*
X152226377Y-93829691D01*
X152121042Y-93987337D01*
X152048488Y-94162498D01*
X152048486Y-94162506D01*
X152011500Y-94348447D01*
X149929500Y-94348447D01*
X149929500Y-91808447D01*
X152011500Y-91808447D01*
X152011500Y-91998052D01*
X152048486Y-92183993D01*
X152048488Y-92184001D01*
X152121042Y-92359162D01*
X152226377Y-92516808D01*
X152360441Y-92650872D01*
X152465300Y-92720936D01*
X152518085Y-92756206D01*
X152518086Y-92756206D01*
X152518087Y-92756207D01*
X152557766Y-92772642D01*
X152693249Y-92828762D01*
X152879197Y-92865749D01*
X152879201Y-92865750D01*
X152879202Y-92865750D01*
X153444799Y-92865750D01*
X153444800Y-92865749D01*
X153630751Y-92828762D01*
X153805915Y-92756206D01*
X153869560Y-92713678D01*
X153936235Y-92692802D01*
X154003615Y-92711286D01*
X154026130Y-92729101D01*
X154857181Y-93560152D01*
X154890666Y-93621475D01*
X154893500Y-93647833D01*
X154893500Y-110402562D01*
X154901086Y-110430872D01*
X154913979Y-110478990D01*
X154913980Y-110478991D01*
X154947013Y-110536206D01*
X154953540Y-110547511D01*
X163208540Y-118802511D01*
X163264489Y-118858460D01*
X163264491Y-118858461D01*
X163264495Y-118858464D01*
X163333004Y-118898017D01*
X163333011Y-118898021D01*
X163409438Y-118918500D01*
X163409440Y-118918500D01*
X165647560Y-118918500D01*
X165647562Y-118918500D01*
X165723989Y-118898021D01*
X165792511Y-118858460D01*
X165848460Y-118802511D01*
X166579460Y-118071511D01*
X166591376Y-118050872D01*
X166619021Y-118002989D01*
X166639500Y-117926562D01*
X166639500Y-111950438D01*
X166619021Y-111874011D01*
X166619017Y-111874004D01*
X166579464Y-111805495D01*
X166579458Y-111805487D01*
X165424819Y-110650848D01*
X165391334Y-110589525D01*
X165388500Y-110563167D01*
X165388500Y-109119249D01*
X165388499Y-109119247D01*
X165376868Y-109060770D01*
X165376867Y-109060769D01*
X165332552Y-108994447D01*
X165266230Y-108950132D01*
X165266229Y-108950131D01*
X165207752Y-108938500D01*
X165207748Y-108938500D01*
X163468252Y-108938500D01*
X163468247Y-108938500D01*
X163409770Y-108950131D01*
X163409769Y-108950132D01*
X163343447Y-108994447D01*
X163299132Y-109060769D01*
X163299131Y-109060770D01*
X163287500Y-109119247D01*
X163287500Y-110858752D01*
X163299131Y-110917229D01*
X163299132Y-110917230D01*
X163343447Y-110983552D01*
X163409769Y-111027867D01*
X163409770Y-111027868D01*
X163468247Y-111039499D01*
X163468250Y-111039500D01*
X163468252Y-111039500D01*
X164912167Y-111039500D01*
X164979206Y-111059185D01*
X164999848Y-111075819D01*
X166002181Y-112078152D01*
X166035666Y-112139475D01*
X166038500Y-112165833D01*
X166038500Y-117711167D01*
X166018815Y-117778206D01*
X166002181Y-117798848D01*
X165519848Y-118281181D01*
X165458525Y-118314666D01*
X165432167Y-118317500D01*
X163624833Y-118317500D01*
X163557794Y-118297815D01*
X163537152Y-118281181D01*
X155530819Y-110274848D01*
X155497334Y-110213525D01*
X155494500Y-110187167D01*
X155494500Y-93432440D01*
X155494500Y-93432438D01*
X155474022Y-93356012D01*
X155434460Y-93287489D01*
X154331579Y-92184608D01*
X154298094Y-92123285D01*
X154297643Y-92072738D01*
X154312012Y-92000500D01*
X154312500Y-91998049D01*
X154312500Y-91808451D01*
X154312499Y-91808447D01*
X154275513Y-91622506D01*
X154275512Y-91622499D01*
X154202956Y-91447335D01*
X154167686Y-91394550D01*
X154097622Y-91289691D01*
X153963558Y-91155627D01*
X153805912Y-91050292D01*
X153630751Y-90977738D01*
X153630743Y-90977736D01*
X153444802Y-90940750D01*
X153444798Y-90940750D01*
X152879202Y-90940750D01*
X152879197Y-90940750D01*
X152693256Y-90977736D01*
X152693248Y-90977738D01*
X152518087Y-91050292D01*
X152360441Y-91155627D01*
X152226377Y-91289691D01*
X152121042Y-91447337D01*
X152048488Y-91622498D01*
X152048486Y-91622506D01*
X152011500Y-91808447D01*
X149929500Y-91808447D01*
X149929500Y-89268447D01*
X152011500Y-89268447D01*
X152011500Y-89458052D01*
X152048486Y-89643993D01*
X152048488Y-89644001D01*
X152121042Y-89819162D01*
X152226377Y-89976808D01*
X152360441Y-90110872D01*
X152465300Y-90180936D01*
X152518085Y-90216206D01*
X152693249Y-90288762D01*
X152879197Y-90325749D01*
X152879201Y-90325750D01*
X152879202Y-90325750D01*
X153444799Y-90325750D01*
X153444800Y-90325749D01*
X153630751Y-90288762D01*
X153805915Y-90216206D01*
X153963558Y-90110872D01*
X154097622Y-89976808D01*
X154202956Y-89819165D01*
X154275512Y-89644001D01*
X154312500Y-89458048D01*
X154312500Y-89268452D01*
X154275512Y-89082499D01*
X154202956Y-88907335D01*
X154167686Y-88854550D01*
X154097622Y-88749691D01*
X153963558Y-88615627D01*
X153805912Y-88510292D01*
X153630751Y-88437738D01*
X153630743Y-88437736D01*
X153444802Y-88400750D01*
X153444798Y-88400750D01*
X152879202Y-88400750D01*
X152879197Y-88400750D01*
X152693256Y-88437736D01*
X152693248Y-88437738D01*
X152518087Y-88510292D01*
X152360441Y-88615627D01*
X152226377Y-88749691D01*
X152121042Y-88907337D01*
X152048488Y-89082498D01*
X152048486Y-89082506D01*
X152011500Y-89268447D01*
X149929500Y-89268447D01*
X149929500Y-86728447D01*
X152011500Y-86728447D01*
X152011500Y-86918052D01*
X152048486Y-87103993D01*
X152048488Y-87104001D01*
X152121042Y-87279162D01*
X152226377Y-87436808D01*
X152360441Y-87570872D01*
X152402224Y-87598790D01*
X152518085Y-87676206D01*
X152693249Y-87748762D01*
X152879197Y-87785749D01*
X152879201Y-87785750D01*
X152879202Y-87785750D01*
X153444799Y-87785750D01*
X153444800Y-87785749D01*
X153630751Y-87748762D01*
X153805915Y-87676206D01*
X153963558Y-87570872D01*
X154097622Y-87436808D01*
X154202956Y-87279165D01*
X154275512Y-87104001D01*
X154312500Y-86918048D01*
X154312500Y-86728452D01*
X154275512Y-86542499D01*
X154202956Y-86367335D01*
X154167686Y-86314550D01*
X154097622Y-86209691D01*
X153963558Y-86075627D01*
X153805912Y-85970292D01*
X153630751Y-85897738D01*
X153630743Y-85897736D01*
X153444802Y-85860750D01*
X153444798Y-85860750D01*
X152879202Y-85860750D01*
X152879197Y-85860750D01*
X152693256Y-85897736D01*
X152693248Y-85897738D01*
X152518087Y-85970292D01*
X152360441Y-86075627D01*
X152226377Y-86209691D01*
X152121042Y-86367337D01*
X152048488Y-86542498D01*
X152048486Y-86542506D01*
X152011500Y-86728447D01*
X149929500Y-86728447D01*
X149929500Y-84188447D01*
X152011500Y-84188447D01*
X152011500Y-84378052D01*
X152048486Y-84563993D01*
X152048488Y-84564001D01*
X152121042Y-84739162D01*
X152226377Y-84896808D01*
X152360441Y-85030872D01*
X152465300Y-85100936D01*
X152518085Y-85136206D01*
X152693249Y-85208762D01*
X152879197Y-85245749D01*
X152879201Y-85245750D01*
X152879202Y-85245750D01*
X153444799Y-85245750D01*
X153444799Y-85245749D01*
X153592261Y-85216418D01*
X153661852Y-85222645D01*
X153704133Y-85250354D01*
X156381181Y-87927402D01*
X156414666Y-87988725D01*
X156417500Y-88015083D01*
X156417500Y-107096121D01*
X156431152Y-107147072D01*
X156437979Y-107172549D01*
X156448016Y-107189933D01*
X156458054Y-107207319D01*
X156458055Y-107207320D01*
X156475797Y-107238052D01*
X156477540Y-107241070D01*
X163215930Y-113979460D01*
X163225500Y-113984985D01*
X163273715Y-114035551D01*
X163287500Y-114092372D01*
X163287500Y-114608752D01*
X163299131Y-114667229D01*
X163299132Y-114667230D01*
X163343447Y-114733552D01*
X163409769Y-114777867D01*
X163409770Y-114777868D01*
X163468247Y-114789499D01*
X163468250Y-114789500D01*
X163468252Y-114789500D01*
X165207750Y-114789500D01*
X165207751Y-114789499D01*
X165222568Y-114786552D01*
X165266229Y-114777868D01*
X165266229Y-114777867D01*
X165266231Y-114777867D01*
X165332552Y-114733552D01*
X165376867Y-114667231D01*
X165376867Y-114667229D01*
X165376868Y-114667229D01*
X165385552Y-114623568D01*
X165388500Y-114608748D01*
X165388500Y-112869252D01*
X165388500Y-112869249D01*
X165388499Y-112869247D01*
X165376868Y-112810770D01*
X165376867Y-112810769D01*
X165332552Y-112744447D01*
X165266230Y-112700132D01*
X165266229Y-112700131D01*
X165207752Y-112688500D01*
X165207748Y-112688500D01*
X163468252Y-112688500D01*
X163468247Y-112688500D01*
X163409770Y-112700131D01*
X163409769Y-112700132D01*
X163343447Y-112744447D01*
X163299132Y-112810769D01*
X163299131Y-112810770D01*
X163287500Y-112869247D01*
X163287500Y-112901726D01*
X163267815Y-112968765D01*
X163215011Y-113014520D01*
X163145853Y-113024464D01*
X163082297Y-112995439D01*
X163075819Y-112989407D01*
X157054819Y-106968407D01*
X157021334Y-106907084D01*
X157018500Y-106880726D01*
X157018500Y-101591155D01*
X162988000Y-101591155D01*
X162988000Y-102239000D01*
X163904988Y-102239000D01*
X163872075Y-102296007D01*
X163838000Y-102423174D01*
X163838000Y-102554826D01*
X163872075Y-102681993D01*
X163904988Y-102739000D01*
X162988000Y-102739000D01*
X162988000Y-103386844D01*
X162994401Y-103446372D01*
X162994403Y-103446379D01*
X163044645Y-103581086D01*
X163044649Y-103581093D01*
X163130809Y-103696187D01*
X163130812Y-103696190D01*
X163245906Y-103782350D01*
X163245913Y-103782354D01*
X163380620Y-103832596D01*
X163380627Y-103832598D01*
X163440155Y-103838999D01*
X163440172Y-103839000D01*
X164088000Y-103839000D01*
X164088000Y-102922012D01*
X164145007Y-102954925D01*
X164272174Y-102989000D01*
X164403826Y-102989000D01*
X164530993Y-102954925D01*
X164588000Y-102922012D01*
X164588000Y-103839000D01*
X165235828Y-103839000D01*
X165235844Y-103838999D01*
X165295372Y-103832598D01*
X165295379Y-103832596D01*
X165430086Y-103782354D01*
X165430093Y-103782350D01*
X165545187Y-103696190D01*
X165545190Y-103696187D01*
X165631350Y-103581093D01*
X165631354Y-103581086D01*
X165681596Y-103446379D01*
X165681598Y-103446372D01*
X165687999Y-103386844D01*
X165688000Y-103386827D01*
X165688000Y-102739000D01*
X164771012Y-102739000D01*
X164803925Y-102681993D01*
X164838000Y-102554826D01*
X164838000Y-102423174D01*
X164803925Y-102296007D01*
X164771012Y-102239000D01*
X165688000Y-102239000D01*
X165688000Y-101591172D01*
X165687999Y-101591155D01*
X165681598Y-101531627D01*
X165681596Y-101531620D01*
X165631354Y-101396913D01*
X165631350Y-101396906D01*
X165545190Y-101281812D01*
X165545187Y-101281809D01*
X165430093Y-101195649D01*
X165430086Y-101195645D01*
X165295379Y-101145403D01*
X165295372Y-101145401D01*
X165235844Y-101139000D01*
X164588000Y-101139000D01*
X164588000Y-102055988D01*
X164530993Y-102023075D01*
X164403826Y-101989000D01*
X164272174Y-101989000D01*
X164145007Y-102023075D01*
X164088000Y-102055988D01*
X164088000Y-101139000D01*
X163440155Y-101139000D01*
X163380627Y-101145401D01*
X163380620Y-101145403D01*
X163245913Y-101195645D01*
X163245906Y-101195649D01*
X163130812Y-101281809D01*
X163130809Y-101281812D01*
X163044649Y-101396906D01*
X163044645Y-101396913D01*
X162994403Y-101531620D01*
X162994401Y-101531627D01*
X162988000Y-101591155D01*
X157018500Y-101591155D01*
X157018500Y-95269247D01*
X164176500Y-95269247D01*
X164176500Y-97008752D01*
X164188131Y-97067229D01*
X164188132Y-97067230D01*
X164232447Y-97133552D01*
X164298769Y-97177867D01*
X164298770Y-97177868D01*
X164357247Y-97189499D01*
X164357250Y-97189500D01*
X164357252Y-97189500D01*
X166096750Y-97189500D01*
X166096751Y-97189499D01*
X166111568Y-97186552D01*
X166155229Y-97177868D01*
X166155229Y-97177867D01*
X166155231Y-97177867D01*
X166221552Y-97133552D01*
X166265867Y-97067231D01*
X166265867Y-97067229D01*
X166265868Y-97067229D01*
X166277499Y-97008752D01*
X166277500Y-97008750D01*
X166277500Y-95269249D01*
X166277499Y-95269247D01*
X166265868Y-95210770D01*
X166265867Y-95210769D01*
X166221552Y-95144447D01*
X166155230Y-95100132D01*
X166155229Y-95100131D01*
X166096752Y-95088500D01*
X166096748Y-95088500D01*
X164357252Y-95088500D01*
X164357247Y-95088500D01*
X164298770Y-95100131D01*
X164298769Y-95100132D01*
X164232447Y-95144447D01*
X164188132Y-95210769D01*
X164188131Y-95210770D01*
X164176500Y-95269247D01*
X157018500Y-95269247D01*
X157018500Y-90080247D01*
X164049500Y-90080247D01*
X164049500Y-91819752D01*
X164061131Y-91878229D01*
X164061132Y-91878230D01*
X164105447Y-91944552D01*
X164171769Y-91988867D01*
X164171770Y-91988868D01*
X164230247Y-92000499D01*
X164230250Y-92000500D01*
X164230252Y-92000500D01*
X165969750Y-92000500D01*
X165969751Y-92000499D01*
X165984568Y-91997552D01*
X166028229Y-91988868D01*
X166028229Y-91988867D01*
X166028231Y-91988867D01*
X166094552Y-91944552D01*
X166138867Y-91878231D01*
X166138867Y-91878229D01*
X166138868Y-91878229D01*
X166150499Y-91819752D01*
X166150500Y-91819750D01*
X166150500Y-90080249D01*
X166150499Y-90080247D01*
X166138868Y-90021770D01*
X166138867Y-90021769D01*
X166094552Y-89955447D01*
X166028230Y-89911132D01*
X166028229Y-89911131D01*
X165969752Y-89899500D01*
X165969748Y-89899500D01*
X164230252Y-89899500D01*
X164230247Y-89899500D01*
X164171770Y-89911131D01*
X164171769Y-89911132D01*
X164105447Y-89955447D01*
X164061132Y-90021769D01*
X164061131Y-90021770D01*
X164049500Y-90080247D01*
X157018500Y-90080247D01*
X157018500Y-87799689D01*
X157004854Y-87748762D01*
X156998021Y-87723261D01*
X156998017Y-87723254D01*
X156958464Y-87654745D01*
X156958458Y-87654737D01*
X154920968Y-85617247D01*
X164049500Y-85617247D01*
X164049500Y-87356752D01*
X164061131Y-87415229D01*
X164061132Y-87415230D01*
X164105447Y-87481552D01*
X164171769Y-87525867D01*
X164171770Y-87525868D01*
X164230247Y-87537499D01*
X164230250Y-87537500D01*
X164230252Y-87537500D01*
X165969750Y-87537500D01*
X165969751Y-87537499D01*
X165984568Y-87534552D01*
X166028229Y-87525868D01*
X166028229Y-87525867D01*
X166028231Y-87525867D01*
X166094552Y-87481552D01*
X166138867Y-87415231D01*
X166138867Y-87415229D01*
X166138868Y-87415229D01*
X166150499Y-87356752D01*
X166150500Y-87356750D01*
X166150500Y-85617249D01*
X166150499Y-85617247D01*
X166138868Y-85558770D01*
X166138867Y-85558769D01*
X166094552Y-85492447D01*
X166028230Y-85448132D01*
X166028229Y-85448131D01*
X165969752Y-85436500D01*
X165969748Y-85436500D01*
X164230252Y-85436500D01*
X164230247Y-85436500D01*
X164171770Y-85448131D01*
X164171769Y-85448132D01*
X164105447Y-85492447D01*
X164061132Y-85558769D01*
X164061131Y-85558770D01*
X164049500Y-85617247D01*
X154920968Y-85617247D01*
X154210799Y-84907078D01*
X154177314Y-84845755D01*
X154182298Y-84776063D01*
X154195379Y-84750504D01*
X154202956Y-84739165D01*
X154275512Y-84564001D01*
X154312500Y-84378048D01*
X154312500Y-84188452D01*
X154275512Y-84002499D01*
X154202956Y-83827335D01*
X154167686Y-83774550D01*
X154097622Y-83669691D01*
X153963558Y-83535627D01*
X153805912Y-83430292D01*
X153630751Y-83357738D01*
X153630743Y-83357736D01*
X153444802Y-83320750D01*
X153444798Y-83320750D01*
X152879202Y-83320750D01*
X152879197Y-83320750D01*
X152693256Y-83357736D01*
X152693248Y-83357738D01*
X152518087Y-83430292D01*
X152360441Y-83535627D01*
X152226377Y-83669691D01*
X152121042Y-83827337D01*
X152048488Y-84002498D01*
X152048486Y-84002506D01*
X152011500Y-84188447D01*
X149929500Y-84188447D01*
X149929500Y-81648447D01*
X152011500Y-81648447D01*
X152011500Y-81838052D01*
X152048486Y-82023993D01*
X152048488Y-82024001D01*
X152121042Y-82199162D01*
X152226377Y-82356808D01*
X152360441Y-82490872D01*
X152465300Y-82560936D01*
X152518085Y-82596206D01*
X152693249Y-82668762D01*
X152879197Y-82705749D01*
X152879201Y-82705750D01*
X152879202Y-82705750D01*
X153444799Y-82705750D01*
X153444800Y-82705749D01*
X153630751Y-82668762D01*
X153805915Y-82596206D01*
X153963558Y-82490872D01*
X154097622Y-82356808D01*
X154202956Y-82199165D01*
X154275512Y-82024001D01*
X154312500Y-81838048D01*
X154312500Y-81648452D01*
X154275512Y-81462499D01*
X154202956Y-81287335D01*
X154126056Y-81172247D01*
X164049500Y-81172247D01*
X164049500Y-82911752D01*
X164061131Y-82970229D01*
X164061132Y-82970230D01*
X164105447Y-83036552D01*
X164171769Y-83080867D01*
X164171770Y-83080868D01*
X164230247Y-83092499D01*
X164230250Y-83092500D01*
X164230252Y-83092500D01*
X165969750Y-83092500D01*
X165969751Y-83092499D01*
X165984568Y-83089552D01*
X166028229Y-83080868D01*
X166028229Y-83080867D01*
X166028231Y-83080867D01*
X166094552Y-83036552D01*
X166138867Y-82970231D01*
X166138867Y-82970229D01*
X166138868Y-82970229D01*
X166150499Y-82911752D01*
X166150500Y-82911750D01*
X166150500Y-81172249D01*
X166150499Y-81172247D01*
X166138868Y-81113770D01*
X166138867Y-81113769D01*
X166094552Y-81047447D01*
X166028230Y-81003132D01*
X166028229Y-81003131D01*
X165969752Y-80991500D01*
X165969748Y-80991500D01*
X164230252Y-80991500D01*
X164230247Y-80991500D01*
X164171770Y-81003131D01*
X164171769Y-81003132D01*
X164105447Y-81047447D01*
X164061132Y-81113769D01*
X164061131Y-81113770D01*
X164049500Y-81172247D01*
X154126056Y-81172247D01*
X154097622Y-81129692D01*
X154097621Y-81129691D01*
X154097619Y-81129688D01*
X153963558Y-80995627D01*
X153805912Y-80890292D01*
X153630751Y-80817738D01*
X153630743Y-80817736D01*
X153444802Y-80780750D01*
X153444798Y-80780750D01*
X152879202Y-80780750D01*
X152879197Y-80780750D01*
X152693256Y-80817736D01*
X152693248Y-80817738D01*
X152518087Y-80890292D01*
X152360441Y-80995627D01*
X152226377Y-81129691D01*
X152121042Y-81287337D01*
X152048488Y-81462498D01*
X152048486Y-81462506D01*
X152011500Y-81648447D01*
X149929500Y-81648447D01*
X149929500Y-76921304D01*
X149949185Y-76854265D01*
X150001989Y-76808510D01*
X150071147Y-76798566D01*
X150134703Y-76827591D01*
X150172477Y-76886369D01*
X150173263Y-76889168D01*
X150181874Y-76921304D01*
X150221142Y-77067855D01*
X150221145Y-77067865D01*
X150321493Y-77310127D01*
X150321498Y-77310137D01*
X150452615Y-77537240D01*
X150612258Y-77745288D01*
X150612266Y-77745297D01*
X150797680Y-77930711D01*
X150797688Y-77930718D01*
X151005736Y-78090361D01*
X151232839Y-78221478D01*
X151232849Y-78221483D01*
X151475111Y-78321831D01*
X151475121Y-78321835D01*
X151728424Y-78389707D01*
X151988420Y-78423937D01*
X151988427Y-78423937D01*
X152250653Y-78423937D01*
X152250660Y-78423937D01*
X152510656Y-78389707D01*
X152763959Y-78321835D01*
X153006237Y-78221480D01*
X153233343Y-78090361D01*
X153441391Y-77930719D01*
X153441395Y-77930714D01*
X153441400Y-77930711D01*
X153626814Y-77745297D01*
X153626817Y-77745292D01*
X153626822Y-77745288D01*
X153786464Y-77537240D01*
X153827594Y-77466000D01*
X153893044Y-77352638D01*
X153901086Y-77338707D01*
X153917583Y-77310134D01*
X154017938Y-77067856D01*
X154085810Y-76814553D01*
X154120040Y-76554557D01*
X154120040Y-76318155D01*
X163877000Y-76318155D01*
X163877000Y-76966000D01*
X164793988Y-76966000D01*
X164761075Y-77023007D01*
X164727000Y-77150174D01*
X164727000Y-77281826D01*
X164761075Y-77408993D01*
X164793988Y-77466000D01*
X163877000Y-77466000D01*
X163877000Y-78113844D01*
X163883401Y-78173372D01*
X163883403Y-78173379D01*
X163933645Y-78308086D01*
X163933649Y-78308093D01*
X164019809Y-78423187D01*
X164019812Y-78423190D01*
X164134906Y-78509350D01*
X164134913Y-78509354D01*
X164269620Y-78559596D01*
X164269627Y-78559598D01*
X164329155Y-78565999D01*
X164329172Y-78566000D01*
X164977000Y-78566000D01*
X164977000Y-77649012D01*
X165034007Y-77681925D01*
X165161174Y-77716000D01*
X165292826Y-77716000D01*
X165419993Y-77681925D01*
X165477000Y-77649012D01*
X165477000Y-78566000D01*
X166124828Y-78566000D01*
X166124844Y-78565999D01*
X166184372Y-78559598D01*
X166184379Y-78559596D01*
X166319086Y-78509354D01*
X166319093Y-78509350D01*
X166434187Y-78423190D01*
X166434190Y-78423187D01*
X166520350Y-78308093D01*
X166520354Y-78308086D01*
X166570596Y-78173379D01*
X166570598Y-78173372D01*
X166576999Y-78113844D01*
X166577000Y-78113827D01*
X166577000Y-77466000D01*
X165660012Y-77466000D01*
X165692925Y-77408993D01*
X165727000Y-77281826D01*
X165727000Y-77150174D01*
X165692925Y-77023007D01*
X165660012Y-76966000D01*
X166577000Y-76966000D01*
X166577000Y-76318172D01*
X166576999Y-76318155D01*
X166570598Y-76258627D01*
X166570596Y-76258620D01*
X166520354Y-76123913D01*
X166520350Y-76123906D01*
X166434190Y-76008812D01*
X166434187Y-76008809D01*
X166319093Y-75922649D01*
X166319086Y-75922645D01*
X166184379Y-75872403D01*
X166184372Y-75872401D01*
X166124844Y-75866000D01*
X165477000Y-75866000D01*
X165477000Y-76782988D01*
X165419993Y-76750075D01*
X165292826Y-76716000D01*
X165161174Y-76716000D01*
X165034007Y-76750075D01*
X164977000Y-76782988D01*
X164977000Y-75866000D01*
X164329155Y-75866000D01*
X164269627Y-75872401D01*
X164269620Y-75872403D01*
X164134913Y-75922645D01*
X164134906Y-75922649D01*
X164019812Y-76008809D01*
X164019809Y-76008812D01*
X163933649Y-76123906D01*
X163933645Y-76123913D01*
X163883403Y-76258620D01*
X163883401Y-76258627D01*
X163877000Y-76318155D01*
X154120040Y-76318155D01*
X154120040Y-76292317D01*
X154085810Y-76032321D01*
X154017938Y-75779018D01*
X153964834Y-75650813D01*
X153917586Y-75536746D01*
X153917581Y-75536736D01*
X153786464Y-75309633D01*
X153626821Y-75101585D01*
X153626814Y-75101577D01*
X153441400Y-74916163D01*
X153441391Y-74916155D01*
X153233343Y-74756512D01*
X153006240Y-74625395D01*
X153006230Y-74625390D01*
X152763968Y-74525042D01*
X152763961Y-74525040D01*
X152763959Y-74525039D01*
X152510656Y-74457167D01*
X152452879Y-74449560D01*
X152250667Y-74422937D01*
X152250660Y-74422937D01*
X151988420Y-74422937D01*
X151988412Y-74422937D01*
X151728424Y-74457167D01*
X151659768Y-74475563D01*
X151589918Y-74473900D01*
X151532055Y-74434737D01*
X151504552Y-74370508D01*
X151516139Y-74301606D01*
X151539991Y-74268110D01*
X157332489Y-68475614D01*
X157391799Y-68372887D01*
X157409051Y-68308500D01*
X157422500Y-68258309D01*
X157422500Y-59503691D01*
X157391799Y-59389114D01*
X157391799Y-59389113D01*
X157391799Y-59389112D01*
X157332492Y-59286389D01*
X157332488Y-59286384D01*
X153648819Y-55602715D01*
X153615334Y-55541392D01*
X153612500Y-55515034D01*
X153612500Y-55024853D01*
X153632185Y-54957814D01*
X153667610Y-54921751D01*
X153711845Y-54892193D01*
X153775558Y-54849622D01*
X153909622Y-54715558D01*
X154014956Y-54557915D01*
X154087512Y-54382751D01*
X154124500Y-54196798D01*
X154124500Y-54007202D01*
X154124500Y-54007199D01*
X154123601Y-54002678D01*
X154440000Y-54002678D01*
X154440000Y-54201321D01*
X154471075Y-54397520D01*
X154471075Y-54397523D01*
X154532457Y-54586437D01*
X154622641Y-54763432D01*
X154649730Y-54800715D01*
X154649731Y-54800716D01*
X155321000Y-54129447D01*
X155321000Y-54152160D01*
X155346964Y-54249061D01*
X155397124Y-54335940D01*
X155468060Y-54406876D01*
X155554939Y-54457036D01*
X155651840Y-54483000D01*
X155674553Y-54483000D01*
X155003283Y-55154268D01*
X155003283Y-55154269D01*
X155040567Y-55181358D01*
X155217562Y-55271542D01*
X155406477Y-55332924D01*
X155602679Y-55364000D01*
X155801321Y-55364000D01*
X155997520Y-55332924D01*
X155997523Y-55332924D01*
X156186437Y-55271542D01*
X156363425Y-55181362D01*
X156400716Y-55154268D01*
X155729448Y-54483000D01*
X155752160Y-54483000D01*
X155849061Y-54457036D01*
X155935940Y-54406876D01*
X156006876Y-54335940D01*
X156057036Y-54249061D01*
X156083000Y-54152160D01*
X156083000Y-54129447D01*
X156754268Y-54800715D01*
X156781362Y-54763425D01*
X156871542Y-54586437D01*
X156932924Y-54397523D01*
X156932924Y-54397520D01*
X156964000Y-54201321D01*
X156964000Y-54002678D01*
X156932924Y-53806479D01*
X156932924Y-53806476D01*
X156871542Y-53617562D01*
X156781358Y-53440567D01*
X156754268Y-53403283D01*
X156083000Y-54074551D01*
X156083000Y-54051840D01*
X156057036Y-53954939D01*
X156006876Y-53868060D01*
X155935940Y-53797124D01*
X155849061Y-53746964D01*
X155752160Y-53721000D01*
X155729447Y-53721000D01*
X156400716Y-53049731D01*
X156400715Y-53049730D01*
X156363432Y-53022641D01*
X156186437Y-52932457D01*
X155997522Y-52871075D01*
X155801321Y-52840000D01*
X155602679Y-52840000D01*
X155406479Y-52871075D01*
X155406476Y-52871075D01*
X155217562Y-52932457D01*
X155040564Y-53022643D01*
X155003283Y-53049729D01*
X155003282Y-53049730D01*
X155674554Y-53721000D01*
X155651840Y-53721000D01*
X155554939Y-53746964D01*
X155468060Y-53797124D01*
X155397124Y-53868060D01*
X155346964Y-53954939D01*
X155321000Y-54051840D01*
X155321000Y-54074552D01*
X154649730Y-53403282D01*
X154649729Y-53403283D01*
X154622643Y-53440564D01*
X154532457Y-53617562D01*
X154471075Y-53806476D01*
X154471075Y-53806479D01*
X154440000Y-54002678D01*
X154123601Y-54002678D01*
X154096823Y-53868060D01*
X154087512Y-53821249D01*
X154014956Y-53646085D01*
X153979686Y-53593300D01*
X153909622Y-53488441D01*
X153775558Y-53354377D01*
X153617912Y-53249042D01*
X153527400Y-53211551D01*
X153442751Y-53176488D01*
X153442743Y-53176486D01*
X153256802Y-53139500D01*
X153256798Y-53139500D01*
X153067202Y-53139500D01*
X153067197Y-53139500D01*
X152881256Y-53176486D01*
X152881248Y-53176488D01*
X152706087Y-53249042D01*
X152548441Y-53354377D01*
X152414377Y-53488441D01*
X152309042Y-53646087D01*
X152236488Y-53821248D01*
X152236486Y-53821256D01*
X152199500Y-54007197D01*
X152199500Y-54196802D01*
X152236486Y-54382743D01*
X152236488Y-54382751D01*
X152309042Y-54557912D01*
X152414377Y-54715558D01*
X152548438Y-54849619D01*
X152548446Y-54849625D01*
X152656390Y-54921751D01*
X152701196Y-54975363D01*
X152711500Y-55024853D01*
X152711500Y-55812308D01*
X152735712Y-55902672D01*
X152742200Y-55926885D01*
X152742200Y-55926886D01*
X152742201Y-55926887D01*
X152801511Y-56029614D01*
X152801513Y-56029616D01*
X156485181Y-59713284D01*
X156518666Y-59774607D01*
X156521500Y-59800965D01*
X156521500Y-67961035D01*
X156501815Y-68028074D01*
X156485181Y-68048716D01*
X149118513Y-75415383D01*
X149118509Y-75415389D01*
X149059201Y-75518112D01*
X149059200Y-75518117D01*
X149028500Y-75632691D01*
X149028500Y-99793285D01*
X149008815Y-99860324D01*
X148992181Y-99880966D01*
X132310716Y-116562431D01*
X132249393Y-116595916D01*
X132223035Y-116598750D01*
X128658043Y-116598750D01*
X128591004Y-116579065D01*
X128570362Y-116562431D01*
X128563558Y-116555627D01*
X128405912Y-116450292D01*
X128230751Y-116377738D01*
X128230743Y-116377736D01*
X128044802Y-116340750D01*
X128044798Y-116340750D01*
X127479202Y-116340750D01*
X127479197Y-116340750D01*
X127293256Y-116377736D01*
X127293248Y-116377738D01*
X127118087Y-116450292D01*
X126960441Y-116555627D01*
X126826380Y-116689688D01*
X126826377Y-116689692D01*
X126724347Y-116842391D01*
X126670735Y-116887196D01*
X126621245Y-116897500D01*
X114873642Y-116897500D01*
X114806603Y-116877815D01*
X114785961Y-116861181D01*
X113250819Y-115326039D01*
X113217334Y-115264716D01*
X113214500Y-115238358D01*
X113214500Y-114513249D01*
X126335865Y-114513249D01*
X126335865Y-114513250D01*
X127446314Y-114513250D01*
X127441920Y-114517644D01*
X127389259Y-114608856D01*
X127362000Y-114710589D01*
X127362000Y-114815911D01*
X127389259Y-114917644D01*
X127441920Y-115008856D01*
X127446314Y-115013250D01*
X126335865Y-115013250D01*
X126343074Y-115058767D01*
X126404456Y-115247685D01*
X126494641Y-115424682D01*
X126611403Y-115585389D01*
X126611403Y-115585390D01*
X126751859Y-115725846D01*
X126912567Y-115842608D01*
X127089562Y-115932792D01*
X127278477Y-115994174D01*
X127474679Y-116025250D01*
X127512000Y-116025250D01*
X127512000Y-115078936D01*
X127516394Y-115083330D01*
X127607606Y-115135991D01*
X127709339Y-115163250D01*
X127814661Y-115163250D01*
X127916394Y-115135991D01*
X128007606Y-115083330D01*
X128012000Y-115078936D01*
X128012000Y-116025250D01*
X128049321Y-116025250D01*
X128245520Y-115994174D01*
X128245523Y-115994174D01*
X128434437Y-115932792D01*
X128611432Y-115842608D01*
X128772139Y-115725846D01*
X128772140Y-115725846D01*
X128912596Y-115585390D01*
X128912596Y-115585389D01*
X129029358Y-115424682D01*
X129119543Y-115247685D01*
X129180925Y-115058767D01*
X129188134Y-115013250D01*
X128077686Y-115013250D01*
X128082080Y-115008856D01*
X128134741Y-114917644D01*
X128162000Y-114815911D01*
X128162000Y-114710589D01*
X128134741Y-114608856D01*
X128082080Y-114517644D01*
X128077686Y-114513250D01*
X129188135Y-114513250D01*
X129188134Y-114513249D01*
X129180925Y-114467732D01*
X129119543Y-114278814D01*
X129029358Y-114101817D01*
X128912596Y-113941110D01*
X128912596Y-113941109D01*
X128772140Y-113800653D01*
X128611432Y-113683891D01*
X128434437Y-113593707D01*
X128245522Y-113532325D01*
X128049321Y-113501250D01*
X128012000Y-113501250D01*
X128012000Y-114447564D01*
X128007606Y-114443170D01*
X127916394Y-114390509D01*
X127814661Y-114363250D01*
X127709339Y-114363250D01*
X127607606Y-114390509D01*
X127516394Y-114443170D01*
X127512000Y-114447564D01*
X127512000Y-113501250D01*
X127474679Y-113501250D01*
X127278479Y-113532325D01*
X127278476Y-113532325D01*
X127089562Y-113593707D01*
X126912567Y-113683891D01*
X126751860Y-113800653D01*
X126751859Y-113800653D01*
X126611403Y-113941109D01*
X126611403Y-113941110D01*
X126494641Y-114101817D01*
X126404456Y-114278814D01*
X126343074Y-114467732D01*
X126335865Y-114513249D01*
X113214500Y-114513249D01*
X113214500Y-113922053D01*
X113211646Y-113891623D01*
X113211646Y-113891621D01*
X113166793Y-113763442D01*
X113166792Y-113763440D01*
X113086150Y-113654173D01*
X112976882Y-113573530D01*
X112976880Y-113573529D01*
X112848700Y-113528676D01*
X112818270Y-113525823D01*
X112818266Y-113525823D01*
X111209734Y-113525823D01*
X111209730Y-113525823D01*
X111179300Y-113528676D01*
X111179298Y-113528676D01*
X111051119Y-113573529D01*
X111051117Y-113573530D01*
X110941850Y-113654173D01*
X110861207Y-113763440D01*
X110861206Y-113763442D01*
X110816353Y-113891621D01*
X110816353Y-113891623D01*
X110813500Y-113922053D01*
X104859658Y-113922053D01*
X105584732Y-112128447D01*
X126611500Y-112128447D01*
X126611500Y-112318052D01*
X126648486Y-112503993D01*
X126648488Y-112504001D01*
X126721042Y-112679162D01*
X126826377Y-112836808D01*
X126960441Y-112970872D01*
X127040648Y-113024464D01*
X127118085Y-113076206D01*
X127293249Y-113148762D01*
X127479197Y-113185749D01*
X127479201Y-113185750D01*
X127479202Y-113185750D01*
X128044799Y-113185750D01*
X128044800Y-113185749D01*
X128230751Y-113148762D01*
X128405915Y-113076206D01*
X128563558Y-112970872D01*
X128697622Y-112836808D01*
X128802956Y-112679165D01*
X128875512Y-112504001D01*
X128912500Y-112318048D01*
X128912500Y-112128452D01*
X128875512Y-111942499D01*
X128802956Y-111767335D01*
X128767686Y-111714550D01*
X128697622Y-111609691D01*
X128563558Y-111475627D01*
X128405912Y-111370292D01*
X128230751Y-111297738D01*
X128230743Y-111297736D01*
X128044802Y-111260750D01*
X128044798Y-111260750D01*
X127479202Y-111260750D01*
X127479197Y-111260750D01*
X127293256Y-111297736D01*
X127293248Y-111297738D01*
X127118087Y-111370292D01*
X126960441Y-111475627D01*
X126826377Y-111609691D01*
X126721042Y-111767337D01*
X126648488Y-111942498D01*
X126648486Y-111942506D01*
X126611500Y-112128447D01*
X105584732Y-112128447D01*
X106325182Y-110296808D01*
X106611541Y-109588447D01*
X126611500Y-109588447D01*
X126611500Y-109778052D01*
X126648486Y-109963993D01*
X126648488Y-109964001D01*
X126721042Y-110139162D01*
X126826377Y-110296808D01*
X126960441Y-110430872D01*
X127118085Y-110536206D01*
X127293249Y-110608762D01*
X127479197Y-110645749D01*
X127479201Y-110645750D01*
X127479202Y-110645750D01*
X128044799Y-110645750D01*
X128044800Y-110645749D01*
X128230751Y-110608762D01*
X128405915Y-110536206D01*
X128563558Y-110430872D01*
X128697622Y-110296808D01*
X128802956Y-110139165D01*
X128875512Y-109964001D01*
X128912500Y-109778048D01*
X128912500Y-109588452D01*
X128875512Y-109402499D01*
X128802956Y-109227335D01*
X128730734Y-109119247D01*
X128697622Y-109069691D01*
X128563558Y-108935627D01*
X128405912Y-108830292D01*
X128230751Y-108757738D01*
X128230743Y-108757736D01*
X128044802Y-108720750D01*
X128044798Y-108720750D01*
X127479202Y-108720750D01*
X127479197Y-108720750D01*
X127293256Y-108757736D01*
X127293248Y-108757738D01*
X127118087Y-108830292D01*
X126960441Y-108935627D01*
X126826377Y-109069691D01*
X126721042Y-109227337D01*
X126648488Y-109402498D01*
X126648486Y-109402506D01*
X126611500Y-109588447D01*
X106611541Y-109588447D01*
X106632789Y-109535886D01*
X107521349Y-107337868D01*
X107638349Y-107048447D01*
X126611500Y-107048447D01*
X126611500Y-107238052D01*
X126648486Y-107423993D01*
X126648488Y-107424001D01*
X126721042Y-107599162D01*
X126826377Y-107756808D01*
X126960441Y-107890872D01*
X127065300Y-107960936D01*
X127118085Y-107996206D01*
X127293249Y-108068762D01*
X127479197Y-108105749D01*
X127479201Y-108105750D01*
X127479202Y-108105750D01*
X128044799Y-108105750D01*
X128044800Y-108105749D01*
X128230751Y-108068762D01*
X128405915Y-107996206D01*
X128563558Y-107890872D01*
X128697622Y-107756808D01*
X128802956Y-107599165D01*
X128875512Y-107424001D01*
X128912500Y-107238048D01*
X128912500Y-107048452D01*
X128875512Y-106862499D01*
X128802956Y-106687335D01*
X128767686Y-106634550D01*
X128697622Y-106529691D01*
X128563558Y-106395627D01*
X128405912Y-106290292D01*
X128230751Y-106217738D01*
X128230743Y-106217736D01*
X128044802Y-106180750D01*
X128044798Y-106180750D01*
X127479202Y-106180750D01*
X127479197Y-106180750D01*
X127293256Y-106217736D01*
X127293248Y-106217738D01*
X127118087Y-106290292D01*
X126960441Y-106395627D01*
X126826377Y-106529691D01*
X126721042Y-106687337D01*
X126648488Y-106862498D01*
X126648486Y-106862506D01*
X126611500Y-107048447D01*
X107638349Y-107048447D01*
X108237738Y-105565749D01*
X108665158Y-104508447D01*
X126611500Y-104508447D01*
X126611500Y-104698052D01*
X126648486Y-104883993D01*
X126648488Y-104884001D01*
X126721042Y-105059162D01*
X126826377Y-105216808D01*
X126960441Y-105350872D01*
X126990221Y-105370770D01*
X127118085Y-105456206D01*
X127293249Y-105528762D01*
X127479197Y-105565749D01*
X127479201Y-105565750D01*
X127479202Y-105565750D01*
X128044799Y-105565750D01*
X128044800Y-105565749D01*
X128230751Y-105528762D01*
X128405915Y-105456206D01*
X128563558Y-105350872D01*
X128697622Y-105216808D01*
X128802956Y-105059165D01*
X128875512Y-104884001D01*
X128912500Y-104698048D01*
X128912500Y-104508452D01*
X128875512Y-104322499D01*
X128802956Y-104147335D01*
X128767686Y-104094550D01*
X128697622Y-103989691D01*
X128563558Y-103855627D01*
X128405912Y-103750292D01*
X128230751Y-103677738D01*
X128230743Y-103677736D01*
X128044802Y-103640750D01*
X128044798Y-103640750D01*
X127479202Y-103640750D01*
X127479197Y-103640750D01*
X127293256Y-103677736D01*
X127293248Y-103677738D01*
X127118087Y-103750292D01*
X126960441Y-103855627D01*
X126826377Y-103989691D01*
X126721042Y-104147337D01*
X126648488Y-104322498D01*
X126648486Y-104322506D01*
X126611500Y-104508447D01*
X108665158Y-104508447D01*
X108686406Y-104455886D01*
X109615317Y-102158052D01*
X109691966Y-101968447D01*
X126611500Y-101968447D01*
X126611500Y-102158052D01*
X126648486Y-102343993D01*
X126648488Y-102344001D01*
X126721042Y-102519162D01*
X126826377Y-102676808D01*
X126960441Y-102810872D01*
X127065300Y-102880936D01*
X127118085Y-102916206D01*
X127293249Y-102988762D01*
X127479197Y-103025749D01*
X127479201Y-103025750D01*
X127479202Y-103025750D01*
X128044799Y-103025750D01*
X128044800Y-103025749D01*
X128230751Y-102988762D01*
X128405915Y-102916206D01*
X128563558Y-102810872D01*
X128697622Y-102676808D01*
X128802956Y-102519165D01*
X128875512Y-102344001D01*
X128912500Y-102158048D01*
X128912500Y-101968452D01*
X128875512Y-101782499D01*
X128802956Y-101607335D01*
X128795376Y-101595990D01*
X128774499Y-101529316D01*
X128792983Y-101461936D01*
X128810794Y-101439425D01*
X145909460Y-84340761D01*
X145919823Y-84322812D01*
X145949021Y-84272239D01*
X145969500Y-84195812D01*
X145969500Y-69943583D01*
X145989185Y-69876544D01*
X146005819Y-69855902D01*
X147516902Y-68344819D01*
X147578225Y-68311334D01*
X147604583Y-68308500D01*
X152412728Y-68308500D01*
X152479767Y-68328185D01*
X152523212Y-68376204D01*
X152558949Y-68446340D01*
X152558954Y-68446347D01*
X152648652Y-68536045D01*
X152648654Y-68536046D01*
X152648658Y-68536050D01*
X152761694Y-68593645D01*
X152761698Y-68593647D01*
X152855475Y-68608499D01*
X152855481Y-68608500D01*
X153468518Y-68608499D01*
X153562304Y-68593646D01*
X153675342Y-68536050D01*
X153765050Y-68446342D01*
X153822646Y-68333304D01*
X153822646Y-68333302D01*
X153822647Y-68333301D01*
X153837499Y-68239524D01*
X153837500Y-68239519D01*
X153837499Y-67776482D01*
X153822646Y-67682696D01*
X153765050Y-67569658D01*
X153765046Y-67569654D01*
X153765045Y-67569652D01*
X153675347Y-67479954D01*
X153675344Y-67479952D01*
X153675342Y-67479950D01*
X153598517Y-67440805D01*
X153562301Y-67422352D01*
X153468524Y-67407500D01*
X152855482Y-67407500D01*
X152774519Y-67420323D01*
X152761696Y-67422354D01*
X152648658Y-67479950D01*
X152648657Y-67479951D01*
X152648652Y-67479954D01*
X152558954Y-67569652D01*
X152558951Y-67569657D01*
X152558950Y-67569658D01*
X152523212Y-67639796D01*
X152475239Y-67690591D01*
X152412729Y-67707500D01*
X147389188Y-67707500D01*
X147338236Y-67721152D01*
X147312760Y-67727979D01*
X147277218Y-67748500D01*
X147277217Y-67748500D01*
X147244242Y-67767537D01*
X147244237Y-67767541D01*
X145428541Y-69583237D01*
X145428535Y-69583245D01*
X145388982Y-69651754D01*
X145388979Y-69651759D01*
X145368500Y-69728189D01*
X145368500Y-83980416D01*
X145348815Y-84047455D01*
X145332181Y-84068097D01*
X128304132Y-101096145D01*
X128242809Y-101129630D01*
X128192260Y-101130081D01*
X128044802Y-101100750D01*
X128044798Y-101100750D01*
X127479202Y-101100750D01*
X127479197Y-101100750D01*
X127293256Y-101137736D01*
X127293248Y-101137738D01*
X127118087Y-101210292D01*
X126960441Y-101315627D01*
X126826377Y-101449691D01*
X126721042Y-101607337D01*
X126648488Y-101782498D01*
X126648486Y-101782506D01*
X126611500Y-101968447D01*
X109691966Y-101968447D01*
X110718774Y-99428447D01*
X126611500Y-99428447D01*
X126611500Y-99618052D01*
X126648486Y-99803993D01*
X126648488Y-99804001D01*
X126721042Y-99979162D01*
X126826377Y-100136808D01*
X126960441Y-100270872D01*
X127065300Y-100340936D01*
X127118085Y-100376206D01*
X127293249Y-100448762D01*
X127479197Y-100485749D01*
X127479201Y-100485750D01*
X127479202Y-100485750D01*
X128044799Y-100485750D01*
X128044800Y-100485749D01*
X128230751Y-100448762D01*
X128405915Y-100376206D01*
X128563558Y-100270872D01*
X128697622Y-100136808D01*
X128802956Y-99979165D01*
X128875512Y-99804001D01*
X128912500Y-99618048D01*
X128912500Y-99428452D01*
X128875512Y-99242499D01*
X128802956Y-99067335D01*
X128795376Y-99055990D01*
X128774499Y-98989316D01*
X128792983Y-98921936D01*
X128810794Y-98899425D01*
X135749460Y-91960761D01*
X135759823Y-91942812D01*
X135789021Y-91892239D01*
X135809500Y-91815812D01*
X135809500Y-69816583D01*
X135829185Y-69749544D01*
X135845819Y-69728902D01*
X137356902Y-68217819D01*
X137418225Y-68184334D01*
X137444583Y-68181500D01*
X142252728Y-68181500D01*
X142319767Y-68201185D01*
X142363212Y-68249204D01*
X142398949Y-68319340D01*
X142398954Y-68319347D01*
X142488652Y-68409045D01*
X142488654Y-68409046D01*
X142488658Y-68409050D01*
X142601694Y-68466645D01*
X142601698Y-68466647D01*
X142695475Y-68481499D01*
X142695481Y-68481500D01*
X143308518Y-68481499D01*
X143402304Y-68466646D01*
X143515342Y-68409050D01*
X143605050Y-68319342D01*
X143662646Y-68206304D01*
X143662646Y-68206302D01*
X143662647Y-68206301D01*
X143677499Y-68112524D01*
X143677500Y-68112519D01*
X143677499Y-67649482D01*
X143662646Y-67555696D01*
X143605050Y-67442658D01*
X143605046Y-67442654D01*
X143605045Y-67442652D01*
X143515347Y-67352954D01*
X143515344Y-67352952D01*
X143515342Y-67352950D01*
X143438517Y-67313805D01*
X143402301Y-67295352D01*
X143308524Y-67280500D01*
X142695482Y-67280500D01*
X142614519Y-67293323D01*
X142601696Y-67295354D01*
X142488658Y-67352950D01*
X142488657Y-67352951D01*
X142488652Y-67352954D01*
X142398954Y-67442652D01*
X142398951Y-67442657D01*
X142398950Y-67442658D01*
X142363212Y-67512796D01*
X142315239Y-67563591D01*
X142252729Y-67580500D01*
X137229188Y-67580500D01*
X137190974Y-67590739D01*
X137152759Y-67600979D01*
X137152754Y-67600982D01*
X137084245Y-67640535D01*
X137084237Y-67640541D01*
X135268541Y-69456237D01*
X135268535Y-69456245D01*
X135228982Y-69524754D01*
X135228979Y-69524759D01*
X135208500Y-69601189D01*
X135208500Y-91600416D01*
X135188815Y-91667455D01*
X135172181Y-91688097D01*
X128304132Y-98556145D01*
X128242809Y-98589630D01*
X128192260Y-98590081D01*
X128044802Y-98560750D01*
X128044798Y-98560750D01*
X127479202Y-98560750D01*
X127479197Y-98560750D01*
X127293256Y-98597736D01*
X127293248Y-98597738D01*
X127118087Y-98670292D01*
X126960441Y-98775627D01*
X126826377Y-98909691D01*
X126721042Y-99067337D01*
X126648488Y-99242498D01*
X126648486Y-99242506D01*
X126611500Y-99428447D01*
X110718774Y-99428447D01*
X111745583Y-96888447D01*
X126611500Y-96888447D01*
X126611500Y-97078052D01*
X126648486Y-97263993D01*
X126648488Y-97264001D01*
X126721042Y-97439162D01*
X126826377Y-97596808D01*
X126960441Y-97730872D01*
X127065300Y-97800936D01*
X127118085Y-97836206D01*
X127293249Y-97908762D01*
X127479197Y-97945749D01*
X127479201Y-97945750D01*
X127479202Y-97945750D01*
X128044799Y-97945750D01*
X128044800Y-97945749D01*
X128230751Y-97908762D01*
X128405915Y-97836206D01*
X128563558Y-97730872D01*
X128697622Y-97596808D01*
X128802956Y-97439165D01*
X128875512Y-97264001D01*
X128912500Y-97078048D01*
X128912500Y-96888452D01*
X128875512Y-96702499D01*
X128802956Y-96527335D01*
X128767686Y-96474550D01*
X128697622Y-96369691D01*
X128563558Y-96235627D01*
X128405912Y-96130292D01*
X128230751Y-96057738D01*
X128230743Y-96057736D01*
X128044802Y-96020750D01*
X128044798Y-96020750D01*
X127479202Y-96020750D01*
X127479197Y-96020750D01*
X127293256Y-96057736D01*
X127293248Y-96057738D01*
X127118087Y-96130292D01*
X126960441Y-96235627D01*
X126826377Y-96369691D01*
X126721042Y-96527337D01*
X126648488Y-96702498D01*
X126648486Y-96702506D01*
X126611500Y-96888447D01*
X111745583Y-96888447D01*
X112772391Y-94348447D01*
X126611500Y-94348447D01*
X126611500Y-94538052D01*
X126648486Y-94723993D01*
X126648488Y-94724001D01*
X126721042Y-94899162D01*
X126826377Y-95056808D01*
X126960441Y-95190872D01*
X126990221Y-95210770D01*
X127118085Y-95296206D01*
X127293249Y-95368762D01*
X127479197Y-95405749D01*
X127479201Y-95405750D01*
X127479202Y-95405750D01*
X128044799Y-95405750D01*
X128044800Y-95405749D01*
X128230751Y-95368762D01*
X128405915Y-95296206D01*
X128563558Y-95190872D01*
X128697622Y-95056808D01*
X128802956Y-94899165D01*
X128875512Y-94724001D01*
X128912500Y-94538048D01*
X128912500Y-94348452D01*
X128875512Y-94162499D01*
X128802956Y-93987335D01*
X128767686Y-93934550D01*
X128697622Y-93829691D01*
X128563558Y-93695627D01*
X128405912Y-93590292D01*
X128230751Y-93517738D01*
X128230743Y-93517736D01*
X128044802Y-93480750D01*
X128044798Y-93480750D01*
X127479202Y-93480750D01*
X127479197Y-93480750D01*
X127293256Y-93517736D01*
X127293248Y-93517738D01*
X127118087Y-93590292D01*
X126960441Y-93695627D01*
X126826377Y-93829691D01*
X126721042Y-93987337D01*
X126648488Y-94162498D01*
X126648486Y-94162506D01*
X126611500Y-94348447D01*
X112772391Y-94348447D01*
X113799200Y-91808447D01*
X126611500Y-91808447D01*
X126611500Y-91998052D01*
X126648486Y-92183993D01*
X126648488Y-92184001D01*
X126721042Y-92359162D01*
X126826377Y-92516808D01*
X126960441Y-92650872D01*
X127065300Y-92720936D01*
X127118085Y-92756206D01*
X127118086Y-92756206D01*
X127118087Y-92756207D01*
X127157766Y-92772642D01*
X127293249Y-92828762D01*
X127479197Y-92865749D01*
X127479201Y-92865750D01*
X127479202Y-92865750D01*
X128044799Y-92865750D01*
X128044800Y-92865749D01*
X128230751Y-92828762D01*
X128405915Y-92756206D01*
X128563558Y-92650872D01*
X128697622Y-92516808D01*
X128802956Y-92359165D01*
X128875512Y-92184001D01*
X128912500Y-91998048D01*
X128912500Y-91808452D01*
X128875512Y-91622499D01*
X128802956Y-91447335D01*
X128767686Y-91394550D01*
X128697622Y-91289691D01*
X128563558Y-91155627D01*
X128405912Y-91050292D01*
X128230751Y-90977738D01*
X128230743Y-90977736D01*
X128044802Y-90940750D01*
X128044798Y-90940750D01*
X127479202Y-90940750D01*
X127479197Y-90940750D01*
X127293256Y-90977736D01*
X127293248Y-90977738D01*
X127118087Y-91050292D01*
X126960441Y-91155627D01*
X126826377Y-91289691D01*
X126721042Y-91447337D01*
X126648488Y-91622498D01*
X126648486Y-91622506D01*
X126611500Y-91808447D01*
X113799200Y-91808447D01*
X114826008Y-89268447D01*
X126611500Y-89268447D01*
X126611500Y-89458052D01*
X126648486Y-89643993D01*
X126648488Y-89644001D01*
X126721042Y-89819162D01*
X126826377Y-89976808D01*
X126960441Y-90110872D01*
X127065300Y-90180936D01*
X127118085Y-90216206D01*
X127293249Y-90288762D01*
X127479197Y-90325749D01*
X127479201Y-90325750D01*
X127479202Y-90325750D01*
X128044799Y-90325750D01*
X128044800Y-90325749D01*
X128230751Y-90288762D01*
X128405915Y-90216206D01*
X128563558Y-90110872D01*
X128697622Y-89976808D01*
X128802956Y-89819165D01*
X128875512Y-89644001D01*
X128912500Y-89458048D01*
X128912500Y-89268452D01*
X128875512Y-89082499D01*
X128802956Y-88907335D01*
X128767686Y-88854550D01*
X128697622Y-88749691D01*
X128563558Y-88615627D01*
X128405912Y-88510292D01*
X128230751Y-88437738D01*
X128230743Y-88437736D01*
X128044802Y-88400750D01*
X128044798Y-88400750D01*
X127479202Y-88400750D01*
X127479197Y-88400750D01*
X127293256Y-88437736D01*
X127293248Y-88437738D01*
X127118087Y-88510292D01*
X126960441Y-88615627D01*
X126826377Y-88749691D01*
X126721042Y-88907337D01*
X126648488Y-89082498D01*
X126648486Y-89082506D01*
X126611500Y-89268447D01*
X114826008Y-89268447D01*
X115852817Y-86728447D01*
X126611500Y-86728447D01*
X126611500Y-86918052D01*
X126648486Y-87103993D01*
X126648488Y-87104001D01*
X126721042Y-87279162D01*
X126826377Y-87436808D01*
X126960441Y-87570872D01*
X127002224Y-87598790D01*
X127118085Y-87676206D01*
X127293249Y-87748762D01*
X127479197Y-87785749D01*
X127479201Y-87785750D01*
X127479202Y-87785750D01*
X128044799Y-87785750D01*
X128044800Y-87785749D01*
X128230751Y-87748762D01*
X128405915Y-87676206D01*
X128563558Y-87570872D01*
X128697622Y-87436808D01*
X128802956Y-87279165D01*
X128875512Y-87104001D01*
X128912500Y-86918048D01*
X128912500Y-86728452D01*
X128875512Y-86542499D01*
X128802956Y-86367335D01*
X128767686Y-86314550D01*
X128697622Y-86209691D01*
X128563558Y-86075627D01*
X128405912Y-85970292D01*
X128230751Y-85897738D01*
X128230743Y-85897736D01*
X128044802Y-85860750D01*
X128044798Y-85860750D01*
X127479202Y-85860750D01*
X127479197Y-85860750D01*
X127293256Y-85897736D01*
X127293248Y-85897738D01*
X127118087Y-85970292D01*
X126960441Y-86075627D01*
X126826377Y-86209691D01*
X126721042Y-86367337D01*
X126648488Y-86542498D01*
X126648486Y-86542506D01*
X126611500Y-86728447D01*
X115852817Y-86728447D01*
X116879625Y-84188447D01*
X126611500Y-84188447D01*
X126611500Y-84378052D01*
X126648486Y-84563993D01*
X126648488Y-84564001D01*
X126721042Y-84739162D01*
X126826377Y-84896808D01*
X126960441Y-85030872D01*
X127065300Y-85100936D01*
X127118085Y-85136206D01*
X127293249Y-85208762D01*
X127479197Y-85245749D01*
X127479201Y-85245750D01*
X127479202Y-85245750D01*
X128044799Y-85245750D01*
X128044800Y-85245749D01*
X128230751Y-85208762D01*
X128405915Y-85136206D01*
X128563558Y-85030872D01*
X128697622Y-84896808D01*
X128802956Y-84739165D01*
X128875512Y-84564001D01*
X128912500Y-84378048D01*
X128912500Y-84188452D01*
X128875512Y-84002499D01*
X128802956Y-83827335D01*
X128767686Y-83774550D01*
X128697622Y-83669691D01*
X128563558Y-83535627D01*
X128405912Y-83430292D01*
X128230751Y-83357738D01*
X128230743Y-83357736D01*
X128044802Y-83320750D01*
X128044798Y-83320750D01*
X127479202Y-83320750D01*
X127479197Y-83320750D01*
X127293256Y-83357736D01*
X127293248Y-83357738D01*
X127118087Y-83430292D01*
X126960441Y-83535627D01*
X126826377Y-83669691D01*
X126721042Y-83827337D01*
X126648488Y-84002498D01*
X126648486Y-84002506D01*
X126611500Y-84188447D01*
X116879625Y-84188447D01*
X117906434Y-81648447D01*
X126611500Y-81648447D01*
X126611500Y-81838052D01*
X126648486Y-82023993D01*
X126648488Y-82024001D01*
X126721042Y-82199162D01*
X126826377Y-82356808D01*
X126960441Y-82490872D01*
X127065300Y-82560936D01*
X127118085Y-82596206D01*
X127293249Y-82668762D01*
X127479197Y-82705749D01*
X127479201Y-82705750D01*
X127479202Y-82705750D01*
X128044799Y-82705750D01*
X128044800Y-82705749D01*
X128230751Y-82668762D01*
X128405915Y-82596206D01*
X128563558Y-82490872D01*
X128697622Y-82356808D01*
X128802956Y-82199165D01*
X128875512Y-82024001D01*
X128912500Y-81838048D01*
X128912500Y-81648452D01*
X128875512Y-81462499D01*
X128802956Y-81287335D01*
X128726058Y-81172249D01*
X128697622Y-81129691D01*
X128563558Y-80995627D01*
X128405912Y-80890292D01*
X128230751Y-80817738D01*
X128230743Y-80817736D01*
X128044802Y-80780750D01*
X128044798Y-80780750D01*
X127479202Y-80780750D01*
X127479197Y-80780750D01*
X127293256Y-80817736D01*
X127293248Y-80817738D01*
X127118087Y-80890292D01*
X126960441Y-80995627D01*
X126826377Y-81129691D01*
X126721042Y-81287337D01*
X126648488Y-81462498D01*
X126648486Y-81462506D01*
X126611500Y-81648447D01*
X117906434Y-81648447D01*
X120071681Y-76292309D01*
X127119040Y-76292309D01*
X127119040Y-76554564D01*
X127139976Y-76713577D01*
X127153270Y-76814553D01*
X127174718Y-76894598D01*
X127221142Y-77067855D01*
X127221145Y-77067865D01*
X127321493Y-77310127D01*
X127321498Y-77310137D01*
X127452615Y-77537240D01*
X127612258Y-77745288D01*
X127612266Y-77745297D01*
X127797680Y-77930711D01*
X127797688Y-77930718D01*
X128005736Y-78090361D01*
X128232839Y-78221478D01*
X128232849Y-78221483D01*
X128475111Y-78321831D01*
X128475121Y-78321835D01*
X128728424Y-78389707D01*
X128988420Y-78423937D01*
X128988427Y-78423937D01*
X129250653Y-78423937D01*
X129250660Y-78423937D01*
X129510656Y-78389707D01*
X129763959Y-78321835D01*
X130006237Y-78221480D01*
X130233343Y-78090361D01*
X130441391Y-77930719D01*
X130441395Y-77930714D01*
X130441400Y-77930711D01*
X130626814Y-77745297D01*
X130626817Y-77745292D01*
X130626822Y-77745288D01*
X130786464Y-77537240D01*
X130917583Y-77310134D01*
X131017938Y-77067856D01*
X131085810Y-76814553D01*
X131120040Y-76554557D01*
X131120040Y-76292317D01*
X131085810Y-76032321D01*
X131017938Y-75779018D01*
X130964834Y-75650813D01*
X130917586Y-75536746D01*
X130917581Y-75536736D01*
X130786464Y-75309633D01*
X130626821Y-75101585D01*
X130626814Y-75101577D01*
X130441400Y-74916163D01*
X130441391Y-74916155D01*
X130233343Y-74756512D01*
X130006240Y-74625395D01*
X130006230Y-74625390D01*
X129763968Y-74525042D01*
X129763961Y-74525040D01*
X129763959Y-74525039D01*
X129510656Y-74457167D01*
X129452879Y-74449560D01*
X129250667Y-74422937D01*
X129250660Y-74422937D01*
X128988420Y-74422937D01*
X128988412Y-74422937D01*
X128757312Y-74453363D01*
X128728424Y-74457167D01*
X128475121Y-74525039D01*
X128475111Y-74525042D01*
X128232849Y-74625390D01*
X128232839Y-74625395D01*
X128005736Y-74756512D01*
X127797688Y-74916155D01*
X127612258Y-75101585D01*
X127452615Y-75309633D01*
X127321498Y-75536736D01*
X127321493Y-75536746D01*
X127221145Y-75779008D01*
X127221142Y-75779018D01*
X127182657Y-75922649D01*
X127153270Y-76032322D01*
X127119040Y-76292309D01*
X120071681Y-76292309D01*
X126214170Y-61097730D01*
X142076500Y-61097730D01*
X142076500Y-61706269D01*
X142079353Y-61736699D01*
X142079353Y-61736701D01*
X142118002Y-61847150D01*
X142124207Y-61864882D01*
X142204850Y-61974150D01*
X142314118Y-62054793D01*
X142356845Y-62069744D01*
X142442299Y-62099646D01*
X142472730Y-62102500D01*
X142472734Y-62102500D01*
X142577500Y-62102500D01*
X142644539Y-62122185D01*
X142690294Y-62174989D01*
X142701500Y-62226500D01*
X142701500Y-65523640D01*
X142681815Y-65590679D01*
X142629011Y-65636434D01*
X142610842Y-65641911D01*
X142610981Y-65642337D01*
X142601699Y-65645352D01*
X142546297Y-65673580D01*
X142488658Y-65702950D01*
X142488657Y-65702951D01*
X142488652Y-65702954D01*
X142398954Y-65792652D01*
X142398951Y-65792657D01*
X142341352Y-65905698D01*
X142326500Y-65999475D01*
X142326500Y-66462517D01*
X142337292Y-66530657D01*
X142341354Y-66556304D01*
X142398950Y-66669342D01*
X142398952Y-66669344D01*
X142398954Y-66669347D01*
X142488652Y-66759045D01*
X142488654Y-66759046D01*
X142488658Y-66759050D01*
X142601694Y-66816645D01*
X142601698Y-66816647D01*
X142695475Y-66831499D01*
X142695481Y-66831500D01*
X143308518Y-66831499D01*
X143402304Y-66816646D01*
X143515342Y-66759050D01*
X143605050Y-66669342D01*
X143662646Y-66556304D01*
X143662646Y-66556302D01*
X143662647Y-66556301D01*
X143677499Y-66462524D01*
X143677500Y-66462519D01*
X143677499Y-65999482D01*
X143662646Y-65905696D01*
X143605050Y-65792658D01*
X143605046Y-65792654D01*
X143605045Y-65792652D01*
X143515347Y-65702954D01*
X143515344Y-65702952D01*
X143515342Y-65702950D01*
X143438517Y-65663805D01*
X143402301Y-65645352D01*
X143393020Y-65642337D01*
X143393836Y-65639825D01*
X143343963Y-65616180D01*
X143307034Y-65556866D01*
X143302500Y-65523640D01*
X143302500Y-62226500D01*
X143322185Y-62159461D01*
X143374989Y-62113706D01*
X143426500Y-62102500D01*
X143531270Y-62102500D01*
X143561699Y-62099646D01*
X143561701Y-62099646D01*
X143625790Y-62077219D01*
X143689882Y-62054793D01*
X143799150Y-61974150D01*
X143879793Y-61864882D01*
X143902219Y-61800790D01*
X143924646Y-61736701D01*
X143924646Y-61736699D01*
X143927500Y-61706269D01*
X143927500Y-61097730D01*
X143924646Y-61067303D01*
X143924646Y-61067301D01*
X143890854Y-60970730D01*
X152048500Y-60970730D01*
X152048500Y-61579269D01*
X152051353Y-61609699D01*
X152051353Y-61609701D01*
X152096206Y-61737880D01*
X152096207Y-61737882D01*
X152176850Y-61847150D01*
X152286118Y-61927793D01*
X152328845Y-61942744D01*
X152414299Y-61972646D01*
X152444730Y-61975500D01*
X152444734Y-61975500D01*
X152549500Y-61975500D01*
X152616539Y-61995185D01*
X152662294Y-62047989D01*
X152673500Y-62099500D01*
X152673500Y-65753745D01*
X152653815Y-65820784D01*
X152637181Y-65841426D01*
X152558954Y-65919652D01*
X152558951Y-65919657D01*
X152501352Y-66032698D01*
X152486500Y-66126475D01*
X152486500Y-66589517D01*
X152497292Y-66657657D01*
X152501354Y-66683304D01*
X152558950Y-66796342D01*
X152558952Y-66796344D01*
X152558954Y-66796347D01*
X152648652Y-66886045D01*
X152648654Y-66886046D01*
X152648658Y-66886050D01*
X152761694Y-66943645D01*
X152761698Y-66943647D01*
X152855475Y-66958499D01*
X152855481Y-66958500D01*
X153468518Y-66958499D01*
X153562304Y-66943646D01*
X153675342Y-66886050D01*
X153765050Y-66796342D01*
X153822646Y-66683304D01*
X153822646Y-66683302D01*
X153822647Y-66683301D01*
X153837499Y-66589524D01*
X153837500Y-66589519D01*
X153837499Y-66126482D01*
X153822646Y-66032696D01*
X153765050Y-65919658D01*
X153765046Y-65919654D01*
X153765045Y-65919652D01*
X153675347Y-65829954D01*
X153675344Y-65829952D01*
X153675342Y-65829950D01*
X153598517Y-65790805D01*
X153562301Y-65772352D01*
X153468524Y-65757500D01*
X153468519Y-65757500D01*
X153398500Y-65757500D01*
X153331461Y-65737815D01*
X153285706Y-65685011D01*
X153274500Y-65633500D01*
X153274500Y-62099500D01*
X153294185Y-62032461D01*
X153346989Y-61986706D01*
X153398500Y-61975500D01*
X153503270Y-61975500D01*
X153533699Y-61972646D01*
X153533701Y-61972646D01*
X153597790Y-61950219D01*
X153661882Y-61927793D01*
X153771150Y-61847150D01*
X153851793Y-61737882D01*
X153874219Y-61673790D01*
X153896646Y-61609701D01*
X153896646Y-61609699D01*
X153899500Y-61579269D01*
X153899500Y-60970730D01*
X153896646Y-60940300D01*
X153896646Y-60940298D01*
X153851793Y-60812119D01*
X153851792Y-60812117D01*
X153771150Y-60702850D01*
X153661882Y-60622207D01*
X153661880Y-60622206D01*
X153533700Y-60577353D01*
X153503270Y-60574500D01*
X153503266Y-60574500D01*
X152444734Y-60574500D01*
X152444730Y-60574500D01*
X152414300Y-60577353D01*
X152414298Y-60577353D01*
X152286119Y-60622206D01*
X152286117Y-60622207D01*
X152176850Y-60702850D01*
X152096207Y-60812117D01*
X152096206Y-60812119D01*
X152051353Y-60940298D01*
X152051353Y-60940300D01*
X152048500Y-60970730D01*
X143890854Y-60970730D01*
X143879793Y-60939118D01*
X143799150Y-60829850D01*
X143689882Y-60749207D01*
X143689880Y-60749206D01*
X143561700Y-60704353D01*
X143531270Y-60701500D01*
X143531266Y-60701500D01*
X142472734Y-60701500D01*
X142472730Y-60701500D01*
X142442300Y-60704353D01*
X142442298Y-60704353D01*
X142314119Y-60749206D01*
X142314117Y-60749207D01*
X142204850Y-60829850D01*
X142124207Y-60939117D01*
X142124206Y-60939119D01*
X142079353Y-61067298D01*
X142079353Y-61067300D01*
X142076500Y-61097730D01*
X126214170Y-61097730D01*
X128593918Y-55210986D01*
X128609392Y-55184186D01*
X128618511Y-55150152D01*
X128631714Y-55117493D01*
X128634433Y-55095375D01*
X128637732Y-55078416D01*
X128641461Y-55064500D01*
X128643500Y-55056892D01*
X128643500Y-55029263D01*
X128644427Y-55014126D01*
X128647801Y-54986694D01*
X128644703Y-54964617D01*
X128643500Y-54947386D01*
X128643500Y-54007197D01*
X139499500Y-54007197D01*
X139499500Y-54196802D01*
X139536486Y-54382743D01*
X139536488Y-54382751D01*
X139609042Y-54557912D01*
X139714377Y-54715558D01*
X139848438Y-54849619D01*
X139848442Y-54849622D01*
X140006078Y-54954952D01*
X140006091Y-54954959D01*
X140084952Y-54987624D01*
X140139356Y-55031465D01*
X140161421Y-55097759D01*
X140161500Y-55102185D01*
X140161500Y-57001562D01*
X140175152Y-57052513D01*
X140181979Y-57077990D01*
X140181982Y-57077995D01*
X140221535Y-57146504D01*
X140221541Y-57146512D01*
X142066505Y-58991476D01*
X142099990Y-59052799D01*
X142095866Y-59120110D01*
X142079354Y-59167298D01*
X142079353Y-59167305D01*
X142076500Y-59197730D01*
X142076500Y-59806269D01*
X142079353Y-59836699D01*
X142079353Y-59836701D01*
X142118002Y-59947150D01*
X142124207Y-59964882D01*
X142204850Y-60074150D01*
X142314118Y-60154793D01*
X142356845Y-60169744D01*
X142442299Y-60199646D01*
X142472730Y-60202500D01*
X142472734Y-60202500D01*
X143531270Y-60202500D01*
X143561699Y-60199646D01*
X143561701Y-60199646D01*
X143625790Y-60177219D01*
X143689882Y-60154793D01*
X143799150Y-60074150D01*
X143879793Y-59964882D01*
X143902219Y-59900790D01*
X143924646Y-59836701D01*
X143924646Y-59836699D01*
X143927500Y-59806269D01*
X143927500Y-59197730D01*
X143924646Y-59167300D01*
X143924646Y-59167298D01*
X143884580Y-59052799D01*
X143879793Y-59039118D01*
X143799150Y-58929850D01*
X143689882Y-58849207D01*
X143689880Y-58849206D01*
X143561700Y-58804353D01*
X143531270Y-58801500D01*
X143531266Y-58801500D01*
X142777833Y-58801500D01*
X142710794Y-58781815D01*
X142690152Y-58765181D01*
X140798819Y-56873848D01*
X140765334Y-56812525D01*
X140762500Y-56786167D01*
X140762500Y-55102185D01*
X140782185Y-55035146D01*
X140834989Y-54989391D01*
X140839048Y-54987624D01*
X140917908Y-54954959D01*
X140917908Y-54954958D01*
X140917915Y-54954956D01*
X141075558Y-54849622D01*
X141209622Y-54715558D01*
X141314956Y-54557915D01*
X141387512Y-54382751D01*
X141424500Y-54196798D01*
X141424500Y-54007202D01*
X141424500Y-54007199D01*
X141423601Y-54002678D01*
X141740000Y-54002678D01*
X141740000Y-54201321D01*
X141771075Y-54397520D01*
X141771075Y-54397523D01*
X141832457Y-54586437D01*
X141922641Y-54763432D01*
X141949730Y-54800715D01*
X141949731Y-54800716D01*
X142621000Y-54129447D01*
X142621000Y-54152160D01*
X142646964Y-54249061D01*
X142697124Y-54335940D01*
X142768060Y-54406876D01*
X142854939Y-54457036D01*
X142951840Y-54483000D01*
X142974553Y-54483000D01*
X142303283Y-55154268D01*
X142303283Y-55154269D01*
X142340567Y-55181358D01*
X142517562Y-55271542D01*
X142706477Y-55332924D01*
X142902679Y-55364000D01*
X143101321Y-55364000D01*
X143297520Y-55332924D01*
X143297523Y-55332924D01*
X143486437Y-55271542D01*
X143663425Y-55181362D01*
X143700716Y-55154268D01*
X143029448Y-54483000D01*
X143052160Y-54483000D01*
X143149061Y-54457036D01*
X143235940Y-54406876D01*
X143306876Y-54335940D01*
X143357036Y-54249061D01*
X143383000Y-54152160D01*
X143383000Y-54129447D01*
X144054268Y-54800715D01*
X144081362Y-54763425D01*
X144171542Y-54586437D01*
X144232924Y-54397523D01*
X144232924Y-54397520D01*
X144264000Y-54201321D01*
X144264000Y-54007197D01*
X144579500Y-54007197D01*
X144579500Y-54196802D01*
X144616486Y-54382743D01*
X144616488Y-54382751D01*
X144689042Y-54557912D01*
X144794377Y-54715558D01*
X144928441Y-54849622D01*
X145033300Y-54919686D01*
X145086085Y-54954956D01*
X145086086Y-54954956D01*
X145086087Y-54954957D01*
X145109408Y-54964617D01*
X145261249Y-55027512D01*
X145408949Y-55056891D01*
X145447197Y-55064499D01*
X145447201Y-55064500D01*
X145447202Y-55064500D01*
X145636799Y-55064500D01*
X145636800Y-55064499D01*
X145822751Y-55027512D01*
X145997915Y-54954956D01*
X146155558Y-54849622D01*
X146289622Y-54715558D01*
X146394956Y-54557915D01*
X146409627Y-54522495D01*
X146427625Y-54479047D01*
X146471467Y-54424643D01*
X146537761Y-54402579D01*
X146542186Y-54402500D01*
X147525167Y-54402500D01*
X147592206Y-54422185D01*
X147612848Y-54438819D01*
X152038505Y-58864476D01*
X152071990Y-58925799D01*
X152067866Y-58993110D01*
X152051354Y-59040298D01*
X152051353Y-59040305D01*
X152048500Y-59070730D01*
X152048500Y-59679269D01*
X152051353Y-59709699D01*
X152051353Y-59709701D01*
X152096206Y-59837880D01*
X152096207Y-59837882D01*
X152176850Y-59947150D01*
X152286118Y-60027793D01*
X152328845Y-60042744D01*
X152414299Y-60072646D01*
X152444730Y-60075500D01*
X152444734Y-60075500D01*
X153503270Y-60075500D01*
X153533699Y-60072646D01*
X153533701Y-60072646D01*
X153597790Y-60050219D01*
X153661882Y-60027793D01*
X153771150Y-59947150D01*
X153851793Y-59837882D01*
X153895392Y-59713284D01*
X153896646Y-59709701D01*
X153896646Y-59709699D01*
X153899500Y-59679269D01*
X153899500Y-59070730D01*
X153896646Y-59040300D01*
X153896646Y-59040298D01*
X153856580Y-58925799D01*
X153851793Y-58912118D01*
X153771150Y-58802850D01*
X153661882Y-58722207D01*
X153661880Y-58722206D01*
X153533700Y-58677353D01*
X153503270Y-58674500D01*
X153503266Y-58674500D01*
X152749833Y-58674500D01*
X152682794Y-58654815D01*
X152662152Y-58638181D01*
X147885512Y-53861541D01*
X147885504Y-53861535D01*
X147816995Y-53821982D01*
X147816990Y-53821979D01*
X147791513Y-53815152D01*
X147740562Y-53801500D01*
X147740560Y-53801500D01*
X146542186Y-53801500D01*
X146475147Y-53781815D01*
X146429392Y-53729011D01*
X146427625Y-53724953D01*
X146394957Y-53646087D01*
X146289622Y-53488441D01*
X146155558Y-53354377D01*
X145997912Y-53249042D01*
X145822751Y-53176488D01*
X145822743Y-53176486D01*
X145636802Y-53139500D01*
X145636798Y-53139500D01*
X145447202Y-53139500D01*
X145447197Y-53139500D01*
X145261256Y-53176486D01*
X145261248Y-53176488D01*
X145086087Y-53249042D01*
X144928441Y-53354377D01*
X144794377Y-53488441D01*
X144689042Y-53646087D01*
X144616488Y-53821248D01*
X144616486Y-53821256D01*
X144579500Y-54007197D01*
X144264000Y-54007197D01*
X144264000Y-54002678D01*
X144232924Y-53806479D01*
X144232924Y-53806476D01*
X144171542Y-53617562D01*
X144081358Y-53440567D01*
X144054268Y-53403283D01*
X143383000Y-54074551D01*
X143383000Y-54051840D01*
X143357036Y-53954939D01*
X143306876Y-53868060D01*
X143235940Y-53797124D01*
X143149061Y-53746964D01*
X143052160Y-53721000D01*
X143029447Y-53721000D01*
X143700716Y-53049731D01*
X143700715Y-53049730D01*
X143663432Y-53022641D01*
X143486437Y-52932457D01*
X143297522Y-52871075D01*
X143101321Y-52840000D01*
X142902679Y-52840000D01*
X142706479Y-52871075D01*
X142706476Y-52871075D01*
X142517562Y-52932457D01*
X142340564Y-53022643D01*
X142303283Y-53049729D01*
X142303282Y-53049730D01*
X142974554Y-53721000D01*
X142951840Y-53721000D01*
X142854939Y-53746964D01*
X142768060Y-53797124D01*
X142697124Y-53868060D01*
X142646964Y-53954939D01*
X142621000Y-54051840D01*
X142621000Y-54074552D01*
X141949730Y-53403282D01*
X141949729Y-53403283D01*
X141922643Y-53440564D01*
X141832457Y-53617562D01*
X141771075Y-53806476D01*
X141771075Y-53806479D01*
X141740000Y-54002678D01*
X141423601Y-54002678D01*
X141396823Y-53868060D01*
X141387512Y-53821249D01*
X141314956Y-53646085D01*
X141279686Y-53593300D01*
X141209622Y-53488441D01*
X141075558Y-53354377D01*
X140917912Y-53249042D01*
X140827400Y-53211551D01*
X140742751Y-53176488D01*
X140742743Y-53176486D01*
X140556802Y-53139500D01*
X140556798Y-53139500D01*
X140367202Y-53139500D01*
X140367197Y-53139500D01*
X140181256Y-53176486D01*
X140181248Y-53176488D01*
X140006087Y-53249042D01*
X139848441Y-53354377D01*
X139714377Y-53488441D01*
X139609042Y-53646087D01*
X139536488Y-53821248D01*
X139536486Y-53821256D01*
X139499500Y-54007197D01*
X128643500Y-54007197D01*
X128643500Y-27619747D01*
X136786000Y-27619747D01*
X136786000Y-29359252D01*
X136797631Y-29417729D01*
X136797632Y-29417730D01*
X136841947Y-29484052D01*
X136908269Y-29528367D01*
X136908270Y-29528368D01*
X136966747Y-29539999D01*
X136966750Y-29540000D01*
X136966752Y-29540000D01*
X137412000Y-29540000D01*
X137479039Y-29559685D01*
X137524794Y-29612489D01*
X137536000Y-29664000D01*
X137536000Y-32466062D01*
X137549652Y-32517013D01*
X137556479Y-32542490D01*
X137556482Y-32542495D01*
X137596035Y-32611004D01*
X137596041Y-32611012D01*
X139542276Y-34557247D01*
X139575761Y-34618570D01*
X139570777Y-34688262D01*
X139569156Y-34692380D01*
X139536489Y-34771244D01*
X139536486Y-34771256D01*
X139499500Y-34957197D01*
X139499500Y-35146802D01*
X139536486Y-35332743D01*
X139536488Y-35332751D01*
X139609042Y-35507912D01*
X139714377Y-35665558D01*
X139848441Y-35799622D01*
X139953300Y-35869686D01*
X140006085Y-35904956D01*
X140181249Y-35977512D01*
X140367197Y-36014499D01*
X140367201Y-36014500D01*
X140367202Y-36014500D01*
X140556799Y-36014500D01*
X140556800Y-36014499D01*
X140742751Y-35977512D01*
X140917915Y-35904956D01*
X141075558Y-35799622D01*
X141209622Y-35665558D01*
X141314956Y-35507915D01*
X141387512Y-35332751D01*
X141424500Y-35146798D01*
X141424500Y-34957202D01*
X141424499Y-34957197D01*
X142039500Y-34957197D01*
X142039500Y-35146802D01*
X142076486Y-35332743D01*
X142076488Y-35332751D01*
X142149042Y-35507912D01*
X142254377Y-35665558D01*
X142388441Y-35799622D01*
X142493300Y-35869686D01*
X142546085Y-35904956D01*
X142721249Y-35977512D01*
X142907197Y-36014499D01*
X142907201Y-36014500D01*
X142907202Y-36014500D01*
X143096799Y-36014500D01*
X143096800Y-36014499D01*
X143282751Y-35977512D01*
X143457915Y-35904956D01*
X143615558Y-35799622D01*
X143749622Y-35665558D01*
X143854956Y-35507915D01*
X143927512Y-35332751D01*
X143964500Y-35146798D01*
X143964500Y-34957202D01*
X143927512Y-34771249D01*
X143854956Y-34596085D01*
X143819686Y-34543300D01*
X143749622Y-34438441D01*
X143615558Y-34304377D01*
X143457912Y-34199042D01*
X143379047Y-34166375D01*
X143324643Y-34122533D01*
X143302579Y-34056239D01*
X143302500Y-34051814D01*
X143302500Y-30801583D01*
X143322185Y-30734544D01*
X143338819Y-30713902D01*
X144219152Y-29833569D01*
X144280475Y-29800084D01*
X144306833Y-29797250D01*
X145750750Y-29797250D01*
X145750751Y-29797249D01*
X145765568Y-29794302D01*
X145809229Y-29785618D01*
X145809229Y-29785617D01*
X145809231Y-29785617D01*
X145875552Y-29741302D01*
X145919867Y-29674981D01*
X145919867Y-29674979D01*
X145919868Y-29674979D01*
X145931499Y-29616502D01*
X145931500Y-29616500D01*
X145931500Y-27876999D01*
X145931499Y-27876997D01*
X150714500Y-27876997D01*
X150714500Y-29616502D01*
X150726131Y-29674979D01*
X150726132Y-29674980D01*
X150770447Y-29741302D01*
X150836769Y-29785617D01*
X150836770Y-29785618D01*
X150895247Y-29797249D01*
X150895250Y-29797250D01*
X150895252Y-29797250D01*
X152339167Y-29797250D01*
X152406206Y-29816935D01*
X152426848Y-29833569D01*
X152825181Y-30231902D01*
X152858666Y-30293225D01*
X152861500Y-30319583D01*
X152861500Y-34051814D01*
X152841815Y-34118853D01*
X152789011Y-34164608D01*
X152784953Y-34166375D01*
X152706087Y-34199042D01*
X152548441Y-34304377D01*
X152414377Y-34438441D01*
X152309042Y-34596087D01*
X152236488Y-34771248D01*
X152236486Y-34771256D01*
X152199500Y-34957197D01*
X152199500Y-35146802D01*
X152236486Y-35332743D01*
X152236488Y-35332751D01*
X152309042Y-35507912D01*
X152414377Y-35665558D01*
X152548441Y-35799622D01*
X152653300Y-35869686D01*
X152706085Y-35904956D01*
X152881249Y-35977512D01*
X153067197Y-36014499D01*
X153067201Y-36014500D01*
X153067202Y-36014500D01*
X153256799Y-36014500D01*
X153256800Y-36014499D01*
X153442751Y-35977512D01*
X153617915Y-35904956D01*
X153775558Y-35799622D01*
X153909622Y-35665558D01*
X154014956Y-35507915D01*
X154087512Y-35332751D01*
X154124500Y-35146798D01*
X154124500Y-34957202D01*
X154124499Y-34957197D01*
X154739500Y-34957197D01*
X154739500Y-35146802D01*
X154776486Y-35332743D01*
X154776488Y-35332751D01*
X154849042Y-35507912D01*
X154954377Y-35665558D01*
X155088441Y-35799622D01*
X155193300Y-35869686D01*
X155246085Y-35904956D01*
X155421249Y-35977512D01*
X155607197Y-36014499D01*
X155607201Y-36014500D01*
X155607202Y-36014500D01*
X155796799Y-36014500D01*
X155796800Y-36014499D01*
X155982751Y-35977512D01*
X156157915Y-35904956D01*
X156315558Y-35799622D01*
X156449622Y-35665558D01*
X156554956Y-35507915D01*
X156627512Y-35332751D01*
X156664500Y-35146798D01*
X156664500Y-34957202D01*
X156627512Y-34771249D01*
X156554956Y-34596085D01*
X156519686Y-34543300D01*
X156449622Y-34438441D01*
X156315558Y-34304377D01*
X156157912Y-34199042D01*
X156079047Y-34166375D01*
X156024643Y-34122533D01*
X156002579Y-34056239D01*
X156002500Y-34051814D01*
X156002500Y-32306833D01*
X156022185Y-32239794D01*
X156038819Y-32219152D01*
X158215152Y-30042819D01*
X158276475Y-30009334D01*
X158302833Y-30006500D01*
X159746750Y-30006500D01*
X159746751Y-30006499D01*
X159761568Y-30003552D01*
X159805229Y-29994868D01*
X159805229Y-29994867D01*
X159805231Y-29994867D01*
X159871552Y-29950552D01*
X159915867Y-29884231D01*
X159915867Y-29884229D01*
X159915868Y-29884229D01*
X159927499Y-29825752D01*
X159927500Y-29825750D01*
X159927500Y-28086249D01*
X159927499Y-28086247D01*
X159915868Y-28027770D01*
X159915867Y-28027769D01*
X159871552Y-27961447D01*
X159805230Y-27917132D01*
X159805229Y-27917131D01*
X159746752Y-27905500D01*
X159746748Y-27905500D01*
X158007252Y-27905500D01*
X158007247Y-27905500D01*
X157948770Y-27917131D01*
X157948769Y-27917132D01*
X157882447Y-27961447D01*
X157838132Y-28027769D01*
X157838131Y-28027770D01*
X157826500Y-28086247D01*
X157826500Y-29530167D01*
X157806815Y-29597206D01*
X157790181Y-29617848D01*
X155461541Y-31946487D01*
X155461535Y-31946495D01*
X155421982Y-32015004D01*
X155421979Y-32015009D01*
X155401500Y-32091439D01*
X155401500Y-34051814D01*
X155381815Y-34118853D01*
X155329011Y-34164608D01*
X155324953Y-34166375D01*
X155246087Y-34199042D01*
X155088441Y-34304377D01*
X154954377Y-34438441D01*
X154849042Y-34596087D01*
X154776488Y-34771248D01*
X154776486Y-34771256D01*
X154739500Y-34957197D01*
X154124499Y-34957197D01*
X154087512Y-34771249D01*
X154014956Y-34596085D01*
X153979686Y-34543300D01*
X153909622Y-34438441D01*
X153775558Y-34304377D01*
X153617912Y-34199042D01*
X153539047Y-34166375D01*
X153484643Y-34122533D01*
X153462579Y-34056239D01*
X153462500Y-34051814D01*
X153462500Y-30104189D01*
X153462500Y-30104188D01*
X153442021Y-30027761D01*
X153429746Y-30006500D01*
X153402464Y-29959245D01*
X153402458Y-29959237D01*
X152851819Y-29408598D01*
X152818334Y-29347275D01*
X152815500Y-29320917D01*
X152815500Y-27876999D01*
X152815499Y-27876997D01*
X152803868Y-27818520D01*
X152803867Y-27818519D01*
X152759552Y-27752197D01*
X152693230Y-27707882D01*
X152693229Y-27707881D01*
X152634752Y-27696250D01*
X152634748Y-27696250D01*
X150895252Y-27696250D01*
X150895247Y-27696250D01*
X150836770Y-27707881D01*
X150836769Y-27707882D01*
X150770447Y-27752197D01*
X150726132Y-27818519D01*
X150726131Y-27818520D01*
X150714500Y-27876997D01*
X145931499Y-27876997D01*
X145919868Y-27818520D01*
X145919867Y-27818519D01*
X145875552Y-27752197D01*
X145809230Y-27707882D01*
X145809229Y-27707881D01*
X145750752Y-27696250D01*
X145750748Y-27696250D01*
X144011252Y-27696250D01*
X144011247Y-27696250D01*
X143952770Y-27707881D01*
X143952769Y-27707882D01*
X143886447Y-27752197D01*
X143842132Y-27818519D01*
X143842131Y-27818520D01*
X143830500Y-27876997D01*
X143830500Y-29320917D01*
X143810815Y-29387956D01*
X143794181Y-29408598D01*
X142761541Y-30441237D01*
X142761535Y-30441245D01*
X142721982Y-30509754D01*
X142721979Y-30509759D01*
X142701500Y-30586189D01*
X142701500Y-34051814D01*
X142681815Y-34118853D01*
X142629011Y-34164608D01*
X142624953Y-34166375D01*
X142546087Y-34199042D01*
X142388441Y-34304377D01*
X142254377Y-34438441D01*
X142149042Y-34596087D01*
X142076488Y-34771248D01*
X142076486Y-34771256D01*
X142039500Y-34957197D01*
X141424499Y-34957197D01*
X141387512Y-34771249D01*
X141314956Y-34596085D01*
X141279686Y-34543300D01*
X141209622Y-34438441D01*
X141075558Y-34304377D01*
X140917912Y-34199042D01*
X140742751Y-34126488D01*
X140742743Y-34126486D01*
X140556802Y-34089500D01*
X140556798Y-34089500D01*
X140367202Y-34089500D01*
X140367197Y-34089500D01*
X140181256Y-34126486D01*
X140181244Y-34126489D01*
X140102380Y-34159156D01*
X140032911Y-34166625D01*
X139970432Y-34135350D01*
X139967247Y-34132276D01*
X138173319Y-32338348D01*
X138139834Y-32277025D01*
X138137000Y-32250667D01*
X138137000Y-29664000D01*
X138156685Y-29596961D01*
X138209489Y-29551206D01*
X138261000Y-29540000D01*
X138706250Y-29540000D01*
X138706251Y-29539999D01*
X138721068Y-29537052D01*
X138764729Y-29528368D01*
X138764729Y-29528367D01*
X138764731Y-29528367D01*
X138831052Y-29484052D01*
X138875367Y-29417731D01*
X138875367Y-29417729D01*
X138875368Y-29417729D01*
X138886999Y-29359252D01*
X138887000Y-29359250D01*
X138887000Y-27619749D01*
X138886999Y-27619747D01*
X138875368Y-27561270D01*
X138875367Y-27561269D01*
X138831052Y-27494947D01*
X138764730Y-27450632D01*
X138764729Y-27450631D01*
X138706252Y-27439000D01*
X138706248Y-27439000D01*
X136966752Y-27439000D01*
X136966747Y-27439000D01*
X136908270Y-27450631D01*
X136908269Y-27450632D01*
X136841947Y-27494947D01*
X136797632Y-27561269D01*
X136797631Y-27561270D01*
X136786000Y-27619747D01*
X128643500Y-27619747D01*
X128643500Y-25897500D01*
X128663185Y-25830461D01*
X128715989Y-25784706D01*
X128767500Y-25773500D01*
X171335069Y-25773500D01*
X171402108Y-25793185D01*
G37*
%TD.AperFunction*%
%TD*%
M02*
