%TF.GenerationSoftware,KiCad,Pcbnew,9.0.6*%
%TF.CreationDate,2026-03-26T22:56:50-06:00*%
%TF.ProjectId,Asistente,41736973-7465-46e7-9465-2e6b69636164,rev?*%
%TF.SameCoordinates,Original*%
%TF.FileFunction,Legend,Top*%
%TF.FilePolarity,Positive*%
%FSLAX46Y46*%
G04 Gerber Fmt 4.6, Leading zero omitted, Abs format (unit mm)*
G04 Created by KiCad (PCBNEW 9.0.6) date 2026-03-26 22:56:50*
%MOMM*%
%LPD*%
G01*
G04 APERTURE LIST*
%ADD10C,0.150000*%
%ADD11C,0.100000*%
%ADD12C,0.120000*%
%ADD13C,0.200000*%
G04 APERTURE END LIST*
D10*
X163647619Y-121628819D02*
X163838095Y-121628819D01*
X163838095Y-121628819D02*
X163933333Y-121676438D01*
X163933333Y-121676438D02*
X164028571Y-121771676D01*
X164028571Y-121771676D02*
X164076190Y-121962152D01*
X164076190Y-121962152D02*
X164076190Y-122295485D01*
X164076190Y-122295485D02*
X164028571Y-122485961D01*
X164028571Y-122485961D02*
X163933333Y-122581200D01*
X163933333Y-122581200D02*
X163838095Y-122628819D01*
X163838095Y-122628819D02*
X163647619Y-122628819D01*
X163647619Y-122628819D02*
X163552381Y-122581200D01*
X163552381Y-122581200D02*
X163457143Y-122485961D01*
X163457143Y-122485961D02*
X163409524Y-122295485D01*
X163409524Y-122295485D02*
X163409524Y-121962152D01*
X163409524Y-121962152D02*
X163457143Y-121771676D01*
X163457143Y-121771676D02*
X163552381Y-121676438D01*
X163552381Y-121676438D02*
X163647619Y-121628819D01*
X164980952Y-122628819D02*
X164504762Y-122628819D01*
X164504762Y-122628819D02*
X164504762Y-121628819D01*
X165314286Y-122105009D02*
X165647619Y-122105009D01*
X165790476Y-122628819D02*
X165314286Y-122628819D01*
X165314286Y-122628819D02*
X165314286Y-121628819D01*
X165314286Y-121628819D02*
X165790476Y-121628819D01*
X166219048Y-122628819D02*
X166219048Y-121628819D01*
X166219048Y-121628819D02*
X166457143Y-121628819D01*
X166457143Y-121628819D02*
X166600000Y-121676438D01*
X166600000Y-121676438D02*
X166695238Y-121771676D01*
X166695238Y-121771676D02*
X166742857Y-121866914D01*
X166742857Y-121866914D02*
X166790476Y-122057390D01*
X166790476Y-122057390D02*
X166790476Y-122200247D01*
X166790476Y-122200247D02*
X166742857Y-122390723D01*
X166742857Y-122390723D02*
X166695238Y-122485961D01*
X166695238Y-122485961D02*
X166600000Y-122581200D01*
X166600000Y-122581200D02*
X166457143Y-122628819D01*
X166457143Y-122628819D02*
X166219048Y-122628819D01*
X164155572Y-72717819D02*
X164155572Y-71717819D01*
X164155572Y-71717819D02*
X164488905Y-72432104D01*
X164488905Y-72432104D02*
X164822238Y-71717819D01*
X164822238Y-71717819D02*
X164822238Y-72717819D01*
X165298429Y-72717819D02*
X165298429Y-71717819D01*
X166346047Y-72622580D02*
X166298428Y-72670200D01*
X166298428Y-72670200D02*
X166155571Y-72717819D01*
X166155571Y-72717819D02*
X166060333Y-72717819D01*
X166060333Y-72717819D02*
X165917476Y-72670200D01*
X165917476Y-72670200D02*
X165822238Y-72574961D01*
X165822238Y-72574961D02*
X165774619Y-72479723D01*
X165774619Y-72479723D02*
X165727000Y-72289247D01*
X165727000Y-72289247D02*
X165727000Y-72146390D01*
X165727000Y-72146390D02*
X165774619Y-71955914D01*
X165774619Y-71955914D02*
X165822238Y-71860676D01*
X165822238Y-71860676D02*
X165917476Y-71765438D01*
X165917476Y-71765438D02*
X166060333Y-71717819D01*
X166060333Y-71717819D02*
X166155571Y-71717819D01*
X166155571Y-71717819D02*
X166298428Y-71765438D01*
X166298428Y-71765438D02*
X166346047Y-71813057D01*
X162679381Y-74338438D02*
X162584143Y-74290819D01*
X162584143Y-74290819D02*
X162441286Y-74290819D01*
X162441286Y-74290819D02*
X162298429Y-74338438D01*
X162298429Y-74338438D02*
X162203191Y-74433676D01*
X162203191Y-74433676D02*
X162155572Y-74528914D01*
X162155572Y-74528914D02*
X162107953Y-74719390D01*
X162107953Y-74719390D02*
X162107953Y-74862247D01*
X162107953Y-74862247D02*
X162155572Y-75052723D01*
X162155572Y-75052723D02*
X162203191Y-75147961D01*
X162203191Y-75147961D02*
X162298429Y-75243200D01*
X162298429Y-75243200D02*
X162441286Y-75290819D01*
X162441286Y-75290819D02*
X162536524Y-75290819D01*
X162536524Y-75290819D02*
X162679381Y-75243200D01*
X162679381Y-75243200D02*
X162727000Y-75195580D01*
X162727000Y-75195580D02*
X162727000Y-74862247D01*
X162727000Y-74862247D02*
X162536524Y-74862247D01*
X163155572Y-75290819D02*
X163155572Y-74290819D01*
X163155572Y-74290819D02*
X163727000Y-75290819D01*
X163727000Y-75290819D02*
X163727000Y-74290819D01*
X164203191Y-75290819D02*
X164203191Y-74290819D01*
X164203191Y-74290819D02*
X164441286Y-74290819D01*
X164441286Y-74290819D02*
X164584143Y-74338438D01*
X164584143Y-74338438D02*
X164679381Y-74433676D01*
X164679381Y-74433676D02*
X164727000Y-74528914D01*
X164727000Y-74528914D02*
X164774619Y-74719390D01*
X164774619Y-74719390D02*
X164774619Y-74862247D01*
X164774619Y-74862247D02*
X164727000Y-75052723D01*
X164727000Y-75052723D02*
X164679381Y-75147961D01*
X164679381Y-75147961D02*
X164584143Y-75243200D01*
X164584143Y-75243200D02*
X164441286Y-75290819D01*
X164441286Y-75290819D02*
X164203191Y-75290819D01*
X165203191Y-75290819D02*
X165203191Y-74290819D01*
X165203191Y-74290819D02*
X165536524Y-75005104D01*
X165536524Y-75005104D02*
X165869857Y-74290819D01*
X165869857Y-74290819D02*
X165869857Y-75290819D01*
X166346048Y-75290819D02*
X166346048Y-74290819D01*
X167393666Y-75195580D02*
X167346047Y-75243200D01*
X167346047Y-75243200D02*
X167203190Y-75290819D01*
X167203190Y-75290819D02*
X167107952Y-75290819D01*
X167107952Y-75290819D02*
X166965095Y-75243200D01*
X166965095Y-75243200D02*
X166869857Y-75147961D01*
X166869857Y-75147961D02*
X166822238Y-75052723D01*
X166822238Y-75052723D02*
X166774619Y-74862247D01*
X166774619Y-74862247D02*
X166774619Y-74719390D01*
X166774619Y-74719390D02*
X166822238Y-74528914D01*
X166822238Y-74528914D02*
X166869857Y-74433676D01*
X166869857Y-74433676D02*
X166965095Y-74338438D01*
X166965095Y-74338438D02*
X167107952Y-74290819D01*
X167107952Y-74290819D02*
X167203190Y-74290819D01*
X167203190Y-74290819D02*
X167346047Y-74338438D01*
X167346047Y-74338438D02*
X167393666Y-74386057D01*
X168346047Y-75290819D02*
X167774619Y-75290819D01*
X168060333Y-75290819D02*
X168060333Y-74290819D01*
X168060333Y-74290819D02*
X167965095Y-74433676D01*
X167965095Y-74433676D02*
X167869857Y-74528914D01*
X167869857Y-74528914D02*
X167774619Y-74576533D01*
X163893667Y-93213819D02*
X164227000Y-94213819D01*
X164227000Y-94213819D02*
X164560333Y-93213819D01*
X164893667Y-94213819D02*
X164893667Y-93213819D01*
X164893667Y-93213819D02*
X165131762Y-93213819D01*
X165131762Y-93213819D02*
X165274619Y-93261438D01*
X165274619Y-93261438D02*
X165369857Y-93356676D01*
X165369857Y-93356676D02*
X165417476Y-93451914D01*
X165417476Y-93451914D02*
X165465095Y-93642390D01*
X165465095Y-93642390D02*
X165465095Y-93785247D01*
X165465095Y-93785247D02*
X165417476Y-93975723D01*
X165417476Y-93975723D02*
X165369857Y-94070961D01*
X165369857Y-94070961D02*
X165274619Y-94166200D01*
X165274619Y-94166200D02*
X165131762Y-94213819D01*
X165131762Y-94213819D02*
X164893667Y-94213819D01*
X165893667Y-94213819D02*
X165893667Y-93213819D01*
X165893667Y-93213819D02*
X166131762Y-93213819D01*
X166131762Y-93213819D02*
X166274619Y-93261438D01*
X166274619Y-93261438D02*
X166369857Y-93356676D01*
X166369857Y-93356676D02*
X166417476Y-93451914D01*
X166417476Y-93451914D02*
X166465095Y-93642390D01*
X166465095Y-93642390D02*
X166465095Y-93785247D01*
X166465095Y-93785247D02*
X166417476Y-93975723D01*
X166417476Y-93975723D02*
X166369857Y-94070961D01*
X166369857Y-94070961D02*
X166274619Y-94166200D01*
X166274619Y-94166200D02*
X166131762Y-94213819D01*
X166131762Y-94213819D02*
X165893667Y-94213819D01*
X164195238Y-88024819D02*
X164433333Y-89024819D01*
X164433333Y-89024819D02*
X164623809Y-88310533D01*
X164623809Y-88310533D02*
X164814285Y-89024819D01*
X164814285Y-89024819D02*
X165052381Y-88024819D01*
X165385714Y-88977200D02*
X165528571Y-89024819D01*
X165528571Y-89024819D02*
X165766666Y-89024819D01*
X165766666Y-89024819D02*
X165861904Y-88977200D01*
X165861904Y-88977200D02*
X165909523Y-88929580D01*
X165909523Y-88929580D02*
X165957142Y-88834342D01*
X165957142Y-88834342D02*
X165957142Y-88739104D01*
X165957142Y-88739104D02*
X165909523Y-88643866D01*
X165909523Y-88643866D02*
X165861904Y-88596247D01*
X165861904Y-88596247D02*
X165766666Y-88548628D01*
X165766666Y-88548628D02*
X165576190Y-88501009D01*
X165576190Y-88501009D02*
X165480952Y-88453390D01*
X165480952Y-88453390D02*
X165433333Y-88405771D01*
X165433333Y-88405771D02*
X165385714Y-88310533D01*
X165385714Y-88310533D02*
X165385714Y-88215295D01*
X165385714Y-88215295D02*
X165433333Y-88120057D01*
X165433333Y-88120057D02*
X165480952Y-88072438D01*
X165480952Y-88072438D02*
X165576190Y-88024819D01*
X165576190Y-88024819D02*
X165814285Y-88024819D01*
X165814285Y-88024819D02*
X165957142Y-88072438D01*
X147320095Y-42896819D02*
X147320095Y-43706342D01*
X147320095Y-43706342D02*
X147367714Y-43801580D01*
X147367714Y-43801580D02*
X147415333Y-43849200D01*
X147415333Y-43849200D02*
X147510571Y-43896819D01*
X147510571Y-43896819D02*
X147701047Y-43896819D01*
X147701047Y-43896819D02*
X147796285Y-43849200D01*
X147796285Y-43849200D02*
X147843904Y-43801580D01*
X147843904Y-43801580D02*
X147891523Y-43706342D01*
X147891523Y-43706342D02*
X147891523Y-42896819D01*
X148320095Y-42992057D02*
X148367714Y-42944438D01*
X148367714Y-42944438D02*
X148462952Y-42896819D01*
X148462952Y-42896819D02*
X148701047Y-42896819D01*
X148701047Y-42896819D02*
X148796285Y-42944438D01*
X148796285Y-42944438D02*
X148843904Y-42992057D01*
X148843904Y-42992057D02*
X148891523Y-43087295D01*
X148891523Y-43087295D02*
X148891523Y-43182533D01*
X148891523Y-43182533D02*
X148843904Y-43325390D01*
X148843904Y-43325390D02*
X148272476Y-43896819D01*
X148272476Y-43896819D02*
X148891523Y-43896819D01*
X118623580Y-117392989D02*
X118671200Y-117440608D01*
X118671200Y-117440608D02*
X118718819Y-117583465D01*
X118718819Y-117583465D02*
X118718819Y-117678703D01*
X118718819Y-117678703D02*
X118671200Y-117821560D01*
X118671200Y-117821560D02*
X118575961Y-117916798D01*
X118575961Y-117916798D02*
X118480723Y-117964417D01*
X118480723Y-117964417D02*
X118290247Y-118012036D01*
X118290247Y-118012036D02*
X118147390Y-118012036D01*
X118147390Y-118012036D02*
X117956914Y-117964417D01*
X117956914Y-117964417D02*
X117861676Y-117916798D01*
X117861676Y-117916798D02*
X117766438Y-117821560D01*
X117766438Y-117821560D02*
X117718819Y-117678703D01*
X117718819Y-117678703D02*
X117718819Y-117583465D01*
X117718819Y-117583465D02*
X117766438Y-117440608D01*
X117766438Y-117440608D02*
X117814057Y-117392989D01*
X118718819Y-116440608D02*
X118718819Y-117012036D01*
X118718819Y-116726322D02*
X117718819Y-116726322D01*
X117718819Y-116726322D02*
X117861676Y-116821560D01*
X117861676Y-116821560D02*
X117956914Y-116916798D01*
X117956914Y-116916798D02*
X118004533Y-117012036D01*
X163814286Y-79782200D02*
X163957143Y-79829819D01*
X163957143Y-79829819D02*
X164195238Y-79829819D01*
X164195238Y-79829819D02*
X164290476Y-79782200D01*
X164290476Y-79782200D02*
X164338095Y-79734580D01*
X164338095Y-79734580D02*
X164385714Y-79639342D01*
X164385714Y-79639342D02*
X164385714Y-79544104D01*
X164385714Y-79544104D02*
X164338095Y-79448866D01*
X164338095Y-79448866D02*
X164290476Y-79401247D01*
X164290476Y-79401247D02*
X164195238Y-79353628D01*
X164195238Y-79353628D02*
X164004762Y-79306009D01*
X164004762Y-79306009D02*
X163909524Y-79258390D01*
X163909524Y-79258390D02*
X163861905Y-79210771D01*
X163861905Y-79210771D02*
X163814286Y-79115533D01*
X163814286Y-79115533D02*
X163814286Y-79020295D01*
X163814286Y-79020295D02*
X163861905Y-78925057D01*
X163861905Y-78925057D02*
X163909524Y-78877438D01*
X163909524Y-78877438D02*
X164004762Y-78829819D01*
X164004762Y-78829819D02*
X164242857Y-78829819D01*
X164242857Y-78829819D02*
X164385714Y-78877438D01*
X165385714Y-79734580D02*
X165338095Y-79782200D01*
X165338095Y-79782200D02*
X165195238Y-79829819D01*
X165195238Y-79829819D02*
X165100000Y-79829819D01*
X165100000Y-79829819D02*
X164957143Y-79782200D01*
X164957143Y-79782200D02*
X164861905Y-79686961D01*
X164861905Y-79686961D02*
X164814286Y-79591723D01*
X164814286Y-79591723D02*
X164766667Y-79401247D01*
X164766667Y-79401247D02*
X164766667Y-79258390D01*
X164766667Y-79258390D02*
X164814286Y-79067914D01*
X164814286Y-79067914D02*
X164861905Y-78972676D01*
X164861905Y-78972676D02*
X164957143Y-78877438D01*
X164957143Y-78877438D02*
X165100000Y-78829819D01*
X165100000Y-78829819D02*
X165195238Y-78829819D01*
X165195238Y-78829819D02*
X165338095Y-78877438D01*
X165338095Y-78877438D02*
X165385714Y-78925057D01*
X165814286Y-79829819D02*
X165814286Y-78829819D01*
X166385714Y-79829819D02*
X165957143Y-79258390D01*
X166385714Y-78829819D02*
X165814286Y-79401247D01*
X149839819Y-29056273D02*
X149363628Y-29389606D01*
X149839819Y-29627701D02*
X148839819Y-29627701D01*
X148839819Y-29627701D02*
X148839819Y-29246749D01*
X148839819Y-29246749D02*
X148887438Y-29151511D01*
X148887438Y-29151511D02*
X148935057Y-29103892D01*
X148935057Y-29103892D02*
X149030295Y-29056273D01*
X149030295Y-29056273D02*
X149173152Y-29056273D01*
X149173152Y-29056273D02*
X149268390Y-29103892D01*
X149268390Y-29103892D02*
X149316009Y-29151511D01*
X149316009Y-29151511D02*
X149363628Y-29246749D01*
X149363628Y-29246749D02*
X149363628Y-29627701D01*
X149458866Y-28627701D02*
X149458866Y-27865797D01*
X149839819Y-28246749D02*
X149077914Y-28246749D01*
X142955819Y-29056273D02*
X142955819Y-29532463D01*
X142955819Y-29532463D02*
X141955819Y-29532463D01*
X142574866Y-28722939D02*
X142574866Y-27961035D01*
X142955819Y-28341987D02*
X142193914Y-28341987D01*
X135911319Y-28799023D02*
X135911319Y-29275213D01*
X135911319Y-29275213D02*
X134911319Y-29275213D01*
X135530366Y-28465689D02*
X135530366Y-27703785D01*
X166735286Y-114072200D02*
X166878143Y-114119819D01*
X166878143Y-114119819D02*
X167116238Y-114119819D01*
X167116238Y-114119819D02*
X167211476Y-114072200D01*
X167211476Y-114072200D02*
X167259095Y-114024580D01*
X167259095Y-114024580D02*
X167306714Y-113929342D01*
X167306714Y-113929342D02*
X167306714Y-113834104D01*
X167306714Y-113834104D02*
X167259095Y-113738866D01*
X167259095Y-113738866D02*
X167211476Y-113691247D01*
X167211476Y-113691247D02*
X167116238Y-113643628D01*
X167116238Y-113643628D02*
X166925762Y-113596009D01*
X166925762Y-113596009D02*
X166830524Y-113548390D01*
X166830524Y-113548390D02*
X166782905Y-113500771D01*
X166782905Y-113500771D02*
X166735286Y-113405533D01*
X166735286Y-113405533D02*
X166735286Y-113310295D01*
X166735286Y-113310295D02*
X166782905Y-113215057D01*
X166782905Y-113215057D02*
X166830524Y-113167438D01*
X166830524Y-113167438D02*
X166925762Y-113119819D01*
X166925762Y-113119819D02*
X167163857Y-113119819D01*
X167163857Y-113119819D02*
X167306714Y-113167438D01*
X168306714Y-114024580D02*
X168259095Y-114072200D01*
X168259095Y-114072200D02*
X168116238Y-114119819D01*
X168116238Y-114119819D02*
X168021000Y-114119819D01*
X168021000Y-114119819D02*
X167878143Y-114072200D01*
X167878143Y-114072200D02*
X167782905Y-113976961D01*
X167782905Y-113976961D02*
X167735286Y-113881723D01*
X167735286Y-113881723D02*
X167687667Y-113691247D01*
X167687667Y-113691247D02*
X167687667Y-113548390D01*
X167687667Y-113548390D02*
X167735286Y-113357914D01*
X167735286Y-113357914D02*
X167782905Y-113262676D01*
X167782905Y-113262676D02*
X167878143Y-113167438D01*
X167878143Y-113167438D02*
X168021000Y-113119819D01*
X168021000Y-113119819D02*
X168116238Y-113119819D01*
X168116238Y-113119819D02*
X168259095Y-113167438D01*
X168259095Y-113167438D02*
X168306714Y-113215057D01*
X168735286Y-114119819D02*
X168735286Y-113119819D01*
X169306714Y-114119819D02*
X168878143Y-113548390D01*
X169306714Y-113119819D02*
X168735286Y-113691247D01*
X166552714Y-110516200D02*
X166695571Y-110563819D01*
X166695571Y-110563819D02*
X166933666Y-110563819D01*
X166933666Y-110563819D02*
X167028904Y-110516200D01*
X167028904Y-110516200D02*
X167076523Y-110468580D01*
X167076523Y-110468580D02*
X167124142Y-110373342D01*
X167124142Y-110373342D02*
X167124142Y-110278104D01*
X167124142Y-110278104D02*
X167076523Y-110182866D01*
X167076523Y-110182866D02*
X167028904Y-110135247D01*
X167028904Y-110135247D02*
X166933666Y-110087628D01*
X166933666Y-110087628D02*
X166743190Y-110040009D01*
X166743190Y-110040009D02*
X166647952Y-109992390D01*
X166647952Y-109992390D02*
X166600333Y-109944771D01*
X166600333Y-109944771D02*
X166552714Y-109849533D01*
X166552714Y-109849533D02*
X166552714Y-109754295D01*
X166552714Y-109754295D02*
X166600333Y-109659057D01*
X166600333Y-109659057D02*
X166647952Y-109611438D01*
X166647952Y-109611438D02*
X166743190Y-109563819D01*
X166743190Y-109563819D02*
X166981285Y-109563819D01*
X166981285Y-109563819D02*
X167124142Y-109611438D01*
X167552714Y-110563819D02*
X167552714Y-109563819D01*
X167552714Y-109563819D02*
X167790809Y-109563819D01*
X167790809Y-109563819D02*
X167933666Y-109611438D01*
X167933666Y-109611438D02*
X168028904Y-109706676D01*
X168028904Y-109706676D02*
X168076523Y-109801914D01*
X168076523Y-109801914D02*
X168124142Y-109992390D01*
X168124142Y-109992390D02*
X168124142Y-110135247D01*
X168124142Y-110135247D02*
X168076523Y-110325723D01*
X168076523Y-110325723D02*
X168028904Y-110420961D01*
X168028904Y-110420961D02*
X167933666Y-110516200D01*
X167933666Y-110516200D02*
X167790809Y-110563819D01*
X167790809Y-110563819D02*
X167552714Y-110563819D01*
X168505095Y-110278104D02*
X168981285Y-110278104D01*
X168409857Y-110563819D02*
X168743190Y-109563819D01*
X168743190Y-109563819D02*
X169076523Y-110563819D01*
X166052667Y-104991819D02*
X166386000Y-105991819D01*
X166386000Y-105991819D02*
X166719333Y-104991819D01*
X167052667Y-105991819D02*
X167052667Y-104991819D01*
X167052667Y-104991819D02*
X167290762Y-104991819D01*
X167290762Y-104991819D02*
X167433619Y-105039438D01*
X167433619Y-105039438D02*
X167528857Y-105134676D01*
X167528857Y-105134676D02*
X167576476Y-105229914D01*
X167576476Y-105229914D02*
X167624095Y-105420390D01*
X167624095Y-105420390D02*
X167624095Y-105563247D01*
X167624095Y-105563247D02*
X167576476Y-105753723D01*
X167576476Y-105753723D02*
X167528857Y-105848961D01*
X167528857Y-105848961D02*
X167433619Y-105944200D01*
X167433619Y-105944200D02*
X167290762Y-105991819D01*
X167290762Y-105991819D02*
X167052667Y-105991819D01*
X168052667Y-105991819D02*
X168052667Y-104991819D01*
X168052667Y-104991819D02*
X168290762Y-104991819D01*
X168290762Y-104991819D02*
X168433619Y-105039438D01*
X168433619Y-105039438D02*
X168528857Y-105134676D01*
X168528857Y-105134676D02*
X168576476Y-105229914D01*
X168576476Y-105229914D02*
X168624095Y-105420390D01*
X168624095Y-105420390D02*
X168624095Y-105563247D01*
X168624095Y-105563247D02*
X168576476Y-105753723D01*
X168576476Y-105753723D02*
X168528857Y-105848961D01*
X168528857Y-105848961D02*
X168433619Y-105944200D01*
X168433619Y-105944200D02*
X168290762Y-105991819D01*
X168290762Y-105991819D02*
X168052667Y-105991819D01*
X151653580Y-60491666D02*
X151701200Y-60539285D01*
X151701200Y-60539285D02*
X151748819Y-60682142D01*
X151748819Y-60682142D02*
X151748819Y-60777380D01*
X151748819Y-60777380D02*
X151701200Y-60920237D01*
X151701200Y-60920237D02*
X151605961Y-61015475D01*
X151605961Y-61015475D02*
X151510723Y-61063094D01*
X151510723Y-61063094D02*
X151320247Y-61110713D01*
X151320247Y-61110713D02*
X151177390Y-61110713D01*
X151177390Y-61110713D02*
X150986914Y-61063094D01*
X150986914Y-61063094D02*
X150891676Y-61015475D01*
X150891676Y-61015475D02*
X150796438Y-60920237D01*
X150796438Y-60920237D02*
X150748819Y-60777380D01*
X150748819Y-60777380D02*
X150748819Y-60682142D01*
X150748819Y-60682142D02*
X150796438Y-60539285D01*
X150796438Y-60539285D02*
X150844057Y-60491666D01*
X150748819Y-60158332D02*
X150748819Y-59539285D01*
X150748819Y-59539285D02*
X151129771Y-59872618D01*
X151129771Y-59872618D02*
X151129771Y-59729761D01*
X151129771Y-59729761D02*
X151177390Y-59634523D01*
X151177390Y-59634523D02*
X151225009Y-59586904D01*
X151225009Y-59586904D02*
X151320247Y-59539285D01*
X151320247Y-59539285D02*
X151558342Y-59539285D01*
X151558342Y-59539285D02*
X151653580Y-59586904D01*
X151653580Y-59586904D02*
X151701200Y-59634523D01*
X151701200Y-59634523D02*
X151748819Y-59729761D01*
X151748819Y-59729761D02*
X151748819Y-60015475D01*
X151748819Y-60015475D02*
X151701200Y-60110713D01*
X151701200Y-60110713D02*
X151653580Y-60158332D01*
X142026819Y-67222666D02*
X141550628Y-67555999D01*
X142026819Y-67794094D02*
X141026819Y-67794094D01*
X141026819Y-67794094D02*
X141026819Y-67413142D01*
X141026819Y-67413142D02*
X141074438Y-67317904D01*
X141074438Y-67317904D02*
X141122057Y-67270285D01*
X141122057Y-67270285D02*
X141217295Y-67222666D01*
X141217295Y-67222666D02*
X141360152Y-67222666D01*
X141360152Y-67222666D02*
X141455390Y-67270285D01*
X141455390Y-67270285D02*
X141503009Y-67317904D01*
X141503009Y-67317904D02*
X141550628Y-67413142D01*
X141550628Y-67413142D02*
X141550628Y-67794094D01*
X141360152Y-66365523D02*
X142026819Y-66365523D01*
X140979200Y-66603618D02*
X141693485Y-66841713D01*
X141693485Y-66841713D02*
X141693485Y-66222666D01*
X141681580Y-60618666D02*
X141729200Y-60666285D01*
X141729200Y-60666285D02*
X141776819Y-60809142D01*
X141776819Y-60809142D02*
X141776819Y-60904380D01*
X141776819Y-60904380D02*
X141729200Y-61047237D01*
X141729200Y-61047237D02*
X141633961Y-61142475D01*
X141633961Y-61142475D02*
X141538723Y-61190094D01*
X141538723Y-61190094D02*
X141348247Y-61237713D01*
X141348247Y-61237713D02*
X141205390Y-61237713D01*
X141205390Y-61237713D02*
X141014914Y-61190094D01*
X141014914Y-61190094D02*
X140919676Y-61142475D01*
X140919676Y-61142475D02*
X140824438Y-61047237D01*
X140824438Y-61047237D02*
X140776819Y-60904380D01*
X140776819Y-60904380D02*
X140776819Y-60809142D01*
X140776819Y-60809142D02*
X140824438Y-60666285D01*
X140824438Y-60666285D02*
X140872057Y-60618666D01*
X140872057Y-60237713D02*
X140824438Y-60190094D01*
X140824438Y-60190094D02*
X140776819Y-60094856D01*
X140776819Y-60094856D02*
X140776819Y-59856761D01*
X140776819Y-59856761D02*
X140824438Y-59761523D01*
X140824438Y-59761523D02*
X140872057Y-59713904D01*
X140872057Y-59713904D02*
X140967295Y-59666285D01*
X140967295Y-59666285D02*
X141062533Y-59666285D01*
X141062533Y-59666285D02*
X141205390Y-59713904D01*
X141205390Y-59713904D02*
X141776819Y-60285332D01*
X141776819Y-60285332D02*
X141776819Y-59666285D01*
X152186819Y-67349666D02*
X151710628Y-67682999D01*
X152186819Y-67921094D02*
X151186819Y-67921094D01*
X151186819Y-67921094D02*
X151186819Y-67540142D01*
X151186819Y-67540142D02*
X151234438Y-67444904D01*
X151234438Y-67444904D02*
X151282057Y-67397285D01*
X151282057Y-67397285D02*
X151377295Y-67349666D01*
X151377295Y-67349666D02*
X151520152Y-67349666D01*
X151520152Y-67349666D02*
X151615390Y-67397285D01*
X151615390Y-67397285D02*
X151663009Y-67444904D01*
X151663009Y-67444904D02*
X151710628Y-67540142D01*
X151710628Y-67540142D02*
X151710628Y-67921094D01*
X151186819Y-67016332D02*
X151186819Y-66397285D01*
X151186819Y-66397285D02*
X151567771Y-66730618D01*
X151567771Y-66730618D02*
X151567771Y-66587761D01*
X151567771Y-66587761D02*
X151615390Y-66492523D01*
X151615390Y-66492523D02*
X151663009Y-66444904D01*
X151663009Y-66444904D02*
X151758247Y-66397285D01*
X151758247Y-66397285D02*
X151996342Y-66397285D01*
X151996342Y-66397285D02*
X152091580Y-66444904D01*
X152091580Y-66444904D02*
X152139200Y-66492523D01*
X152139200Y-66492523D02*
X152186819Y-66587761D01*
X152186819Y-66587761D02*
X152186819Y-66873475D01*
X152186819Y-66873475D02*
X152139200Y-66968713D01*
X152139200Y-66968713D02*
X152091580Y-67016332D01*
X141507180Y-98126345D02*
X140697657Y-98126345D01*
X140697657Y-98126345D02*
X140602419Y-98173964D01*
X140602419Y-98173964D02*
X140554800Y-98221583D01*
X140554800Y-98221583D02*
X140507180Y-98316821D01*
X140507180Y-98316821D02*
X140507180Y-98507297D01*
X140507180Y-98507297D02*
X140554800Y-98602535D01*
X140554800Y-98602535D02*
X140602419Y-98650154D01*
X140602419Y-98650154D02*
X140697657Y-98697773D01*
X140697657Y-98697773D02*
X141507180Y-98697773D01*
X140507180Y-99697773D02*
X140507180Y-99126345D01*
X140507180Y-99412059D02*
X141507180Y-99412059D01*
X141507180Y-99412059D02*
X141364323Y-99316821D01*
X141364323Y-99316821D02*
X141269085Y-99221583D01*
X141269085Y-99221583D02*
X141221466Y-99126345D01*
D11*
X147093424Y-104203475D02*
X146988662Y-104155856D01*
X146988662Y-104155856D02*
X146831519Y-104155856D01*
X146831519Y-104155856D02*
X146674376Y-104203475D01*
X146674376Y-104203475D02*
X146569614Y-104298713D01*
X146569614Y-104298713D02*
X146517233Y-104393951D01*
X146517233Y-104393951D02*
X146464852Y-104584427D01*
X146464852Y-104584427D02*
X146464852Y-104727284D01*
X146464852Y-104727284D02*
X146517233Y-104917760D01*
X146517233Y-104917760D02*
X146569614Y-105012998D01*
X146569614Y-105012998D02*
X146674376Y-105108237D01*
X146674376Y-105108237D02*
X146831519Y-105155856D01*
X146831519Y-105155856D02*
X146936281Y-105155856D01*
X146936281Y-105155856D02*
X147093424Y-105108237D01*
X147093424Y-105108237D02*
X147145805Y-105060617D01*
X147145805Y-105060617D02*
X147145805Y-104727284D01*
X147145805Y-104727284D02*
X146936281Y-104727284D01*
X147617233Y-105155856D02*
X147617233Y-104155856D01*
X147617233Y-104155856D02*
X148036281Y-104155856D01*
X148036281Y-104155856D02*
X148141043Y-104203475D01*
X148141043Y-104203475D02*
X148193424Y-104251094D01*
X148193424Y-104251094D02*
X148245805Y-104346332D01*
X148245805Y-104346332D02*
X148245805Y-104489189D01*
X148245805Y-104489189D02*
X148193424Y-104584427D01*
X148193424Y-104584427D02*
X148141043Y-104632046D01*
X148141043Y-104632046D02*
X148036281Y-104679665D01*
X148036281Y-104679665D02*
X147617233Y-104679665D01*
X148717233Y-105155856D02*
X148717233Y-104155856D01*
X149450567Y-104155856D02*
X149660091Y-104155856D01*
X149660091Y-104155856D02*
X149764853Y-104203475D01*
X149764853Y-104203475D02*
X149869615Y-104298713D01*
X149869615Y-104298713D02*
X149921996Y-104489189D01*
X149921996Y-104489189D02*
X149921996Y-104822522D01*
X149921996Y-104822522D02*
X149869615Y-105012998D01*
X149869615Y-105012998D02*
X149764853Y-105108237D01*
X149764853Y-105108237D02*
X149660091Y-105155856D01*
X149660091Y-105155856D02*
X149450567Y-105155856D01*
X149450567Y-105155856D02*
X149345805Y-105108237D01*
X149345805Y-105108237D02*
X149241043Y-105012998D01*
X149241043Y-105012998D02*
X149188662Y-104822522D01*
X149188662Y-104822522D02*
X149188662Y-104489189D01*
X149188662Y-104489189D02*
X149241043Y-104298713D01*
X149241043Y-104298713D02*
X149345805Y-104203475D01*
X149345805Y-104203475D02*
X149450567Y-104155856D01*
X150969615Y-105155856D02*
X150341043Y-105155856D01*
X150655329Y-105155856D02*
X150655329Y-104155856D01*
X150655329Y-104155856D02*
X150550567Y-104298713D01*
X150550567Y-104298713D02*
X150445805Y-104393951D01*
X150445805Y-104393951D02*
X150341043Y-104441570D01*
X151912472Y-104155856D02*
X151702948Y-104155856D01*
X151702948Y-104155856D02*
X151598186Y-104203475D01*
X151598186Y-104203475D02*
X151545805Y-104251094D01*
X151545805Y-104251094D02*
X151441043Y-104393951D01*
X151441043Y-104393951D02*
X151388662Y-104584427D01*
X151388662Y-104584427D02*
X151388662Y-104965379D01*
X151388662Y-104965379D02*
X151441043Y-105060617D01*
X151441043Y-105060617D02*
X151493424Y-105108237D01*
X151493424Y-105108237D02*
X151598186Y-105155856D01*
X151598186Y-105155856D02*
X151807710Y-105155856D01*
X151807710Y-105155856D02*
X151912472Y-105108237D01*
X151912472Y-105108237D02*
X151964853Y-105060617D01*
X151964853Y-105060617D02*
X152017234Y-104965379D01*
X152017234Y-104965379D02*
X152017234Y-104727284D01*
X152017234Y-104727284D02*
X151964853Y-104632046D01*
X151964853Y-104632046D02*
X151912472Y-104584427D01*
X151912472Y-104584427D02*
X151807710Y-104536808D01*
X151807710Y-104536808D02*
X151598186Y-104536808D01*
X151598186Y-104536808D02*
X151493424Y-104584427D01*
X151493424Y-104584427D02*
X151441043Y-104632046D01*
X151441043Y-104632046D02*
X151388662Y-104727284D01*
X129593424Y-99203475D02*
X129488662Y-99155856D01*
X129488662Y-99155856D02*
X129331519Y-99155856D01*
X129331519Y-99155856D02*
X129174376Y-99203475D01*
X129174376Y-99203475D02*
X129069614Y-99298713D01*
X129069614Y-99298713D02*
X129017233Y-99393951D01*
X129017233Y-99393951D02*
X128964852Y-99584427D01*
X128964852Y-99584427D02*
X128964852Y-99727284D01*
X128964852Y-99727284D02*
X129017233Y-99917760D01*
X129017233Y-99917760D02*
X129069614Y-100012998D01*
X129069614Y-100012998D02*
X129174376Y-100108237D01*
X129174376Y-100108237D02*
X129331519Y-100155856D01*
X129331519Y-100155856D02*
X129436281Y-100155856D01*
X129436281Y-100155856D02*
X129593424Y-100108237D01*
X129593424Y-100108237D02*
X129645805Y-100060617D01*
X129645805Y-100060617D02*
X129645805Y-99727284D01*
X129645805Y-99727284D02*
X129436281Y-99727284D01*
X130117233Y-100155856D02*
X130117233Y-99155856D01*
X130117233Y-99155856D02*
X130536281Y-99155856D01*
X130536281Y-99155856D02*
X130641043Y-99203475D01*
X130641043Y-99203475D02*
X130693424Y-99251094D01*
X130693424Y-99251094D02*
X130745805Y-99346332D01*
X130745805Y-99346332D02*
X130745805Y-99489189D01*
X130745805Y-99489189D02*
X130693424Y-99584427D01*
X130693424Y-99584427D02*
X130641043Y-99632046D01*
X130641043Y-99632046D02*
X130536281Y-99679665D01*
X130536281Y-99679665D02*
X130117233Y-99679665D01*
X131217233Y-100155856D02*
X131217233Y-99155856D01*
X131950567Y-99155856D02*
X132160091Y-99155856D01*
X132160091Y-99155856D02*
X132264853Y-99203475D01*
X132264853Y-99203475D02*
X132369615Y-99298713D01*
X132369615Y-99298713D02*
X132421996Y-99489189D01*
X132421996Y-99489189D02*
X132421996Y-99822522D01*
X132421996Y-99822522D02*
X132369615Y-100012998D01*
X132369615Y-100012998D02*
X132264853Y-100108237D01*
X132264853Y-100108237D02*
X132160091Y-100155856D01*
X132160091Y-100155856D02*
X131950567Y-100155856D01*
X131950567Y-100155856D02*
X131845805Y-100108237D01*
X131845805Y-100108237D02*
X131741043Y-100012998D01*
X131741043Y-100012998D02*
X131688662Y-99822522D01*
X131688662Y-99822522D02*
X131688662Y-99489189D01*
X131688662Y-99489189D02*
X131741043Y-99298713D01*
X131741043Y-99298713D02*
X131845805Y-99203475D01*
X131845805Y-99203475D02*
X131950567Y-99155856D01*
X132841043Y-99251094D02*
X132893424Y-99203475D01*
X132893424Y-99203475D02*
X132998186Y-99155856D01*
X132998186Y-99155856D02*
X133260091Y-99155856D01*
X133260091Y-99155856D02*
X133364853Y-99203475D01*
X133364853Y-99203475D02*
X133417234Y-99251094D01*
X133417234Y-99251094D02*
X133469615Y-99346332D01*
X133469615Y-99346332D02*
X133469615Y-99441570D01*
X133469615Y-99441570D02*
X133417234Y-99584427D01*
X133417234Y-99584427D02*
X132788662Y-100155856D01*
X132788662Y-100155856D02*
X133469615Y-100155856D01*
X134464853Y-99155856D02*
X133941043Y-99155856D01*
X133941043Y-99155856D02*
X133888662Y-99632046D01*
X133888662Y-99632046D02*
X133941043Y-99584427D01*
X133941043Y-99584427D02*
X134045805Y-99536808D01*
X134045805Y-99536808D02*
X134307710Y-99536808D01*
X134307710Y-99536808D02*
X134412472Y-99584427D01*
X134412472Y-99584427D02*
X134464853Y-99632046D01*
X134464853Y-99632046D02*
X134517234Y-99727284D01*
X134517234Y-99727284D02*
X134517234Y-99965379D01*
X134517234Y-99965379D02*
X134464853Y-100060617D01*
X134464853Y-100060617D02*
X134412472Y-100108237D01*
X134412472Y-100108237D02*
X134307710Y-100155856D01*
X134307710Y-100155856D02*
X134045805Y-100155856D01*
X134045805Y-100155856D02*
X133941043Y-100108237D01*
X133941043Y-100108237D02*
X133888662Y-100060617D01*
X129593424Y-101703475D02*
X129488662Y-101655856D01*
X129488662Y-101655856D02*
X129331519Y-101655856D01*
X129331519Y-101655856D02*
X129174376Y-101703475D01*
X129174376Y-101703475D02*
X129069614Y-101798713D01*
X129069614Y-101798713D02*
X129017233Y-101893951D01*
X129017233Y-101893951D02*
X128964852Y-102084427D01*
X128964852Y-102084427D02*
X128964852Y-102227284D01*
X128964852Y-102227284D02*
X129017233Y-102417760D01*
X129017233Y-102417760D02*
X129069614Y-102512998D01*
X129069614Y-102512998D02*
X129174376Y-102608237D01*
X129174376Y-102608237D02*
X129331519Y-102655856D01*
X129331519Y-102655856D02*
X129436281Y-102655856D01*
X129436281Y-102655856D02*
X129593424Y-102608237D01*
X129593424Y-102608237D02*
X129645805Y-102560617D01*
X129645805Y-102560617D02*
X129645805Y-102227284D01*
X129645805Y-102227284D02*
X129436281Y-102227284D01*
X130117233Y-102655856D02*
X130117233Y-101655856D01*
X130117233Y-101655856D02*
X130536281Y-101655856D01*
X130536281Y-101655856D02*
X130641043Y-101703475D01*
X130641043Y-101703475D02*
X130693424Y-101751094D01*
X130693424Y-101751094D02*
X130745805Y-101846332D01*
X130745805Y-101846332D02*
X130745805Y-101989189D01*
X130745805Y-101989189D02*
X130693424Y-102084427D01*
X130693424Y-102084427D02*
X130641043Y-102132046D01*
X130641043Y-102132046D02*
X130536281Y-102179665D01*
X130536281Y-102179665D02*
X130117233Y-102179665D01*
X131217233Y-102655856D02*
X131217233Y-101655856D01*
X131950567Y-101655856D02*
X132160091Y-101655856D01*
X132160091Y-101655856D02*
X132264853Y-101703475D01*
X132264853Y-101703475D02*
X132369615Y-101798713D01*
X132369615Y-101798713D02*
X132421996Y-101989189D01*
X132421996Y-101989189D02*
X132421996Y-102322522D01*
X132421996Y-102322522D02*
X132369615Y-102512998D01*
X132369615Y-102512998D02*
X132264853Y-102608237D01*
X132264853Y-102608237D02*
X132160091Y-102655856D01*
X132160091Y-102655856D02*
X131950567Y-102655856D01*
X131950567Y-102655856D02*
X131845805Y-102608237D01*
X131845805Y-102608237D02*
X131741043Y-102512998D01*
X131741043Y-102512998D02*
X131688662Y-102322522D01*
X131688662Y-102322522D02*
X131688662Y-101989189D01*
X131688662Y-101989189D02*
X131741043Y-101798713D01*
X131741043Y-101798713D02*
X131845805Y-101703475D01*
X131845805Y-101703475D02*
X131950567Y-101655856D01*
X132841043Y-101751094D02*
X132893424Y-101703475D01*
X132893424Y-101703475D02*
X132998186Y-101655856D01*
X132998186Y-101655856D02*
X133260091Y-101655856D01*
X133260091Y-101655856D02*
X133364853Y-101703475D01*
X133364853Y-101703475D02*
X133417234Y-101751094D01*
X133417234Y-101751094D02*
X133469615Y-101846332D01*
X133469615Y-101846332D02*
X133469615Y-101941570D01*
X133469615Y-101941570D02*
X133417234Y-102084427D01*
X133417234Y-102084427D02*
X132788662Y-102655856D01*
X132788662Y-102655856D02*
X133469615Y-102655856D01*
X134412472Y-101655856D02*
X134202948Y-101655856D01*
X134202948Y-101655856D02*
X134098186Y-101703475D01*
X134098186Y-101703475D02*
X134045805Y-101751094D01*
X134045805Y-101751094D02*
X133941043Y-101893951D01*
X133941043Y-101893951D02*
X133888662Y-102084427D01*
X133888662Y-102084427D02*
X133888662Y-102465379D01*
X133888662Y-102465379D02*
X133941043Y-102560617D01*
X133941043Y-102560617D02*
X133993424Y-102608237D01*
X133993424Y-102608237D02*
X134098186Y-102655856D01*
X134098186Y-102655856D02*
X134307710Y-102655856D01*
X134307710Y-102655856D02*
X134412472Y-102608237D01*
X134412472Y-102608237D02*
X134464853Y-102560617D01*
X134464853Y-102560617D02*
X134517234Y-102465379D01*
X134517234Y-102465379D02*
X134517234Y-102227284D01*
X134517234Y-102227284D02*
X134464853Y-102132046D01*
X134464853Y-102132046D02*
X134412472Y-102084427D01*
X134412472Y-102084427D02*
X134307710Y-102036808D01*
X134307710Y-102036808D02*
X134098186Y-102036808D01*
X134098186Y-102036808D02*
X133993424Y-102084427D01*
X133993424Y-102084427D02*
X133941043Y-102132046D01*
X133941043Y-102132046D02*
X133888662Y-102227284D01*
X148093424Y-89203475D02*
X147988662Y-89155856D01*
X147988662Y-89155856D02*
X147831519Y-89155856D01*
X147831519Y-89155856D02*
X147674376Y-89203475D01*
X147674376Y-89203475D02*
X147569614Y-89298713D01*
X147569614Y-89298713D02*
X147517233Y-89393951D01*
X147517233Y-89393951D02*
X147464852Y-89584427D01*
X147464852Y-89584427D02*
X147464852Y-89727284D01*
X147464852Y-89727284D02*
X147517233Y-89917760D01*
X147517233Y-89917760D02*
X147569614Y-90012998D01*
X147569614Y-90012998D02*
X147674376Y-90108237D01*
X147674376Y-90108237D02*
X147831519Y-90155856D01*
X147831519Y-90155856D02*
X147936281Y-90155856D01*
X147936281Y-90155856D02*
X148093424Y-90108237D01*
X148093424Y-90108237D02*
X148145805Y-90060617D01*
X148145805Y-90060617D02*
X148145805Y-89727284D01*
X148145805Y-89727284D02*
X147936281Y-89727284D01*
X148617233Y-90155856D02*
X148617233Y-89155856D01*
X148617233Y-89155856D02*
X149036281Y-89155856D01*
X149036281Y-89155856D02*
X149141043Y-89203475D01*
X149141043Y-89203475D02*
X149193424Y-89251094D01*
X149193424Y-89251094D02*
X149245805Y-89346332D01*
X149245805Y-89346332D02*
X149245805Y-89489189D01*
X149245805Y-89489189D02*
X149193424Y-89584427D01*
X149193424Y-89584427D02*
X149141043Y-89632046D01*
X149141043Y-89632046D02*
X149036281Y-89679665D01*
X149036281Y-89679665D02*
X148617233Y-89679665D01*
X149717233Y-90155856D02*
X149717233Y-89155856D01*
X150450567Y-89155856D02*
X150660091Y-89155856D01*
X150660091Y-89155856D02*
X150764853Y-89203475D01*
X150764853Y-89203475D02*
X150869615Y-89298713D01*
X150869615Y-89298713D02*
X150921996Y-89489189D01*
X150921996Y-89489189D02*
X150921996Y-89822522D01*
X150921996Y-89822522D02*
X150869615Y-90012998D01*
X150869615Y-90012998D02*
X150764853Y-90108237D01*
X150764853Y-90108237D02*
X150660091Y-90155856D01*
X150660091Y-90155856D02*
X150450567Y-90155856D01*
X150450567Y-90155856D02*
X150345805Y-90108237D01*
X150345805Y-90108237D02*
X150241043Y-90012998D01*
X150241043Y-90012998D02*
X150188662Y-89822522D01*
X150188662Y-89822522D02*
X150188662Y-89489189D01*
X150188662Y-89489189D02*
X150241043Y-89298713D01*
X150241043Y-89298713D02*
X150345805Y-89203475D01*
X150345805Y-89203475D02*
X150450567Y-89155856D01*
X151288662Y-89155856D02*
X151969615Y-89155856D01*
X151969615Y-89155856D02*
X151602948Y-89536808D01*
X151602948Y-89536808D02*
X151760091Y-89536808D01*
X151760091Y-89536808D02*
X151864853Y-89584427D01*
X151864853Y-89584427D02*
X151917234Y-89632046D01*
X151917234Y-89632046D02*
X151969615Y-89727284D01*
X151969615Y-89727284D02*
X151969615Y-89965379D01*
X151969615Y-89965379D02*
X151917234Y-90060617D01*
X151917234Y-90060617D02*
X151864853Y-90108237D01*
X151864853Y-90108237D02*
X151760091Y-90155856D01*
X151760091Y-90155856D02*
X151445805Y-90155856D01*
X151445805Y-90155856D02*
X151341043Y-90108237D01*
X151341043Y-90108237D02*
X151288662Y-90060617D01*
X129593424Y-89203475D02*
X129488662Y-89155856D01*
X129488662Y-89155856D02*
X129331519Y-89155856D01*
X129331519Y-89155856D02*
X129174376Y-89203475D01*
X129174376Y-89203475D02*
X129069614Y-89298713D01*
X129069614Y-89298713D02*
X129017233Y-89393951D01*
X129017233Y-89393951D02*
X128964852Y-89584427D01*
X128964852Y-89584427D02*
X128964852Y-89727284D01*
X128964852Y-89727284D02*
X129017233Y-89917760D01*
X129017233Y-89917760D02*
X129069614Y-90012998D01*
X129069614Y-90012998D02*
X129174376Y-90108237D01*
X129174376Y-90108237D02*
X129331519Y-90155856D01*
X129331519Y-90155856D02*
X129436281Y-90155856D01*
X129436281Y-90155856D02*
X129593424Y-90108237D01*
X129593424Y-90108237D02*
X129645805Y-90060617D01*
X129645805Y-90060617D02*
X129645805Y-89727284D01*
X129645805Y-89727284D02*
X129436281Y-89727284D01*
X130117233Y-90155856D02*
X130117233Y-89155856D01*
X130117233Y-89155856D02*
X130536281Y-89155856D01*
X130536281Y-89155856D02*
X130641043Y-89203475D01*
X130641043Y-89203475D02*
X130693424Y-89251094D01*
X130693424Y-89251094D02*
X130745805Y-89346332D01*
X130745805Y-89346332D02*
X130745805Y-89489189D01*
X130745805Y-89489189D02*
X130693424Y-89584427D01*
X130693424Y-89584427D02*
X130641043Y-89632046D01*
X130641043Y-89632046D02*
X130536281Y-89679665D01*
X130536281Y-89679665D02*
X130117233Y-89679665D01*
X131217233Y-90155856D02*
X131217233Y-89155856D01*
X131950567Y-89155856D02*
X132160091Y-89155856D01*
X132160091Y-89155856D02*
X132264853Y-89203475D01*
X132264853Y-89203475D02*
X132369615Y-89298713D01*
X132369615Y-89298713D02*
X132421996Y-89489189D01*
X132421996Y-89489189D02*
X132421996Y-89822522D01*
X132421996Y-89822522D02*
X132369615Y-90012998D01*
X132369615Y-90012998D02*
X132264853Y-90108237D01*
X132264853Y-90108237D02*
X132160091Y-90155856D01*
X132160091Y-90155856D02*
X131950567Y-90155856D01*
X131950567Y-90155856D02*
X131845805Y-90108237D01*
X131845805Y-90108237D02*
X131741043Y-90012998D01*
X131741043Y-90012998D02*
X131688662Y-89822522D01*
X131688662Y-89822522D02*
X131688662Y-89489189D01*
X131688662Y-89489189D02*
X131741043Y-89298713D01*
X131741043Y-89298713D02*
X131845805Y-89203475D01*
X131845805Y-89203475D02*
X131950567Y-89155856D01*
X132788662Y-89155856D02*
X133469615Y-89155856D01*
X133469615Y-89155856D02*
X133102948Y-89536808D01*
X133102948Y-89536808D02*
X133260091Y-89536808D01*
X133260091Y-89536808D02*
X133364853Y-89584427D01*
X133364853Y-89584427D02*
X133417234Y-89632046D01*
X133417234Y-89632046D02*
X133469615Y-89727284D01*
X133469615Y-89727284D02*
X133469615Y-89965379D01*
X133469615Y-89965379D02*
X133417234Y-90060617D01*
X133417234Y-90060617D02*
X133364853Y-90108237D01*
X133364853Y-90108237D02*
X133260091Y-90155856D01*
X133260091Y-90155856D02*
X132945805Y-90155856D01*
X132945805Y-90155856D02*
X132841043Y-90108237D01*
X132841043Y-90108237D02*
X132788662Y-90060617D01*
X134412472Y-89489189D02*
X134412472Y-90155856D01*
X134150567Y-89108237D02*
X133888662Y-89822522D01*
X133888662Y-89822522D02*
X134569615Y-89822522D01*
X147093424Y-101703475D02*
X146988662Y-101655856D01*
X146988662Y-101655856D02*
X146831519Y-101655856D01*
X146831519Y-101655856D02*
X146674376Y-101703475D01*
X146674376Y-101703475D02*
X146569614Y-101798713D01*
X146569614Y-101798713D02*
X146517233Y-101893951D01*
X146517233Y-101893951D02*
X146464852Y-102084427D01*
X146464852Y-102084427D02*
X146464852Y-102227284D01*
X146464852Y-102227284D02*
X146517233Y-102417760D01*
X146517233Y-102417760D02*
X146569614Y-102512998D01*
X146569614Y-102512998D02*
X146674376Y-102608237D01*
X146674376Y-102608237D02*
X146831519Y-102655856D01*
X146831519Y-102655856D02*
X146936281Y-102655856D01*
X146936281Y-102655856D02*
X147093424Y-102608237D01*
X147093424Y-102608237D02*
X147145805Y-102560617D01*
X147145805Y-102560617D02*
X147145805Y-102227284D01*
X147145805Y-102227284D02*
X146936281Y-102227284D01*
X147617233Y-102655856D02*
X147617233Y-101655856D01*
X147617233Y-101655856D02*
X148036281Y-101655856D01*
X148036281Y-101655856D02*
X148141043Y-101703475D01*
X148141043Y-101703475D02*
X148193424Y-101751094D01*
X148193424Y-101751094D02*
X148245805Y-101846332D01*
X148245805Y-101846332D02*
X148245805Y-101989189D01*
X148245805Y-101989189D02*
X148193424Y-102084427D01*
X148193424Y-102084427D02*
X148141043Y-102132046D01*
X148141043Y-102132046D02*
X148036281Y-102179665D01*
X148036281Y-102179665D02*
X147617233Y-102179665D01*
X148717233Y-102655856D02*
X148717233Y-101655856D01*
X149450567Y-101655856D02*
X149660091Y-101655856D01*
X149660091Y-101655856D02*
X149764853Y-101703475D01*
X149764853Y-101703475D02*
X149869615Y-101798713D01*
X149869615Y-101798713D02*
X149921996Y-101989189D01*
X149921996Y-101989189D02*
X149921996Y-102322522D01*
X149921996Y-102322522D02*
X149869615Y-102512998D01*
X149869615Y-102512998D02*
X149764853Y-102608237D01*
X149764853Y-102608237D02*
X149660091Y-102655856D01*
X149660091Y-102655856D02*
X149450567Y-102655856D01*
X149450567Y-102655856D02*
X149345805Y-102608237D01*
X149345805Y-102608237D02*
X149241043Y-102512998D01*
X149241043Y-102512998D02*
X149188662Y-102322522D01*
X149188662Y-102322522D02*
X149188662Y-101989189D01*
X149188662Y-101989189D02*
X149241043Y-101798713D01*
X149241043Y-101798713D02*
X149345805Y-101703475D01*
X149345805Y-101703475D02*
X149450567Y-101655856D01*
X150969615Y-102655856D02*
X150341043Y-102655856D01*
X150655329Y-102655856D02*
X150655329Y-101655856D01*
X150655329Y-101655856D02*
X150550567Y-101798713D01*
X150550567Y-101798713D02*
X150445805Y-101893951D01*
X150445805Y-101893951D02*
X150341043Y-101941570D01*
X151336281Y-101655856D02*
X152069615Y-101655856D01*
X152069615Y-101655856D02*
X151598186Y-102655856D01*
X129360090Y-116655856D02*
X129726757Y-117655856D01*
X129726757Y-117655856D02*
X130093424Y-116655856D01*
X130460090Y-117655856D02*
X130460090Y-116655856D01*
X130983900Y-117655856D02*
X130983900Y-116655856D01*
X130983900Y-116655856D02*
X131612472Y-117655856D01*
X131612472Y-117655856D02*
X131612472Y-116655856D01*
X147093424Y-91703475D02*
X146988662Y-91655856D01*
X146988662Y-91655856D02*
X146831519Y-91655856D01*
X146831519Y-91655856D02*
X146674376Y-91703475D01*
X146674376Y-91703475D02*
X146569614Y-91798713D01*
X146569614Y-91798713D02*
X146517233Y-91893951D01*
X146517233Y-91893951D02*
X146464852Y-92084427D01*
X146464852Y-92084427D02*
X146464852Y-92227284D01*
X146464852Y-92227284D02*
X146517233Y-92417760D01*
X146517233Y-92417760D02*
X146569614Y-92512998D01*
X146569614Y-92512998D02*
X146674376Y-92608237D01*
X146674376Y-92608237D02*
X146831519Y-92655856D01*
X146831519Y-92655856D02*
X146936281Y-92655856D01*
X146936281Y-92655856D02*
X147093424Y-92608237D01*
X147093424Y-92608237D02*
X147145805Y-92560617D01*
X147145805Y-92560617D02*
X147145805Y-92227284D01*
X147145805Y-92227284D02*
X146936281Y-92227284D01*
X147617233Y-92655856D02*
X147617233Y-91655856D01*
X147617233Y-91655856D02*
X148036281Y-91655856D01*
X148036281Y-91655856D02*
X148141043Y-91703475D01*
X148141043Y-91703475D02*
X148193424Y-91751094D01*
X148193424Y-91751094D02*
X148245805Y-91846332D01*
X148245805Y-91846332D02*
X148245805Y-91989189D01*
X148245805Y-91989189D02*
X148193424Y-92084427D01*
X148193424Y-92084427D02*
X148141043Y-92132046D01*
X148141043Y-92132046D02*
X148036281Y-92179665D01*
X148036281Y-92179665D02*
X147617233Y-92179665D01*
X148717233Y-92655856D02*
X148717233Y-91655856D01*
X149450567Y-91655856D02*
X149660091Y-91655856D01*
X149660091Y-91655856D02*
X149764853Y-91703475D01*
X149764853Y-91703475D02*
X149869615Y-91798713D01*
X149869615Y-91798713D02*
X149921996Y-91989189D01*
X149921996Y-91989189D02*
X149921996Y-92322522D01*
X149921996Y-92322522D02*
X149869615Y-92512998D01*
X149869615Y-92512998D02*
X149764853Y-92608237D01*
X149764853Y-92608237D02*
X149660091Y-92655856D01*
X149660091Y-92655856D02*
X149450567Y-92655856D01*
X149450567Y-92655856D02*
X149345805Y-92608237D01*
X149345805Y-92608237D02*
X149241043Y-92512998D01*
X149241043Y-92512998D02*
X149188662Y-92322522D01*
X149188662Y-92322522D02*
X149188662Y-91989189D01*
X149188662Y-91989189D02*
X149241043Y-91798713D01*
X149241043Y-91798713D02*
X149345805Y-91703475D01*
X149345805Y-91703475D02*
X149450567Y-91655856D01*
X150341043Y-91751094D02*
X150393424Y-91703475D01*
X150393424Y-91703475D02*
X150498186Y-91655856D01*
X150498186Y-91655856D02*
X150760091Y-91655856D01*
X150760091Y-91655856D02*
X150864853Y-91703475D01*
X150864853Y-91703475D02*
X150917234Y-91751094D01*
X150917234Y-91751094D02*
X150969615Y-91846332D01*
X150969615Y-91846332D02*
X150969615Y-91941570D01*
X150969615Y-91941570D02*
X150917234Y-92084427D01*
X150917234Y-92084427D02*
X150288662Y-92655856D01*
X150288662Y-92655856D02*
X150969615Y-92655856D01*
X152017234Y-92655856D02*
X151388662Y-92655856D01*
X151702948Y-92655856D02*
X151702948Y-91655856D01*
X151702948Y-91655856D02*
X151598186Y-91798713D01*
X151598186Y-91798713D02*
X151493424Y-91893951D01*
X151493424Y-91893951D02*
X151388662Y-91941570D01*
X147093424Y-94203475D02*
X146988662Y-94155856D01*
X146988662Y-94155856D02*
X146831519Y-94155856D01*
X146831519Y-94155856D02*
X146674376Y-94203475D01*
X146674376Y-94203475D02*
X146569614Y-94298713D01*
X146569614Y-94298713D02*
X146517233Y-94393951D01*
X146517233Y-94393951D02*
X146464852Y-94584427D01*
X146464852Y-94584427D02*
X146464852Y-94727284D01*
X146464852Y-94727284D02*
X146517233Y-94917760D01*
X146517233Y-94917760D02*
X146569614Y-95012998D01*
X146569614Y-95012998D02*
X146674376Y-95108237D01*
X146674376Y-95108237D02*
X146831519Y-95155856D01*
X146831519Y-95155856D02*
X146936281Y-95155856D01*
X146936281Y-95155856D02*
X147093424Y-95108237D01*
X147093424Y-95108237D02*
X147145805Y-95060617D01*
X147145805Y-95060617D02*
X147145805Y-94727284D01*
X147145805Y-94727284D02*
X146936281Y-94727284D01*
X147617233Y-95155856D02*
X147617233Y-94155856D01*
X147617233Y-94155856D02*
X148036281Y-94155856D01*
X148036281Y-94155856D02*
X148141043Y-94203475D01*
X148141043Y-94203475D02*
X148193424Y-94251094D01*
X148193424Y-94251094D02*
X148245805Y-94346332D01*
X148245805Y-94346332D02*
X148245805Y-94489189D01*
X148245805Y-94489189D02*
X148193424Y-94584427D01*
X148193424Y-94584427D02*
X148141043Y-94632046D01*
X148141043Y-94632046D02*
X148036281Y-94679665D01*
X148036281Y-94679665D02*
X147617233Y-94679665D01*
X148717233Y-95155856D02*
X148717233Y-94155856D01*
X149450567Y-94155856D02*
X149660091Y-94155856D01*
X149660091Y-94155856D02*
X149764853Y-94203475D01*
X149764853Y-94203475D02*
X149869615Y-94298713D01*
X149869615Y-94298713D02*
X149921996Y-94489189D01*
X149921996Y-94489189D02*
X149921996Y-94822522D01*
X149921996Y-94822522D02*
X149869615Y-95012998D01*
X149869615Y-95012998D02*
X149764853Y-95108237D01*
X149764853Y-95108237D02*
X149660091Y-95155856D01*
X149660091Y-95155856D02*
X149450567Y-95155856D01*
X149450567Y-95155856D02*
X149345805Y-95108237D01*
X149345805Y-95108237D02*
X149241043Y-95012998D01*
X149241043Y-95012998D02*
X149188662Y-94822522D01*
X149188662Y-94822522D02*
X149188662Y-94489189D01*
X149188662Y-94489189D02*
X149241043Y-94298713D01*
X149241043Y-94298713D02*
X149345805Y-94203475D01*
X149345805Y-94203475D02*
X149450567Y-94155856D01*
X150969615Y-95155856D02*
X150341043Y-95155856D01*
X150655329Y-95155856D02*
X150655329Y-94155856D01*
X150655329Y-94155856D02*
X150550567Y-94298713D01*
X150550567Y-94298713D02*
X150445805Y-94393951D01*
X150445805Y-94393951D02*
X150341043Y-94441570D01*
X151493424Y-95155856D02*
X151702948Y-95155856D01*
X151702948Y-95155856D02*
X151807710Y-95108237D01*
X151807710Y-95108237D02*
X151860091Y-95060617D01*
X151860091Y-95060617D02*
X151964853Y-94917760D01*
X151964853Y-94917760D02*
X152017234Y-94727284D01*
X152017234Y-94727284D02*
X152017234Y-94346332D01*
X152017234Y-94346332D02*
X151964853Y-94251094D01*
X151964853Y-94251094D02*
X151912472Y-94203475D01*
X151912472Y-94203475D02*
X151807710Y-94155856D01*
X151807710Y-94155856D02*
X151598186Y-94155856D01*
X151598186Y-94155856D02*
X151493424Y-94203475D01*
X151493424Y-94203475D02*
X151441043Y-94251094D01*
X151441043Y-94251094D02*
X151388662Y-94346332D01*
X151388662Y-94346332D02*
X151388662Y-94584427D01*
X151388662Y-94584427D02*
X151441043Y-94679665D01*
X151441043Y-94679665D02*
X151493424Y-94727284D01*
X151493424Y-94727284D02*
X151598186Y-94774903D01*
X151598186Y-94774903D02*
X151807710Y-94774903D01*
X151807710Y-94774903D02*
X151912472Y-94727284D01*
X151912472Y-94727284D02*
X151964853Y-94679665D01*
X151964853Y-94679665D02*
X152017234Y-94584427D01*
X147093424Y-96703475D02*
X146988662Y-96655856D01*
X146988662Y-96655856D02*
X146831519Y-96655856D01*
X146831519Y-96655856D02*
X146674376Y-96703475D01*
X146674376Y-96703475D02*
X146569614Y-96798713D01*
X146569614Y-96798713D02*
X146517233Y-96893951D01*
X146517233Y-96893951D02*
X146464852Y-97084427D01*
X146464852Y-97084427D02*
X146464852Y-97227284D01*
X146464852Y-97227284D02*
X146517233Y-97417760D01*
X146517233Y-97417760D02*
X146569614Y-97512998D01*
X146569614Y-97512998D02*
X146674376Y-97608237D01*
X146674376Y-97608237D02*
X146831519Y-97655856D01*
X146831519Y-97655856D02*
X146936281Y-97655856D01*
X146936281Y-97655856D02*
X147093424Y-97608237D01*
X147093424Y-97608237D02*
X147145805Y-97560617D01*
X147145805Y-97560617D02*
X147145805Y-97227284D01*
X147145805Y-97227284D02*
X146936281Y-97227284D01*
X147617233Y-97655856D02*
X147617233Y-96655856D01*
X147617233Y-96655856D02*
X148036281Y-96655856D01*
X148036281Y-96655856D02*
X148141043Y-96703475D01*
X148141043Y-96703475D02*
X148193424Y-96751094D01*
X148193424Y-96751094D02*
X148245805Y-96846332D01*
X148245805Y-96846332D02*
X148245805Y-96989189D01*
X148245805Y-96989189D02*
X148193424Y-97084427D01*
X148193424Y-97084427D02*
X148141043Y-97132046D01*
X148141043Y-97132046D02*
X148036281Y-97179665D01*
X148036281Y-97179665D02*
X147617233Y-97179665D01*
X148717233Y-97655856D02*
X148717233Y-96655856D01*
X149450567Y-96655856D02*
X149660091Y-96655856D01*
X149660091Y-96655856D02*
X149764853Y-96703475D01*
X149764853Y-96703475D02*
X149869615Y-96798713D01*
X149869615Y-96798713D02*
X149921996Y-96989189D01*
X149921996Y-96989189D02*
X149921996Y-97322522D01*
X149921996Y-97322522D02*
X149869615Y-97512998D01*
X149869615Y-97512998D02*
X149764853Y-97608237D01*
X149764853Y-97608237D02*
X149660091Y-97655856D01*
X149660091Y-97655856D02*
X149450567Y-97655856D01*
X149450567Y-97655856D02*
X149345805Y-97608237D01*
X149345805Y-97608237D02*
X149241043Y-97512998D01*
X149241043Y-97512998D02*
X149188662Y-97322522D01*
X149188662Y-97322522D02*
X149188662Y-96989189D01*
X149188662Y-96989189D02*
X149241043Y-96798713D01*
X149241043Y-96798713D02*
X149345805Y-96703475D01*
X149345805Y-96703475D02*
X149450567Y-96655856D01*
X150969615Y-97655856D02*
X150341043Y-97655856D01*
X150655329Y-97655856D02*
X150655329Y-96655856D01*
X150655329Y-96655856D02*
X150550567Y-96798713D01*
X150550567Y-96798713D02*
X150445805Y-96893951D01*
X150445805Y-96893951D02*
X150341043Y-96941570D01*
X151598186Y-97084427D02*
X151493424Y-97036808D01*
X151493424Y-97036808D02*
X151441043Y-96989189D01*
X151441043Y-96989189D02*
X151388662Y-96893951D01*
X151388662Y-96893951D02*
X151388662Y-96846332D01*
X151388662Y-96846332D02*
X151441043Y-96751094D01*
X151441043Y-96751094D02*
X151493424Y-96703475D01*
X151493424Y-96703475D02*
X151598186Y-96655856D01*
X151598186Y-96655856D02*
X151807710Y-96655856D01*
X151807710Y-96655856D02*
X151912472Y-96703475D01*
X151912472Y-96703475D02*
X151964853Y-96751094D01*
X151964853Y-96751094D02*
X152017234Y-96846332D01*
X152017234Y-96846332D02*
X152017234Y-96893951D01*
X152017234Y-96893951D02*
X151964853Y-96989189D01*
X151964853Y-96989189D02*
X151912472Y-97036808D01*
X151912472Y-97036808D02*
X151807710Y-97084427D01*
X151807710Y-97084427D02*
X151598186Y-97084427D01*
X151598186Y-97084427D02*
X151493424Y-97132046D01*
X151493424Y-97132046D02*
X151441043Y-97179665D01*
X151441043Y-97179665D02*
X151388662Y-97274903D01*
X151388662Y-97274903D02*
X151388662Y-97465379D01*
X151388662Y-97465379D02*
X151441043Y-97560617D01*
X151441043Y-97560617D02*
X151493424Y-97608237D01*
X151493424Y-97608237D02*
X151598186Y-97655856D01*
X151598186Y-97655856D02*
X151807710Y-97655856D01*
X151807710Y-97655856D02*
X151912472Y-97608237D01*
X151912472Y-97608237D02*
X151964853Y-97560617D01*
X151964853Y-97560617D02*
X152017234Y-97465379D01*
X152017234Y-97465379D02*
X152017234Y-97274903D01*
X152017234Y-97274903D02*
X151964853Y-97179665D01*
X151964853Y-97179665D02*
X151912472Y-97132046D01*
X151912472Y-97132046D02*
X151807710Y-97084427D01*
X148093424Y-86203475D02*
X147988662Y-86155856D01*
X147988662Y-86155856D02*
X147831519Y-86155856D01*
X147831519Y-86155856D02*
X147674376Y-86203475D01*
X147674376Y-86203475D02*
X147569614Y-86298713D01*
X147569614Y-86298713D02*
X147517233Y-86393951D01*
X147517233Y-86393951D02*
X147464852Y-86584427D01*
X147464852Y-86584427D02*
X147464852Y-86727284D01*
X147464852Y-86727284D02*
X147517233Y-86917760D01*
X147517233Y-86917760D02*
X147569614Y-87012998D01*
X147569614Y-87012998D02*
X147674376Y-87108237D01*
X147674376Y-87108237D02*
X147831519Y-87155856D01*
X147831519Y-87155856D02*
X147936281Y-87155856D01*
X147936281Y-87155856D02*
X148093424Y-87108237D01*
X148093424Y-87108237D02*
X148145805Y-87060617D01*
X148145805Y-87060617D02*
X148145805Y-86727284D01*
X148145805Y-86727284D02*
X147936281Y-86727284D01*
X148617233Y-87155856D02*
X148617233Y-86155856D01*
X148617233Y-86155856D02*
X149036281Y-86155856D01*
X149036281Y-86155856D02*
X149141043Y-86203475D01*
X149141043Y-86203475D02*
X149193424Y-86251094D01*
X149193424Y-86251094D02*
X149245805Y-86346332D01*
X149245805Y-86346332D02*
X149245805Y-86489189D01*
X149245805Y-86489189D02*
X149193424Y-86584427D01*
X149193424Y-86584427D02*
X149141043Y-86632046D01*
X149141043Y-86632046D02*
X149036281Y-86679665D01*
X149036281Y-86679665D02*
X148617233Y-86679665D01*
X149717233Y-87155856D02*
X149717233Y-86155856D01*
X150450567Y-86155856D02*
X150660091Y-86155856D01*
X150660091Y-86155856D02*
X150764853Y-86203475D01*
X150764853Y-86203475D02*
X150869615Y-86298713D01*
X150869615Y-86298713D02*
X150921996Y-86489189D01*
X150921996Y-86489189D02*
X150921996Y-86822522D01*
X150921996Y-86822522D02*
X150869615Y-87012998D01*
X150869615Y-87012998D02*
X150764853Y-87108237D01*
X150764853Y-87108237D02*
X150660091Y-87155856D01*
X150660091Y-87155856D02*
X150450567Y-87155856D01*
X150450567Y-87155856D02*
X150345805Y-87108237D01*
X150345805Y-87108237D02*
X150241043Y-87012998D01*
X150241043Y-87012998D02*
X150188662Y-86822522D01*
X150188662Y-86822522D02*
X150188662Y-86489189D01*
X150188662Y-86489189D02*
X150241043Y-86298713D01*
X150241043Y-86298713D02*
X150345805Y-86203475D01*
X150345805Y-86203475D02*
X150450567Y-86155856D01*
X151969615Y-87155856D02*
X151341043Y-87155856D01*
X151655329Y-87155856D02*
X151655329Y-86155856D01*
X151655329Y-86155856D02*
X151550567Y-86298713D01*
X151550567Y-86298713D02*
X151445805Y-86393951D01*
X151445805Y-86393951D02*
X151341043Y-86441570D01*
X129593424Y-91703475D02*
X129488662Y-91655856D01*
X129488662Y-91655856D02*
X129331519Y-91655856D01*
X129331519Y-91655856D02*
X129174376Y-91703475D01*
X129174376Y-91703475D02*
X129069614Y-91798713D01*
X129069614Y-91798713D02*
X129017233Y-91893951D01*
X129017233Y-91893951D02*
X128964852Y-92084427D01*
X128964852Y-92084427D02*
X128964852Y-92227284D01*
X128964852Y-92227284D02*
X129017233Y-92417760D01*
X129017233Y-92417760D02*
X129069614Y-92512998D01*
X129069614Y-92512998D02*
X129174376Y-92608237D01*
X129174376Y-92608237D02*
X129331519Y-92655856D01*
X129331519Y-92655856D02*
X129436281Y-92655856D01*
X129436281Y-92655856D02*
X129593424Y-92608237D01*
X129593424Y-92608237D02*
X129645805Y-92560617D01*
X129645805Y-92560617D02*
X129645805Y-92227284D01*
X129645805Y-92227284D02*
X129436281Y-92227284D01*
X130117233Y-92655856D02*
X130117233Y-91655856D01*
X130117233Y-91655856D02*
X130536281Y-91655856D01*
X130536281Y-91655856D02*
X130641043Y-91703475D01*
X130641043Y-91703475D02*
X130693424Y-91751094D01*
X130693424Y-91751094D02*
X130745805Y-91846332D01*
X130745805Y-91846332D02*
X130745805Y-91989189D01*
X130745805Y-91989189D02*
X130693424Y-92084427D01*
X130693424Y-92084427D02*
X130641043Y-92132046D01*
X130641043Y-92132046D02*
X130536281Y-92179665D01*
X130536281Y-92179665D02*
X130117233Y-92179665D01*
X131217233Y-92655856D02*
X131217233Y-91655856D01*
X131950567Y-91655856D02*
X132160091Y-91655856D01*
X132160091Y-91655856D02*
X132264853Y-91703475D01*
X132264853Y-91703475D02*
X132369615Y-91798713D01*
X132369615Y-91798713D02*
X132421996Y-91989189D01*
X132421996Y-91989189D02*
X132421996Y-92322522D01*
X132421996Y-92322522D02*
X132369615Y-92512998D01*
X132369615Y-92512998D02*
X132264853Y-92608237D01*
X132264853Y-92608237D02*
X132160091Y-92655856D01*
X132160091Y-92655856D02*
X131950567Y-92655856D01*
X131950567Y-92655856D02*
X131845805Y-92608237D01*
X131845805Y-92608237D02*
X131741043Y-92512998D01*
X131741043Y-92512998D02*
X131688662Y-92322522D01*
X131688662Y-92322522D02*
X131688662Y-91989189D01*
X131688662Y-91989189D02*
X131741043Y-91798713D01*
X131741043Y-91798713D02*
X131845805Y-91703475D01*
X131845805Y-91703475D02*
X131950567Y-91655856D01*
X132788662Y-91655856D02*
X133469615Y-91655856D01*
X133469615Y-91655856D02*
X133102948Y-92036808D01*
X133102948Y-92036808D02*
X133260091Y-92036808D01*
X133260091Y-92036808D02*
X133364853Y-92084427D01*
X133364853Y-92084427D02*
X133417234Y-92132046D01*
X133417234Y-92132046D02*
X133469615Y-92227284D01*
X133469615Y-92227284D02*
X133469615Y-92465379D01*
X133469615Y-92465379D02*
X133417234Y-92560617D01*
X133417234Y-92560617D02*
X133364853Y-92608237D01*
X133364853Y-92608237D02*
X133260091Y-92655856D01*
X133260091Y-92655856D02*
X132945805Y-92655856D01*
X132945805Y-92655856D02*
X132841043Y-92608237D01*
X132841043Y-92608237D02*
X132788662Y-92560617D01*
X134464853Y-91655856D02*
X133941043Y-91655856D01*
X133941043Y-91655856D02*
X133888662Y-92132046D01*
X133888662Y-92132046D02*
X133941043Y-92084427D01*
X133941043Y-92084427D02*
X134045805Y-92036808D01*
X134045805Y-92036808D02*
X134307710Y-92036808D01*
X134307710Y-92036808D02*
X134412472Y-92084427D01*
X134412472Y-92084427D02*
X134464853Y-92132046D01*
X134464853Y-92132046D02*
X134517234Y-92227284D01*
X134517234Y-92227284D02*
X134517234Y-92465379D01*
X134517234Y-92465379D02*
X134464853Y-92560617D01*
X134464853Y-92560617D02*
X134412472Y-92608237D01*
X134412472Y-92608237D02*
X134307710Y-92655856D01*
X134307710Y-92655856D02*
X134045805Y-92655856D01*
X134045805Y-92655856D02*
X133941043Y-92608237D01*
X133941043Y-92608237D02*
X133888662Y-92560617D01*
X147093424Y-83703475D02*
X146988662Y-83655856D01*
X146988662Y-83655856D02*
X146831519Y-83655856D01*
X146831519Y-83655856D02*
X146674376Y-83703475D01*
X146674376Y-83703475D02*
X146569614Y-83798713D01*
X146569614Y-83798713D02*
X146517233Y-83893951D01*
X146517233Y-83893951D02*
X146464852Y-84084427D01*
X146464852Y-84084427D02*
X146464852Y-84227284D01*
X146464852Y-84227284D02*
X146517233Y-84417760D01*
X146517233Y-84417760D02*
X146569614Y-84512998D01*
X146569614Y-84512998D02*
X146674376Y-84608237D01*
X146674376Y-84608237D02*
X146831519Y-84655856D01*
X146831519Y-84655856D02*
X146936281Y-84655856D01*
X146936281Y-84655856D02*
X147093424Y-84608237D01*
X147093424Y-84608237D02*
X147145805Y-84560617D01*
X147145805Y-84560617D02*
X147145805Y-84227284D01*
X147145805Y-84227284D02*
X146936281Y-84227284D01*
X147617233Y-84655856D02*
X147617233Y-83655856D01*
X147617233Y-83655856D02*
X148036281Y-83655856D01*
X148036281Y-83655856D02*
X148141043Y-83703475D01*
X148141043Y-83703475D02*
X148193424Y-83751094D01*
X148193424Y-83751094D02*
X148245805Y-83846332D01*
X148245805Y-83846332D02*
X148245805Y-83989189D01*
X148245805Y-83989189D02*
X148193424Y-84084427D01*
X148193424Y-84084427D02*
X148141043Y-84132046D01*
X148141043Y-84132046D02*
X148036281Y-84179665D01*
X148036281Y-84179665D02*
X147617233Y-84179665D01*
X148717233Y-84655856D02*
X148717233Y-83655856D01*
X149450567Y-83655856D02*
X149660091Y-83655856D01*
X149660091Y-83655856D02*
X149764853Y-83703475D01*
X149764853Y-83703475D02*
X149869615Y-83798713D01*
X149869615Y-83798713D02*
X149921996Y-83989189D01*
X149921996Y-83989189D02*
X149921996Y-84322522D01*
X149921996Y-84322522D02*
X149869615Y-84512998D01*
X149869615Y-84512998D02*
X149764853Y-84608237D01*
X149764853Y-84608237D02*
X149660091Y-84655856D01*
X149660091Y-84655856D02*
X149450567Y-84655856D01*
X149450567Y-84655856D02*
X149345805Y-84608237D01*
X149345805Y-84608237D02*
X149241043Y-84512998D01*
X149241043Y-84512998D02*
X149188662Y-84322522D01*
X149188662Y-84322522D02*
X149188662Y-83989189D01*
X149188662Y-83989189D02*
X149241043Y-83798713D01*
X149241043Y-83798713D02*
X149345805Y-83703475D01*
X149345805Y-83703475D02*
X149450567Y-83655856D01*
X150341043Y-83751094D02*
X150393424Y-83703475D01*
X150393424Y-83703475D02*
X150498186Y-83655856D01*
X150498186Y-83655856D02*
X150760091Y-83655856D01*
X150760091Y-83655856D02*
X150864853Y-83703475D01*
X150864853Y-83703475D02*
X150917234Y-83751094D01*
X150917234Y-83751094D02*
X150969615Y-83846332D01*
X150969615Y-83846332D02*
X150969615Y-83941570D01*
X150969615Y-83941570D02*
X150917234Y-84084427D01*
X150917234Y-84084427D02*
X150288662Y-84655856D01*
X150288662Y-84655856D02*
X150969615Y-84655856D01*
X151388662Y-83751094D02*
X151441043Y-83703475D01*
X151441043Y-83703475D02*
X151545805Y-83655856D01*
X151545805Y-83655856D02*
X151807710Y-83655856D01*
X151807710Y-83655856D02*
X151912472Y-83703475D01*
X151912472Y-83703475D02*
X151964853Y-83751094D01*
X151964853Y-83751094D02*
X152017234Y-83846332D01*
X152017234Y-83846332D02*
X152017234Y-83941570D01*
X152017234Y-83941570D02*
X151964853Y-84084427D01*
X151964853Y-84084427D02*
X151336281Y-84655856D01*
X151336281Y-84655856D02*
X152017234Y-84655856D01*
X148093424Y-109203475D02*
X147988662Y-109155856D01*
X147988662Y-109155856D02*
X147831519Y-109155856D01*
X147831519Y-109155856D02*
X147674376Y-109203475D01*
X147674376Y-109203475D02*
X147569614Y-109298713D01*
X147569614Y-109298713D02*
X147517233Y-109393951D01*
X147517233Y-109393951D02*
X147464852Y-109584427D01*
X147464852Y-109584427D02*
X147464852Y-109727284D01*
X147464852Y-109727284D02*
X147517233Y-109917760D01*
X147517233Y-109917760D02*
X147569614Y-110012998D01*
X147569614Y-110012998D02*
X147674376Y-110108237D01*
X147674376Y-110108237D02*
X147831519Y-110155856D01*
X147831519Y-110155856D02*
X147936281Y-110155856D01*
X147936281Y-110155856D02*
X148093424Y-110108237D01*
X148093424Y-110108237D02*
X148145805Y-110060617D01*
X148145805Y-110060617D02*
X148145805Y-109727284D01*
X148145805Y-109727284D02*
X147936281Y-109727284D01*
X148617233Y-110155856D02*
X148617233Y-109155856D01*
X148617233Y-109155856D02*
X149036281Y-109155856D01*
X149036281Y-109155856D02*
X149141043Y-109203475D01*
X149141043Y-109203475D02*
X149193424Y-109251094D01*
X149193424Y-109251094D02*
X149245805Y-109346332D01*
X149245805Y-109346332D02*
X149245805Y-109489189D01*
X149245805Y-109489189D02*
X149193424Y-109584427D01*
X149193424Y-109584427D02*
X149141043Y-109632046D01*
X149141043Y-109632046D02*
X149036281Y-109679665D01*
X149036281Y-109679665D02*
X148617233Y-109679665D01*
X149717233Y-110155856D02*
X149717233Y-109155856D01*
X150450567Y-109155856D02*
X150660091Y-109155856D01*
X150660091Y-109155856D02*
X150764853Y-109203475D01*
X150764853Y-109203475D02*
X150869615Y-109298713D01*
X150869615Y-109298713D02*
X150921996Y-109489189D01*
X150921996Y-109489189D02*
X150921996Y-109822522D01*
X150921996Y-109822522D02*
X150869615Y-110012998D01*
X150869615Y-110012998D02*
X150764853Y-110108237D01*
X150764853Y-110108237D02*
X150660091Y-110155856D01*
X150660091Y-110155856D02*
X150450567Y-110155856D01*
X150450567Y-110155856D02*
X150345805Y-110108237D01*
X150345805Y-110108237D02*
X150241043Y-110012998D01*
X150241043Y-110012998D02*
X150188662Y-109822522D01*
X150188662Y-109822522D02*
X150188662Y-109489189D01*
X150188662Y-109489189D02*
X150241043Y-109298713D01*
X150241043Y-109298713D02*
X150345805Y-109203475D01*
X150345805Y-109203475D02*
X150450567Y-109155856D01*
X151341043Y-109251094D02*
X151393424Y-109203475D01*
X151393424Y-109203475D02*
X151498186Y-109155856D01*
X151498186Y-109155856D02*
X151760091Y-109155856D01*
X151760091Y-109155856D02*
X151864853Y-109203475D01*
X151864853Y-109203475D02*
X151917234Y-109251094D01*
X151917234Y-109251094D02*
X151969615Y-109346332D01*
X151969615Y-109346332D02*
X151969615Y-109441570D01*
X151969615Y-109441570D02*
X151917234Y-109584427D01*
X151917234Y-109584427D02*
X151288662Y-110155856D01*
X151288662Y-110155856D02*
X151969615Y-110155856D01*
X129017233Y-82132046D02*
X129383900Y-82132046D01*
X129541043Y-82655856D02*
X129017233Y-82655856D01*
X129017233Y-82655856D02*
X129017233Y-81655856D01*
X129017233Y-81655856D02*
X129541043Y-81655856D01*
X130012471Y-82655856D02*
X130012471Y-81655856D01*
X130012471Y-81655856D02*
X130641043Y-82655856D01*
X130641043Y-82655856D02*
X130641043Y-81655856D01*
X139493424Y-123655856D02*
X139493424Y-124465379D01*
X139493424Y-124465379D02*
X139541043Y-124560617D01*
X139541043Y-124560617D02*
X139588662Y-124608237D01*
X139588662Y-124608237D02*
X139683900Y-124655856D01*
X139683900Y-124655856D02*
X139874376Y-124655856D01*
X139874376Y-124655856D02*
X139969614Y-124608237D01*
X139969614Y-124608237D02*
X140017233Y-124560617D01*
X140017233Y-124560617D02*
X140064852Y-124465379D01*
X140064852Y-124465379D02*
X140064852Y-123655856D01*
X140493424Y-124608237D02*
X140636281Y-124655856D01*
X140636281Y-124655856D02*
X140874376Y-124655856D01*
X140874376Y-124655856D02*
X140969614Y-124608237D01*
X140969614Y-124608237D02*
X141017233Y-124560617D01*
X141017233Y-124560617D02*
X141064852Y-124465379D01*
X141064852Y-124465379D02*
X141064852Y-124370141D01*
X141064852Y-124370141D02*
X141017233Y-124274903D01*
X141017233Y-124274903D02*
X140969614Y-124227284D01*
X140969614Y-124227284D02*
X140874376Y-124179665D01*
X140874376Y-124179665D02*
X140683900Y-124132046D01*
X140683900Y-124132046D02*
X140588662Y-124084427D01*
X140588662Y-124084427D02*
X140541043Y-124036808D01*
X140541043Y-124036808D02*
X140493424Y-123941570D01*
X140493424Y-123941570D02*
X140493424Y-123846332D01*
X140493424Y-123846332D02*
X140541043Y-123751094D01*
X140541043Y-123751094D02*
X140588662Y-123703475D01*
X140588662Y-123703475D02*
X140683900Y-123655856D01*
X140683900Y-123655856D02*
X140921995Y-123655856D01*
X140921995Y-123655856D02*
X141064852Y-123703475D01*
X141826757Y-124132046D02*
X141969614Y-124179665D01*
X141969614Y-124179665D02*
X142017233Y-124227284D01*
X142017233Y-124227284D02*
X142064852Y-124322522D01*
X142064852Y-124322522D02*
X142064852Y-124465379D01*
X142064852Y-124465379D02*
X142017233Y-124560617D01*
X142017233Y-124560617D02*
X141969614Y-124608237D01*
X141969614Y-124608237D02*
X141874376Y-124655856D01*
X141874376Y-124655856D02*
X141493424Y-124655856D01*
X141493424Y-124655856D02*
X141493424Y-123655856D01*
X141493424Y-123655856D02*
X141826757Y-123655856D01*
X141826757Y-123655856D02*
X141921995Y-123703475D01*
X141921995Y-123703475D02*
X141969614Y-123751094D01*
X141969614Y-123751094D02*
X142017233Y-123846332D01*
X142017233Y-123846332D02*
X142017233Y-123941570D01*
X142017233Y-123941570D02*
X141969614Y-124036808D01*
X141969614Y-124036808D02*
X141921995Y-124084427D01*
X141921995Y-124084427D02*
X141826757Y-124132046D01*
X141826757Y-124132046D02*
X141493424Y-124132046D01*
X129593424Y-94203475D02*
X129488662Y-94155856D01*
X129488662Y-94155856D02*
X129331519Y-94155856D01*
X129331519Y-94155856D02*
X129174376Y-94203475D01*
X129174376Y-94203475D02*
X129069614Y-94298713D01*
X129069614Y-94298713D02*
X129017233Y-94393951D01*
X129017233Y-94393951D02*
X128964852Y-94584427D01*
X128964852Y-94584427D02*
X128964852Y-94727284D01*
X128964852Y-94727284D02*
X129017233Y-94917760D01*
X129017233Y-94917760D02*
X129069614Y-95012998D01*
X129069614Y-95012998D02*
X129174376Y-95108237D01*
X129174376Y-95108237D02*
X129331519Y-95155856D01*
X129331519Y-95155856D02*
X129436281Y-95155856D01*
X129436281Y-95155856D02*
X129593424Y-95108237D01*
X129593424Y-95108237D02*
X129645805Y-95060617D01*
X129645805Y-95060617D02*
X129645805Y-94727284D01*
X129645805Y-94727284D02*
X129436281Y-94727284D01*
X130117233Y-95155856D02*
X130117233Y-94155856D01*
X130117233Y-94155856D02*
X130536281Y-94155856D01*
X130536281Y-94155856D02*
X130641043Y-94203475D01*
X130641043Y-94203475D02*
X130693424Y-94251094D01*
X130693424Y-94251094D02*
X130745805Y-94346332D01*
X130745805Y-94346332D02*
X130745805Y-94489189D01*
X130745805Y-94489189D02*
X130693424Y-94584427D01*
X130693424Y-94584427D02*
X130641043Y-94632046D01*
X130641043Y-94632046D02*
X130536281Y-94679665D01*
X130536281Y-94679665D02*
X130117233Y-94679665D01*
X131217233Y-95155856D02*
X131217233Y-94155856D01*
X131950567Y-94155856D02*
X132160091Y-94155856D01*
X132160091Y-94155856D02*
X132264853Y-94203475D01*
X132264853Y-94203475D02*
X132369615Y-94298713D01*
X132369615Y-94298713D02*
X132421996Y-94489189D01*
X132421996Y-94489189D02*
X132421996Y-94822522D01*
X132421996Y-94822522D02*
X132369615Y-95012998D01*
X132369615Y-95012998D02*
X132264853Y-95108237D01*
X132264853Y-95108237D02*
X132160091Y-95155856D01*
X132160091Y-95155856D02*
X131950567Y-95155856D01*
X131950567Y-95155856D02*
X131845805Y-95108237D01*
X131845805Y-95108237D02*
X131741043Y-95012998D01*
X131741043Y-95012998D02*
X131688662Y-94822522D01*
X131688662Y-94822522D02*
X131688662Y-94489189D01*
X131688662Y-94489189D02*
X131741043Y-94298713D01*
X131741043Y-94298713D02*
X131845805Y-94203475D01*
X131845805Y-94203475D02*
X131950567Y-94155856D01*
X132788662Y-94155856D02*
X133469615Y-94155856D01*
X133469615Y-94155856D02*
X133102948Y-94536808D01*
X133102948Y-94536808D02*
X133260091Y-94536808D01*
X133260091Y-94536808D02*
X133364853Y-94584427D01*
X133364853Y-94584427D02*
X133417234Y-94632046D01*
X133417234Y-94632046D02*
X133469615Y-94727284D01*
X133469615Y-94727284D02*
X133469615Y-94965379D01*
X133469615Y-94965379D02*
X133417234Y-95060617D01*
X133417234Y-95060617D02*
X133364853Y-95108237D01*
X133364853Y-95108237D02*
X133260091Y-95155856D01*
X133260091Y-95155856D02*
X132945805Y-95155856D01*
X132945805Y-95155856D02*
X132841043Y-95108237D01*
X132841043Y-95108237D02*
X132788662Y-95060617D01*
X133888662Y-94251094D02*
X133941043Y-94203475D01*
X133941043Y-94203475D02*
X134045805Y-94155856D01*
X134045805Y-94155856D02*
X134307710Y-94155856D01*
X134307710Y-94155856D02*
X134412472Y-94203475D01*
X134412472Y-94203475D02*
X134464853Y-94251094D01*
X134464853Y-94251094D02*
X134517234Y-94346332D01*
X134517234Y-94346332D02*
X134517234Y-94441570D01*
X134517234Y-94441570D02*
X134464853Y-94584427D01*
X134464853Y-94584427D02*
X133836281Y-95155856D01*
X133836281Y-95155856D02*
X134517234Y-95155856D01*
X129593424Y-86703475D02*
X129488662Y-86655856D01*
X129488662Y-86655856D02*
X129331519Y-86655856D01*
X129331519Y-86655856D02*
X129174376Y-86703475D01*
X129174376Y-86703475D02*
X129069614Y-86798713D01*
X129069614Y-86798713D02*
X129017233Y-86893951D01*
X129017233Y-86893951D02*
X128964852Y-87084427D01*
X128964852Y-87084427D02*
X128964852Y-87227284D01*
X128964852Y-87227284D02*
X129017233Y-87417760D01*
X129017233Y-87417760D02*
X129069614Y-87512998D01*
X129069614Y-87512998D02*
X129174376Y-87608237D01*
X129174376Y-87608237D02*
X129331519Y-87655856D01*
X129331519Y-87655856D02*
X129436281Y-87655856D01*
X129436281Y-87655856D02*
X129593424Y-87608237D01*
X129593424Y-87608237D02*
X129645805Y-87560617D01*
X129645805Y-87560617D02*
X129645805Y-87227284D01*
X129645805Y-87227284D02*
X129436281Y-87227284D01*
X130117233Y-87655856D02*
X130117233Y-86655856D01*
X130117233Y-86655856D02*
X130536281Y-86655856D01*
X130536281Y-86655856D02*
X130641043Y-86703475D01*
X130641043Y-86703475D02*
X130693424Y-86751094D01*
X130693424Y-86751094D02*
X130745805Y-86846332D01*
X130745805Y-86846332D02*
X130745805Y-86989189D01*
X130745805Y-86989189D02*
X130693424Y-87084427D01*
X130693424Y-87084427D02*
X130641043Y-87132046D01*
X130641043Y-87132046D02*
X130536281Y-87179665D01*
X130536281Y-87179665D02*
X130117233Y-87179665D01*
X131217233Y-87655856D02*
X131217233Y-86655856D01*
X131950567Y-86655856D02*
X132160091Y-86655856D01*
X132160091Y-86655856D02*
X132264853Y-86703475D01*
X132264853Y-86703475D02*
X132369615Y-86798713D01*
X132369615Y-86798713D02*
X132421996Y-86989189D01*
X132421996Y-86989189D02*
X132421996Y-87322522D01*
X132421996Y-87322522D02*
X132369615Y-87512998D01*
X132369615Y-87512998D02*
X132264853Y-87608237D01*
X132264853Y-87608237D02*
X132160091Y-87655856D01*
X132160091Y-87655856D02*
X131950567Y-87655856D01*
X131950567Y-87655856D02*
X131845805Y-87608237D01*
X131845805Y-87608237D02*
X131741043Y-87512998D01*
X131741043Y-87512998D02*
X131688662Y-87322522D01*
X131688662Y-87322522D02*
X131688662Y-86989189D01*
X131688662Y-86989189D02*
X131741043Y-86798713D01*
X131741043Y-86798713D02*
X131845805Y-86703475D01*
X131845805Y-86703475D02*
X131950567Y-86655856D01*
X132788662Y-86655856D02*
X133469615Y-86655856D01*
X133469615Y-86655856D02*
X133102948Y-87036808D01*
X133102948Y-87036808D02*
X133260091Y-87036808D01*
X133260091Y-87036808D02*
X133364853Y-87084427D01*
X133364853Y-87084427D02*
X133417234Y-87132046D01*
X133417234Y-87132046D02*
X133469615Y-87227284D01*
X133469615Y-87227284D02*
X133469615Y-87465379D01*
X133469615Y-87465379D02*
X133417234Y-87560617D01*
X133417234Y-87560617D02*
X133364853Y-87608237D01*
X133364853Y-87608237D02*
X133260091Y-87655856D01*
X133260091Y-87655856D02*
X132945805Y-87655856D01*
X132945805Y-87655856D02*
X132841043Y-87608237D01*
X132841043Y-87608237D02*
X132788662Y-87560617D01*
X133993424Y-87655856D02*
X134202948Y-87655856D01*
X134202948Y-87655856D02*
X134307710Y-87608237D01*
X134307710Y-87608237D02*
X134360091Y-87560617D01*
X134360091Y-87560617D02*
X134464853Y-87417760D01*
X134464853Y-87417760D02*
X134517234Y-87227284D01*
X134517234Y-87227284D02*
X134517234Y-86846332D01*
X134517234Y-86846332D02*
X134464853Y-86751094D01*
X134464853Y-86751094D02*
X134412472Y-86703475D01*
X134412472Y-86703475D02*
X134307710Y-86655856D01*
X134307710Y-86655856D02*
X134098186Y-86655856D01*
X134098186Y-86655856D02*
X133993424Y-86703475D01*
X133993424Y-86703475D02*
X133941043Y-86751094D01*
X133941043Y-86751094D02*
X133888662Y-86846332D01*
X133888662Y-86846332D02*
X133888662Y-87084427D01*
X133888662Y-87084427D02*
X133941043Y-87179665D01*
X133941043Y-87179665D02*
X133993424Y-87227284D01*
X133993424Y-87227284D02*
X134098186Y-87274903D01*
X134098186Y-87274903D02*
X134307710Y-87274903D01*
X134307710Y-87274903D02*
X134412472Y-87227284D01*
X134412472Y-87227284D02*
X134464853Y-87179665D01*
X134464853Y-87179665D02*
X134517234Y-87084427D01*
X149593424Y-114203475D02*
X149488662Y-114155856D01*
X149488662Y-114155856D02*
X149331519Y-114155856D01*
X149331519Y-114155856D02*
X149174376Y-114203475D01*
X149174376Y-114203475D02*
X149069614Y-114298713D01*
X149069614Y-114298713D02*
X149017233Y-114393951D01*
X149017233Y-114393951D02*
X148964852Y-114584427D01*
X148964852Y-114584427D02*
X148964852Y-114727284D01*
X148964852Y-114727284D02*
X149017233Y-114917760D01*
X149017233Y-114917760D02*
X149069614Y-115012998D01*
X149069614Y-115012998D02*
X149174376Y-115108237D01*
X149174376Y-115108237D02*
X149331519Y-115155856D01*
X149331519Y-115155856D02*
X149436281Y-115155856D01*
X149436281Y-115155856D02*
X149593424Y-115108237D01*
X149593424Y-115108237D02*
X149645805Y-115060617D01*
X149645805Y-115060617D02*
X149645805Y-114727284D01*
X149645805Y-114727284D02*
X149436281Y-114727284D01*
X150117233Y-115155856D02*
X150117233Y-114155856D01*
X150117233Y-114155856D02*
X150745805Y-115155856D01*
X150745805Y-115155856D02*
X150745805Y-114155856D01*
X151269614Y-115155856D02*
X151269614Y-114155856D01*
X151269614Y-114155856D02*
X151531519Y-114155856D01*
X151531519Y-114155856D02*
X151688662Y-114203475D01*
X151688662Y-114203475D02*
X151793424Y-114298713D01*
X151793424Y-114298713D02*
X151845805Y-114393951D01*
X151845805Y-114393951D02*
X151898186Y-114584427D01*
X151898186Y-114584427D02*
X151898186Y-114727284D01*
X151898186Y-114727284D02*
X151845805Y-114917760D01*
X151845805Y-114917760D02*
X151793424Y-115012998D01*
X151793424Y-115012998D02*
X151688662Y-115108237D01*
X151688662Y-115108237D02*
X151531519Y-115155856D01*
X151531519Y-115155856D02*
X151269614Y-115155856D01*
X129593424Y-109203475D02*
X129488662Y-109155856D01*
X129488662Y-109155856D02*
X129331519Y-109155856D01*
X129331519Y-109155856D02*
X129174376Y-109203475D01*
X129174376Y-109203475D02*
X129069614Y-109298713D01*
X129069614Y-109298713D02*
X129017233Y-109393951D01*
X129017233Y-109393951D02*
X128964852Y-109584427D01*
X128964852Y-109584427D02*
X128964852Y-109727284D01*
X128964852Y-109727284D02*
X129017233Y-109917760D01*
X129017233Y-109917760D02*
X129069614Y-110012998D01*
X129069614Y-110012998D02*
X129174376Y-110108237D01*
X129174376Y-110108237D02*
X129331519Y-110155856D01*
X129331519Y-110155856D02*
X129436281Y-110155856D01*
X129436281Y-110155856D02*
X129593424Y-110108237D01*
X129593424Y-110108237D02*
X129645805Y-110060617D01*
X129645805Y-110060617D02*
X129645805Y-109727284D01*
X129645805Y-109727284D02*
X129436281Y-109727284D01*
X130117233Y-110155856D02*
X130117233Y-109155856D01*
X130117233Y-109155856D02*
X130536281Y-109155856D01*
X130536281Y-109155856D02*
X130641043Y-109203475D01*
X130641043Y-109203475D02*
X130693424Y-109251094D01*
X130693424Y-109251094D02*
X130745805Y-109346332D01*
X130745805Y-109346332D02*
X130745805Y-109489189D01*
X130745805Y-109489189D02*
X130693424Y-109584427D01*
X130693424Y-109584427D02*
X130641043Y-109632046D01*
X130641043Y-109632046D02*
X130536281Y-109679665D01*
X130536281Y-109679665D02*
X130117233Y-109679665D01*
X131217233Y-110155856D02*
X131217233Y-109155856D01*
X131950567Y-109155856D02*
X132160091Y-109155856D01*
X132160091Y-109155856D02*
X132264853Y-109203475D01*
X132264853Y-109203475D02*
X132369615Y-109298713D01*
X132369615Y-109298713D02*
X132421996Y-109489189D01*
X132421996Y-109489189D02*
X132421996Y-109822522D01*
X132421996Y-109822522D02*
X132369615Y-110012998D01*
X132369615Y-110012998D02*
X132264853Y-110108237D01*
X132264853Y-110108237D02*
X132160091Y-110155856D01*
X132160091Y-110155856D02*
X131950567Y-110155856D01*
X131950567Y-110155856D02*
X131845805Y-110108237D01*
X131845805Y-110108237D02*
X131741043Y-110012998D01*
X131741043Y-110012998D02*
X131688662Y-109822522D01*
X131688662Y-109822522D02*
X131688662Y-109489189D01*
X131688662Y-109489189D02*
X131741043Y-109298713D01*
X131741043Y-109298713D02*
X131845805Y-109203475D01*
X131845805Y-109203475D02*
X131950567Y-109155856D01*
X133469615Y-110155856D02*
X132841043Y-110155856D01*
X133155329Y-110155856D02*
X133155329Y-109155856D01*
X133155329Y-109155856D02*
X133050567Y-109298713D01*
X133050567Y-109298713D02*
X132945805Y-109393951D01*
X132945805Y-109393951D02*
X132841043Y-109441570D01*
X133888662Y-109251094D02*
X133941043Y-109203475D01*
X133941043Y-109203475D02*
X134045805Y-109155856D01*
X134045805Y-109155856D02*
X134307710Y-109155856D01*
X134307710Y-109155856D02*
X134412472Y-109203475D01*
X134412472Y-109203475D02*
X134464853Y-109251094D01*
X134464853Y-109251094D02*
X134517234Y-109346332D01*
X134517234Y-109346332D02*
X134517234Y-109441570D01*
X134517234Y-109441570D02*
X134464853Y-109584427D01*
X134464853Y-109584427D02*
X133836281Y-110155856D01*
X133836281Y-110155856D02*
X134517234Y-110155856D01*
X148093424Y-106703475D02*
X147988662Y-106655856D01*
X147988662Y-106655856D02*
X147831519Y-106655856D01*
X147831519Y-106655856D02*
X147674376Y-106703475D01*
X147674376Y-106703475D02*
X147569614Y-106798713D01*
X147569614Y-106798713D02*
X147517233Y-106893951D01*
X147517233Y-106893951D02*
X147464852Y-107084427D01*
X147464852Y-107084427D02*
X147464852Y-107227284D01*
X147464852Y-107227284D02*
X147517233Y-107417760D01*
X147517233Y-107417760D02*
X147569614Y-107512998D01*
X147569614Y-107512998D02*
X147674376Y-107608237D01*
X147674376Y-107608237D02*
X147831519Y-107655856D01*
X147831519Y-107655856D02*
X147936281Y-107655856D01*
X147936281Y-107655856D02*
X148093424Y-107608237D01*
X148093424Y-107608237D02*
X148145805Y-107560617D01*
X148145805Y-107560617D02*
X148145805Y-107227284D01*
X148145805Y-107227284D02*
X147936281Y-107227284D01*
X148617233Y-107655856D02*
X148617233Y-106655856D01*
X148617233Y-106655856D02*
X149036281Y-106655856D01*
X149036281Y-106655856D02*
X149141043Y-106703475D01*
X149141043Y-106703475D02*
X149193424Y-106751094D01*
X149193424Y-106751094D02*
X149245805Y-106846332D01*
X149245805Y-106846332D02*
X149245805Y-106989189D01*
X149245805Y-106989189D02*
X149193424Y-107084427D01*
X149193424Y-107084427D02*
X149141043Y-107132046D01*
X149141043Y-107132046D02*
X149036281Y-107179665D01*
X149036281Y-107179665D02*
X148617233Y-107179665D01*
X149717233Y-107655856D02*
X149717233Y-106655856D01*
X150450567Y-106655856D02*
X150660091Y-106655856D01*
X150660091Y-106655856D02*
X150764853Y-106703475D01*
X150764853Y-106703475D02*
X150869615Y-106798713D01*
X150869615Y-106798713D02*
X150921996Y-106989189D01*
X150921996Y-106989189D02*
X150921996Y-107322522D01*
X150921996Y-107322522D02*
X150869615Y-107512998D01*
X150869615Y-107512998D02*
X150764853Y-107608237D01*
X150764853Y-107608237D02*
X150660091Y-107655856D01*
X150660091Y-107655856D02*
X150450567Y-107655856D01*
X150450567Y-107655856D02*
X150345805Y-107608237D01*
X150345805Y-107608237D02*
X150241043Y-107512998D01*
X150241043Y-107512998D02*
X150188662Y-107322522D01*
X150188662Y-107322522D02*
X150188662Y-106989189D01*
X150188662Y-106989189D02*
X150241043Y-106798713D01*
X150241043Y-106798713D02*
X150345805Y-106703475D01*
X150345805Y-106703475D02*
X150450567Y-106655856D01*
X151864853Y-106989189D02*
X151864853Y-107655856D01*
X151602948Y-106608237D02*
X151341043Y-107322522D01*
X151341043Y-107322522D02*
X152021996Y-107322522D01*
X129593424Y-96703475D02*
X129488662Y-96655856D01*
X129488662Y-96655856D02*
X129331519Y-96655856D01*
X129331519Y-96655856D02*
X129174376Y-96703475D01*
X129174376Y-96703475D02*
X129069614Y-96798713D01*
X129069614Y-96798713D02*
X129017233Y-96893951D01*
X129017233Y-96893951D02*
X128964852Y-97084427D01*
X128964852Y-97084427D02*
X128964852Y-97227284D01*
X128964852Y-97227284D02*
X129017233Y-97417760D01*
X129017233Y-97417760D02*
X129069614Y-97512998D01*
X129069614Y-97512998D02*
X129174376Y-97608237D01*
X129174376Y-97608237D02*
X129331519Y-97655856D01*
X129331519Y-97655856D02*
X129436281Y-97655856D01*
X129436281Y-97655856D02*
X129593424Y-97608237D01*
X129593424Y-97608237D02*
X129645805Y-97560617D01*
X129645805Y-97560617D02*
X129645805Y-97227284D01*
X129645805Y-97227284D02*
X129436281Y-97227284D01*
X130117233Y-97655856D02*
X130117233Y-96655856D01*
X130117233Y-96655856D02*
X130536281Y-96655856D01*
X130536281Y-96655856D02*
X130641043Y-96703475D01*
X130641043Y-96703475D02*
X130693424Y-96751094D01*
X130693424Y-96751094D02*
X130745805Y-96846332D01*
X130745805Y-96846332D02*
X130745805Y-96989189D01*
X130745805Y-96989189D02*
X130693424Y-97084427D01*
X130693424Y-97084427D02*
X130641043Y-97132046D01*
X130641043Y-97132046D02*
X130536281Y-97179665D01*
X130536281Y-97179665D02*
X130117233Y-97179665D01*
X131217233Y-97655856D02*
X131217233Y-96655856D01*
X131950567Y-96655856D02*
X132160091Y-96655856D01*
X132160091Y-96655856D02*
X132264853Y-96703475D01*
X132264853Y-96703475D02*
X132369615Y-96798713D01*
X132369615Y-96798713D02*
X132421996Y-96989189D01*
X132421996Y-96989189D02*
X132421996Y-97322522D01*
X132421996Y-97322522D02*
X132369615Y-97512998D01*
X132369615Y-97512998D02*
X132264853Y-97608237D01*
X132264853Y-97608237D02*
X132160091Y-97655856D01*
X132160091Y-97655856D02*
X131950567Y-97655856D01*
X131950567Y-97655856D02*
X131845805Y-97608237D01*
X131845805Y-97608237D02*
X131741043Y-97512998D01*
X131741043Y-97512998D02*
X131688662Y-97322522D01*
X131688662Y-97322522D02*
X131688662Y-96989189D01*
X131688662Y-96989189D02*
X131741043Y-96798713D01*
X131741043Y-96798713D02*
X131845805Y-96703475D01*
X131845805Y-96703475D02*
X131950567Y-96655856D01*
X132788662Y-96655856D02*
X133469615Y-96655856D01*
X133469615Y-96655856D02*
X133102948Y-97036808D01*
X133102948Y-97036808D02*
X133260091Y-97036808D01*
X133260091Y-97036808D02*
X133364853Y-97084427D01*
X133364853Y-97084427D02*
X133417234Y-97132046D01*
X133417234Y-97132046D02*
X133469615Y-97227284D01*
X133469615Y-97227284D02*
X133469615Y-97465379D01*
X133469615Y-97465379D02*
X133417234Y-97560617D01*
X133417234Y-97560617D02*
X133364853Y-97608237D01*
X133364853Y-97608237D02*
X133260091Y-97655856D01*
X133260091Y-97655856D02*
X132945805Y-97655856D01*
X132945805Y-97655856D02*
X132841043Y-97608237D01*
X132841043Y-97608237D02*
X132788662Y-97560617D01*
X133836281Y-96655856D02*
X134517234Y-96655856D01*
X134517234Y-96655856D02*
X134150567Y-97036808D01*
X134150567Y-97036808D02*
X134307710Y-97036808D01*
X134307710Y-97036808D02*
X134412472Y-97084427D01*
X134412472Y-97084427D02*
X134464853Y-97132046D01*
X134464853Y-97132046D02*
X134517234Y-97227284D01*
X134517234Y-97227284D02*
X134517234Y-97465379D01*
X134517234Y-97465379D02*
X134464853Y-97560617D01*
X134464853Y-97560617D02*
X134412472Y-97608237D01*
X134412472Y-97608237D02*
X134307710Y-97655856D01*
X134307710Y-97655856D02*
X133993424Y-97655856D01*
X133993424Y-97655856D02*
X133888662Y-97608237D01*
X133888662Y-97608237D02*
X133836281Y-97560617D01*
X129593424Y-111703475D02*
X129488662Y-111655856D01*
X129488662Y-111655856D02*
X129331519Y-111655856D01*
X129331519Y-111655856D02*
X129174376Y-111703475D01*
X129174376Y-111703475D02*
X129069614Y-111798713D01*
X129069614Y-111798713D02*
X129017233Y-111893951D01*
X129017233Y-111893951D02*
X128964852Y-112084427D01*
X128964852Y-112084427D02*
X128964852Y-112227284D01*
X128964852Y-112227284D02*
X129017233Y-112417760D01*
X129017233Y-112417760D02*
X129069614Y-112512998D01*
X129069614Y-112512998D02*
X129174376Y-112608237D01*
X129174376Y-112608237D02*
X129331519Y-112655856D01*
X129331519Y-112655856D02*
X129436281Y-112655856D01*
X129436281Y-112655856D02*
X129593424Y-112608237D01*
X129593424Y-112608237D02*
X129645805Y-112560617D01*
X129645805Y-112560617D02*
X129645805Y-112227284D01*
X129645805Y-112227284D02*
X129436281Y-112227284D01*
X130117233Y-112655856D02*
X130117233Y-111655856D01*
X130117233Y-111655856D02*
X130536281Y-111655856D01*
X130536281Y-111655856D02*
X130641043Y-111703475D01*
X130641043Y-111703475D02*
X130693424Y-111751094D01*
X130693424Y-111751094D02*
X130745805Y-111846332D01*
X130745805Y-111846332D02*
X130745805Y-111989189D01*
X130745805Y-111989189D02*
X130693424Y-112084427D01*
X130693424Y-112084427D02*
X130641043Y-112132046D01*
X130641043Y-112132046D02*
X130536281Y-112179665D01*
X130536281Y-112179665D02*
X130117233Y-112179665D01*
X131217233Y-112655856D02*
X131217233Y-111655856D01*
X131950567Y-111655856D02*
X132160091Y-111655856D01*
X132160091Y-111655856D02*
X132264853Y-111703475D01*
X132264853Y-111703475D02*
X132369615Y-111798713D01*
X132369615Y-111798713D02*
X132421996Y-111989189D01*
X132421996Y-111989189D02*
X132421996Y-112322522D01*
X132421996Y-112322522D02*
X132369615Y-112512998D01*
X132369615Y-112512998D02*
X132264853Y-112608237D01*
X132264853Y-112608237D02*
X132160091Y-112655856D01*
X132160091Y-112655856D02*
X131950567Y-112655856D01*
X131950567Y-112655856D02*
X131845805Y-112608237D01*
X131845805Y-112608237D02*
X131741043Y-112512998D01*
X131741043Y-112512998D02*
X131688662Y-112322522D01*
X131688662Y-112322522D02*
X131688662Y-111989189D01*
X131688662Y-111989189D02*
X131741043Y-111798713D01*
X131741043Y-111798713D02*
X131845805Y-111703475D01*
X131845805Y-111703475D02*
X131950567Y-111655856D01*
X133469615Y-112655856D02*
X132841043Y-112655856D01*
X133155329Y-112655856D02*
X133155329Y-111655856D01*
X133155329Y-111655856D02*
X133050567Y-111798713D01*
X133050567Y-111798713D02*
X132945805Y-111893951D01*
X132945805Y-111893951D02*
X132841043Y-111941570D01*
X133836281Y-111655856D02*
X134517234Y-111655856D01*
X134517234Y-111655856D02*
X134150567Y-112036808D01*
X134150567Y-112036808D02*
X134307710Y-112036808D01*
X134307710Y-112036808D02*
X134412472Y-112084427D01*
X134412472Y-112084427D02*
X134464853Y-112132046D01*
X134464853Y-112132046D02*
X134517234Y-112227284D01*
X134517234Y-112227284D02*
X134517234Y-112465379D01*
X134517234Y-112465379D02*
X134464853Y-112560617D01*
X134464853Y-112560617D02*
X134412472Y-112608237D01*
X134412472Y-112608237D02*
X134307710Y-112655856D01*
X134307710Y-112655856D02*
X133993424Y-112655856D01*
X133993424Y-112655856D02*
X133888662Y-112608237D01*
X133888662Y-112608237D02*
X133836281Y-112560617D01*
X129593424Y-104203475D02*
X129488662Y-104155856D01*
X129488662Y-104155856D02*
X129331519Y-104155856D01*
X129331519Y-104155856D02*
X129174376Y-104203475D01*
X129174376Y-104203475D02*
X129069614Y-104298713D01*
X129069614Y-104298713D02*
X129017233Y-104393951D01*
X129017233Y-104393951D02*
X128964852Y-104584427D01*
X128964852Y-104584427D02*
X128964852Y-104727284D01*
X128964852Y-104727284D02*
X129017233Y-104917760D01*
X129017233Y-104917760D02*
X129069614Y-105012998D01*
X129069614Y-105012998D02*
X129174376Y-105108237D01*
X129174376Y-105108237D02*
X129331519Y-105155856D01*
X129331519Y-105155856D02*
X129436281Y-105155856D01*
X129436281Y-105155856D02*
X129593424Y-105108237D01*
X129593424Y-105108237D02*
X129645805Y-105060617D01*
X129645805Y-105060617D02*
X129645805Y-104727284D01*
X129645805Y-104727284D02*
X129436281Y-104727284D01*
X130117233Y-105155856D02*
X130117233Y-104155856D01*
X130117233Y-104155856D02*
X130536281Y-104155856D01*
X130536281Y-104155856D02*
X130641043Y-104203475D01*
X130641043Y-104203475D02*
X130693424Y-104251094D01*
X130693424Y-104251094D02*
X130745805Y-104346332D01*
X130745805Y-104346332D02*
X130745805Y-104489189D01*
X130745805Y-104489189D02*
X130693424Y-104584427D01*
X130693424Y-104584427D02*
X130641043Y-104632046D01*
X130641043Y-104632046D02*
X130536281Y-104679665D01*
X130536281Y-104679665D02*
X130117233Y-104679665D01*
X131217233Y-105155856D02*
X131217233Y-104155856D01*
X131950567Y-104155856D02*
X132160091Y-104155856D01*
X132160091Y-104155856D02*
X132264853Y-104203475D01*
X132264853Y-104203475D02*
X132369615Y-104298713D01*
X132369615Y-104298713D02*
X132421996Y-104489189D01*
X132421996Y-104489189D02*
X132421996Y-104822522D01*
X132421996Y-104822522D02*
X132369615Y-105012998D01*
X132369615Y-105012998D02*
X132264853Y-105108237D01*
X132264853Y-105108237D02*
X132160091Y-105155856D01*
X132160091Y-105155856D02*
X131950567Y-105155856D01*
X131950567Y-105155856D02*
X131845805Y-105108237D01*
X131845805Y-105108237D02*
X131741043Y-105012998D01*
X131741043Y-105012998D02*
X131688662Y-104822522D01*
X131688662Y-104822522D02*
X131688662Y-104489189D01*
X131688662Y-104489189D02*
X131741043Y-104298713D01*
X131741043Y-104298713D02*
X131845805Y-104203475D01*
X131845805Y-104203475D02*
X131950567Y-104155856D01*
X132841043Y-104251094D02*
X132893424Y-104203475D01*
X132893424Y-104203475D02*
X132998186Y-104155856D01*
X132998186Y-104155856D02*
X133260091Y-104155856D01*
X133260091Y-104155856D02*
X133364853Y-104203475D01*
X133364853Y-104203475D02*
X133417234Y-104251094D01*
X133417234Y-104251094D02*
X133469615Y-104346332D01*
X133469615Y-104346332D02*
X133469615Y-104441570D01*
X133469615Y-104441570D02*
X133417234Y-104584427D01*
X133417234Y-104584427D02*
X132788662Y-105155856D01*
X132788662Y-105155856D02*
X133469615Y-105155856D01*
X133836281Y-104155856D02*
X134569615Y-104155856D01*
X134569615Y-104155856D02*
X134098186Y-105155856D01*
X129593424Y-106703475D02*
X129488662Y-106655856D01*
X129488662Y-106655856D02*
X129331519Y-106655856D01*
X129331519Y-106655856D02*
X129174376Y-106703475D01*
X129174376Y-106703475D02*
X129069614Y-106798713D01*
X129069614Y-106798713D02*
X129017233Y-106893951D01*
X129017233Y-106893951D02*
X128964852Y-107084427D01*
X128964852Y-107084427D02*
X128964852Y-107227284D01*
X128964852Y-107227284D02*
X129017233Y-107417760D01*
X129017233Y-107417760D02*
X129069614Y-107512998D01*
X129069614Y-107512998D02*
X129174376Y-107608237D01*
X129174376Y-107608237D02*
X129331519Y-107655856D01*
X129331519Y-107655856D02*
X129436281Y-107655856D01*
X129436281Y-107655856D02*
X129593424Y-107608237D01*
X129593424Y-107608237D02*
X129645805Y-107560617D01*
X129645805Y-107560617D02*
X129645805Y-107227284D01*
X129645805Y-107227284D02*
X129436281Y-107227284D01*
X130117233Y-107655856D02*
X130117233Y-106655856D01*
X130117233Y-106655856D02*
X130536281Y-106655856D01*
X130536281Y-106655856D02*
X130641043Y-106703475D01*
X130641043Y-106703475D02*
X130693424Y-106751094D01*
X130693424Y-106751094D02*
X130745805Y-106846332D01*
X130745805Y-106846332D02*
X130745805Y-106989189D01*
X130745805Y-106989189D02*
X130693424Y-107084427D01*
X130693424Y-107084427D02*
X130641043Y-107132046D01*
X130641043Y-107132046D02*
X130536281Y-107179665D01*
X130536281Y-107179665D02*
X130117233Y-107179665D01*
X131217233Y-107655856D02*
X131217233Y-106655856D01*
X131950567Y-106655856D02*
X132160091Y-106655856D01*
X132160091Y-106655856D02*
X132264853Y-106703475D01*
X132264853Y-106703475D02*
X132369615Y-106798713D01*
X132369615Y-106798713D02*
X132421996Y-106989189D01*
X132421996Y-106989189D02*
X132421996Y-107322522D01*
X132421996Y-107322522D02*
X132369615Y-107512998D01*
X132369615Y-107512998D02*
X132264853Y-107608237D01*
X132264853Y-107608237D02*
X132160091Y-107655856D01*
X132160091Y-107655856D02*
X131950567Y-107655856D01*
X131950567Y-107655856D02*
X131845805Y-107608237D01*
X131845805Y-107608237D02*
X131741043Y-107512998D01*
X131741043Y-107512998D02*
X131688662Y-107322522D01*
X131688662Y-107322522D02*
X131688662Y-106989189D01*
X131688662Y-106989189D02*
X131741043Y-106798713D01*
X131741043Y-106798713D02*
X131845805Y-106703475D01*
X131845805Y-106703475D02*
X131950567Y-106655856D01*
X133469615Y-107655856D02*
X132841043Y-107655856D01*
X133155329Y-107655856D02*
X133155329Y-106655856D01*
X133155329Y-106655856D02*
X133050567Y-106798713D01*
X133050567Y-106798713D02*
X132945805Y-106893951D01*
X132945805Y-106893951D02*
X132841043Y-106941570D01*
X134412472Y-106989189D02*
X134412472Y-107655856D01*
X134150567Y-106608237D02*
X133888662Y-107322522D01*
X133888662Y-107322522D02*
X134569615Y-107322522D01*
X148912471Y-116655856D02*
X149593424Y-116655856D01*
X149593424Y-116655856D02*
X149226757Y-117036808D01*
X149226757Y-117036808D02*
X149383900Y-117036808D01*
X149383900Y-117036808D02*
X149488662Y-117084427D01*
X149488662Y-117084427D02*
X149541043Y-117132046D01*
X149541043Y-117132046D02*
X149593424Y-117227284D01*
X149593424Y-117227284D02*
X149593424Y-117465379D01*
X149593424Y-117465379D02*
X149541043Y-117560617D01*
X149541043Y-117560617D02*
X149488662Y-117608237D01*
X149488662Y-117608237D02*
X149383900Y-117655856D01*
X149383900Y-117655856D02*
X149069614Y-117655856D01*
X149069614Y-117655856D02*
X148964852Y-117608237D01*
X148964852Y-117608237D02*
X148912471Y-117560617D01*
X150064852Y-117560617D02*
X150117233Y-117608237D01*
X150117233Y-117608237D02*
X150064852Y-117655856D01*
X150064852Y-117655856D02*
X150012471Y-117608237D01*
X150012471Y-117608237D02*
X150064852Y-117560617D01*
X150064852Y-117560617D02*
X150064852Y-117655856D01*
X150483900Y-116655856D02*
X151164853Y-116655856D01*
X151164853Y-116655856D02*
X150798186Y-117036808D01*
X150798186Y-117036808D02*
X150955329Y-117036808D01*
X150955329Y-117036808D02*
X151060091Y-117084427D01*
X151060091Y-117084427D02*
X151112472Y-117132046D01*
X151112472Y-117132046D02*
X151164853Y-117227284D01*
X151164853Y-117227284D02*
X151164853Y-117465379D01*
X151164853Y-117465379D02*
X151112472Y-117560617D01*
X151112472Y-117560617D02*
X151060091Y-117608237D01*
X151060091Y-117608237D02*
X150955329Y-117655856D01*
X150955329Y-117655856D02*
X150641043Y-117655856D01*
X150641043Y-117655856D02*
X150536281Y-117608237D01*
X150536281Y-117608237D02*
X150483900Y-117560617D01*
X151531519Y-116989189D02*
X151793424Y-117655856D01*
X151793424Y-117655856D02*
X152055329Y-116989189D01*
X147093424Y-111703475D02*
X146988662Y-111655856D01*
X146988662Y-111655856D02*
X146831519Y-111655856D01*
X146831519Y-111655856D02*
X146674376Y-111703475D01*
X146674376Y-111703475D02*
X146569614Y-111798713D01*
X146569614Y-111798713D02*
X146517233Y-111893951D01*
X146517233Y-111893951D02*
X146464852Y-112084427D01*
X146464852Y-112084427D02*
X146464852Y-112227284D01*
X146464852Y-112227284D02*
X146517233Y-112417760D01*
X146517233Y-112417760D02*
X146569614Y-112512998D01*
X146569614Y-112512998D02*
X146674376Y-112608237D01*
X146674376Y-112608237D02*
X146831519Y-112655856D01*
X146831519Y-112655856D02*
X146936281Y-112655856D01*
X146936281Y-112655856D02*
X147093424Y-112608237D01*
X147093424Y-112608237D02*
X147145805Y-112560617D01*
X147145805Y-112560617D02*
X147145805Y-112227284D01*
X147145805Y-112227284D02*
X146936281Y-112227284D01*
X147617233Y-112655856D02*
X147617233Y-111655856D01*
X147617233Y-111655856D02*
X148036281Y-111655856D01*
X148036281Y-111655856D02*
X148141043Y-111703475D01*
X148141043Y-111703475D02*
X148193424Y-111751094D01*
X148193424Y-111751094D02*
X148245805Y-111846332D01*
X148245805Y-111846332D02*
X148245805Y-111989189D01*
X148245805Y-111989189D02*
X148193424Y-112084427D01*
X148193424Y-112084427D02*
X148141043Y-112132046D01*
X148141043Y-112132046D02*
X148036281Y-112179665D01*
X148036281Y-112179665D02*
X147617233Y-112179665D01*
X148717233Y-112655856D02*
X148717233Y-111655856D01*
X149450567Y-111655856D02*
X149660091Y-111655856D01*
X149660091Y-111655856D02*
X149764853Y-111703475D01*
X149764853Y-111703475D02*
X149869615Y-111798713D01*
X149869615Y-111798713D02*
X149921996Y-111989189D01*
X149921996Y-111989189D02*
X149921996Y-112322522D01*
X149921996Y-112322522D02*
X149869615Y-112512998D01*
X149869615Y-112512998D02*
X149764853Y-112608237D01*
X149764853Y-112608237D02*
X149660091Y-112655856D01*
X149660091Y-112655856D02*
X149450567Y-112655856D01*
X149450567Y-112655856D02*
X149345805Y-112608237D01*
X149345805Y-112608237D02*
X149241043Y-112512998D01*
X149241043Y-112512998D02*
X149188662Y-112322522D01*
X149188662Y-112322522D02*
X149188662Y-111989189D01*
X149188662Y-111989189D02*
X149241043Y-111798713D01*
X149241043Y-111798713D02*
X149345805Y-111703475D01*
X149345805Y-111703475D02*
X149450567Y-111655856D01*
X150969615Y-112655856D02*
X150341043Y-112655856D01*
X150655329Y-112655856D02*
X150655329Y-111655856D01*
X150655329Y-111655856D02*
X150550567Y-111798713D01*
X150550567Y-111798713D02*
X150445805Y-111893951D01*
X150445805Y-111893951D02*
X150341043Y-111941570D01*
X151964853Y-111655856D02*
X151441043Y-111655856D01*
X151441043Y-111655856D02*
X151388662Y-112132046D01*
X151388662Y-112132046D02*
X151441043Y-112084427D01*
X151441043Y-112084427D02*
X151545805Y-112036808D01*
X151545805Y-112036808D02*
X151807710Y-112036808D01*
X151807710Y-112036808D02*
X151912472Y-112084427D01*
X151912472Y-112084427D02*
X151964853Y-112132046D01*
X151964853Y-112132046D02*
X152017234Y-112227284D01*
X152017234Y-112227284D02*
X152017234Y-112465379D01*
X152017234Y-112465379D02*
X151964853Y-112560617D01*
X151964853Y-112560617D02*
X151912472Y-112608237D01*
X151912472Y-112608237D02*
X151807710Y-112655856D01*
X151807710Y-112655856D02*
X151545805Y-112655856D01*
X151545805Y-112655856D02*
X151441043Y-112608237D01*
X151441043Y-112608237D02*
X151388662Y-112560617D01*
X129593424Y-114203475D02*
X129488662Y-114155856D01*
X129488662Y-114155856D02*
X129331519Y-114155856D01*
X129331519Y-114155856D02*
X129174376Y-114203475D01*
X129174376Y-114203475D02*
X129069614Y-114298713D01*
X129069614Y-114298713D02*
X129017233Y-114393951D01*
X129017233Y-114393951D02*
X128964852Y-114584427D01*
X128964852Y-114584427D02*
X128964852Y-114727284D01*
X128964852Y-114727284D02*
X129017233Y-114917760D01*
X129017233Y-114917760D02*
X129069614Y-115012998D01*
X129069614Y-115012998D02*
X129174376Y-115108237D01*
X129174376Y-115108237D02*
X129331519Y-115155856D01*
X129331519Y-115155856D02*
X129436281Y-115155856D01*
X129436281Y-115155856D02*
X129593424Y-115108237D01*
X129593424Y-115108237D02*
X129645805Y-115060617D01*
X129645805Y-115060617D02*
X129645805Y-114727284D01*
X129645805Y-114727284D02*
X129436281Y-114727284D01*
X130117233Y-115155856D02*
X130117233Y-114155856D01*
X130117233Y-114155856D02*
X130745805Y-115155856D01*
X130745805Y-115155856D02*
X130745805Y-114155856D01*
X131269614Y-115155856D02*
X131269614Y-114155856D01*
X131269614Y-114155856D02*
X131531519Y-114155856D01*
X131531519Y-114155856D02*
X131688662Y-114203475D01*
X131688662Y-114203475D02*
X131793424Y-114298713D01*
X131793424Y-114298713D02*
X131845805Y-114393951D01*
X131845805Y-114393951D02*
X131898186Y-114584427D01*
X131898186Y-114584427D02*
X131898186Y-114727284D01*
X131898186Y-114727284D02*
X131845805Y-114917760D01*
X131845805Y-114917760D02*
X131793424Y-115012998D01*
X131793424Y-115012998D02*
X131688662Y-115108237D01*
X131688662Y-115108237D02*
X131531519Y-115155856D01*
X131531519Y-115155856D02*
X131269614Y-115155856D01*
X129593424Y-84203475D02*
X129488662Y-84155856D01*
X129488662Y-84155856D02*
X129331519Y-84155856D01*
X129331519Y-84155856D02*
X129174376Y-84203475D01*
X129174376Y-84203475D02*
X129069614Y-84298713D01*
X129069614Y-84298713D02*
X129017233Y-84393951D01*
X129017233Y-84393951D02*
X128964852Y-84584427D01*
X128964852Y-84584427D02*
X128964852Y-84727284D01*
X128964852Y-84727284D02*
X129017233Y-84917760D01*
X129017233Y-84917760D02*
X129069614Y-85012998D01*
X129069614Y-85012998D02*
X129174376Y-85108237D01*
X129174376Y-85108237D02*
X129331519Y-85155856D01*
X129331519Y-85155856D02*
X129436281Y-85155856D01*
X129436281Y-85155856D02*
X129593424Y-85108237D01*
X129593424Y-85108237D02*
X129645805Y-85060617D01*
X129645805Y-85060617D02*
X129645805Y-84727284D01*
X129645805Y-84727284D02*
X129436281Y-84727284D01*
X130117233Y-85155856D02*
X130117233Y-84155856D01*
X130117233Y-84155856D02*
X130536281Y-84155856D01*
X130536281Y-84155856D02*
X130641043Y-84203475D01*
X130641043Y-84203475D02*
X130693424Y-84251094D01*
X130693424Y-84251094D02*
X130745805Y-84346332D01*
X130745805Y-84346332D02*
X130745805Y-84489189D01*
X130745805Y-84489189D02*
X130693424Y-84584427D01*
X130693424Y-84584427D02*
X130641043Y-84632046D01*
X130641043Y-84632046D02*
X130536281Y-84679665D01*
X130536281Y-84679665D02*
X130117233Y-84679665D01*
X131217233Y-85155856D02*
X131217233Y-84155856D01*
X131950567Y-84155856D02*
X132160091Y-84155856D01*
X132160091Y-84155856D02*
X132264853Y-84203475D01*
X132264853Y-84203475D02*
X132369615Y-84298713D01*
X132369615Y-84298713D02*
X132421996Y-84489189D01*
X132421996Y-84489189D02*
X132421996Y-84822522D01*
X132421996Y-84822522D02*
X132369615Y-85012998D01*
X132369615Y-85012998D02*
X132264853Y-85108237D01*
X132264853Y-85108237D02*
X132160091Y-85155856D01*
X132160091Y-85155856D02*
X131950567Y-85155856D01*
X131950567Y-85155856D02*
X131845805Y-85108237D01*
X131845805Y-85108237D02*
X131741043Y-85012998D01*
X131741043Y-85012998D02*
X131688662Y-84822522D01*
X131688662Y-84822522D02*
X131688662Y-84489189D01*
X131688662Y-84489189D02*
X131741043Y-84298713D01*
X131741043Y-84298713D02*
X131845805Y-84203475D01*
X131845805Y-84203475D02*
X131950567Y-84155856D01*
X132788662Y-84155856D02*
X133469615Y-84155856D01*
X133469615Y-84155856D02*
X133102948Y-84536808D01*
X133102948Y-84536808D02*
X133260091Y-84536808D01*
X133260091Y-84536808D02*
X133364853Y-84584427D01*
X133364853Y-84584427D02*
X133417234Y-84632046D01*
X133417234Y-84632046D02*
X133469615Y-84727284D01*
X133469615Y-84727284D02*
X133469615Y-84965379D01*
X133469615Y-84965379D02*
X133417234Y-85060617D01*
X133417234Y-85060617D02*
X133364853Y-85108237D01*
X133364853Y-85108237D02*
X133260091Y-85155856D01*
X133260091Y-85155856D02*
X132945805Y-85155856D01*
X132945805Y-85155856D02*
X132841043Y-85108237D01*
X132841043Y-85108237D02*
X132788662Y-85060617D01*
X134412472Y-84155856D02*
X134202948Y-84155856D01*
X134202948Y-84155856D02*
X134098186Y-84203475D01*
X134098186Y-84203475D02*
X134045805Y-84251094D01*
X134045805Y-84251094D02*
X133941043Y-84393951D01*
X133941043Y-84393951D02*
X133888662Y-84584427D01*
X133888662Y-84584427D02*
X133888662Y-84965379D01*
X133888662Y-84965379D02*
X133941043Y-85060617D01*
X133941043Y-85060617D02*
X133993424Y-85108237D01*
X133993424Y-85108237D02*
X134098186Y-85155856D01*
X134098186Y-85155856D02*
X134307710Y-85155856D01*
X134307710Y-85155856D02*
X134412472Y-85108237D01*
X134412472Y-85108237D02*
X134464853Y-85060617D01*
X134464853Y-85060617D02*
X134517234Y-84965379D01*
X134517234Y-84965379D02*
X134517234Y-84727284D01*
X134517234Y-84727284D02*
X134464853Y-84632046D01*
X134464853Y-84632046D02*
X134412472Y-84584427D01*
X134412472Y-84584427D02*
X134307710Y-84536808D01*
X134307710Y-84536808D02*
X134098186Y-84536808D01*
X134098186Y-84536808D02*
X133993424Y-84584427D01*
X133993424Y-84584427D02*
X133941043Y-84632046D01*
X133941043Y-84632046D02*
X133888662Y-84727284D01*
X148093424Y-99203475D02*
X147988662Y-99155856D01*
X147988662Y-99155856D02*
X147831519Y-99155856D01*
X147831519Y-99155856D02*
X147674376Y-99203475D01*
X147674376Y-99203475D02*
X147569614Y-99298713D01*
X147569614Y-99298713D02*
X147517233Y-99393951D01*
X147517233Y-99393951D02*
X147464852Y-99584427D01*
X147464852Y-99584427D02*
X147464852Y-99727284D01*
X147464852Y-99727284D02*
X147517233Y-99917760D01*
X147517233Y-99917760D02*
X147569614Y-100012998D01*
X147569614Y-100012998D02*
X147674376Y-100108237D01*
X147674376Y-100108237D02*
X147831519Y-100155856D01*
X147831519Y-100155856D02*
X147936281Y-100155856D01*
X147936281Y-100155856D02*
X148093424Y-100108237D01*
X148093424Y-100108237D02*
X148145805Y-100060617D01*
X148145805Y-100060617D02*
X148145805Y-99727284D01*
X148145805Y-99727284D02*
X147936281Y-99727284D01*
X148617233Y-100155856D02*
X148617233Y-99155856D01*
X148617233Y-99155856D02*
X149036281Y-99155856D01*
X149036281Y-99155856D02*
X149141043Y-99203475D01*
X149141043Y-99203475D02*
X149193424Y-99251094D01*
X149193424Y-99251094D02*
X149245805Y-99346332D01*
X149245805Y-99346332D02*
X149245805Y-99489189D01*
X149245805Y-99489189D02*
X149193424Y-99584427D01*
X149193424Y-99584427D02*
X149141043Y-99632046D01*
X149141043Y-99632046D02*
X149036281Y-99679665D01*
X149036281Y-99679665D02*
X148617233Y-99679665D01*
X149717233Y-100155856D02*
X149717233Y-99155856D01*
X150450567Y-99155856D02*
X150660091Y-99155856D01*
X150660091Y-99155856D02*
X150764853Y-99203475D01*
X150764853Y-99203475D02*
X150869615Y-99298713D01*
X150869615Y-99298713D02*
X150921996Y-99489189D01*
X150921996Y-99489189D02*
X150921996Y-99822522D01*
X150921996Y-99822522D02*
X150869615Y-100012998D01*
X150869615Y-100012998D02*
X150764853Y-100108237D01*
X150764853Y-100108237D02*
X150660091Y-100155856D01*
X150660091Y-100155856D02*
X150450567Y-100155856D01*
X150450567Y-100155856D02*
X150345805Y-100108237D01*
X150345805Y-100108237D02*
X150241043Y-100012998D01*
X150241043Y-100012998D02*
X150188662Y-99822522D01*
X150188662Y-99822522D02*
X150188662Y-99489189D01*
X150188662Y-99489189D02*
X150241043Y-99298713D01*
X150241043Y-99298713D02*
X150345805Y-99203475D01*
X150345805Y-99203475D02*
X150450567Y-99155856D01*
X151917234Y-99155856D02*
X151393424Y-99155856D01*
X151393424Y-99155856D02*
X151341043Y-99632046D01*
X151341043Y-99632046D02*
X151393424Y-99584427D01*
X151393424Y-99584427D02*
X151498186Y-99536808D01*
X151498186Y-99536808D02*
X151760091Y-99536808D01*
X151760091Y-99536808D02*
X151864853Y-99584427D01*
X151864853Y-99584427D02*
X151917234Y-99632046D01*
X151917234Y-99632046D02*
X151969615Y-99727284D01*
X151969615Y-99727284D02*
X151969615Y-99965379D01*
X151969615Y-99965379D02*
X151917234Y-100060617D01*
X151917234Y-100060617D02*
X151864853Y-100108237D01*
X151864853Y-100108237D02*
X151760091Y-100155856D01*
X151760091Y-100155856D02*
X151498186Y-100155856D01*
X151498186Y-100155856D02*
X151393424Y-100108237D01*
X151393424Y-100108237D02*
X151341043Y-100060617D01*
X147093424Y-81203475D02*
X146988662Y-81155856D01*
X146988662Y-81155856D02*
X146831519Y-81155856D01*
X146831519Y-81155856D02*
X146674376Y-81203475D01*
X146674376Y-81203475D02*
X146569614Y-81298713D01*
X146569614Y-81298713D02*
X146517233Y-81393951D01*
X146517233Y-81393951D02*
X146464852Y-81584427D01*
X146464852Y-81584427D02*
X146464852Y-81727284D01*
X146464852Y-81727284D02*
X146517233Y-81917760D01*
X146517233Y-81917760D02*
X146569614Y-82012998D01*
X146569614Y-82012998D02*
X146674376Y-82108237D01*
X146674376Y-82108237D02*
X146831519Y-82155856D01*
X146831519Y-82155856D02*
X146936281Y-82155856D01*
X146936281Y-82155856D02*
X147093424Y-82108237D01*
X147093424Y-82108237D02*
X147145805Y-82060617D01*
X147145805Y-82060617D02*
X147145805Y-81727284D01*
X147145805Y-81727284D02*
X146936281Y-81727284D01*
X147617233Y-82155856D02*
X147617233Y-81155856D01*
X147617233Y-81155856D02*
X148036281Y-81155856D01*
X148036281Y-81155856D02*
X148141043Y-81203475D01*
X148141043Y-81203475D02*
X148193424Y-81251094D01*
X148193424Y-81251094D02*
X148245805Y-81346332D01*
X148245805Y-81346332D02*
X148245805Y-81489189D01*
X148245805Y-81489189D02*
X148193424Y-81584427D01*
X148193424Y-81584427D02*
X148141043Y-81632046D01*
X148141043Y-81632046D02*
X148036281Y-81679665D01*
X148036281Y-81679665D02*
X147617233Y-81679665D01*
X148717233Y-82155856D02*
X148717233Y-81155856D01*
X149450567Y-81155856D02*
X149660091Y-81155856D01*
X149660091Y-81155856D02*
X149764853Y-81203475D01*
X149764853Y-81203475D02*
X149869615Y-81298713D01*
X149869615Y-81298713D02*
X149921996Y-81489189D01*
X149921996Y-81489189D02*
X149921996Y-81822522D01*
X149921996Y-81822522D02*
X149869615Y-82012998D01*
X149869615Y-82012998D02*
X149764853Y-82108237D01*
X149764853Y-82108237D02*
X149660091Y-82155856D01*
X149660091Y-82155856D02*
X149450567Y-82155856D01*
X149450567Y-82155856D02*
X149345805Y-82108237D01*
X149345805Y-82108237D02*
X149241043Y-82012998D01*
X149241043Y-82012998D02*
X149188662Y-81822522D01*
X149188662Y-81822522D02*
X149188662Y-81489189D01*
X149188662Y-81489189D02*
X149241043Y-81298713D01*
X149241043Y-81298713D02*
X149345805Y-81203475D01*
X149345805Y-81203475D02*
X149450567Y-81155856D01*
X150341043Y-81251094D02*
X150393424Y-81203475D01*
X150393424Y-81203475D02*
X150498186Y-81155856D01*
X150498186Y-81155856D02*
X150760091Y-81155856D01*
X150760091Y-81155856D02*
X150864853Y-81203475D01*
X150864853Y-81203475D02*
X150917234Y-81251094D01*
X150917234Y-81251094D02*
X150969615Y-81346332D01*
X150969615Y-81346332D02*
X150969615Y-81441570D01*
X150969615Y-81441570D02*
X150917234Y-81584427D01*
X150917234Y-81584427D02*
X150288662Y-82155856D01*
X150288662Y-82155856D02*
X150969615Y-82155856D01*
X151336281Y-81155856D02*
X152017234Y-81155856D01*
X152017234Y-81155856D02*
X151650567Y-81536808D01*
X151650567Y-81536808D02*
X151807710Y-81536808D01*
X151807710Y-81536808D02*
X151912472Y-81584427D01*
X151912472Y-81584427D02*
X151964853Y-81632046D01*
X151964853Y-81632046D02*
X152017234Y-81727284D01*
X152017234Y-81727284D02*
X152017234Y-81965379D01*
X152017234Y-81965379D02*
X151964853Y-82060617D01*
X151964853Y-82060617D02*
X151912472Y-82108237D01*
X151912472Y-82108237D02*
X151807710Y-82155856D01*
X151807710Y-82155856D02*
X151493424Y-82155856D01*
X151493424Y-82155856D02*
X151388662Y-82108237D01*
X151388662Y-82108237D02*
X151336281Y-82060617D01*
D10*
X164314286Y-84514200D02*
X164457143Y-84561819D01*
X164457143Y-84561819D02*
X164695238Y-84561819D01*
X164695238Y-84561819D02*
X164790476Y-84514200D01*
X164790476Y-84514200D02*
X164838095Y-84466580D01*
X164838095Y-84466580D02*
X164885714Y-84371342D01*
X164885714Y-84371342D02*
X164885714Y-84276104D01*
X164885714Y-84276104D02*
X164838095Y-84180866D01*
X164838095Y-84180866D02*
X164790476Y-84133247D01*
X164790476Y-84133247D02*
X164695238Y-84085628D01*
X164695238Y-84085628D02*
X164504762Y-84038009D01*
X164504762Y-84038009D02*
X164409524Y-83990390D01*
X164409524Y-83990390D02*
X164361905Y-83942771D01*
X164361905Y-83942771D02*
X164314286Y-83847533D01*
X164314286Y-83847533D02*
X164314286Y-83752295D01*
X164314286Y-83752295D02*
X164361905Y-83657057D01*
X164361905Y-83657057D02*
X164409524Y-83609438D01*
X164409524Y-83609438D02*
X164504762Y-83561819D01*
X164504762Y-83561819D02*
X164742857Y-83561819D01*
X164742857Y-83561819D02*
X164885714Y-83609438D01*
X165314286Y-84561819D02*
X165314286Y-83561819D01*
X165314286Y-83561819D02*
X165552381Y-83561819D01*
X165552381Y-83561819D02*
X165695238Y-83609438D01*
X165695238Y-83609438D02*
X165790476Y-83704676D01*
X165790476Y-83704676D02*
X165838095Y-83799914D01*
X165838095Y-83799914D02*
X165885714Y-83990390D01*
X165885714Y-83990390D02*
X165885714Y-84133247D01*
X165885714Y-84133247D02*
X165838095Y-84323723D01*
X165838095Y-84323723D02*
X165790476Y-84418961D01*
X165790476Y-84418961D02*
X165695238Y-84514200D01*
X165695238Y-84514200D02*
X165552381Y-84561819D01*
X165552381Y-84561819D02*
X165314286Y-84561819D01*
X166751095Y-102372438D02*
X166655857Y-102324819D01*
X166655857Y-102324819D02*
X166513000Y-102324819D01*
X166513000Y-102324819D02*
X166370143Y-102372438D01*
X166370143Y-102372438D02*
X166274905Y-102467676D01*
X166274905Y-102467676D02*
X166227286Y-102562914D01*
X166227286Y-102562914D02*
X166179667Y-102753390D01*
X166179667Y-102753390D02*
X166179667Y-102896247D01*
X166179667Y-102896247D02*
X166227286Y-103086723D01*
X166227286Y-103086723D02*
X166274905Y-103181961D01*
X166274905Y-103181961D02*
X166370143Y-103277200D01*
X166370143Y-103277200D02*
X166513000Y-103324819D01*
X166513000Y-103324819D02*
X166608238Y-103324819D01*
X166608238Y-103324819D02*
X166751095Y-103277200D01*
X166751095Y-103277200D02*
X166798714Y-103229580D01*
X166798714Y-103229580D02*
X166798714Y-102896247D01*
X166798714Y-102896247D02*
X166608238Y-102896247D01*
X167227286Y-103324819D02*
X167227286Y-102324819D01*
X167227286Y-102324819D02*
X167798714Y-103324819D01*
X167798714Y-103324819D02*
X167798714Y-102324819D01*
X168274905Y-103324819D02*
X168274905Y-102324819D01*
X168274905Y-102324819D02*
X168513000Y-102324819D01*
X168513000Y-102324819D02*
X168655857Y-102372438D01*
X168655857Y-102372438D02*
X168751095Y-102467676D01*
X168751095Y-102467676D02*
X168798714Y-102562914D01*
X168798714Y-102562914D02*
X168846333Y-102753390D01*
X168846333Y-102753390D02*
X168846333Y-102896247D01*
X168846333Y-102896247D02*
X168798714Y-103086723D01*
X168798714Y-103086723D02*
X168751095Y-103181961D01*
X168751095Y-103181961D02*
X168655857Y-103277200D01*
X168655857Y-103277200D02*
X168513000Y-103324819D01*
X168513000Y-103324819D02*
X168274905Y-103324819D01*
X156951819Y-29265523D02*
X156475628Y-29598856D01*
X156951819Y-29836951D02*
X155951819Y-29836951D01*
X155951819Y-29836951D02*
X155951819Y-29455999D01*
X155951819Y-29455999D02*
X155999438Y-29360761D01*
X155999438Y-29360761D02*
X156047057Y-29313142D01*
X156047057Y-29313142D02*
X156142295Y-29265523D01*
X156142295Y-29265523D02*
X156285152Y-29265523D01*
X156285152Y-29265523D02*
X156380390Y-29313142D01*
X156380390Y-29313142D02*
X156428009Y-29360761D01*
X156428009Y-29360761D02*
X156475628Y-29455999D01*
X156475628Y-29455999D02*
X156475628Y-29836951D01*
X156570866Y-28836951D02*
X156570866Y-28075047D01*
D12*
%TO.C,GNDMIC1*%
X163847000Y-75836000D02*
X165227000Y-75836000D01*
X163847000Y-77216000D02*
X163847000Y-75836000D01*
X163847000Y-78486000D02*
X163847000Y-78596000D01*
X163847000Y-78486000D02*
X166607000Y-78486000D01*
X163847000Y-78596000D02*
X166607000Y-78596000D01*
X166607000Y-78486000D02*
X166607000Y-78596000D01*
%TO.C,VDD*%
X163847000Y-94759000D02*
X165227000Y-94759000D01*
X163847000Y-96139000D02*
X163847000Y-94759000D01*
X163847000Y-97409000D02*
X163847000Y-97519000D01*
X163847000Y-97409000D02*
X166607000Y-97409000D01*
X163847000Y-97519000D02*
X166607000Y-97519000D01*
X166607000Y-97409000D02*
X166607000Y-97519000D01*
%TO.C,WS*%
X166480000Y-92220000D02*
X166480000Y-92330000D01*
X163720000Y-92330000D02*
X166480000Y-92330000D01*
X163720000Y-92220000D02*
X166480000Y-92220000D01*
X163720000Y-92220000D02*
X163720000Y-92330000D01*
X163720000Y-90950000D02*
X163720000Y-89570000D01*
X163720000Y-89570000D02*
X165100000Y-89570000D01*
%TO.C,U2*%
X139192000Y-33782000D02*
X156972000Y-33782000D01*
X156972000Y-55372000D01*
X139192000Y-55372000D01*
X139192000Y-33782000D01*
%TO.C,C1*%
X117134000Y-117226323D02*
G75*
G02*
X106894000Y-117226323I-5120000J0D01*
G01*
X106894000Y-117226323D02*
G75*
G02*
X117134000Y-117226323I5120000J0D01*
G01*
X117094000Y-117266323D02*
X106934000Y-117266323D01*
X117094000Y-117226323D02*
X106934000Y-117226323D01*
X117093000Y-117346323D02*
X106935000Y-117346323D01*
X117093000Y-117306323D02*
X106935000Y-117306323D01*
X117091000Y-117386323D02*
X106937000Y-117386323D01*
X117090000Y-117426323D02*
X106938000Y-117426323D01*
X117088000Y-117466323D02*
X106940000Y-117466323D01*
X117086000Y-117506323D02*
X106942000Y-117506323D01*
X117084000Y-117546323D02*
X106944000Y-117546323D01*
X117081000Y-117586323D02*
X106947000Y-117586323D01*
X117078000Y-117626323D02*
X106950000Y-117626323D01*
X117075000Y-117666323D02*
X106953000Y-117666323D01*
X117071000Y-117706323D02*
X106957000Y-117706323D01*
X117068000Y-117746323D02*
X106960000Y-117746323D01*
X117063000Y-117786323D02*
X106965000Y-117786323D01*
X117059000Y-117826323D02*
X106969000Y-117826323D01*
X117054000Y-117866323D02*
X106974000Y-117866323D01*
X117049000Y-117906323D02*
X106979000Y-117906323D01*
X117043000Y-117946323D02*
X106985000Y-117946323D01*
X117037000Y-117986323D02*
X106991000Y-117986323D01*
X117031000Y-118026323D02*
X106997000Y-118026323D01*
X117025000Y-118066323D02*
X107003000Y-118066323D01*
X117018000Y-118106323D02*
X107010000Y-118106323D01*
X117011000Y-118146323D02*
X107017000Y-118146323D01*
X117003000Y-118186323D02*
X107025000Y-118186323D01*
X116995000Y-118226323D02*
X107033000Y-118226323D01*
X116987000Y-118266323D02*
X107041000Y-118266323D01*
X116979000Y-118306323D02*
X107049000Y-118306323D01*
X116970000Y-118346323D02*
X107058000Y-118346323D01*
X116961000Y-118386323D02*
X107067000Y-118386323D01*
X116951000Y-118426323D02*
X107077000Y-118426323D01*
X116942000Y-118466323D02*
X107086000Y-118466323D01*
X116931000Y-118506323D02*
X113254000Y-118506323D01*
X116921000Y-118546323D02*
X113254000Y-118546323D01*
X116910000Y-118586323D02*
X113254000Y-118586323D01*
X116899000Y-118626323D02*
X113254000Y-118626323D01*
X116887000Y-118666323D02*
X113254000Y-118666323D01*
X116875000Y-118706323D02*
X113254000Y-118706323D01*
X116863000Y-118746323D02*
X113254000Y-118746323D01*
X116851000Y-118786323D02*
X113254000Y-118786323D01*
X116838000Y-118826323D02*
X113254000Y-118826323D01*
X116824000Y-118866323D02*
X113254000Y-118866323D01*
X116811000Y-118906323D02*
X113254000Y-118906323D01*
X116796000Y-118946323D02*
X113254000Y-118946323D01*
X116782000Y-118986323D02*
X113254000Y-118986323D01*
X116767000Y-119026323D02*
X113254000Y-119026323D01*
X116752000Y-119066323D02*
X113254000Y-119066323D01*
X116736000Y-119106323D02*
X113254000Y-119106323D01*
X116720000Y-119146323D02*
X113254000Y-119146323D01*
X116704000Y-119186323D02*
X113254000Y-119186323D01*
X116687000Y-119226323D02*
X113254000Y-119226323D01*
X116670000Y-119266323D02*
X113254000Y-119266323D01*
X116652000Y-119306323D02*
X113254000Y-119306323D01*
X116634000Y-119346323D02*
X113254000Y-119346323D01*
X116616000Y-119386323D02*
X113254000Y-119386323D01*
X116597000Y-119426323D02*
X113254000Y-119426323D01*
X116578000Y-119466323D02*
X113254000Y-119466323D01*
X116558000Y-119506323D02*
X113254000Y-119506323D01*
X116538000Y-119546323D02*
X113254000Y-119546323D01*
X116518000Y-119586323D02*
X113254000Y-119586323D01*
X116497000Y-119626323D02*
X113254000Y-119626323D01*
X116475000Y-119666323D02*
X113254000Y-119666323D01*
X116453000Y-119706323D02*
X113254000Y-119706323D01*
X116431000Y-119746323D02*
X113254000Y-119746323D01*
X116408000Y-119786323D02*
X113254000Y-119786323D01*
X116385000Y-119826323D02*
X113254000Y-119826323D01*
X116361000Y-119866323D02*
X113254000Y-119866323D01*
X116337000Y-119906323D02*
X113254000Y-119906323D01*
X116312000Y-119946323D02*
X113254000Y-119946323D01*
X116286000Y-119986323D02*
X113254000Y-119986323D01*
X116261000Y-120026323D02*
X113254000Y-120026323D01*
X116234000Y-120066323D02*
X113254000Y-120066323D01*
X116207000Y-120106323D02*
X113254000Y-120106323D01*
X116180000Y-120146323D02*
X113254000Y-120146323D01*
X116152000Y-120186323D02*
X113254000Y-120186323D01*
X116123000Y-120226323D02*
X113254000Y-120226323D01*
X116094000Y-120266323D02*
X113254000Y-120266323D01*
X116064000Y-120306323D02*
X113254000Y-120306323D01*
X116034000Y-120346323D02*
X113254000Y-120346323D01*
X116002000Y-120386323D02*
X113254000Y-120386323D01*
X115971000Y-120426323D02*
X113254000Y-120426323D01*
X115938000Y-120466323D02*
X113254000Y-120466323D01*
X115905000Y-120506323D02*
X113254000Y-120506323D01*
X115872000Y-120546323D02*
X113254000Y-120546323D01*
X115837000Y-120586323D02*
X113254000Y-120586323D01*
X115802000Y-120626323D02*
X113254000Y-120626323D01*
X115766000Y-120666323D02*
X113254000Y-120666323D01*
X115730000Y-120706323D02*
X113254000Y-120706323D01*
X115692000Y-120746323D02*
X113254000Y-120746323D01*
X115654000Y-120786323D02*
X113254000Y-120786323D01*
X115615000Y-120826323D02*
X113254000Y-120826323D01*
X115575000Y-120866323D02*
X113254000Y-120866323D01*
X115534000Y-120906323D02*
X113254000Y-120906323D01*
X115492000Y-120946323D02*
X113254000Y-120946323D01*
X115449000Y-120986323D02*
X108579000Y-120986323D01*
X115405000Y-121026323D02*
X108623000Y-121026323D01*
X115389000Y-112246677D02*
X114389000Y-112246677D01*
X115361000Y-121066323D02*
X108667000Y-121066323D01*
X115315000Y-121106323D02*
X108713000Y-121106323D01*
X115268000Y-121146323D02*
X108760000Y-121146323D01*
X115219000Y-121186323D02*
X108809000Y-121186323D01*
X115170000Y-121226323D02*
X108858000Y-121226323D01*
X115119000Y-121266323D02*
X108909000Y-121266323D01*
X115067000Y-121306323D02*
X108961000Y-121306323D01*
X115014000Y-121346323D02*
X109014000Y-121346323D01*
X114959000Y-121386323D02*
X109069000Y-121386323D01*
X114902000Y-121426323D02*
X109126000Y-121426323D01*
X114889000Y-111746677D02*
X114889000Y-112746677D01*
X114844000Y-121466323D02*
X109184000Y-121466323D01*
X114784000Y-121506323D02*
X109244000Y-121506323D01*
X114722000Y-121546323D02*
X109306000Y-121546323D01*
X114658000Y-121586323D02*
X109370000Y-121586323D01*
X114592000Y-121626323D02*
X109436000Y-121626323D01*
X114524000Y-121666323D02*
X109504000Y-121666323D01*
X114453000Y-121706323D02*
X109575000Y-121706323D01*
X114379000Y-121746323D02*
X109649000Y-121746323D01*
X114302000Y-121786323D02*
X109726000Y-121786323D01*
X114222000Y-121826323D02*
X109806000Y-121826323D01*
X114138000Y-121866323D02*
X109890000Y-121866323D01*
X114051000Y-121906323D02*
X109977000Y-121906323D01*
X113958000Y-121946323D02*
X110070000Y-121946323D01*
X113860000Y-121986323D02*
X110168000Y-121986323D01*
X113756000Y-122026323D02*
X110272000Y-122026323D01*
X113644000Y-122066323D02*
X110384000Y-122066323D01*
X113523000Y-122106323D02*
X110505000Y-122106323D01*
X113391000Y-122146323D02*
X110637000Y-122146323D01*
X113244000Y-122186323D02*
X110784000Y-122186323D01*
X113076000Y-122226323D02*
X110952000Y-122226323D01*
X112876000Y-122266323D02*
X111152000Y-122266323D01*
X112613000Y-122306323D02*
X111415000Y-122306323D01*
X110774000Y-120946323D02*
X108536000Y-120946323D01*
X110774000Y-120906323D02*
X108494000Y-120906323D01*
X110774000Y-120866323D02*
X108453000Y-120866323D01*
X110774000Y-120826323D02*
X108413000Y-120826323D01*
X110774000Y-120786323D02*
X108374000Y-120786323D01*
X110774000Y-120746323D02*
X108336000Y-120746323D01*
X110774000Y-120706323D02*
X108298000Y-120706323D01*
X110774000Y-120666323D02*
X108262000Y-120666323D01*
X110774000Y-120626323D02*
X108226000Y-120626323D01*
X110774000Y-120586323D02*
X108191000Y-120586323D01*
X110774000Y-120546323D02*
X108156000Y-120546323D01*
X110774000Y-120506323D02*
X108123000Y-120506323D01*
X110774000Y-120466323D02*
X108090000Y-120466323D01*
X110774000Y-120426323D02*
X108057000Y-120426323D01*
X110774000Y-120386323D02*
X108026000Y-120386323D01*
X110774000Y-120346323D02*
X107994000Y-120346323D01*
X110774000Y-120306323D02*
X107964000Y-120306323D01*
X110774000Y-120266323D02*
X107934000Y-120266323D01*
X110774000Y-120226323D02*
X107905000Y-120226323D01*
X110774000Y-120186323D02*
X107876000Y-120186323D01*
X110774000Y-120146323D02*
X107848000Y-120146323D01*
X110774000Y-120106323D02*
X107821000Y-120106323D01*
X110774000Y-120066323D02*
X107794000Y-120066323D01*
X110774000Y-120026323D02*
X107767000Y-120026323D01*
X110774000Y-119986323D02*
X107742000Y-119986323D01*
X110774000Y-119946323D02*
X107716000Y-119946323D01*
X110774000Y-119906323D02*
X107691000Y-119906323D01*
X110774000Y-119866323D02*
X107667000Y-119866323D01*
X110774000Y-119826323D02*
X107643000Y-119826323D01*
X110774000Y-119786323D02*
X107620000Y-119786323D01*
X110774000Y-119746323D02*
X107597000Y-119746323D01*
X110774000Y-119706323D02*
X107575000Y-119706323D01*
X110774000Y-119666323D02*
X107553000Y-119666323D01*
X110774000Y-119626323D02*
X107531000Y-119626323D01*
X110774000Y-119586323D02*
X107510000Y-119586323D01*
X110774000Y-119546323D02*
X107490000Y-119546323D01*
X110774000Y-119506323D02*
X107470000Y-119506323D01*
X110774000Y-119466323D02*
X107450000Y-119466323D01*
X110774000Y-119426323D02*
X107431000Y-119426323D01*
X110774000Y-119386323D02*
X107412000Y-119386323D01*
X110774000Y-119346323D02*
X107394000Y-119346323D01*
X110774000Y-119306323D02*
X107376000Y-119306323D01*
X110774000Y-119266323D02*
X107358000Y-119266323D01*
X110774000Y-119226323D02*
X107341000Y-119226323D01*
X110774000Y-119186323D02*
X107324000Y-119186323D01*
X110774000Y-119146323D02*
X107308000Y-119146323D01*
X110774000Y-119106323D02*
X107292000Y-119106323D01*
X110774000Y-119066323D02*
X107276000Y-119066323D01*
X110774000Y-119026323D02*
X107261000Y-119026323D01*
X110774000Y-118986323D02*
X107246000Y-118986323D01*
X110774000Y-118946323D02*
X107232000Y-118946323D01*
X110774000Y-118906323D02*
X107217000Y-118906323D01*
X110774000Y-118866323D02*
X107204000Y-118866323D01*
X110774000Y-118826323D02*
X107190000Y-118826323D01*
X110774000Y-118786323D02*
X107177000Y-118786323D01*
X110774000Y-118746323D02*
X107165000Y-118746323D01*
X110774000Y-118706323D02*
X107153000Y-118706323D01*
X110774000Y-118666323D02*
X107141000Y-118666323D01*
X110774000Y-118626323D02*
X107129000Y-118626323D01*
X110774000Y-118586323D02*
X107118000Y-118586323D01*
X110774000Y-118546323D02*
X107107000Y-118546323D01*
X110774000Y-118506323D02*
X107097000Y-118506323D01*
%TO.C,SCK*%
X163720000Y-80662000D02*
X165100000Y-80662000D01*
X163720000Y-82042000D02*
X163720000Y-80662000D01*
X163720000Y-83312000D02*
X163720000Y-83422000D01*
X163720000Y-83312000D02*
X166480000Y-83312000D01*
X163720000Y-83422000D02*
X166480000Y-83422000D01*
X166480000Y-83312000D02*
X166480000Y-83422000D01*
%TO.C,R+*%
X150385000Y-30126750D02*
X150385000Y-28746750D01*
X151765000Y-30126750D02*
X150385000Y-30126750D01*
X153035000Y-30126750D02*
X153145000Y-30126750D01*
X153035000Y-30126750D02*
X153035000Y-27366750D01*
X153145000Y-30126750D02*
X153145000Y-27366750D01*
X153035000Y-27366750D02*
X153145000Y-27366750D01*
%TO.C,L+*%
X143501000Y-30126750D02*
X143501000Y-28746750D01*
X144881000Y-30126750D02*
X143501000Y-30126750D01*
X146151000Y-30126750D02*
X146261000Y-30126750D01*
X146151000Y-30126750D02*
X146151000Y-27366750D01*
X146261000Y-30126750D02*
X146261000Y-27366750D01*
X146151000Y-27366750D02*
X146261000Y-27366750D01*
%TO.C,L-*%
X136456500Y-29869500D02*
X136456500Y-28489500D01*
X137836500Y-29869500D02*
X136456500Y-29869500D01*
X139106500Y-29869500D02*
X139216500Y-29869500D01*
X139106500Y-29869500D02*
X139106500Y-27109500D01*
X139216500Y-29869500D02*
X139216500Y-27109500D01*
X139106500Y-27109500D02*
X139216500Y-27109500D01*
%TO.C,SCK*%
X162958000Y-112359000D02*
X164338000Y-112359000D01*
X162958000Y-113739000D02*
X162958000Y-112359000D01*
X162958000Y-115009000D02*
X162958000Y-115119000D01*
X162958000Y-115009000D02*
X165718000Y-115009000D01*
X162958000Y-115119000D02*
X165718000Y-115119000D01*
X165718000Y-115009000D02*
X165718000Y-115119000D01*
%TO.C,SDA*%
X162958000Y-108609000D02*
X164338000Y-108609000D01*
X162958000Y-109989000D02*
X162958000Y-108609000D01*
X162958000Y-111259000D02*
X162958000Y-111369000D01*
X162958000Y-111259000D02*
X165718000Y-111259000D01*
X162958000Y-111369000D02*
X165718000Y-111369000D01*
X165718000Y-111259000D02*
X165718000Y-111369000D01*
%TO.C,VDD*%
X163085000Y-104919000D02*
X164465000Y-104919000D01*
X163085000Y-106299000D02*
X163085000Y-104919000D01*
X163085000Y-107569000D02*
X163085000Y-107679000D01*
X163085000Y-107569000D02*
X165845000Y-107569000D01*
X163085000Y-107679000D02*
X165845000Y-107679000D01*
X165845000Y-107569000D02*
X165845000Y-107679000D01*
%TO.C,C3*%
X152239000Y-60586252D02*
X152239000Y-60063748D01*
X153709000Y-60586252D02*
X153709000Y-60063748D01*
%TO.C,R4*%
X142479500Y-67293258D02*
X142479500Y-66818742D01*
X143524500Y-67293258D02*
X143524500Y-66818742D01*
%TO.C,C2*%
X142267000Y-60713252D02*
X142267000Y-60190748D01*
X143737000Y-60713252D02*
X143737000Y-60190748D01*
%TO.C,R3*%
X152639500Y-67420258D02*
X152639500Y-66945742D01*
X153684500Y-67420258D02*
X153684500Y-66945742D01*
%TO.C,U1*%
D13*
X126359540Y-73883437D02*
X154659540Y-73883437D01*
X154659540Y-125383437D01*
X126359540Y-125383437D01*
X126359540Y-73883437D01*
D11*
X136879540Y-122143437D02*
X144499540Y-122143437D01*
X144499540Y-126397616D01*
X136879540Y-126397616D01*
X136879540Y-122143437D01*
D12*
%TO.C,SD*%
X163720000Y-85107000D02*
X165100000Y-85107000D01*
X163720000Y-86487000D02*
X163720000Y-85107000D01*
X163720000Y-87757000D02*
X163720000Y-87867000D01*
X163720000Y-87757000D02*
X166480000Y-87757000D01*
X163720000Y-87867000D02*
X166480000Y-87867000D01*
X166480000Y-87757000D02*
X166480000Y-87867000D01*
%TO.C,GND*%
X162958000Y-101109000D02*
X164338000Y-101109000D01*
X162958000Y-102489000D02*
X162958000Y-101109000D01*
X162958000Y-103759000D02*
X162958000Y-103869000D01*
X162958000Y-103759000D02*
X165718000Y-103759000D01*
X162958000Y-103869000D02*
X165718000Y-103869000D01*
X165718000Y-103759000D02*
X165718000Y-103869000D01*
%TO.C,R-*%
X157497000Y-30336000D02*
X157497000Y-28956000D01*
X158877000Y-30336000D02*
X157497000Y-30336000D01*
X160147000Y-30336000D02*
X160257000Y-30336000D01*
X160147000Y-30336000D02*
X160147000Y-27576000D01*
X160257000Y-30336000D02*
X160257000Y-27576000D01*
X160147000Y-27576000D02*
X160257000Y-27576000D01*
%TD*%
M02*
