%TF.GenerationSoftware,KiCad,Pcbnew,9.0.6*%
%TF.CreationDate,2026-03-22T19:20:37-06:00*%
%TF.ProjectId,Asistente,41736973-7465-46e7-9465-2e6b69636164,rev?*%
%TF.SameCoordinates,Original*%
%TF.FileFunction,Legend,Top*%
%TF.FilePolarity,Positive*%
%FSLAX46Y46*%
G04 Gerber Fmt 4.6, Leading zero omitted, Abs format (unit mm)*
G04 Created by KiCad (PCBNEW 9.0.6) date 2026-03-22 19:20:37*
%MOMM*%
%LPD*%
G01*
G04 APERTURE LIST*
%ADD10C,0.150000*%
%ADD11C,0.100000*%
%ADD12C,0.120000*%
%ADD13C,0.200000*%
G04 APERTURE END LIST*
D10*
X139613819Y-69254666D02*
X139137628Y-69587999D01*
X139613819Y-69826094D02*
X138613819Y-69826094D01*
X138613819Y-69826094D02*
X138613819Y-69445142D01*
X138613819Y-69445142D02*
X138661438Y-69349904D01*
X138661438Y-69349904D02*
X138709057Y-69302285D01*
X138709057Y-69302285D02*
X138804295Y-69254666D01*
X138804295Y-69254666D02*
X138947152Y-69254666D01*
X138947152Y-69254666D02*
X139042390Y-69302285D01*
X139042390Y-69302285D02*
X139090009Y-69349904D01*
X139090009Y-69349904D02*
X139137628Y-69445142D01*
X139137628Y-69445142D02*
X139137628Y-69826094D01*
X138947152Y-68397523D02*
X139613819Y-68397523D01*
X138566200Y-68635618D02*
X139280485Y-68873713D01*
X139280485Y-68873713D02*
X139280485Y-68254666D01*
X149773819Y-69381666D02*
X149297628Y-69714999D01*
X149773819Y-69953094D02*
X148773819Y-69953094D01*
X148773819Y-69953094D02*
X148773819Y-69572142D01*
X148773819Y-69572142D02*
X148821438Y-69476904D01*
X148821438Y-69476904D02*
X148869057Y-69429285D01*
X148869057Y-69429285D02*
X148964295Y-69381666D01*
X148964295Y-69381666D02*
X149107152Y-69381666D01*
X149107152Y-69381666D02*
X149202390Y-69429285D01*
X149202390Y-69429285D02*
X149250009Y-69476904D01*
X149250009Y-69476904D02*
X149297628Y-69572142D01*
X149297628Y-69572142D02*
X149297628Y-69953094D01*
X148773819Y-69048332D02*
X148773819Y-68429285D01*
X148773819Y-68429285D02*
X149154771Y-68762618D01*
X149154771Y-68762618D02*
X149154771Y-68619761D01*
X149154771Y-68619761D02*
X149202390Y-68524523D01*
X149202390Y-68524523D02*
X149250009Y-68476904D01*
X149250009Y-68476904D02*
X149345247Y-68429285D01*
X149345247Y-68429285D02*
X149583342Y-68429285D01*
X149583342Y-68429285D02*
X149678580Y-68476904D01*
X149678580Y-68476904D02*
X149726200Y-68524523D01*
X149726200Y-68524523D02*
X149773819Y-68619761D01*
X149773819Y-68619761D02*
X149773819Y-68905475D01*
X149773819Y-68905475D02*
X149726200Y-69000713D01*
X149726200Y-69000713D02*
X149678580Y-69048332D01*
X149240580Y-62523666D02*
X149288200Y-62571285D01*
X149288200Y-62571285D02*
X149335819Y-62714142D01*
X149335819Y-62714142D02*
X149335819Y-62809380D01*
X149335819Y-62809380D02*
X149288200Y-62952237D01*
X149288200Y-62952237D02*
X149192961Y-63047475D01*
X149192961Y-63047475D02*
X149097723Y-63095094D01*
X149097723Y-63095094D02*
X148907247Y-63142713D01*
X148907247Y-63142713D02*
X148764390Y-63142713D01*
X148764390Y-63142713D02*
X148573914Y-63095094D01*
X148573914Y-63095094D02*
X148478676Y-63047475D01*
X148478676Y-63047475D02*
X148383438Y-62952237D01*
X148383438Y-62952237D02*
X148335819Y-62809380D01*
X148335819Y-62809380D02*
X148335819Y-62714142D01*
X148335819Y-62714142D02*
X148383438Y-62571285D01*
X148383438Y-62571285D02*
X148431057Y-62523666D01*
X148335819Y-62190332D02*
X148335819Y-61571285D01*
X148335819Y-61571285D02*
X148716771Y-61904618D01*
X148716771Y-61904618D02*
X148716771Y-61761761D01*
X148716771Y-61761761D02*
X148764390Y-61666523D01*
X148764390Y-61666523D02*
X148812009Y-61618904D01*
X148812009Y-61618904D02*
X148907247Y-61571285D01*
X148907247Y-61571285D02*
X149145342Y-61571285D01*
X149145342Y-61571285D02*
X149240580Y-61618904D01*
X149240580Y-61618904D02*
X149288200Y-61666523D01*
X149288200Y-61666523D02*
X149335819Y-61761761D01*
X149335819Y-61761761D02*
X149335819Y-62047475D01*
X149335819Y-62047475D02*
X149288200Y-62142713D01*
X149288200Y-62142713D02*
X149240580Y-62190332D01*
X144907095Y-44928819D02*
X144907095Y-45738342D01*
X144907095Y-45738342D02*
X144954714Y-45833580D01*
X144954714Y-45833580D02*
X145002333Y-45881200D01*
X145002333Y-45881200D02*
X145097571Y-45928819D01*
X145097571Y-45928819D02*
X145288047Y-45928819D01*
X145288047Y-45928819D02*
X145383285Y-45881200D01*
X145383285Y-45881200D02*
X145430904Y-45833580D01*
X145430904Y-45833580D02*
X145478523Y-45738342D01*
X145478523Y-45738342D02*
X145478523Y-44928819D01*
X145907095Y-45024057D02*
X145954714Y-44976438D01*
X145954714Y-44976438D02*
X146049952Y-44928819D01*
X146049952Y-44928819D02*
X146288047Y-44928819D01*
X146288047Y-44928819D02*
X146383285Y-44976438D01*
X146383285Y-44976438D02*
X146430904Y-45024057D01*
X146430904Y-45024057D02*
X146478523Y-45119295D01*
X146478523Y-45119295D02*
X146478523Y-45214533D01*
X146478523Y-45214533D02*
X146430904Y-45357390D01*
X146430904Y-45357390D02*
X145859476Y-45928819D01*
X145859476Y-45928819D02*
X146478523Y-45928819D01*
X139268580Y-62650666D02*
X139316200Y-62698285D01*
X139316200Y-62698285D02*
X139363819Y-62841142D01*
X139363819Y-62841142D02*
X139363819Y-62936380D01*
X139363819Y-62936380D02*
X139316200Y-63079237D01*
X139316200Y-63079237D02*
X139220961Y-63174475D01*
X139220961Y-63174475D02*
X139125723Y-63222094D01*
X139125723Y-63222094D02*
X138935247Y-63269713D01*
X138935247Y-63269713D02*
X138792390Y-63269713D01*
X138792390Y-63269713D02*
X138601914Y-63222094D01*
X138601914Y-63222094D02*
X138506676Y-63174475D01*
X138506676Y-63174475D02*
X138411438Y-63079237D01*
X138411438Y-63079237D02*
X138363819Y-62936380D01*
X138363819Y-62936380D02*
X138363819Y-62841142D01*
X138363819Y-62841142D02*
X138411438Y-62698285D01*
X138411438Y-62698285D02*
X138459057Y-62650666D01*
X138459057Y-62269713D02*
X138411438Y-62222094D01*
X138411438Y-62222094D02*
X138363819Y-62126856D01*
X138363819Y-62126856D02*
X138363819Y-61888761D01*
X138363819Y-61888761D02*
X138411438Y-61793523D01*
X138411438Y-61793523D02*
X138459057Y-61745904D01*
X138459057Y-61745904D02*
X138554295Y-61698285D01*
X138554295Y-61698285D02*
X138649533Y-61698285D01*
X138649533Y-61698285D02*
X138792390Y-61745904D01*
X138792390Y-61745904D02*
X139363819Y-62317332D01*
X139363819Y-62317332D02*
X139363819Y-61698285D01*
X118623580Y-117392989D02*
X118671200Y-117440608D01*
X118671200Y-117440608D02*
X118718819Y-117583465D01*
X118718819Y-117583465D02*
X118718819Y-117678703D01*
X118718819Y-117678703D02*
X118671200Y-117821560D01*
X118671200Y-117821560D02*
X118575961Y-117916798D01*
X118575961Y-117916798D02*
X118480723Y-117964417D01*
X118480723Y-117964417D02*
X118290247Y-118012036D01*
X118290247Y-118012036D02*
X118147390Y-118012036D01*
X118147390Y-118012036D02*
X117956914Y-117964417D01*
X117956914Y-117964417D02*
X117861676Y-117916798D01*
X117861676Y-117916798D02*
X117766438Y-117821560D01*
X117766438Y-117821560D02*
X117718819Y-117678703D01*
X117718819Y-117678703D02*
X117718819Y-117583465D01*
X117718819Y-117583465D02*
X117766438Y-117440608D01*
X117766438Y-117440608D02*
X117814057Y-117392989D01*
X118718819Y-116440608D02*
X118718819Y-117012036D01*
X118718819Y-116726322D02*
X117718819Y-116726322D01*
X117718819Y-116726322D02*
X117861676Y-116821560D01*
X117861676Y-116821560D02*
X117956914Y-116916798D01*
X117956914Y-116916798D02*
X118004533Y-117012036D01*
X146587180Y-98171095D02*
X145777657Y-98171095D01*
X145777657Y-98171095D02*
X145682419Y-98218714D01*
X145682419Y-98218714D02*
X145634800Y-98266333D01*
X145634800Y-98266333D02*
X145587180Y-98361571D01*
X145587180Y-98361571D02*
X145587180Y-98552047D01*
X145587180Y-98552047D02*
X145634800Y-98647285D01*
X145634800Y-98647285D02*
X145682419Y-98694904D01*
X145682419Y-98694904D02*
X145777657Y-98742523D01*
X145777657Y-98742523D02*
X146587180Y-98742523D01*
X145587180Y-99742523D02*
X145587180Y-99171095D01*
X145587180Y-99456809D02*
X146587180Y-99456809D01*
X146587180Y-99456809D02*
X146444323Y-99361571D01*
X146444323Y-99361571D02*
X146349085Y-99266333D01*
X146349085Y-99266333D02*
X146301466Y-99171095D01*
D11*
X152173424Y-104248225D02*
X152068662Y-104200606D01*
X152068662Y-104200606D02*
X151911519Y-104200606D01*
X151911519Y-104200606D02*
X151754376Y-104248225D01*
X151754376Y-104248225D02*
X151649614Y-104343463D01*
X151649614Y-104343463D02*
X151597233Y-104438701D01*
X151597233Y-104438701D02*
X151544852Y-104629177D01*
X151544852Y-104629177D02*
X151544852Y-104772034D01*
X151544852Y-104772034D02*
X151597233Y-104962510D01*
X151597233Y-104962510D02*
X151649614Y-105057748D01*
X151649614Y-105057748D02*
X151754376Y-105152987D01*
X151754376Y-105152987D02*
X151911519Y-105200606D01*
X151911519Y-105200606D02*
X152016281Y-105200606D01*
X152016281Y-105200606D02*
X152173424Y-105152987D01*
X152173424Y-105152987D02*
X152225805Y-105105367D01*
X152225805Y-105105367D02*
X152225805Y-104772034D01*
X152225805Y-104772034D02*
X152016281Y-104772034D01*
X152697233Y-105200606D02*
X152697233Y-104200606D01*
X152697233Y-104200606D02*
X153116281Y-104200606D01*
X153116281Y-104200606D02*
X153221043Y-104248225D01*
X153221043Y-104248225D02*
X153273424Y-104295844D01*
X153273424Y-104295844D02*
X153325805Y-104391082D01*
X153325805Y-104391082D02*
X153325805Y-104533939D01*
X153325805Y-104533939D02*
X153273424Y-104629177D01*
X153273424Y-104629177D02*
X153221043Y-104676796D01*
X153221043Y-104676796D02*
X153116281Y-104724415D01*
X153116281Y-104724415D02*
X152697233Y-104724415D01*
X153797233Y-105200606D02*
X153797233Y-104200606D01*
X154530567Y-104200606D02*
X154740091Y-104200606D01*
X154740091Y-104200606D02*
X154844853Y-104248225D01*
X154844853Y-104248225D02*
X154949615Y-104343463D01*
X154949615Y-104343463D02*
X155001996Y-104533939D01*
X155001996Y-104533939D02*
X155001996Y-104867272D01*
X155001996Y-104867272D02*
X154949615Y-105057748D01*
X154949615Y-105057748D02*
X154844853Y-105152987D01*
X154844853Y-105152987D02*
X154740091Y-105200606D01*
X154740091Y-105200606D02*
X154530567Y-105200606D01*
X154530567Y-105200606D02*
X154425805Y-105152987D01*
X154425805Y-105152987D02*
X154321043Y-105057748D01*
X154321043Y-105057748D02*
X154268662Y-104867272D01*
X154268662Y-104867272D02*
X154268662Y-104533939D01*
X154268662Y-104533939D02*
X154321043Y-104343463D01*
X154321043Y-104343463D02*
X154425805Y-104248225D01*
X154425805Y-104248225D02*
X154530567Y-104200606D01*
X156049615Y-105200606D02*
X155421043Y-105200606D01*
X155735329Y-105200606D02*
X155735329Y-104200606D01*
X155735329Y-104200606D02*
X155630567Y-104343463D01*
X155630567Y-104343463D02*
X155525805Y-104438701D01*
X155525805Y-104438701D02*
X155421043Y-104486320D01*
X156992472Y-104200606D02*
X156782948Y-104200606D01*
X156782948Y-104200606D02*
X156678186Y-104248225D01*
X156678186Y-104248225D02*
X156625805Y-104295844D01*
X156625805Y-104295844D02*
X156521043Y-104438701D01*
X156521043Y-104438701D02*
X156468662Y-104629177D01*
X156468662Y-104629177D02*
X156468662Y-105010129D01*
X156468662Y-105010129D02*
X156521043Y-105105367D01*
X156521043Y-105105367D02*
X156573424Y-105152987D01*
X156573424Y-105152987D02*
X156678186Y-105200606D01*
X156678186Y-105200606D02*
X156887710Y-105200606D01*
X156887710Y-105200606D02*
X156992472Y-105152987D01*
X156992472Y-105152987D02*
X157044853Y-105105367D01*
X157044853Y-105105367D02*
X157097234Y-105010129D01*
X157097234Y-105010129D02*
X157097234Y-104772034D01*
X157097234Y-104772034D02*
X157044853Y-104676796D01*
X157044853Y-104676796D02*
X156992472Y-104629177D01*
X156992472Y-104629177D02*
X156887710Y-104581558D01*
X156887710Y-104581558D02*
X156678186Y-104581558D01*
X156678186Y-104581558D02*
X156573424Y-104629177D01*
X156573424Y-104629177D02*
X156521043Y-104676796D01*
X156521043Y-104676796D02*
X156468662Y-104772034D01*
X134673424Y-99248225D02*
X134568662Y-99200606D01*
X134568662Y-99200606D02*
X134411519Y-99200606D01*
X134411519Y-99200606D02*
X134254376Y-99248225D01*
X134254376Y-99248225D02*
X134149614Y-99343463D01*
X134149614Y-99343463D02*
X134097233Y-99438701D01*
X134097233Y-99438701D02*
X134044852Y-99629177D01*
X134044852Y-99629177D02*
X134044852Y-99772034D01*
X134044852Y-99772034D02*
X134097233Y-99962510D01*
X134097233Y-99962510D02*
X134149614Y-100057748D01*
X134149614Y-100057748D02*
X134254376Y-100152987D01*
X134254376Y-100152987D02*
X134411519Y-100200606D01*
X134411519Y-100200606D02*
X134516281Y-100200606D01*
X134516281Y-100200606D02*
X134673424Y-100152987D01*
X134673424Y-100152987D02*
X134725805Y-100105367D01*
X134725805Y-100105367D02*
X134725805Y-99772034D01*
X134725805Y-99772034D02*
X134516281Y-99772034D01*
X135197233Y-100200606D02*
X135197233Y-99200606D01*
X135197233Y-99200606D02*
X135616281Y-99200606D01*
X135616281Y-99200606D02*
X135721043Y-99248225D01*
X135721043Y-99248225D02*
X135773424Y-99295844D01*
X135773424Y-99295844D02*
X135825805Y-99391082D01*
X135825805Y-99391082D02*
X135825805Y-99533939D01*
X135825805Y-99533939D02*
X135773424Y-99629177D01*
X135773424Y-99629177D02*
X135721043Y-99676796D01*
X135721043Y-99676796D02*
X135616281Y-99724415D01*
X135616281Y-99724415D02*
X135197233Y-99724415D01*
X136297233Y-100200606D02*
X136297233Y-99200606D01*
X137030567Y-99200606D02*
X137240091Y-99200606D01*
X137240091Y-99200606D02*
X137344853Y-99248225D01*
X137344853Y-99248225D02*
X137449615Y-99343463D01*
X137449615Y-99343463D02*
X137501996Y-99533939D01*
X137501996Y-99533939D02*
X137501996Y-99867272D01*
X137501996Y-99867272D02*
X137449615Y-100057748D01*
X137449615Y-100057748D02*
X137344853Y-100152987D01*
X137344853Y-100152987D02*
X137240091Y-100200606D01*
X137240091Y-100200606D02*
X137030567Y-100200606D01*
X137030567Y-100200606D02*
X136925805Y-100152987D01*
X136925805Y-100152987D02*
X136821043Y-100057748D01*
X136821043Y-100057748D02*
X136768662Y-99867272D01*
X136768662Y-99867272D02*
X136768662Y-99533939D01*
X136768662Y-99533939D02*
X136821043Y-99343463D01*
X136821043Y-99343463D02*
X136925805Y-99248225D01*
X136925805Y-99248225D02*
X137030567Y-99200606D01*
X137921043Y-99295844D02*
X137973424Y-99248225D01*
X137973424Y-99248225D02*
X138078186Y-99200606D01*
X138078186Y-99200606D02*
X138340091Y-99200606D01*
X138340091Y-99200606D02*
X138444853Y-99248225D01*
X138444853Y-99248225D02*
X138497234Y-99295844D01*
X138497234Y-99295844D02*
X138549615Y-99391082D01*
X138549615Y-99391082D02*
X138549615Y-99486320D01*
X138549615Y-99486320D02*
X138497234Y-99629177D01*
X138497234Y-99629177D02*
X137868662Y-100200606D01*
X137868662Y-100200606D02*
X138549615Y-100200606D01*
X139544853Y-99200606D02*
X139021043Y-99200606D01*
X139021043Y-99200606D02*
X138968662Y-99676796D01*
X138968662Y-99676796D02*
X139021043Y-99629177D01*
X139021043Y-99629177D02*
X139125805Y-99581558D01*
X139125805Y-99581558D02*
X139387710Y-99581558D01*
X139387710Y-99581558D02*
X139492472Y-99629177D01*
X139492472Y-99629177D02*
X139544853Y-99676796D01*
X139544853Y-99676796D02*
X139597234Y-99772034D01*
X139597234Y-99772034D02*
X139597234Y-100010129D01*
X139597234Y-100010129D02*
X139544853Y-100105367D01*
X139544853Y-100105367D02*
X139492472Y-100152987D01*
X139492472Y-100152987D02*
X139387710Y-100200606D01*
X139387710Y-100200606D02*
X139125805Y-100200606D01*
X139125805Y-100200606D02*
X139021043Y-100152987D01*
X139021043Y-100152987D02*
X138968662Y-100105367D01*
X134673424Y-101748225D02*
X134568662Y-101700606D01*
X134568662Y-101700606D02*
X134411519Y-101700606D01*
X134411519Y-101700606D02*
X134254376Y-101748225D01*
X134254376Y-101748225D02*
X134149614Y-101843463D01*
X134149614Y-101843463D02*
X134097233Y-101938701D01*
X134097233Y-101938701D02*
X134044852Y-102129177D01*
X134044852Y-102129177D02*
X134044852Y-102272034D01*
X134044852Y-102272034D02*
X134097233Y-102462510D01*
X134097233Y-102462510D02*
X134149614Y-102557748D01*
X134149614Y-102557748D02*
X134254376Y-102652987D01*
X134254376Y-102652987D02*
X134411519Y-102700606D01*
X134411519Y-102700606D02*
X134516281Y-102700606D01*
X134516281Y-102700606D02*
X134673424Y-102652987D01*
X134673424Y-102652987D02*
X134725805Y-102605367D01*
X134725805Y-102605367D02*
X134725805Y-102272034D01*
X134725805Y-102272034D02*
X134516281Y-102272034D01*
X135197233Y-102700606D02*
X135197233Y-101700606D01*
X135197233Y-101700606D02*
X135616281Y-101700606D01*
X135616281Y-101700606D02*
X135721043Y-101748225D01*
X135721043Y-101748225D02*
X135773424Y-101795844D01*
X135773424Y-101795844D02*
X135825805Y-101891082D01*
X135825805Y-101891082D02*
X135825805Y-102033939D01*
X135825805Y-102033939D02*
X135773424Y-102129177D01*
X135773424Y-102129177D02*
X135721043Y-102176796D01*
X135721043Y-102176796D02*
X135616281Y-102224415D01*
X135616281Y-102224415D02*
X135197233Y-102224415D01*
X136297233Y-102700606D02*
X136297233Y-101700606D01*
X137030567Y-101700606D02*
X137240091Y-101700606D01*
X137240091Y-101700606D02*
X137344853Y-101748225D01*
X137344853Y-101748225D02*
X137449615Y-101843463D01*
X137449615Y-101843463D02*
X137501996Y-102033939D01*
X137501996Y-102033939D02*
X137501996Y-102367272D01*
X137501996Y-102367272D02*
X137449615Y-102557748D01*
X137449615Y-102557748D02*
X137344853Y-102652987D01*
X137344853Y-102652987D02*
X137240091Y-102700606D01*
X137240091Y-102700606D02*
X137030567Y-102700606D01*
X137030567Y-102700606D02*
X136925805Y-102652987D01*
X136925805Y-102652987D02*
X136821043Y-102557748D01*
X136821043Y-102557748D02*
X136768662Y-102367272D01*
X136768662Y-102367272D02*
X136768662Y-102033939D01*
X136768662Y-102033939D02*
X136821043Y-101843463D01*
X136821043Y-101843463D02*
X136925805Y-101748225D01*
X136925805Y-101748225D02*
X137030567Y-101700606D01*
X137921043Y-101795844D02*
X137973424Y-101748225D01*
X137973424Y-101748225D02*
X138078186Y-101700606D01*
X138078186Y-101700606D02*
X138340091Y-101700606D01*
X138340091Y-101700606D02*
X138444853Y-101748225D01*
X138444853Y-101748225D02*
X138497234Y-101795844D01*
X138497234Y-101795844D02*
X138549615Y-101891082D01*
X138549615Y-101891082D02*
X138549615Y-101986320D01*
X138549615Y-101986320D02*
X138497234Y-102129177D01*
X138497234Y-102129177D02*
X137868662Y-102700606D01*
X137868662Y-102700606D02*
X138549615Y-102700606D01*
X139492472Y-101700606D02*
X139282948Y-101700606D01*
X139282948Y-101700606D02*
X139178186Y-101748225D01*
X139178186Y-101748225D02*
X139125805Y-101795844D01*
X139125805Y-101795844D02*
X139021043Y-101938701D01*
X139021043Y-101938701D02*
X138968662Y-102129177D01*
X138968662Y-102129177D02*
X138968662Y-102510129D01*
X138968662Y-102510129D02*
X139021043Y-102605367D01*
X139021043Y-102605367D02*
X139073424Y-102652987D01*
X139073424Y-102652987D02*
X139178186Y-102700606D01*
X139178186Y-102700606D02*
X139387710Y-102700606D01*
X139387710Y-102700606D02*
X139492472Y-102652987D01*
X139492472Y-102652987D02*
X139544853Y-102605367D01*
X139544853Y-102605367D02*
X139597234Y-102510129D01*
X139597234Y-102510129D02*
X139597234Y-102272034D01*
X139597234Y-102272034D02*
X139544853Y-102176796D01*
X139544853Y-102176796D02*
X139492472Y-102129177D01*
X139492472Y-102129177D02*
X139387710Y-102081558D01*
X139387710Y-102081558D02*
X139178186Y-102081558D01*
X139178186Y-102081558D02*
X139073424Y-102129177D01*
X139073424Y-102129177D02*
X139021043Y-102176796D01*
X139021043Y-102176796D02*
X138968662Y-102272034D01*
X153173424Y-89248225D02*
X153068662Y-89200606D01*
X153068662Y-89200606D02*
X152911519Y-89200606D01*
X152911519Y-89200606D02*
X152754376Y-89248225D01*
X152754376Y-89248225D02*
X152649614Y-89343463D01*
X152649614Y-89343463D02*
X152597233Y-89438701D01*
X152597233Y-89438701D02*
X152544852Y-89629177D01*
X152544852Y-89629177D02*
X152544852Y-89772034D01*
X152544852Y-89772034D02*
X152597233Y-89962510D01*
X152597233Y-89962510D02*
X152649614Y-90057748D01*
X152649614Y-90057748D02*
X152754376Y-90152987D01*
X152754376Y-90152987D02*
X152911519Y-90200606D01*
X152911519Y-90200606D02*
X153016281Y-90200606D01*
X153016281Y-90200606D02*
X153173424Y-90152987D01*
X153173424Y-90152987D02*
X153225805Y-90105367D01*
X153225805Y-90105367D02*
X153225805Y-89772034D01*
X153225805Y-89772034D02*
X153016281Y-89772034D01*
X153697233Y-90200606D02*
X153697233Y-89200606D01*
X153697233Y-89200606D02*
X154116281Y-89200606D01*
X154116281Y-89200606D02*
X154221043Y-89248225D01*
X154221043Y-89248225D02*
X154273424Y-89295844D01*
X154273424Y-89295844D02*
X154325805Y-89391082D01*
X154325805Y-89391082D02*
X154325805Y-89533939D01*
X154325805Y-89533939D02*
X154273424Y-89629177D01*
X154273424Y-89629177D02*
X154221043Y-89676796D01*
X154221043Y-89676796D02*
X154116281Y-89724415D01*
X154116281Y-89724415D02*
X153697233Y-89724415D01*
X154797233Y-90200606D02*
X154797233Y-89200606D01*
X155530567Y-89200606D02*
X155740091Y-89200606D01*
X155740091Y-89200606D02*
X155844853Y-89248225D01*
X155844853Y-89248225D02*
X155949615Y-89343463D01*
X155949615Y-89343463D02*
X156001996Y-89533939D01*
X156001996Y-89533939D02*
X156001996Y-89867272D01*
X156001996Y-89867272D02*
X155949615Y-90057748D01*
X155949615Y-90057748D02*
X155844853Y-90152987D01*
X155844853Y-90152987D02*
X155740091Y-90200606D01*
X155740091Y-90200606D02*
X155530567Y-90200606D01*
X155530567Y-90200606D02*
X155425805Y-90152987D01*
X155425805Y-90152987D02*
X155321043Y-90057748D01*
X155321043Y-90057748D02*
X155268662Y-89867272D01*
X155268662Y-89867272D02*
X155268662Y-89533939D01*
X155268662Y-89533939D02*
X155321043Y-89343463D01*
X155321043Y-89343463D02*
X155425805Y-89248225D01*
X155425805Y-89248225D02*
X155530567Y-89200606D01*
X156368662Y-89200606D02*
X157049615Y-89200606D01*
X157049615Y-89200606D02*
X156682948Y-89581558D01*
X156682948Y-89581558D02*
X156840091Y-89581558D01*
X156840091Y-89581558D02*
X156944853Y-89629177D01*
X156944853Y-89629177D02*
X156997234Y-89676796D01*
X156997234Y-89676796D02*
X157049615Y-89772034D01*
X157049615Y-89772034D02*
X157049615Y-90010129D01*
X157049615Y-90010129D02*
X156997234Y-90105367D01*
X156997234Y-90105367D02*
X156944853Y-90152987D01*
X156944853Y-90152987D02*
X156840091Y-90200606D01*
X156840091Y-90200606D02*
X156525805Y-90200606D01*
X156525805Y-90200606D02*
X156421043Y-90152987D01*
X156421043Y-90152987D02*
X156368662Y-90105367D01*
X134673424Y-89248225D02*
X134568662Y-89200606D01*
X134568662Y-89200606D02*
X134411519Y-89200606D01*
X134411519Y-89200606D02*
X134254376Y-89248225D01*
X134254376Y-89248225D02*
X134149614Y-89343463D01*
X134149614Y-89343463D02*
X134097233Y-89438701D01*
X134097233Y-89438701D02*
X134044852Y-89629177D01*
X134044852Y-89629177D02*
X134044852Y-89772034D01*
X134044852Y-89772034D02*
X134097233Y-89962510D01*
X134097233Y-89962510D02*
X134149614Y-90057748D01*
X134149614Y-90057748D02*
X134254376Y-90152987D01*
X134254376Y-90152987D02*
X134411519Y-90200606D01*
X134411519Y-90200606D02*
X134516281Y-90200606D01*
X134516281Y-90200606D02*
X134673424Y-90152987D01*
X134673424Y-90152987D02*
X134725805Y-90105367D01*
X134725805Y-90105367D02*
X134725805Y-89772034D01*
X134725805Y-89772034D02*
X134516281Y-89772034D01*
X135197233Y-90200606D02*
X135197233Y-89200606D01*
X135197233Y-89200606D02*
X135616281Y-89200606D01*
X135616281Y-89200606D02*
X135721043Y-89248225D01*
X135721043Y-89248225D02*
X135773424Y-89295844D01*
X135773424Y-89295844D02*
X135825805Y-89391082D01*
X135825805Y-89391082D02*
X135825805Y-89533939D01*
X135825805Y-89533939D02*
X135773424Y-89629177D01*
X135773424Y-89629177D02*
X135721043Y-89676796D01*
X135721043Y-89676796D02*
X135616281Y-89724415D01*
X135616281Y-89724415D02*
X135197233Y-89724415D01*
X136297233Y-90200606D02*
X136297233Y-89200606D01*
X137030567Y-89200606D02*
X137240091Y-89200606D01*
X137240091Y-89200606D02*
X137344853Y-89248225D01*
X137344853Y-89248225D02*
X137449615Y-89343463D01*
X137449615Y-89343463D02*
X137501996Y-89533939D01*
X137501996Y-89533939D02*
X137501996Y-89867272D01*
X137501996Y-89867272D02*
X137449615Y-90057748D01*
X137449615Y-90057748D02*
X137344853Y-90152987D01*
X137344853Y-90152987D02*
X137240091Y-90200606D01*
X137240091Y-90200606D02*
X137030567Y-90200606D01*
X137030567Y-90200606D02*
X136925805Y-90152987D01*
X136925805Y-90152987D02*
X136821043Y-90057748D01*
X136821043Y-90057748D02*
X136768662Y-89867272D01*
X136768662Y-89867272D02*
X136768662Y-89533939D01*
X136768662Y-89533939D02*
X136821043Y-89343463D01*
X136821043Y-89343463D02*
X136925805Y-89248225D01*
X136925805Y-89248225D02*
X137030567Y-89200606D01*
X137868662Y-89200606D02*
X138549615Y-89200606D01*
X138549615Y-89200606D02*
X138182948Y-89581558D01*
X138182948Y-89581558D02*
X138340091Y-89581558D01*
X138340091Y-89581558D02*
X138444853Y-89629177D01*
X138444853Y-89629177D02*
X138497234Y-89676796D01*
X138497234Y-89676796D02*
X138549615Y-89772034D01*
X138549615Y-89772034D02*
X138549615Y-90010129D01*
X138549615Y-90010129D02*
X138497234Y-90105367D01*
X138497234Y-90105367D02*
X138444853Y-90152987D01*
X138444853Y-90152987D02*
X138340091Y-90200606D01*
X138340091Y-90200606D02*
X138025805Y-90200606D01*
X138025805Y-90200606D02*
X137921043Y-90152987D01*
X137921043Y-90152987D02*
X137868662Y-90105367D01*
X139492472Y-89533939D02*
X139492472Y-90200606D01*
X139230567Y-89152987D02*
X138968662Y-89867272D01*
X138968662Y-89867272D02*
X139649615Y-89867272D01*
X152173424Y-101748225D02*
X152068662Y-101700606D01*
X152068662Y-101700606D02*
X151911519Y-101700606D01*
X151911519Y-101700606D02*
X151754376Y-101748225D01*
X151754376Y-101748225D02*
X151649614Y-101843463D01*
X151649614Y-101843463D02*
X151597233Y-101938701D01*
X151597233Y-101938701D02*
X151544852Y-102129177D01*
X151544852Y-102129177D02*
X151544852Y-102272034D01*
X151544852Y-102272034D02*
X151597233Y-102462510D01*
X151597233Y-102462510D02*
X151649614Y-102557748D01*
X151649614Y-102557748D02*
X151754376Y-102652987D01*
X151754376Y-102652987D02*
X151911519Y-102700606D01*
X151911519Y-102700606D02*
X152016281Y-102700606D01*
X152016281Y-102700606D02*
X152173424Y-102652987D01*
X152173424Y-102652987D02*
X152225805Y-102605367D01*
X152225805Y-102605367D02*
X152225805Y-102272034D01*
X152225805Y-102272034D02*
X152016281Y-102272034D01*
X152697233Y-102700606D02*
X152697233Y-101700606D01*
X152697233Y-101700606D02*
X153116281Y-101700606D01*
X153116281Y-101700606D02*
X153221043Y-101748225D01*
X153221043Y-101748225D02*
X153273424Y-101795844D01*
X153273424Y-101795844D02*
X153325805Y-101891082D01*
X153325805Y-101891082D02*
X153325805Y-102033939D01*
X153325805Y-102033939D02*
X153273424Y-102129177D01*
X153273424Y-102129177D02*
X153221043Y-102176796D01*
X153221043Y-102176796D02*
X153116281Y-102224415D01*
X153116281Y-102224415D02*
X152697233Y-102224415D01*
X153797233Y-102700606D02*
X153797233Y-101700606D01*
X154530567Y-101700606D02*
X154740091Y-101700606D01*
X154740091Y-101700606D02*
X154844853Y-101748225D01*
X154844853Y-101748225D02*
X154949615Y-101843463D01*
X154949615Y-101843463D02*
X155001996Y-102033939D01*
X155001996Y-102033939D02*
X155001996Y-102367272D01*
X155001996Y-102367272D02*
X154949615Y-102557748D01*
X154949615Y-102557748D02*
X154844853Y-102652987D01*
X154844853Y-102652987D02*
X154740091Y-102700606D01*
X154740091Y-102700606D02*
X154530567Y-102700606D01*
X154530567Y-102700606D02*
X154425805Y-102652987D01*
X154425805Y-102652987D02*
X154321043Y-102557748D01*
X154321043Y-102557748D02*
X154268662Y-102367272D01*
X154268662Y-102367272D02*
X154268662Y-102033939D01*
X154268662Y-102033939D02*
X154321043Y-101843463D01*
X154321043Y-101843463D02*
X154425805Y-101748225D01*
X154425805Y-101748225D02*
X154530567Y-101700606D01*
X156049615Y-102700606D02*
X155421043Y-102700606D01*
X155735329Y-102700606D02*
X155735329Y-101700606D01*
X155735329Y-101700606D02*
X155630567Y-101843463D01*
X155630567Y-101843463D02*
X155525805Y-101938701D01*
X155525805Y-101938701D02*
X155421043Y-101986320D01*
X156416281Y-101700606D02*
X157149615Y-101700606D01*
X157149615Y-101700606D02*
X156678186Y-102700606D01*
X134440090Y-116700606D02*
X134806757Y-117700606D01*
X134806757Y-117700606D02*
X135173424Y-116700606D01*
X135540090Y-117700606D02*
X135540090Y-116700606D01*
X136063900Y-117700606D02*
X136063900Y-116700606D01*
X136063900Y-116700606D02*
X136692472Y-117700606D01*
X136692472Y-117700606D02*
X136692472Y-116700606D01*
X152173424Y-91748225D02*
X152068662Y-91700606D01*
X152068662Y-91700606D02*
X151911519Y-91700606D01*
X151911519Y-91700606D02*
X151754376Y-91748225D01*
X151754376Y-91748225D02*
X151649614Y-91843463D01*
X151649614Y-91843463D02*
X151597233Y-91938701D01*
X151597233Y-91938701D02*
X151544852Y-92129177D01*
X151544852Y-92129177D02*
X151544852Y-92272034D01*
X151544852Y-92272034D02*
X151597233Y-92462510D01*
X151597233Y-92462510D02*
X151649614Y-92557748D01*
X151649614Y-92557748D02*
X151754376Y-92652987D01*
X151754376Y-92652987D02*
X151911519Y-92700606D01*
X151911519Y-92700606D02*
X152016281Y-92700606D01*
X152016281Y-92700606D02*
X152173424Y-92652987D01*
X152173424Y-92652987D02*
X152225805Y-92605367D01*
X152225805Y-92605367D02*
X152225805Y-92272034D01*
X152225805Y-92272034D02*
X152016281Y-92272034D01*
X152697233Y-92700606D02*
X152697233Y-91700606D01*
X152697233Y-91700606D02*
X153116281Y-91700606D01*
X153116281Y-91700606D02*
X153221043Y-91748225D01*
X153221043Y-91748225D02*
X153273424Y-91795844D01*
X153273424Y-91795844D02*
X153325805Y-91891082D01*
X153325805Y-91891082D02*
X153325805Y-92033939D01*
X153325805Y-92033939D02*
X153273424Y-92129177D01*
X153273424Y-92129177D02*
X153221043Y-92176796D01*
X153221043Y-92176796D02*
X153116281Y-92224415D01*
X153116281Y-92224415D02*
X152697233Y-92224415D01*
X153797233Y-92700606D02*
X153797233Y-91700606D01*
X154530567Y-91700606D02*
X154740091Y-91700606D01*
X154740091Y-91700606D02*
X154844853Y-91748225D01*
X154844853Y-91748225D02*
X154949615Y-91843463D01*
X154949615Y-91843463D02*
X155001996Y-92033939D01*
X155001996Y-92033939D02*
X155001996Y-92367272D01*
X155001996Y-92367272D02*
X154949615Y-92557748D01*
X154949615Y-92557748D02*
X154844853Y-92652987D01*
X154844853Y-92652987D02*
X154740091Y-92700606D01*
X154740091Y-92700606D02*
X154530567Y-92700606D01*
X154530567Y-92700606D02*
X154425805Y-92652987D01*
X154425805Y-92652987D02*
X154321043Y-92557748D01*
X154321043Y-92557748D02*
X154268662Y-92367272D01*
X154268662Y-92367272D02*
X154268662Y-92033939D01*
X154268662Y-92033939D02*
X154321043Y-91843463D01*
X154321043Y-91843463D02*
X154425805Y-91748225D01*
X154425805Y-91748225D02*
X154530567Y-91700606D01*
X155421043Y-91795844D02*
X155473424Y-91748225D01*
X155473424Y-91748225D02*
X155578186Y-91700606D01*
X155578186Y-91700606D02*
X155840091Y-91700606D01*
X155840091Y-91700606D02*
X155944853Y-91748225D01*
X155944853Y-91748225D02*
X155997234Y-91795844D01*
X155997234Y-91795844D02*
X156049615Y-91891082D01*
X156049615Y-91891082D02*
X156049615Y-91986320D01*
X156049615Y-91986320D02*
X155997234Y-92129177D01*
X155997234Y-92129177D02*
X155368662Y-92700606D01*
X155368662Y-92700606D02*
X156049615Y-92700606D01*
X157097234Y-92700606D02*
X156468662Y-92700606D01*
X156782948Y-92700606D02*
X156782948Y-91700606D01*
X156782948Y-91700606D02*
X156678186Y-91843463D01*
X156678186Y-91843463D02*
X156573424Y-91938701D01*
X156573424Y-91938701D02*
X156468662Y-91986320D01*
X152173424Y-94248225D02*
X152068662Y-94200606D01*
X152068662Y-94200606D02*
X151911519Y-94200606D01*
X151911519Y-94200606D02*
X151754376Y-94248225D01*
X151754376Y-94248225D02*
X151649614Y-94343463D01*
X151649614Y-94343463D02*
X151597233Y-94438701D01*
X151597233Y-94438701D02*
X151544852Y-94629177D01*
X151544852Y-94629177D02*
X151544852Y-94772034D01*
X151544852Y-94772034D02*
X151597233Y-94962510D01*
X151597233Y-94962510D02*
X151649614Y-95057748D01*
X151649614Y-95057748D02*
X151754376Y-95152987D01*
X151754376Y-95152987D02*
X151911519Y-95200606D01*
X151911519Y-95200606D02*
X152016281Y-95200606D01*
X152016281Y-95200606D02*
X152173424Y-95152987D01*
X152173424Y-95152987D02*
X152225805Y-95105367D01*
X152225805Y-95105367D02*
X152225805Y-94772034D01*
X152225805Y-94772034D02*
X152016281Y-94772034D01*
X152697233Y-95200606D02*
X152697233Y-94200606D01*
X152697233Y-94200606D02*
X153116281Y-94200606D01*
X153116281Y-94200606D02*
X153221043Y-94248225D01*
X153221043Y-94248225D02*
X153273424Y-94295844D01*
X153273424Y-94295844D02*
X153325805Y-94391082D01*
X153325805Y-94391082D02*
X153325805Y-94533939D01*
X153325805Y-94533939D02*
X153273424Y-94629177D01*
X153273424Y-94629177D02*
X153221043Y-94676796D01*
X153221043Y-94676796D02*
X153116281Y-94724415D01*
X153116281Y-94724415D02*
X152697233Y-94724415D01*
X153797233Y-95200606D02*
X153797233Y-94200606D01*
X154530567Y-94200606D02*
X154740091Y-94200606D01*
X154740091Y-94200606D02*
X154844853Y-94248225D01*
X154844853Y-94248225D02*
X154949615Y-94343463D01*
X154949615Y-94343463D02*
X155001996Y-94533939D01*
X155001996Y-94533939D02*
X155001996Y-94867272D01*
X155001996Y-94867272D02*
X154949615Y-95057748D01*
X154949615Y-95057748D02*
X154844853Y-95152987D01*
X154844853Y-95152987D02*
X154740091Y-95200606D01*
X154740091Y-95200606D02*
X154530567Y-95200606D01*
X154530567Y-95200606D02*
X154425805Y-95152987D01*
X154425805Y-95152987D02*
X154321043Y-95057748D01*
X154321043Y-95057748D02*
X154268662Y-94867272D01*
X154268662Y-94867272D02*
X154268662Y-94533939D01*
X154268662Y-94533939D02*
X154321043Y-94343463D01*
X154321043Y-94343463D02*
X154425805Y-94248225D01*
X154425805Y-94248225D02*
X154530567Y-94200606D01*
X156049615Y-95200606D02*
X155421043Y-95200606D01*
X155735329Y-95200606D02*
X155735329Y-94200606D01*
X155735329Y-94200606D02*
X155630567Y-94343463D01*
X155630567Y-94343463D02*
X155525805Y-94438701D01*
X155525805Y-94438701D02*
X155421043Y-94486320D01*
X156573424Y-95200606D02*
X156782948Y-95200606D01*
X156782948Y-95200606D02*
X156887710Y-95152987D01*
X156887710Y-95152987D02*
X156940091Y-95105367D01*
X156940091Y-95105367D02*
X157044853Y-94962510D01*
X157044853Y-94962510D02*
X157097234Y-94772034D01*
X157097234Y-94772034D02*
X157097234Y-94391082D01*
X157097234Y-94391082D02*
X157044853Y-94295844D01*
X157044853Y-94295844D02*
X156992472Y-94248225D01*
X156992472Y-94248225D02*
X156887710Y-94200606D01*
X156887710Y-94200606D02*
X156678186Y-94200606D01*
X156678186Y-94200606D02*
X156573424Y-94248225D01*
X156573424Y-94248225D02*
X156521043Y-94295844D01*
X156521043Y-94295844D02*
X156468662Y-94391082D01*
X156468662Y-94391082D02*
X156468662Y-94629177D01*
X156468662Y-94629177D02*
X156521043Y-94724415D01*
X156521043Y-94724415D02*
X156573424Y-94772034D01*
X156573424Y-94772034D02*
X156678186Y-94819653D01*
X156678186Y-94819653D02*
X156887710Y-94819653D01*
X156887710Y-94819653D02*
X156992472Y-94772034D01*
X156992472Y-94772034D02*
X157044853Y-94724415D01*
X157044853Y-94724415D02*
X157097234Y-94629177D01*
X152173424Y-96748225D02*
X152068662Y-96700606D01*
X152068662Y-96700606D02*
X151911519Y-96700606D01*
X151911519Y-96700606D02*
X151754376Y-96748225D01*
X151754376Y-96748225D02*
X151649614Y-96843463D01*
X151649614Y-96843463D02*
X151597233Y-96938701D01*
X151597233Y-96938701D02*
X151544852Y-97129177D01*
X151544852Y-97129177D02*
X151544852Y-97272034D01*
X151544852Y-97272034D02*
X151597233Y-97462510D01*
X151597233Y-97462510D02*
X151649614Y-97557748D01*
X151649614Y-97557748D02*
X151754376Y-97652987D01*
X151754376Y-97652987D02*
X151911519Y-97700606D01*
X151911519Y-97700606D02*
X152016281Y-97700606D01*
X152016281Y-97700606D02*
X152173424Y-97652987D01*
X152173424Y-97652987D02*
X152225805Y-97605367D01*
X152225805Y-97605367D02*
X152225805Y-97272034D01*
X152225805Y-97272034D02*
X152016281Y-97272034D01*
X152697233Y-97700606D02*
X152697233Y-96700606D01*
X152697233Y-96700606D02*
X153116281Y-96700606D01*
X153116281Y-96700606D02*
X153221043Y-96748225D01*
X153221043Y-96748225D02*
X153273424Y-96795844D01*
X153273424Y-96795844D02*
X153325805Y-96891082D01*
X153325805Y-96891082D02*
X153325805Y-97033939D01*
X153325805Y-97033939D02*
X153273424Y-97129177D01*
X153273424Y-97129177D02*
X153221043Y-97176796D01*
X153221043Y-97176796D02*
X153116281Y-97224415D01*
X153116281Y-97224415D02*
X152697233Y-97224415D01*
X153797233Y-97700606D02*
X153797233Y-96700606D01*
X154530567Y-96700606D02*
X154740091Y-96700606D01*
X154740091Y-96700606D02*
X154844853Y-96748225D01*
X154844853Y-96748225D02*
X154949615Y-96843463D01*
X154949615Y-96843463D02*
X155001996Y-97033939D01*
X155001996Y-97033939D02*
X155001996Y-97367272D01*
X155001996Y-97367272D02*
X154949615Y-97557748D01*
X154949615Y-97557748D02*
X154844853Y-97652987D01*
X154844853Y-97652987D02*
X154740091Y-97700606D01*
X154740091Y-97700606D02*
X154530567Y-97700606D01*
X154530567Y-97700606D02*
X154425805Y-97652987D01*
X154425805Y-97652987D02*
X154321043Y-97557748D01*
X154321043Y-97557748D02*
X154268662Y-97367272D01*
X154268662Y-97367272D02*
X154268662Y-97033939D01*
X154268662Y-97033939D02*
X154321043Y-96843463D01*
X154321043Y-96843463D02*
X154425805Y-96748225D01*
X154425805Y-96748225D02*
X154530567Y-96700606D01*
X156049615Y-97700606D02*
X155421043Y-97700606D01*
X155735329Y-97700606D02*
X155735329Y-96700606D01*
X155735329Y-96700606D02*
X155630567Y-96843463D01*
X155630567Y-96843463D02*
X155525805Y-96938701D01*
X155525805Y-96938701D02*
X155421043Y-96986320D01*
X156678186Y-97129177D02*
X156573424Y-97081558D01*
X156573424Y-97081558D02*
X156521043Y-97033939D01*
X156521043Y-97033939D02*
X156468662Y-96938701D01*
X156468662Y-96938701D02*
X156468662Y-96891082D01*
X156468662Y-96891082D02*
X156521043Y-96795844D01*
X156521043Y-96795844D02*
X156573424Y-96748225D01*
X156573424Y-96748225D02*
X156678186Y-96700606D01*
X156678186Y-96700606D02*
X156887710Y-96700606D01*
X156887710Y-96700606D02*
X156992472Y-96748225D01*
X156992472Y-96748225D02*
X157044853Y-96795844D01*
X157044853Y-96795844D02*
X157097234Y-96891082D01*
X157097234Y-96891082D02*
X157097234Y-96938701D01*
X157097234Y-96938701D02*
X157044853Y-97033939D01*
X157044853Y-97033939D02*
X156992472Y-97081558D01*
X156992472Y-97081558D02*
X156887710Y-97129177D01*
X156887710Y-97129177D02*
X156678186Y-97129177D01*
X156678186Y-97129177D02*
X156573424Y-97176796D01*
X156573424Y-97176796D02*
X156521043Y-97224415D01*
X156521043Y-97224415D02*
X156468662Y-97319653D01*
X156468662Y-97319653D02*
X156468662Y-97510129D01*
X156468662Y-97510129D02*
X156521043Y-97605367D01*
X156521043Y-97605367D02*
X156573424Y-97652987D01*
X156573424Y-97652987D02*
X156678186Y-97700606D01*
X156678186Y-97700606D02*
X156887710Y-97700606D01*
X156887710Y-97700606D02*
X156992472Y-97652987D01*
X156992472Y-97652987D02*
X157044853Y-97605367D01*
X157044853Y-97605367D02*
X157097234Y-97510129D01*
X157097234Y-97510129D02*
X157097234Y-97319653D01*
X157097234Y-97319653D02*
X157044853Y-97224415D01*
X157044853Y-97224415D02*
X156992472Y-97176796D01*
X156992472Y-97176796D02*
X156887710Y-97129177D01*
X153173424Y-86248225D02*
X153068662Y-86200606D01*
X153068662Y-86200606D02*
X152911519Y-86200606D01*
X152911519Y-86200606D02*
X152754376Y-86248225D01*
X152754376Y-86248225D02*
X152649614Y-86343463D01*
X152649614Y-86343463D02*
X152597233Y-86438701D01*
X152597233Y-86438701D02*
X152544852Y-86629177D01*
X152544852Y-86629177D02*
X152544852Y-86772034D01*
X152544852Y-86772034D02*
X152597233Y-86962510D01*
X152597233Y-86962510D02*
X152649614Y-87057748D01*
X152649614Y-87057748D02*
X152754376Y-87152987D01*
X152754376Y-87152987D02*
X152911519Y-87200606D01*
X152911519Y-87200606D02*
X153016281Y-87200606D01*
X153016281Y-87200606D02*
X153173424Y-87152987D01*
X153173424Y-87152987D02*
X153225805Y-87105367D01*
X153225805Y-87105367D02*
X153225805Y-86772034D01*
X153225805Y-86772034D02*
X153016281Y-86772034D01*
X153697233Y-87200606D02*
X153697233Y-86200606D01*
X153697233Y-86200606D02*
X154116281Y-86200606D01*
X154116281Y-86200606D02*
X154221043Y-86248225D01*
X154221043Y-86248225D02*
X154273424Y-86295844D01*
X154273424Y-86295844D02*
X154325805Y-86391082D01*
X154325805Y-86391082D02*
X154325805Y-86533939D01*
X154325805Y-86533939D02*
X154273424Y-86629177D01*
X154273424Y-86629177D02*
X154221043Y-86676796D01*
X154221043Y-86676796D02*
X154116281Y-86724415D01*
X154116281Y-86724415D02*
X153697233Y-86724415D01*
X154797233Y-87200606D02*
X154797233Y-86200606D01*
X155530567Y-86200606D02*
X155740091Y-86200606D01*
X155740091Y-86200606D02*
X155844853Y-86248225D01*
X155844853Y-86248225D02*
X155949615Y-86343463D01*
X155949615Y-86343463D02*
X156001996Y-86533939D01*
X156001996Y-86533939D02*
X156001996Y-86867272D01*
X156001996Y-86867272D02*
X155949615Y-87057748D01*
X155949615Y-87057748D02*
X155844853Y-87152987D01*
X155844853Y-87152987D02*
X155740091Y-87200606D01*
X155740091Y-87200606D02*
X155530567Y-87200606D01*
X155530567Y-87200606D02*
X155425805Y-87152987D01*
X155425805Y-87152987D02*
X155321043Y-87057748D01*
X155321043Y-87057748D02*
X155268662Y-86867272D01*
X155268662Y-86867272D02*
X155268662Y-86533939D01*
X155268662Y-86533939D02*
X155321043Y-86343463D01*
X155321043Y-86343463D02*
X155425805Y-86248225D01*
X155425805Y-86248225D02*
X155530567Y-86200606D01*
X157049615Y-87200606D02*
X156421043Y-87200606D01*
X156735329Y-87200606D02*
X156735329Y-86200606D01*
X156735329Y-86200606D02*
X156630567Y-86343463D01*
X156630567Y-86343463D02*
X156525805Y-86438701D01*
X156525805Y-86438701D02*
X156421043Y-86486320D01*
X134673424Y-91748225D02*
X134568662Y-91700606D01*
X134568662Y-91700606D02*
X134411519Y-91700606D01*
X134411519Y-91700606D02*
X134254376Y-91748225D01*
X134254376Y-91748225D02*
X134149614Y-91843463D01*
X134149614Y-91843463D02*
X134097233Y-91938701D01*
X134097233Y-91938701D02*
X134044852Y-92129177D01*
X134044852Y-92129177D02*
X134044852Y-92272034D01*
X134044852Y-92272034D02*
X134097233Y-92462510D01*
X134097233Y-92462510D02*
X134149614Y-92557748D01*
X134149614Y-92557748D02*
X134254376Y-92652987D01*
X134254376Y-92652987D02*
X134411519Y-92700606D01*
X134411519Y-92700606D02*
X134516281Y-92700606D01*
X134516281Y-92700606D02*
X134673424Y-92652987D01*
X134673424Y-92652987D02*
X134725805Y-92605367D01*
X134725805Y-92605367D02*
X134725805Y-92272034D01*
X134725805Y-92272034D02*
X134516281Y-92272034D01*
X135197233Y-92700606D02*
X135197233Y-91700606D01*
X135197233Y-91700606D02*
X135616281Y-91700606D01*
X135616281Y-91700606D02*
X135721043Y-91748225D01*
X135721043Y-91748225D02*
X135773424Y-91795844D01*
X135773424Y-91795844D02*
X135825805Y-91891082D01*
X135825805Y-91891082D02*
X135825805Y-92033939D01*
X135825805Y-92033939D02*
X135773424Y-92129177D01*
X135773424Y-92129177D02*
X135721043Y-92176796D01*
X135721043Y-92176796D02*
X135616281Y-92224415D01*
X135616281Y-92224415D02*
X135197233Y-92224415D01*
X136297233Y-92700606D02*
X136297233Y-91700606D01*
X137030567Y-91700606D02*
X137240091Y-91700606D01*
X137240091Y-91700606D02*
X137344853Y-91748225D01*
X137344853Y-91748225D02*
X137449615Y-91843463D01*
X137449615Y-91843463D02*
X137501996Y-92033939D01*
X137501996Y-92033939D02*
X137501996Y-92367272D01*
X137501996Y-92367272D02*
X137449615Y-92557748D01*
X137449615Y-92557748D02*
X137344853Y-92652987D01*
X137344853Y-92652987D02*
X137240091Y-92700606D01*
X137240091Y-92700606D02*
X137030567Y-92700606D01*
X137030567Y-92700606D02*
X136925805Y-92652987D01*
X136925805Y-92652987D02*
X136821043Y-92557748D01*
X136821043Y-92557748D02*
X136768662Y-92367272D01*
X136768662Y-92367272D02*
X136768662Y-92033939D01*
X136768662Y-92033939D02*
X136821043Y-91843463D01*
X136821043Y-91843463D02*
X136925805Y-91748225D01*
X136925805Y-91748225D02*
X137030567Y-91700606D01*
X137868662Y-91700606D02*
X138549615Y-91700606D01*
X138549615Y-91700606D02*
X138182948Y-92081558D01*
X138182948Y-92081558D02*
X138340091Y-92081558D01*
X138340091Y-92081558D02*
X138444853Y-92129177D01*
X138444853Y-92129177D02*
X138497234Y-92176796D01*
X138497234Y-92176796D02*
X138549615Y-92272034D01*
X138549615Y-92272034D02*
X138549615Y-92510129D01*
X138549615Y-92510129D02*
X138497234Y-92605367D01*
X138497234Y-92605367D02*
X138444853Y-92652987D01*
X138444853Y-92652987D02*
X138340091Y-92700606D01*
X138340091Y-92700606D02*
X138025805Y-92700606D01*
X138025805Y-92700606D02*
X137921043Y-92652987D01*
X137921043Y-92652987D02*
X137868662Y-92605367D01*
X139544853Y-91700606D02*
X139021043Y-91700606D01*
X139021043Y-91700606D02*
X138968662Y-92176796D01*
X138968662Y-92176796D02*
X139021043Y-92129177D01*
X139021043Y-92129177D02*
X139125805Y-92081558D01*
X139125805Y-92081558D02*
X139387710Y-92081558D01*
X139387710Y-92081558D02*
X139492472Y-92129177D01*
X139492472Y-92129177D02*
X139544853Y-92176796D01*
X139544853Y-92176796D02*
X139597234Y-92272034D01*
X139597234Y-92272034D02*
X139597234Y-92510129D01*
X139597234Y-92510129D02*
X139544853Y-92605367D01*
X139544853Y-92605367D02*
X139492472Y-92652987D01*
X139492472Y-92652987D02*
X139387710Y-92700606D01*
X139387710Y-92700606D02*
X139125805Y-92700606D01*
X139125805Y-92700606D02*
X139021043Y-92652987D01*
X139021043Y-92652987D02*
X138968662Y-92605367D01*
X152173424Y-83748225D02*
X152068662Y-83700606D01*
X152068662Y-83700606D02*
X151911519Y-83700606D01*
X151911519Y-83700606D02*
X151754376Y-83748225D01*
X151754376Y-83748225D02*
X151649614Y-83843463D01*
X151649614Y-83843463D02*
X151597233Y-83938701D01*
X151597233Y-83938701D02*
X151544852Y-84129177D01*
X151544852Y-84129177D02*
X151544852Y-84272034D01*
X151544852Y-84272034D02*
X151597233Y-84462510D01*
X151597233Y-84462510D02*
X151649614Y-84557748D01*
X151649614Y-84557748D02*
X151754376Y-84652987D01*
X151754376Y-84652987D02*
X151911519Y-84700606D01*
X151911519Y-84700606D02*
X152016281Y-84700606D01*
X152016281Y-84700606D02*
X152173424Y-84652987D01*
X152173424Y-84652987D02*
X152225805Y-84605367D01*
X152225805Y-84605367D02*
X152225805Y-84272034D01*
X152225805Y-84272034D02*
X152016281Y-84272034D01*
X152697233Y-84700606D02*
X152697233Y-83700606D01*
X152697233Y-83700606D02*
X153116281Y-83700606D01*
X153116281Y-83700606D02*
X153221043Y-83748225D01*
X153221043Y-83748225D02*
X153273424Y-83795844D01*
X153273424Y-83795844D02*
X153325805Y-83891082D01*
X153325805Y-83891082D02*
X153325805Y-84033939D01*
X153325805Y-84033939D02*
X153273424Y-84129177D01*
X153273424Y-84129177D02*
X153221043Y-84176796D01*
X153221043Y-84176796D02*
X153116281Y-84224415D01*
X153116281Y-84224415D02*
X152697233Y-84224415D01*
X153797233Y-84700606D02*
X153797233Y-83700606D01*
X154530567Y-83700606D02*
X154740091Y-83700606D01*
X154740091Y-83700606D02*
X154844853Y-83748225D01*
X154844853Y-83748225D02*
X154949615Y-83843463D01*
X154949615Y-83843463D02*
X155001996Y-84033939D01*
X155001996Y-84033939D02*
X155001996Y-84367272D01*
X155001996Y-84367272D02*
X154949615Y-84557748D01*
X154949615Y-84557748D02*
X154844853Y-84652987D01*
X154844853Y-84652987D02*
X154740091Y-84700606D01*
X154740091Y-84700606D02*
X154530567Y-84700606D01*
X154530567Y-84700606D02*
X154425805Y-84652987D01*
X154425805Y-84652987D02*
X154321043Y-84557748D01*
X154321043Y-84557748D02*
X154268662Y-84367272D01*
X154268662Y-84367272D02*
X154268662Y-84033939D01*
X154268662Y-84033939D02*
X154321043Y-83843463D01*
X154321043Y-83843463D02*
X154425805Y-83748225D01*
X154425805Y-83748225D02*
X154530567Y-83700606D01*
X155421043Y-83795844D02*
X155473424Y-83748225D01*
X155473424Y-83748225D02*
X155578186Y-83700606D01*
X155578186Y-83700606D02*
X155840091Y-83700606D01*
X155840091Y-83700606D02*
X155944853Y-83748225D01*
X155944853Y-83748225D02*
X155997234Y-83795844D01*
X155997234Y-83795844D02*
X156049615Y-83891082D01*
X156049615Y-83891082D02*
X156049615Y-83986320D01*
X156049615Y-83986320D02*
X155997234Y-84129177D01*
X155997234Y-84129177D02*
X155368662Y-84700606D01*
X155368662Y-84700606D02*
X156049615Y-84700606D01*
X156468662Y-83795844D02*
X156521043Y-83748225D01*
X156521043Y-83748225D02*
X156625805Y-83700606D01*
X156625805Y-83700606D02*
X156887710Y-83700606D01*
X156887710Y-83700606D02*
X156992472Y-83748225D01*
X156992472Y-83748225D02*
X157044853Y-83795844D01*
X157044853Y-83795844D02*
X157097234Y-83891082D01*
X157097234Y-83891082D02*
X157097234Y-83986320D01*
X157097234Y-83986320D02*
X157044853Y-84129177D01*
X157044853Y-84129177D02*
X156416281Y-84700606D01*
X156416281Y-84700606D02*
X157097234Y-84700606D01*
X153173424Y-109248225D02*
X153068662Y-109200606D01*
X153068662Y-109200606D02*
X152911519Y-109200606D01*
X152911519Y-109200606D02*
X152754376Y-109248225D01*
X152754376Y-109248225D02*
X152649614Y-109343463D01*
X152649614Y-109343463D02*
X152597233Y-109438701D01*
X152597233Y-109438701D02*
X152544852Y-109629177D01*
X152544852Y-109629177D02*
X152544852Y-109772034D01*
X152544852Y-109772034D02*
X152597233Y-109962510D01*
X152597233Y-109962510D02*
X152649614Y-110057748D01*
X152649614Y-110057748D02*
X152754376Y-110152987D01*
X152754376Y-110152987D02*
X152911519Y-110200606D01*
X152911519Y-110200606D02*
X153016281Y-110200606D01*
X153016281Y-110200606D02*
X153173424Y-110152987D01*
X153173424Y-110152987D02*
X153225805Y-110105367D01*
X153225805Y-110105367D02*
X153225805Y-109772034D01*
X153225805Y-109772034D02*
X153016281Y-109772034D01*
X153697233Y-110200606D02*
X153697233Y-109200606D01*
X153697233Y-109200606D02*
X154116281Y-109200606D01*
X154116281Y-109200606D02*
X154221043Y-109248225D01*
X154221043Y-109248225D02*
X154273424Y-109295844D01*
X154273424Y-109295844D02*
X154325805Y-109391082D01*
X154325805Y-109391082D02*
X154325805Y-109533939D01*
X154325805Y-109533939D02*
X154273424Y-109629177D01*
X154273424Y-109629177D02*
X154221043Y-109676796D01*
X154221043Y-109676796D02*
X154116281Y-109724415D01*
X154116281Y-109724415D02*
X153697233Y-109724415D01*
X154797233Y-110200606D02*
X154797233Y-109200606D01*
X155530567Y-109200606D02*
X155740091Y-109200606D01*
X155740091Y-109200606D02*
X155844853Y-109248225D01*
X155844853Y-109248225D02*
X155949615Y-109343463D01*
X155949615Y-109343463D02*
X156001996Y-109533939D01*
X156001996Y-109533939D02*
X156001996Y-109867272D01*
X156001996Y-109867272D02*
X155949615Y-110057748D01*
X155949615Y-110057748D02*
X155844853Y-110152987D01*
X155844853Y-110152987D02*
X155740091Y-110200606D01*
X155740091Y-110200606D02*
X155530567Y-110200606D01*
X155530567Y-110200606D02*
X155425805Y-110152987D01*
X155425805Y-110152987D02*
X155321043Y-110057748D01*
X155321043Y-110057748D02*
X155268662Y-109867272D01*
X155268662Y-109867272D02*
X155268662Y-109533939D01*
X155268662Y-109533939D02*
X155321043Y-109343463D01*
X155321043Y-109343463D02*
X155425805Y-109248225D01*
X155425805Y-109248225D02*
X155530567Y-109200606D01*
X156421043Y-109295844D02*
X156473424Y-109248225D01*
X156473424Y-109248225D02*
X156578186Y-109200606D01*
X156578186Y-109200606D02*
X156840091Y-109200606D01*
X156840091Y-109200606D02*
X156944853Y-109248225D01*
X156944853Y-109248225D02*
X156997234Y-109295844D01*
X156997234Y-109295844D02*
X157049615Y-109391082D01*
X157049615Y-109391082D02*
X157049615Y-109486320D01*
X157049615Y-109486320D02*
X156997234Y-109629177D01*
X156997234Y-109629177D02*
X156368662Y-110200606D01*
X156368662Y-110200606D02*
X157049615Y-110200606D01*
X134097233Y-82176796D02*
X134463900Y-82176796D01*
X134621043Y-82700606D02*
X134097233Y-82700606D01*
X134097233Y-82700606D02*
X134097233Y-81700606D01*
X134097233Y-81700606D02*
X134621043Y-81700606D01*
X135092471Y-82700606D02*
X135092471Y-81700606D01*
X135092471Y-81700606D02*
X135721043Y-82700606D01*
X135721043Y-82700606D02*
X135721043Y-81700606D01*
X144573424Y-123700606D02*
X144573424Y-124510129D01*
X144573424Y-124510129D02*
X144621043Y-124605367D01*
X144621043Y-124605367D02*
X144668662Y-124652987D01*
X144668662Y-124652987D02*
X144763900Y-124700606D01*
X144763900Y-124700606D02*
X144954376Y-124700606D01*
X144954376Y-124700606D02*
X145049614Y-124652987D01*
X145049614Y-124652987D02*
X145097233Y-124605367D01*
X145097233Y-124605367D02*
X145144852Y-124510129D01*
X145144852Y-124510129D02*
X145144852Y-123700606D01*
X145573424Y-124652987D02*
X145716281Y-124700606D01*
X145716281Y-124700606D02*
X145954376Y-124700606D01*
X145954376Y-124700606D02*
X146049614Y-124652987D01*
X146049614Y-124652987D02*
X146097233Y-124605367D01*
X146097233Y-124605367D02*
X146144852Y-124510129D01*
X146144852Y-124510129D02*
X146144852Y-124414891D01*
X146144852Y-124414891D02*
X146097233Y-124319653D01*
X146097233Y-124319653D02*
X146049614Y-124272034D01*
X146049614Y-124272034D02*
X145954376Y-124224415D01*
X145954376Y-124224415D02*
X145763900Y-124176796D01*
X145763900Y-124176796D02*
X145668662Y-124129177D01*
X145668662Y-124129177D02*
X145621043Y-124081558D01*
X145621043Y-124081558D02*
X145573424Y-123986320D01*
X145573424Y-123986320D02*
X145573424Y-123891082D01*
X145573424Y-123891082D02*
X145621043Y-123795844D01*
X145621043Y-123795844D02*
X145668662Y-123748225D01*
X145668662Y-123748225D02*
X145763900Y-123700606D01*
X145763900Y-123700606D02*
X146001995Y-123700606D01*
X146001995Y-123700606D02*
X146144852Y-123748225D01*
X146906757Y-124176796D02*
X147049614Y-124224415D01*
X147049614Y-124224415D02*
X147097233Y-124272034D01*
X147097233Y-124272034D02*
X147144852Y-124367272D01*
X147144852Y-124367272D02*
X147144852Y-124510129D01*
X147144852Y-124510129D02*
X147097233Y-124605367D01*
X147097233Y-124605367D02*
X147049614Y-124652987D01*
X147049614Y-124652987D02*
X146954376Y-124700606D01*
X146954376Y-124700606D02*
X146573424Y-124700606D01*
X146573424Y-124700606D02*
X146573424Y-123700606D01*
X146573424Y-123700606D02*
X146906757Y-123700606D01*
X146906757Y-123700606D02*
X147001995Y-123748225D01*
X147001995Y-123748225D02*
X147049614Y-123795844D01*
X147049614Y-123795844D02*
X147097233Y-123891082D01*
X147097233Y-123891082D02*
X147097233Y-123986320D01*
X147097233Y-123986320D02*
X147049614Y-124081558D01*
X147049614Y-124081558D02*
X147001995Y-124129177D01*
X147001995Y-124129177D02*
X146906757Y-124176796D01*
X146906757Y-124176796D02*
X146573424Y-124176796D01*
X134673424Y-94248225D02*
X134568662Y-94200606D01*
X134568662Y-94200606D02*
X134411519Y-94200606D01*
X134411519Y-94200606D02*
X134254376Y-94248225D01*
X134254376Y-94248225D02*
X134149614Y-94343463D01*
X134149614Y-94343463D02*
X134097233Y-94438701D01*
X134097233Y-94438701D02*
X134044852Y-94629177D01*
X134044852Y-94629177D02*
X134044852Y-94772034D01*
X134044852Y-94772034D02*
X134097233Y-94962510D01*
X134097233Y-94962510D02*
X134149614Y-95057748D01*
X134149614Y-95057748D02*
X134254376Y-95152987D01*
X134254376Y-95152987D02*
X134411519Y-95200606D01*
X134411519Y-95200606D02*
X134516281Y-95200606D01*
X134516281Y-95200606D02*
X134673424Y-95152987D01*
X134673424Y-95152987D02*
X134725805Y-95105367D01*
X134725805Y-95105367D02*
X134725805Y-94772034D01*
X134725805Y-94772034D02*
X134516281Y-94772034D01*
X135197233Y-95200606D02*
X135197233Y-94200606D01*
X135197233Y-94200606D02*
X135616281Y-94200606D01*
X135616281Y-94200606D02*
X135721043Y-94248225D01*
X135721043Y-94248225D02*
X135773424Y-94295844D01*
X135773424Y-94295844D02*
X135825805Y-94391082D01*
X135825805Y-94391082D02*
X135825805Y-94533939D01*
X135825805Y-94533939D02*
X135773424Y-94629177D01*
X135773424Y-94629177D02*
X135721043Y-94676796D01*
X135721043Y-94676796D02*
X135616281Y-94724415D01*
X135616281Y-94724415D02*
X135197233Y-94724415D01*
X136297233Y-95200606D02*
X136297233Y-94200606D01*
X137030567Y-94200606D02*
X137240091Y-94200606D01*
X137240091Y-94200606D02*
X137344853Y-94248225D01*
X137344853Y-94248225D02*
X137449615Y-94343463D01*
X137449615Y-94343463D02*
X137501996Y-94533939D01*
X137501996Y-94533939D02*
X137501996Y-94867272D01*
X137501996Y-94867272D02*
X137449615Y-95057748D01*
X137449615Y-95057748D02*
X137344853Y-95152987D01*
X137344853Y-95152987D02*
X137240091Y-95200606D01*
X137240091Y-95200606D02*
X137030567Y-95200606D01*
X137030567Y-95200606D02*
X136925805Y-95152987D01*
X136925805Y-95152987D02*
X136821043Y-95057748D01*
X136821043Y-95057748D02*
X136768662Y-94867272D01*
X136768662Y-94867272D02*
X136768662Y-94533939D01*
X136768662Y-94533939D02*
X136821043Y-94343463D01*
X136821043Y-94343463D02*
X136925805Y-94248225D01*
X136925805Y-94248225D02*
X137030567Y-94200606D01*
X137868662Y-94200606D02*
X138549615Y-94200606D01*
X138549615Y-94200606D02*
X138182948Y-94581558D01*
X138182948Y-94581558D02*
X138340091Y-94581558D01*
X138340091Y-94581558D02*
X138444853Y-94629177D01*
X138444853Y-94629177D02*
X138497234Y-94676796D01*
X138497234Y-94676796D02*
X138549615Y-94772034D01*
X138549615Y-94772034D02*
X138549615Y-95010129D01*
X138549615Y-95010129D02*
X138497234Y-95105367D01*
X138497234Y-95105367D02*
X138444853Y-95152987D01*
X138444853Y-95152987D02*
X138340091Y-95200606D01*
X138340091Y-95200606D02*
X138025805Y-95200606D01*
X138025805Y-95200606D02*
X137921043Y-95152987D01*
X137921043Y-95152987D02*
X137868662Y-95105367D01*
X138968662Y-94295844D02*
X139021043Y-94248225D01*
X139021043Y-94248225D02*
X139125805Y-94200606D01*
X139125805Y-94200606D02*
X139387710Y-94200606D01*
X139387710Y-94200606D02*
X139492472Y-94248225D01*
X139492472Y-94248225D02*
X139544853Y-94295844D01*
X139544853Y-94295844D02*
X139597234Y-94391082D01*
X139597234Y-94391082D02*
X139597234Y-94486320D01*
X139597234Y-94486320D02*
X139544853Y-94629177D01*
X139544853Y-94629177D02*
X138916281Y-95200606D01*
X138916281Y-95200606D02*
X139597234Y-95200606D01*
X134673424Y-86748225D02*
X134568662Y-86700606D01*
X134568662Y-86700606D02*
X134411519Y-86700606D01*
X134411519Y-86700606D02*
X134254376Y-86748225D01*
X134254376Y-86748225D02*
X134149614Y-86843463D01*
X134149614Y-86843463D02*
X134097233Y-86938701D01*
X134097233Y-86938701D02*
X134044852Y-87129177D01*
X134044852Y-87129177D02*
X134044852Y-87272034D01*
X134044852Y-87272034D02*
X134097233Y-87462510D01*
X134097233Y-87462510D02*
X134149614Y-87557748D01*
X134149614Y-87557748D02*
X134254376Y-87652987D01*
X134254376Y-87652987D02*
X134411519Y-87700606D01*
X134411519Y-87700606D02*
X134516281Y-87700606D01*
X134516281Y-87700606D02*
X134673424Y-87652987D01*
X134673424Y-87652987D02*
X134725805Y-87605367D01*
X134725805Y-87605367D02*
X134725805Y-87272034D01*
X134725805Y-87272034D02*
X134516281Y-87272034D01*
X135197233Y-87700606D02*
X135197233Y-86700606D01*
X135197233Y-86700606D02*
X135616281Y-86700606D01*
X135616281Y-86700606D02*
X135721043Y-86748225D01*
X135721043Y-86748225D02*
X135773424Y-86795844D01*
X135773424Y-86795844D02*
X135825805Y-86891082D01*
X135825805Y-86891082D02*
X135825805Y-87033939D01*
X135825805Y-87033939D02*
X135773424Y-87129177D01*
X135773424Y-87129177D02*
X135721043Y-87176796D01*
X135721043Y-87176796D02*
X135616281Y-87224415D01*
X135616281Y-87224415D02*
X135197233Y-87224415D01*
X136297233Y-87700606D02*
X136297233Y-86700606D01*
X137030567Y-86700606D02*
X137240091Y-86700606D01*
X137240091Y-86700606D02*
X137344853Y-86748225D01*
X137344853Y-86748225D02*
X137449615Y-86843463D01*
X137449615Y-86843463D02*
X137501996Y-87033939D01*
X137501996Y-87033939D02*
X137501996Y-87367272D01*
X137501996Y-87367272D02*
X137449615Y-87557748D01*
X137449615Y-87557748D02*
X137344853Y-87652987D01*
X137344853Y-87652987D02*
X137240091Y-87700606D01*
X137240091Y-87700606D02*
X137030567Y-87700606D01*
X137030567Y-87700606D02*
X136925805Y-87652987D01*
X136925805Y-87652987D02*
X136821043Y-87557748D01*
X136821043Y-87557748D02*
X136768662Y-87367272D01*
X136768662Y-87367272D02*
X136768662Y-87033939D01*
X136768662Y-87033939D02*
X136821043Y-86843463D01*
X136821043Y-86843463D02*
X136925805Y-86748225D01*
X136925805Y-86748225D02*
X137030567Y-86700606D01*
X137868662Y-86700606D02*
X138549615Y-86700606D01*
X138549615Y-86700606D02*
X138182948Y-87081558D01*
X138182948Y-87081558D02*
X138340091Y-87081558D01*
X138340091Y-87081558D02*
X138444853Y-87129177D01*
X138444853Y-87129177D02*
X138497234Y-87176796D01*
X138497234Y-87176796D02*
X138549615Y-87272034D01*
X138549615Y-87272034D02*
X138549615Y-87510129D01*
X138549615Y-87510129D02*
X138497234Y-87605367D01*
X138497234Y-87605367D02*
X138444853Y-87652987D01*
X138444853Y-87652987D02*
X138340091Y-87700606D01*
X138340091Y-87700606D02*
X138025805Y-87700606D01*
X138025805Y-87700606D02*
X137921043Y-87652987D01*
X137921043Y-87652987D02*
X137868662Y-87605367D01*
X139073424Y-87700606D02*
X139282948Y-87700606D01*
X139282948Y-87700606D02*
X139387710Y-87652987D01*
X139387710Y-87652987D02*
X139440091Y-87605367D01*
X139440091Y-87605367D02*
X139544853Y-87462510D01*
X139544853Y-87462510D02*
X139597234Y-87272034D01*
X139597234Y-87272034D02*
X139597234Y-86891082D01*
X139597234Y-86891082D02*
X139544853Y-86795844D01*
X139544853Y-86795844D02*
X139492472Y-86748225D01*
X139492472Y-86748225D02*
X139387710Y-86700606D01*
X139387710Y-86700606D02*
X139178186Y-86700606D01*
X139178186Y-86700606D02*
X139073424Y-86748225D01*
X139073424Y-86748225D02*
X139021043Y-86795844D01*
X139021043Y-86795844D02*
X138968662Y-86891082D01*
X138968662Y-86891082D02*
X138968662Y-87129177D01*
X138968662Y-87129177D02*
X139021043Y-87224415D01*
X139021043Y-87224415D02*
X139073424Y-87272034D01*
X139073424Y-87272034D02*
X139178186Y-87319653D01*
X139178186Y-87319653D02*
X139387710Y-87319653D01*
X139387710Y-87319653D02*
X139492472Y-87272034D01*
X139492472Y-87272034D02*
X139544853Y-87224415D01*
X139544853Y-87224415D02*
X139597234Y-87129177D01*
X154673424Y-114248225D02*
X154568662Y-114200606D01*
X154568662Y-114200606D02*
X154411519Y-114200606D01*
X154411519Y-114200606D02*
X154254376Y-114248225D01*
X154254376Y-114248225D02*
X154149614Y-114343463D01*
X154149614Y-114343463D02*
X154097233Y-114438701D01*
X154097233Y-114438701D02*
X154044852Y-114629177D01*
X154044852Y-114629177D02*
X154044852Y-114772034D01*
X154044852Y-114772034D02*
X154097233Y-114962510D01*
X154097233Y-114962510D02*
X154149614Y-115057748D01*
X154149614Y-115057748D02*
X154254376Y-115152987D01*
X154254376Y-115152987D02*
X154411519Y-115200606D01*
X154411519Y-115200606D02*
X154516281Y-115200606D01*
X154516281Y-115200606D02*
X154673424Y-115152987D01*
X154673424Y-115152987D02*
X154725805Y-115105367D01*
X154725805Y-115105367D02*
X154725805Y-114772034D01*
X154725805Y-114772034D02*
X154516281Y-114772034D01*
X155197233Y-115200606D02*
X155197233Y-114200606D01*
X155197233Y-114200606D02*
X155825805Y-115200606D01*
X155825805Y-115200606D02*
X155825805Y-114200606D01*
X156349614Y-115200606D02*
X156349614Y-114200606D01*
X156349614Y-114200606D02*
X156611519Y-114200606D01*
X156611519Y-114200606D02*
X156768662Y-114248225D01*
X156768662Y-114248225D02*
X156873424Y-114343463D01*
X156873424Y-114343463D02*
X156925805Y-114438701D01*
X156925805Y-114438701D02*
X156978186Y-114629177D01*
X156978186Y-114629177D02*
X156978186Y-114772034D01*
X156978186Y-114772034D02*
X156925805Y-114962510D01*
X156925805Y-114962510D02*
X156873424Y-115057748D01*
X156873424Y-115057748D02*
X156768662Y-115152987D01*
X156768662Y-115152987D02*
X156611519Y-115200606D01*
X156611519Y-115200606D02*
X156349614Y-115200606D01*
X134673424Y-109248225D02*
X134568662Y-109200606D01*
X134568662Y-109200606D02*
X134411519Y-109200606D01*
X134411519Y-109200606D02*
X134254376Y-109248225D01*
X134254376Y-109248225D02*
X134149614Y-109343463D01*
X134149614Y-109343463D02*
X134097233Y-109438701D01*
X134097233Y-109438701D02*
X134044852Y-109629177D01*
X134044852Y-109629177D02*
X134044852Y-109772034D01*
X134044852Y-109772034D02*
X134097233Y-109962510D01*
X134097233Y-109962510D02*
X134149614Y-110057748D01*
X134149614Y-110057748D02*
X134254376Y-110152987D01*
X134254376Y-110152987D02*
X134411519Y-110200606D01*
X134411519Y-110200606D02*
X134516281Y-110200606D01*
X134516281Y-110200606D02*
X134673424Y-110152987D01*
X134673424Y-110152987D02*
X134725805Y-110105367D01*
X134725805Y-110105367D02*
X134725805Y-109772034D01*
X134725805Y-109772034D02*
X134516281Y-109772034D01*
X135197233Y-110200606D02*
X135197233Y-109200606D01*
X135197233Y-109200606D02*
X135616281Y-109200606D01*
X135616281Y-109200606D02*
X135721043Y-109248225D01*
X135721043Y-109248225D02*
X135773424Y-109295844D01*
X135773424Y-109295844D02*
X135825805Y-109391082D01*
X135825805Y-109391082D02*
X135825805Y-109533939D01*
X135825805Y-109533939D02*
X135773424Y-109629177D01*
X135773424Y-109629177D02*
X135721043Y-109676796D01*
X135721043Y-109676796D02*
X135616281Y-109724415D01*
X135616281Y-109724415D02*
X135197233Y-109724415D01*
X136297233Y-110200606D02*
X136297233Y-109200606D01*
X137030567Y-109200606D02*
X137240091Y-109200606D01*
X137240091Y-109200606D02*
X137344853Y-109248225D01*
X137344853Y-109248225D02*
X137449615Y-109343463D01*
X137449615Y-109343463D02*
X137501996Y-109533939D01*
X137501996Y-109533939D02*
X137501996Y-109867272D01*
X137501996Y-109867272D02*
X137449615Y-110057748D01*
X137449615Y-110057748D02*
X137344853Y-110152987D01*
X137344853Y-110152987D02*
X137240091Y-110200606D01*
X137240091Y-110200606D02*
X137030567Y-110200606D01*
X137030567Y-110200606D02*
X136925805Y-110152987D01*
X136925805Y-110152987D02*
X136821043Y-110057748D01*
X136821043Y-110057748D02*
X136768662Y-109867272D01*
X136768662Y-109867272D02*
X136768662Y-109533939D01*
X136768662Y-109533939D02*
X136821043Y-109343463D01*
X136821043Y-109343463D02*
X136925805Y-109248225D01*
X136925805Y-109248225D02*
X137030567Y-109200606D01*
X138549615Y-110200606D02*
X137921043Y-110200606D01*
X138235329Y-110200606D02*
X138235329Y-109200606D01*
X138235329Y-109200606D02*
X138130567Y-109343463D01*
X138130567Y-109343463D02*
X138025805Y-109438701D01*
X138025805Y-109438701D02*
X137921043Y-109486320D01*
X138968662Y-109295844D02*
X139021043Y-109248225D01*
X139021043Y-109248225D02*
X139125805Y-109200606D01*
X139125805Y-109200606D02*
X139387710Y-109200606D01*
X139387710Y-109200606D02*
X139492472Y-109248225D01*
X139492472Y-109248225D02*
X139544853Y-109295844D01*
X139544853Y-109295844D02*
X139597234Y-109391082D01*
X139597234Y-109391082D02*
X139597234Y-109486320D01*
X139597234Y-109486320D02*
X139544853Y-109629177D01*
X139544853Y-109629177D02*
X138916281Y-110200606D01*
X138916281Y-110200606D02*
X139597234Y-110200606D01*
X153173424Y-106748225D02*
X153068662Y-106700606D01*
X153068662Y-106700606D02*
X152911519Y-106700606D01*
X152911519Y-106700606D02*
X152754376Y-106748225D01*
X152754376Y-106748225D02*
X152649614Y-106843463D01*
X152649614Y-106843463D02*
X152597233Y-106938701D01*
X152597233Y-106938701D02*
X152544852Y-107129177D01*
X152544852Y-107129177D02*
X152544852Y-107272034D01*
X152544852Y-107272034D02*
X152597233Y-107462510D01*
X152597233Y-107462510D02*
X152649614Y-107557748D01*
X152649614Y-107557748D02*
X152754376Y-107652987D01*
X152754376Y-107652987D02*
X152911519Y-107700606D01*
X152911519Y-107700606D02*
X153016281Y-107700606D01*
X153016281Y-107700606D02*
X153173424Y-107652987D01*
X153173424Y-107652987D02*
X153225805Y-107605367D01*
X153225805Y-107605367D02*
X153225805Y-107272034D01*
X153225805Y-107272034D02*
X153016281Y-107272034D01*
X153697233Y-107700606D02*
X153697233Y-106700606D01*
X153697233Y-106700606D02*
X154116281Y-106700606D01*
X154116281Y-106700606D02*
X154221043Y-106748225D01*
X154221043Y-106748225D02*
X154273424Y-106795844D01*
X154273424Y-106795844D02*
X154325805Y-106891082D01*
X154325805Y-106891082D02*
X154325805Y-107033939D01*
X154325805Y-107033939D02*
X154273424Y-107129177D01*
X154273424Y-107129177D02*
X154221043Y-107176796D01*
X154221043Y-107176796D02*
X154116281Y-107224415D01*
X154116281Y-107224415D02*
X153697233Y-107224415D01*
X154797233Y-107700606D02*
X154797233Y-106700606D01*
X155530567Y-106700606D02*
X155740091Y-106700606D01*
X155740091Y-106700606D02*
X155844853Y-106748225D01*
X155844853Y-106748225D02*
X155949615Y-106843463D01*
X155949615Y-106843463D02*
X156001996Y-107033939D01*
X156001996Y-107033939D02*
X156001996Y-107367272D01*
X156001996Y-107367272D02*
X155949615Y-107557748D01*
X155949615Y-107557748D02*
X155844853Y-107652987D01*
X155844853Y-107652987D02*
X155740091Y-107700606D01*
X155740091Y-107700606D02*
X155530567Y-107700606D01*
X155530567Y-107700606D02*
X155425805Y-107652987D01*
X155425805Y-107652987D02*
X155321043Y-107557748D01*
X155321043Y-107557748D02*
X155268662Y-107367272D01*
X155268662Y-107367272D02*
X155268662Y-107033939D01*
X155268662Y-107033939D02*
X155321043Y-106843463D01*
X155321043Y-106843463D02*
X155425805Y-106748225D01*
X155425805Y-106748225D02*
X155530567Y-106700606D01*
X156944853Y-107033939D02*
X156944853Y-107700606D01*
X156682948Y-106652987D02*
X156421043Y-107367272D01*
X156421043Y-107367272D02*
X157101996Y-107367272D01*
X134673424Y-96748225D02*
X134568662Y-96700606D01*
X134568662Y-96700606D02*
X134411519Y-96700606D01*
X134411519Y-96700606D02*
X134254376Y-96748225D01*
X134254376Y-96748225D02*
X134149614Y-96843463D01*
X134149614Y-96843463D02*
X134097233Y-96938701D01*
X134097233Y-96938701D02*
X134044852Y-97129177D01*
X134044852Y-97129177D02*
X134044852Y-97272034D01*
X134044852Y-97272034D02*
X134097233Y-97462510D01*
X134097233Y-97462510D02*
X134149614Y-97557748D01*
X134149614Y-97557748D02*
X134254376Y-97652987D01*
X134254376Y-97652987D02*
X134411519Y-97700606D01*
X134411519Y-97700606D02*
X134516281Y-97700606D01*
X134516281Y-97700606D02*
X134673424Y-97652987D01*
X134673424Y-97652987D02*
X134725805Y-97605367D01*
X134725805Y-97605367D02*
X134725805Y-97272034D01*
X134725805Y-97272034D02*
X134516281Y-97272034D01*
X135197233Y-97700606D02*
X135197233Y-96700606D01*
X135197233Y-96700606D02*
X135616281Y-96700606D01*
X135616281Y-96700606D02*
X135721043Y-96748225D01*
X135721043Y-96748225D02*
X135773424Y-96795844D01*
X135773424Y-96795844D02*
X135825805Y-96891082D01*
X135825805Y-96891082D02*
X135825805Y-97033939D01*
X135825805Y-97033939D02*
X135773424Y-97129177D01*
X135773424Y-97129177D02*
X135721043Y-97176796D01*
X135721043Y-97176796D02*
X135616281Y-97224415D01*
X135616281Y-97224415D02*
X135197233Y-97224415D01*
X136297233Y-97700606D02*
X136297233Y-96700606D01*
X137030567Y-96700606D02*
X137240091Y-96700606D01*
X137240091Y-96700606D02*
X137344853Y-96748225D01*
X137344853Y-96748225D02*
X137449615Y-96843463D01*
X137449615Y-96843463D02*
X137501996Y-97033939D01*
X137501996Y-97033939D02*
X137501996Y-97367272D01*
X137501996Y-97367272D02*
X137449615Y-97557748D01*
X137449615Y-97557748D02*
X137344853Y-97652987D01*
X137344853Y-97652987D02*
X137240091Y-97700606D01*
X137240091Y-97700606D02*
X137030567Y-97700606D01*
X137030567Y-97700606D02*
X136925805Y-97652987D01*
X136925805Y-97652987D02*
X136821043Y-97557748D01*
X136821043Y-97557748D02*
X136768662Y-97367272D01*
X136768662Y-97367272D02*
X136768662Y-97033939D01*
X136768662Y-97033939D02*
X136821043Y-96843463D01*
X136821043Y-96843463D02*
X136925805Y-96748225D01*
X136925805Y-96748225D02*
X137030567Y-96700606D01*
X137868662Y-96700606D02*
X138549615Y-96700606D01*
X138549615Y-96700606D02*
X138182948Y-97081558D01*
X138182948Y-97081558D02*
X138340091Y-97081558D01*
X138340091Y-97081558D02*
X138444853Y-97129177D01*
X138444853Y-97129177D02*
X138497234Y-97176796D01*
X138497234Y-97176796D02*
X138549615Y-97272034D01*
X138549615Y-97272034D02*
X138549615Y-97510129D01*
X138549615Y-97510129D02*
X138497234Y-97605367D01*
X138497234Y-97605367D02*
X138444853Y-97652987D01*
X138444853Y-97652987D02*
X138340091Y-97700606D01*
X138340091Y-97700606D02*
X138025805Y-97700606D01*
X138025805Y-97700606D02*
X137921043Y-97652987D01*
X137921043Y-97652987D02*
X137868662Y-97605367D01*
X138916281Y-96700606D02*
X139597234Y-96700606D01*
X139597234Y-96700606D02*
X139230567Y-97081558D01*
X139230567Y-97081558D02*
X139387710Y-97081558D01*
X139387710Y-97081558D02*
X139492472Y-97129177D01*
X139492472Y-97129177D02*
X139544853Y-97176796D01*
X139544853Y-97176796D02*
X139597234Y-97272034D01*
X139597234Y-97272034D02*
X139597234Y-97510129D01*
X139597234Y-97510129D02*
X139544853Y-97605367D01*
X139544853Y-97605367D02*
X139492472Y-97652987D01*
X139492472Y-97652987D02*
X139387710Y-97700606D01*
X139387710Y-97700606D02*
X139073424Y-97700606D01*
X139073424Y-97700606D02*
X138968662Y-97652987D01*
X138968662Y-97652987D02*
X138916281Y-97605367D01*
X134673424Y-111748225D02*
X134568662Y-111700606D01*
X134568662Y-111700606D02*
X134411519Y-111700606D01*
X134411519Y-111700606D02*
X134254376Y-111748225D01*
X134254376Y-111748225D02*
X134149614Y-111843463D01*
X134149614Y-111843463D02*
X134097233Y-111938701D01*
X134097233Y-111938701D02*
X134044852Y-112129177D01*
X134044852Y-112129177D02*
X134044852Y-112272034D01*
X134044852Y-112272034D02*
X134097233Y-112462510D01*
X134097233Y-112462510D02*
X134149614Y-112557748D01*
X134149614Y-112557748D02*
X134254376Y-112652987D01*
X134254376Y-112652987D02*
X134411519Y-112700606D01*
X134411519Y-112700606D02*
X134516281Y-112700606D01*
X134516281Y-112700606D02*
X134673424Y-112652987D01*
X134673424Y-112652987D02*
X134725805Y-112605367D01*
X134725805Y-112605367D02*
X134725805Y-112272034D01*
X134725805Y-112272034D02*
X134516281Y-112272034D01*
X135197233Y-112700606D02*
X135197233Y-111700606D01*
X135197233Y-111700606D02*
X135616281Y-111700606D01*
X135616281Y-111700606D02*
X135721043Y-111748225D01*
X135721043Y-111748225D02*
X135773424Y-111795844D01*
X135773424Y-111795844D02*
X135825805Y-111891082D01*
X135825805Y-111891082D02*
X135825805Y-112033939D01*
X135825805Y-112033939D02*
X135773424Y-112129177D01*
X135773424Y-112129177D02*
X135721043Y-112176796D01*
X135721043Y-112176796D02*
X135616281Y-112224415D01*
X135616281Y-112224415D02*
X135197233Y-112224415D01*
X136297233Y-112700606D02*
X136297233Y-111700606D01*
X137030567Y-111700606D02*
X137240091Y-111700606D01*
X137240091Y-111700606D02*
X137344853Y-111748225D01*
X137344853Y-111748225D02*
X137449615Y-111843463D01*
X137449615Y-111843463D02*
X137501996Y-112033939D01*
X137501996Y-112033939D02*
X137501996Y-112367272D01*
X137501996Y-112367272D02*
X137449615Y-112557748D01*
X137449615Y-112557748D02*
X137344853Y-112652987D01*
X137344853Y-112652987D02*
X137240091Y-112700606D01*
X137240091Y-112700606D02*
X137030567Y-112700606D01*
X137030567Y-112700606D02*
X136925805Y-112652987D01*
X136925805Y-112652987D02*
X136821043Y-112557748D01*
X136821043Y-112557748D02*
X136768662Y-112367272D01*
X136768662Y-112367272D02*
X136768662Y-112033939D01*
X136768662Y-112033939D02*
X136821043Y-111843463D01*
X136821043Y-111843463D02*
X136925805Y-111748225D01*
X136925805Y-111748225D02*
X137030567Y-111700606D01*
X138549615Y-112700606D02*
X137921043Y-112700606D01*
X138235329Y-112700606D02*
X138235329Y-111700606D01*
X138235329Y-111700606D02*
X138130567Y-111843463D01*
X138130567Y-111843463D02*
X138025805Y-111938701D01*
X138025805Y-111938701D02*
X137921043Y-111986320D01*
X138916281Y-111700606D02*
X139597234Y-111700606D01*
X139597234Y-111700606D02*
X139230567Y-112081558D01*
X139230567Y-112081558D02*
X139387710Y-112081558D01*
X139387710Y-112081558D02*
X139492472Y-112129177D01*
X139492472Y-112129177D02*
X139544853Y-112176796D01*
X139544853Y-112176796D02*
X139597234Y-112272034D01*
X139597234Y-112272034D02*
X139597234Y-112510129D01*
X139597234Y-112510129D02*
X139544853Y-112605367D01*
X139544853Y-112605367D02*
X139492472Y-112652987D01*
X139492472Y-112652987D02*
X139387710Y-112700606D01*
X139387710Y-112700606D02*
X139073424Y-112700606D01*
X139073424Y-112700606D02*
X138968662Y-112652987D01*
X138968662Y-112652987D02*
X138916281Y-112605367D01*
X134673424Y-104248225D02*
X134568662Y-104200606D01*
X134568662Y-104200606D02*
X134411519Y-104200606D01*
X134411519Y-104200606D02*
X134254376Y-104248225D01*
X134254376Y-104248225D02*
X134149614Y-104343463D01*
X134149614Y-104343463D02*
X134097233Y-104438701D01*
X134097233Y-104438701D02*
X134044852Y-104629177D01*
X134044852Y-104629177D02*
X134044852Y-104772034D01*
X134044852Y-104772034D02*
X134097233Y-104962510D01*
X134097233Y-104962510D02*
X134149614Y-105057748D01*
X134149614Y-105057748D02*
X134254376Y-105152987D01*
X134254376Y-105152987D02*
X134411519Y-105200606D01*
X134411519Y-105200606D02*
X134516281Y-105200606D01*
X134516281Y-105200606D02*
X134673424Y-105152987D01*
X134673424Y-105152987D02*
X134725805Y-105105367D01*
X134725805Y-105105367D02*
X134725805Y-104772034D01*
X134725805Y-104772034D02*
X134516281Y-104772034D01*
X135197233Y-105200606D02*
X135197233Y-104200606D01*
X135197233Y-104200606D02*
X135616281Y-104200606D01*
X135616281Y-104200606D02*
X135721043Y-104248225D01*
X135721043Y-104248225D02*
X135773424Y-104295844D01*
X135773424Y-104295844D02*
X135825805Y-104391082D01*
X135825805Y-104391082D02*
X135825805Y-104533939D01*
X135825805Y-104533939D02*
X135773424Y-104629177D01*
X135773424Y-104629177D02*
X135721043Y-104676796D01*
X135721043Y-104676796D02*
X135616281Y-104724415D01*
X135616281Y-104724415D02*
X135197233Y-104724415D01*
X136297233Y-105200606D02*
X136297233Y-104200606D01*
X137030567Y-104200606D02*
X137240091Y-104200606D01*
X137240091Y-104200606D02*
X137344853Y-104248225D01*
X137344853Y-104248225D02*
X137449615Y-104343463D01*
X137449615Y-104343463D02*
X137501996Y-104533939D01*
X137501996Y-104533939D02*
X137501996Y-104867272D01*
X137501996Y-104867272D02*
X137449615Y-105057748D01*
X137449615Y-105057748D02*
X137344853Y-105152987D01*
X137344853Y-105152987D02*
X137240091Y-105200606D01*
X137240091Y-105200606D02*
X137030567Y-105200606D01*
X137030567Y-105200606D02*
X136925805Y-105152987D01*
X136925805Y-105152987D02*
X136821043Y-105057748D01*
X136821043Y-105057748D02*
X136768662Y-104867272D01*
X136768662Y-104867272D02*
X136768662Y-104533939D01*
X136768662Y-104533939D02*
X136821043Y-104343463D01*
X136821043Y-104343463D02*
X136925805Y-104248225D01*
X136925805Y-104248225D02*
X137030567Y-104200606D01*
X137921043Y-104295844D02*
X137973424Y-104248225D01*
X137973424Y-104248225D02*
X138078186Y-104200606D01*
X138078186Y-104200606D02*
X138340091Y-104200606D01*
X138340091Y-104200606D02*
X138444853Y-104248225D01*
X138444853Y-104248225D02*
X138497234Y-104295844D01*
X138497234Y-104295844D02*
X138549615Y-104391082D01*
X138549615Y-104391082D02*
X138549615Y-104486320D01*
X138549615Y-104486320D02*
X138497234Y-104629177D01*
X138497234Y-104629177D02*
X137868662Y-105200606D01*
X137868662Y-105200606D02*
X138549615Y-105200606D01*
X138916281Y-104200606D02*
X139649615Y-104200606D01*
X139649615Y-104200606D02*
X139178186Y-105200606D01*
X134673424Y-106748225D02*
X134568662Y-106700606D01*
X134568662Y-106700606D02*
X134411519Y-106700606D01*
X134411519Y-106700606D02*
X134254376Y-106748225D01*
X134254376Y-106748225D02*
X134149614Y-106843463D01*
X134149614Y-106843463D02*
X134097233Y-106938701D01*
X134097233Y-106938701D02*
X134044852Y-107129177D01*
X134044852Y-107129177D02*
X134044852Y-107272034D01*
X134044852Y-107272034D02*
X134097233Y-107462510D01*
X134097233Y-107462510D02*
X134149614Y-107557748D01*
X134149614Y-107557748D02*
X134254376Y-107652987D01*
X134254376Y-107652987D02*
X134411519Y-107700606D01*
X134411519Y-107700606D02*
X134516281Y-107700606D01*
X134516281Y-107700606D02*
X134673424Y-107652987D01*
X134673424Y-107652987D02*
X134725805Y-107605367D01*
X134725805Y-107605367D02*
X134725805Y-107272034D01*
X134725805Y-107272034D02*
X134516281Y-107272034D01*
X135197233Y-107700606D02*
X135197233Y-106700606D01*
X135197233Y-106700606D02*
X135616281Y-106700606D01*
X135616281Y-106700606D02*
X135721043Y-106748225D01*
X135721043Y-106748225D02*
X135773424Y-106795844D01*
X135773424Y-106795844D02*
X135825805Y-106891082D01*
X135825805Y-106891082D02*
X135825805Y-107033939D01*
X135825805Y-107033939D02*
X135773424Y-107129177D01*
X135773424Y-107129177D02*
X135721043Y-107176796D01*
X135721043Y-107176796D02*
X135616281Y-107224415D01*
X135616281Y-107224415D02*
X135197233Y-107224415D01*
X136297233Y-107700606D02*
X136297233Y-106700606D01*
X137030567Y-106700606D02*
X137240091Y-106700606D01*
X137240091Y-106700606D02*
X137344853Y-106748225D01*
X137344853Y-106748225D02*
X137449615Y-106843463D01*
X137449615Y-106843463D02*
X137501996Y-107033939D01*
X137501996Y-107033939D02*
X137501996Y-107367272D01*
X137501996Y-107367272D02*
X137449615Y-107557748D01*
X137449615Y-107557748D02*
X137344853Y-107652987D01*
X137344853Y-107652987D02*
X137240091Y-107700606D01*
X137240091Y-107700606D02*
X137030567Y-107700606D01*
X137030567Y-107700606D02*
X136925805Y-107652987D01*
X136925805Y-107652987D02*
X136821043Y-107557748D01*
X136821043Y-107557748D02*
X136768662Y-107367272D01*
X136768662Y-107367272D02*
X136768662Y-107033939D01*
X136768662Y-107033939D02*
X136821043Y-106843463D01*
X136821043Y-106843463D02*
X136925805Y-106748225D01*
X136925805Y-106748225D02*
X137030567Y-106700606D01*
X138549615Y-107700606D02*
X137921043Y-107700606D01*
X138235329Y-107700606D02*
X138235329Y-106700606D01*
X138235329Y-106700606D02*
X138130567Y-106843463D01*
X138130567Y-106843463D02*
X138025805Y-106938701D01*
X138025805Y-106938701D02*
X137921043Y-106986320D01*
X139492472Y-107033939D02*
X139492472Y-107700606D01*
X139230567Y-106652987D02*
X138968662Y-107367272D01*
X138968662Y-107367272D02*
X139649615Y-107367272D01*
X153992471Y-116700606D02*
X154673424Y-116700606D01*
X154673424Y-116700606D02*
X154306757Y-117081558D01*
X154306757Y-117081558D02*
X154463900Y-117081558D01*
X154463900Y-117081558D02*
X154568662Y-117129177D01*
X154568662Y-117129177D02*
X154621043Y-117176796D01*
X154621043Y-117176796D02*
X154673424Y-117272034D01*
X154673424Y-117272034D02*
X154673424Y-117510129D01*
X154673424Y-117510129D02*
X154621043Y-117605367D01*
X154621043Y-117605367D02*
X154568662Y-117652987D01*
X154568662Y-117652987D02*
X154463900Y-117700606D01*
X154463900Y-117700606D02*
X154149614Y-117700606D01*
X154149614Y-117700606D02*
X154044852Y-117652987D01*
X154044852Y-117652987D02*
X153992471Y-117605367D01*
X155144852Y-117605367D02*
X155197233Y-117652987D01*
X155197233Y-117652987D02*
X155144852Y-117700606D01*
X155144852Y-117700606D02*
X155092471Y-117652987D01*
X155092471Y-117652987D02*
X155144852Y-117605367D01*
X155144852Y-117605367D02*
X155144852Y-117700606D01*
X155563900Y-116700606D02*
X156244853Y-116700606D01*
X156244853Y-116700606D02*
X155878186Y-117081558D01*
X155878186Y-117081558D02*
X156035329Y-117081558D01*
X156035329Y-117081558D02*
X156140091Y-117129177D01*
X156140091Y-117129177D02*
X156192472Y-117176796D01*
X156192472Y-117176796D02*
X156244853Y-117272034D01*
X156244853Y-117272034D02*
X156244853Y-117510129D01*
X156244853Y-117510129D02*
X156192472Y-117605367D01*
X156192472Y-117605367D02*
X156140091Y-117652987D01*
X156140091Y-117652987D02*
X156035329Y-117700606D01*
X156035329Y-117700606D02*
X155721043Y-117700606D01*
X155721043Y-117700606D02*
X155616281Y-117652987D01*
X155616281Y-117652987D02*
X155563900Y-117605367D01*
X156611519Y-117033939D02*
X156873424Y-117700606D01*
X156873424Y-117700606D02*
X157135329Y-117033939D01*
X152173424Y-111748225D02*
X152068662Y-111700606D01*
X152068662Y-111700606D02*
X151911519Y-111700606D01*
X151911519Y-111700606D02*
X151754376Y-111748225D01*
X151754376Y-111748225D02*
X151649614Y-111843463D01*
X151649614Y-111843463D02*
X151597233Y-111938701D01*
X151597233Y-111938701D02*
X151544852Y-112129177D01*
X151544852Y-112129177D02*
X151544852Y-112272034D01*
X151544852Y-112272034D02*
X151597233Y-112462510D01*
X151597233Y-112462510D02*
X151649614Y-112557748D01*
X151649614Y-112557748D02*
X151754376Y-112652987D01*
X151754376Y-112652987D02*
X151911519Y-112700606D01*
X151911519Y-112700606D02*
X152016281Y-112700606D01*
X152016281Y-112700606D02*
X152173424Y-112652987D01*
X152173424Y-112652987D02*
X152225805Y-112605367D01*
X152225805Y-112605367D02*
X152225805Y-112272034D01*
X152225805Y-112272034D02*
X152016281Y-112272034D01*
X152697233Y-112700606D02*
X152697233Y-111700606D01*
X152697233Y-111700606D02*
X153116281Y-111700606D01*
X153116281Y-111700606D02*
X153221043Y-111748225D01*
X153221043Y-111748225D02*
X153273424Y-111795844D01*
X153273424Y-111795844D02*
X153325805Y-111891082D01*
X153325805Y-111891082D02*
X153325805Y-112033939D01*
X153325805Y-112033939D02*
X153273424Y-112129177D01*
X153273424Y-112129177D02*
X153221043Y-112176796D01*
X153221043Y-112176796D02*
X153116281Y-112224415D01*
X153116281Y-112224415D02*
X152697233Y-112224415D01*
X153797233Y-112700606D02*
X153797233Y-111700606D01*
X154530567Y-111700606D02*
X154740091Y-111700606D01*
X154740091Y-111700606D02*
X154844853Y-111748225D01*
X154844853Y-111748225D02*
X154949615Y-111843463D01*
X154949615Y-111843463D02*
X155001996Y-112033939D01*
X155001996Y-112033939D02*
X155001996Y-112367272D01*
X155001996Y-112367272D02*
X154949615Y-112557748D01*
X154949615Y-112557748D02*
X154844853Y-112652987D01*
X154844853Y-112652987D02*
X154740091Y-112700606D01*
X154740091Y-112700606D02*
X154530567Y-112700606D01*
X154530567Y-112700606D02*
X154425805Y-112652987D01*
X154425805Y-112652987D02*
X154321043Y-112557748D01*
X154321043Y-112557748D02*
X154268662Y-112367272D01*
X154268662Y-112367272D02*
X154268662Y-112033939D01*
X154268662Y-112033939D02*
X154321043Y-111843463D01*
X154321043Y-111843463D02*
X154425805Y-111748225D01*
X154425805Y-111748225D02*
X154530567Y-111700606D01*
X156049615Y-112700606D02*
X155421043Y-112700606D01*
X155735329Y-112700606D02*
X155735329Y-111700606D01*
X155735329Y-111700606D02*
X155630567Y-111843463D01*
X155630567Y-111843463D02*
X155525805Y-111938701D01*
X155525805Y-111938701D02*
X155421043Y-111986320D01*
X157044853Y-111700606D02*
X156521043Y-111700606D01*
X156521043Y-111700606D02*
X156468662Y-112176796D01*
X156468662Y-112176796D02*
X156521043Y-112129177D01*
X156521043Y-112129177D02*
X156625805Y-112081558D01*
X156625805Y-112081558D02*
X156887710Y-112081558D01*
X156887710Y-112081558D02*
X156992472Y-112129177D01*
X156992472Y-112129177D02*
X157044853Y-112176796D01*
X157044853Y-112176796D02*
X157097234Y-112272034D01*
X157097234Y-112272034D02*
X157097234Y-112510129D01*
X157097234Y-112510129D02*
X157044853Y-112605367D01*
X157044853Y-112605367D02*
X156992472Y-112652987D01*
X156992472Y-112652987D02*
X156887710Y-112700606D01*
X156887710Y-112700606D02*
X156625805Y-112700606D01*
X156625805Y-112700606D02*
X156521043Y-112652987D01*
X156521043Y-112652987D02*
X156468662Y-112605367D01*
X134673424Y-114248225D02*
X134568662Y-114200606D01*
X134568662Y-114200606D02*
X134411519Y-114200606D01*
X134411519Y-114200606D02*
X134254376Y-114248225D01*
X134254376Y-114248225D02*
X134149614Y-114343463D01*
X134149614Y-114343463D02*
X134097233Y-114438701D01*
X134097233Y-114438701D02*
X134044852Y-114629177D01*
X134044852Y-114629177D02*
X134044852Y-114772034D01*
X134044852Y-114772034D02*
X134097233Y-114962510D01*
X134097233Y-114962510D02*
X134149614Y-115057748D01*
X134149614Y-115057748D02*
X134254376Y-115152987D01*
X134254376Y-115152987D02*
X134411519Y-115200606D01*
X134411519Y-115200606D02*
X134516281Y-115200606D01*
X134516281Y-115200606D02*
X134673424Y-115152987D01*
X134673424Y-115152987D02*
X134725805Y-115105367D01*
X134725805Y-115105367D02*
X134725805Y-114772034D01*
X134725805Y-114772034D02*
X134516281Y-114772034D01*
X135197233Y-115200606D02*
X135197233Y-114200606D01*
X135197233Y-114200606D02*
X135825805Y-115200606D01*
X135825805Y-115200606D02*
X135825805Y-114200606D01*
X136349614Y-115200606D02*
X136349614Y-114200606D01*
X136349614Y-114200606D02*
X136611519Y-114200606D01*
X136611519Y-114200606D02*
X136768662Y-114248225D01*
X136768662Y-114248225D02*
X136873424Y-114343463D01*
X136873424Y-114343463D02*
X136925805Y-114438701D01*
X136925805Y-114438701D02*
X136978186Y-114629177D01*
X136978186Y-114629177D02*
X136978186Y-114772034D01*
X136978186Y-114772034D02*
X136925805Y-114962510D01*
X136925805Y-114962510D02*
X136873424Y-115057748D01*
X136873424Y-115057748D02*
X136768662Y-115152987D01*
X136768662Y-115152987D02*
X136611519Y-115200606D01*
X136611519Y-115200606D02*
X136349614Y-115200606D01*
X134673424Y-84248225D02*
X134568662Y-84200606D01*
X134568662Y-84200606D02*
X134411519Y-84200606D01*
X134411519Y-84200606D02*
X134254376Y-84248225D01*
X134254376Y-84248225D02*
X134149614Y-84343463D01*
X134149614Y-84343463D02*
X134097233Y-84438701D01*
X134097233Y-84438701D02*
X134044852Y-84629177D01*
X134044852Y-84629177D02*
X134044852Y-84772034D01*
X134044852Y-84772034D02*
X134097233Y-84962510D01*
X134097233Y-84962510D02*
X134149614Y-85057748D01*
X134149614Y-85057748D02*
X134254376Y-85152987D01*
X134254376Y-85152987D02*
X134411519Y-85200606D01*
X134411519Y-85200606D02*
X134516281Y-85200606D01*
X134516281Y-85200606D02*
X134673424Y-85152987D01*
X134673424Y-85152987D02*
X134725805Y-85105367D01*
X134725805Y-85105367D02*
X134725805Y-84772034D01*
X134725805Y-84772034D02*
X134516281Y-84772034D01*
X135197233Y-85200606D02*
X135197233Y-84200606D01*
X135197233Y-84200606D02*
X135616281Y-84200606D01*
X135616281Y-84200606D02*
X135721043Y-84248225D01*
X135721043Y-84248225D02*
X135773424Y-84295844D01*
X135773424Y-84295844D02*
X135825805Y-84391082D01*
X135825805Y-84391082D02*
X135825805Y-84533939D01*
X135825805Y-84533939D02*
X135773424Y-84629177D01*
X135773424Y-84629177D02*
X135721043Y-84676796D01*
X135721043Y-84676796D02*
X135616281Y-84724415D01*
X135616281Y-84724415D02*
X135197233Y-84724415D01*
X136297233Y-85200606D02*
X136297233Y-84200606D01*
X137030567Y-84200606D02*
X137240091Y-84200606D01*
X137240091Y-84200606D02*
X137344853Y-84248225D01*
X137344853Y-84248225D02*
X137449615Y-84343463D01*
X137449615Y-84343463D02*
X137501996Y-84533939D01*
X137501996Y-84533939D02*
X137501996Y-84867272D01*
X137501996Y-84867272D02*
X137449615Y-85057748D01*
X137449615Y-85057748D02*
X137344853Y-85152987D01*
X137344853Y-85152987D02*
X137240091Y-85200606D01*
X137240091Y-85200606D02*
X137030567Y-85200606D01*
X137030567Y-85200606D02*
X136925805Y-85152987D01*
X136925805Y-85152987D02*
X136821043Y-85057748D01*
X136821043Y-85057748D02*
X136768662Y-84867272D01*
X136768662Y-84867272D02*
X136768662Y-84533939D01*
X136768662Y-84533939D02*
X136821043Y-84343463D01*
X136821043Y-84343463D02*
X136925805Y-84248225D01*
X136925805Y-84248225D02*
X137030567Y-84200606D01*
X137868662Y-84200606D02*
X138549615Y-84200606D01*
X138549615Y-84200606D02*
X138182948Y-84581558D01*
X138182948Y-84581558D02*
X138340091Y-84581558D01*
X138340091Y-84581558D02*
X138444853Y-84629177D01*
X138444853Y-84629177D02*
X138497234Y-84676796D01*
X138497234Y-84676796D02*
X138549615Y-84772034D01*
X138549615Y-84772034D02*
X138549615Y-85010129D01*
X138549615Y-85010129D02*
X138497234Y-85105367D01*
X138497234Y-85105367D02*
X138444853Y-85152987D01*
X138444853Y-85152987D02*
X138340091Y-85200606D01*
X138340091Y-85200606D02*
X138025805Y-85200606D01*
X138025805Y-85200606D02*
X137921043Y-85152987D01*
X137921043Y-85152987D02*
X137868662Y-85105367D01*
X139492472Y-84200606D02*
X139282948Y-84200606D01*
X139282948Y-84200606D02*
X139178186Y-84248225D01*
X139178186Y-84248225D02*
X139125805Y-84295844D01*
X139125805Y-84295844D02*
X139021043Y-84438701D01*
X139021043Y-84438701D02*
X138968662Y-84629177D01*
X138968662Y-84629177D02*
X138968662Y-85010129D01*
X138968662Y-85010129D02*
X139021043Y-85105367D01*
X139021043Y-85105367D02*
X139073424Y-85152987D01*
X139073424Y-85152987D02*
X139178186Y-85200606D01*
X139178186Y-85200606D02*
X139387710Y-85200606D01*
X139387710Y-85200606D02*
X139492472Y-85152987D01*
X139492472Y-85152987D02*
X139544853Y-85105367D01*
X139544853Y-85105367D02*
X139597234Y-85010129D01*
X139597234Y-85010129D02*
X139597234Y-84772034D01*
X139597234Y-84772034D02*
X139544853Y-84676796D01*
X139544853Y-84676796D02*
X139492472Y-84629177D01*
X139492472Y-84629177D02*
X139387710Y-84581558D01*
X139387710Y-84581558D02*
X139178186Y-84581558D01*
X139178186Y-84581558D02*
X139073424Y-84629177D01*
X139073424Y-84629177D02*
X139021043Y-84676796D01*
X139021043Y-84676796D02*
X138968662Y-84772034D01*
X153173424Y-99248225D02*
X153068662Y-99200606D01*
X153068662Y-99200606D02*
X152911519Y-99200606D01*
X152911519Y-99200606D02*
X152754376Y-99248225D01*
X152754376Y-99248225D02*
X152649614Y-99343463D01*
X152649614Y-99343463D02*
X152597233Y-99438701D01*
X152597233Y-99438701D02*
X152544852Y-99629177D01*
X152544852Y-99629177D02*
X152544852Y-99772034D01*
X152544852Y-99772034D02*
X152597233Y-99962510D01*
X152597233Y-99962510D02*
X152649614Y-100057748D01*
X152649614Y-100057748D02*
X152754376Y-100152987D01*
X152754376Y-100152987D02*
X152911519Y-100200606D01*
X152911519Y-100200606D02*
X153016281Y-100200606D01*
X153016281Y-100200606D02*
X153173424Y-100152987D01*
X153173424Y-100152987D02*
X153225805Y-100105367D01*
X153225805Y-100105367D02*
X153225805Y-99772034D01*
X153225805Y-99772034D02*
X153016281Y-99772034D01*
X153697233Y-100200606D02*
X153697233Y-99200606D01*
X153697233Y-99200606D02*
X154116281Y-99200606D01*
X154116281Y-99200606D02*
X154221043Y-99248225D01*
X154221043Y-99248225D02*
X154273424Y-99295844D01*
X154273424Y-99295844D02*
X154325805Y-99391082D01*
X154325805Y-99391082D02*
X154325805Y-99533939D01*
X154325805Y-99533939D02*
X154273424Y-99629177D01*
X154273424Y-99629177D02*
X154221043Y-99676796D01*
X154221043Y-99676796D02*
X154116281Y-99724415D01*
X154116281Y-99724415D02*
X153697233Y-99724415D01*
X154797233Y-100200606D02*
X154797233Y-99200606D01*
X155530567Y-99200606D02*
X155740091Y-99200606D01*
X155740091Y-99200606D02*
X155844853Y-99248225D01*
X155844853Y-99248225D02*
X155949615Y-99343463D01*
X155949615Y-99343463D02*
X156001996Y-99533939D01*
X156001996Y-99533939D02*
X156001996Y-99867272D01*
X156001996Y-99867272D02*
X155949615Y-100057748D01*
X155949615Y-100057748D02*
X155844853Y-100152987D01*
X155844853Y-100152987D02*
X155740091Y-100200606D01*
X155740091Y-100200606D02*
X155530567Y-100200606D01*
X155530567Y-100200606D02*
X155425805Y-100152987D01*
X155425805Y-100152987D02*
X155321043Y-100057748D01*
X155321043Y-100057748D02*
X155268662Y-99867272D01*
X155268662Y-99867272D02*
X155268662Y-99533939D01*
X155268662Y-99533939D02*
X155321043Y-99343463D01*
X155321043Y-99343463D02*
X155425805Y-99248225D01*
X155425805Y-99248225D02*
X155530567Y-99200606D01*
X156997234Y-99200606D02*
X156473424Y-99200606D01*
X156473424Y-99200606D02*
X156421043Y-99676796D01*
X156421043Y-99676796D02*
X156473424Y-99629177D01*
X156473424Y-99629177D02*
X156578186Y-99581558D01*
X156578186Y-99581558D02*
X156840091Y-99581558D01*
X156840091Y-99581558D02*
X156944853Y-99629177D01*
X156944853Y-99629177D02*
X156997234Y-99676796D01*
X156997234Y-99676796D02*
X157049615Y-99772034D01*
X157049615Y-99772034D02*
X157049615Y-100010129D01*
X157049615Y-100010129D02*
X156997234Y-100105367D01*
X156997234Y-100105367D02*
X156944853Y-100152987D01*
X156944853Y-100152987D02*
X156840091Y-100200606D01*
X156840091Y-100200606D02*
X156578186Y-100200606D01*
X156578186Y-100200606D02*
X156473424Y-100152987D01*
X156473424Y-100152987D02*
X156421043Y-100105367D01*
X152173424Y-81248225D02*
X152068662Y-81200606D01*
X152068662Y-81200606D02*
X151911519Y-81200606D01*
X151911519Y-81200606D02*
X151754376Y-81248225D01*
X151754376Y-81248225D02*
X151649614Y-81343463D01*
X151649614Y-81343463D02*
X151597233Y-81438701D01*
X151597233Y-81438701D02*
X151544852Y-81629177D01*
X151544852Y-81629177D02*
X151544852Y-81772034D01*
X151544852Y-81772034D02*
X151597233Y-81962510D01*
X151597233Y-81962510D02*
X151649614Y-82057748D01*
X151649614Y-82057748D02*
X151754376Y-82152987D01*
X151754376Y-82152987D02*
X151911519Y-82200606D01*
X151911519Y-82200606D02*
X152016281Y-82200606D01*
X152016281Y-82200606D02*
X152173424Y-82152987D01*
X152173424Y-82152987D02*
X152225805Y-82105367D01*
X152225805Y-82105367D02*
X152225805Y-81772034D01*
X152225805Y-81772034D02*
X152016281Y-81772034D01*
X152697233Y-82200606D02*
X152697233Y-81200606D01*
X152697233Y-81200606D02*
X153116281Y-81200606D01*
X153116281Y-81200606D02*
X153221043Y-81248225D01*
X153221043Y-81248225D02*
X153273424Y-81295844D01*
X153273424Y-81295844D02*
X153325805Y-81391082D01*
X153325805Y-81391082D02*
X153325805Y-81533939D01*
X153325805Y-81533939D02*
X153273424Y-81629177D01*
X153273424Y-81629177D02*
X153221043Y-81676796D01*
X153221043Y-81676796D02*
X153116281Y-81724415D01*
X153116281Y-81724415D02*
X152697233Y-81724415D01*
X153797233Y-82200606D02*
X153797233Y-81200606D01*
X154530567Y-81200606D02*
X154740091Y-81200606D01*
X154740091Y-81200606D02*
X154844853Y-81248225D01*
X154844853Y-81248225D02*
X154949615Y-81343463D01*
X154949615Y-81343463D02*
X155001996Y-81533939D01*
X155001996Y-81533939D02*
X155001996Y-81867272D01*
X155001996Y-81867272D02*
X154949615Y-82057748D01*
X154949615Y-82057748D02*
X154844853Y-82152987D01*
X154844853Y-82152987D02*
X154740091Y-82200606D01*
X154740091Y-82200606D02*
X154530567Y-82200606D01*
X154530567Y-82200606D02*
X154425805Y-82152987D01*
X154425805Y-82152987D02*
X154321043Y-82057748D01*
X154321043Y-82057748D02*
X154268662Y-81867272D01*
X154268662Y-81867272D02*
X154268662Y-81533939D01*
X154268662Y-81533939D02*
X154321043Y-81343463D01*
X154321043Y-81343463D02*
X154425805Y-81248225D01*
X154425805Y-81248225D02*
X154530567Y-81200606D01*
X155421043Y-81295844D02*
X155473424Y-81248225D01*
X155473424Y-81248225D02*
X155578186Y-81200606D01*
X155578186Y-81200606D02*
X155840091Y-81200606D01*
X155840091Y-81200606D02*
X155944853Y-81248225D01*
X155944853Y-81248225D02*
X155997234Y-81295844D01*
X155997234Y-81295844D02*
X156049615Y-81391082D01*
X156049615Y-81391082D02*
X156049615Y-81486320D01*
X156049615Y-81486320D02*
X155997234Y-81629177D01*
X155997234Y-81629177D02*
X155368662Y-82200606D01*
X155368662Y-82200606D02*
X156049615Y-82200606D01*
X156416281Y-81200606D02*
X157097234Y-81200606D01*
X157097234Y-81200606D02*
X156730567Y-81581558D01*
X156730567Y-81581558D02*
X156887710Y-81581558D01*
X156887710Y-81581558D02*
X156992472Y-81629177D01*
X156992472Y-81629177D02*
X157044853Y-81676796D01*
X157044853Y-81676796D02*
X157097234Y-81772034D01*
X157097234Y-81772034D02*
X157097234Y-82010129D01*
X157097234Y-82010129D02*
X157044853Y-82105367D01*
X157044853Y-82105367D02*
X156992472Y-82152987D01*
X156992472Y-82152987D02*
X156887710Y-82200606D01*
X156887710Y-82200606D02*
X156573424Y-82200606D01*
X156573424Y-82200606D02*
X156468662Y-82152987D01*
X156468662Y-82152987D02*
X156416281Y-82105367D01*
D12*
%TO.C,R4*%
X140066500Y-69325258D02*
X140066500Y-68850742D01*
X141111500Y-69325258D02*
X141111500Y-68850742D01*
%TO.C,R3*%
X150226500Y-69452258D02*
X150226500Y-68977742D01*
X151271500Y-69452258D02*
X151271500Y-68977742D01*
%TO.C,C3*%
X149826000Y-62618252D02*
X149826000Y-62095748D01*
X151296000Y-62618252D02*
X151296000Y-62095748D01*
%TO.C,U2*%
X136779000Y-35814000D02*
X154559000Y-35814000D01*
X154559000Y-57404000D01*
X136779000Y-57404000D01*
X136779000Y-35814000D01*
%TO.C,C2*%
X139854000Y-62745252D02*
X139854000Y-62222748D01*
X141324000Y-62745252D02*
X141324000Y-62222748D01*
%TO.C,C1*%
X114889000Y-111746677D02*
X114889000Y-112746677D01*
X115389000Y-112246677D02*
X114389000Y-112246677D01*
X117094000Y-117226323D02*
X106934000Y-117226323D01*
X117094000Y-117266323D02*
X106934000Y-117266323D01*
X117093000Y-117306323D02*
X106935000Y-117306323D01*
X117093000Y-117346323D02*
X106935000Y-117346323D01*
X117091000Y-117386323D02*
X106937000Y-117386323D01*
X117090000Y-117426323D02*
X106938000Y-117426323D01*
X117088000Y-117466323D02*
X106940000Y-117466323D01*
X117086000Y-117506323D02*
X106942000Y-117506323D01*
X117084000Y-117546323D02*
X106944000Y-117546323D01*
X117081000Y-117586323D02*
X106947000Y-117586323D01*
X117078000Y-117626323D02*
X106950000Y-117626323D01*
X117075000Y-117666323D02*
X106953000Y-117666323D01*
X117071000Y-117706323D02*
X106957000Y-117706323D01*
X117068000Y-117746323D02*
X106960000Y-117746323D01*
X117063000Y-117786323D02*
X106965000Y-117786323D01*
X117059000Y-117826323D02*
X106969000Y-117826323D01*
X117054000Y-117866323D02*
X106974000Y-117866323D01*
X117049000Y-117906323D02*
X106979000Y-117906323D01*
X117043000Y-117946323D02*
X106985000Y-117946323D01*
X117037000Y-117986323D02*
X106991000Y-117986323D01*
X117031000Y-118026323D02*
X106997000Y-118026323D01*
X117025000Y-118066323D02*
X107003000Y-118066323D01*
X117018000Y-118106323D02*
X107010000Y-118106323D01*
X117011000Y-118146323D02*
X107017000Y-118146323D01*
X117003000Y-118186323D02*
X107025000Y-118186323D01*
X116995000Y-118226323D02*
X107033000Y-118226323D01*
X116987000Y-118266323D02*
X107041000Y-118266323D01*
X116979000Y-118306323D02*
X107049000Y-118306323D01*
X116970000Y-118346323D02*
X107058000Y-118346323D01*
X116961000Y-118386323D02*
X107067000Y-118386323D01*
X116951000Y-118426323D02*
X107077000Y-118426323D01*
X116942000Y-118466323D02*
X107086000Y-118466323D01*
X116931000Y-118506323D02*
X113254000Y-118506323D01*
X110774000Y-118506323D02*
X107097000Y-118506323D01*
X116921000Y-118546323D02*
X113254000Y-118546323D01*
X110774000Y-118546323D02*
X107107000Y-118546323D01*
X116910000Y-118586323D02*
X113254000Y-118586323D01*
X110774000Y-118586323D02*
X107118000Y-118586323D01*
X116899000Y-118626323D02*
X113254000Y-118626323D01*
X110774000Y-118626323D02*
X107129000Y-118626323D01*
X116887000Y-118666323D02*
X113254000Y-118666323D01*
X110774000Y-118666323D02*
X107141000Y-118666323D01*
X116875000Y-118706323D02*
X113254000Y-118706323D01*
X110774000Y-118706323D02*
X107153000Y-118706323D01*
X116863000Y-118746323D02*
X113254000Y-118746323D01*
X110774000Y-118746323D02*
X107165000Y-118746323D01*
X116851000Y-118786323D02*
X113254000Y-118786323D01*
X110774000Y-118786323D02*
X107177000Y-118786323D01*
X116838000Y-118826323D02*
X113254000Y-118826323D01*
X110774000Y-118826323D02*
X107190000Y-118826323D01*
X116824000Y-118866323D02*
X113254000Y-118866323D01*
X110774000Y-118866323D02*
X107204000Y-118866323D01*
X116811000Y-118906323D02*
X113254000Y-118906323D01*
X110774000Y-118906323D02*
X107217000Y-118906323D01*
X116796000Y-118946323D02*
X113254000Y-118946323D01*
X110774000Y-118946323D02*
X107232000Y-118946323D01*
X116782000Y-118986323D02*
X113254000Y-118986323D01*
X110774000Y-118986323D02*
X107246000Y-118986323D01*
X116767000Y-119026323D02*
X113254000Y-119026323D01*
X110774000Y-119026323D02*
X107261000Y-119026323D01*
X116752000Y-119066323D02*
X113254000Y-119066323D01*
X110774000Y-119066323D02*
X107276000Y-119066323D01*
X116736000Y-119106323D02*
X113254000Y-119106323D01*
X110774000Y-119106323D02*
X107292000Y-119106323D01*
X116720000Y-119146323D02*
X113254000Y-119146323D01*
X110774000Y-119146323D02*
X107308000Y-119146323D01*
X116704000Y-119186323D02*
X113254000Y-119186323D01*
X110774000Y-119186323D02*
X107324000Y-119186323D01*
X116687000Y-119226323D02*
X113254000Y-119226323D01*
X110774000Y-119226323D02*
X107341000Y-119226323D01*
X116670000Y-119266323D02*
X113254000Y-119266323D01*
X110774000Y-119266323D02*
X107358000Y-119266323D01*
X116652000Y-119306323D02*
X113254000Y-119306323D01*
X110774000Y-119306323D02*
X107376000Y-119306323D01*
X116634000Y-119346323D02*
X113254000Y-119346323D01*
X110774000Y-119346323D02*
X107394000Y-119346323D01*
X116616000Y-119386323D02*
X113254000Y-119386323D01*
X110774000Y-119386323D02*
X107412000Y-119386323D01*
X116597000Y-119426323D02*
X113254000Y-119426323D01*
X110774000Y-119426323D02*
X107431000Y-119426323D01*
X116578000Y-119466323D02*
X113254000Y-119466323D01*
X110774000Y-119466323D02*
X107450000Y-119466323D01*
X116558000Y-119506323D02*
X113254000Y-119506323D01*
X110774000Y-119506323D02*
X107470000Y-119506323D01*
X116538000Y-119546323D02*
X113254000Y-119546323D01*
X110774000Y-119546323D02*
X107490000Y-119546323D01*
X116518000Y-119586323D02*
X113254000Y-119586323D01*
X110774000Y-119586323D02*
X107510000Y-119586323D01*
X116497000Y-119626323D02*
X113254000Y-119626323D01*
X110774000Y-119626323D02*
X107531000Y-119626323D01*
X116475000Y-119666323D02*
X113254000Y-119666323D01*
X110774000Y-119666323D02*
X107553000Y-119666323D01*
X116453000Y-119706323D02*
X113254000Y-119706323D01*
X110774000Y-119706323D02*
X107575000Y-119706323D01*
X116431000Y-119746323D02*
X113254000Y-119746323D01*
X110774000Y-119746323D02*
X107597000Y-119746323D01*
X116408000Y-119786323D02*
X113254000Y-119786323D01*
X110774000Y-119786323D02*
X107620000Y-119786323D01*
X116385000Y-119826323D02*
X113254000Y-119826323D01*
X110774000Y-119826323D02*
X107643000Y-119826323D01*
X116361000Y-119866323D02*
X113254000Y-119866323D01*
X110774000Y-119866323D02*
X107667000Y-119866323D01*
X116337000Y-119906323D02*
X113254000Y-119906323D01*
X110774000Y-119906323D02*
X107691000Y-119906323D01*
X116312000Y-119946323D02*
X113254000Y-119946323D01*
X110774000Y-119946323D02*
X107716000Y-119946323D01*
X116286000Y-119986323D02*
X113254000Y-119986323D01*
X110774000Y-119986323D02*
X107742000Y-119986323D01*
X116261000Y-120026323D02*
X113254000Y-120026323D01*
X110774000Y-120026323D02*
X107767000Y-120026323D01*
X116234000Y-120066323D02*
X113254000Y-120066323D01*
X110774000Y-120066323D02*
X107794000Y-120066323D01*
X116207000Y-120106323D02*
X113254000Y-120106323D01*
X110774000Y-120106323D02*
X107821000Y-120106323D01*
X116180000Y-120146323D02*
X113254000Y-120146323D01*
X110774000Y-120146323D02*
X107848000Y-120146323D01*
X116152000Y-120186323D02*
X113254000Y-120186323D01*
X110774000Y-120186323D02*
X107876000Y-120186323D01*
X116123000Y-120226323D02*
X113254000Y-120226323D01*
X110774000Y-120226323D02*
X107905000Y-120226323D01*
X116094000Y-120266323D02*
X113254000Y-120266323D01*
X110774000Y-120266323D02*
X107934000Y-120266323D01*
X116064000Y-120306323D02*
X113254000Y-120306323D01*
X110774000Y-120306323D02*
X107964000Y-120306323D01*
X116034000Y-120346323D02*
X113254000Y-120346323D01*
X110774000Y-120346323D02*
X107994000Y-120346323D01*
X116002000Y-120386323D02*
X113254000Y-120386323D01*
X110774000Y-120386323D02*
X108026000Y-120386323D01*
X115971000Y-120426323D02*
X113254000Y-120426323D01*
X110774000Y-120426323D02*
X108057000Y-120426323D01*
X115938000Y-120466323D02*
X113254000Y-120466323D01*
X110774000Y-120466323D02*
X108090000Y-120466323D01*
X115905000Y-120506323D02*
X113254000Y-120506323D01*
X110774000Y-120506323D02*
X108123000Y-120506323D01*
X115872000Y-120546323D02*
X113254000Y-120546323D01*
X110774000Y-120546323D02*
X108156000Y-120546323D01*
X115837000Y-120586323D02*
X113254000Y-120586323D01*
X110774000Y-120586323D02*
X108191000Y-120586323D01*
X115802000Y-120626323D02*
X113254000Y-120626323D01*
X110774000Y-120626323D02*
X108226000Y-120626323D01*
X115766000Y-120666323D02*
X113254000Y-120666323D01*
X110774000Y-120666323D02*
X108262000Y-120666323D01*
X115730000Y-120706323D02*
X113254000Y-120706323D01*
X110774000Y-120706323D02*
X108298000Y-120706323D01*
X115692000Y-120746323D02*
X113254000Y-120746323D01*
X110774000Y-120746323D02*
X108336000Y-120746323D01*
X115654000Y-120786323D02*
X113254000Y-120786323D01*
X110774000Y-120786323D02*
X108374000Y-120786323D01*
X115615000Y-120826323D02*
X113254000Y-120826323D01*
X110774000Y-120826323D02*
X108413000Y-120826323D01*
X115575000Y-120866323D02*
X113254000Y-120866323D01*
X110774000Y-120866323D02*
X108453000Y-120866323D01*
X115534000Y-120906323D02*
X113254000Y-120906323D01*
X110774000Y-120906323D02*
X108494000Y-120906323D01*
X115492000Y-120946323D02*
X113254000Y-120946323D01*
X110774000Y-120946323D02*
X108536000Y-120946323D01*
X115449000Y-120986323D02*
X108579000Y-120986323D01*
X115405000Y-121026323D02*
X108623000Y-121026323D01*
X115361000Y-121066323D02*
X108667000Y-121066323D01*
X115315000Y-121106323D02*
X108713000Y-121106323D01*
X115268000Y-121146323D02*
X108760000Y-121146323D01*
X115219000Y-121186323D02*
X108809000Y-121186323D01*
X115170000Y-121226323D02*
X108858000Y-121226323D01*
X115119000Y-121266323D02*
X108909000Y-121266323D01*
X115067000Y-121306323D02*
X108961000Y-121306323D01*
X115014000Y-121346323D02*
X109014000Y-121346323D01*
X114959000Y-121386323D02*
X109069000Y-121386323D01*
X114902000Y-121426323D02*
X109126000Y-121426323D01*
X114844000Y-121466323D02*
X109184000Y-121466323D01*
X114784000Y-121506323D02*
X109244000Y-121506323D01*
X114722000Y-121546323D02*
X109306000Y-121546323D01*
X114658000Y-121586323D02*
X109370000Y-121586323D01*
X114592000Y-121626323D02*
X109436000Y-121626323D01*
X114524000Y-121666323D02*
X109504000Y-121666323D01*
X114453000Y-121706323D02*
X109575000Y-121706323D01*
X114379000Y-121746323D02*
X109649000Y-121746323D01*
X114302000Y-121786323D02*
X109726000Y-121786323D01*
X114222000Y-121826323D02*
X109806000Y-121826323D01*
X114138000Y-121866323D02*
X109890000Y-121866323D01*
X114051000Y-121906323D02*
X109977000Y-121906323D01*
X113958000Y-121946323D02*
X110070000Y-121946323D01*
X113860000Y-121986323D02*
X110168000Y-121986323D01*
X113756000Y-122026323D02*
X110272000Y-122026323D01*
X113644000Y-122066323D02*
X110384000Y-122066323D01*
X113523000Y-122106323D02*
X110505000Y-122106323D01*
X113391000Y-122146323D02*
X110637000Y-122146323D01*
X113244000Y-122186323D02*
X110784000Y-122186323D01*
X113076000Y-122226323D02*
X110952000Y-122226323D01*
X112876000Y-122266323D02*
X111152000Y-122266323D01*
X112613000Y-122306323D02*
X111415000Y-122306323D01*
X117134000Y-117226323D02*
G75*
G02*
X106894000Y-117226323I-5120000J0D01*
G01*
X106894000Y-117226323D02*
G75*
G02*
X117134000Y-117226323I5120000J0D01*
G01*
%TO.C,U1*%
D13*
X131439540Y-73928187D02*
X159739540Y-73928187D01*
X159739540Y-125428187D01*
X131439540Y-125428187D01*
X131439540Y-73928187D01*
D11*
X141959540Y-122188187D02*
X149579540Y-122188187D01*
X149579540Y-126442366D01*
X141959540Y-126442366D01*
X141959540Y-122188187D01*
%TD*%
M02*
