%TF.GenerationSoftware,KiCad,Pcbnew,9.0.6*%
%TF.CreationDate,2026-03-22T19:20:37-06:00*%
%TF.ProjectId,Asistente,41736973-7465-46e7-9465-2e6b69636164,rev?*%
%TF.SameCoordinates,Original*%
%TF.FileFunction,Soldermask,Top*%
%TF.FilePolarity,Negative*%
%FSLAX46Y46*%
G04 Gerber Fmt 4.6, Leading zero omitted, Abs format (unit mm)*
G04 Created by KiCad (PCBNEW 9.0.6) date 2026-03-22 19:20:37*
%MOMM*%
%LPD*%
G01*
G04 APERTURE LIST*
G04 Aperture macros list*
%AMRoundRect*
0 Rectangle with rounded corners*
0 $1 Rounding radius*
0 $2 $3 $4 $5 $6 $7 $8 $9 X,Y pos of 4 corners*
0 Add a 4 corners polygon primitive as box body*
4,1,4,$2,$3,$4,$5,$6,$7,$8,$9,$2,$3,0*
0 Add four circle primitives for the rounded corners*
1,1,$1+$1,$2,$3*
1,1,$1+$1,$4,$5*
1,1,$1+$1,$6,$7*
1,1,$1+$1,$8,$9*
0 Add four rect primitives between the rounded corners*
20,1,$1+$1,$2,$3,$4,$5,0*
20,1,$1+$1,$4,$5,$6,$7,0*
20,1,$1+$1,$6,$7,$8,$9,0*
20,1,$1+$1,$8,$9,$2,$3,0*%
G04 Aperture macros list end*
%ADD10RoundRect,0.200000X0.275000X-0.200000X0.275000X0.200000X-0.275000X0.200000X-0.275000X-0.200000X0*%
%ADD11RoundRect,0.250000X0.475000X-0.250000X0.475000X0.250000X-0.475000X0.250000X-0.475000X-0.250000X0*%
%ADD12C,1.524000*%
%ADD13RoundRect,0.250000X-0.750000X0.750000X-0.750000X-0.750000X0.750000X-0.750000X0.750000X0.750000X0*%
%ADD14C,2.000000*%
%ADD15O,1.900000X1.524000*%
G04 APERTURE END LIST*
D10*
%TO.C,R4*%
X140589000Y-69913000D03*
X140589000Y-68263000D03*
%TD*%
%TO.C,R3*%
X150749000Y-70040000D03*
X150749000Y-68390000D03*
%TD*%
D11*
%TO.C,C3*%
X150561000Y-63307000D03*
X150561000Y-61407000D03*
%TD*%
D12*
%TO.C,U2*%
X138049000Y-56134000D03*
X140589000Y-56134000D03*
X143129000Y-56134000D03*
X150749000Y-56134000D03*
X153289000Y-56134000D03*
X153289000Y-37084000D03*
X150749000Y-37084000D03*
X140589000Y-37084000D03*
X138049000Y-37084000D03*
%TD*%
D11*
%TO.C,C2*%
X140589000Y-63434000D03*
X140589000Y-61534000D03*
%TD*%
D13*
%TO.C,C1*%
X112014000Y-114726323D03*
D14*
X112014000Y-119726323D03*
%TD*%
D15*
%TO.C,U1*%
X132842000Y-117348000D03*
X132842000Y-114808000D03*
X132842000Y-112268000D03*
X132842000Y-109728000D03*
X132842000Y-107188000D03*
X132842000Y-104648000D03*
X132842000Y-102108000D03*
X132842000Y-99568000D03*
X132842000Y-97028000D03*
X132842000Y-94488000D03*
X132842000Y-91948000D03*
X132842000Y-89408000D03*
X132842000Y-86868000D03*
X132842000Y-84328000D03*
X132842000Y-81788000D03*
X158242000Y-117348000D03*
X158242000Y-114808000D03*
X158242000Y-112268000D03*
X158242000Y-109728000D03*
X158242000Y-107188000D03*
X158242000Y-104648000D03*
X158242000Y-102108000D03*
X158242000Y-99568000D03*
X158242000Y-97028000D03*
X158242000Y-94488000D03*
X158242000Y-91948000D03*
X158242000Y-89408000D03*
X158242000Y-86868000D03*
X158242000Y-84328000D03*
X158242000Y-81788000D03*
%TD*%
M02*
