%TF.GenerationSoftware,KiCad,Pcbnew,9.0.8-1.fc43*%
%TF.CreationDate,2026-03-29T18:07:38-06:00*%
%TF.ProjectId,Asistente,41736973-7465-46e7-9465-2e6b69636164,rev?*%
%TF.SameCoordinates,Original*%
%TF.FileFunction,Soldermask,Top*%
%TF.FilePolarity,Negative*%
%FSLAX46Y46*%
G04 Gerber Fmt 4.6, Leading zero omitted, Abs format (unit mm)*
G04 Created by KiCad (PCBNEW 9.0.8-1.fc43) date 2026-03-29 18:07:38*
%MOMM*%
%LPD*%
G01*
G04 APERTURE LIST*
G04 Aperture macros list*
%AMRoundRect*
0 Rectangle with rounded corners*
0 $1 Rounding radius*
0 $2 $3 $4 $5 $6 $7 $8 $9 X,Y pos of 4 corners*
0 Add a 4 corners polygon primitive as box body*
4,1,4,$2,$3,$4,$5,$6,$7,$8,$9,$2,$3,0*
0 Add four circle primitives for the rounded corners*
1,1,$1+$1,$2,$3*
1,1,$1+$1,$4,$5*
1,1,$1+$1,$6,$7*
1,1,$1+$1,$8,$9*
0 Add four rect primitives between the rounded corners*
20,1,$1+$1,$2,$3,$4,$5,0*
20,1,$1+$1,$4,$5,$6,$7,0*
20,1,$1+$1,$6,$7,$8,$9,0*
20,1,$1+$1,$8,$9,$2,$3,0*%
G04 Aperture macros list end*
%ADD10O,1.900000X1.524000*%
%ADD11C,1.600000*%
%ADD12R,1.700000X1.700000*%
%ADD13C,1.524000*%
%ADD14RoundRect,0.250000X-0.750000X0.750000X-0.750000X-0.750000X0.750000X-0.750000X0.750000X0.750000X0*%
%ADD15C,2.000000*%
G04 APERTURE END LIST*
D10*
%TO.C,U1*%
X127762000Y-117303250D03*
X127762000Y-114763250D03*
X127762000Y-112223250D03*
X127762000Y-109683250D03*
X127762000Y-107143250D03*
X127762000Y-104603250D03*
X127762000Y-102063250D03*
X127762000Y-99523250D03*
X127762000Y-96983250D03*
X127762000Y-94443250D03*
X127762000Y-91903250D03*
X127762000Y-89363250D03*
X127762000Y-86823250D03*
X127762000Y-84283250D03*
X127762000Y-81743250D03*
X153162000Y-117303250D03*
X153162000Y-114763250D03*
X153162000Y-112223250D03*
X153162000Y-109683250D03*
X153162000Y-107143250D03*
X153162000Y-104603250D03*
X153162000Y-102063250D03*
X153162000Y-99523250D03*
X153162000Y-96983250D03*
X153162000Y-94443250D03*
X153162000Y-91903250D03*
X153162000Y-89363250D03*
X153162000Y-86823250D03*
X153162000Y-84283250D03*
X153162000Y-81743250D03*
%TD*%
D11*
%TO.C,C3*%
X116000000Y-90500000D03*
X116000000Y-85500000D03*
%TD*%
D12*
%TO.C,VDD*%
X164465000Y-106299000D03*
%TD*%
%TO.C,SD*%
X165000000Y-86500000D03*
%TD*%
D13*
%TO.C,U2*%
X133300000Y-66000000D03*
X135840000Y-66000000D03*
X138380000Y-66000000D03*
X146000000Y-66000000D03*
X148540000Y-66000000D03*
X148540000Y-46950000D03*
X146000000Y-46950000D03*
X135840000Y-46950000D03*
X133300000Y-46950000D03*
%TD*%
D12*
%TO.C,VDD*%
X165227000Y-96139000D03*
%TD*%
%TO.C,R+*%
X156130750Y-47450000D03*
%TD*%
%TO.C,L-*%
X123582750Y-54494500D03*
%TD*%
D11*
%TO.C,R4*%
X107000000Y-104580000D03*
X107000000Y-94420000D03*
%TD*%
D12*
%TO.C,GNDMIC1*%
X165227000Y-77216000D03*
%TD*%
D11*
%TO.C,C2*%
X107000000Y-90000000D03*
X107000000Y-85000000D03*
%TD*%
D12*
%TO.C,R-*%
X155921500Y-54562000D03*
%TD*%
D11*
%TO.C,R3*%
X116000000Y-104580000D03*
X116000000Y-94420000D03*
%TD*%
D14*
%TO.C,C1*%
X112500000Y-115500000D03*
D15*
X112500000Y-120500000D03*
%TD*%
D12*
%TO.C,SDA*%
X164338000Y-109989000D03*
%TD*%
%TO.C,WS*%
X165100000Y-90950000D03*
%TD*%
%TO.C,L+*%
X123840000Y-47450000D03*
%TD*%
%TO.C,SCK*%
X165100000Y-82042000D03*
%TD*%
%TO.C,SCK*%
X164338000Y-113739000D03*
%TD*%
%TO.C,GND*%
X164338000Y-102489000D03*
%TD*%
M02*
