%TF.GenerationSoftware,KiCad,Pcbnew,9.0.8-1.fc43*%
%TF.CreationDate,2026-03-29T18:07:38-06:00*%
%TF.ProjectId,Asistente,41736973-7465-46e7-9465-2e6b69636164,rev?*%
%TF.SameCoordinates,Original*%
%TF.FileFunction,Copper,L2,Bot*%
%TF.FilePolarity,Positive*%
%FSLAX46Y46*%
G04 Gerber Fmt 4.6, Leading zero omitted, Abs format (unit mm)*
G04 Created by KiCad (PCBNEW 9.0.8-1.fc43) date 2026-03-29 18:07:38*
%MOMM*%
%LPD*%
G01*
G04 APERTURE LIST*
G04 Aperture macros list*
%AMRoundRect*
0 Rectangle with rounded corners*
0 $1 Rounding radius*
0 $2 $3 $4 $5 $6 $7 $8 $9 X,Y pos of 4 corners*
0 Add a 4 corners polygon primitive as box body*
4,1,4,$2,$3,$4,$5,$6,$7,$8,$9,$2,$3,0*
0 Add four circle primitives for the rounded corners*
1,1,$1+$1,$2,$3*
1,1,$1+$1,$4,$5*
1,1,$1+$1,$6,$7*
1,1,$1+$1,$8,$9*
0 Add four rect primitives between the rounded corners*
20,1,$1+$1,$2,$3,$4,$5,0*
20,1,$1+$1,$4,$5,$6,$7,0*
20,1,$1+$1,$6,$7,$8,$9,0*
20,1,$1+$1,$8,$9,$2,$3,0*%
G04 Aperture macros list end*
%TA.AperFunction,ComponentPad*%
%ADD10O,1.900000X1.524000*%
%TD*%
%TA.AperFunction,ComponentPad*%
%ADD11C,1.600000*%
%TD*%
%TA.AperFunction,ComponentPad*%
%ADD12R,1.700000X1.700000*%
%TD*%
%TA.AperFunction,ComponentPad*%
%ADD13C,1.524000*%
%TD*%
%TA.AperFunction,ComponentPad*%
%ADD14RoundRect,0.250000X-0.750000X0.750000X-0.750000X-0.750000X0.750000X-0.750000X0.750000X0.750000X0*%
%TD*%
%TA.AperFunction,ComponentPad*%
%ADD15C,2.000000*%
%TD*%
%TA.AperFunction,Conductor*%
%ADD16C,0.200000*%
%TD*%
G04 APERTURE END LIST*
D10*
%TO.P,U1,1,VIN*%
%TO.N,+5V*%
X127762000Y-117303250D03*
%TO.P,U1,2,GND*%
%TO.N,GND*%
X127762000Y-114763250D03*
%TO.P,U1,3,GPIO13*%
%TO.N,unconnected-(U1-GPIO13-Pad3)*%
X127762000Y-112223250D03*
%TO.P,U1,4,GPIO12*%
%TO.N,unconnected-(U1-GPIO12-Pad4)*%
X127762000Y-109683250D03*
%TO.P,U1,5,GPIO14*%
%TO.N,unconnected-(U1-GPIO14-Pad5)*%
X127762000Y-107143250D03*
%TO.P,U1,6,GPIO27*%
%TO.N,Net-(J11-Pin_1)*%
X127762000Y-104603250D03*
%TO.P,U1,7,GPIO26*%
%TO.N,Net-(U1-GPIO26)*%
X127762000Y-102063250D03*
%TO.P,U1,8,GPIO25*%
%TO.N,Net-(U1-GPIO25)*%
X127762000Y-99523250D03*
%TO.P,U1,9,GPIO33*%
%TO.N,Net-(J9-Pin_1)*%
X127762000Y-96983250D03*
%TO.P,U1,10,GPIO32*%
%TO.N,Net-(J10-Pin_1)*%
X127762000Y-94443250D03*
%TO.P,U1,11,GPIO35*%
%TO.N,unconnected-(U1-GPIO35-Pad11)*%
X127762000Y-91903250D03*
%TO.P,U1,12,GPIO34*%
%TO.N,unconnected-(U1-GPIO34-Pad12)*%
X127762000Y-89363250D03*
%TO.P,U1,13,GPIO39*%
%TO.N,unconnected-(U1-GPIO39-Pad13)*%
X127762000Y-86823250D03*
%TO.P,U1,14,GPIO36*%
%TO.N,unconnected-(U1-GPIO36-Pad14)*%
X127762000Y-84283250D03*
%TO.P,U1,15,EN*%
%TO.N,unconnected-(U1-EN-Pad15)*%
X127762000Y-81743250D03*
%TO.P,U1,16,3.3v*%
%TO.N,Net-(DS1-VDD)*%
X153162000Y-117303250D03*
%TO.P,U1,17,GND*%
%TO.N,unconnected-(U1-GND-Pad17)*%
X153162000Y-114763250D03*
%TO.P,U1,18,GPIO15*%
%TO.N,unconnected-(U1-GPIO15-Pad18)*%
X153162000Y-112223250D03*
%TO.P,U1,19,GPIO2*%
%TO.N,unconnected-(U1-GPIO2-Pad19)*%
X153162000Y-109683250D03*
%TO.P,U1,20,GPIO4*%
%TO.N,unconnected-(U1-GPIO4-Pad20)*%
X153162000Y-107143250D03*
%TO.P,U1,21,GPIO16*%
%TO.N,unconnected-(U1-GPIO16-Pad21)*%
X153162000Y-104603250D03*
%TO.P,U1,22,GPIO17*%
%TO.N,unconnected-(U1-GPIO17-Pad22)*%
X153162000Y-102063250D03*
%TO.P,U1,23,GPIO5*%
%TO.N,unconnected-(U1-GPIO5-Pad23)*%
X153162000Y-99523250D03*
%TO.P,U1,24,GPIO18*%
%TO.N,unconnected-(U1-GPIO18-Pad24)*%
X153162000Y-96983250D03*
%TO.P,U1,25,GPIO19*%
%TO.N,unconnected-(U1-GPIO19-Pad25)*%
X153162000Y-94443250D03*
%TO.P,U1,26,GPIO21*%
%TO.N,Net-(DS1-SDA)*%
X153162000Y-91903250D03*
%TO.P,U1,27,GPIO3*%
%TO.N,unconnected-(U1-GPIO3-Pad27)*%
X153162000Y-89363250D03*
%TO.P,U1,28,GPIO1*%
%TO.N,unconnected-(U1-GPIO1-Pad28)*%
X153162000Y-86823250D03*
%TO.P,U1,29,GPIO22*%
%TO.N,Net-(DS1-SCK)*%
X153162000Y-84283250D03*
%TO.P,U1,30,GPIO23*%
%TO.N,unconnected-(U1-GPIO23-Pad30)*%
X153162000Y-81743250D03*
%TD*%
D11*
%TO.P,C3,1*%
%TO.N,Net-(C3-Pad1)*%
X116000000Y-90500000D03*
%TO.P,C3,2*%
%TO.N,Net-(U2-R)*%
X116000000Y-85500000D03*
%TD*%
D12*
%TO.P,VDD,1,Pin_1*%
%TO.N,Net-(DS1-VDD)*%
X164465000Y-106299000D03*
%TD*%
%TO.P,SD,1,Pin_1*%
%TO.N,Net-(J9-Pin_1)*%
X165000000Y-86500000D03*
%TD*%
D13*
%TO.P,U2,1,L*%
%TO.N,Net-(U2-L)*%
X133300000Y-66000000D03*
%TO.P,U2,2,T*%
%TO.N,GND*%
X135840000Y-66000000D03*
%TO.P,U2,3,R*%
%TO.N,Net-(U2-R)*%
X138380000Y-66000000D03*
%TO.P,U2,4,vin*%
%TO.N,+5V*%
X146000000Y-66000000D03*
%TO.P,U2,5,gnd*%
%TO.N,GND*%
X148540000Y-66000000D03*
%TO.P,U2,6,R-*%
%TO.N,Net-(J7-Pin_1)*%
X148540000Y-46950000D03*
%TO.P,U2,7,R+*%
%TO.N,Net-(J8-Pin_1)*%
X146000000Y-46950000D03*
%TO.P,U2,8,L+*%
%TO.N,Net-(J6-Pin_1)*%
X135840000Y-46950000D03*
%TO.P,U2,9,L-*%
%TO.N,Net-(J5-Pin_1)*%
X133300000Y-46950000D03*
%TD*%
D12*
%TO.P,VDD,1,Pin_1*%
%TO.N,Net-(DS1-VDD)*%
X165227000Y-96139000D03*
%TD*%
%TO.P,R+,1,Pin_1*%
%TO.N,Net-(J8-Pin_1)*%
X156130750Y-47450000D03*
%TD*%
%TO.P,L-,1,Pin_1*%
%TO.N,Net-(J5-Pin_1)*%
X123582750Y-54494500D03*
%TD*%
D11*
%TO.P,R4,1*%
%TO.N,Net-(U1-GPIO25)*%
X107000000Y-104580000D03*
%TO.P,R4,2*%
%TO.N,Net-(C2-Pad1)*%
X107000000Y-94420000D03*
%TD*%
D12*
%TO.P,GNDMIC1,1,Pin_1*%
%TO.N,GND*%
X165227000Y-77216000D03*
%TD*%
D11*
%TO.P,C2,1*%
%TO.N,Net-(C2-Pad1)*%
X107000000Y-90000000D03*
%TO.P,C2,2*%
%TO.N,Net-(U2-L)*%
X107000000Y-85000000D03*
%TD*%
D12*
%TO.P,R-,1,Pin_1*%
%TO.N,Net-(J7-Pin_1)*%
X155921500Y-54562000D03*
%TD*%
D11*
%TO.P,R3,1*%
%TO.N,Net-(U1-GPIO26)*%
X116000000Y-104580000D03*
%TO.P,R3,2*%
%TO.N,Net-(C3-Pad1)*%
X116000000Y-94420000D03*
%TD*%
D14*
%TO.P,C1,1*%
%TO.N,+5V*%
X112500000Y-115500000D03*
D15*
%TO.P,C1,2*%
%TO.N,GND*%
X112500000Y-120500000D03*
%TD*%
D12*
%TO.P,SDA,1,Pin_1*%
%TO.N,Net-(DS1-SDA)*%
X164338000Y-109989000D03*
%TD*%
%TO.P,WS,1,Pin_1*%
%TO.N,Net-(J11-Pin_1)*%
X165100000Y-90950000D03*
%TD*%
%TO.P,L+,1,Pin_1*%
%TO.N,Net-(J6-Pin_1)*%
X123840000Y-47450000D03*
%TD*%
%TO.P,SCK,1,Pin_1*%
%TO.N,Net-(J10-Pin_1)*%
X165100000Y-82042000D03*
%TD*%
%TO.P,SCK,1,Pin_1*%
%TO.N,Net-(DS1-SCK)*%
X164338000Y-113739000D03*
%TD*%
%TO.P,GND,1,Pin_1*%
%TO.N,GND*%
X164338000Y-102489000D03*
%TD*%
D16*
%TO.N,Net-(DS1-VDD)*%
X165227000Y-96139000D02*
X155000000Y-106366000D01*
X155000000Y-106366000D02*
X155000000Y-115465250D01*
X155000000Y-115465250D02*
X153162000Y-117303250D01*
%TO.N,Net-(J10-Pin_1)*%
X133940250Y-88265000D02*
X127762000Y-94443250D01*
X164592000Y-82042000D02*
X158369000Y-88265000D01*
X165100000Y-82042000D02*
X164592000Y-82042000D01*
X158369000Y-88265000D02*
X133940250Y-88265000D01*
%TO.N,Net-(J9-Pin_1)*%
X158206750Y-93380250D02*
X131365000Y-93380250D01*
X165000000Y-86587000D02*
X158206750Y-93380250D01*
X165000000Y-86500000D02*
X165000000Y-86587000D01*
X131365000Y-93380250D02*
X127762000Y-96983250D01*
%TO.N,Net-(J11-Pin_1)*%
X165100000Y-90950000D02*
X165100000Y-92458250D01*
X131779000Y-100586250D02*
X127762000Y-104603250D01*
X156972000Y-100586250D02*
X131779000Y-100586250D01*
X165100000Y-92458250D02*
X156972000Y-100586250D01*
%TD*%
%TA.AperFunction,Conductor*%
%TO.N,GND*%
G36*
X172442539Y-41520185D02*
G01*
X172488294Y-41572989D01*
X172499500Y-41624500D01*
X172499500Y-126375500D01*
X172479815Y-126442539D01*
X172427011Y-126488294D01*
X172375500Y-126499500D01*
X102624500Y-126499500D01*
X102557461Y-126479815D01*
X102511706Y-126427011D01*
X102500500Y-126375500D01*
X102500500Y-120381947D01*
X111000000Y-120381947D01*
X111000000Y-120618052D01*
X111036934Y-120851247D01*
X111109897Y-121075802D01*
X111217087Y-121286174D01*
X111277338Y-121369104D01*
X111277340Y-121369105D01*
X112017037Y-120629408D01*
X112034075Y-120692993D01*
X112099901Y-120807007D01*
X112192993Y-120900099D01*
X112307007Y-120965925D01*
X112370590Y-120982962D01*
X111630893Y-121722658D01*
X111713828Y-121782914D01*
X111924197Y-121890102D01*
X112148752Y-121963065D01*
X112148751Y-121963065D01*
X112381948Y-122000000D01*
X112618052Y-122000000D01*
X112851247Y-121963065D01*
X113075802Y-121890102D01*
X113286163Y-121782918D01*
X113286169Y-121782914D01*
X113369104Y-121722658D01*
X113369105Y-121722658D01*
X112629408Y-120982962D01*
X112692993Y-120965925D01*
X112807007Y-120900099D01*
X112900099Y-120807007D01*
X112965925Y-120692993D01*
X112982962Y-120629409D01*
X113722658Y-121369105D01*
X113722658Y-121369104D01*
X113782914Y-121286169D01*
X113782918Y-121286163D01*
X113890102Y-121075802D01*
X113963065Y-120851247D01*
X114000000Y-120618052D01*
X114000000Y-120381947D01*
X113963065Y-120148752D01*
X113890102Y-119924197D01*
X113782914Y-119713828D01*
X113722658Y-119630894D01*
X113722658Y-119630893D01*
X112982962Y-120370590D01*
X112965925Y-120307007D01*
X112900099Y-120192993D01*
X112807007Y-120099901D01*
X112692993Y-120034075D01*
X112629409Y-120017037D01*
X113369105Y-119277340D01*
X113369104Y-119277338D01*
X113286174Y-119217087D01*
X113075802Y-119109897D01*
X112851247Y-119036934D01*
X112851248Y-119036934D01*
X112618052Y-119000000D01*
X112381948Y-119000000D01*
X112148752Y-119036934D01*
X111924197Y-119109897D01*
X111713830Y-119217084D01*
X111630894Y-119277340D01*
X112370591Y-120017037D01*
X112307007Y-120034075D01*
X112192993Y-120099901D01*
X112099901Y-120192993D01*
X112034075Y-120307007D01*
X112017037Y-120370590D01*
X111277340Y-119630894D01*
X111217084Y-119713830D01*
X111109897Y-119924197D01*
X111036934Y-120148752D01*
X111000000Y-120381947D01*
X102500500Y-120381947D01*
X102500500Y-117208447D01*
X126611500Y-117208447D01*
X126611500Y-117398052D01*
X126648486Y-117583993D01*
X126648488Y-117584001D01*
X126721042Y-117759162D01*
X126826377Y-117916808D01*
X126960441Y-118050872D01*
X127065300Y-118120936D01*
X127118085Y-118156206D01*
X127293249Y-118228762D01*
X127479197Y-118265749D01*
X127479201Y-118265750D01*
X127479202Y-118265750D01*
X128044799Y-118265750D01*
X128044800Y-118265749D01*
X128230751Y-118228762D01*
X128405915Y-118156206D01*
X128563558Y-118050872D01*
X128697622Y-117916808D01*
X128802956Y-117759165D01*
X128875512Y-117584001D01*
X128912500Y-117398048D01*
X128912500Y-117208452D01*
X128912499Y-117208447D01*
X152011500Y-117208447D01*
X152011500Y-117398052D01*
X152048486Y-117583993D01*
X152048488Y-117584001D01*
X152121042Y-117759162D01*
X152226377Y-117916808D01*
X152360441Y-118050872D01*
X152465300Y-118120936D01*
X152518085Y-118156206D01*
X152693249Y-118228762D01*
X152879197Y-118265749D01*
X152879201Y-118265750D01*
X152879202Y-118265750D01*
X153444799Y-118265750D01*
X153444800Y-118265749D01*
X153630751Y-118228762D01*
X153805915Y-118156206D01*
X153963558Y-118050872D01*
X154097622Y-117916808D01*
X154202956Y-117759165D01*
X154275512Y-117584001D01*
X154312500Y-117398048D01*
X154312500Y-117208452D01*
X154275512Y-117022499D01*
X154202956Y-116847335D01*
X154195376Y-116835990D01*
X154174499Y-116769316D01*
X154192983Y-116701936D01*
X154210793Y-116679426D01*
X155240460Y-115649761D01*
X155280022Y-115581238D01*
X155300500Y-115504812D01*
X155300500Y-115425688D01*
X155300500Y-112869247D01*
X163287500Y-112869247D01*
X163287500Y-114608752D01*
X163299131Y-114667229D01*
X163299132Y-114667230D01*
X163343447Y-114733552D01*
X163409769Y-114777867D01*
X163409770Y-114777868D01*
X163468247Y-114789499D01*
X163468250Y-114789500D01*
X163468252Y-114789500D01*
X165207750Y-114789500D01*
X165207751Y-114789499D01*
X165222568Y-114786552D01*
X165266229Y-114777868D01*
X165266229Y-114777867D01*
X165266231Y-114777867D01*
X165332552Y-114733552D01*
X165376867Y-114667231D01*
X165376867Y-114667229D01*
X165376868Y-114667229D01*
X165385552Y-114623568D01*
X165388500Y-114608748D01*
X165388500Y-112869252D01*
X165388500Y-112869249D01*
X165388499Y-112869247D01*
X165376868Y-112810770D01*
X165376867Y-112810769D01*
X165332552Y-112744447D01*
X165266230Y-112700132D01*
X165266229Y-112700131D01*
X165207752Y-112688500D01*
X165207748Y-112688500D01*
X163468252Y-112688500D01*
X163468247Y-112688500D01*
X163409770Y-112700131D01*
X163409769Y-112700132D01*
X163343447Y-112744447D01*
X163299132Y-112810769D01*
X163299131Y-112810770D01*
X163287500Y-112869247D01*
X155300500Y-112869247D01*
X155300500Y-109119247D01*
X163287500Y-109119247D01*
X163287500Y-110858752D01*
X163299131Y-110917229D01*
X163299132Y-110917230D01*
X163343447Y-110983552D01*
X163409769Y-111027867D01*
X163409770Y-111027868D01*
X163468247Y-111039499D01*
X163468250Y-111039500D01*
X163468252Y-111039500D01*
X165207750Y-111039500D01*
X165207751Y-111039499D01*
X165222568Y-111036552D01*
X165266229Y-111027868D01*
X165266229Y-111027867D01*
X165266231Y-111027867D01*
X165332552Y-110983552D01*
X165376867Y-110917231D01*
X165376867Y-110917229D01*
X165376868Y-110917229D01*
X165388499Y-110858752D01*
X165388500Y-110858750D01*
X165388500Y-109119249D01*
X165388499Y-109119247D01*
X165376868Y-109060770D01*
X165376867Y-109060769D01*
X165332552Y-108994447D01*
X165266230Y-108950132D01*
X165266229Y-108950131D01*
X165207752Y-108938500D01*
X165207748Y-108938500D01*
X163468252Y-108938500D01*
X163468247Y-108938500D01*
X163409770Y-108950131D01*
X163409769Y-108950132D01*
X163343447Y-108994447D01*
X163299132Y-109060769D01*
X163299131Y-109060770D01*
X163287500Y-109119247D01*
X155300500Y-109119247D01*
X155300500Y-106541833D01*
X155320185Y-106474794D01*
X155336819Y-106454152D01*
X156361724Y-105429247D01*
X163414500Y-105429247D01*
X163414500Y-107168752D01*
X163426131Y-107227229D01*
X163426132Y-107227230D01*
X163470447Y-107293552D01*
X163536769Y-107337867D01*
X163536770Y-107337868D01*
X163595247Y-107349499D01*
X163595250Y-107349500D01*
X163595252Y-107349500D01*
X165334750Y-107349500D01*
X165334751Y-107349499D01*
X165349568Y-107346552D01*
X165393229Y-107337868D01*
X165393229Y-107337867D01*
X165393231Y-107337867D01*
X165459552Y-107293552D01*
X165503867Y-107227231D01*
X165503867Y-107227229D01*
X165503868Y-107227229D01*
X165515499Y-107168752D01*
X165515500Y-107168750D01*
X165515500Y-105429249D01*
X165515499Y-105429247D01*
X165503868Y-105370770D01*
X165503867Y-105370769D01*
X165459552Y-105304447D01*
X165393230Y-105260132D01*
X165393229Y-105260131D01*
X165334752Y-105248500D01*
X165334748Y-105248500D01*
X163595252Y-105248500D01*
X163595247Y-105248500D01*
X163536770Y-105260131D01*
X163536769Y-105260132D01*
X163470447Y-105304447D01*
X163426132Y-105370769D01*
X163426131Y-105370770D01*
X163414500Y-105429247D01*
X156361724Y-105429247D01*
X160199816Y-101591155D01*
X162988000Y-101591155D01*
X162988000Y-102239000D01*
X163904988Y-102239000D01*
X163872075Y-102296007D01*
X163838000Y-102423174D01*
X163838000Y-102554826D01*
X163872075Y-102681993D01*
X163904988Y-102739000D01*
X162988000Y-102739000D01*
X162988000Y-103386844D01*
X162994401Y-103446372D01*
X162994403Y-103446379D01*
X163044645Y-103581086D01*
X163044649Y-103581093D01*
X163130809Y-103696187D01*
X163130812Y-103696190D01*
X163245906Y-103782350D01*
X163245913Y-103782354D01*
X163380620Y-103832596D01*
X163380627Y-103832598D01*
X163440155Y-103838999D01*
X163440172Y-103839000D01*
X164088000Y-103839000D01*
X164088000Y-102922012D01*
X164145007Y-102954925D01*
X164272174Y-102989000D01*
X164403826Y-102989000D01*
X164530993Y-102954925D01*
X164588000Y-102922012D01*
X164588000Y-103839000D01*
X165235828Y-103839000D01*
X165235844Y-103838999D01*
X165295372Y-103832598D01*
X165295379Y-103832596D01*
X165430086Y-103782354D01*
X165430093Y-103782350D01*
X165545187Y-103696190D01*
X165545190Y-103696187D01*
X165631350Y-103581093D01*
X165631354Y-103581086D01*
X165681596Y-103446379D01*
X165681598Y-103446372D01*
X165687999Y-103386844D01*
X165688000Y-103386827D01*
X165688000Y-102739000D01*
X164771012Y-102739000D01*
X164803925Y-102681993D01*
X164838000Y-102554826D01*
X164838000Y-102423174D01*
X164803925Y-102296007D01*
X164771012Y-102239000D01*
X165688000Y-102239000D01*
X165688000Y-101591172D01*
X165687999Y-101591155D01*
X165681598Y-101531627D01*
X165681596Y-101531620D01*
X165631354Y-101396913D01*
X165631350Y-101396906D01*
X165545190Y-101281812D01*
X165545187Y-101281809D01*
X165430093Y-101195649D01*
X165430086Y-101195645D01*
X165295379Y-101145403D01*
X165295372Y-101145401D01*
X165235844Y-101139000D01*
X164588000Y-101139000D01*
X164588000Y-102055988D01*
X164530993Y-102023075D01*
X164403826Y-101989000D01*
X164272174Y-101989000D01*
X164145007Y-102023075D01*
X164088000Y-102055988D01*
X164088000Y-101139000D01*
X163440155Y-101139000D01*
X163380627Y-101145401D01*
X163380620Y-101145403D01*
X163245913Y-101195645D01*
X163245906Y-101195649D01*
X163130812Y-101281809D01*
X163130809Y-101281812D01*
X163044649Y-101396906D01*
X163044645Y-101396913D01*
X162994403Y-101531620D01*
X162994401Y-101531627D01*
X162988000Y-101591155D01*
X160199816Y-101591155D01*
X164565152Y-97225819D01*
X164626475Y-97192334D01*
X164652833Y-97189500D01*
X166096750Y-97189500D01*
X166096751Y-97189499D01*
X166111568Y-97186552D01*
X166155229Y-97177868D01*
X166155229Y-97177867D01*
X166155231Y-97177867D01*
X166221552Y-97133552D01*
X166265867Y-97067231D01*
X166265867Y-97067229D01*
X166265868Y-97067229D01*
X166277499Y-97008752D01*
X166277500Y-97008750D01*
X166277500Y-95269249D01*
X166277499Y-95269247D01*
X166265868Y-95210770D01*
X166265867Y-95210769D01*
X166221552Y-95144447D01*
X166155230Y-95100132D01*
X166155229Y-95100131D01*
X166096752Y-95088500D01*
X166096748Y-95088500D01*
X164357252Y-95088500D01*
X164357247Y-95088500D01*
X164298770Y-95100131D01*
X164298769Y-95100132D01*
X164232447Y-95144447D01*
X164188132Y-95210769D01*
X164188131Y-95210770D01*
X164176500Y-95269247D01*
X164176500Y-96713167D01*
X164156815Y-96780206D01*
X164140181Y-96800848D01*
X154759541Y-106181487D01*
X154759535Y-106181495D01*
X154719982Y-106250004D01*
X154719979Y-106250009D01*
X154699500Y-106326439D01*
X154699500Y-115289416D01*
X154679815Y-115356455D01*
X154663181Y-115377097D01*
X153704132Y-116336145D01*
X153642809Y-116369630D01*
X153592260Y-116370081D01*
X153444802Y-116340750D01*
X153444798Y-116340750D01*
X152879202Y-116340750D01*
X152879197Y-116340750D01*
X152693256Y-116377736D01*
X152693248Y-116377738D01*
X152518087Y-116450292D01*
X152360441Y-116555627D01*
X152226377Y-116689691D01*
X152121042Y-116847337D01*
X152048488Y-117022498D01*
X152048486Y-117022506D01*
X152011500Y-117208447D01*
X128912499Y-117208447D01*
X128875512Y-117022499D01*
X128802956Y-116847335D01*
X128738841Y-116751380D01*
X128697622Y-116689691D01*
X128563558Y-116555627D01*
X128405912Y-116450292D01*
X128230751Y-116377738D01*
X128230743Y-116377736D01*
X128044802Y-116340750D01*
X128044798Y-116340750D01*
X127479202Y-116340750D01*
X127479197Y-116340750D01*
X127293256Y-116377736D01*
X127293248Y-116377738D01*
X127118087Y-116450292D01*
X126960441Y-116555627D01*
X126826377Y-116689691D01*
X126721042Y-116847337D01*
X126648488Y-117022498D01*
X126648486Y-117022506D01*
X126611500Y-117208447D01*
X102500500Y-117208447D01*
X102500500Y-114695730D01*
X111299500Y-114695730D01*
X111299500Y-116304269D01*
X111302353Y-116334699D01*
X111302353Y-116334701D01*
X111342802Y-116450294D01*
X111347207Y-116462882D01*
X111427850Y-116572150D01*
X111537118Y-116652793D01*
X111579845Y-116667744D01*
X111665299Y-116697646D01*
X111695730Y-116700500D01*
X111695734Y-116700500D01*
X113304270Y-116700500D01*
X113334699Y-116697646D01*
X113334701Y-116697646D01*
X113398790Y-116675219D01*
X113462882Y-116652793D01*
X113572150Y-116572150D01*
X113652793Y-116462882D01*
X113682587Y-116377736D01*
X113697646Y-116334701D01*
X113697646Y-116334699D01*
X113700500Y-116304269D01*
X113700500Y-114695732D01*
X113699582Y-114685949D01*
X113697646Y-114665301D01*
X113652793Y-114537118D01*
X113635177Y-114513249D01*
X126335865Y-114513249D01*
X126335865Y-114513250D01*
X127446314Y-114513250D01*
X127441920Y-114517644D01*
X127389259Y-114608856D01*
X127362000Y-114710589D01*
X127362000Y-114815911D01*
X127389259Y-114917644D01*
X127441920Y-115008856D01*
X127446314Y-115013250D01*
X126335865Y-115013250D01*
X126343074Y-115058767D01*
X126404456Y-115247685D01*
X126494641Y-115424682D01*
X126611403Y-115585389D01*
X126611403Y-115585390D01*
X126751859Y-115725846D01*
X126912567Y-115842608D01*
X127089562Y-115932792D01*
X127278477Y-115994174D01*
X127474679Y-116025250D01*
X127512000Y-116025250D01*
X127512000Y-115078936D01*
X127516394Y-115083330D01*
X127607606Y-115135991D01*
X127709339Y-115163250D01*
X127814661Y-115163250D01*
X127916394Y-115135991D01*
X128007606Y-115083330D01*
X128012000Y-115078936D01*
X128012000Y-116025250D01*
X128049321Y-116025250D01*
X128245520Y-115994174D01*
X128245523Y-115994174D01*
X128434437Y-115932792D01*
X128611432Y-115842608D01*
X128772139Y-115725846D01*
X128772140Y-115725846D01*
X128912596Y-115585390D01*
X128912596Y-115585389D01*
X129029358Y-115424682D01*
X129119543Y-115247685D01*
X129180925Y-115058767D01*
X129188134Y-115013250D01*
X128077686Y-115013250D01*
X128082080Y-115008856D01*
X128134741Y-114917644D01*
X128162000Y-114815911D01*
X128162000Y-114710589D01*
X128150708Y-114668447D01*
X152011500Y-114668447D01*
X152011500Y-114858052D01*
X152048486Y-115043993D01*
X152048488Y-115044001D01*
X152121042Y-115219162D01*
X152226377Y-115376808D01*
X152360441Y-115510872D01*
X152465300Y-115580936D01*
X152518085Y-115616206D01*
X152693249Y-115688762D01*
X152879197Y-115725749D01*
X152879201Y-115725750D01*
X152879202Y-115725750D01*
X153444799Y-115725750D01*
X153444800Y-115725749D01*
X153630751Y-115688762D01*
X153805915Y-115616206D01*
X153963558Y-115510872D01*
X154097622Y-115376808D01*
X154202956Y-115219165D01*
X154275512Y-115044001D01*
X154312500Y-114858048D01*
X154312500Y-114668452D01*
X154275512Y-114482499D01*
X154202956Y-114307335D01*
X154167686Y-114254550D01*
X154097622Y-114149691D01*
X153963558Y-114015627D01*
X153805912Y-113910292D01*
X153630751Y-113837738D01*
X153630743Y-113837736D01*
X153444802Y-113800750D01*
X153444798Y-113800750D01*
X152879202Y-113800750D01*
X152879197Y-113800750D01*
X152693256Y-113837736D01*
X152693248Y-113837738D01*
X152518087Y-113910292D01*
X152360441Y-114015627D01*
X152226377Y-114149691D01*
X152121042Y-114307337D01*
X152048488Y-114482498D01*
X152048486Y-114482506D01*
X152011500Y-114668447D01*
X128150708Y-114668447D01*
X128134741Y-114608856D01*
X128082080Y-114517644D01*
X128077686Y-114513250D01*
X129188135Y-114513250D01*
X129188134Y-114513249D01*
X129180925Y-114467732D01*
X129119543Y-114278814D01*
X129029358Y-114101817D01*
X128912596Y-113941110D01*
X128912596Y-113941109D01*
X128772140Y-113800653D01*
X128611432Y-113683891D01*
X128434437Y-113593707D01*
X128245522Y-113532325D01*
X128049321Y-113501250D01*
X128012000Y-113501250D01*
X128012000Y-114447564D01*
X128007606Y-114443170D01*
X127916394Y-114390509D01*
X127814661Y-114363250D01*
X127709339Y-114363250D01*
X127607606Y-114390509D01*
X127516394Y-114443170D01*
X127512000Y-114447564D01*
X127512000Y-113501250D01*
X127474679Y-113501250D01*
X127278479Y-113532325D01*
X127278476Y-113532325D01*
X127089562Y-113593707D01*
X126912567Y-113683891D01*
X126751860Y-113800653D01*
X126751859Y-113800653D01*
X126611403Y-113941109D01*
X126611403Y-113941110D01*
X126494641Y-114101817D01*
X126404456Y-114278814D01*
X126343074Y-114467732D01*
X126335865Y-114513249D01*
X113635177Y-114513249D01*
X113572150Y-114427850D01*
X113462882Y-114347207D01*
X113462880Y-114347206D01*
X113334700Y-114302353D01*
X113304270Y-114299500D01*
X113304266Y-114299500D01*
X111695734Y-114299500D01*
X111695730Y-114299500D01*
X111665300Y-114302353D01*
X111665298Y-114302353D01*
X111537119Y-114347206D01*
X111537117Y-114347207D01*
X111427850Y-114427850D01*
X111347207Y-114537117D01*
X111347206Y-114537119D01*
X111302353Y-114665298D01*
X111302353Y-114665300D01*
X111299500Y-114695730D01*
X102500500Y-114695730D01*
X102500500Y-112128447D01*
X126611500Y-112128447D01*
X126611500Y-112318052D01*
X126648486Y-112503993D01*
X126648488Y-112504001D01*
X126721042Y-112679162D01*
X126826377Y-112836808D01*
X126960441Y-112970872D01*
X127065300Y-113040936D01*
X127118085Y-113076206D01*
X127293249Y-113148762D01*
X127479197Y-113185749D01*
X127479201Y-113185750D01*
X127479202Y-113185750D01*
X128044799Y-113185750D01*
X128044800Y-113185749D01*
X128230751Y-113148762D01*
X128405915Y-113076206D01*
X128563558Y-112970872D01*
X128697622Y-112836808D01*
X128802956Y-112679165D01*
X128875512Y-112504001D01*
X128912500Y-112318048D01*
X128912500Y-112128452D01*
X128912499Y-112128447D01*
X152011500Y-112128447D01*
X152011500Y-112318052D01*
X152048486Y-112503993D01*
X152048488Y-112504001D01*
X152121042Y-112679162D01*
X152226377Y-112836808D01*
X152360441Y-112970872D01*
X152465300Y-113040936D01*
X152518085Y-113076206D01*
X152693249Y-113148762D01*
X152879197Y-113185749D01*
X152879201Y-113185750D01*
X152879202Y-113185750D01*
X153444799Y-113185750D01*
X153444800Y-113185749D01*
X153630751Y-113148762D01*
X153805915Y-113076206D01*
X153963558Y-112970872D01*
X154097622Y-112836808D01*
X154202956Y-112679165D01*
X154275512Y-112504001D01*
X154312500Y-112318048D01*
X154312500Y-112128452D01*
X154275512Y-111942499D01*
X154202956Y-111767335D01*
X154167686Y-111714550D01*
X154097622Y-111609691D01*
X153963558Y-111475627D01*
X153805912Y-111370292D01*
X153630751Y-111297738D01*
X153630743Y-111297736D01*
X153444802Y-111260750D01*
X153444798Y-111260750D01*
X152879202Y-111260750D01*
X152879197Y-111260750D01*
X152693256Y-111297736D01*
X152693248Y-111297738D01*
X152518087Y-111370292D01*
X152360441Y-111475627D01*
X152226377Y-111609691D01*
X152121042Y-111767337D01*
X152048488Y-111942498D01*
X152048486Y-111942506D01*
X152011500Y-112128447D01*
X128912499Y-112128447D01*
X128875512Y-111942499D01*
X128802956Y-111767335D01*
X128767686Y-111714550D01*
X128697622Y-111609691D01*
X128563558Y-111475627D01*
X128405912Y-111370292D01*
X128230751Y-111297738D01*
X128230743Y-111297736D01*
X128044802Y-111260750D01*
X128044798Y-111260750D01*
X127479202Y-111260750D01*
X127479197Y-111260750D01*
X127293256Y-111297736D01*
X127293248Y-111297738D01*
X127118087Y-111370292D01*
X126960441Y-111475627D01*
X126826377Y-111609691D01*
X126721042Y-111767337D01*
X126648488Y-111942498D01*
X126648486Y-111942506D01*
X126611500Y-112128447D01*
X102500500Y-112128447D01*
X102500500Y-109588447D01*
X126611500Y-109588447D01*
X126611500Y-109778052D01*
X126648486Y-109963993D01*
X126648488Y-109964001D01*
X126721042Y-110139162D01*
X126826377Y-110296808D01*
X126960441Y-110430872D01*
X127065300Y-110500936D01*
X127118085Y-110536206D01*
X127293249Y-110608762D01*
X127479197Y-110645749D01*
X127479201Y-110645750D01*
X127479202Y-110645750D01*
X128044799Y-110645750D01*
X128044800Y-110645749D01*
X128230751Y-110608762D01*
X128405915Y-110536206D01*
X128563558Y-110430872D01*
X128697622Y-110296808D01*
X128802956Y-110139165D01*
X128875512Y-109964001D01*
X128912500Y-109778048D01*
X128912500Y-109588452D01*
X128912499Y-109588447D01*
X152011500Y-109588447D01*
X152011500Y-109778052D01*
X152048486Y-109963993D01*
X152048488Y-109964001D01*
X152121042Y-110139162D01*
X152226377Y-110296808D01*
X152360441Y-110430872D01*
X152465300Y-110500936D01*
X152518085Y-110536206D01*
X152693249Y-110608762D01*
X152879197Y-110645749D01*
X152879201Y-110645750D01*
X152879202Y-110645750D01*
X153444799Y-110645750D01*
X153444800Y-110645749D01*
X153630751Y-110608762D01*
X153805915Y-110536206D01*
X153963558Y-110430872D01*
X154097622Y-110296808D01*
X154202956Y-110139165D01*
X154275512Y-109964001D01*
X154312500Y-109778048D01*
X154312500Y-109588452D01*
X154275512Y-109402499D01*
X154202956Y-109227335D01*
X154130734Y-109119247D01*
X154097622Y-109069691D01*
X153963558Y-108935627D01*
X153805912Y-108830292D01*
X153630751Y-108757738D01*
X153630743Y-108757736D01*
X153444802Y-108720750D01*
X153444798Y-108720750D01*
X152879202Y-108720750D01*
X152879197Y-108720750D01*
X152693256Y-108757736D01*
X152693248Y-108757738D01*
X152518087Y-108830292D01*
X152360441Y-108935627D01*
X152226377Y-109069691D01*
X152121042Y-109227337D01*
X152048488Y-109402498D01*
X152048486Y-109402506D01*
X152011500Y-109588447D01*
X128912499Y-109588447D01*
X128875512Y-109402499D01*
X128802956Y-109227335D01*
X128730734Y-109119247D01*
X128697622Y-109069691D01*
X128563558Y-108935627D01*
X128405912Y-108830292D01*
X128230751Y-108757738D01*
X128230743Y-108757736D01*
X128044802Y-108720750D01*
X128044798Y-108720750D01*
X127479202Y-108720750D01*
X127479197Y-108720750D01*
X127293256Y-108757736D01*
X127293248Y-108757738D01*
X127118087Y-108830292D01*
X126960441Y-108935627D01*
X126826377Y-109069691D01*
X126721042Y-109227337D01*
X126648488Y-109402498D01*
X126648486Y-109402506D01*
X126611500Y-109588447D01*
X102500500Y-109588447D01*
X102500500Y-107048447D01*
X126611500Y-107048447D01*
X126611500Y-107238052D01*
X126648486Y-107423993D01*
X126648488Y-107424001D01*
X126721042Y-107599162D01*
X126826377Y-107756808D01*
X126960441Y-107890872D01*
X127065300Y-107960936D01*
X127118085Y-107996206D01*
X127293249Y-108068762D01*
X127479197Y-108105749D01*
X127479201Y-108105750D01*
X127479202Y-108105750D01*
X128044799Y-108105750D01*
X128044800Y-108105749D01*
X128230751Y-108068762D01*
X128405915Y-107996206D01*
X128563558Y-107890872D01*
X128697622Y-107756808D01*
X128802956Y-107599165D01*
X128875512Y-107424001D01*
X128912500Y-107238048D01*
X128912500Y-107048452D01*
X128912499Y-107048447D01*
X152011500Y-107048447D01*
X152011500Y-107238052D01*
X152048486Y-107423993D01*
X152048488Y-107424001D01*
X152121042Y-107599162D01*
X152226377Y-107756808D01*
X152360441Y-107890872D01*
X152465300Y-107960936D01*
X152518085Y-107996206D01*
X152693249Y-108068762D01*
X152879197Y-108105749D01*
X152879201Y-108105750D01*
X152879202Y-108105750D01*
X153444799Y-108105750D01*
X153444800Y-108105749D01*
X153630751Y-108068762D01*
X153805915Y-107996206D01*
X153963558Y-107890872D01*
X154097622Y-107756808D01*
X154202956Y-107599165D01*
X154275512Y-107424001D01*
X154312500Y-107238048D01*
X154312500Y-107048452D01*
X154275512Y-106862499D01*
X154202956Y-106687335D01*
X154167686Y-106634550D01*
X154097622Y-106529691D01*
X153963558Y-106395627D01*
X153805912Y-106290292D01*
X153630751Y-106217738D01*
X153630743Y-106217736D01*
X153444802Y-106180750D01*
X153444798Y-106180750D01*
X152879202Y-106180750D01*
X152879197Y-106180750D01*
X152693256Y-106217736D01*
X152693248Y-106217738D01*
X152518087Y-106290292D01*
X152360441Y-106395627D01*
X152226377Y-106529691D01*
X152121042Y-106687337D01*
X152048488Y-106862498D01*
X152048486Y-106862506D01*
X152011500Y-107048447D01*
X128912499Y-107048447D01*
X128875512Y-106862499D01*
X128802956Y-106687335D01*
X128767686Y-106634550D01*
X128697622Y-106529691D01*
X128563558Y-106395627D01*
X128405912Y-106290292D01*
X128230751Y-106217738D01*
X128230743Y-106217736D01*
X128044802Y-106180750D01*
X128044798Y-106180750D01*
X127479202Y-106180750D01*
X127479197Y-106180750D01*
X127293256Y-106217736D01*
X127293248Y-106217738D01*
X127118087Y-106290292D01*
X126960441Y-106395627D01*
X126826377Y-106529691D01*
X126721042Y-106687337D01*
X126648488Y-106862498D01*
X126648486Y-106862506D01*
X126611500Y-107048447D01*
X102500500Y-107048447D01*
X102500500Y-104678543D01*
X105999499Y-104678543D01*
X106037947Y-104871829D01*
X106037950Y-104871839D01*
X106113364Y-105053907D01*
X106113371Y-105053920D01*
X106222860Y-105217781D01*
X106222863Y-105217785D01*
X106362214Y-105357136D01*
X106362218Y-105357139D01*
X106526079Y-105466628D01*
X106526092Y-105466635D01*
X106708160Y-105542049D01*
X106708165Y-105542051D01*
X106708169Y-105542051D01*
X106708170Y-105542052D01*
X106901456Y-105580500D01*
X106901459Y-105580500D01*
X107098543Y-105580500D01*
X107228582Y-105554632D01*
X107291835Y-105542051D01*
X107473914Y-105466632D01*
X107637782Y-105357139D01*
X107777139Y-105217782D01*
X107886632Y-105053914D01*
X107962051Y-104871835D01*
X108000500Y-104678543D01*
X114999499Y-104678543D01*
X115037947Y-104871829D01*
X115037950Y-104871839D01*
X115113364Y-105053907D01*
X115113371Y-105053920D01*
X115222860Y-105217781D01*
X115222863Y-105217785D01*
X115362214Y-105357136D01*
X115362218Y-105357139D01*
X115526079Y-105466628D01*
X115526092Y-105466635D01*
X115708160Y-105542049D01*
X115708165Y-105542051D01*
X115708169Y-105542051D01*
X115708170Y-105542052D01*
X115901456Y-105580500D01*
X115901459Y-105580500D01*
X116098543Y-105580500D01*
X116228582Y-105554632D01*
X116291835Y-105542051D01*
X116473914Y-105466632D01*
X116637782Y-105357139D01*
X116777139Y-105217782D01*
X116886632Y-105053914D01*
X116962051Y-104871835D01*
X117000500Y-104678541D01*
X117000500Y-104508447D01*
X126611500Y-104508447D01*
X126611500Y-104698052D01*
X126648486Y-104883993D01*
X126648488Y-104884001D01*
X126721042Y-105059162D01*
X126826377Y-105216808D01*
X126960441Y-105350872D01*
X126990221Y-105370770D01*
X127118085Y-105456206D01*
X127118086Y-105456206D01*
X127118087Y-105456207D01*
X127157766Y-105472642D01*
X127293249Y-105528762D01*
X127479197Y-105565749D01*
X127479201Y-105565750D01*
X127479202Y-105565750D01*
X128044799Y-105565750D01*
X128044800Y-105565749D01*
X128230751Y-105528762D01*
X128405915Y-105456206D01*
X128563558Y-105350872D01*
X128697622Y-105216808D01*
X128802956Y-105059165D01*
X128875512Y-104884001D01*
X128912500Y-104698048D01*
X128912500Y-104508452D01*
X128912499Y-104508447D01*
X152011500Y-104508447D01*
X152011500Y-104698052D01*
X152048486Y-104883993D01*
X152048488Y-104884001D01*
X152121042Y-105059162D01*
X152226377Y-105216808D01*
X152360441Y-105350872D01*
X152390221Y-105370770D01*
X152518085Y-105456206D01*
X152518086Y-105456206D01*
X152518087Y-105456207D01*
X152557766Y-105472642D01*
X152693249Y-105528762D01*
X152879197Y-105565749D01*
X152879201Y-105565750D01*
X152879202Y-105565750D01*
X153444799Y-105565750D01*
X153444800Y-105565749D01*
X153630751Y-105528762D01*
X153805915Y-105456206D01*
X153963558Y-105350872D01*
X154097622Y-105216808D01*
X154202956Y-105059165D01*
X154275512Y-104884001D01*
X154312500Y-104698048D01*
X154312500Y-104508452D01*
X154275512Y-104322499D01*
X154202956Y-104147335D01*
X154138841Y-104051380D01*
X154097622Y-103989691D01*
X153963558Y-103855627D01*
X153805912Y-103750292D01*
X153630751Y-103677738D01*
X153630743Y-103677736D01*
X153444802Y-103640750D01*
X153444798Y-103640750D01*
X152879202Y-103640750D01*
X152879197Y-103640750D01*
X152693256Y-103677736D01*
X152693248Y-103677738D01*
X152518087Y-103750292D01*
X152360441Y-103855627D01*
X152226377Y-103989691D01*
X152121042Y-104147337D01*
X152048488Y-104322498D01*
X152048486Y-104322506D01*
X152011500Y-104508447D01*
X128912499Y-104508447D01*
X128875512Y-104322499D01*
X128802956Y-104147335D01*
X128795376Y-104135990D01*
X128774499Y-104069316D01*
X128792983Y-104001936D01*
X128810794Y-103979425D01*
X131867152Y-100923069D01*
X131928475Y-100889584D01*
X131954833Y-100886750D01*
X152696058Y-100886750D01*
X152763097Y-100906435D01*
X152808852Y-100959239D01*
X152818796Y-101028397D01*
X152789771Y-101091953D01*
X152730993Y-101129727D01*
X152720249Y-101132367D01*
X152693256Y-101137736D01*
X152693248Y-101137738D01*
X152518087Y-101210292D01*
X152360441Y-101315627D01*
X152226377Y-101449691D01*
X152121042Y-101607337D01*
X152048488Y-101782498D01*
X152048486Y-101782506D01*
X152011500Y-101968447D01*
X152011500Y-102158052D01*
X152048486Y-102343993D01*
X152048488Y-102344001D01*
X152121042Y-102519162D01*
X152226377Y-102676808D01*
X152360441Y-102810872D01*
X152465300Y-102880936D01*
X152518085Y-102916206D01*
X152693249Y-102988762D01*
X152879197Y-103025749D01*
X152879201Y-103025750D01*
X152879202Y-103025750D01*
X153444799Y-103025750D01*
X153444800Y-103025749D01*
X153630751Y-102988762D01*
X153805915Y-102916206D01*
X153963558Y-102810872D01*
X154097622Y-102676808D01*
X154202956Y-102519165D01*
X154275512Y-102344001D01*
X154312500Y-102158048D01*
X154312500Y-101968452D01*
X154275512Y-101782499D01*
X154202956Y-101607335D01*
X154167686Y-101554550D01*
X154097622Y-101449691D01*
X153963558Y-101315627D01*
X153805912Y-101210292D01*
X153630751Y-101137738D01*
X153630743Y-101137736D01*
X153603751Y-101132367D01*
X153541840Y-101099983D01*
X153507266Y-101039267D01*
X153511005Y-100969498D01*
X153551871Y-100912825D01*
X153616889Y-100887244D01*
X153627942Y-100886750D01*
X157011560Y-100886750D01*
X157011562Y-100886750D01*
X157087989Y-100866271D01*
X157156511Y-100826710D01*
X157212460Y-100770761D01*
X165340460Y-92642761D01*
X165380021Y-92574239D01*
X165400500Y-92497812D01*
X165400500Y-92124500D01*
X165420185Y-92057461D01*
X165472989Y-92011706D01*
X165524500Y-92000500D01*
X165969750Y-92000500D01*
X165969751Y-92000499D01*
X165984568Y-91997552D01*
X166028229Y-91988868D01*
X166028229Y-91988867D01*
X166028231Y-91988867D01*
X166094552Y-91944552D01*
X166138867Y-91878231D01*
X166138867Y-91878229D01*
X166138868Y-91878229D01*
X166150499Y-91819752D01*
X166150500Y-91819750D01*
X166150500Y-90080249D01*
X166150499Y-90080247D01*
X166138868Y-90021770D01*
X166138867Y-90021769D01*
X166094552Y-89955447D01*
X166028230Y-89911132D01*
X166028229Y-89911131D01*
X165969752Y-89899500D01*
X165969748Y-89899500D01*
X164230252Y-89899500D01*
X164230247Y-89899500D01*
X164171770Y-89911131D01*
X164171769Y-89911132D01*
X164105447Y-89955447D01*
X164061132Y-90021769D01*
X164061131Y-90021770D01*
X164049500Y-90080247D01*
X164049500Y-91819752D01*
X164061131Y-91878229D01*
X164061132Y-91878230D01*
X164105447Y-91944552D01*
X164171769Y-91988867D01*
X164171770Y-91988868D01*
X164230247Y-92000499D01*
X164230250Y-92000500D01*
X164230252Y-92000500D01*
X164675500Y-92000500D01*
X164684185Y-92003050D01*
X164693147Y-92001762D01*
X164717187Y-92012740D01*
X164742539Y-92020185D01*
X164748466Y-92027025D01*
X164756703Y-92030787D01*
X164770992Y-92053021D01*
X164788294Y-92072989D01*
X164790581Y-92083503D01*
X164794477Y-92089565D01*
X164799500Y-92124500D01*
X164799500Y-92282417D01*
X164779815Y-92349456D01*
X164763181Y-92370098D01*
X156883848Y-100249431D01*
X156822525Y-100282916D01*
X156796167Y-100285750D01*
X154230090Y-100285750D01*
X154163051Y-100266065D01*
X154117296Y-100213261D01*
X154107352Y-100144103D01*
X154126988Y-100092859D01*
X154135647Y-100079899D01*
X154202956Y-99979165D01*
X154275512Y-99804001D01*
X154312500Y-99618048D01*
X154312500Y-99428452D01*
X154275512Y-99242499D01*
X154202956Y-99067335D01*
X154167686Y-99014550D01*
X154097622Y-98909691D01*
X153963558Y-98775627D01*
X153805912Y-98670292D01*
X153630751Y-98597738D01*
X153630743Y-98597736D01*
X153444802Y-98560750D01*
X153444798Y-98560750D01*
X152879202Y-98560750D01*
X152879197Y-98560750D01*
X152693256Y-98597736D01*
X152693248Y-98597738D01*
X152518087Y-98670292D01*
X152360441Y-98775627D01*
X152226377Y-98909691D01*
X152121042Y-99067337D01*
X152048488Y-99242498D01*
X152048486Y-99242506D01*
X152011500Y-99428447D01*
X152011500Y-99618052D01*
X152048486Y-99803993D01*
X152048488Y-99804001D01*
X152121042Y-99979162D01*
X152197012Y-100092859D01*
X152217890Y-100159537D01*
X152199405Y-100226917D01*
X152147426Y-100273607D01*
X152093910Y-100285750D01*
X131739438Y-100285750D01*
X131701224Y-100295989D01*
X131663009Y-100306229D01*
X131663004Y-100306232D01*
X131594495Y-100345785D01*
X131594487Y-100345791D01*
X128304132Y-103636145D01*
X128242809Y-103669630D01*
X128192260Y-103670081D01*
X128044802Y-103640750D01*
X128044798Y-103640750D01*
X127479202Y-103640750D01*
X127479197Y-103640750D01*
X127293256Y-103677736D01*
X127293248Y-103677738D01*
X127118087Y-103750292D01*
X126960441Y-103855627D01*
X126826377Y-103989691D01*
X126721042Y-104147337D01*
X126648488Y-104322498D01*
X126648486Y-104322506D01*
X126611500Y-104508447D01*
X117000500Y-104508447D01*
X117000500Y-104481459D01*
X117000500Y-104481456D01*
X116962052Y-104288170D01*
X116962051Y-104288169D01*
X116962051Y-104288165D01*
X116962049Y-104288160D01*
X116886635Y-104106092D01*
X116886628Y-104106079D01*
X116777139Y-103942218D01*
X116777136Y-103942214D01*
X116637785Y-103802863D01*
X116637781Y-103802860D01*
X116473920Y-103693371D01*
X116473907Y-103693364D01*
X116291839Y-103617950D01*
X116291829Y-103617947D01*
X116098543Y-103579500D01*
X116098541Y-103579500D01*
X115901459Y-103579500D01*
X115901457Y-103579500D01*
X115708170Y-103617947D01*
X115708160Y-103617950D01*
X115526092Y-103693364D01*
X115526079Y-103693371D01*
X115362218Y-103802860D01*
X115362214Y-103802863D01*
X115222863Y-103942214D01*
X115222860Y-103942218D01*
X115113371Y-104106079D01*
X115113364Y-104106092D01*
X115037950Y-104288160D01*
X115037947Y-104288170D01*
X114999500Y-104481456D01*
X114999500Y-104481459D01*
X114999500Y-104678541D01*
X114999500Y-104678543D01*
X114999499Y-104678543D01*
X108000500Y-104678543D01*
X108000500Y-104678541D01*
X108000500Y-104481459D01*
X108000500Y-104481456D01*
X107962052Y-104288170D01*
X107962051Y-104288169D01*
X107962051Y-104288165D01*
X107962049Y-104288160D01*
X107886635Y-104106092D01*
X107886628Y-104106079D01*
X107777139Y-103942218D01*
X107777136Y-103942214D01*
X107637785Y-103802863D01*
X107637781Y-103802860D01*
X107473920Y-103693371D01*
X107473907Y-103693364D01*
X107291839Y-103617950D01*
X107291829Y-103617947D01*
X107098543Y-103579500D01*
X107098541Y-103579500D01*
X106901459Y-103579500D01*
X106901457Y-103579500D01*
X106708170Y-103617947D01*
X106708160Y-103617950D01*
X106526092Y-103693364D01*
X106526079Y-103693371D01*
X106362218Y-103802860D01*
X106362214Y-103802863D01*
X106222863Y-103942214D01*
X106222860Y-103942218D01*
X106113371Y-104106079D01*
X106113364Y-104106092D01*
X106037950Y-104288160D01*
X106037947Y-104288170D01*
X105999500Y-104481456D01*
X105999500Y-104481459D01*
X105999500Y-104678541D01*
X105999500Y-104678543D01*
X105999499Y-104678543D01*
X102500500Y-104678543D01*
X102500500Y-101968447D01*
X126611500Y-101968447D01*
X126611500Y-102158052D01*
X126648486Y-102343993D01*
X126648488Y-102344001D01*
X126721042Y-102519162D01*
X126826377Y-102676808D01*
X126960441Y-102810872D01*
X127065300Y-102880936D01*
X127118085Y-102916206D01*
X127293249Y-102988762D01*
X127479197Y-103025749D01*
X127479201Y-103025750D01*
X127479202Y-103025750D01*
X128044799Y-103025750D01*
X128044800Y-103025749D01*
X128230751Y-102988762D01*
X128405915Y-102916206D01*
X128563558Y-102810872D01*
X128697622Y-102676808D01*
X128802956Y-102519165D01*
X128875512Y-102344001D01*
X128912500Y-102158048D01*
X128912500Y-101968452D01*
X128875512Y-101782499D01*
X128802956Y-101607335D01*
X128767686Y-101554550D01*
X128697622Y-101449691D01*
X128563558Y-101315627D01*
X128405912Y-101210292D01*
X128230751Y-101137738D01*
X128230743Y-101137736D01*
X128044802Y-101100750D01*
X128044798Y-101100750D01*
X127479202Y-101100750D01*
X127479197Y-101100750D01*
X127293256Y-101137736D01*
X127293248Y-101137738D01*
X127118087Y-101210292D01*
X126960441Y-101315627D01*
X126826377Y-101449691D01*
X126721042Y-101607337D01*
X126648488Y-101782498D01*
X126648486Y-101782506D01*
X126611500Y-101968447D01*
X102500500Y-101968447D01*
X102500500Y-99428447D01*
X126611500Y-99428447D01*
X126611500Y-99618052D01*
X126648486Y-99803993D01*
X126648488Y-99804001D01*
X126721042Y-99979162D01*
X126826377Y-100136808D01*
X126960441Y-100270872D01*
X127065300Y-100340936D01*
X127118085Y-100376206D01*
X127293249Y-100448762D01*
X127479197Y-100485749D01*
X127479201Y-100485750D01*
X127479202Y-100485750D01*
X128044799Y-100485750D01*
X128044800Y-100485749D01*
X128230751Y-100448762D01*
X128405915Y-100376206D01*
X128563558Y-100270872D01*
X128697622Y-100136808D01*
X128802956Y-99979165D01*
X128875512Y-99804001D01*
X128912500Y-99618048D01*
X128912500Y-99428452D01*
X128875512Y-99242499D01*
X128802956Y-99067335D01*
X128767686Y-99014550D01*
X128697622Y-98909691D01*
X128563558Y-98775627D01*
X128405912Y-98670292D01*
X128230751Y-98597738D01*
X128230743Y-98597736D01*
X128044802Y-98560750D01*
X128044798Y-98560750D01*
X127479202Y-98560750D01*
X127479197Y-98560750D01*
X127293256Y-98597736D01*
X127293248Y-98597738D01*
X127118087Y-98670292D01*
X126960441Y-98775627D01*
X126826377Y-98909691D01*
X126721042Y-99067337D01*
X126648488Y-99242498D01*
X126648486Y-99242506D01*
X126611500Y-99428447D01*
X102500500Y-99428447D01*
X102500500Y-96888447D01*
X126611500Y-96888447D01*
X126611500Y-97078052D01*
X126648486Y-97263993D01*
X126648488Y-97264001D01*
X126721042Y-97439162D01*
X126826377Y-97596808D01*
X126960441Y-97730872D01*
X127065300Y-97800936D01*
X127118085Y-97836206D01*
X127293249Y-97908762D01*
X127479197Y-97945749D01*
X127479201Y-97945750D01*
X127479202Y-97945750D01*
X128044799Y-97945750D01*
X128044800Y-97945749D01*
X128230751Y-97908762D01*
X128405915Y-97836206D01*
X128563558Y-97730872D01*
X128697622Y-97596808D01*
X128802956Y-97439165D01*
X128875512Y-97264001D01*
X128912500Y-97078048D01*
X128912500Y-96888452D01*
X128912499Y-96888447D01*
X152011500Y-96888447D01*
X152011500Y-97078052D01*
X152048486Y-97263993D01*
X152048488Y-97264001D01*
X152121042Y-97439162D01*
X152226377Y-97596808D01*
X152360441Y-97730872D01*
X152465300Y-97800936D01*
X152518085Y-97836206D01*
X152693249Y-97908762D01*
X152879197Y-97945749D01*
X152879201Y-97945750D01*
X152879202Y-97945750D01*
X153444799Y-97945750D01*
X153444800Y-97945749D01*
X153630751Y-97908762D01*
X153805915Y-97836206D01*
X153963558Y-97730872D01*
X154097622Y-97596808D01*
X154202956Y-97439165D01*
X154275512Y-97264001D01*
X154312500Y-97078048D01*
X154312500Y-96888452D01*
X154275512Y-96702499D01*
X154202956Y-96527335D01*
X154138841Y-96431380D01*
X154097622Y-96369691D01*
X153963558Y-96235627D01*
X153805912Y-96130292D01*
X153630751Y-96057738D01*
X153630743Y-96057736D01*
X153444802Y-96020750D01*
X153444798Y-96020750D01*
X152879202Y-96020750D01*
X152879197Y-96020750D01*
X152693256Y-96057736D01*
X152693248Y-96057738D01*
X152518087Y-96130292D01*
X152360441Y-96235627D01*
X152226377Y-96369691D01*
X152121042Y-96527337D01*
X152048488Y-96702498D01*
X152048486Y-96702506D01*
X152011500Y-96888447D01*
X128912499Y-96888447D01*
X128875512Y-96702499D01*
X128802956Y-96527335D01*
X128795376Y-96515990D01*
X128774499Y-96449316D01*
X128792983Y-96381936D01*
X128810794Y-96359425D01*
X131453152Y-93717069D01*
X131514475Y-93683584D01*
X131540833Y-93680750D01*
X152093910Y-93680750D01*
X152160949Y-93700435D01*
X152206704Y-93753239D01*
X152216648Y-93822397D01*
X152197012Y-93873641D01*
X152121042Y-93987337D01*
X152048488Y-94162498D01*
X152048486Y-94162506D01*
X152011500Y-94348447D01*
X152011500Y-94538052D01*
X152048486Y-94723993D01*
X152048488Y-94724001D01*
X152121042Y-94899162D01*
X152226377Y-95056808D01*
X152360441Y-95190872D01*
X152390221Y-95210770D01*
X152518085Y-95296206D01*
X152518086Y-95296206D01*
X152518087Y-95296207D01*
X152557766Y-95312642D01*
X152693249Y-95368762D01*
X152879197Y-95405749D01*
X152879201Y-95405750D01*
X152879202Y-95405750D01*
X153444799Y-95405750D01*
X153444800Y-95405749D01*
X153630751Y-95368762D01*
X153805915Y-95296206D01*
X153963558Y-95190872D01*
X154097622Y-95056808D01*
X154202956Y-94899165D01*
X154275512Y-94724001D01*
X154312500Y-94538048D01*
X154312500Y-94348452D01*
X154275512Y-94162499D01*
X154202956Y-93987335D01*
X154126988Y-93873641D01*
X154106110Y-93806963D01*
X154124595Y-93739583D01*
X154176574Y-93692893D01*
X154230090Y-93680750D01*
X158246310Y-93680750D01*
X158246312Y-93680750D01*
X158322739Y-93660271D01*
X158391261Y-93620710D01*
X158447210Y-93564761D01*
X164425152Y-87586819D01*
X164486475Y-87553334D01*
X164512833Y-87550500D01*
X165869750Y-87550500D01*
X165869751Y-87550499D01*
X165884568Y-87547552D01*
X165928229Y-87538868D01*
X165928229Y-87538867D01*
X165928231Y-87538867D01*
X165994552Y-87494552D01*
X166038867Y-87428231D01*
X166038867Y-87428229D01*
X166038868Y-87428229D01*
X166050499Y-87369752D01*
X166050500Y-87369750D01*
X166050500Y-85630249D01*
X166050499Y-85630247D01*
X166038868Y-85571770D01*
X166038867Y-85571769D01*
X165994552Y-85505447D01*
X165928230Y-85461132D01*
X165928229Y-85461131D01*
X165869752Y-85449500D01*
X165869748Y-85449500D01*
X164130252Y-85449500D01*
X164130247Y-85449500D01*
X164071770Y-85461131D01*
X164071769Y-85461132D01*
X164005447Y-85505447D01*
X163961132Y-85571769D01*
X163961131Y-85571770D01*
X163949500Y-85630247D01*
X163949500Y-87161167D01*
X163929815Y-87228206D01*
X163913181Y-87248848D01*
X158118598Y-93043431D01*
X158057275Y-93076916D01*
X158030917Y-93079750D01*
X153627942Y-93079750D01*
X153560903Y-93060065D01*
X153515148Y-93007261D01*
X153505204Y-92938103D01*
X153534229Y-92874547D01*
X153593007Y-92836773D01*
X153603751Y-92834133D01*
X153614915Y-92831911D01*
X153630751Y-92828762D01*
X153805915Y-92756206D01*
X153963558Y-92650872D01*
X154097622Y-92516808D01*
X154202956Y-92359165D01*
X154275512Y-92184001D01*
X154312500Y-91998048D01*
X154312500Y-91808452D01*
X154275512Y-91622499D01*
X154202956Y-91447335D01*
X154162393Y-91386628D01*
X154097622Y-91289691D01*
X153963558Y-91155627D01*
X153805912Y-91050292D01*
X153630751Y-90977738D01*
X153630743Y-90977736D01*
X153444802Y-90940750D01*
X153444798Y-90940750D01*
X152879202Y-90940750D01*
X152879197Y-90940750D01*
X152693256Y-90977736D01*
X152693248Y-90977738D01*
X152518087Y-91050292D01*
X152360441Y-91155627D01*
X152226377Y-91289691D01*
X152121042Y-91447337D01*
X152048488Y-91622498D01*
X152048486Y-91622506D01*
X152011500Y-91808447D01*
X152011500Y-91998052D01*
X152048486Y-92183993D01*
X152048488Y-92184001D01*
X152121042Y-92359162D01*
X152226377Y-92516808D01*
X152360441Y-92650872D01*
X152465300Y-92720936D01*
X152518085Y-92756206D01*
X152693249Y-92828762D01*
X152706340Y-92831365D01*
X152720249Y-92834133D01*
X152782160Y-92866517D01*
X152816734Y-92927233D01*
X152812995Y-92997002D01*
X152772129Y-93053675D01*
X152707111Y-93079256D01*
X152696058Y-93079750D01*
X131325438Y-93079750D01*
X131287224Y-93089989D01*
X131249009Y-93100229D01*
X131249004Y-93100232D01*
X131180495Y-93139785D01*
X131180487Y-93139791D01*
X128304132Y-96016145D01*
X128242809Y-96049630D01*
X128192260Y-96050081D01*
X128044802Y-96020750D01*
X128044798Y-96020750D01*
X127479202Y-96020750D01*
X127479197Y-96020750D01*
X127293256Y-96057736D01*
X127293248Y-96057738D01*
X127118087Y-96130292D01*
X126960441Y-96235627D01*
X126826377Y-96369691D01*
X126721042Y-96527337D01*
X126648488Y-96702498D01*
X126648486Y-96702506D01*
X126611500Y-96888447D01*
X102500500Y-96888447D01*
X102500500Y-94518543D01*
X105999499Y-94518543D01*
X106037947Y-94711829D01*
X106037950Y-94711839D01*
X106113364Y-94893907D01*
X106113371Y-94893920D01*
X106222860Y-95057781D01*
X106222863Y-95057785D01*
X106362214Y-95197136D01*
X106362218Y-95197139D01*
X106526079Y-95306628D01*
X106526092Y-95306635D01*
X106708160Y-95382049D01*
X106708165Y-95382051D01*
X106708169Y-95382051D01*
X106708170Y-95382052D01*
X106901456Y-95420500D01*
X106901459Y-95420500D01*
X107098543Y-95420500D01*
X107228582Y-95394632D01*
X107291835Y-95382051D01*
X107473914Y-95306632D01*
X107637782Y-95197139D01*
X107777139Y-95057782D01*
X107886632Y-94893914D01*
X107962051Y-94711835D01*
X108000500Y-94518543D01*
X114999499Y-94518543D01*
X115037947Y-94711829D01*
X115037950Y-94711839D01*
X115113364Y-94893907D01*
X115113371Y-94893920D01*
X115222860Y-95057781D01*
X115222863Y-95057785D01*
X115362214Y-95197136D01*
X115362218Y-95197139D01*
X115526079Y-95306628D01*
X115526092Y-95306635D01*
X115708160Y-95382049D01*
X115708165Y-95382051D01*
X115708169Y-95382051D01*
X115708170Y-95382052D01*
X115901456Y-95420500D01*
X115901459Y-95420500D01*
X116098543Y-95420500D01*
X116228582Y-95394632D01*
X116291835Y-95382051D01*
X116473914Y-95306632D01*
X116637782Y-95197139D01*
X116777139Y-95057782D01*
X116886632Y-94893914D01*
X116962051Y-94711835D01*
X117000500Y-94518541D01*
X117000500Y-94348447D01*
X126611500Y-94348447D01*
X126611500Y-94538052D01*
X126648486Y-94723993D01*
X126648488Y-94724001D01*
X126721042Y-94899162D01*
X126826377Y-95056808D01*
X126960441Y-95190872D01*
X126990221Y-95210770D01*
X127118085Y-95296206D01*
X127118086Y-95296206D01*
X127118087Y-95296207D01*
X127157766Y-95312642D01*
X127293249Y-95368762D01*
X127479197Y-95405749D01*
X127479201Y-95405750D01*
X127479202Y-95405750D01*
X128044799Y-95405750D01*
X128044800Y-95405749D01*
X128230751Y-95368762D01*
X128405915Y-95296206D01*
X128563558Y-95190872D01*
X128697622Y-95056808D01*
X128802956Y-94899165D01*
X128875512Y-94724001D01*
X128912500Y-94538048D01*
X128912500Y-94348452D01*
X128875512Y-94162499D01*
X128802956Y-93987335D01*
X128795376Y-93975990D01*
X128774499Y-93909316D01*
X128792983Y-93841936D01*
X128810794Y-93819425D01*
X134028402Y-88601819D01*
X134089725Y-88568334D01*
X134116083Y-88565500D01*
X152117463Y-88565500D01*
X152184502Y-88585185D01*
X152230257Y-88637989D01*
X152240201Y-88707147D01*
X152220565Y-88758390D01*
X152121045Y-88907332D01*
X152121043Y-88907336D01*
X152048488Y-89082498D01*
X152048486Y-89082506D01*
X152011500Y-89268447D01*
X152011500Y-89458052D01*
X152048486Y-89643993D01*
X152048488Y-89644001D01*
X152121042Y-89819162D01*
X152226377Y-89976808D01*
X152360441Y-90110872D01*
X152465300Y-90180936D01*
X152518085Y-90216206D01*
X152693249Y-90288762D01*
X152879197Y-90325749D01*
X152879201Y-90325750D01*
X152879202Y-90325750D01*
X153444799Y-90325750D01*
X153444800Y-90325749D01*
X153630751Y-90288762D01*
X153805915Y-90216206D01*
X153963558Y-90110872D01*
X154097622Y-89976808D01*
X154202956Y-89819165D01*
X154275512Y-89644001D01*
X154312500Y-89458048D01*
X154312500Y-89268452D01*
X154275512Y-89082499D01*
X154202956Y-88907335D01*
X154202954Y-88907332D01*
X154103435Y-88758390D01*
X154082557Y-88691713D01*
X154101042Y-88624333D01*
X154153021Y-88577643D01*
X154206537Y-88565500D01*
X158408560Y-88565500D01*
X158408562Y-88565500D01*
X158484989Y-88545021D01*
X158553511Y-88505460D01*
X158609460Y-88449511D01*
X163983718Y-83075251D01*
X164045039Y-83041768D01*
X164114731Y-83046752D01*
X164140288Y-83059832D01*
X164171769Y-83080867D01*
X164171770Y-83080868D01*
X164230247Y-83092499D01*
X164230250Y-83092500D01*
X164230252Y-83092500D01*
X165969750Y-83092500D01*
X165969751Y-83092499D01*
X165984568Y-83089552D01*
X166028229Y-83080868D01*
X166028229Y-83080867D01*
X166028231Y-83080867D01*
X166094552Y-83036552D01*
X166138867Y-82970231D01*
X166138867Y-82970229D01*
X166138868Y-82970229D01*
X166150499Y-82911752D01*
X166150500Y-82911750D01*
X166150500Y-81172249D01*
X166150499Y-81172247D01*
X166138868Y-81113770D01*
X166138867Y-81113769D01*
X166094552Y-81047447D01*
X166028230Y-81003132D01*
X166028229Y-81003131D01*
X165969752Y-80991500D01*
X165969748Y-80991500D01*
X164230252Y-80991500D01*
X164230247Y-80991500D01*
X164171770Y-81003131D01*
X164171769Y-81003132D01*
X164105447Y-81047447D01*
X164061132Y-81113769D01*
X164061131Y-81113770D01*
X164049500Y-81172247D01*
X164049500Y-82108167D01*
X164029815Y-82175206D01*
X164013181Y-82195848D01*
X158280848Y-87928181D01*
X158219525Y-87961666D01*
X158193167Y-87964500D01*
X153733303Y-87964500D01*
X153666264Y-87944815D01*
X153620509Y-87892011D01*
X153610565Y-87822853D01*
X153639590Y-87759297D01*
X153685850Y-87725939D01*
X153805915Y-87676206D01*
X153963558Y-87570872D01*
X154097622Y-87436808D01*
X154202956Y-87279165D01*
X154275512Y-87104001D01*
X154312500Y-86918048D01*
X154312500Y-86728452D01*
X154275512Y-86542499D01*
X154210949Y-86386632D01*
X154202957Y-86367337D01*
X154097622Y-86209691D01*
X153963558Y-86075627D01*
X153805912Y-85970292D01*
X153630751Y-85897738D01*
X153630743Y-85897736D01*
X153444802Y-85860750D01*
X153444798Y-85860750D01*
X152879202Y-85860750D01*
X152879197Y-85860750D01*
X152693256Y-85897736D01*
X152693248Y-85897738D01*
X152518087Y-85970292D01*
X152360441Y-86075627D01*
X152226377Y-86209691D01*
X152121042Y-86367337D01*
X152048488Y-86542498D01*
X152048486Y-86542506D01*
X152011500Y-86728447D01*
X152011500Y-86918052D01*
X152048486Y-87103993D01*
X152048488Y-87104001D01*
X152121042Y-87279162D01*
X152226377Y-87436808D01*
X152360441Y-87570872D01*
X152384308Y-87586819D01*
X152518085Y-87676206D01*
X152518086Y-87676206D01*
X152518087Y-87676207D01*
X152638150Y-87725939D01*
X152692553Y-87769780D01*
X152714618Y-87836074D01*
X152697339Y-87903774D01*
X152646201Y-87951384D01*
X152590697Y-87964500D01*
X133900688Y-87964500D01*
X133862474Y-87974739D01*
X133824259Y-87984979D01*
X133824254Y-87984982D01*
X133755745Y-88024535D01*
X133755737Y-88024541D01*
X128304132Y-93476145D01*
X128242809Y-93509630D01*
X128192260Y-93510081D01*
X128044802Y-93480750D01*
X128044798Y-93480750D01*
X127479202Y-93480750D01*
X127479197Y-93480750D01*
X127293256Y-93517736D01*
X127293248Y-93517738D01*
X127118087Y-93590292D01*
X126960441Y-93695627D01*
X126826377Y-93829691D01*
X126721042Y-93987337D01*
X126648488Y-94162498D01*
X126648486Y-94162506D01*
X126611500Y-94348447D01*
X117000500Y-94348447D01*
X117000500Y-94321459D01*
X117000500Y-94321456D01*
X116962052Y-94128170D01*
X116962051Y-94128169D01*
X116962051Y-94128165D01*
X116962049Y-94128160D01*
X116886635Y-93946092D01*
X116886628Y-93946079D01*
X116777139Y-93782218D01*
X116777136Y-93782214D01*
X116637785Y-93642863D01*
X116637781Y-93642860D01*
X116473920Y-93533371D01*
X116473907Y-93533364D01*
X116291839Y-93457950D01*
X116291829Y-93457947D01*
X116098543Y-93419500D01*
X116098541Y-93419500D01*
X115901459Y-93419500D01*
X115901457Y-93419500D01*
X115708170Y-93457947D01*
X115708160Y-93457950D01*
X115526092Y-93533364D01*
X115526079Y-93533371D01*
X115362218Y-93642860D01*
X115362214Y-93642863D01*
X115222863Y-93782214D01*
X115222860Y-93782218D01*
X115113371Y-93946079D01*
X115113364Y-93946092D01*
X115037950Y-94128160D01*
X115037947Y-94128170D01*
X114999500Y-94321456D01*
X114999500Y-94321459D01*
X114999500Y-94518541D01*
X114999500Y-94518543D01*
X114999499Y-94518543D01*
X108000500Y-94518543D01*
X108000500Y-94518541D01*
X108000500Y-94321459D01*
X108000500Y-94321456D01*
X107962052Y-94128170D01*
X107962051Y-94128169D01*
X107962051Y-94128165D01*
X107962049Y-94128160D01*
X107886635Y-93946092D01*
X107886628Y-93946079D01*
X107777139Y-93782218D01*
X107777136Y-93782214D01*
X107637785Y-93642863D01*
X107637781Y-93642860D01*
X107473920Y-93533371D01*
X107473907Y-93533364D01*
X107291839Y-93457950D01*
X107291829Y-93457947D01*
X107098543Y-93419500D01*
X107098541Y-93419500D01*
X106901459Y-93419500D01*
X106901457Y-93419500D01*
X106708170Y-93457947D01*
X106708160Y-93457950D01*
X106526092Y-93533364D01*
X106526079Y-93533371D01*
X106362218Y-93642860D01*
X106362214Y-93642863D01*
X106222863Y-93782214D01*
X106222860Y-93782218D01*
X106113371Y-93946079D01*
X106113364Y-93946092D01*
X106037950Y-94128160D01*
X106037947Y-94128170D01*
X105999500Y-94321456D01*
X105999500Y-94321459D01*
X105999500Y-94518541D01*
X105999500Y-94518543D01*
X105999499Y-94518543D01*
X102500500Y-94518543D01*
X102500500Y-91808447D01*
X126611500Y-91808447D01*
X126611500Y-91998052D01*
X126648486Y-92183993D01*
X126648488Y-92184001D01*
X126721042Y-92359162D01*
X126826377Y-92516808D01*
X126960441Y-92650872D01*
X127065300Y-92720936D01*
X127118085Y-92756206D01*
X127293249Y-92828762D01*
X127479197Y-92865749D01*
X127479201Y-92865750D01*
X127479202Y-92865750D01*
X128044799Y-92865750D01*
X128044800Y-92865749D01*
X128230751Y-92828762D01*
X128405915Y-92756206D01*
X128563558Y-92650872D01*
X128697622Y-92516808D01*
X128802956Y-92359165D01*
X128875512Y-92184001D01*
X128912500Y-91998048D01*
X128912500Y-91808452D01*
X128875512Y-91622499D01*
X128802956Y-91447335D01*
X128762393Y-91386628D01*
X128697622Y-91289691D01*
X128563558Y-91155627D01*
X128405912Y-91050292D01*
X128230751Y-90977738D01*
X128230743Y-90977736D01*
X128044802Y-90940750D01*
X128044798Y-90940750D01*
X127479202Y-90940750D01*
X127479197Y-90940750D01*
X127293256Y-90977736D01*
X127293248Y-90977738D01*
X127118087Y-91050292D01*
X126960441Y-91155627D01*
X126826377Y-91289691D01*
X126721042Y-91447337D01*
X126648488Y-91622498D01*
X126648486Y-91622506D01*
X126611500Y-91808447D01*
X102500500Y-91808447D01*
X102500500Y-90098543D01*
X105999499Y-90098543D01*
X106037947Y-90291829D01*
X106037950Y-90291839D01*
X106113364Y-90473907D01*
X106113371Y-90473920D01*
X106222860Y-90637781D01*
X106222863Y-90637785D01*
X106362214Y-90777136D01*
X106362218Y-90777139D01*
X106526079Y-90886628D01*
X106526092Y-90886635D01*
X106656739Y-90940750D01*
X106708165Y-90962051D01*
X106708169Y-90962051D01*
X106708170Y-90962052D01*
X106901456Y-91000500D01*
X106901459Y-91000500D01*
X107098543Y-91000500D01*
X107232196Y-90973914D01*
X107291835Y-90962051D01*
X107473914Y-90886632D01*
X107637782Y-90777139D01*
X107777139Y-90637782D01*
X107803358Y-90598543D01*
X114999499Y-90598543D01*
X115037947Y-90791829D01*
X115037950Y-90791839D01*
X115113364Y-90973907D01*
X115113371Y-90973920D01*
X115222860Y-91137781D01*
X115222863Y-91137785D01*
X115362214Y-91277136D01*
X115362218Y-91277139D01*
X115526079Y-91386628D01*
X115526092Y-91386635D01*
X115672637Y-91447335D01*
X115708165Y-91462051D01*
X115708169Y-91462051D01*
X115708170Y-91462052D01*
X115901456Y-91500500D01*
X115901459Y-91500500D01*
X116098543Y-91500500D01*
X116228582Y-91474632D01*
X116291835Y-91462051D01*
X116473914Y-91386632D01*
X116637782Y-91277139D01*
X116777139Y-91137782D01*
X116886632Y-90973914D01*
X116962051Y-90791835D01*
X116992694Y-90637785D01*
X117000500Y-90598543D01*
X117000500Y-90401456D01*
X116962052Y-90208170D01*
X116962051Y-90208169D01*
X116962051Y-90208165D01*
X116962049Y-90208160D01*
X116886635Y-90026092D01*
X116886628Y-90026079D01*
X116777139Y-89862218D01*
X116777136Y-89862214D01*
X116637785Y-89722863D01*
X116637781Y-89722860D01*
X116473920Y-89613371D01*
X116473907Y-89613364D01*
X116291839Y-89537950D01*
X116291829Y-89537947D01*
X116098543Y-89499500D01*
X116098541Y-89499500D01*
X115901459Y-89499500D01*
X115901457Y-89499500D01*
X115708170Y-89537947D01*
X115708160Y-89537950D01*
X115526092Y-89613364D01*
X115526079Y-89613371D01*
X115362218Y-89722860D01*
X115362214Y-89722863D01*
X115222863Y-89862214D01*
X115222860Y-89862218D01*
X115113371Y-90026079D01*
X115113364Y-90026092D01*
X115037950Y-90208160D01*
X115037947Y-90208170D01*
X114999500Y-90401456D01*
X114999500Y-90401459D01*
X114999500Y-90598541D01*
X114999500Y-90598543D01*
X114999499Y-90598543D01*
X107803358Y-90598543D01*
X107886632Y-90473914D01*
X107962051Y-90291835D01*
X107978695Y-90208160D01*
X108000500Y-90098543D01*
X108000500Y-89901456D01*
X107962052Y-89708170D01*
X107962051Y-89708169D01*
X107962051Y-89708165D01*
X107935474Y-89644001D01*
X107886635Y-89526092D01*
X107886628Y-89526079D01*
X107777139Y-89362218D01*
X107777136Y-89362214D01*
X107683369Y-89268447D01*
X126611500Y-89268447D01*
X126611500Y-89458052D01*
X126648486Y-89643993D01*
X126648488Y-89644001D01*
X126721042Y-89819162D01*
X126826377Y-89976808D01*
X126960441Y-90110872D01*
X127065300Y-90180936D01*
X127118085Y-90216206D01*
X127293249Y-90288762D01*
X127479197Y-90325749D01*
X127479201Y-90325750D01*
X127479202Y-90325750D01*
X128044799Y-90325750D01*
X128044800Y-90325749D01*
X128230751Y-90288762D01*
X128405915Y-90216206D01*
X128563558Y-90110872D01*
X128697622Y-89976808D01*
X128802956Y-89819165D01*
X128875512Y-89644001D01*
X128912500Y-89458048D01*
X128912500Y-89268452D01*
X128875512Y-89082499D01*
X128802956Y-88907335D01*
X128703434Y-88758390D01*
X128697622Y-88749691D01*
X128563558Y-88615627D01*
X128405912Y-88510292D01*
X128230751Y-88437738D01*
X128230743Y-88437736D01*
X128044802Y-88400750D01*
X128044798Y-88400750D01*
X127479202Y-88400750D01*
X127479197Y-88400750D01*
X127293256Y-88437736D01*
X127293248Y-88437738D01*
X127118087Y-88510292D01*
X126960441Y-88615627D01*
X126826377Y-88749691D01*
X126721042Y-88907337D01*
X126648488Y-89082498D01*
X126648486Y-89082506D01*
X126611500Y-89268447D01*
X107683369Y-89268447D01*
X107637785Y-89222863D01*
X107637781Y-89222860D01*
X107473920Y-89113371D01*
X107473907Y-89113364D01*
X107291839Y-89037950D01*
X107291829Y-89037947D01*
X107098543Y-88999500D01*
X107098541Y-88999500D01*
X106901459Y-88999500D01*
X106901457Y-88999500D01*
X106708170Y-89037947D01*
X106708160Y-89037950D01*
X106526092Y-89113364D01*
X106526079Y-89113371D01*
X106362218Y-89222860D01*
X106362214Y-89222863D01*
X106222863Y-89362214D01*
X106222860Y-89362218D01*
X106113371Y-89526079D01*
X106113364Y-89526092D01*
X106037950Y-89708160D01*
X106037947Y-89708170D01*
X105999500Y-89901456D01*
X105999500Y-89901459D01*
X105999500Y-90098541D01*
X105999500Y-90098543D01*
X105999499Y-90098543D01*
X102500500Y-90098543D01*
X102500500Y-86728447D01*
X126611500Y-86728447D01*
X126611500Y-86918052D01*
X126648486Y-87103993D01*
X126648488Y-87104001D01*
X126721042Y-87279162D01*
X126826377Y-87436808D01*
X126960441Y-87570872D01*
X126984308Y-87586819D01*
X127118085Y-87676206D01*
X127293249Y-87748762D01*
X127398915Y-87769780D01*
X127479197Y-87785749D01*
X127479201Y-87785750D01*
X127479202Y-87785750D01*
X128044799Y-87785750D01*
X128044800Y-87785749D01*
X128230751Y-87748762D01*
X128405915Y-87676206D01*
X128563558Y-87570872D01*
X128697622Y-87436808D01*
X128802956Y-87279165D01*
X128875512Y-87104001D01*
X128912500Y-86918048D01*
X128912500Y-86728452D01*
X128875512Y-86542499D01*
X128810949Y-86386632D01*
X128802957Y-86367337D01*
X128697622Y-86209691D01*
X128563558Y-86075627D01*
X128405912Y-85970292D01*
X128230751Y-85897738D01*
X128230743Y-85897736D01*
X128044802Y-85860750D01*
X128044798Y-85860750D01*
X127479202Y-85860750D01*
X127479197Y-85860750D01*
X127293256Y-85897736D01*
X127293248Y-85897738D01*
X127118087Y-85970292D01*
X126960441Y-86075627D01*
X126826377Y-86209691D01*
X126721042Y-86367337D01*
X126648488Y-86542498D01*
X126648486Y-86542506D01*
X126611500Y-86728447D01*
X102500500Y-86728447D01*
X102500500Y-85098543D01*
X105999499Y-85098543D01*
X106037947Y-85291829D01*
X106037950Y-85291839D01*
X106113364Y-85473907D01*
X106113371Y-85473920D01*
X106222860Y-85637781D01*
X106222863Y-85637785D01*
X106362214Y-85777136D01*
X106362218Y-85777139D01*
X106526079Y-85886628D01*
X106526092Y-85886635D01*
X106708160Y-85962049D01*
X106708165Y-85962051D01*
X106708169Y-85962051D01*
X106708170Y-85962052D01*
X106901456Y-86000500D01*
X106901459Y-86000500D01*
X107098543Y-86000500D01*
X107232196Y-85973914D01*
X107291835Y-85962051D01*
X107473914Y-85886632D01*
X107637782Y-85777139D01*
X107777139Y-85637782D01*
X107803358Y-85598543D01*
X114999499Y-85598543D01*
X115037947Y-85791829D01*
X115037950Y-85791839D01*
X115113364Y-85973907D01*
X115113371Y-85973920D01*
X115222860Y-86137781D01*
X115222863Y-86137785D01*
X115362214Y-86277136D01*
X115362218Y-86277139D01*
X115526079Y-86386628D01*
X115526092Y-86386635D01*
X115708160Y-86462049D01*
X115708165Y-86462051D01*
X115708169Y-86462051D01*
X115708170Y-86462052D01*
X115901456Y-86500500D01*
X115901459Y-86500500D01*
X116098543Y-86500500D01*
X116228582Y-86474632D01*
X116291835Y-86462051D01*
X116473914Y-86386632D01*
X116637782Y-86277139D01*
X116777139Y-86137782D01*
X116886632Y-85973914D01*
X116888132Y-85970294D01*
X116962049Y-85791839D01*
X116962051Y-85791835D01*
X116992694Y-85637785D01*
X117000500Y-85598543D01*
X117000500Y-85401456D01*
X116962052Y-85208170D01*
X116962051Y-85208169D01*
X116962051Y-85208165D01*
X116962049Y-85208160D01*
X116886635Y-85026092D01*
X116886628Y-85026079D01*
X116777139Y-84862218D01*
X116777136Y-84862214D01*
X116637785Y-84722863D01*
X116637781Y-84722860D01*
X116473920Y-84613371D01*
X116473907Y-84613364D01*
X116291839Y-84537950D01*
X116291829Y-84537947D01*
X116098543Y-84499500D01*
X116098541Y-84499500D01*
X115901459Y-84499500D01*
X115901457Y-84499500D01*
X115708170Y-84537947D01*
X115708160Y-84537950D01*
X115526092Y-84613364D01*
X115526079Y-84613371D01*
X115362218Y-84722860D01*
X115362214Y-84722863D01*
X115222863Y-84862214D01*
X115222860Y-84862218D01*
X115113371Y-85026079D01*
X115113364Y-85026092D01*
X115037950Y-85208160D01*
X115037947Y-85208170D01*
X114999500Y-85401456D01*
X114999500Y-85401459D01*
X114999500Y-85598541D01*
X114999500Y-85598543D01*
X114999499Y-85598543D01*
X107803358Y-85598543D01*
X107886632Y-85473914D01*
X107891927Y-85461132D01*
X107938822Y-85347915D01*
X107938822Y-85347914D01*
X107962051Y-85291835D01*
X108000500Y-85098541D01*
X108000500Y-84901459D01*
X108000500Y-84901456D01*
X107962052Y-84708170D01*
X107962051Y-84708169D01*
X107962051Y-84708165D01*
X107962049Y-84708160D01*
X107886635Y-84526092D01*
X107886628Y-84526079D01*
X107777139Y-84362218D01*
X107777136Y-84362214D01*
X107637785Y-84222863D01*
X107637781Y-84222860D01*
X107586279Y-84188447D01*
X126611500Y-84188447D01*
X126611500Y-84378052D01*
X126648486Y-84563993D01*
X126648488Y-84564001D01*
X126721042Y-84739162D01*
X126826377Y-84896808D01*
X126960441Y-85030872D01*
X127065300Y-85100936D01*
X127118085Y-85136206D01*
X127293249Y-85208762D01*
X127479197Y-85245749D01*
X127479201Y-85245750D01*
X127479202Y-85245750D01*
X128044799Y-85245750D01*
X128044800Y-85245749D01*
X128230751Y-85208762D01*
X128405915Y-85136206D01*
X128563558Y-85030872D01*
X128697622Y-84896808D01*
X128802956Y-84739165D01*
X128875512Y-84564001D01*
X128912500Y-84378048D01*
X128912500Y-84188452D01*
X128912499Y-84188447D01*
X152011500Y-84188447D01*
X152011500Y-84378052D01*
X152048486Y-84563993D01*
X152048488Y-84564001D01*
X152121042Y-84739162D01*
X152226377Y-84896808D01*
X152360441Y-85030872D01*
X152465300Y-85100936D01*
X152518085Y-85136206D01*
X152693249Y-85208762D01*
X152879197Y-85245749D01*
X152879201Y-85245750D01*
X152879202Y-85245750D01*
X153444799Y-85245750D01*
X153444800Y-85245749D01*
X153630751Y-85208762D01*
X153805915Y-85136206D01*
X153963558Y-85030872D01*
X154097622Y-84896808D01*
X154202956Y-84739165D01*
X154275512Y-84564001D01*
X154312500Y-84378048D01*
X154312500Y-84188452D01*
X154275512Y-84002499D01*
X154202956Y-83827335D01*
X154167686Y-83774550D01*
X154097622Y-83669691D01*
X153963558Y-83535627D01*
X153805912Y-83430292D01*
X153630751Y-83357738D01*
X153630743Y-83357736D01*
X153444802Y-83320750D01*
X153444798Y-83320750D01*
X152879202Y-83320750D01*
X152879197Y-83320750D01*
X152693256Y-83357736D01*
X152693248Y-83357738D01*
X152518087Y-83430292D01*
X152360441Y-83535627D01*
X152226377Y-83669691D01*
X152121042Y-83827337D01*
X152048488Y-84002498D01*
X152048486Y-84002506D01*
X152011500Y-84188447D01*
X128912499Y-84188447D01*
X128875512Y-84002499D01*
X128802956Y-83827335D01*
X128767686Y-83774550D01*
X128697622Y-83669691D01*
X128563558Y-83535627D01*
X128405912Y-83430292D01*
X128230751Y-83357738D01*
X128230743Y-83357736D01*
X128044802Y-83320750D01*
X128044798Y-83320750D01*
X127479202Y-83320750D01*
X127479197Y-83320750D01*
X127293256Y-83357736D01*
X127293248Y-83357738D01*
X127118087Y-83430292D01*
X126960441Y-83535627D01*
X126826377Y-83669691D01*
X126721042Y-83827337D01*
X126648488Y-84002498D01*
X126648486Y-84002506D01*
X126611500Y-84188447D01*
X107586279Y-84188447D01*
X107473920Y-84113371D01*
X107473907Y-84113364D01*
X107291839Y-84037950D01*
X107291829Y-84037947D01*
X107098543Y-83999500D01*
X107098541Y-83999500D01*
X106901459Y-83999500D01*
X106901457Y-83999500D01*
X106708170Y-84037947D01*
X106708160Y-84037950D01*
X106526092Y-84113364D01*
X106526079Y-84113371D01*
X106362218Y-84222860D01*
X106362214Y-84222863D01*
X106222863Y-84362214D01*
X106222860Y-84362218D01*
X106113371Y-84526079D01*
X106113364Y-84526092D01*
X106037950Y-84708160D01*
X106037947Y-84708170D01*
X105999500Y-84901456D01*
X105999500Y-84901459D01*
X105999500Y-85098541D01*
X105999500Y-85098543D01*
X105999499Y-85098543D01*
X102500500Y-85098543D01*
X102500500Y-81648447D01*
X126611500Y-81648447D01*
X126611500Y-81838052D01*
X126648486Y-82023993D01*
X126648488Y-82024001D01*
X126721042Y-82199162D01*
X126826377Y-82356808D01*
X126960441Y-82490872D01*
X127065300Y-82560936D01*
X127118085Y-82596206D01*
X127293249Y-82668762D01*
X127479197Y-82705749D01*
X127479201Y-82705750D01*
X127479202Y-82705750D01*
X128044799Y-82705750D01*
X128044800Y-82705749D01*
X128230751Y-82668762D01*
X128405915Y-82596206D01*
X128563558Y-82490872D01*
X128697622Y-82356808D01*
X128802956Y-82199165D01*
X128875512Y-82024001D01*
X128912500Y-81838048D01*
X128912500Y-81648452D01*
X128912499Y-81648447D01*
X152011500Y-81648447D01*
X152011500Y-81838052D01*
X152048486Y-82023993D01*
X152048488Y-82024001D01*
X152121042Y-82199162D01*
X152226377Y-82356808D01*
X152360441Y-82490872D01*
X152465300Y-82560936D01*
X152518085Y-82596206D01*
X152693249Y-82668762D01*
X152879197Y-82705749D01*
X152879201Y-82705750D01*
X152879202Y-82705750D01*
X153444799Y-82705750D01*
X153444800Y-82705749D01*
X153630751Y-82668762D01*
X153805915Y-82596206D01*
X153963558Y-82490872D01*
X154097622Y-82356808D01*
X154202956Y-82199165D01*
X154275512Y-82024001D01*
X154312500Y-81838048D01*
X154312500Y-81648452D01*
X154275512Y-81462499D01*
X154202956Y-81287335D01*
X154126058Y-81172249D01*
X154097622Y-81129691D01*
X153963558Y-80995627D01*
X153805912Y-80890292D01*
X153630751Y-80817738D01*
X153630743Y-80817736D01*
X153444802Y-80780750D01*
X153444798Y-80780750D01*
X152879202Y-80780750D01*
X152879197Y-80780750D01*
X152693256Y-80817736D01*
X152693248Y-80817738D01*
X152518087Y-80890292D01*
X152360441Y-80995627D01*
X152226377Y-81129691D01*
X152121042Y-81287337D01*
X152048488Y-81462498D01*
X152048486Y-81462506D01*
X152011500Y-81648447D01*
X128912499Y-81648447D01*
X128875512Y-81462499D01*
X128802956Y-81287335D01*
X128726058Y-81172249D01*
X128697622Y-81129691D01*
X128563558Y-80995627D01*
X128405912Y-80890292D01*
X128230751Y-80817738D01*
X128230743Y-80817736D01*
X128044802Y-80780750D01*
X128044798Y-80780750D01*
X127479202Y-80780750D01*
X127479197Y-80780750D01*
X127293256Y-80817736D01*
X127293248Y-80817738D01*
X127118087Y-80890292D01*
X126960441Y-80995627D01*
X126826377Y-81129691D01*
X126721042Y-81287337D01*
X126648488Y-81462498D01*
X126648486Y-81462506D01*
X126611500Y-81648447D01*
X102500500Y-81648447D01*
X102500500Y-76318155D01*
X163877000Y-76318155D01*
X163877000Y-76966000D01*
X164793988Y-76966000D01*
X164761075Y-77023007D01*
X164727000Y-77150174D01*
X164727000Y-77281826D01*
X164761075Y-77408993D01*
X164793988Y-77466000D01*
X163877000Y-77466000D01*
X163877000Y-78113844D01*
X163883401Y-78173372D01*
X163883403Y-78173379D01*
X163933645Y-78308086D01*
X163933649Y-78308093D01*
X164019809Y-78423187D01*
X164019812Y-78423190D01*
X164134906Y-78509350D01*
X164134913Y-78509354D01*
X164269620Y-78559596D01*
X164269627Y-78559598D01*
X164329155Y-78565999D01*
X164329172Y-78566000D01*
X164977000Y-78566000D01*
X164977000Y-77649012D01*
X165034007Y-77681925D01*
X165161174Y-77716000D01*
X165292826Y-77716000D01*
X165419993Y-77681925D01*
X165477000Y-77649012D01*
X165477000Y-78566000D01*
X166124828Y-78566000D01*
X166124844Y-78565999D01*
X166184372Y-78559598D01*
X166184379Y-78559596D01*
X166319086Y-78509354D01*
X166319093Y-78509350D01*
X166434187Y-78423190D01*
X166434190Y-78423187D01*
X166520350Y-78308093D01*
X166520354Y-78308086D01*
X166570596Y-78173379D01*
X166570598Y-78173372D01*
X166576999Y-78113844D01*
X166577000Y-78113827D01*
X166577000Y-77466000D01*
X165660012Y-77466000D01*
X165692925Y-77408993D01*
X165727000Y-77281826D01*
X165727000Y-77150174D01*
X165692925Y-77023007D01*
X165660012Y-76966000D01*
X166577000Y-76966000D01*
X166577000Y-76318172D01*
X166576999Y-76318155D01*
X166570598Y-76258627D01*
X166570596Y-76258620D01*
X166520354Y-76123913D01*
X166520350Y-76123906D01*
X166434190Y-76008812D01*
X166434187Y-76008809D01*
X166319093Y-75922649D01*
X166319086Y-75922645D01*
X166184379Y-75872403D01*
X166184372Y-75872401D01*
X166124844Y-75866000D01*
X165477000Y-75866000D01*
X165477000Y-76782988D01*
X165419993Y-76750075D01*
X165292826Y-76716000D01*
X165161174Y-76716000D01*
X165034007Y-76750075D01*
X164977000Y-76782988D01*
X164977000Y-75866000D01*
X164329155Y-75866000D01*
X164269627Y-75872401D01*
X164269620Y-75872403D01*
X164134913Y-75922645D01*
X164134906Y-75922649D01*
X164019812Y-76008809D01*
X164019809Y-76008812D01*
X163933649Y-76123906D01*
X163933645Y-76123913D01*
X163883403Y-76258620D01*
X163883401Y-76258627D01*
X163877000Y-76318155D01*
X102500500Y-76318155D01*
X102500500Y-65905197D01*
X132337500Y-65905197D01*
X132337500Y-66094802D01*
X132374486Y-66280743D01*
X132374488Y-66280751D01*
X132447042Y-66455912D01*
X132552377Y-66613558D01*
X132686441Y-66747622D01*
X132791300Y-66817686D01*
X132844085Y-66852956D01*
X133019249Y-66925512D01*
X133205197Y-66962499D01*
X133205201Y-66962500D01*
X133205202Y-66962500D01*
X133394799Y-66962500D01*
X133394800Y-66962499D01*
X133580751Y-66925512D01*
X133755915Y-66852956D01*
X133913558Y-66747622D01*
X134047622Y-66613558D01*
X134152956Y-66455915D01*
X134225512Y-66280751D01*
X134262500Y-66094798D01*
X134262500Y-65905202D01*
X134262500Y-65905201D01*
X134262500Y-65905199D01*
X134261601Y-65900678D01*
X134578000Y-65900678D01*
X134578000Y-66099321D01*
X134609075Y-66295520D01*
X134609075Y-66295523D01*
X134670457Y-66484437D01*
X134760641Y-66661432D01*
X134787730Y-66698715D01*
X134787731Y-66698716D01*
X135459000Y-66027447D01*
X135459000Y-66050160D01*
X135484964Y-66147061D01*
X135535124Y-66233940D01*
X135606060Y-66304876D01*
X135692939Y-66355036D01*
X135789840Y-66381000D01*
X135812553Y-66381000D01*
X135141283Y-67052268D01*
X135141283Y-67052269D01*
X135178567Y-67079358D01*
X135355562Y-67169542D01*
X135544477Y-67230924D01*
X135740679Y-67262000D01*
X135939321Y-67262000D01*
X136135520Y-67230924D01*
X136135523Y-67230924D01*
X136324437Y-67169542D01*
X136501425Y-67079362D01*
X136538716Y-67052268D01*
X135867448Y-66381000D01*
X135890160Y-66381000D01*
X135987061Y-66355036D01*
X136073940Y-66304876D01*
X136144876Y-66233940D01*
X136195036Y-66147061D01*
X136221000Y-66050160D01*
X136221000Y-66027447D01*
X136892268Y-66698715D01*
X136919362Y-66661425D01*
X137009542Y-66484437D01*
X137070924Y-66295523D01*
X137070924Y-66295520D01*
X137102000Y-66099321D01*
X137102000Y-65905197D01*
X137417500Y-65905197D01*
X137417500Y-66094802D01*
X137454486Y-66280743D01*
X137454488Y-66280751D01*
X137527042Y-66455912D01*
X137632377Y-66613558D01*
X137766441Y-66747622D01*
X137871300Y-66817686D01*
X137924085Y-66852956D01*
X138099249Y-66925512D01*
X138285197Y-66962499D01*
X138285201Y-66962500D01*
X138285202Y-66962500D01*
X138474799Y-66962500D01*
X138474800Y-66962499D01*
X138660751Y-66925512D01*
X138835915Y-66852956D01*
X138993558Y-66747622D01*
X139127622Y-66613558D01*
X139232956Y-66455915D01*
X139305512Y-66280751D01*
X139342500Y-66094798D01*
X139342500Y-65905202D01*
X139342499Y-65905199D01*
X139342499Y-65905197D01*
X145037500Y-65905197D01*
X145037500Y-66094802D01*
X145074486Y-66280743D01*
X145074488Y-66280751D01*
X145147042Y-66455912D01*
X145252377Y-66613558D01*
X145386441Y-66747622D01*
X145491300Y-66817686D01*
X145544085Y-66852956D01*
X145719249Y-66925512D01*
X145905197Y-66962499D01*
X145905201Y-66962500D01*
X145905202Y-66962500D01*
X146094799Y-66962500D01*
X146094800Y-66962499D01*
X146280751Y-66925512D01*
X146455915Y-66852956D01*
X146613558Y-66747622D01*
X146747622Y-66613558D01*
X146852956Y-66455915D01*
X146925512Y-66280751D01*
X146962500Y-66094798D01*
X146962500Y-65905202D01*
X146962500Y-65905201D01*
X146962500Y-65905199D01*
X146961601Y-65900678D01*
X147278000Y-65900678D01*
X147278000Y-66099321D01*
X147309075Y-66295520D01*
X147309075Y-66295523D01*
X147370457Y-66484437D01*
X147460641Y-66661432D01*
X147487730Y-66698715D01*
X147487731Y-66698716D01*
X148159000Y-66027447D01*
X148159000Y-66050160D01*
X148184964Y-66147061D01*
X148235124Y-66233940D01*
X148306060Y-66304876D01*
X148392939Y-66355036D01*
X148489840Y-66381000D01*
X148512553Y-66381000D01*
X147841283Y-67052268D01*
X147841283Y-67052269D01*
X147878567Y-67079358D01*
X148055562Y-67169542D01*
X148244477Y-67230924D01*
X148440679Y-67262000D01*
X148639321Y-67262000D01*
X148835520Y-67230924D01*
X148835523Y-67230924D01*
X149024437Y-67169542D01*
X149201425Y-67079362D01*
X149238716Y-67052268D01*
X148567448Y-66381000D01*
X148590160Y-66381000D01*
X148687061Y-66355036D01*
X148773940Y-66304876D01*
X148844876Y-66233940D01*
X148895036Y-66147061D01*
X148921000Y-66050160D01*
X148921000Y-66027447D01*
X149592268Y-66698715D01*
X149619362Y-66661425D01*
X149709542Y-66484437D01*
X149770924Y-66295523D01*
X149770924Y-66295520D01*
X149802000Y-66099321D01*
X149802000Y-65900678D01*
X149770924Y-65704479D01*
X149770924Y-65704476D01*
X149709542Y-65515562D01*
X149619358Y-65338567D01*
X149592268Y-65301283D01*
X148921000Y-65972551D01*
X148921000Y-65949840D01*
X148895036Y-65852939D01*
X148844876Y-65766060D01*
X148773940Y-65695124D01*
X148687061Y-65644964D01*
X148590160Y-65619000D01*
X148567447Y-65619000D01*
X149238716Y-64947731D01*
X149238715Y-64947730D01*
X149201432Y-64920641D01*
X149024437Y-64830457D01*
X148835522Y-64769075D01*
X148639321Y-64738000D01*
X148440679Y-64738000D01*
X148244479Y-64769075D01*
X148244476Y-64769075D01*
X148055562Y-64830457D01*
X147878564Y-64920643D01*
X147841283Y-64947729D01*
X147841282Y-64947730D01*
X148512554Y-65619000D01*
X148489840Y-65619000D01*
X148392939Y-65644964D01*
X148306060Y-65695124D01*
X148235124Y-65766060D01*
X148184964Y-65852939D01*
X148159000Y-65949840D01*
X148159000Y-65972552D01*
X147487730Y-65301282D01*
X147487729Y-65301283D01*
X147460643Y-65338564D01*
X147370457Y-65515562D01*
X147309075Y-65704476D01*
X147309075Y-65704479D01*
X147278000Y-65900678D01*
X146961601Y-65900678D01*
X146925513Y-65719256D01*
X146925512Y-65719249D01*
X146852956Y-65544085D01*
X146817686Y-65491300D01*
X146747622Y-65386441D01*
X146613558Y-65252377D01*
X146455912Y-65147042D01*
X146365400Y-65109551D01*
X146280751Y-65074488D01*
X146280743Y-65074486D01*
X146094802Y-65037500D01*
X146094798Y-65037500D01*
X145905202Y-65037500D01*
X145905197Y-65037500D01*
X145719256Y-65074486D01*
X145719248Y-65074488D01*
X145544087Y-65147042D01*
X145386441Y-65252377D01*
X145252377Y-65386441D01*
X145147042Y-65544087D01*
X145074488Y-65719248D01*
X145074486Y-65719256D01*
X145037500Y-65905197D01*
X139342499Y-65905197D01*
X139305513Y-65719256D01*
X139305512Y-65719249D01*
X139232956Y-65544085D01*
X139197686Y-65491300D01*
X139127622Y-65386441D01*
X138993558Y-65252377D01*
X138835912Y-65147042D01*
X138660751Y-65074488D01*
X138660743Y-65074486D01*
X138474802Y-65037500D01*
X138474798Y-65037500D01*
X138285202Y-65037500D01*
X138285197Y-65037500D01*
X138099256Y-65074486D01*
X138099248Y-65074488D01*
X137924087Y-65147042D01*
X137766441Y-65252377D01*
X137632377Y-65386441D01*
X137527042Y-65544087D01*
X137454488Y-65719248D01*
X137454486Y-65719256D01*
X137417500Y-65905197D01*
X137102000Y-65905197D01*
X137102000Y-65900678D01*
X137070924Y-65704479D01*
X137070924Y-65704476D01*
X137009542Y-65515562D01*
X136919358Y-65338567D01*
X136892268Y-65301283D01*
X136221000Y-65972551D01*
X136221000Y-65949840D01*
X136195036Y-65852939D01*
X136144876Y-65766060D01*
X136073940Y-65695124D01*
X135987061Y-65644964D01*
X135890160Y-65619000D01*
X135867447Y-65619000D01*
X136538716Y-64947731D01*
X136538715Y-64947730D01*
X136501432Y-64920641D01*
X136324437Y-64830457D01*
X136135522Y-64769075D01*
X135939321Y-64738000D01*
X135740679Y-64738000D01*
X135544479Y-64769075D01*
X135544476Y-64769075D01*
X135355562Y-64830457D01*
X135178564Y-64920643D01*
X135141283Y-64947729D01*
X135141282Y-64947730D01*
X135812554Y-65619000D01*
X135789840Y-65619000D01*
X135692939Y-65644964D01*
X135606060Y-65695124D01*
X135535124Y-65766060D01*
X135484964Y-65852939D01*
X135459000Y-65949840D01*
X135459000Y-65972552D01*
X134787730Y-65301282D01*
X134787729Y-65301283D01*
X134760643Y-65338564D01*
X134670457Y-65515562D01*
X134609075Y-65704476D01*
X134609075Y-65704479D01*
X134578000Y-65900678D01*
X134261601Y-65900678D01*
X134225513Y-65719256D01*
X134225512Y-65719249D01*
X134152956Y-65544085D01*
X134117686Y-65491300D01*
X134047622Y-65386441D01*
X133913558Y-65252377D01*
X133755912Y-65147042D01*
X133665400Y-65109551D01*
X133580751Y-65074488D01*
X133580743Y-65074486D01*
X133394802Y-65037500D01*
X133394798Y-65037500D01*
X133205202Y-65037500D01*
X133205197Y-65037500D01*
X133019256Y-65074486D01*
X133019248Y-65074488D01*
X132844087Y-65147042D01*
X132686441Y-65252377D01*
X132552377Y-65386441D01*
X132447042Y-65544087D01*
X132374488Y-65719248D01*
X132374486Y-65719256D01*
X132337500Y-65905197D01*
X102500500Y-65905197D01*
X102500500Y-53624747D01*
X122532250Y-53624747D01*
X122532250Y-55364252D01*
X122543881Y-55422729D01*
X122543882Y-55422730D01*
X122588197Y-55489052D01*
X122654519Y-55533367D01*
X122654520Y-55533368D01*
X122712997Y-55544999D01*
X122713000Y-55545000D01*
X122713002Y-55545000D01*
X124452500Y-55545000D01*
X124452501Y-55544999D01*
X124467318Y-55542052D01*
X124510979Y-55533368D01*
X124510979Y-55533367D01*
X124510981Y-55533367D01*
X124577302Y-55489052D01*
X124621617Y-55422731D01*
X124621617Y-55422729D01*
X124621618Y-55422729D01*
X124633249Y-55364252D01*
X124633250Y-55364250D01*
X124633250Y-53692247D01*
X154871000Y-53692247D01*
X154871000Y-55431752D01*
X154882631Y-55490229D01*
X154882632Y-55490230D01*
X154926947Y-55556552D01*
X154993269Y-55600867D01*
X154993270Y-55600868D01*
X155051747Y-55612499D01*
X155051750Y-55612500D01*
X155051752Y-55612500D01*
X156791250Y-55612500D01*
X156791251Y-55612499D01*
X156806068Y-55609552D01*
X156849729Y-55600868D01*
X156849729Y-55600867D01*
X156849731Y-55600867D01*
X156916052Y-55556552D01*
X156960367Y-55490231D01*
X156960367Y-55490229D01*
X156960368Y-55490229D01*
X156971999Y-55431752D01*
X156972000Y-55431750D01*
X156972000Y-53692249D01*
X156971999Y-53692247D01*
X156960368Y-53633770D01*
X156960367Y-53633769D01*
X156916052Y-53567447D01*
X156849730Y-53523132D01*
X156849729Y-53523131D01*
X156791252Y-53511500D01*
X156791248Y-53511500D01*
X155051752Y-53511500D01*
X155051747Y-53511500D01*
X154993270Y-53523131D01*
X154993269Y-53523132D01*
X154926947Y-53567447D01*
X154882632Y-53633769D01*
X154882631Y-53633770D01*
X154871000Y-53692247D01*
X124633250Y-53692247D01*
X124633250Y-53624749D01*
X124633249Y-53624747D01*
X124621618Y-53566270D01*
X124621617Y-53566269D01*
X124577302Y-53499947D01*
X124510980Y-53455632D01*
X124510979Y-53455631D01*
X124452502Y-53444000D01*
X124452498Y-53444000D01*
X122713002Y-53444000D01*
X122712997Y-53444000D01*
X122654520Y-53455631D01*
X122654519Y-53455632D01*
X122588197Y-53499947D01*
X122543882Y-53566269D01*
X122543881Y-53566270D01*
X122532250Y-53624747D01*
X102500500Y-53624747D01*
X102500500Y-46580247D01*
X122789500Y-46580247D01*
X122789500Y-48319752D01*
X122801131Y-48378229D01*
X122801132Y-48378230D01*
X122845447Y-48444552D01*
X122911769Y-48488867D01*
X122911770Y-48488868D01*
X122970247Y-48500499D01*
X122970250Y-48500500D01*
X122970252Y-48500500D01*
X124709750Y-48500500D01*
X124709751Y-48500499D01*
X124724568Y-48497552D01*
X124768229Y-48488868D01*
X124768229Y-48488867D01*
X124768231Y-48488867D01*
X124834552Y-48444552D01*
X124878867Y-48378231D01*
X124878867Y-48378229D01*
X124878868Y-48378229D01*
X124890499Y-48319752D01*
X124890500Y-48319750D01*
X124890500Y-46855197D01*
X132337500Y-46855197D01*
X132337500Y-47044802D01*
X132374486Y-47230743D01*
X132374488Y-47230751D01*
X132447042Y-47405912D01*
X132552377Y-47563558D01*
X132686441Y-47697622D01*
X132791300Y-47767686D01*
X132844085Y-47802956D01*
X133019249Y-47875512D01*
X133205197Y-47912499D01*
X133205201Y-47912500D01*
X133205202Y-47912500D01*
X133394799Y-47912500D01*
X133394800Y-47912499D01*
X133580751Y-47875512D01*
X133755915Y-47802956D01*
X133913558Y-47697622D01*
X134047622Y-47563558D01*
X134152956Y-47405915D01*
X134225512Y-47230751D01*
X134262500Y-47044798D01*
X134262500Y-46855202D01*
X134262499Y-46855197D01*
X134877500Y-46855197D01*
X134877500Y-47044802D01*
X134914486Y-47230743D01*
X134914488Y-47230751D01*
X134987042Y-47405912D01*
X135092377Y-47563558D01*
X135226441Y-47697622D01*
X135331300Y-47767686D01*
X135384085Y-47802956D01*
X135559249Y-47875512D01*
X135745197Y-47912499D01*
X135745201Y-47912500D01*
X135745202Y-47912500D01*
X135934799Y-47912500D01*
X135934800Y-47912499D01*
X136120751Y-47875512D01*
X136295915Y-47802956D01*
X136453558Y-47697622D01*
X136587622Y-47563558D01*
X136692956Y-47405915D01*
X136765512Y-47230751D01*
X136802500Y-47044798D01*
X136802500Y-46855202D01*
X136802499Y-46855197D01*
X145037500Y-46855197D01*
X145037500Y-47044802D01*
X145074486Y-47230743D01*
X145074488Y-47230751D01*
X145147042Y-47405912D01*
X145252377Y-47563558D01*
X145386441Y-47697622D01*
X145491300Y-47767686D01*
X145544085Y-47802956D01*
X145719249Y-47875512D01*
X145905197Y-47912499D01*
X145905201Y-47912500D01*
X145905202Y-47912500D01*
X146094799Y-47912500D01*
X146094800Y-47912499D01*
X146280751Y-47875512D01*
X146455915Y-47802956D01*
X146613558Y-47697622D01*
X146747622Y-47563558D01*
X146852956Y-47405915D01*
X146925512Y-47230751D01*
X146962500Y-47044798D01*
X146962500Y-46855202D01*
X146962499Y-46855197D01*
X147577500Y-46855197D01*
X147577500Y-47044802D01*
X147614486Y-47230743D01*
X147614488Y-47230751D01*
X147687042Y-47405912D01*
X147792377Y-47563558D01*
X147926441Y-47697622D01*
X148031300Y-47767686D01*
X148084085Y-47802956D01*
X148259249Y-47875512D01*
X148445197Y-47912499D01*
X148445201Y-47912500D01*
X148445202Y-47912500D01*
X148634799Y-47912500D01*
X148634800Y-47912499D01*
X148820751Y-47875512D01*
X148995915Y-47802956D01*
X149153558Y-47697622D01*
X149287622Y-47563558D01*
X149392956Y-47405915D01*
X149465512Y-47230751D01*
X149502500Y-47044798D01*
X149502500Y-46855202D01*
X149465512Y-46669249D01*
X149428646Y-46580247D01*
X155080250Y-46580247D01*
X155080250Y-48319752D01*
X155091881Y-48378229D01*
X155091882Y-48378230D01*
X155136197Y-48444552D01*
X155202519Y-48488867D01*
X155202520Y-48488868D01*
X155260997Y-48500499D01*
X155261000Y-48500500D01*
X155261002Y-48500500D01*
X157000500Y-48500500D01*
X157000501Y-48500499D01*
X157015318Y-48497552D01*
X157058979Y-48488868D01*
X157058979Y-48488867D01*
X157058981Y-48488867D01*
X157125302Y-48444552D01*
X157169617Y-48378231D01*
X157169617Y-48378229D01*
X157169618Y-48378229D01*
X157181249Y-48319752D01*
X157181250Y-48319750D01*
X157181250Y-46580249D01*
X157181249Y-46580247D01*
X157169618Y-46521770D01*
X157169617Y-46521769D01*
X157125302Y-46455447D01*
X157058980Y-46411132D01*
X157058979Y-46411131D01*
X157000502Y-46399500D01*
X157000498Y-46399500D01*
X155261002Y-46399500D01*
X155260997Y-46399500D01*
X155202520Y-46411131D01*
X155202519Y-46411132D01*
X155136197Y-46455447D01*
X155091882Y-46521769D01*
X155091881Y-46521770D01*
X155080250Y-46580247D01*
X149428646Y-46580247D01*
X149404424Y-46521770D01*
X149392957Y-46494086D01*
X149287622Y-46336441D01*
X149153558Y-46202377D01*
X148995912Y-46097042D01*
X148820751Y-46024488D01*
X148820743Y-46024486D01*
X148634802Y-45987500D01*
X148634798Y-45987500D01*
X148445202Y-45987500D01*
X148445197Y-45987500D01*
X148259256Y-46024486D01*
X148259248Y-46024488D01*
X148084087Y-46097042D01*
X147926441Y-46202377D01*
X147792377Y-46336441D01*
X147687042Y-46494087D01*
X147614488Y-46669248D01*
X147614486Y-46669256D01*
X147577500Y-46855197D01*
X146962499Y-46855197D01*
X146925512Y-46669249D01*
X146852956Y-46494085D01*
X146797529Y-46411133D01*
X146747622Y-46336441D01*
X146613558Y-46202377D01*
X146455912Y-46097042D01*
X146280751Y-46024488D01*
X146280743Y-46024486D01*
X146094802Y-45987500D01*
X146094798Y-45987500D01*
X145905202Y-45987500D01*
X145905197Y-45987500D01*
X145719256Y-46024486D01*
X145719248Y-46024488D01*
X145544087Y-46097042D01*
X145386441Y-46202377D01*
X145252377Y-46336441D01*
X145147042Y-46494087D01*
X145074488Y-46669248D01*
X145074486Y-46669256D01*
X145037500Y-46855197D01*
X136802499Y-46855197D01*
X136765512Y-46669249D01*
X136692956Y-46494085D01*
X136637529Y-46411133D01*
X136587622Y-46336441D01*
X136453558Y-46202377D01*
X136295912Y-46097042D01*
X136120751Y-46024488D01*
X136120743Y-46024486D01*
X135934802Y-45987500D01*
X135934798Y-45987500D01*
X135745202Y-45987500D01*
X135745197Y-45987500D01*
X135559256Y-46024486D01*
X135559248Y-46024488D01*
X135384087Y-46097042D01*
X135226441Y-46202377D01*
X135092377Y-46336441D01*
X134987042Y-46494087D01*
X134914488Y-46669248D01*
X134914486Y-46669256D01*
X134877500Y-46855197D01*
X134262499Y-46855197D01*
X134225512Y-46669249D01*
X134152956Y-46494085D01*
X134097529Y-46411133D01*
X134047622Y-46336441D01*
X133913558Y-46202377D01*
X133755912Y-46097042D01*
X133580751Y-46024488D01*
X133580743Y-46024486D01*
X133394802Y-45987500D01*
X133394798Y-45987500D01*
X133205202Y-45987500D01*
X133205197Y-45987500D01*
X133019256Y-46024486D01*
X133019248Y-46024488D01*
X132844087Y-46097042D01*
X132686441Y-46202377D01*
X132552377Y-46336441D01*
X132447042Y-46494087D01*
X132374488Y-46669248D01*
X132374486Y-46669256D01*
X132337500Y-46855197D01*
X124890500Y-46855197D01*
X124890500Y-46580249D01*
X124890499Y-46580247D01*
X124878868Y-46521770D01*
X124878867Y-46521769D01*
X124834552Y-46455447D01*
X124768230Y-46411132D01*
X124768229Y-46411131D01*
X124709752Y-46399500D01*
X124709748Y-46399500D01*
X122970252Y-46399500D01*
X122970247Y-46399500D01*
X122911770Y-46411131D01*
X122911769Y-46411132D01*
X122845447Y-46455447D01*
X122801132Y-46521769D01*
X122801131Y-46521770D01*
X122789500Y-46580247D01*
X102500500Y-46580247D01*
X102500500Y-41624500D01*
X102520185Y-41557461D01*
X102572989Y-41511706D01*
X102624500Y-41500500D01*
X172375500Y-41500500D01*
X172442539Y-41520185D01*
G37*
%TD.AperFunction*%
%TD*%
M02*
