%TF.GenerationSoftware,KiCad,Pcbnew,9.0.8-1.fc43*%
%TF.CreationDate,2026-03-29T18:07:38-06:00*%
%TF.ProjectId,Asistente,41736973-7465-46e7-9465-2e6b69636164,rev?*%
%TF.SameCoordinates,Original*%
%TF.FileFunction,Legend,Top*%
%TF.FilePolarity,Positive*%
%FSLAX46Y46*%
G04 Gerber Fmt 4.6, Leading zero omitted, Abs format (unit mm)*
G04 Created by KiCad (PCBNEW 9.0.8-1.fc43) date 2026-03-29 18:07:38*
%MOMM*%
%LPD*%
G01*
G04 APERTURE LIST*
G04 Aperture macros list*
%AMRoundRect*
0 Rectangle with rounded corners*
0 $1 Rounding radius*
0 $2 $3 $4 $5 $6 $7 $8 $9 X,Y pos of 4 corners*
0 Add a 4 corners polygon primitive as box body*
4,1,4,$2,$3,$4,$5,$6,$7,$8,$9,$2,$3,0*
0 Add four circle primitives for the rounded corners*
1,1,$1+$1,$2,$3*
1,1,$1+$1,$4,$5*
1,1,$1+$1,$6,$7*
1,1,$1+$1,$8,$9*
0 Add four rect primitives between the rounded corners*
20,1,$1+$1,$2,$3,$4,$5,0*
20,1,$1+$1,$4,$5,$6,$7,0*
20,1,$1+$1,$6,$7,$8,$9,0*
20,1,$1+$1,$8,$9,$2,$3,0*%
G04 Aperture macros list end*
%ADD10C,0.150000*%
%ADD11C,0.100000*%
%ADD12C,0.200000*%
%ADD13C,0.120000*%
%ADD14O,1.900000X1.524000*%
%ADD15C,1.600000*%
%ADD16R,1.700000X1.700000*%
%ADD17C,1.524000*%
%ADD18RoundRect,0.250000X-0.750000X0.750000X-0.750000X-0.750000X0.750000X-0.750000X0.750000X0.750000X0*%
%ADD19C,2.000000*%
G04 APERTURE END LIST*
D10*
X105952380Y-63669104D02*
X106428570Y-63669104D01*
X105857142Y-63954819D02*
X106190475Y-62954819D01*
X106190475Y-62954819D02*
X106523808Y-63954819D01*
X106809523Y-63907200D02*
X106904761Y-63954819D01*
X106904761Y-63954819D02*
X107095237Y-63954819D01*
X107095237Y-63954819D02*
X107190475Y-63907200D01*
X107190475Y-63907200D02*
X107238094Y-63811961D01*
X107238094Y-63811961D02*
X107238094Y-63764342D01*
X107238094Y-63764342D02*
X107190475Y-63669104D01*
X107190475Y-63669104D02*
X107095237Y-63621485D01*
X107095237Y-63621485D02*
X106952380Y-63621485D01*
X106952380Y-63621485D02*
X106857142Y-63573866D01*
X106857142Y-63573866D02*
X106809523Y-63478628D01*
X106809523Y-63478628D02*
X106809523Y-63431009D01*
X106809523Y-63431009D02*
X106857142Y-63335771D01*
X106857142Y-63335771D02*
X106952380Y-63288152D01*
X106952380Y-63288152D02*
X107095237Y-63288152D01*
X107095237Y-63288152D02*
X107190475Y-63335771D01*
X107666666Y-63954819D02*
X107666666Y-63288152D01*
X107666666Y-62954819D02*
X107619047Y-63002438D01*
X107619047Y-63002438D02*
X107666666Y-63050057D01*
X107666666Y-63050057D02*
X107714285Y-63002438D01*
X107714285Y-63002438D02*
X107666666Y-62954819D01*
X107666666Y-62954819D02*
X107666666Y-63050057D01*
X108095237Y-63907200D02*
X108190475Y-63954819D01*
X108190475Y-63954819D02*
X108380951Y-63954819D01*
X108380951Y-63954819D02*
X108476189Y-63907200D01*
X108476189Y-63907200D02*
X108523808Y-63811961D01*
X108523808Y-63811961D02*
X108523808Y-63764342D01*
X108523808Y-63764342D02*
X108476189Y-63669104D01*
X108476189Y-63669104D02*
X108380951Y-63621485D01*
X108380951Y-63621485D02*
X108238094Y-63621485D01*
X108238094Y-63621485D02*
X108142856Y-63573866D01*
X108142856Y-63573866D02*
X108095237Y-63478628D01*
X108095237Y-63478628D02*
X108095237Y-63431009D01*
X108095237Y-63431009D02*
X108142856Y-63335771D01*
X108142856Y-63335771D02*
X108238094Y-63288152D01*
X108238094Y-63288152D02*
X108380951Y-63288152D01*
X108380951Y-63288152D02*
X108476189Y-63335771D01*
X108809523Y-63288152D02*
X109190475Y-63288152D01*
X108952380Y-62954819D02*
X108952380Y-63811961D01*
X108952380Y-63811961D02*
X108999999Y-63907200D01*
X108999999Y-63907200D02*
X109095237Y-63954819D01*
X109095237Y-63954819D02*
X109190475Y-63954819D01*
X109904761Y-63907200D02*
X109809523Y-63954819D01*
X109809523Y-63954819D02*
X109619047Y-63954819D01*
X109619047Y-63954819D02*
X109523809Y-63907200D01*
X109523809Y-63907200D02*
X109476190Y-63811961D01*
X109476190Y-63811961D02*
X109476190Y-63431009D01*
X109476190Y-63431009D02*
X109523809Y-63335771D01*
X109523809Y-63335771D02*
X109619047Y-63288152D01*
X109619047Y-63288152D02*
X109809523Y-63288152D01*
X109809523Y-63288152D02*
X109904761Y-63335771D01*
X109904761Y-63335771D02*
X109952380Y-63431009D01*
X109952380Y-63431009D02*
X109952380Y-63526247D01*
X109952380Y-63526247D02*
X109476190Y-63621485D01*
X110380952Y-63288152D02*
X110380952Y-63954819D01*
X110380952Y-63383390D02*
X110428571Y-63335771D01*
X110428571Y-63335771D02*
X110523809Y-63288152D01*
X110523809Y-63288152D02*
X110666666Y-63288152D01*
X110666666Y-63288152D02*
X110761904Y-63335771D01*
X110761904Y-63335771D02*
X110809523Y-63431009D01*
X110809523Y-63431009D02*
X110809523Y-63954819D01*
X111142857Y-63288152D02*
X111523809Y-63288152D01*
X111285714Y-62954819D02*
X111285714Y-63811961D01*
X111285714Y-63811961D02*
X111333333Y-63907200D01*
X111333333Y-63907200D02*
X111428571Y-63954819D01*
X111428571Y-63954819D02*
X111523809Y-63954819D01*
X112238095Y-63907200D02*
X112142857Y-63954819D01*
X112142857Y-63954819D02*
X111952381Y-63954819D01*
X111952381Y-63954819D02*
X111857143Y-63907200D01*
X111857143Y-63907200D02*
X111809524Y-63811961D01*
X111809524Y-63811961D02*
X111809524Y-63431009D01*
X111809524Y-63431009D02*
X111857143Y-63335771D01*
X111857143Y-63335771D02*
X111952381Y-63288152D01*
X111952381Y-63288152D02*
X112142857Y-63288152D01*
X112142857Y-63288152D02*
X112238095Y-63335771D01*
X112238095Y-63335771D02*
X112285714Y-63431009D01*
X112285714Y-63431009D02*
X112285714Y-63526247D01*
X112285714Y-63526247D02*
X111809524Y-63621485D01*
X162219047Y-122628819D02*
X162219047Y-121628819D01*
X162219047Y-121628819D02*
X162599999Y-121628819D01*
X162599999Y-121628819D02*
X162695237Y-121676438D01*
X162695237Y-121676438D02*
X162742856Y-121724057D01*
X162742856Y-121724057D02*
X162790475Y-121819295D01*
X162790475Y-121819295D02*
X162790475Y-121962152D01*
X162790475Y-121962152D02*
X162742856Y-122057390D01*
X162742856Y-122057390D02*
X162695237Y-122105009D01*
X162695237Y-122105009D02*
X162599999Y-122152628D01*
X162599999Y-122152628D02*
X162219047Y-122152628D01*
X163647618Y-122628819D02*
X163647618Y-122105009D01*
X163647618Y-122105009D02*
X163599999Y-122009771D01*
X163599999Y-122009771D02*
X163504761Y-121962152D01*
X163504761Y-121962152D02*
X163314285Y-121962152D01*
X163314285Y-121962152D02*
X163219047Y-122009771D01*
X163647618Y-122581200D02*
X163552380Y-122628819D01*
X163552380Y-122628819D02*
X163314285Y-122628819D01*
X163314285Y-122628819D02*
X163219047Y-122581200D01*
X163219047Y-122581200D02*
X163171428Y-122485961D01*
X163171428Y-122485961D02*
X163171428Y-122390723D01*
X163171428Y-122390723D02*
X163219047Y-122295485D01*
X163219047Y-122295485D02*
X163314285Y-122247866D01*
X163314285Y-122247866D02*
X163552380Y-122247866D01*
X163552380Y-122247866D02*
X163647618Y-122200247D01*
X164123809Y-121962152D02*
X164123809Y-122628819D01*
X164123809Y-122057390D02*
X164171428Y-122009771D01*
X164171428Y-122009771D02*
X164266666Y-121962152D01*
X164266666Y-121962152D02*
X164409523Y-121962152D01*
X164409523Y-121962152D02*
X164504761Y-122009771D01*
X164504761Y-122009771D02*
X164552380Y-122105009D01*
X164552380Y-122105009D02*
X164552380Y-122628819D01*
X164885714Y-121962152D02*
X165266666Y-121962152D01*
X165028571Y-121628819D02*
X165028571Y-122485961D01*
X165028571Y-122485961D02*
X165076190Y-122581200D01*
X165076190Y-122581200D02*
X165171428Y-122628819D01*
X165171428Y-122628819D02*
X165266666Y-122628819D01*
X166028571Y-122628819D02*
X166028571Y-122105009D01*
X166028571Y-122105009D02*
X165980952Y-122009771D01*
X165980952Y-122009771D02*
X165885714Y-121962152D01*
X165885714Y-121962152D02*
X165695238Y-121962152D01*
X165695238Y-121962152D02*
X165600000Y-122009771D01*
X166028571Y-122581200D02*
X165933333Y-122628819D01*
X165933333Y-122628819D02*
X165695238Y-122628819D01*
X165695238Y-122628819D02*
X165600000Y-122581200D01*
X165600000Y-122581200D02*
X165552381Y-122485961D01*
X165552381Y-122485961D02*
X165552381Y-122390723D01*
X165552381Y-122390723D02*
X165600000Y-122295485D01*
X165600000Y-122295485D02*
X165695238Y-122247866D01*
X165695238Y-122247866D02*
X165933333Y-122247866D01*
X165933333Y-122247866D02*
X166028571Y-122200247D01*
X166647619Y-122628819D02*
X166552381Y-122581200D01*
X166552381Y-122581200D02*
X166504762Y-122485961D01*
X166504762Y-122485961D02*
X166504762Y-121628819D01*
X167171429Y-122628819D02*
X167076191Y-122581200D01*
X167076191Y-122581200D02*
X167028572Y-122485961D01*
X167028572Y-122485961D02*
X167028572Y-121628819D01*
X167980953Y-122628819D02*
X167980953Y-122105009D01*
X167980953Y-122105009D02*
X167933334Y-122009771D01*
X167933334Y-122009771D02*
X167838096Y-121962152D01*
X167838096Y-121962152D02*
X167647620Y-121962152D01*
X167647620Y-121962152D02*
X167552382Y-122009771D01*
X167980953Y-122581200D02*
X167885715Y-122628819D01*
X167885715Y-122628819D02*
X167647620Y-122628819D01*
X167647620Y-122628819D02*
X167552382Y-122581200D01*
X167552382Y-122581200D02*
X167504763Y-122485961D01*
X167504763Y-122485961D02*
X167504763Y-122390723D01*
X167504763Y-122390723D02*
X167552382Y-122295485D01*
X167552382Y-122295485D02*
X167647620Y-122247866D01*
X167647620Y-122247866D02*
X167885715Y-122247866D01*
X167885715Y-122247866D02*
X167980953Y-122200247D01*
X169045180Y-84095238D02*
X170045180Y-84095238D01*
X170045180Y-84095238D02*
X169330895Y-84428571D01*
X169330895Y-84428571D02*
X170045180Y-84761904D01*
X170045180Y-84761904D02*
X169045180Y-84761904D01*
X169045180Y-85238095D02*
X169711847Y-85238095D01*
X170045180Y-85238095D02*
X169997561Y-85190476D01*
X169997561Y-85190476D02*
X169949942Y-85238095D01*
X169949942Y-85238095D02*
X169997561Y-85285714D01*
X169997561Y-85285714D02*
X170045180Y-85238095D01*
X170045180Y-85238095D02*
X169949942Y-85238095D01*
X169092800Y-86142856D02*
X169045180Y-86047618D01*
X169045180Y-86047618D02*
X169045180Y-85857142D01*
X169045180Y-85857142D02*
X169092800Y-85761904D01*
X169092800Y-85761904D02*
X169140419Y-85714285D01*
X169140419Y-85714285D02*
X169235657Y-85666666D01*
X169235657Y-85666666D02*
X169521371Y-85666666D01*
X169521371Y-85666666D02*
X169616609Y-85714285D01*
X169616609Y-85714285D02*
X169664228Y-85761904D01*
X169664228Y-85761904D02*
X169711847Y-85857142D01*
X169711847Y-85857142D02*
X169711847Y-86047618D01*
X169711847Y-86047618D02*
X169664228Y-86142856D01*
X169045180Y-86571428D02*
X169711847Y-86571428D01*
X169521371Y-86571428D02*
X169616609Y-86619047D01*
X169616609Y-86619047D02*
X169664228Y-86666666D01*
X169664228Y-86666666D02*
X169711847Y-86761904D01*
X169711847Y-86761904D02*
X169711847Y-86857142D01*
X169045180Y-87333333D02*
X169092800Y-87238095D01*
X169092800Y-87238095D02*
X169140419Y-87190476D01*
X169140419Y-87190476D02*
X169235657Y-87142857D01*
X169235657Y-87142857D02*
X169521371Y-87142857D01*
X169521371Y-87142857D02*
X169616609Y-87190476D01*
X169616609Y-87190476D02*
X169664228Y-87238095D01*
X169664228Y-87238095D02*
X169711847Y-87333333D01*
X169711847Y-87333333D02*
X169711847Y-87476190D01*
X169711847Y-87476190D02*
X169664228Y-87571428D01*
X169664228Y-87571428D02*
X169616609Y-87619047D01*
X169616609Y-87619047D02*
X169521371Y-87666666D01*
X169521371Y-87666666D02*
X169235657Y-87666666D01*
X169235657Y-87666666D02*
X169140419Y-87619047D01*
X169140419Y-87619047D02*
X169092800Y-87571428D01*
X169092800Y-87571428D02*
X169045180Y-87476190D01*
X169045180Y-87476190D02*
X169045180Y-87333333D01*
X169711847Y-87952381D02*
X169711847Y-88333333D01*
X169045180Y-88095238D02*
X169902323Y-88095238D01*
X169902323Y-88095238D02*
X169997561Y-88142857D01*
X169997561Y-88142857D02*
X170045180Y-88238095D01*
X170045180Y-88238095D02*
X170045180Y-88333333D01*
X169045180Y-88809524D02*
X169092800Y-88714286D01*
X169092800Y-88714286D02*
X169140419Y-88666667D01*
X169140419Y-88666667D02*
X169235657Y-88619048D01*
X169235657Y-88619048D02*
X169521371Y-88619048D01*
X169521371Y-88619048D02*
X169616609Y-88666667D01*
X169616609Y-88666667D02*
X169664228Y-88714286D01*
X169664228Y-88714286D02*
X169711847Y-88809524D01*
X169711847Y-88809524D02*
X169711847Y-88952381D01*
X169711847Y-88952381D02*
X169664228Y-89047619D01*
X169664228Y-89047619D02*
X169616609Y-89095238D01*
X169616609Y-89095238D02*
X169521371Y-89142857D01*
X169521371Y-89142857D02*
X169235657Y-89142857D01*
X169235657Y-89142857D02*
X169140419Y-89095238D01*
X169140419Y-89095238D02*
X169092800Y-89047619D01*
X169092800Y-89047619D02*
X169045180Y-88952381D01*
X169045180Y-88952381D02*
X169045180Y-88809524D01*
X169711847Y-89571429D02*
X169045180Y-89571429D01*
X169616609Y-89571429D02*
X169664228Y-89619048D01*
X169664228Y-89619048D02*
X169711847Y-89714286D01*
X169711847Y-89714286D02*
X169711847Y-89857143D01*
X169711847Y-89857143D02*
X169664228Y-89952381D01*
X169664228Y-89952381D02*
X169568990Y-90000000D01*
X169568990Y-90000000D02*
X169045180Y-90000000D01*
X169045180Y-90619048D02*
X169092800Y-90523810D01*
X169092800Y-90523810D02*
X169140419Y-90476191D01*
X169140419Y-90476191D02*
X169235657Y-90428572D01*
X169235657Y-90428572D02*
X169521371Y-90428572D01*
X169521371Y-90428572D02*
X169616609Y-90476191D01*
X169616609Y-90476191D02*
X169664228Y-90523810D01*
X169664228Y-90523810D02*
X169711847Y-90619048D01*
X169711847Y-90619048D02*
X169711847Y-90761905D01*
X169711847Y-90761905D02*
X169664228Y-90857143D01*
X169664228Y-90857143D02*
X169616609Y-90904762D01*
X169616609Y-90904762D02*
X169521371Y-90952381D01*
X169521371Y-90952381D02*
X169235657Y-90952381D01*
X169235657Y-90952381D02*
X169140419Y-90904762D01*
X169140419Y-90904762D02*
X169092800Y-90857143D01*
X169092800Y-90857143D02*
X169045180Y-90761905D01*
X169045180Y-90761905D02*
X169045180Y-90619048D01*
D11*
X147093424Y-104203475D02*
X146988662Y-104155856D01*
X146988662Y-104155856D02*
X146831519Y-104155856D01*
X146831519Y-104155856D02*
X146674376Y-104203475D01*
X146674376Y-104203475D02*
X146569614Y-104298713D01*
X146569614Y-104298713D02*
X146517233Y-104393951D01*
X146517233Y-104393951D02*
X146464852Y-104584427D01*
X146464852Y-104584427D02*
X146464852Y-104727284D01*
X146464852Y-104727284D02*
X146517233Y-104917760D01*
X146517233Y-104917760D02*
X146569614Y-105012998D01*
X146569614Y-105012998D02*
X146674376Y-105108237D01*
X146674376Y-105108237D02*
X146831519Y-105155856D01*
X146831519Y-105155856D02*
X146936281Y-105155856D01*
X146936281Y-105155856D02*
X147093424Y-105108237D01*
X147093424Y-105108237D02*
X147145805Y-105060617D01*
X147145805Y-105060617D02*
X147145805Y-104727284D01*
X147145805Y-104727284D02*
X146936281Y-104727284D01*
X147617233Y-105155856D02*
X147617233Y-104155856D01*
X147617233Y-104155856D02*
X148036281Y-104155856D01*
X148036281Y-104155856D02*
X148141043Y-104203475D01*
X148141043Y-104203475D02*
X148193424Y-104251094D01*
X148193424Y-104251094D02*
X148245805Y-104346332D01*
X148245805Y-104346332D02*
X148245805Y-104489189D01*
X148245805Y-104489189D02*
X148193424Y-104584427D01*
X148193424Y-104584427D02*
X148141043Y-104632046D01*
X148141043Y-104632046D02*
X148036281Y-104679665D01*
X148036281Y-104679665D02*
X147617233Y-104679665D01*
X148717233Y-105155856D02*
X148717233Y-104155856D01*
X149450567Y-104155856D02*
X149660091Y-104155856D01*
X149660091Y-104155856D02*
X149764853Y-104203475D01*
X149764853Y-104203475D02*
X149869615Y-104298713D01*
X149869615Y-104298713D02*
X149921996Y-104489189D01*
X149921996Y-104489189D02*
X149921996Y-104822522D01*
X149921996Y-104822522D02*
X149869615Y-105012998D01*
X149869615Y-105012998D02*
X149764853Y-105108237D01*
X149764853Y-105108237D02*
X149660091Y-105155856D01*
X149660091Y-105155856D02*
X149450567Y-105155856D01*
X149450567Y-105155856D02*
X149345805Y-105108237D01*
X149345805Y-105108237D02*
X149241043Y-105012998D01*
X149241043Y-105012998D02*
X149188662Y-104822522D01*
X149188662Y-104822522D02*
X149188662Y-104489189D01*
X149188662Y-104489189D02*
X149241043Y-104298713D01*
X149241043Y-104298713D02*
X149345805Y-104203475D01*
X149345805Y-104203475D02*
X149450567Y-104155856D01*
X150969615Y-105155856D02*
X150341043Y-105155856D01*
X150655329Y-105155856D02*
X150655329Y-104155856D01*
X150655329Y-104155856D02*
X150550567Y-104298713D01*
X150550567Y-104298713D02*
X150445805Y-104393951D01*
X150445805Y-104393951D02*
X150341043Y-104441570D01*
X151912472Y-104155856D02*
X151702948Y-104155856D01*
X151702948Y-104155856D02*
X151598186Y-104203475D01*
X151598186Y-104203475D02*
X151545805Y-104251094D01*
X151545805Y-104251094D02*
X151441043Y-104393951D01*
X151441043Y-104393951D02*
X151388662Y-104584427D01*
X151388662Y-104584427D02*
X151388662Y-104965379D01*
X151388662Y-104965379D02*
X151441043Y-105060617D01*
X151441043Y-105060617D02*
X151493424Y-105108237D01*
X151493424Y-105108237D02*
X151598186Y-105155856D01*
X151598186Y-105155856D02*
X151807710Y-105155856D01*
X151807710Y-105155856D02*
X151912472Y-105108237D01*
X151912472Y-105108237D02*
X151964853Y-105060617D01*
X151964853Y-105060617D02*
X152017234Y-104965379D01*
X152017234Y-104965379D02*
X152017234Y-104727284D01*
X152017234Y-104727284D02*
X151964853Y-104632046D01*
X151964853Y-104632046D02*
X151912472Y-104584427D01*
X151912472Y-104584427D02*
X151807710Y-104536808D01*
X151807710Y-104536808D02*
X151598186Y-104536808D01*
X151598186Y-104536808D02*
X151493424Y-104584427D01*
X151493424Y-104584427D02*
X151441043Y-104632046D01*
X151441043Y-104632046D02*
X151388662Y-104727284D01*
X129593424Y-99203475D02*
X129488662Y-99155856D01*
X129488662Y-99155856D02*
X129331519Y-99155856D01*
X129331519Y-99155856D02*
X129174376Y-99203475D01*
X129174376Y-99203475D02*
X129069614Y-99298713D01*
X129069614Y-99298713D02*
X129017233Y-99393951D01*
X129017233Y-99393951D02*
X128964852Y-99584427D01*
X128964852Y-99584427D02*
X128964852Y-99727284D01*
X128964852Y-99727284D02*
X129017233Y-99917760D01*
X129017233Y-99917760D02*
X129069614Y-100012998D01*
X129069614Y-100012998D02*
X129174376Y-100108237D01*
X129174376Y-100108237D02*
X129331519Y-100155856D01*
X129331519Y-100155856D02*
X129436281Y-100155856D01*
X129436281Y-100155856D02*
X129593424Y-100108237D01*
X129593424Y-100108237D02*
X129645805Y-100060617D01*
X129645805Y-100060617D02*
X129645805Y-99727284D01*
X129645805Y-99727284D02*
X129436281Y-99727284D01*
X130117233Y-100155856D02*
X130117233Y-99155856D01*
X130117233Y-99155856D02*
X130536281Y-99155856D01*
X130536281Y-99155856D02*
X130641043Y-99203475D01*
X130641043Y-99203475D02*
X130693424Y-99251094D01*
X130693424Y-99251094D02*
X130745805Y-99346332D01*
X130745805Y-99346332D02*
X130745805Y-99489189D01*
X130745805Y-99489189D02*
X130693424Y-99584427D01*
X130693424Y-99584427D02*
X130641043Y-99632046D01*
X130641043Y-99632046D02*
X130536281Y-99679665D01*
X130536281Y-99679665D02*
X130117233Y-99679665D01*
X131217233Y-100155856D02*
X131217233Y-99155856D01*
X131950567Y-99155856D02*
X132160091Y-99155856D01*
X132160091Y-99155856D02*
X132264853Y-99203475D01*
X132264853Y-99203475D02*
X132369615Y-99298713D01*
X132369615Y-99298713D02*
X132421996Y-99489189D01*
X132421996Y-99489189D02*
X132421996Y-99822522D01*
X132421996Y-99822522D02*
X132369615Y-100012998D01*
X132369615Y-100012998D02*
X132264853Y-100108237D01*
X132264853Y-100108237D02*
X132160091Y-100155856D01*
X132160091Y-100155856D02*
X131950567Y-100155856D01*
X131950567Y-100155856D02*
X131845805Y-100108237D01*
X131845805Y-100108237D02*
X131741043Y-100012998D01*
X131741043Y-100012998D02*
X131688662Y-99822522D01*
X131688662Y-99822522D02*
X131688662Y-99489189D01*
X131688662Y-99489189D02*
X131741043Y-99298713D01*
X131741043Y-99298713D02*
X131845805Y-99203475D01*
X131845805Y-99203475D02*
X131950567Y-99155856D01*
X132841043Y-99251094D02*
X132893424Y-99203475D01*
X132893424Y-99203475D02*
X132998186Y-99155856D01*
X132998186Y-99155856D02*
X133260091Y-99155856D01*
X133260091Y-99155856D02*
X133364853Y-99203475D01*
X133364853Y-99203475D02*
X133417234Y-99251094D01*
X133417234Y-99251094D02*
X133469615Y-99346332D01*
X133469615Y-99346332D02*
X133469615Y-99441570D01*
X133469615Y-99441570D02*
X133417234Y-99584427D01*
X133417234Y-99584427D02*
X132788662Y-100155856D01*
X132788662Y-100155856D02*
X133469615Y-100155856D01*
X134464853Y-99155856D02*
X133941043Y-99155856D01*
X133941043Y-99155856D02*
X133888662Y-99632046D01*
X133888662Y-99632046D02*
X133941043Y-99584427D01*
X133941043Y-99584427D02*
X134045805Y-99536808D01*
X134045805Y-99536808D02*
X134307710Y-99536808D01*
X134307710Y-99536808D02*
X134412472Y-99584427D01*
X134412472Y-99584427D02*
X134464853Y-99632046D01*
X134464853Y-99632046D02*
X134517234Y-99727284D01*
X134517234Y-99727284D02*
X134517234Y-99965379D01*
X134517234Y-99965379D02*
X134464853Y-100060617D01*
X134464853Y-100060617D02*
X134412472Y-100108237D01*
X134412472Y-100108237D02*
X134307710Y-100155856D01*
X134307710Y-100155856D02*
X134045805Y-100155856D01*
X134045805Y-100155856D02*
X133941043Y-100108237D01*
X133941043Y-100108237D02*
X133888662Y-100060617D01*
X129593424Y-101703475D02*
X129488662Y-101655856D01*
X129488662Y-101655856D02*
X129331519Y-101655856D01*
X129331519Y-101655856D02*
X129174376Y-101703475D01*
X129174376Y-101703475D02*
X129069614Y-101798713D01*
X129069614Y-101798713D02*
X129017233Y-101893951D01*
X129017233Y-101893951D02*
X128964852Y-102084427D01*
X128964852Y-102084427D02*
X128964852Y-102227284D01*
X128964852Y-102227284D02*
X129017233Y-102417760D01*
X129017233Y-102417760D02*
X129069614Y-102512998D01*
X129069614Y-102512998D02*
X129174376Y-102608237D01*
X129174376Y-102608237D02*
X129331519Y-102655856D01*
X129331519Y-102655856D02*
X129436281Y-102655856D01*
X129436281Y-102655856D02*
X129593424Y-102608237D01*
X129593424Y-102608237D02*
X129645805Y-102560617D01*
X129645805Y-102560617D02*
X129645805Y-102227284D01*
X129645805Y-102227284D02*
X129436281Y-102227284D01*
X130117233Y-102655856D02*
X130117233Y-101655856D01*
X130117233Y-101655856D02*
X130536281Y-101655856D01*
X130536281Y-101655856D02*
X130641043Y-101703475D01*
X130641043Y-101703475D02*
X130693424Y-101751094D01*
X130693424Y-101751094D02*
X130745805Y-101846332D01*
X130745805Y-101846332D02*
X130745805Y-101989189D01*
X130745805Y-101989189D02*
X130693424Y-102084427D01*
X130693424Y-102084427D02*
X130641043Y-102132046D01*
X130641043Y-102132046D02*
X130536281Y-102179665D01*
X130536281Y-102179665D02*
X130117233Y-102179665D01*
X131217233Y-102655856D02*
X131217233Y-101655856D01*
X131950567Y-101655856D02*
X132160091Y-101655856D01*
X132160091Y-101655856D02*
X132264853Y-101703475D01*
X132264853Y-101703475D02*
X132369615Y-101798713D01*
X132369615Y-101798713D02*
X132421996Y-101989189D01*
X132421996Y-101989189D02*
X132421996Y-102322522D01*
X132421996Y-102322522D02*
X132369615Y-102512998D01*
X132369615Y-102512998D02*
X132264853Y-102608237D01*
X132264853Y-102608237D02*
X132160091Y-102655856D01*
X132160091Y-102655856D02*
X131950567Y-102655856D01*
X131950567Y-102655856D02*
X131845805Y-102608237D01*
X131845805Y-102608237D02*
X131741043Y-102512998D01*
X131741043Y-102512998D02*
X131688662Y-102322522D01*
X131688662Y-102322522D02*
X131688662Y-101989189D01*
X131688662Y-101989189D02*
X131741043Y-101798713D01*
X131741043Y-101798713D02*
X131845805Y-101703475D01*
X131845805Y-101703475D02*
X131950567Y-101655856D01*
X132841043Y-101751094D02*
X132893424Y-101703475D01*
X132893424Y-101703475D02*
X132998186Y-101655856D01*
X132998186Y-101655856D02*
X133260091Y-101655856D01*
X133260091Y-101655856D02*
X133364853Y-101703475D01*
X133364853Y-101703475D02*
X133417234Y-101751094D01*
X133417234Y-101751094D02*
X133469615Y-101846332D01*
X133469615Y-101846332D02*
X133469615Y-101941570D01*
X133469615Y-101941570D02*
X133417234Y-102084427D01*
X133417234Y-102084427D02*
X132788662Y-102655856D01*
X132788662Y-102655856D02*
X133469615Y-102655856D01*
X134412472Y-101655856D02*
X134202948Y-101655856D01*
X134202948Y-101655856D02*
X134098186Y-101703475D01*
X134098186Y-101703475D02*
X134045805Y-101751094D01*
X134045805Y-101751094D02*
X133941043Y-101893951D01*
X133941043Y-101893951D02*
X133888662Y-102084427D01*
X133888662Y-102084427D02*
X133888662Y-102465379D01*
X133888662Y-102465379D02*
X133941043Y-102560617D01*
X133941043Y-102560617D02*
X133993424Y-102608237D01*
X133993424Y-102608237D02*
X134098186Y-102655856D01*
X134098186Y-102655856D02*
X134307710Y-102655856D01*
X134307710Y-102655856D02*
X134412472Y-102608237D01*
X134412472Y-102608237D02*
X134464853Y-102560617D01*
X134464853Y-102560617D02*
X134517234Y-102465379D01*
X134517234Y-102465379D02*
X134517234Y-102227284D01*
X134517234Y-102227284D02*
X134464853Y-102132046D01*
X134464853Y-102132046D02*
X134412472Y-102084427D01*
X134412472Y-102084427D02*
X134307710Y-102036808D01*
X134307710Y-102036808D02*
X134098186Y-102036808D01*
X134098186Y-102036808D02*
X133993424Y-102084427D01*
X133993424Y-102084427D02*
X133941043Y-102132046D01*
X133941043Y-102132046D02*
X133888662Y-102227284D01*
X148093424Y-89203475D02*
X147988662Y-89155856D01*
X147988662Y-89155856D02*
X147831519Y-89155856D01*
X147831519Y-89155856D02*
X147674376Y-89203475D01*
X147674376Y-89203475D02*
X147569614Y-89298713D01*
X147569614Y-89298713D02*
X147517233Y-89393951D01*
X147517233Y-89393951D02*
X147464852Y-89584427D01*
X147464852Y-89584427D02*
X147464852Y-89727284D01*
X147464852Y-89727284D02*
X147517233Y-89917760D01*
X147517233Y-89917760D02*
X147569614Y-90012998D01*
X147569614Y-90012998D02*
X147674376Y-90108237D01*
X147674376Y-90108237D02*
X147831519Y-90155856D01*
X147831519Y-90155856D02*
X147936281Y-90155856D01*
X147936281Y-90155856D02*
X148093424Y-90108237D01*
X148093424Y-90108237D02*
X148145805Y-90060617D01*
X148145805Y-90060617D02*
X148145805Y-89727284D01*
X148145805Y-89727284D02*
X147936281Y-89727284D01*
X148617233Y-90155856D02*
X148617233Y-89155856D01*
X148617233Y-89155856D02*
X149036281Y-89155856D01*
X149036281Y-89155856D02*
X149141043Y-89203475D01*
X149141043Y-89203475D02*
X149193424Y-89251094D01*
X149193424Y-89251094D02*
X149245805Y-89346332D01*
X149245805Y-89346332D02*
X149245805Y-89489189D01*
X149245805Y-89489189D02*
X149193424Y-89584427D01*
X149193424Y-89584427D02*
X149141043Y-89632046D01*
X149141043Y-89632046D02*
X149036281Y-89679665D01*
X149036281Y-89679665D02*
X148617233Y-89679665D01*
X149717233Y-90155856D02*
X149717233Y-89155856D01*
X150450567Y-89155856D02*
X150660091Y-89155856D01*
X150660091Y-89155856D02*
X150764853Y-89203475D01*
X150764853Y-89203475D02*
X150869615Y-89298713D01*
X150869615Y-89298713D02*
X150921996Y-89489189D01*
X150921996Y-89489189D02*
X150921996Y-89822522D01*
X150921996Y-89822522D02*
X150869615Y-90012998D01*
X150869615Y-90012998D02*
X150764853Y-90108237D01*
X150764853Y-90108237D02*
X150660091Y-90155856D01*
X150660091Y-90155856D02*
X150450567Y-90155856D01*
X150450567Y-90155856D02*
X150345805Y-90108237D01*
X150345805Y-90108237D02*
X150241043Y-90012998D01*
X150241043Y-90012998D02*
X150188662Y-89822522D01*
X150188662Y-89822522D02*
X150188662Y-89489189D01*
X150188662Y-89489189D02*
X150241043Y-89298713D01*
X150241043Y-89298713D02*
X150345805Y-89203475D01*
X150345805Y-89203475D02*
X150450567Y-89155856D01*
X151288662Y-89155856D02*
X151969615Y-89155856D01*
X151969615Y-89155856D02*
X151602948Y-89536808D01*
X151602948Y-89536808D02*
X151760091Y-89536808D01*
X151760091Y-89536808D02*
X151864853Y-89584427D01*
X151864853Y-89584427D02*
X151917234Y-89632046D01*
X151917234Y-89632046D02*
X151969615Y-89727284D01*
X151969615Y-89727284D02*
X151969615Y-89965379D01*
X151969615Y-89965379D02*
X151917234Y-90060617D01*
X151917234Y-90060617D02*
X151864853Y-90108237D01*
X151864853Y-90108237D02*
X151760091Y-90155856D01*
X151760091Y-90155856D02*
X151445805Y-90155856D01*
X151445805Y-90155856D02*
X151341043Y-90108237D01*
X151341043Y-90108237D02*
X151288662Y-90060617D01*
X129593424Y-89203475D02*
X129488662Y-89155856D01*
X129488662Y-89155856D02*
X129331519Y-89155856D01*
X129331519Y-89155856D02*
X129174376Y-89203475D01*
X129174376Y-89203475D02*
X129069614Y-89298713D01*
X129069614Y-89298713D02*
X129017233Y-89393951D01*
X129017233Y-89393951D02*
X128964852Y-89584427D01*
X128964852Y-89584427D02*
X128964852Y-89727284D01*
X128964852Y-89727284D02*
X129017233Y-89917760D01*
X129017233Y-89917760D02*
X129069614Y-90012998D01*
X129069614Y-90012998D02*
X129174376Y-90108237D01*
X129174376Y-90108237D02*
X129331519Y-90155856D01*
X129331519Y-90155856D02*
X129436281Y-90155856D01*
X129436281Y-90155856D02*
X129593424Y-90108237D01*
X129593424Y-90108237D02*
X129645805Y-90060617D01*
X129645805Y-90060617D02*
X129645805Y-89727284D01*
X129645805Y-89727284D02*
X129436281Y-89727284D01*
X130117233Y-90155856D02*
X130117233Y-89155856D01*
X130117233Y-89155856D02*
X130536281Y-89155856D01*
X130536281Y-89155856D02*
X130641043Y-89203475D01*
X130641043Y-89203475D02*
X130693424Y-89251094D01*
X130693424Y-89251094D02*
X130745805Y-89346332D01*
X130745805Y-89346332D02*
X130745805Y-89489189D01*
X130745805Y-89489189D02*
X130693424Y-89584427D01*
X130693424Y-89584427D02*
X130641043Y-89632046D01*
X130641043Y-89632046D02*
X130536281Y-89679665D01*
X130536281Y-89679665D02*
X130117233Y-89679665D01*
X131217233Y-90155856D02*
X131217233Y-89155856D01*
X131950567Y-89155856D02*
X132160091Y-89155856D01*
X132160091Y-89155856D02*
X132264853Y-89203475D01*
X132264853Y-89203475D02*
X132369615Y-89298713D01*
X132369615Y-89298713D02*
X132421996Y-89489189D01*
X132421996Y-89489189D02*
X132421996Y-89822522D01*
X132421996Y-89822522D02*
X132369615Y-90012998D01*
X132369615Y-90012998D02*
X132264853Y-90108237D01*
X132264853Y-90108237D02*
X132160091Y-90155856D01*
X132160091Y-90155856D02*
X131950567Y-90155856D01*
X131950567Y-90155856D02*
X131845805Y-90108237D01*
X131845805Y-90108237D02*
X131741043Y-90012998D01*
X131741043Y-90012998D02*
X131688662Y-89822522D01*
X131688662Y-89822522D02*
X131688662Y-89489189D01*
X131688662Y-89489189D02*
X131741043Y-89298713D01*
X131741043Y-89298713D02*
X131845805Y-89203475D01*
X131845805Y-89203475D02*
X131950567Y-89155856D01*
X132788662Y-89155856D02*
X133469615Y-89155856D01*
X133469615Y-89155856D02*
X133102948Y-89536808D01*
X133102948Y-89536808D02*
X133260091Y-89536808D01*
X133260091Y-89536808D02*
X133364853Y-89584427D01*
X133364853Y-89584427D02*
X133417234Y-89632046D01*
X133417234Y-89632046D02*
X133469615Y-89727284D01*
X133469615Y-89727284D02*
X133469615Y-89965379D01*
X133469615Y-89965379D02*
X133417234Y-90060617D01*
X133417234Y-90060617D02*
X133364853Y-90108237D01*
X133364853Y-90108237D02*
X133260091Y-90155856D01*
X133260091Y-90155856D02*
X132945805Y-90155856D01*
X132945805Y-90155856D02*
X132841043Y-90108237D01*
X132841043Y-90108237D02*
X132788662Y-90060617D01*
X134412472Y-89489189D02*
X134412472Y-90155856D01*
X134150567Y-89108237D02*
X133888662Y-89822522D01*
X133888662Y-89822522D02*
X134569615Y-89822522D01*
X147093424Y-101703475D02*
X146988662Y-101655856D01*
X146988662Y-101655856D02*
X146831519Y-101655856D01*
X146831519Y-101655856D02*
X146674376Y-101703475D01*
X146674376Y-101703475D02*
X146569614Y-101798713D01*
X146569614Y-101798713D02*
X146517233Y-101893951D01*
X146517233Y-101893951D02*
X146464852Y-102084427D01*
X146464852Y-102084427D02*
X146464852Y-102227284D01*
X146464852Y-102227284D02*
X146517233Y-102417760D01*
X146517233Y-102417760D02*
X146569614Y-102512998D01*
X146569614Y-102512998D02*
X146674376Y-102608237D01*
X146674376Y-102608237D02*
X146831519Y-102655856D01*
X146831519Y-102655856D02*
X146936281Y-102655856D01*
X146936281Y-102655856D02*
X147093424Y-102608237D01*
X147093424Y-102608237D02*
X147145805Y-102560617D01*
X147145805Y-102560617D02*
X147145805Y-102227284D01*
X147145805Y-102227284D02*
X146936281Y-102227284D01*
X147617233Y-102655856D02*
X147617233Y-101655856D01*
X147617233Y-101655856D02*
X148036281Y-101655856D01*
X148036281Y-101655856D02*
X148141043Y-101703475D01*
X148141043Y-101703475D02*
X148193424Y-101751094D01*
X148193424Y-101751094D02*
X148245805Y-101846332D01*
X148245805Y-101846332D02*
X148245805Y-101989189D01*
X148245805Y-101989189D02*
X148193424Y-102084427D01*
X148193424Y-102084427D02*
X148141043Y-102132046D01*
X148141043Y-102132046D02*
X148036281Y-102179665D01*
X148036281Y-102179665D02*
X147617233Y-102179665D01*
X148717233Y-102655856D02*
X148717233Y-101655856D01*
X149450567Y-101655856D02*
X149660091Y-101655856D01*
X149660091Y-101655856D02*
X149764853Y-101703475D01*
X149764853Y-101703475D02*
X149869615Y-101798713D01*
X149869615Y-101798713D02*
X149921996Y-101989189D01*
X149921996Y-101989189D02*
X149921996Y-102322522D01*
X149921996Y-102322522D02*
X149869615Y-102512998D01*
X149869615Y-102512998D02*
X149764853Y-102608237D01*
X149764853Y-102608237D02*
X149660091Y-102655856D01*
X149660091Y-102655856D02*
X149450567Y-102655856D01*
X149450567Y-102655856D02*
X149345805Y-102608237D01*
X149345805Y-102608237D02*
X149241043Y-102512998D01*
X149241043Y-102512998D02*
X149188662Y-102322522D01*
X149188662Y-102322522D02*
X149188662Y-101989189D01*
X149188662Y-101989189D02*
X149241043Y-101798713D01*
X149241043Y-101798713D02*
X149345805Y-101703475D01*
X149345805Y-101703475D02*
X149450567Y-101655856D01*
X150969615Y-102655856D02*
X150341043Y-102655856D01*
X150655329Y-102655856D02*
X150655329Y-101655856D01*
X150655329Y-101655856D02*
X150550567Y-101798713D01*
X150550567Y-101798713D02*
X150445805Y-101893951D01*
X150445805Y-101893951D02*
X150341043Y-101941570D01*
X151336281Y-101655856D02*
X152069615Y-101655856D01*
X152069615Y-101655856D02*
X151598186Y-102655856D01*
X129360090Y-116655856D02*
X129726757Y-117655856D01*
X129726757Y-117655856D02*
X130093424Y-116655856D01*
X130460090Y-117655856D02*
X130460090Y-116655856D01*
X130983900Y-117655856D02*
X130983900Y-116655856D01*
X130983900Y-116655856D02*
X131612472Y-117655856D01*
X131612472Y-117655856D02*
X131612472Y-116655856D01*
X147093424Y-91703475D02*
X146988662Y-91655856D01*
X146988662Y-91655856D02*
X146831519Y-91655856D01*
X146831519Y-91655856D02*
X146674376Y-91703475D01*
X146674376Y-91703475D02*
X146569614Y-91798713D01*
X146569614Y-91798713D02*
X146517233Y-91893951D01*
X146517233Y-91893951D02*
X146464852Y-92084427D01*
X146464852Y-92084427D02*
X146464852Y-92227284D01*
X146464852Y-92227284D02*
X146517233Y-92417760D01*
X146517233Y-92417760D02*
X146569614Y-92512998D01*
X146569614Y-92512998D02*
X146674376Y-92608237D01*
X146674376Y-92608237D02*
X146831519Y-92655856D01*
X146831519Y-92655856D02*
X146936281Y-92655856D01*
X146936281Y-92655856D02*
X147093424Y-92608237D01*
X147093424Y-92608237D02*
X147145805Y-92560617D01*
X147145805Y-92560617D02*
X147145805Y-92227284D01*
X147145805Y-92227284D02*
X146936281Y-92227284D01*
X147617233Y-92655856D02*
X147617233Y-91655856D01*
X147617233Y-91655856D02*
X148036281Y-91655856D01*
X148036281Y-91655856D02*
X148141043Y-91703475D01*
X148141043Y-91703475D02*
X148193424Y-91751094D01*
X148193424Y-91751094D02*
X148245805Y-91846332D01*
X148245805Y-91846332D02*
X148245805Y-91989189D01*
X148245805Y-91989189D02*
X148193424Y-92084427D01*
X148193424Y-92084427D02*
X148141043Y-92132046D01*
X148141043Y-92132046D02*
X148036281Y-92179665D01*
X148036281Y-92179665D02*
X147617233Y-92179665D01*
X148717233Y-92655856D02*
X148717233Y-91655856D01*
X149450567Y-91655856D02*
X149660091Y-91655856D01*
X149660091Y-91655856D02*
X149764853Y-91703475D01*
X149764853Y-91703475D02*
X149869615Y-91798713D01*
X149869615Y-91798713D02*
X149921996Y-91989189D01*
X149921996Y-91989189D02*
X149921996Y-92322522D01*
X149921996Y-92322522D02*
X149869615Y-92512998D01*
X149869615Y-92512998D02*
X149764853Y-92608237D01*
X149764853Y-92608237D02*
X149660091Y-92655856D01*
X149660091Y-92655856D02*
X149450567Y-92655856D01*
X149450567Y-92655856D02*
X149345805Y-92608237D01*
X149345805Y-92608237D02*
X149241043Y-92512998D01*
X149241043Y-92512998D02*
X149188662Y-92322522D01*
X149188662Y-92322522D02*
X149188662Y-91989189D01*
X149188662Y-91989189D02*
X149241043Y-91798713D01*
X149241043Y-91798713D02*
X149345805Y-91703475D01*
X149345805Y-91703475D02*
X149450567Y-91655856D01*
X150341043Y-91751094D02*
X150393424Y-91703475D01*
X150393424Y-91703475D02*
X150498186Y-91655856D01*
X150498186Y-91655856D02*
X150760091Y-91655856D01*
X150760091Y-91655856D02*
X150864853Y-91703475D01*
X150864853Y-91703475D02*
X150917234Y-91751094D01*
X150917234Y-91751094D02*
X150969615Y-91846332D01*
X150969615Y-91846332D02*
X150969615Y-91941570D01*
X150969615Y-91941570D02*
X150917234Y-92084427D01*
X150917234Y-92084427D02*
X150288662Y-92655856D01*
X150288662Y-92655856D02*
X150969615Y-92655856D01*
X152017234Y-92655856D02*
X151388662Y-92655856D01*
X151702948Y-92655856D02*
X151702948Y-91655856D01*
X151702948Y-91655856D02*
X151598186Y-91798713D01*
X151598186Y-91798713D02*
X151493424Y-91893951D01*
X151493424Y-91893951D02*
X151388662Y-91941570D01*
X147093424Y-94203475D02*
X146988662Y-94155856D01*
X146988662Y-94155856D02*
X146831519Y-94155856D01*
X146831519Y-94155856D02*
X146674376Y-94203475D01*
X146674376Y-94203475D02*
X146569614Y-94298713D01*
X146569614Y-94298713D02*
X146517233Y-94393951D01*
X146517233Y-94393951D02*
X146464852Y-94584427D01*
X146464852Y-94584427D02*
X146464852Y-94727284D01*
X146464852Y-94727284D02*
X146517233Y-94917760D01*
X146517233Y-94917760D02*
X146569614Y-95012998D01*
X146569614Y-95012998D02*
X146674376Y-95108237D01*
X146674376Y-95108237D02*
X146831519Y-95155856D01*
X146831519Y-95155856D02*
X146936281Y-95155856D01*
X146936281Y-95155856D02*
X147093424Y-95108237D01*
X147093424Y-95108237D02*
X147145805Y-95060617D01*
X147145805Y-95060617D02*
X147145805Y-94727284D01*
X147145805Y-94727284D02*
X146936281Y-94727284D01*
X147617233Y-95155856D02*
X147617233Y-94155856D01*
X147617233Y-94155856D02*
X148036281Y-94155856D01*
X148036281Y-94155856D02*
X148141043Y-94203475D01*
X148141043Y-94203475D02*
X148193424Y-94251094D01*
X148193424Y-94251094D02*
X148245805Y-94346332D01*
X148245805Y-94346332D02*
X148245805Y-94489189D01*
X148245805Y-94489189D02*
X148193424Y-94584427D01*
X148193424Y-94584427D02*
X148141043Y-94632046D01*
X148141043Y-94632046D02*
X148036281Y-94679665D01*
X148036281Y-94679665D02*
X147617233Y-94679665D01*
X148717233Y-95155856D02*
X148717233Y-94155856D01*
X149450567Y-94155856D02*
X149660091Y-94155856D01*
X149660091Y-94155856D02*
X149764853Y-94203475D01*
X149764853Y-94203475D02*
X149869615Y-94298713D01*
X149869615Y-94298713D02*
X149921996Y-94489189D01*
X149921996Y-94489189D02*
X149921996Y-94822522D01*
X149921996Y-94822522D02*
X149869615Y-95012998D01*
X149869615Y-95012998D02*
X149764853Y-95108237D01*
X149764853Y-95108237D02*
X149660091Y-95155856D01*
X149660091Y-95155856D02*
X149450567Y-95155856D01*
X149450567Y-95155856D02*
X149345805Y-95108237D01*
X149345805Y-95108237D02*
X149241043Y-95012998D01*
X149241043Y-95012998D02*
X149188662Y-94822522D01*
X149188662Y-94822522D02*
X149188662Y-94489189D01*
X149188662Y-94489189D02*
X149241043Y-94298713D01*
X149241043Y-94298713D02*
X149345805Y-94203475D01*
X149345805Y-94203475D02*
X149450567Y-94155856D01*
X150969615Y-95155856D02*
X150341043Y-95155856D01*
X150655329Y-95155856D02*
X150655329Y-94155856D01*
X150655329Y-94155856D02*
X150550567Y-94298713D01*
X150550567Y-94298713D02*
X150445805Y-94393951D01*
X150445805Y-94393951D02*
X150341043Y-94441570D01*
X151493424Y-95155856D02*
X151702948Y-95155856D01*
X151702948Y-95155856D02*
X151807710Y-95108237D01*
X151807710Y-95108237D02*
X151860091Y-95060617D01*
X151860091Y-95060617D02*
X151964853Y-94917760D01*
X151964853Y-94917760D02*
X152017234Y-94727284D01*
X152017234Y-94727284D02*
X152017234Y-94346332D01*
X152017234Y-94346332D02*
X151964853Y-94251094D01*
X151964853Y-94251094D02*
X151912472Y-94203475D01*
X151912472Y-94203475D02*
X151807710Y-94155856D01*
X151807710Y-94155856D02*
X151598186Y-94155856D01*
X151598186Y-94155856D02*
X151493424Y-94203475D01*
X151493424Y-94203475D02*
X151441043Y-94251094D01*
X151441043Y-94251094D02*
X151388662Y-94346332D01*
X151388662Y-94346332D02*
X151388662Y-94584427D01*
X151388662Y-94584427D02*
X151441043Y-94679665D01*
X151441043Y-94679665D02*
X151493424Y-94727284D01*
X151493424Y-94727284D02*
X151598186Y-94774903D01*
X151598186Y-94774903D02*
X151807710Y-94774903D01*
X151807710Y-94774903D02*
X151912472Y-94727284D01*
X151912472Y-94727284D02*
X151964853Y-94679665D01*
X151964853Y-94679665D02*
X152017234Y-94584427D01*
X147093424Y-96703475D02*
X146988662Y-96655856D01*
X146988662Y-96655856D02*
X146831519Y-96655856D01*
X146831519Y-96655856D02*
X146674376Y-96703475D01*
X146674376Y-96703475D02*
X146569614Y-96798713D01*
X146569614Y-96798713D02*
X146517233Y-96893951D01*
X146517233Y-96893951D02*
X146464852Y-97084427D01*
X146464852Y-97084427D02*
X146464852Y-97227284D01*
X146464852Y-97227284D02*
X146517233Y-97417760D01*
X146517233Y-97417760D02*
X146569614Y-97512998D01*
X146569614Y-97512998D02*
X146674376Y-97608237D01*
X146674376Y-97608237D02*
X146831519Y-97655856D01*
X146831519Y-97655856D02*
X146936281Y-97655856D01*
X146936281Y-97655856D02*
X147093424Y-97608237D01*
X147093424Y-97608237D02*
X147145805Y-97560617D01*
X147145805Y-97560617D02*
X147145805Y-97227284D01*
X147145805Y-97227284D02*
X146936281Y-97227284D01*
X147617233Y-97655856D02*
X147617233Y-96655856D01*
X147617233Y-96655856D02*
X148036281Y-96655856D01*
X148036281Y-96655856D02*
X148141043Y-96703475D01*
X148141043Y-96703475D02*
X148193424Y-96751094D01*
X148193424Y-96751094D02*
X148245805Y-96846332D01*
X148245805Y-96846332D02*
X148245805Y-96989189D01*
X148245805Y-96989189D02*
X148193424Y-97084427D01*
X148193424Y-97084427D02*
X148141043Y-97132046D01*
X148141043Y-97132046D02*
X148036281Y-97179665D01*
X148036281Y-97179665D02*
X147617233Y-97179665D01*
X148717233Y-97655856D02*
X148717233Y-96655856D01*
X149450567Y-96655856D02*
X149660091Y-96655856D01*
X149660091Y-96655856D02*
X149764853Y-96703475D01*
X149764853Y-96703475D02*
X149869615Y-96798713D01*
X149869615Y-96798713D02*
X149921996Y-96989189D01*
X149921996Y-96989189D02*
X149921996Y-97322522D01*
X149921996Y-97322522D02*
X149869615Y-97512998D01*
X149869615Y-97512998D02*
X149764853Y-97608237D01*
X149764853Y-97608237D02*
X149660091Y-97655856D01*
X149660091Y-97655856D02*
X149450567Y-97655856D01*
X149450567Y-97655856D02*
X149345805Y-97608237D01*
X149345805Y-97608237D02*
X149241043Y-97512998D01*
X149241043Y-97512998D02*
X149188662Y-97322522D01*
X149188662Y-97322522D02*
X149188662Y-96989189D01*
X149188662Y-96989189D02*
X149241043Y-96798713D01*
X149241043Y-96798713D02*
X149345805Y-96703475D01*
X149345805Y-96703475D02*
X149450567Y-96655856D01*
X150969615Y-97655856D02*
X150341043Y-97655856D01*
X150655329Y-97655856D02*
X150655329Y-96655856D01*
X150655329Y-96655856D02*
X150550567Y-96798713D01*
X150550567Y-96798713D02*
X150445805Y-96893951D01*
X150445805Y-96893951D02*
X150341043Y-96941570D01*
X151598186Y-97084427D02*
X151493424Y-97036808D01*
X151493424Y-97036808D02*
X151441043Y-96989189D01*
X151441043Y-96989189D02*
X151388662Y-96893951D01*
X151388662Y-96893951D02*
X151388662Y-96846332D01*
X151388662Y-96846332D02*
X151441043Y-96751094D01*
X151441043Y-96751094D02*
X151493424Y-96703475D01*
X151493424Y-96703475D02*
X151598186Y-96655856D01*
X151598186Y-96655856D02*
X151807710Y-96655856D01*
X151807710Y-96655856D02*
X151912472Y-96703475D01*
X151912472Y-96703475D02*
X151964853Y-96751094D01*
X151964853Y-96751094D02*
X152017234Y-96846332D01*
X152017234Y-96846332D02*
X152017234Y-96893951D01*
X152017234Y-96893951D02*
X151964853Y-96989189D01*
X151964853Y-96989189D02*
X151912472Y-97036808D01*
X151912472Y-97036808D02*
X151807710Y-97084427D01*
X151807710Y-97084427D02*
X151598186Y-97084427D01*
X151598186Y-97084427D02*
X151493424Y-97132046D01*
X151493424Y-97132046D02*
X151441043Y-97179665D01*
X151441043Y-97179665D02*
X151388662Y-97274903D01*
X151388662Y-97274903D02*
X151388662Y-97465379D01*
X151388662Y-97465379D02*
X151441043Y-97560617D01*
X151441043Y-97560617D02*
X151493424Y-97608237D01*
X151493424Y-97608237D02*
X151598186Y-97655856D01*
X151598186Y-97655856D02*
X151807710Y-97655856D01*
X151807710Y-97655856D02*
X151912472Y-97608237D01*
X151912472Y-97608237D02*
X151964853Y-97560617D01*
X151964853Y-97560617D02*
X152017234Y-97465379D01*
X152017234Y-97465379D02*
X152017234Y-97274903D01*
X152017234Y-97274903D02*
X151964853Y-97179665D01*
X151964853Y-97179665D02*
X151912472Y-97132046D01*
X151912472Y-97132046D02*
X151807710Y-97084427D01*
X148093424Y-86203475D02*
X147988662Y-86155856D01*
X147988662Y-86155856D02*
X147831519Y-86155856D01*
X147831519Y-86155856D02*
X147674376Y-86203475D01*
X147674376Y-86203475D02*
X147569614Y-86298713D01*
X147569614Y-86298713D02*
X147517233Y-86393951D01*
X147517233Y-86393951D02*
X147464852Y-86584427D01*
X147464852Y-86584427D02*
X147464852Y-86727284D01*
X147464852Y-86727284D02*
X147517233Y-86917760D01*
X147517233Y-86917760D02*
X147569614Y-87012998D01*
X147569614Y-87012998D02*
X147674376Y-87108237D01*
X147674376Y-87108237D02*
X147831519Y-87155856D01*
X147831519Y-87155856D02*
X147936281Y-87155856D01*
X147936281Y-87155856D02*
X148093424Y-87108237D01*
X148093424Y-87108237D02*
X148145805Y-87060617D01*
X148145805Y-87060617D02*
X148145805Y-86727284D01*
X148145805Y-86727284D02*
X147936281Y-86727284D01*
X148617233Y-87155856D02*
X148617233Y-86155856D01*
X148617233Y-86155856D02*
X149036281Y-86155856D01*
X149036281Y-86155856D02*
X149141043Y-86203475D01*
X149141043Y-86203475D02*
X149193424Y-86251094D01*
X149193424Y-86251094D02*
X149245805Y-86346332D01*
X149245805Y-86346332D02*
X149245805Y-86489189D01*
X149245805Y-86489189D02*
X149193424Y-86584427D01*
X149193424Y-86584427D02*
X149141043Y-86632046D01*
X149141043Y-86632046D02*
X149036281Y-86679665D01*
X149036281Y-86679665D02*
X148617233Y-86679665D01*
X149717233Y-87155856D02*
X149717233Y-86155856D01*
X150450567Y-86155856D02*
X150660091Y-86155856D01*
X150660091Y-86155856D02*
X150764853Y-86203475D01*
X150764853Y-86203475D02*
X150869615Y-86298713D01*
X150869615Y-86298713D02*
X150921996Y-86489189D01*
X150921996Y-86489189D02*
X150921996Y-86822522D01*
X150921996Y-86822522D02*
X150869615Y-87012998D01*
X150869615Y-87012998D02*
X150764853Y-87108237D01*
X150764853Y-87108237D02*
X150660091Y-87155856D01*
X150660091Y-87155856D02*
X150450567Y-87155856D01*
X150450567Y-87155856D02*
X150345805Y-87108237D01*
X150345805Y-87108237D02*
X150241043Y-87012998D01*
X150241043Y-87012998D02*
X150188662Y-86822522D01*
X150188662Y-86822522D02*
X150188662Y-86489189D01*
X150188662Y-86489189D02*
X150241043Y-86298713D01*
X150241043Y-86298713D02*
X150345805Y-86203475D01*
X150345805Y-86203475D02*
X150450567Y-86155856D01*
X151969615Y-87155856D02*
X151341043Y-87155856D01*
X151655329Y-87155856D02*
X151655329Y-86155856D01*
X151655329Y-86155856D02*
X151550567Y-86298713D01*
X151550567Y-86298713D02*
X151445805Y-86393951D01*
X151445805Y-86393951D02*
X151341043Y-86441570D01*
X129593424Y-91703475D02*
X129488662Y-91655856D01*
X129488662Y-91655856D02*
X129331519Y-91655856D01*
X129331519Y-91655856D02*
X129174376Y-91703475D01*
X129174376Y-91703475D02*
X129069614Y-91798713D01*
X129069614Y-91798713D02*
X129017233Y-91893951D01*
X129017233Y-91893951D02*
X128964852Y-92084427D01*
X128964852Y-92084427D02*
X128964852Y-92227284D01*
X128964852Y-92227284D02*
X129017233Y-92417760D01*
X129017233Y-92417760D02*
X129069614Y-92512998D01*
X129069614Y-92512998D02*
X129174376Y-92608237D01*
X129174376Y-92608237D02*
X129331519Y-92655856D01*
X129331519Y-92655856D02*
X129436281Y-92655856D01*
X129436281Y-92655856D02*
X129593424Y-92608237D01*
X129593424Y-92608237D02*
X129645805Y-92560617D01*
X129645805Y-92560617D02*
X129645805Y-92227284D01*
X129645805Y-92227284D02*
X129436281Y-92227284D01*
X130117233Y-92655856D02*
X130117233Y-91655856D01*
X130117233Y-91655856D02*
X130536281Y-91655856D01*
X130536281Y-91655856D02*
X130641043Y-91703475D01*
X130641043Y-91703475D02*
X130693424Y-91751094D01*
X130693424Y-91751094D02*
X130745805Y-91846332D01*
X130745805Y-91846332D02*
X130745805Y-91989189D01*
X130745805Y-91989189D02*
X130693424Y-92084427D01*
X130693424Y-92084427D02*
X130641043Y-92132046D01*
X130641043Y-92132046D02*
X130536281Y-92179665D01*
X130536281Y-92179665D02*
X130117233Y-92179665D01*
X131217233Y-92655856D02*
X131217233Y-91655856D01*
X131950567Y-91655856D02*
X132160091Y-91655856D01*
X132160091Y-91655856D02*
X132264853Y-91703475D01*
X132264853Y-91703475D02*
X132369615Y-91798713D01*
X132369615Y-91798713D02*
X132421996Y-91989189D01*
X132421996Y-91989189D02*
X132421996Y-92322522D01*
X132421996Y-92322522D02*
X132369615Y-92512998D01*
X132369615Y-92512998D02*
X132264853Y-92608237D01*
X132264853Y-92608237D02*
X132160091Y-92655856D01*
X132160091Y-92655856D02*
X131950567Y-92655856D01*
X131950567Y-92655856D02*
X131845805Y-92608237D01*
X131845805Y-92608237D02*
X131741043Y-92512998D01*
X131741043Y-92512998D02*
X131688662Y-92322522D01*
X131688662Y-92322522D02*
X131688662Y-91989189D01*
X131688662Y-91989189D02*
X131741043Y-91798713D01*
X131741043Y-91798713D02*
X131845805Y-91703475D01*
X131845805Y-91703475D02*
X131950567Y-91655856D01*
X132788662Y-91655856D02*
X133469615Y-91655856D01*
X133469615Y-91655856D02*
X133102948Y-92036808D01*
X133102948Y-92036808D02*
X133260091Y-92036808D01*
X133260091Y-92036808D02*
X133364853Y-92084427D01*
X133364853Y-92084427D02*
X133417234Y-92132046D01*
X133417234Y-92132046D02*
X133469615Y-92227284D01*
X133469615Y-92227284D02*
X133469615Y-92465379D01*
X133469615Y-92465379D02*
X133417234Y-92560617D01*
X133417234Y-92560617D02*
X133364853Y-92608237D01*
X133364853Y-92608237D02*
X133260091Y-92655856D01*
X133260091Y-92655856D02*
X132945805Y-92655856D01*
X132945805Y-92655856D02*
X132841043Y-92608237D01*
X132841043Y-92608237D02*
X132788662Y-92560617D01*
X134464853Y-91655856D02*
X133941043Y-91655856D01*
X133941043Y-91655856D02*
X133888662Y-92132046D01*
X133888662Y-92132046D02*
X133941043Y-92084427D01*
X133941043Y-92084427D02*
X134045805Y-92036808D01*
X134045805Y-92036808D02*
X134307710Y-92036808D01*
X134307710Y-92036808D02*
X134412472Y-92084427D01*
X134412472Y-92084427D02*
X134464853Y-92132046D01*
X134464853Y-92132046D02*
X134517234Y-92227284D01*
X134517234Y-92227284D02*
X134517234Y-92465379D01*
X134517234Y-92465379D02*
X134464853Y-92560617D01*
X134464853Y-92560617D02*
X134412472Y-92608237D01*
X134412472Y-92608237D02*
X134307710Y-92655856D01*
X134307710Y-92655856D02*
X134045805Y-92655856D01*
X134045805Y-92655856D02*
X133941043Y-92608237D01*
X133941043Y-92608237D02*
X133888662Y-92560617D01*
X147093424Y-83703475D02*
X146988662Y-83655856D01*
X146988662Y-83655856D02*
X146831519Y-83655856D01*
X146831519Y-83655856D02*
X146674376Y-83703475D01*
X146674376Y-83703475D02*
X146569614Y-83798713D01*
X146569614Y-83798713D02*
X146517233Y-83893951D01*
X146517233Y-83893951D02*
X146464852Y-84084427D01*
X146464852Y-84084427D02*
X146464852Y-84227284D01*
X146464852Y-84227284D02*
X146517233Y-84417760D01*
X146517233Y-84417760D02*
X146569614Y-84512998D01*
X146569614Y-84512998D02*
X146674376Y-84608237D01*
X146674376Y-84608237D02*
X146831519Y-84655856D01*
X146831519Y-84655856D02*
X146936281Y-84655856D01*
X146936281Y-84655856D02*
X147093424Y-84608237D01*
X147093424Y-84608237D02*
X147145805Y-84560617D01*
X147145805Y-84560617D02*
X147145805Y-84227284D01*
X147145805Y-84227284D02*
X146936281Y-84227284D01*
X147617233Y-84655856D02*
X147617233Y-83655856D01*
X147617233Y-83655856D02*
X148036281Y-83655856D01*
X148036281Y-83655856D02*
X148141043Y-83703475D01*
X148141043Y-83703475D02*
X148193424Y-83751094D01*
X148193424Y-83751094D02*
X148245805Y-83846332D01*
X148245805Y-83846332D02*
X148245805Y-83989189D01*
X148245805Y-83989189D02*
X148193424Y-84084427D01*
X148193424Y-84084427D02*
X148141043Y-84132046D01*
X148141043Y-84132046D02*
X148036281Y-84179665D01*
X148036281Y-84179665D02*
X147617233Y-84179665D01*
X148717233Y-84655856D02*
X148717233Y-83655856D01*
X149450567Y-83655856D02*
X149660091Y-83655856D01*
X149660091Y-83655856D02*
X149764853Y-83703475D01*
X149764853Y-83703475D02*
X149869615Y-83798713D01*
X149869615Y-83798713D02*
X149921996Y-83989189D01*
X149921996Y-83989189D02*
X149921996Y-84322522D01*
X149921996Y-84322522D02*
X149869615Y-84512998D01*
X149869615Y-84512998D02*
X149764853Y-84608237D01*
X149764853Y-84608237D02*
X149660091Y-84655856D01*
X149660091Y-84655856D02*
X149450567Y-84655856D01*
X149450567Y-84655856D02*
X149345805Y-84608237D01*
X149345805Y-84608237D02*
X149241043Y-84512998D01*
X149241043Y-84512998D02*
X149188662Y-84322522D01*
X149188662Y-84322522D02*
X149188662Y-83989189D01*
X149188662Y-83989189D02*
X149241043Y-83798713D01*
X149241043Y-83798713D02*
X149345805Y-83703475D01*
X149345805Y-83703475D02*
X149450567Y-83655856D01*
X150341043Y-83751094D02*
X150393424Y-83703475D01*
X150393424Y-83703475D02*
X150498186Y-83655856D01*
X150498186Y-83655856D02*
X150760091Y-83655856D01*
X150760091Y-83655856D02*
X150864853Y-83703475D01*
X150864853Y-83703475D02*
X150917234Y-83751094D01*
X150917234Y-83751094D02*
X150969615Y-83846332D01*
X150969615Y-83846332D02*
X150969615Y-83941570D01*
X150969615Y-83941570D02*
X150917234Y-84084427D01*
X150917234Y-84084427D02*
X150288662Y-84655856D01*
X150288662Y-84655856D02*
X150969615Y-84655856D01*
X151388662Y-83751094D02*
X151441043Y-83703475D01*
X151441043Y-83703475D02*
X151545805Y-83655856D01*
X151545805Y-83655856D02*
X151807710Y-83655856D01*
X151807710Y-83655856D02*
X151912472Y-83703475D01*
X151912472Y-83703475D02*
X151964853Y-83751094D01*
X151964853Y-83751094D02*
X152017234Y-83846332D01*
X152017234Y-83846332D02*
X152017234Y-83941570D01*
X152017234Y-83941570D02*
X151964853Y-84084427D01*
X151964853Y-84084427D02*
X151336281Y-84655856D01*
X151336281Y-84655856D02*
X152017234Y-84655856D01*
X148093424Y-109203475D02*
X147988662Y-109155856D01*
X147988662Y-109155856D02*
X147831519Y-109155856D01*
X147831519Y-109155856D02*
X147674376Y-109203475D01*
X147674376Y-109203475D02*
X147569614Y-109298713D01*
X147569614Y-109298713D02*
X147517233Y-109393951D01*
X147517233Y-109393951D02*
X147464852Y-109584427D01*
X147464852Y-109584427D02*
X147464852Y-109727284D01*
X147464852Y-109727284D02*
X147517233Y-109917760D01*
X147517233Y-109917760D02*
X147569614Y-110012998D01*
X147569614Y-110012998D02*
X147674376Y-110108237D01*
X147674376Y-110108237D02*
X147831519Y-110155856D01*
X147831519Y-110155856D02*
X147936281Y-110155856D01*
X147936281Y-110155856D02*
X148093424Y-110108237D01*
X148093424Y-110108237D02*
X148145805Y-110060617D01*
X148145805Y-110060617D02*
X148145805Y-109727284D01*
X148145805Y-109727284D02*
X147936281Y-109727284D01*
X148617233Y-110155856D02*
X148617233Y-109155856D01*
X148617233Y-109155856D02*
X149036281Y-109155856D01*
X149036281Y-109155856D02*
X149141043Y-109203475D01*
X149141043Y-109203475D02*
X149193424Y-109251094D01*
X149193424Y-109251094D02*
X149245805Y-109346332D01*
X149245805Y-109346332D02*
X149245805Y-109489189D01*
X149245805Y-109489189D02*
X149193424Y-109584427D01*
X149193424Y-109584427D02*
X149141043Y-109632046D01*
X149141043Y-109632046D02*
X149036281Y-109679665D01*
X149036281Y-109679665D02*
X148617233Y-109679665D01*
X149717233Y-110155856D02*
X149717233Y-109155856D01*
X150450567Y-109155856D02*
X150660091Y-109155856D01*
X150660091Y-109155856D02*
X150764853Y-109203475D01*
X150764853Y-109203475D02*
X150869615Y-109298713D01*
X150869615Y-109298713D02*
X150921996Y-109489189D01*
X150921996Y-109489189D02*
X150921996Y-109822522D01*
X150921996Y-109822522D02*
X150869615Y-110012998D01*
X150869615Y-110012998D02*
X150764853Y-110108237D01*
X150764853Y-110108237D02*
X150660091Y-110155856D01*
X150660091Y-110155856D02*
X150450567Y-110155856D01*
X150450567Y-110155856D02*
X150345805Y-110108237D01*
X150345805Y-110108237D02*
X150241043Y-110012998D01*
X150241043Y-110012998D02*
X150188662Y-109822522D01*
X150188662Y-109822522D02*
X150188662Y-109489189D01*
X150188662Y-109489189D02*
X150241043Y-109298713D01*
X150241043Y-109298713D02*
X150345805Y-109203475D01*
X150345805Y-109203475D02*
X150450567Y-109155856D01*
X151341043Y-109251094D02*
X151393424Y-109203475D01*
X151393424Y-109203475D02*
X151498186Y-109155856D01*
X151498186Y-109155856D02*
X151760091Y-109155856D01*
X151760091Y-109155856D02*
X151864853Y-109203475D01*
X151864853Y-109203475D02*
X151917234Y-109251094D01*
X151917234Y-109251094D02*
X151969615Y-109346332D01*
X151969615Y-109346332D02*
X151969615Y-109441570D01*
X151969615Y-109441570D02*
X151917234Y-109584427D01*
X151917234Y-109584427D02*
X151288662Y-110155856D01*
X151288662Y-110155856D02*
X151969615Y-110155856D01*
X129017233Y-82132046D02*
X129383900Y-82132046D01*
X129541043Y-82655856D02*
X129017233Y-82655856D01*
X129017233Y-82655856D02*
X129017233Y-81655856D01*
X129017233Y-81655856D02*
X129541043Y-81655856D01*
X130012471Y-82655856D02*
X130012471Y-81655856D01*
X130012471Y-81655856D02*
X130641043Y-82655856D01*
X130641043Y-82655856D02*
X130641043Y-81655856D01*
X139493424Y-123655856D02*
X139493424Y-124465379D01*
X139493424Y-124465379D02*
X139541043Y-124560617D01*
X139541043Y-124560617D02*
X139588662Y-124608237D01*
X139588662Y-124608237D02*
X139683900Y-124655856D01*
X139683900Y-124655856D02*
X139874376Y-124655856D01*
X139874376Y-124655856D02*
X139969614Y-124608237D01*
X139969614Y-124608237D02*
X140017233Y-124560617D01*
X140017233Y-124560617D02*
X140064852Y-124465379D01*
X140064852Y-124465379D02*
X140064852Y-123655856D01*
X140493424Y-124608237D02*
X140636281Y-124655856D01*
X140636281Y-124655856D02*
X140874376Y-124655856D01*
X140874376Y-124655856D02*
X140969614Y-124608237D01*
X140969614Y-124608237D02*
X141017233Y-124560617D01*
X141017233Y-124560617D02*
X141064852Y-124465379D01*
X141064852Y-124465379D02*
X141064852Y-124370141D01*
X141064852Y-124370141D02*
X141017233Y-124274903D01*
X141017233Y-124274903D02*
X140969614Y-124227284D01*
X140969614Y-124227284D02*
X140874376Y-124179665D01*
X140874376Y-124179665D02*
X140683900Y-124132046D01*
X140683900Y-124132046D02*
X140588662Y-124084427D01*
X140588662Y-124084427D02*
X140541043Y-124036808D01*
X140541043Y-124036808D02*
X140493424Y-123941570D01*
X140493424Y-123941570D02*
X140493424Y-123846332D01*
X140493424Y-123846332D02*
X140541043Y-123751094D01*
X140541043Y-123751094D02*
X140588662Y-123703475D01*
X140588662Y-123703475D02*
X140683900Y-123655856D01*
X140683900Y-123655856D02*
X140921995Y-123655856D01*
X140921995Y-123655856D02*
X141064852Y-123703475D01*
X141826757Y-124132046D02*
X141969614Y-124179665D01*
X141969614Y-124179665D02*
X142017233Y-124227284D01*
X142017233Y-124227284D02*
X142064852Y-124322522D01*
X142064852Y-124322522D02*
X142064852Y-124465379D01*
X142064852Y-124465379D02*
X142017233Y-124560617D01*
X142017233Y-124560617D02*
X141969614Y-124608237D01*
X141969614Y-124608237D02*
X141874376Y-124655856D01*
X141874376Y-124655856D02*
X141493424Y-124655856D01*
X141493424Y-124655856D02*
X141493424Y-123655856D01*
X141493424Y-123655856D02*
X141826757Y-123655856D01*
X141826757Y-123655856D02*
X141921995Y-123703475D01*
X141921995Y-123703475D02*
X141969614Y-123751094D01*
X141969614Y-123751094D02*
X142017233Y-123846332D01*
X142017233Y-123846332D02*
X142017233Y-123941570D01*
X142017233Y-123941570D02*
X141969614Y-124036808D01*
X141969614Y-124036808D02*
X141921995Y-124084427D01*
X141921995Y-124084427D02*
X141826757Y-124132046D01*
X141826757Y-124132046D02*
X141493424Y-124132046D01*
X129593424Y-94203475D02*
X129488662Y-94155856D01*
X129488662Y-94155856D02*
X129331519Y-94155856D01*
X129331519Y-94155856D02*
X129174376Y-94203475D01*
X129174376Y-94203475D02*
X129069614Y-94298713D01*
X129069614Y-94298713D02*
X129017233Y-94393951D01*
X129017233Y-94393951D02*
X128964852Y-94584427D01*
X128964852Y-94584427D02*
X128964852Y-94727284D01*
X128964852Y-94727284D02*
X129017233Y-94917760D01*
X129017233Y-94917760D02*
X129069614Y-95012998D01*
X129069614Y-95012998D02*
X129174376Y-95108237D01*
X129174376Y-95108237D02*
X129331519Y-95155856D01*
X129331519Y-95155856D02*
X129436281Y-95155856D01*
X129436281Y-95155856D02*
X129593424Y-95108237D01*
X129593424Y-95108237D02*
X129645805Y-95060617D01*
X129645805Y-95060617D02*
X129645805Y-94727284D01*
X129645805Y-94727284D02*
X129436281Y-94727284D01*
X130117233Y-95155856D02*
X130117233Y-94155856D01*
X130117233Y-94155856D02*
X130536281Y-94155856D01*
X130536281Y-94155856D02*
X130641043Y-94203475D01*
X130641043Y-94203475D02*
X130693424Y-94251094D01*
X130693424Y-94251094D02*
X130745805Y-94346332D01*
X130745805Y-94346332D02*
X130745805Y-94489189D01*
X130745805Y-94489189D02*
X130693424Y-94584427D01*
X130693424Y-94584427D02*
X130641043Y-94632046D01*
X130641043Y-94632046D02*
X130536281Y-94679665D01*
X130536281Y-94679665D02*
X130117233Y-94679665D01*
X131217233Y-95155856D02*
X131217233Y-94155856D01*
X131950567Y-94155856D02*
X132160091Y-94155856D01*
X132160091Y-94155856D02*
X132264853Y-94203475D01*
X132264853Y-94203475D02*
X132369615Y-94298713D01*
X132369615Y-94298713D02*
X132421996Y-94489189D01*
X132421996Y-94489189D02*
X132421996Y-94822522D01*
X132421996Y-94822522D02*
X132369615Y-95012998D01*
X132369615Y-95012998D02*
X132264853Y-95108237D01*
X132264853Y-95108237D02*
X132160091Y-95155856D01*
X132160091Y-95155856D02*
X131950567Y-95155856D01*
X131950567Y-95155856D02*
X131845805Y-95108237D01*
X131845805Y-95108237D02*
X131741043Y-95012998D01*
X131741043Y-95012998D02*
X131688662Y-94822522D01*
X131688662Y-94822522D02*
X131688662Y-94489189D01*
X131688662Y-94489189D02*
X131741043Y-94298713D01*
X131741043Y-94298713D02*
X131845805Y-94203475D01*
X131845805Y-94203475D02*
X131950567Y-94155856D01*
X132788662Y-94155856D02*
X133469615Y-94155856D01*
X133469615Y-94155856D02*
X133102948Y-94536808D01*
X133102948Y-94536808D02*
X133260091Y-94536808D01*
X133260091Y-94536808D02*
X133364853Y-94584427D01*
X133364853Y-94584427D02*
X133417234Y-94632046D01*
X133417234Y-94632046D02*
X133469615Y-94727284D01*
X133469615Y-94727284D02*
X133469615Y-94965379D01*
X133469615Y-94965379D02*
X133417234Y-95060617D01*
X133417234Y-95060617D02*
X133364853Y-95108237D01*
X133364853Y-95108237D02*
X133260091Y-95155856D01*
X133260091Y-95155856D02*
X132945805Y-95155856D01*
X132945805Y-95155856D02*
X132841043Y-95108237D01*
X132841043Y-95108237D02*
X132788662Y-95060617D01*
X133888662Y-94251094D02*
X133941043Y-94203475D01*
X133941043Y-94203475D02*
X134045805Y-94155856D01*
X134045805Y-94155856D02*
X134307710Y-94155856D01*
X134307710Y-94155856D02*
X134412472Y-94203475D01*
X134412472Y-94203475D02*
X134464853Y-94251094D01*
X134464853Y-94251094D02*
X134517234Y-94346332D01*
X134517234Y-94346332D02*
X134517234Y-94441570D01*
X134517234Y-94441570D02*
X134464853Y-94584427D01*
X134464853Y-94584427D02*
X133836281Y-95155856D01*
X133836281Y-95155856D02*
X134517234Y-95155856D01*
X129593424Y-86703475D02*
X129488662Y-86655856D01*
X129488662Y-86655856D02*
X129331519Y-86655856D01*
X129331519Y-86655856D02*
X129174376Y-86703475D01*
X129174376Y-86703475D02*
X129069614Y-86798713D01*
X129069614Y-86798713D02*
X129017233Y-86893951D01*
X129017233Y-86893951D02*
X128964852Y-87084427D01*
X128964852Y-87084427D02*
X128964852Y-87227284D01*
X128964852Y-87227284D02*
X129017233Y-87417760D01*
X129017233Y-87417760D02*
X129069614Y-87512998D01*
X129069614Y-87512998D02*
X129174376Y-87608237D01*
X129174376Y-87608237D02*
X129331519Y-87655856D01*
X129331519Y-87655856D02*
X129436281Y-87655856D01*
X129436281Y-87655856D02*
X129593424Y-87608237D01*
X129593424Y-87608237D02*
X129645805Y-87560617D01*
X129645805Y-87560617D02*
X129645805Y-87227284D01*
X129645805Y-87227284D02*
X129436281Y-87227284D01*
X130117233Y-87655856D02*
X130117233Y-86655856D01*
X130117233Y-86655856D02*
X130536281Y-86655856D01*
X130536281Y-86655856D02*
X130641043Y-86703475D01*
X130641043Y-86703475D02*
X130693424Y-86751094D01*
X130693424Y-86751094D02*
X130745805Y-86846332D01*
X130745805Y-86846332D02*
X130745805Y-86989189D01*
X130745805Y-86989189D02*
X130693424Y-87084427D01*
X130693424Y-87084427D02*
X130641043Y-87132046D01*
X130641043Y-87132046D02*
X130536281Y-87179665D01*
X130536281Y-87179665D02*
X130117233Y-87179665D01*
X131217233Y-87655856D02*
X131217233Y-86655856D01*
X131950567Y-86655856D02*
X132160091Y-86655856D01*
X132160091Y-86655856D02*
X132264853Y-86703475D01*
X132264853Y-86703475D02*
X132369615Y-86798713D01*
X132369615Y-86798713D02*
X132421996Y-86989189D01*
X132421996Y-86989189D02*
X132421996Y-87322522D01*
X132421996Y-87322522D02*
X132369615Y-87512998D01*
X132369615Y-87512998D02*
X132264853Y-87608237D01*
X132264853Y-87608237D02*
X132160091Y-87655856D01*
X132160091Y-87655856D02*
X131950567Y-87655856D01*
X131950567Y-87655856D02*
X131845805Y-87608237D01*
X131845805Y-87608237D02*
X131741043Y-87512998D01*
X131741043Y-87512998D02*
X131688662Y-87322522D01*
X131688662Y-87322522D02*
X131688662Y-86989189D01*
X131688662Y-86989189D02*
X131741043Y-86798713D01*
X131741043Y-86798713D02*
X131845805Y-86703475D01*
X131845805Y-86703475D02*
X131950567Y-86655856D01*
X132788662Y-86655856D02*
X133469615Y-86655856D01*
X133469615Y-86655856D02*
X133102948Y-87036808D01*
X133102948Y-87036808D02*
X133260091Y-87036808D01*
X133260091Y-87036808D02*
X133364853Y-87084427D01*
X133364853Y-87084427D02*
X133417234Y-87132046D01*
X133417234Y-87132046D02*
X133469615Y-87227284D01*
X133469615Y-87227284D02*
X133469615Y-87465379D01*
X133469615Y-87465379D02*
X133417234Y-87560617D01*
X133417234Y-87560617D02*
X133364853Y-87608237D01*
X133364853Y-87608237D02*
X133260091Y-87655856D01*
X133260091Y-87655856D02*
X132945805Y-87655856D01*
X132945805Y-87655856D02*
X132841043Y-87608237D01*
X132841043Y-87608237D02*
X132788662Y-87560617D01*
X133993424Y-87655856D02*
X134202948Y-87655856D01*
X134202948Y-87655856D02*
X134307710Y-87608237D01*
X134307710Y-87608237D02*
X134360091Y-87560617D01*
X134360091Y-87560617D02*
X134464853Y-87417760D01*
X134464853Y-87417760D02*
X134517234Y-87227284D01*
X134517234Y-87227284D02*
X134517234Y-86846332D01*
X134517234Y-86846332D02*
X134464853Y-86751094D01*
X134464853Y-86751094D02*
X134412472Y-86703475D01*
X134412472Y-86703475D02*
X134307710Y-86655856D01*
X134307710Y-86655856D02*
X134098186Y-86655856D01*
X134098186Y-86655856D02*
X133993424Y-86703475D01*
X133993424Y-86703475D02*
X133941043Y-86751094D01*
X133941043Y-86751094D02*
X133888662Y-86846332D01*
X133888662Y-86846332D02*
X133888662Y-87084427D01*
X133888662Y-87084427D02*
X133941043Y-87179665D01*
X133941043Y-87179665D02*
X133993424Y-87227284D01*
X133993424Y-87227284D02*
X134098186Y-87274903D01*
X134098186Y-87274903D02*
X134307710Y-87274903D01*
X134307710Y-87274903D02*
X134412472Y-87227284D01*
X134412472Y-87227284D02*
X134464853Y-87179665D01*
X134464853Y-87179665D02*
X134517234Y-87084427D01*
X149593424Y-114203475D02*
X149488662Y-114155856D01*
X149488662Y-114155856D02*
X149331519Y-114155856D01*
X149331519Y-114155856D02*
X149174376Y-114203475D01*
X149174376Y-114203475D02*
X149069614Y-114298713D01*
X149069614Y-114298713D02*
X149017233Y-114393951D01*
X149017233Y-114393951D02*
X148964852Y-114584427D01*
X148964852Y-114584427D02*
X148964852Y-114727284D01*
X148964852Y-114727284D02*
X149017233Y-114917760D01*
X149017233Y-114917760D02*
X149069614Y-115012998D01*
X149069614Y-115012998D02*
X149174376Y-115108237D01*
X149174376Y-115108237D02*
X149331519Y-115155856D01*
X149331519Y-115155856D02*
X149436281Y-115155856D01*
X149436281Y-115155856D02*
X149593424Y-115108237D01*
X149593424Y-115108237D02*
X149645805Y-115060617D01*
X149645805Y-115060617D02*
X149645805Y-114727284D01*
X149645805Y-114727284D02*
X149436281Y-114727284D01*
X150117233Y-115155856D02*
X150117233Y-114155856D01*
X150117233Y-114155856D02*
X150745805Y-115155856D01*
X150745805Y-115155856D02*
X150745805Y-114155856D01*
X151269614Y-115155856D02*
X151269614Y-114155856D01*
X151269614Y-114155856D02*
X151531519Y-114155856D01*
X151531519Y-114155856D02*
X151688662Y-114203475D01*
X151688662Y-114203475D02*
X151793424Y-114298713D01*
X151793424Y-114298713D02*
X151845805Y-114393951D01*
X151845805Y-114393951D02*
X151898186Y-114584427D01*
X151898186Y-114584427D02*
X151898186Y-114727284D01*
X151898186Y-114727284D02*
X151845805Y-114917760D01*
X151845805Y-114917760D02*
X151793424Y-115012998D01*
X151793424Y-115012998D02*
X151688662Y-115108237D01*
X151688662Y-115108237D02*
X151531519Y-115155856D01*
X151531519Y-115155856D02*
X151269614Y-115155856D01*
X129593424Y-109203475D02*
X129488662Y-109155856D01*
X129488662Y-109155856D02*
X129331519Y-109155856D01*
X129331519Y-109155856D02*
X129174376Y-109203475D01*
X129174376Y-109203475D02*
X129069614Y-109298713D01*
X129069614Y-109298713D02*
X129017233Y-109393951D01*
X129017233Y-109393951D02*
X128964852Y-109584427D01*
X128964852Y-109584427D02*
X128964852Y-109727284D01*
X128964852Y-109727284D02*
X129017233Y-109917760D01*
X129017233Y-109917760D02*
X129069614Y-110012998D01*
X129069614Y-110012998D02*
X129174376Y-110108237D01*
X129174376Y-110108237D02*
X129331519Y-110155856D01*
X129331519Y-110155856D02*
X129436281Y-110155856D01*
X129436281Y-110155856D02*
X129593424Y-110108237D01*
X129593424Y-110108237D02*
X129645805Y-110060617D01*
X129645805Y-110060617D02*
X129645805Y-109727284D01*
X129645805Y-109727284D02*
X129436281Y-109727284D01*
X130117233Y-110155856D02*
X130117233Y-109155856D01*
X130117233Y-109155856D02*
X130536281Y-109155856D01*
X130536281Y-109155856D02*
X130641043Y-109203475D01*
X130641043Y-109203475D02*
X130693424Y-109251094D01*
X130693424Y-109251094D02*
X130745805Y-109346332D01*
X130745805Y-109346332D02*
X130745805Y-109489189D01*
X130745805Y-109489189D02*
X130693424Y-109584427D01*
X130693424Y-109584427D02*
X130641043Y-109632046D01*
X130641043Y-109632046D02*
X130536281Y-109679665D01*
X130536281Y-109679665D02*
X130117233Y-109679665D01*
X131217233Y-110155856D02*
X131217233Y-109155856D01*
X131950567Y-109155856D02*
X132160091Y-109155856D01*
X132160091Y-109155856D02*
X132264853Y-109203475D01*
X132264853Y-109203475D02*
X132369615Y-109298713D01*
X132369615Y-109298713D02*
X132421996Y-109489189D01*
X132421996Y-109489189D02*
X132421996Y-109822522D01*
X132421996Y-109822522D02*
X132369615Y-110012998D01*
X132369615Y-110012998D02*
X132264853Y-110108237D01*
X132264853Y-110108237D02*
X132160091Y-110155856D01*
X132160091Y-110155856D02*
X131950567Y-110155856D01*
X131950567Y-110155856D02*
X131845805Y-110108237D01*
X131845805Y-110108237D02*
X131741043Y-110012998D01*
X131741043Y-110012998D02*
X131688662Y-109822522D01*
X131688662Y-109822522D02*
X131688662Y-109489189D01*
X131688662Y-109489189D02*
X131741043Y-109298713D01*
X131741043Y-109298713D02*
X131845805Y-109203475D01*
X131845805Y-109203475D02*
X131950567Y-109155856D01*
X133469615Y-110155856D02*
X132841043Y-110155856D01*
X133155329Y-110155856D02*
X133155329Y-109155856D01*
X133155329Y-109155856D02*
X133050567Y-109298713D01*
X133050567Y-109298713D02*
X132945805Y-109393951D01*
X132945805Y-109393951D02*
X132841043Y-109441570D01*
X133888662Y-109251094D02*
X133941043Y-109203475D01*
X133941043Y-109203475D02*
X134045805Y-109155856D01*
X134045805Y-109155856D02*
X134307710Y-109155856D01*
X134307710Y-109155856D02*
X134412472Y-109203475D01*
X134412472Y-109203475D02*
X134464853Y-109251094D01*
X134464853Y-109251094D02*
X134517234Y-109346332D01*
X134517234Y-109346332D02*
X134517234Y-109441570D01*
X134517234Y-109441570D02*
X134464853Y-109584427D01*
X134464853Y-109584427D02*
X133836281Y-110155856D01*
X133836281Y-110155856D02*
X134517234Y-110155856D01*
X148093424Y-106703475D02*
X147988662Y-106655856D01*
X147988662Y-106655856D02*
X147831519Y-106655856D01*
X147831519Y-106655856D02*
X147674376Y-106703475D01*
X147674376Y-106703475D02*
X147569614Y-106798713D01*
X147569614Y-106798713D02*
X147517233Y-106893951D01*
X147517233Y-106893951D02*
X147464852Y-107084427D01*
X147464852Y-107084427D02*
X147464852Y-107227284D01*
X147464852Y-107227284D02*
X147517233Y-107417760D01*
X147517233Y-107417760D02*
X147569614Y-107512998D01*
X147569614Y-107512998D02*
X147674376Y-107608237D01*
X147674376Y-107608237D02*
X147831519Y-107655856D01*
X147831519Y-107655856D02*
X147936281Y-107655856D01*
X147936281Y-107655856D02*
X148093424Y-107608237D01*
X148093424Y-107608237D02*
X148145805Y-107560617D01*
X148145805Y-107560617D02*
X148145805Y-107227284D01*
X148145805Y-107227284D02*
X147936281Y-107227284D01*
X148617233Y-107655856D02*
X148617233Y-106655856D01*
X148617233Y-106655856D02*
X149036281Y-106655856D01*
X149036281Y-106655856D02*
X149141043Y-106703475D01*
X149141043Y-106703475D02*
X149193424Y-106751094D01*
X149193424Y-106751094D02*
X149245805Y-106846332D01*
X149245805Y-106846332D02*
X149245805Y-106989189D01*
X149245805Y-106989189D02*
X149193424Y-107084427D01*
X149193424Y-107084427D02*
X149141043Y-107132046D01*
X149141043Y-107132046D02*
X149036281Y-107179665D01*
X149036281Y-107179665D02*
X148617233Y-107179665D01*
X149717233Y-107655856D02*
X149717233Y-106655856D01*
X150450567Y-106655856D02*
X150660091Y-106655856D01*
X150660091Y-106655856D02*
X150764853Y-106703475D01*
X150764853Y-106703475D02*
X150869615Y-106798713D01*
X150869615Y-106798713D02*
X150921996Y-106989189D01*
X150921996Y-106989189D02*
X150921996Y-107322522D01*
X150921996Y-107322522D02*
X150869615Y-107512998D01*
X150869615Y-107512998D02*
X150764853Y-107608237D01*
X150764853Y-107608237D02*
X150660091Y-107655856D01*
X150660091Y-107655856D02*
X150450567Y-107655856D01*
X150450567Y-107655856D02*
X150345805Y-107608237D01*
X150345805Y-107608237D02*
X150241043Y-107512998D01*
X150241043Y-107512998D02*
X150188662Y-107322522D01*
X150188662Y-107322522D02*
X150188662Y-106989189D01*
X150188662Y-106989189D02*
X150241043Y-106798713D01*
X150241043Y-106798713D02*
X150345805Y-106703475D01*
X150345805Y-106703475D02*
X150450567Y-106655856D01*
X151864853Y-106989189D02*
X151864853Y-107655856D01*
X151602948Y-106608237D02*
X151341043Y-107322522D01*
X151341043Y-107322522D02*
X152021996Y-107322522D01*
X129593424Y-96703475D02*
X129488662Y-96655856D01*
X129488662Y-96655856D02*
X129331519Y-96655856D01*
X129331519Y-96655856D02*
X129174376Y-96703475D01*
X129174376Y-96703475D02*
X129069614Y-96798713D01*
X129069614Y-96798713D02*
X129017233Y-96893951D01*
X129017233Y-96893951D02*
X128964852Y-97084427D01*
X128964852Y-97084427D02*
X128964852Y-97227284D01*
X128964852Y-97227284D02*
X129017233Y-97417760D01*
X129017233Y-97417760D02*
X129069614Y-97512998D01*
X129069614Y-97512998D02*
X129174376Y-97608237D01*
X129174376Y-97608237D02*
X129331519Y-97655856D01*
X129331519Y-97655856D02*
X129436281Y-97655856D01*
X129436281Y-97655856D02*
X129593424Y-97608237D01*
X129593424Y-97608237D02*
X129645805Y-97560617D01*
X129645805Y-97560617D02*
X129645805Y-97227284D01*
X129645805Y-97227284D02*
X129436281Y-97227284D01*
X130117233Y-97655856D02*
X130117233Y-96655856D01*
X130117233Y-96655856D02*
X130536281Y-96655856D01*
X130536281Y-96655856D02*
X130641043Y-96703475D01*
X130641043Y-96703475D02*
X130693424Y-96751094D01*
X130693424Y-96751094D02*
X130745805Y-96846332D01*
X130745805Y-96846332D02*
X130745805Y-96989189D01*
X130745805Y-96989189D02*
X130693424Y-97084427D01*
X130693424Y-97084427D02*
X130641043Y-97132046D01*
X130641043Y-97132046D02*
X130536281Y-97179665D01*
X130536281Y-97179665D02*
X130117233Y-97179665D01*
X131217233Y-97655856D02*
X131217233Y-96655856D01*
X131950567Y-96655856D02*
X132160091Y-96655856D01*
X132160091Y-96655856D02*
X132264853Y-96703475D01*
X132264853Y-96703475D02*
X132369615Y-96798713D01*
X132369615Y-96798713D02*
X132421996Y-96989189D01*
X132421996Y-96989189D02*
X132421996Y-97322522D01*
X132421996Y-97322522D02*
X132369615Y-97512998D01*
X132369615Y-97512998D02*
X132264853Y-97608237D01*
X132264853Y-97608237D02*
X132160091Y-97655856D01*
X132160091Y-97655856D02*
X131950567Y-97655856D01*
X131950567Y-97655856D02*
X131845805Y-97608237D01*
X131845805Y-97608237D02*
X131741043Y-97512998D01*
X131741043Y-97512998D02*
X131688662Y-97322522D01*
X131688662Y-97322522D02*
X131688662Y-96989189D01*
X131688662Y-96989189D02*
X131741043Y-96798713D01*
X131741043Y-96798713D02*
X131845805Y-96703475D01*
X131845805Y-96703475D02*
X131950567Y-96655856D01*
X132788662Y-96655856D02*
X133469615Y-96655856D01*
X133469615Y-96655856D02*
X133102948Y-97036808D01*
X133102948Y-97036808D02*
X133260091Y-97036808D01*
X133260091Y-97036808D02*
X133364853Y-97084427D01*
X133364853Y-97084427D02*
X133417234Y-97132046D01*
X133417234Y-97132046D02*
X133469615Y-97227284D01*
X133469615Y-97227284D02*
X133469615Y-97465379D01*
X133469615Y-97465379D02*
X133417234Y-97560617D01*
X133417234Y-97560617D02*
X133364853Y-97608237D01*
X133364853Y-97608237D02*
X133260091Y-97655856D01*
X133260091Y-97655856D02*
X132945805Y-97655856D01*
X132945805Y-97655856D02*
X132841043Y-97608237D01*
X132841043Y-97608237D02*
X132788662Y-97560617D01*
X133836281Y-96655856D02*
X134517234Y-96655856D01*
X134517234Y-96655856D02*
X134150567Y-97036808D01*
X134150567Y-97036808D02*
X134307710Y-97036808D01*
X134307710Y-97036808D02*
X134412472Y-97084427D01*
X134412472Y-97084427D02*
X134464853Y-97132046D01*
X134464853Y-97132046D02*
X134517234Y-97227284D01*
X134517234Y-97227284D02*
X134517234Y-97465379D01*
X134517234Y-97465379D02*
X134464853Y-97560617D01*
X134464853Y-97560617D02*
X134412472Y-97608237D01*
X134412472Y-97608237D02*
X134307710Y-97655856D01*
X134307710Y-97655856D02*
X133993424Y-97655856D01*
X133993424Y-97655856D02*
X133888662Y-97608237D01*
X133888662Y-97608237D02*
X133836281Y-97560617D01*
X129593424Y-111703475D02*
X129488662Y-111655856D01*
X129488662Y-111655856D02*
X129331519Y-111655856D01*
X129331519Y-111655856D02*
X129174376Y-111703475D01*
X129174376Y-111703475D02*
X129069614Y-111798713D01*
X129069614Y-111798713D02*
X129017233Y-111893951D01*
X129017233Y-111893951D02*
X128964852Y-112084427D01*
X128964852Y-112084427D02*
X128964852Y-112227284D01*
X128964852Y-112227284D02*
X129017233Y-112417760D01*
X129017233Y-112417760D02*
X129069614Y-112512998D01*
X129069614Y-112512998D02*
X129174376Y-112608237D01*
X129174376Y-112608237D02*
X129331519Y-112655856D01*
X129331519Y-112655856D02*
X129436281Y-112655856D01*
X129436281Y-112655856D02*
X129593424Y-112608237D01*
X129593424Y-112608237D02*
X129645805Y-112560617D01*
X129645805Y-112560617D02*
X129645805Y-112227284D01*
X129645805Y-112227284D02*
X129436281Y-112227284D01*
X130117233Y-112655856D02*
X130117233Y-111655856D01*
X130117233Y-111655856D02*
X130536281Y-111655856D01*
X130536281Y-111655856D02*
X130641043Y-111703475D01*
X130641043Y-111703475D02*
X130693424Y-111751094D01*
X130693424Y-111751094D02*
X130745805Y-111846332D01*
X130745805Y-111846332D02*
X130745805Y-111989189D01*
X130745805Y-111989189D02*
X130693424Y-112084427D01*
X130693424Y-112084427D02*
X130641043Y-112132046D01*
X130641043Y-112132046D02*
X130536281Y-112179665D01*
X130536281Y-112179665D02*
X130117233Y-112179665D01*
X131217233Y-112655856D02*
X131217233Y-111655856D01*
X131950567Y-111655856D02*
X132160091Y-111655856D01*
X132160091Y-111655856D02*
X132264853Y-111703475D01*
X132264853Y-111703475D02*
X132369615Y-111798713D01*
X132369615Y-111798713D02*
X132421996Y-111989189D01*
X132421996Y-111989189D02*
X132421996Y-112322522D01*
X132421996Y-112322522D02*
X132369615Y-112512998D01*
X132369615Y-112512998D02*
X132264853Y-112608237D01*
X132264853Y-112608237D02*
X132160091Y-112655856D01*
X132160091Y-112655856D02*
X131950567Y-112655856D01*
X131950567Y-112655856D02*
X131845805Y-112608237D01*
X131845805Y-112608237D02*
X131741043Y-112512998D01*
X131741043Y-112512998D02*
X131688662Y-112322522D01*
X131688662Y-112322522D02*
X131688662Y-111989189D01*
X131688662Y-111989189D02*
X131741043Y-111798713D01*
X131741043Y-111798713D02*
X131845805Y-111703475D01*
X131845805Y-111703475D02*
X131950567Y-111655856D01*
X133469615Y-112655856D02*
X132841043Y-112655856D01*
X133155329Y-112655856D02*
X133155329Y-111655856D01*
X133155329Y-111655856D02*
X133050567Y-111798713D01*
X133050567Y-111798713D02*
X132945805Y-111893951D01*
X132945805Y-111893951D02*
X132841043Y-111941570D01*
X133836281Y-111655856D02*
X134517234Y-111655856D01*
X134517234Y-111655856D02*
X134150567Y-112036808D01*
X134150567Y-112036808D02*
X134307710Y-112036808D01*
X134307710Y-112036808D02*
X134412472Y-112084427D01*
X134412472Y-112084427D02*
X134464853Y-112132046D01*
X134464853Y-112132046D02*
X134517234Y-112227284D01*
X134517234Y-112227284D02*
X134517234Y-112465379D01*
X134517234Y-112465379D02*
X134464853Y-112560617D01*
X134464853Y-112560617D02*
X134412472Y-112608237D01*
X134412472Y-112608237D02*
X134307710Y-112655856D01*
X134307710Y-112655856D02*
X133993424Y-112655856D01*
X133993424Y-112655856D02*
X133888662Y-112608237D01*
X133888662Y-112608237D02*
X133836281Y-112560617D01*
X129593424Y-104203475D02*
X129488662Y-104155856D01*
X129488662Y-104155856D02*
X129331519Y-104155856D01*
X129331519Y-104155856D02*
X129174376Y-104203475D01*
X129174376Y-104203475D02*
X129069614Y-104298713D01*
X129069614Y-104298713D02*
X129017233Y-104393951D01*
X129017233Y-104393951D02*
X128964852Y-104584427D01*
X128964852Y-104584427D02*
X128964852Y-104727284D01*
X128964852Y-104727284D02*
X129017233Y-104917760D01*
X129017233Y-104917760D02*
X129069614Y-105012998D01*
X129069614Y-105012998D02*
X129174376Y-105108237D01*
X129174376Y-105108237D02*
X129331519Y-105155856D01*
X129331519Y-105155856D02*
X129436281Y-105155856D01*
X129436281Y-105155856D02*
X129593424Y-105108237D01*
X129593424Y-105108237D02*
X129645805Y-105060617D01*
X129645805Y-105060617D02*
X129645805Y-104727284D01*
X129645805Y-104727284D02*
X129436281Y-104727284D01*
X130117233Y-105155856D02*
X130117233Y-104155856D01*
X130117233Y-104155856D02*
X130536281Y-104155856D01*
X130536281Y-104155856D02*
X130641043Y-104203475D01*
X130641043Y-104203475D02*
X130693424Y-104251094D01*
X130693424Y-104251094D02*
X130745805Y-104346332D01*
X130745805Y-104346332D02*
X130745805Y-104489189D01*
X130745805Y-104489189D02*
X130693424Y-104584427D01*
X130693424Y-104584427D02*
X130641043Y-104632046D01*
X130641043Y-104632046D02*
X130536281Y-104679665D01*
X130536281Y-104679665D02*
X130117233Y-104679665D01*
X131217233Y-105155856D02*
X131217233Y-104155856D01*
X131950567Y-104155856D02*
X132160091Y-104155856D01*
X132160091Y-104155856D02*
X132264853Y-104203475D01*
X132264853Y-104203475D02*
X132369615Y-104298713D01*
X132369615Y-104298713D02*
X132421996Y-104489189D01*
X132421996Y-104489189D02*
X132421996Y-104822522D01*
X132421996Y-104822522D02*
X132369615Y-105012998D01*
X132369615Y-105012998D02*
X132264853Y-105108237D01*
X132264853Y-105108237D02*
X132160091Y-105155856D01*
X132160091Y-105155856D02*
X131950567Y-105155856D01*
X131950567Y-105155856D02*
X131845805Y-105108237D01*
X131845805Y-105108237D02*
X131741043Y-105012998D01*
X131741043Y-105012998D02*
X131688662Y-104822522D01*
X131688662Y-104822522D02*
X131688662Y-104489189D01*
X131688662Y-104489189D02*
X131741043Y-104298713D01*
X131741043Y-104298713D02*
X131845805Y-104203475D01*
X131845805Y-104203475D02*
X131950567Y-104155856D01*
X132841043Y-104251094D02*
X132893424Y-104203475D01*
X132893424Y-104203475D02*
X132998186Y-104155856D01*
X132998186Y-104155856D02*
X133260091Y-104155856D01*
X133260091Y-104155856D02*
X133364853Y-104203475D01*
X133364853Y-104203475D02*
X133417234Y-104251094D01*
X133417234Y-104251094D02*
X133469615Y-104346332D01*
X133469615Y-104346332D02*
X133469615Y-104441570D01*
X133469615Y-104441570D02*
X133417234Y-104584427D01*
X133417234Y-104584427D02*
X132788662Y-105155856D01*
X132788662Y-105155856D02*
X133469615Y-105155856D01*
X133836281Y-104155856D02*
X134569615Y-104155856D01*
X134569615Y-104155856D02*
X134098186Y-105155856D01*
X129593424Y-106703475D02*
X129488662Y-106655856D01*
X129488662Y-106655856D02*
X129331519Y-106655856D01*
X129331519Y-106655856D02*
X129174376Y-106703475D01*
X129174376Y-106703475D02*
X129069614Y-106798713D01*
X129069614Y-106798713D02*
X129017233Y-106893951D01*
X129017233Y-106893951D02*
X128964852Y-107084427D01*
X128964852Y-107084427D02*
X128964852Y-107227284D01*
X128964852Y-107227284D02*
X129017233Y-107417760D01*
X129017233Y-107417760D02*
X129069614Y-107512998D01*
X129069614Y-107512998D02*
X129174376Y-107608237D01*
X129174376Y-107608237D02*
X129331519Y-107655856D01*
X129331519Y-107655856D02*
X129436281Y-107655856D01*
X129436281Y-107655856D02*
X129593424Y-107608237D01*
X129593424Y-107608237D02*
X129645805Y-107560617D01*
X129645805Y-107560617D02*
X129645805Y-107227284D01*
X129645805Y-107227284D02*
X129436281Y-107227284D01*
X130117233Y-107655856D02*
X130117233Y-106655856D01*
X130117233Y-106655856D02*
X130536281Y-106655856D01*
X130536281Y-106655856D02*
X130641043Y-106703475D01*
X130641043Y-106703475D02*
X130693424Y-106751094D01*
X130693424Y-106751094D02*
X130745805Y-106846332D01*
X130745805Y-106846332D02*
X130745805Y-106989189D01*
X130745805Y-106989189D02*
X130693424Y-107084427D01*
X130693424Y-107084427D02*
X130641043Y-107132046D01*
X130641043Y-107132046D02*
X130536281Y-107179665D01*
X130536281Y-107179665D02*
X130117233Y-107179665D01*
X131217233Y-107655856D02*
X131217233Y-106655856D01*
X131950567Y-106655856D02*
X132160091Y-106655856D01*
X132160091Y-106655856D02*
X132264853Y-106703475D01*
X132264853Y-106703475D02*
X132369615Y-106798713D01*
X132369615Y-106798713D02*
X132421996Y-106989189D01*
X132421996Y-106989189D02*
X132421996Y-107322522D01*
X132421996Y-107322522D02*
X132369615Y-107512998D01*
X132369615Y-107512998D02*
X132264853Y-107608237D01*
X132264853Y-107608237D02*
X132160091Y-107655856D01*
X132160091Y-107655856D02*
X131950567Y-107655856D01*
X131950567Y-107655856D02*
X131845805Y-107608237D01*
X131845805Y-107608237D02*
X131741043Y-107512998D01*
X131741043Y-107512998D02*
X131688662Y-107322522D01*
X131688662Y-107322522D02*
X131688662Y-106989189D01*
X131688662Y-106989189D02*
X131741043Y-106798713D01*
X131741043Y-106798713D02*
X131845805Y-106703475D01*
X131845805Y-106703475D02*
X131950567Y-106655856D01*
X133469615Y-107655856D02*
X132841043Y-107655856D01*
X133155329Y-107655856D02*
X133155329Y-106655856D01*
X133155329Y-106655856D02*
X133050567Y-106798713D01*
X133050567Y-106798713D02*
X132945805Y-106893951D01*
X132945805Y-106893951D02*
X132841043Y-106941570D01*
X134412472Y-106989189D02*
X134412472Y-107655856D01*
X134150567Y-106608237D02*
X133888662Y-107322522D01*
X133888662Y-107322522D02*
X134569615Y-107322522D01*
X148912471Y-116655856D02*
X149593424Y-116655856D01*
X149593424Y-116655856D02*
X149226757Y-117036808D01*
X149226757Y-117036808D02*
X149383900Y-117036808D01*
X149383900Y-117036808D02*
X149488662Y-117084427D01*
X149488662Y-117084427D02*
X149541043Y-117132046D01*
X149541043Y-117132046D02*
X149593424Y-117227284D01*
X149593424Y-117227284D02*
X149593424Y-117465379D01*
X149593424Y-117465379D02*
X149541043Y-117560617D01*
X149541043Y-117560617D02*
X149488662Y-117608237D01*
X149488662Y-117608237D02*
X149383900Y-117655856D01*
X149383900Y-117655856D02*
X149069614Y-117655856D01*
X149069614Y-117655856D02*
X148964852Y-117608237D01*
X148964852Y-117608237D02*
X148912471Y-117560617D01*
X150064852Y-117560617D02*
X150117233Y-117608237D01*
X150117233Y-117608237D02*
X150064852Y-117655856D01*
X150064852Y-117655856D02*
X150012471Y-117608237D01*
X150012471Y-117608237D02*
X150064852Y-117560617D01*
X150064852Y-117560617D02*
X150064852Y-117655856D01*
X150483900Y-116655856D02*
X151164853Y-116655856D01*
X151164853Y-116655856D02*
X150798186Y-117036808D01*
X150798186Y-117036808D02*
X150955329Y-117036808D01*
X150955329Y-117036808D02*
X151060091Y-117084427D01*
X151060091Y-117084427D02*
X151112472Y-117132046D01*
X151112472Y-117132046D02*
X151164853Y-117227284D01*
X151164853Y-117227284D02*
X151164853Y-117465379D01*
X151164853Y-117465379D02*
X151112472Y-117560617D01*
X151112472Y-117560617D02*
X151060091Y-117608237D01*
X151060091Y-117608237D02*
X150955329Y-117655856D01*
X150955329Y-117655856D02*
X150641043Y-117655856D01*
X150641043Y-117655856D02*
X150536281Y-117608237D01*
X150536281Y-117608237D02*
X150483900Y-117560617D01*
X151531519Y-116989189D02*
X151793424Y-117655856D01*
X151793424Y-117655856D02*
X152055329Y-116989189D01*
X147093424Y-111703475D02*
X146988662Y-111655856D01*
X146988662Y-111655856D02*
X146831519Y-111655856D01*
X146831519Y-111655856D02*
X146674376Y-111703475D01*
X146674376Y-111703475D02*
X146569614Y-111798713D01*
X146569614Y-111798713D02*
X146517233Y-111893951D01*
X146517233Y-111893951D02*
X146464852Y-112084427D01*
X146464852Y-112084427D02*
X146464852Y-112227284D01*
X146464852Y-112227284D02*
X146517233Y-112417760D01*
X146517233Y-112417760D02*
X146569614Y-112512998D01*
X146569614Y-112512998D02*
X146674376Y-112608237D01*
X146674376Y-112608237D02*
X146831519Y-112655856D01*
X146831519Y-112655856D02*
X146936281Y-112655856D01*
X146936281Y-112655856D02*
X147093424Y-112608237D01*
X147093424Y-112608237D02*
X147145805Y-112560617D01*
X147145805Y-112560617D02*
X147145805Y-112227284D01*
X147145805Y-112227284D02*
X146936281Y-112227284D01*
X147617233Y-112655856D02*
X147617233Y-111655856D01*
X147617233Y-111655856D02*
X148036281Y-111655856D01*
X148036281Y-111655856D02*
X148141043Y-111703475D01*
X148141043Y-111703475D02*
X148193424Y-111751094D01*
X148193424Y-111751094D02*
X148245805Y-111846332D01*
X148245805Y-111846332D02*
X148245805Y-111989189D01*
X148245805Y-111989189D02*
X148193424Y-112084427D01*
X148193424Y-112084427D02*
X148141043Y-112132046D01*
X148141043Y-112132046D02*
X148036281Y-112179665D01*
X148036281Y-112179665D02*
X147617233Y-112179665D01*
X148717233Y-112655856D02*
X148717233Y-111655856D01*
X149450567Y-111655856D02*
X149660091Y-111655856D01*
X149660091Y-111655856D02*
X149764853Y-111703475D01*
X149764853Y-111703475D02*
X149869615Y-111798713D01*
X149869615Y-111798713D02*
X149921996Y-111989189D01*
X149921996Y-111989189D02*
X149921996Y-112322522D01*
X149921996Y-112322522D02*
X149869615Y-112512998D01*
X149869615Y-112512998D02*
X149764853Y-112608237D01*
X149764853Y-112608237D02*
X149660091Y-112655856D01*
X149660091Y-112655856D02*
X149450567Y-112655856D01*
X149450567Y-112655856D02*
X149345805Y-112608237D01*
X149345805Y-112608237D02*
X149241043Y-112512998D01*
X149241043Y-112512998D02*
X149188662Y-112322522D01*
X149188662Y-112322522D02*
X149188662Y-111989189D01*
X149188662Y-111989189D02*
X149241043Y-111798713D01*
X149241043Y-111798713D02*
X149345805Y-111703475D01*
X149345805Y-111703475D02*
X149450567Y-111655856D01*
X150969615Y-112655856D02*
X150341043Y-112655856D01*
X150655329Y-112655856D02*
X150655329Y-111655856D01*
X150655329Y-111655856D02*
X150550567Y-111798713D01*
X150550567Y-111798713D02*
X150445805Y-111893951D01*
X150445805Y-111893951D02*
X150341043Y-111941570D01*
X151964853Y-111655856D02*
X151441043Y-111655856D01*
X151441043Y-111655856D02*
X151388662Y-112132046D01*
X151388662Y-112132046D02*
X151441043Y-112084427D01*
X151441043Y-112084427D02*
X151545805Y-112036808D01*
X151545805Y-112036808D02*
X151807710Y-112036808D01*
X151807710Y-112036808D02*
X151912472Y-112084427D01*
X151912472Y-112084427D02*
X151964853Y-112132046D01*
X151964853Y-112132046D02*
X152017234Y-112227284D01*
X152017234Y-112227284D02*
X152017234Y-112465379D01*
X152017234Y-112465379D02*
X151964853Y-112560617D01*
X151964853Y-112560617D02*
X151912472Y-112608237D01*
X151912472Y-112608237D02*
X151807710Y-112655856D01*
X151807710Y-112655856D02*
X151545805Y-112655856D01*
X151545805Y-112655856D02*
X151441043Y-112608237D01*
X151441043Y-112608237D02*
X151388662Y-112560617D01*
X129593424Y-114203475D02*
X129488662Y-114155856D01*
X129488662Y-114155856D02*
X129331519Y-114155856D01*
X129331519Y-114155856D02*
X129174376Y-114203475D01*
X129174376Y-114203475D02*
X129069614Y-114298713D01*
X129069614Y-114298713D02*
X129017233Y-114393951D01*
X129017233Y-114393951D02*
X128964852Y-114584427D01*
X128964852Y-114584427D02*
X128964852Y-114727284D01*
X128964852Y-114727284D02*
X129017233Y-114917760D01*
X129017233Y-114917760D02*
X129069614Y-115012998D01*
X129069614Y-115012998D02*
X129174376Y-115108237D01*
X129174376Y-115108237D02*
X129331519Y-115155856D01*
X129331519Y-115155856D02*
X129436281Y-115155856D01*
X129436281Y-115155856D02*
X129593424Y-115108237D01*
X129593424Y-115108237D02*
X129645805Y-115060617D01*
X129645805Y-115060617D02*
X129645805Y-114727284D01*
X129645805Y-114727284D02*
X129436281Y-114727284D01*
X130117233Y-115155856D02*
X130117233Y-114155856D01*
X130117233Y-114155856D02*
X130745805Y-115155856D01*
X130745805Y-115155856D02*
X130745805Y-114155856D01*
X131269614Y-115155856D02*
X131269614Y-114155856D01*
X131269614Y-114155856D02*
X131531519Y-114155856D01*
X131531519Y-114155856D02*
X131688662Y-114203475D01*
X131688662Y-114203475D02*
X131793424Y-114298713D01*
X131793424Y-114298713D02*
X131845805Y-114393951D01*
X131845805Y-114393951D02*
X131898186Y-114584427D01*
X131898186Y-114584427D02*
X131898186Y-114727284D01*
X131898186Y-114727284D02*
X131845805Y-114917760D01*
X131845805Y-114917760D02*
X131793424Y-115012998D01*
X131793424Y-115012998D02*
X131688662Y-115108237D01*
X131688662Y-115108237D02*
X131531519Y-115155856D01*
X131531519Y-115155856D02*
X131269614Y-115155856D01*
X129593424Y-84203475D02*
X129488662Y-84155856D01*
X129488662Y-84155856D02*
X129331519Y-84155856D01*
X129331519Y-84155856D02*
X129174376Y-84203475D01*
X129174376Y-84203475D02*
X129069614Y-84298713D01*
X129069614Y-84298713D02*
X129017233Y-84393951D01*
X129017233Y-84393951D02*
X128964852Y-84584427D01*
X128964852Y-84584427D02*
X128964852Y-84727284D01*
X128964852Y-84727284D02*
X129017233Y-84917760D01*
X129017233Y-84917760D02*
X129069614Y-85012998D01*
X129069614Y-85012998D02*
X129174376Y-85108237D01*
X129174376Y-85108237D02*
X129331519Y-85155856D01*
X129331519Y-85155856D02*
X129436281Y-85155856D01*
X129436281Y-85155856D02*
X129593424Y-85108237D01*
X129593424Y-85108237D02*
X129645805Y-85060617D01*
X129645805Y-85060617D02*
X129645805Y-84727284D01*
X129645805Y-84727284D02*
X129436281Y-84727284D01*
X130117233Y-85155856D02*
X130117233Y-84155856D01*
X130117233Y-84155856D02*
X130536281Y-84155856D01*
X130536281Y-84155856D02*
X130641043Y-84203475D01*
X130641043Y-84203475D02*
X130693424Y-84251094D01*
X130693424Y-84251094D02*
X130745805Y-84346332D01*
X130745805Y-84346332D02*
X130745805Y-84489189D01*
X130745805Y-84489189D02*
X130693424Y-84584427D01*
X130693424Y-84584427D02*
X130641043Y-84632046D01*
X130641043Y-84632046D02*
X130536281Y-84679665D01*
X130536281Y-84679665D02*
X130117233Y-84679665D01*
X131217233Y-85155856D02*
X131217233Y-84155856D01*
X131950567Y-84155856D02*
X132160091Y-84155856D01*
X132160091Y-84155856D02*
X132264853Y-84203475D01*
X132264853Y-84203475D02*
X132369615Y-84298713D01*
X132369615Y-84298713D02*
X132421996Y-84489189D01*
X132421996Y-84489189D02*
X132421996Y-84822522D01*
X132421996Y-84822522D02*
X132369615Y-85012998D01*
X132369615Y-85012998D02*
X132264853Y-85108237D01*
X132264853Y-85108237D02*
X132160091Y-85155856D01*
X132160091Y-85155856D02*
X131950567Y-85155856D01*
X131950567Y-85155856D02*
X131845805Y-85108237D01*
X131845805Y-85108237D02*
X131741043Y-85012998D01*
X131741043Y-85012998D02*
X131688662Y-84822522D01*
X131688662Y-84822522D02*
X131688662Y-84489189D01*
X131688662Y-84489189D02*
X131741043Y-84298713D01*
X131741043Y-84298713D02*
X131845805Y-84203475D01*
X131845805Y-84203475D02*
X131950567Y-84155856D01*
X132788662Y-84155856D02*
X133469615Y-84155856D01*
X133469615Y-84155856D02*
X133102948Y-84536808D01*
X133102948Y-84536808D02*
X133260091Y-84536808D01*
X133260091Y-84536808D02*
X133364853Y-84584427D01*
X133364853Y-84584427D02*
X133417234Y-84632046D01*
X133417234Y-84632046D02*
X133469615Y-84727284D01*
X133469615Y-84727284D02*
X133469615Y-84965379D01*
X133469615Y-84965379D02*
X133417234Y-85060617D01*
X133417234Y-85060617D02*
X133364853Y-85108237D01*
X133364853Y-85108237D02*
X133260091Y-85155856D01*
X133260091Y-85155856D02*
X132945805Y-85155856D01*
X132945805Y-85155856D02*
X132841043Y-85108237D01*
X132841043Y-85108237D02*
X132788662Y-85060617D01*
X134412472Y-84155856D02*
X134202948Y-84155856D01*
X134202948Y-84155856D02*
X134098186Y-84203475D01*
X134098186Y-84203475D02*
X134045805Y-84251094D01*
X134045805Y-84251094D02*
X133941043Y-84393951D01*
X133941043Y-84393951D02*
X133888662Y-84584427D01*
X133888662Y-84584427D02*
X133888662Y-84965379D01*
X133888662Y-84965379D02*
X133941043Y-85060617D01*
X133941043Y-85060617D02*
X133993424Y-85108237D01*
X133993424Y-85108237D02*
X134098186Y-85155856D01*
X134098186Y-85155856D02*
X134307710Y-85155856D01*
X134307710Y-85155856D02*
X134412472Y-85108237D01*
X134412472Y-85108237D02*
X134464853Y-85060617D01*
X134464853Y-85060617D02*
X134517234Y-84965379D01*
X134517234Y-84965379D02*
X134517234Y-84727284D01*
X134517234Y-84727284D02*
X134464853Y-84632046D01*
X134464853Y-84632046D02*
X134412472Y-84584427D01*
X134412472Y-84584427D02*
X134307710Y-84536808D01*
X134307710Y-84536808D02*
X134098186Y-84536808D01*
X134098186Y-84536808D02*
X133993424Y-84584427D01*
X133993424Y-84584427D02*
X133941043Y-84632046D01*
X133941043Y-84632046D02*
X133888662Y-84727284D01*
X148093424Y-99203475D02*
X147988662Y-99155856D01*
X147988662Y-99155856D02*
X147831519Y-99155856D01*
X147831519Y-99155856D02*
X147674376Y-99203475D01*
X147674376Y-99203475D02*
X147569614Y-99298713D01*
X147569614Y-99298713D02*
X147517233Y-99393951D01*
X147517233Y-99393951D02*
X147464852Y-99584427D01*
X147464852Y-99584427D02*
X147464852Y-99727284D01*
X147464852Y-99727284D02*
X147517233Y-99917760D01*
X147517233Y-99917760D02*
X147569614Y-100012998D01*
X147569614Y-100012998D02*
X147674376Y-100108237D01*
X147674376Y-100108237D02*
X147831519Y-100155856D01*
X147831519Y-100155856D02*
X147936281Y-100155856D01*
X147936281Y-100155856D02*
X148093424Y-100108237D01*
X148093424Y-100108237D02*
X148145805Y-100060617D01*
X148145805Y-100060617D02*
X148145805Y-99727284D01*
X148145805Y-99727284D02*
X147936281Y-99727284D01*
X148617233Y-100155856D02*
X148617233Y-99155856D01*
X148617233Y-99155856D02*
X149036281Y-99155856D01*
X149036281Y-99155856D02*
X149141043Y-99203475D01*
X149141043Y-99203475D02*
X149193424Y-99251094D01*
X149193424Y-99251094D02*
X149245805Y-99346332D01*
X149245805Y-99346332D02*
X149245805Y-99489189D01*
X149245805Y-99489189D02*
X149193424Y-99584427D01*
X149193424Y-99584427D02*
X149141043Y-99632046D01*
X149141043Y-99632046D02*
X149036281Y-99679665D01*
X149036281Y-99679665D02*
X148617233Y-99679665D01*
X149717233Y-100155856D02*
X149717233Y-99155856D01*
X150450567Y-99155856D02*
X150660091Y-99155856D01*
X150660091Y-99155856D02*
X150764853Y-99203475D01*
X150764853Y-99203475D02*
X150869615Y-99298713D01*
X150869615Y-99298713D02*
X150921996Y-99489189D01*
X150921996Y-99489189D02*
X150921996Y-99822522D01*
X150921996Y-99822522D02*
X150869615Y-100012998D01*
X150869615Y-100012998D02*
X150764853Y-100108237D01*
X150764853Y-100108237D02*
X150660091Y-100155856D01*
X150660091Y-100155856D02*
X150450567Y-100155856D01*
X150450567Y-100155856D02*
X150345805Y-100108237D01*
X150345805Y-100108237D02*
X150241043Y-100012998D01*
X150241043Y-100012998D02*
X150188662Y-99822522D01*
X150188662Y-99822522D02*
X150188662Y-99489189D01*
X150188662Y-99489189D02*
X150241043Y-99298713D01*
X150241043Y-99298713D02*
X150345805Y-99203475D01*
X150345805Y-99203475D02*
X150450567Y-99155856D01*
X151917234Y-99155856D02*
X151393424Y-99155856D01*
X151393424Y-99155856D02*
X151341043Y-99632046D01*
X151341043Y-99632046D02*
X151393424Y-99584427D01*
X151393424Y-99584427D02*
X151498186Y-99536808D01*
X151498186Y-99536808D02*
X151760091Y-99536808D01*
X151760091Y-99536808D02*
X151864853Y-99584427D01*
X151864853Y-99584427D02*
X151917234Y-99632046D01*
X151917234Y-99632046D02*
X151969615Y-99727284D01*
X151969615Y-99727284D02*
X151969615Y-99965379D01*
X151969615Y-99965379D02*
X151917234Y-100060617D01*
X151917234Y-100060617D02*
X151864853Y-100108237D01*
X151864853Y-100108237D02*
X151760091Y-100155856D01*
X151760091Y-100155856D02*
X151498186Y-100155856D01*
X151498186Y-100155856D02*
X151393424Y-100108237D01*
X151393424Y-100108237D02*
X151341043Y-100060617D01*
X147093424Y-81203475D02*
X146988662Y-81155856D01*
X146988662Y-81155856D02*
X146831519Y-81155856D01*
X146831519Y-81155856D02*
X146674376Y-81203475D01*
X146674376Y-81203475D02*
X146569614Y-81298713D01*
X146569614Y-81298713D02*
X146517233Y-81393951D01*
X146517233Y-81393951D02*
X146464852Y-81584427D01*
X146464852Y-81584427D02*
X146464852Y-81727284D01*
X146464852Y-81727284D02*
X146517233Y-81917760D01*
X146517233Y-81917760D02*
X146569614Y-82012998D01*
X146569614Y-82012998D02*
X146674376Y-82108237D01*
X146674376Y-82108237D02*
X146831519Y-82155856D01*
X146831519Y-82155856D02*
X146936281Y-82155856D01*
X146936281Y-82155856D02*
X147093424Y-82108237D01*
X147093424Y-82108237D02*
X147145805Y-82060617D01*
X147145805Y-82060617D02*
X147145805Y-81727284D01*
X147145805Y-81727284D02*
X146936281Y-81727284D01*
X147617233Y-82155856D02*
X147617233Y-81155856D01*
X147617233Y-81155856D02*
X148036281Y-81155856D01*
X148036281Y-81155856D02*
X148141043Y-81203475D01*
X148141043Y-81203475D02*
X148193424Y-81251094D01*
X148193424Y-81251094D02*
X148245805Y-81346332D01*
X148245805Y-81346332D02*
X148245805Y-81489189D01*
X148245805Y-81489189D02*
X148193424Y-81584427D01*
X148193424Y-81584427D02*
X148141043Y-81632046D01*
X148141043Y-81632046D02*
X148036281Y-81679665D01*
X148036281Y-81679665D02*
X147617233Y-81679665D01*
X148717233Y-82155856D02*
X148717233Y-81155856D01*
X149450567Y-81155856D02*
X149660091Y-81155856D01*
X149660091Y-81155856D02*
X149764853Y-81203475D01*
X149764853Y-81203475D02*
X149869615Y-81298713D01*
X149869615Y-81298713D02*
X149921996Y-81489189D01*
X149921996Y-81489189D02*
X149921996Y-81822522D01*
X149921996Y-81822522D02*
X149869615Y-82012998D01*
X149869615Y-82012998D02*
X149764853Y-82108237D01*
X149764853Y-82108237D02*
X149660091Y-82155856D01*
X149660091Y-82155856D02*
X149450567Y-82155856D01*
X149450567Y-82155856D02*
X149345805Y-82108237D01*
X149345805Y-82108237D02*
X149241043Y-82012998D01*
X149241043Y-82012998D02*
X149188662Y-81822522D01*
X149188662Y-81822522D02*
X149188662Y-81489189D01*
X149188662Y-81489189D02*
X149241043Y-81298713D01*
X149241043Y-81298713D02*
X149345805Y-81203475D01*
X149345805Y-81203475D02*
X149450567Y-81155856D01*
X150341043Y-81251094D02*
X150393424Y-81203475D01*
X150393424Y-81203475D02*
X150498186Y-81155856D01*
X150498186Y-81155856D02*
X150760091Y-81155856D01*
X150760091Y-81155856D02*
X150864853Y-81203475D01*
X150864853Y-81203475D02*
X150917234Y-81251094D01*
X150917234Y-81251094D02*
X150969615Y-81346332D01*
X150969615Y-81346332D02*
X150969615Y-81441570D01*
X150969615Y-81441570D02*
X150917234Y-81584427D01*
X150917234Y-81584427D02*
X150288662Y-82155856D01*
X150288662Y-82155856D02*
X150969615Y-82155856D01*
X151336281Y-81155856D02*
X152017234Y-81155856D01*
X152017234Y-81155856D02*
X151650567Y-81536808D01*
X151650567Y-81536808D02*
X151807710Y-81536808D01*
X151807710Y-81536808D02*
X151912472Y-81584427D01*
X151912472Y-81584427D02*
X151964853Y-81632046D01*
X151964853Y-81632046D02*
X152017234Y-81727284D01*
X152017234Y-81727284D02*
X152017234Y-81965379D01*
X152017234Y-81965379D02*
X151964853Y-82060617D01*
X151964853Y-82060617D02*
X151912472Y-82108237D01*
X151912472Y-82108237D02*
X151807710Y-82155856D01*
X151807710Y-82155856D02*
X151493424Y-82155856D01*
X151493424Y-82155856D02*
X151388662Y-82108237D01*
X151388662Y-82108237D02*
X151336281Y-82060617D01*
D10*
X113859580Y-88166666D02*
X113907200Y-88214285D01*
X113907200Y-88214285D02*
X113954819Y-88357142D01*
X113954819Y-88357142D02*
X113954819Y-88452380D01*
X113954819Y-88452380D02*
X113907200Y-88595237D01*
X113907200Y-88595237D02*
X113811961Y-88690475D01*
X113811961Y-88690475D02*
X113716723Y-88738094D01*
X113716723Y-88738094D02*
X113526247Y-88785713D01*
X113526247Y-88785713D02*
X113383390Y-88785713D01*
X113383390Y-88785713D02*
X113192914Y-88738094D01*
X113192914Y-88738094D02*
X113097676Y-88690475D01*
X113097676Y-88690475D02*
X113002438Y-88595237D01*
X113002438Y-88595237D02*
X112954819Y-88452380D01*
X112954819Y-88452380D02*
X112954819Y-88357142D01*
X112954819Y-88357142D02*
X113002438Y-88214285D01*
X113002438Y-88214285D02*
X113050057Y-88166666D01*
X112954819Y-87833332D02*
X112954819Y-87214285D01*
X112954819Y-87214285D02*
X113335771Y-87547618D01*
X113335771Y-87547618D02*
X113335771Y-87404761D01*
X113335771Y-87404761D02*
X113383390Y-87309523D01*
X113383390Y-87309523D02*
X113431009Y-87261904D01*
X113431009Y-87261904D02*
X113526247Y-87214285D01*
X113526247Y-87214285D02*
X113764342Y-87214285D01*
X113764342Y-87214285D02*
X113859580Y-87261904D01*
X113859580Y-87261904D02*
X113907200Y-87309523D01*
X113907200Y-87309523D02*
X113954819Y-87404761D01*
X113954819Y-87404761D02*
X113954819Y-87690475D01*
X113954819Y-87690475D02*
X113907200Y-87785713D01*
X113907200Y-87785713D02*
X113859580Y-87833332D01*
X166052667Y-104991819D02*
X166386000Y-105991819D01*
X166386000Y-105991819D02*
X166719333Y-104991819D01*
X167052667Y-105991819D02*
X167052667Y-104991819D01*
X167052667Y-104991819D02*
X167290762Y-104991819D01*
X167290762Y-104991819D02*
X167433619Y-105039438D01*
X167433619Y-105039438D02*
X167528857Y-105134676D01*
X167528857Y-105134676D02*
X167576476Y-105229914D01*
X167576476Y-105229914D02*
X167624095Y-105420390D01*
X167624095Y-105420390D02*
X167624095Y-105563247D01*
X167624095Y-105563247D02*
X167576476Y-105753723D01*
X167576476Y-105753723D02*
X167528857Y-105848961D01*
X167528857Y-105848961D02*
X167433619Y-105944200D01*
X167433619Y-105944200D02*
X167290762Y-105991819D01*
X167290762Y-105991819D02*
X167052667Y-105991819D01*
X168052667Y-105991819D02*
X168052667Y-104991819D01*
X168052667Y-104991819D02*
X168290762Y-104991819D01*
X168290762Y-104991819D02*
X168433619Y-105039438D01*
X168433619Y-105039438D02*
X168528857Y-105134676D01*
X168528857Y-105134676D02*
X168576476Y-105229914D01*
X168576476Y-105229914D02*
X168624095Y-105420390D01*
X168624095Y-105420390D02*
X168624095Y-105563247D01*
X168624095Y-105563247D02*
X168576476Y-105753723D01*
X168576476Y-105753723D02*
X168528857Y-105848961D01*
X168528857Y-105848961D02*
X168433619Y-105944200D01*
X168433619Y-105944200D02*
X168290762Y-105991819D01*
X168290762Y-105991819D02*
X168052667Y-105991819D01*
X164214286Y-84527200D02*
X164357143Y-84574819D01*
X164357143Y-84574819D02*
X164595238Y-84574819D01*
X164595238Y-84574819D02*
X164690476Y-84527200D01*
X164690476Y-84527200D02*
X164738095Y-84479580D01*
X164738095Y-84479580D02*
X164785714Y-84384342D01*
X164785714Y-84384342D02*
X164785714Y-84289104D01*
X164785714Y-84289104D02*
X164738095Y-84193866D01*
X164738095Y-84193866D02*
X164690476Y-84146247D01*
X164690476Y-84146247D02*
X164595238Y-84098628D01*
X164595238Y-84098628D02*
X164404762Y-84051009D01*
X164404762Y-84051009D02*
X164309524Y-84003390D01*
X164309524Y-84003390D02*
X164261905Y-83955771D01*
X164261905Y-83955771D02*
X164214286Y-83860533D01*
X164214286Y-83860533D02*
X164214286Y-83765295D01*
X164214286Y-83765295D02*
X164261905Y-83670057D01*
X164261905Y-83670057D02*
X164309524Y-83622438D01*
X164309524Y-83622438D02*
X164404762Y-83574819D01*
X164404762Y-83574819D02*
X164642857Y-83574819D01*
X164642857Y-83574819D02*
X164785714Y-83622438D01*
X165214286Y-84574819D02*
X165214286Y-83574819D01*
X165214286Y-83574819D02*
X165452381Y-83574819D01*
X165452381Y-83574819D02*
X165595238Y-83622438D01*
X165595238Y-83622438D02*
X165690476Y-83717676D01*
X165690476Y-83717676D02*
X165738095Y-83812914D01*
X165738095Y-83812914D02*
X165785714Y-84003390D01*
X165785714Y-84003390D02*
X165785714Y-84146247D01*
X165785714Y-84146247D02*
X165738095Y-84336723D01*
X165738095Y-84336723D02*
X165690476Y-84431961D01*
X165690476Y-84431961D02*
X165595238Y-84527200D01*
X165595238Y-84527200D02*
X165452381Y-84574819D01*
X165452381Y-84574819D02*
X165214286Y-84574819D01*
X140158095Y-54794819D02*
X140158095Y-55604342D01*
X140158095Y-55604342D02*
X140205714Y-55699580D01*
X140205714Y-55699580D02*
X140253333Y-55747200D01*
X140253333Y-55747200D02*
X140348571Y-55794819D01*
X140348571Y-55794819D02*
X140539047Y-55794819D01*
X140539047Y-55794819D02*
X140634285Y-55747200D01*
X140634285Y-55747200D02*
X140681904Y-55699580D01*
X140681904Y-55699580D02*
X140729523Y-55604342D01*
X140729523Y-55604342D02*
X140729523Y-54794819D01*
X141158095Y-54890057D02*
X141205714Y-54842438D01*
X141205714Y-54842438D02*
X141300952Y-54794819D01*
X141300952Y-54794819D02*
X141539047Y-54794819D01*
X141539047Y-54794819D02*
X141634285Y-54842438D01*
X141634285Y-54842438D02*
X141681904Y-54890057D01*
X141681904Y-54890057D02*
X141729523Y-54985295D01*
X141729523Y-54985295D02*
X141729523Y-55080533D01*
X141729523Y-55080533D02*
X141681904Y-55223390D01*
X141681904Y-55223390D02*
X141110476Y-55794819D01*
X141110476Y-55794819D02*
X141729523Y-55794819D01*
X163893667Y-93213819D02*
X164227000Y-94213819D01*
X164227000Y-94213819D02*
X164560333Y-93213819D01*
X164893667Y-94213819D02*
X164893667Y-93213819D01*
X164893667Y-93213819D02*
X165131762Y-93213819D01*
X165131762Y-93213819D02*
X165274619Y-93261438D01*
X165274619Y-93261438D02*
X165369857Y-93356676D01*
X165369857Y-93356676D02*
X165417476Y-93451914D01*
X165417476Y-93451914D02*
X165465095Y-93642390D01*
X165465095Y-93642390D02*
X165465095Y-93785247D01*
X165465095Y-93785247D02*
X165417476Y-93975723D01*
X165417476Y-93975723D02*
X165369857Y-94070961D01*
X165369857Y-94070961D02*
X165274619Y-94166200D01*
X165274619Y-94166200D02*
X165131762Y-94213819D01*
X165131762Y-94213819D02*
X164893667Y-94213819D01*
X165893667Y-94213819D02*
X165893667Y-93213819D01*
X165893667Y-93213819D02*
X166131762Y-93213819D01*
X166131762Y-93213819D02*
X166274619Y-93261438D01*
X166274619Y-93261438D02*
X166369857Y-93356676D01*
X166369857Y-93356676D02*
X166417476Y-93451914D01*
X166417476Y-93451914D02*
X166465095Y-93642390D01*
X166465095Y-93642390D02*
X166465095Y-93785247D01*
X166465095Y-93785247D02*
X166417476Y-93975723D01*
X166417476Y-93975723D02*
X166369857Y-94070961D01*
X166369857Y-94070961D02*
X166274619Y-94166200D01*
X166274619Y-94166200D02*
X166131762Y-94213819D01*
X166131762Y-94213819D02*
X165893667Y-94213819D01*
X155821226Y-45524819D02*
X155487893Y-45048628D01*
X155249798Y-45524819D02*
X155249798Y-44524819D01*
X155249798Y-44524819D02*
X155630750Y-44524819D01*
X155630750Y-44524819D02*
X155725988Y-44572438D01*
X155725988Y-44572438D02*
X155773607Y-44620057D01*
X155773607Y-44620057D02*
X155821226Y-44715295D01*
X155821226Y-44715295D02*
X155821226Y-44858152D01*
X155821226Y-44858152D02*
X155773607Y-44953390D01*
X155773607Y-44953390D02*
X155725988Y-45001009D01*
X155725988Y-45001009D02*
X155630750Y-45048628D01*
X155630750Y-45048628D02*
X155249798Y-45048628D01*
X156249798Y-45143866D02*
X157011703Y-45143866D01*
X156630750Y-45524819D02*
X156630750Y-44762914D01*
X123273226Y-57329319D02*
X122797036Y-57329319D01*
X122797036Y-57329319D02*
X122797036Y-56329319D01*
X123606560Y-56948366D02*
X124368465Y-56948366D01*
X105084819Y-99666666D02*
X104608628Y-99999999D01*
X105084819Y-100238094D02*
X104084819Y-100238094D01*
X104084819Y-100238094D02*
X104084819Y-99857142D01*
X104084819Y-99857142D02*
X104132438Y-99761904D01*
X104132438Y-99761904D02*
X104180057Y-99714285D01*
X104180057Y-99714285D02*
X104275295Y-99666666D01*
X104275295Y-99666666D02*
X104418152Y-99666666D01*
X104418152Y-99666666D02*
X104513390Y-99714285D01*
X104513390Y-99714285D02*
X104561009Y-99761904D01*
X104561009Y-99761904D02*
X104608628Y-99857142D01*
X104608628Y-99857142D02*
X104608628Y-100238094D01*
X104418152Y-98809523D02*
X105084819Y-98809523D01*
X104037200Y-99047618D02*
X104751485Y-99285713D01*
X104751485Y-99285713D02*
X104751485Y-98666666D01*
X162952381Y-74002438D02*
X162857143Y-73954819D01*
X162857143Y-73954819D02*
X162714286Y-73954819D01*
X162714286Y-73954819D02*
X162571429Y-74002438D01*
X162571429Y-74002438D02*
X162476191Y-74097676D01*
X162476191Y-74097676D02*
X162428572Y-74192914D01*
X162428572Y-74192914D02*
X162380953Y-74383390D01*
X162380953Y-74383390D02*
X162380953Y-74526247D01*
X162380953Y-74526247D02*
X162428572Y-74716723D01*
X162428572Y-74716723D02*
X162476191Y-74811961D01*
X162476191Y-74811961D02*
X162571429Y-74907200D01*
X162571429Y-74907200D02*
X162714286Y-74954819D01*
X162714286Y-74954819D02*
X162809524Y-74954819D01*
X162809524Y-74954819D02*
X162952381Y-74907200D01*
X162952381Y-74907200D02*
X163000000Y-74859580D01*
X163000000Y-74859580D02*
X163000000Y-74526247D01*
X163000000Y-74526247D02*
X162809524Y-74526247D01*
X163428572Y-74954819D02*
X163428572Y-73954819D01*
X163428572Y-73954819D02*
X164000000Y-74954819D01*
X164000000Y-74954819D02*
X164000000Y-73954819D01*
X164476191Y-74954819D02*
X164476191Y-73954819D01*
X164476191Y-73954819D02*
X164714286Y-73954819D01*
X164714286Y-73954819D02*
X164857143Y-74002438D01*
X164857143Y-74002438D02*
X164952381Y-74097676D01*
X164952381Y-74097676D02*
X165000000Y-74192914D01*
X165000000Y-74192914D02*
X165047619Y-74383390D01*
X165047619Y-74383390D02*
X165047619Y-74526247D01*
X165047619Y-74526247D02*
X165000000Y-74716723D01*
X165000000Y-74716723D02*
X164952381Y-74811961D01*
X164952381Y-74811961D02*
X164857143Y-74907200D01*
X164857143Y-74907200D02*
X164714286Y-74954819D01*
X164714286Y-74954819D02*
X164476191Y-74954819D01*
X165476191Y-74954819D02*
X165476191Y-73954819D01*
X165476191Y-73954819D02*
X165809524Y-74669104D01*
X165809524Y-74669104D02*
X166142857Y-73954819D01*
X166142857Y-73954819D02*
X166142857Y-74954819D01*
X166619048Y-74954819D02*
X166619048Y-73954819D01*
X167666666Y-74859580D02*
X167619047Y-74907200D01*
X167619047Y-74907200D02*
X167476190Y-74954819D01*
X167476190Y-74954819D02*
X167380952Y-74954819D01*
X167380952Y-74954819D02*
X167238095Y-74907200D01*
X167238095Y-74907200D02*
X167142857Y-74811961D01*
X167142857Y-74811961D02*
X167095238Y-74716723D01*
X167095238Y-74716723D02*
X167047619Y-74526247D01*
X167047619Y-74526247D02*
X167047619Y-74383390D01*
X167047619Y-74383390D02*
X167095238Y-74192914D01*
X167095238Y-74192914D02*
X167142857Y-74097676D01*
X167142857Y-74097676D02*
X167238095Y-74002438D01*
X167238095Y-74002438D02*
X167380952Y-73954819D01*
X167380952Y-73954819D02*
X167476190Y-73954819D01*
X167476190Y-73954819D02*
X167619047Y-74002438D01*
X167619047Y-74002438D02*
X167666666Y-74050057D01*
X168619047Y-74954819D02*
X168047619Y-74954819D01*
X168333333Y-74954819D02*
X168333333Y-73954819D01*
X168333333Y-73954819D02*
X168238095Y-74097676D01*
X168238095Y-74097676D02*
X168142857Y-74192914D01*
X168142857Y-74192914D02*
X168047619Y-74240533D01*
X104859580Y-87666666D02*
X104907200Y-87714285D01*
X104907200Y-87714285D02*
X104954819Y-87857142D01*
X104954819Y-87857142D02*
X104954819Y-87952380D01*
X104954819Y-87952380D02*
X104907200Y-88095237D01*
X104907200Y-88095237D02*
X104811961Y-88190475D01*
X104811961Y-88190475D02*
X104716723Y-88238094D01*
X104716723Y-88238094D02*
X104526247Y-88285713D01*
X104526247Y-88285713D02*
X104383390Y-88285713D01*
X104383390Y-88285713D02*
X104192914Y-88238094D01*
X104192914Y-88238094D02*
X104097676Y-88190475D01*
X104097676Y-88190475D02*
X104002438Y-88095237D01*
X104002438Y-88095237D02*
X103954819Y-87952380D01*
X103954819Y-87952380D02*
X103954819Y-87857142D01*
X103954819Y-87857142D02*
X104002438Y-87714285D01*
X104002438Y-87714285D02*
X104050057Y-87666666D01*
X104050057Y-87285713D02*
X104002438Y-87238094D01*
X104002438Y-87238094D02*
X103954819Y-87142856D01*
X103954819Y-87142856D02*
X103954819Y-86904761D01*
X103954819Y-86904761D02*
X104002438Y-86809523D01*
X104002438Y-86809523D02*
X104050057Y-86761904D01*
X104050057Y-86761904D02*
X104145295Y-86714285D01*
X104145295Y-86714285D02*
X104240533Y-86714285D01*
X104240533Y-86714285D02*
X104383390Y-86761904D01*
X104383390Y-86761904D02*
X104954819Y-87333332D01*
X104954819Y-87333332D02*
X104954819Y-86714285D01*
X155611976Y-52636819D02*
X155278643Y-52160628D01*
X155040548Y-52636819D02*
X155040548Y-51636819D01*
X155040548Y-51636819D02*
X155421500Y-51636819D01*
X155421500Y-51636819D02*
X155516738Y-51684438D01*
X155516738Y-51684438D02*
X155564357Y-51732057D01*
X155564357Y-51732057D02*
X155611976Y-51827295D01*
X155611976Y-51827295D02*
X155611976Y-51970152D01*
X155611976Y-51970152D02*
X155564357Y-52065390D01*
X155564357Y-52065390D02*
X155516738Y-52113009D01*
X155516738Y-52113009D02*
X155421500Y-52160628D01*
X155421500Y-52160628D02*
X155040548Y-52160628D01*
X156040548Y-52255866D02*
X156802453Y-52255866D01*
X114084819Y-99666666D02*
X113608628Y-99999999D01*
X114084819Y-100238094D02*
X113084819Y-100238094D01*
X113084819Y-100238094D02*
X113084819Y-99857142D01*
X113084819Y-99857142D02*
X113132438Y-99761904D01*
X113132438Y-99761904D02*
X113180057Y-99714285D01*
X113180057Y-99714285D02*
X113275295Y-99666666D01*
X113275295Y-99666666D02*
X113418152Y-99666666D01*
X113418152Y-99666666D02*
X113513390Y-99714285D01*
X113513390Y-99714285D02*
X113561009Y-99761904D01*
X113561009Y-99761904D02*
X113608628Y-99857142D01*
X113608628Y-99857142D02*
X113608628Y-100238094D01*
X113084819Y-99333332D02*
X113084819Y-98714285D01*
X113084819Y-98714285D02*
X113465771Y-99047618D01*
X113465771Y-99047618D02*
X113465771Y-98904761D01*
X113465771Y-98904761D02*
X113513390Y-98809523D01*
X113513390Y-98809523D02*
X113561009Y-98761904D01*
X113561009Y-98761904D02*
X113656247Y-98714285D01*
X113656247Y-98714285D02*
X113894342Y-98714285D01*
X113894342Y-98714285D02*
X113989580Y-98761904D01*
X113989580Y-98761904D02*
X114037200Y-98809523D01*
X114037200Y-98809523D02*
X114084819Y-98904761D01*
X114084819Y-98904761D02*
X114084819Y-99190475D01*
X114084819Y-99190475D02*
X114037200Y-99285713D01*
X114037200Y-99285713D02*
X113989580Y-99333332D01*
X119109580Y-118166666D02*
X119157200Y-118214285D01*
X119157200Y-118214285D02*
X119204819Y-118357142D01*
X119204819Y-118357142D02*
X119204819Y-118452380D01*
X119204819Y-118452380D02*
X119157200Y-118595237D01*
X119157200Y-118595237D02*
X119061961Y-118690475D01*
X119061961Y-118690475D02*
X118966723Y-118738094D01*
X118966723Y-118738094D02*
X118776247Y-118785713D01*
X118776247Y-118785713D02*
X118633390Y-118785713D01*
X118633390Y-118785713D02*
X118442914Y-118738094D01*
X118442914Y-118738094D02*
X118347676Y-118690475D01*
X118347676Y-118690475D02*
X118252438Y-118595237D01*
X118252438Y-118595237D02*
X118204819Y-118452380D01*
X118204819Y-118452380D02*
X118204819Y-118357142D01*
X118204819Y-118357142D02*
X118252438Y-118214285D01*
X118252438Y-118214285D02*
X118300057Y-118166666D01*
X119204819Y-117214285D02*
X119204819Y-117785713D01*
X119204819Y-117499999D02*
X118204819Y-117499999D01*
X118204819Y-117499999D02*
X118347676Y-117595237D01*
X118347676Y-117595237D02*
X118442914Y-117690475D01*
X118442914Y-117690475D02*
X118490533Y-117785713D01*
X166552714Y-110516200D02*
X166695571Y-110563819D01*
X166695571Y-110563819D02*
X166933666Y-110563819D01*
X166933666Y-110563819D02*
X167028904Y-110516200D01*
X167028904Y-110516200D02*
X167076523Y-110468580D01*
X167076523Y-110468580D02*
X167124142Y-110373342D01*
X167124142Y-110373342D02*
X167124142Y-110278104D01*
X167124142Y-110278104D02*
X167076523Y-110182866D01*
X167076523Y-110182866D02*
X167028904Y-110135247D01*
X167028904Y-110135247D02*
X166933666Y-110087628D01*
X166933666Y-110087628D02*
X166743190Y-110040009D01*
X166743190Y-110040009D02*
X166647952Y-109992390D01*
X166647952Y-109992390D02*
X166600333Y-109944771D01*
X166600333Y-109944771D02*
X166552714Y-109849533D01*
X166552714Y-109849533D02*
X166552714Y-109754295D01*
X166552714Y-109754295D02*
X166600333Y-109659057D01*
X166600333Y-109659057D02*
X166647952Y-109611438D01*
X166647952Y-109611438D02*
X166743190Y-109563819D01*
X166743190Y-109563819D02*
X166981285Y-109563819D01*
X166981285Y-109563819D02*
X167124142Y-109611438D01*
X167552714Y-110563819D02*
X167552714Y-109563819D01*
X167552714Y-109563819D02*
X167790809Y-109563819D01*
X167790809Y-109563819D02*
X167933666Y-109611438D01*
X167933666Y-109611438D02*
X168028904Y-109706676D01*
X168028904Y-109706676D02*
X168076523Y-109801914D01*
X168076523Y-109801914D02*
X168124142Y-109992390D01*
X168124142Y-109992390D02*
X168124142Y-110135247D01*
X168124142Y-110135247D02*
X168076523Y-110325723D01*
X168076523Y-110325723D02*
X168028904Y-110420961D01*
X168028904Y-110420961D02*
X167933666Y-110516200D01*
X167933666Y-110516200D02*
X167790809Y-110563819D01*
X167790809Y-110563819D02*
X167552714Y-110563819D01*
X168505095Y-110278104D02*
X168981285Y-110278104D01*
X168409857Y-110563819D02*
X168743190Y-109563819D01*
X168743190Y-109563819D02*
X169076523Y-110563819D01*
X164195238Y-88024819D02*
X164433333Y-89024819D01*
X164433333Y-89024819D02*
X164623809Y-88310533D01*
X164623809Y-88310533D02*
X164814285Y-89024819D01*
X164814285Y-89024819D02*
X165052381Y-88024819D01*
X165385714Y-88977200D02*
X165528571Y-89024819D01*
X165528571Y-89024819D02*
X165766666Y-89024819D01*
X165766666Y-89024819D02*
X165861904Y-88977200D01*
X165861904Y-88977200D02*
X165909523Y-88929580D01*
X165909523Y-88929580D02*
X165957142Y-88834342D01*
X165957142Y-88834342D02*
X165957142Y-88739104D01*
X165957142Y-88739104D02*
X165909523Y-88643866D01*
X165909523Y-88643866D02*
X165861904Y-88596247D01*
X165861904Y-88596247D02*
X165766666Y-88548628D01*
X165766666Y-88548628D02*
X165576190Y-88501009D01*
X165576190Y-88501009D02*
X165480952Y-88453390D01*
X165480952Y-88453390D02*
X165433333Y-88405771D01*
X165433333Y-88405771D02*
X165385714Y-88310533D01*
X165385714Y-88310533D02*
X165385714Y-88215295D01*
X165385714Y-88215295D02*
X165433333Y-88120057D01*
X165433333Y-88120057D02*
X165480952Y-88072438D01*
X165480952Y-88072438D02*
X165576190Y-88024819D01*
X165576190Y-88024819D02*
X165814285Y-88024819D01*
X165814285Y-88024819D02*
X165957142Y-88072438D01*
X123530476Y-50284819D02*
X123054286Y-50284819D01*
X123054286Y-50284819D02*
X123054286Y-49284819D01*
X123863810Y-49903866D02*
X124625715Y-49903866D01*
X124244762Y-50284819D02*
X124244762Y-49522914D01*
X163814286Y-79782200D02*
X163957143Y-79829819D01*
X163957143Y-79829819D02*
X164195238Y-79829819D01*
X164195238Y-79829819D02*
X164290476Y-79782200D01*
X164290476Y-79782200D02*
X164338095Y-79734580D01*
X164338095Y-79734580D02*
X164385714Y-79639342D01*
X164385714Y-79639342D02*
X164385714Y-79544104D01*
X164385714Y-79544104D02*
X164338095Y-79448866D01*
X164338095Y-79448866D02*
X164290476Y-79401247D01*
X164290476Y-79401247D02*
X164195238Y-79353628D01*
X164195238Y-79353628D02*
X164004762Y-79306009D01*
X164004762Y-79306009D02*
X163909524Y-79258390D01*
X163909524Y-79258390D02*
X163861905Y-79210771D01*
X163861905Y-79210771D02*
X163814286Y-79115533D01*
X163814286Y-79115533D02*
X163814286Y-79020295D01*
X163814286Y-79020295D02*
X163861905Y-78925057D01*
X163861905Y-78925057D02*
X163909524Y-78877438D01*
X163909524Y-78877438D02*
X164004762Y-78829819D01*
X164004762Y-78829819D02*
X164242857Y-78829819D01*
X164242857Y-78829819D02*
X164385714Y-78877438D01*
X165385714Y-79734580D02*
X165338095Y-79782200D01*
X165338095Y-79782200D02*
X165195238Y-79829819D01*
X165195238Y-79829819D02*
X165100000Y-79829819D01*
X165100000Y-79829819D02*
X164957143Y-79782200D01*
X164957143Y-79782200D02*
X164861905Y-79686961D01*
X164861905Y-79686961D02*
X164814286Y-79591723D01*
X164814286Y-79591723D02*
X164766667Y-79401247D01*
X164766667Y-79401247D02*
X164766667Y-79258390D01*
X164766667Y-79258390D02*
X164814286Y-79067914D01*
X164814286Y-79067914D02*
X164861905Y-78972676D01*
X164861905Y-78972676D02*
X164957143Y-78877438D01*
X164957143Y-78877438D02*
X165100000Y-78829819D01*
X165100000Y-78829819D02*
X165195238Y-78829819D01*
X165195238Y-78829819D02*
X165338095Y-78877438D01*
X165338095Y-78877438D02*
X165385714Y-78925057D01*
X165814286Y-79829819D02*
X165814286Y-78829819D01*
X166385714Y-79829819D02*
X165957143Y-79258390D01*
X166385714Y-78829819D02*
X165814286Y-79401247D01*
X166735286Y-114072200D02*
X166878143Y-114119819D01*
X166878143Y-114119819D02*
X167116238Y-114119819D01*
X167116238Y-114119819D02*
X167211476Y-114072200D01*
X167211476Y-114072200D02*
X167259095Y-114024580D01*
X167259095Y-114024580D02*
X167306714Y-113929342D01*
X167306714Y-113929342D02*
X167306714Y-113834104D01*
X167306714Y-113834104D02*
X167259095Y-113738866D01*
X167259095Y-113738866D02*
X167211476Y-113691247D01*
X167211476Y-113691247D02*
X167116238Y-113643628D01*
X167116238Y-113643628D02*
X166925762Y-113596009D01*
X166925762Y-113596009D02*
X166830524Y-113548390D01*
X166830524Y-113548390D02*
X166782905Y-113500771D01*
X166782905Y-113500771D02*
X166735286Y-113405533D01*
X166735286Y-113405533D02*
X166735286Y-113310295D01*
X166735286Y-113310295D02*
X166782905Y-113215057D01*
X166782905Y-113215057D02*
X166830524Y-113167438D01*
X166830524Y-113167438D02*
X166925762Y-113119819D01*
X166925762Y-113119819D02*
X167163857Y-113119819D01*
X167163857Y-113119819D02*
X167306714Y-113167438D01*
X168306714Y-114024580D02*
X168259095Y-114072200D01*
X168259095Y-114072200D02*
X168116238Y-114119819D01*
X168116238Y-114119819D02*
X168021000Y-114119819D01*
X168021000Y-114119819D02*
X167878143Y-114072200D01*
X167878143Y-114072200D02*
X167782905Y-113976961D01*
X167782905Y-113976961D02*
X167735286Y-113881723D01*
X167735286Y-113881723D02*
X167687667Y-113691247D01*
X167687667Y-113691247D02*
X167687667Y-113548390D01*
X167687667Y-113548390D02*
X167735286Y-113357914D01*
X167735286Y-113357914D02*
X167782905Y-113262676D01*
X167782905Y-113262676D02*
X167878143Y-113167438D01*
X167878143Y-113167438D02*
X168021000Y-113119819D01*
X168021000Y-113119819D02*
X168116238Y-113119819D01*
X168116238Y-113119819D02*
X168259095Y-113167438D01*
X168259095Y-113167438D02*
X168306714Y-113215057D01*
X168735286Y-114119819D02*
X168735286Y-113119819D01*
X169306714Y-114119819D02*
X168878143Y-113548390D01*
X169306714Y-113119819D02*
X168735286Y-113691247D01*
X166751095Y-102372438D02*
X166655857Y-102324819D01*
X166655857Y-102324819D02*
X166513000Y-102324819D01*
X166513000Y-102324819D02*
X166370143Y-102372438D01*
X166370143Y-102372438D02*
X166274905Y-102467676D01*
X166274905Y-102467676D02*
X166227286Y-102562914D01*
X166227286Y-102562914D02*
X166179667Y-102753390D01*
X166179667Y-102753390D02*
X166179667Y-102896247D01*
X166179667Y-102896247D02*
X166227286Y-103086723D01*
X166227286Y-103086723D02*
X166274905Y-103181961D01*
X166274905Y-103181961D02*
X166370143Y-103277200D01*
X166370143Y-103277200D02*
X166513000Y-103324819D01*
X166513000Y-103324819D02*
X166608238Y-103324819D01*
X166608238Y-103324819D02*
X166751095Y-103277200D01*
X166751095Y-103277200D02*
X166798714Y-103229580D01*
X166798714Y-103229580D02*
X166798714Y-102896247D01*
X166798714Y-102896247D02*
X166608238Y-102896247D01*
X167227286Y-103324819D02*
X167227286Y-102324819D01*
X167227286Y-102324819D02*
X167798714Y-103324819D01*
X167798714Y-103324819D02*
X167798714Y-102324819D01*
X168274905Y-103324819D02*
X168274905Y-102324819D01*
X168274905Y-102324819D02*
X168513000Y-102324819D01*
X168513000Y-102324819D02*
X168655857Y-102372438D01*
X168655857Y-102372438D02*
X168751095Y-102467676D01*
X168751095Y-102467676D02*
X168798714Y-102562914D01*
X168798714Y-102562914D02*
X168846333Y-102753390D01*
X168846333Y-102753390D02*
X168846333Y-102896247D01*
X168846333Y-102896247D02*
X168798714Y-103086723D01*
X168798714Y-103086723D02*
X168751095Y-103181961D01*
X168751095Y-103181961D02*
X168655857Y-103277200D01*
X168655857Y-103277200D02*
X168513000Y-103324819D01*
X168513000Y-103324819D02*
X168274905Y-103324819D01*
%TO.C,U1*%
D12*
X126359540Y-73883437D02*
X154659540Y-73883437D01*
X154659540Y-125383437D01*
X126359540Y-125383437D01*
X126359540Y-73883437D01*
D11*
X136879540Y-122143437D02*
X144499540Y-122143437D01*
X144499540Y-126397616D01*
X136879540Y-126397616D01*
X136879540Y-122143437D01*
D13*
%TO.C,C3*%
X114630000Y-85380000D02*
X114967000Y-85380000D01*
X114630000Y-90620000D02*
X114630000Y-85380000D01*
X114967000Y-90620000D02*
X114630000Y-90620000D01*
X117033000Y-85380000D02*
X117370000Y-85380000D01*
X117370000Y-85380000D02*
X117370000Y-90620000D01*
X117370000Y-90620000D02*
X117033000Y-90620000D01*
%TO.C,VDD*%
X163085000Y-104919000D02*
X164465000Y-104919000D01*
X163085000Y-106299000D02*
X163085000Y-104919000D01*
X163085000Y-107569000D02*
X163085000Y-107679000D01*
X163085000Y-107569000D02*
X165845000Y-107569000D01*
X163085000Y-107679000D02*
X165845000Y-107679000D01*
X165845000Y-107569000D02*
X165845000Y-107679000D01*
%TO.C,SD*%
X163620000Y-85120000D02*
X165000000Y-85120000D01*
X163620000Y-86500000D02*
X163620000Y-85120000D01*
X163620000Y-87770000D02*
X163620000Y-87880000D01*
X163620000Y-87770000D02*
X166380000Y-87770000D01*
X163620000Y-87880000D02*
X166380000Y-87880000D01*
X166380000Y-87770000D02*
X166380000Y-87880000D01*
%TO.C,U2*%
X132030000Y-45680000D02*
X149810000Y-45680000D01*
X149810000Y-67270000D01*
X132030000Y-67270000D01*
X132030000Y-45680000D01*
%TO.C,VDD*%
X163847000Y-94759000D02*
X165227000Y-94759000D01*
X163847000Y-96139000D02*
X163847000Y-94759000D01*
X163847000Y-97409000D02*
X163847000Y-97519000D01*
X163847000Y-97409000D02*
X166607000Y-97409000D01*
X163847000Y-97519000D02*
X166607000Y-97519000D01*
X166607000Y-97409000D02*
X166607000Y-97519000D01*
%TO.C,R+*%
X154750750Y-46070000D02*
X156130750Y-46070000D01*
X154750750Y-47450000D02*
X154750750Y-46070000D01*
X154750750Y-48720000D02*
X154750750Y-48830000D01*
X154750750Y-48720000D02*
X157510750Y-48720000D01*
X154750750Y-48830000D02*
X157510750Y-48830000D01*
X157510750Y-48720000D02*
X157510750Y-48830000D01*
%TO.C,L-*%
X122202750Y-53224500D02*
X122202750Y-53114500D01*
X124962750Y-53114500D02*
X122202750Y-53114500D01*
X124962750Y-53224500D02*
X122202750Y-53224500D01*
X124962750Y-53224500D02*
X124962750Y-53114500D01*
X124962750Y-54494500D02*
X124962750Y-55874500D01*
X124962750Y-55874500D02*
X123582750Y-55874500D01*
%TO.C,R4*%
X107000000Y-95460000D02*
X107000000Y-96230000D01*
X107000000Y-103540000D02*
X107000000Y-102770000D01*
X105630000Y-102770000D02*
X108370000Y-102770000D01*
X108370000Y-96230000D01*
X105630000Y-96230000D01*
X105630000Y-102770000D01*
%TO.C,GNDMIC1*%
X163847000Y-75836000D02*
X165227000Y-75836000D01*
X163847000Y-77216000D02*
X163847000Y-75836000D01*
X163847000Y-78486000D02*
X163847000Y-78596000D01*
X163847000Y-78486000D02*
X166607000Y-78486000D01*
X163847000Y-78596000D02*
X166607000Y-78596000D01*
X166607000Y-78486000D02*
X166607000Y-78596000D01*
%TO.C,C2*%
X105630000Y-84880000D02*
X105967000Y-84880000D01*
X105630000Y-90120000D02*
X105630000Y-84880000D01*
X105967000Y-90120000D02*
X105630000Y-90120000D01*
X108033000Y-84880000D02*
X108370000Y-84880000D01*
X108370000Y-84880000D02*
X108370000Y-90120000D01*
X108370000Y-90120000D02*
X108033000Y-90120000D01*
%TO.C,R-*%
X154541500Y-53182000D02*
X155921500Y-53182000D01*
X154541500Y-54562000D02*
X154541500Y-53182000D01*
X154541500Y-55832000D02*
X154541500Y-55942000D01*
X154541500Y-55832000D02*
X157301500Y-55832000D01*
X154541500Y-55942000D02*
X157301500Y-55942000D01*
X157301500Y-55832000D02*
X157301500Y-55942000D01*
%TO.C,R3*%
X116000000Y-95460000D02*
X116000000Y-96230000D01*
X116000000Y-103540000D02*
X116000000Y-102770000D01*
X114630000Y-102770000D02*
X117370000Y-102770000D01*
X117370000Y-96230000D01*
X114630000Y-96230000D01*
X114630000Y-102770000D01*
%TO.C,C1*%
X111260000Y-119280000D02*
X107583000Y-119280000D01*
X111260000Y-119320000D02*
X107593000Y-119320000D01*
X111260000Y-119360000D02*
X107604000Y-119360000D01*
X111260000Y-119400000D02*
X107615000Y-119400000D01*
X111260000Y-119440000D02*
X107627000Y-119440000D01*
X111260000Y-119480000D02*
X107639000Y-119480000D01*
X111260000Y-119520000D02*
X107651000Y-119520000D01*
X111260000Y-119560000D02*
X107663000Y-119560000D01*
X111260000Y-119600000D02*
X107676000Y-119600000D01*
X111260000Y-119640000D02*
X107690000Y-119640000D01*
X111260000Y-119680000D02*
X107703000Y-119680000D01*
X111260000Y-119720000D02*
X107718000Y-119720000D01*
X111260000Y-119760000D02*
X107732000Y-119760000D01*
X111260000Y-119800000D02*
X107747000Y-119800000D01*
X111260000Y-119840000D02*
X107762000Y-119840000D01*
X111260000Y-119880000D02*
X107778000Y-119880000D01*
X111260000Y-119920000D02*
X107794000Y-119920000D01*
X111260000Y-119960000D02*
X107810000Y-119960000D01*
X111260000Y-120000000D02*
X107827000Y-120000000D01*
X111260000Y-120040000D02*
X107844000Y-120040000D01*
X111260000Y-120080000D02*
X107862000Y-120080000D01*
X111260000Y-120120000D02*
X107880000Y-120120000D01*
X111260000Y-120160000D02*
X107898000Y-120160000D01*
X111260000Y-120200000D02*
X107917000Y-120200000D01*
X111260000Y-120240000D02*
X107936000Y-120240000D01*
X111260000Y-120280000D02*
X107956000Y-120280000D01*
X111260000Y-120320000D02*
X107976000Y-120320000D01*
X111260000Y-120360000D02*
X107996000Y-120360000D01*
X111260000Y-120400000D02*
X108017000Y-120400000D01*
X111260000Y-120440000D02*
X108039000Y-120440000D01*
X111260000Y-120480000D02*
X108061000Y-120480000D01*
X111260000Y-120520000D02*
X108083000Y-120520000D01*
X111260000Y-120560000D02*
X108106000Y-120560000D01*
X111260000Y-120600000D02*
X108129000Y-120600000D01*
X111260000Y-120640000D02*
X108153000Y-120640000D01*
X111260000Y-120680000D02*
X108177000Y-120680000D01*
X111260000Y-120720000D02*
X108202000Y-120720000D01*
X111260000Y-120760000D02*
X108228000Y-120760000D01*
X111260000Y-120800000D02*
X108253000Y-120800000D01*
X111260000Y-120840000D02*
X108280000Y-120840000D01*
X111260000Y-120880000D02*
X108307000Y-120880000D01*
X111260000Y-120920000D02*
X108334000Y-120920000D01*
X111260000Y-120960000D02*
X108362000Y-120960000D01*
X111260000Y-121000000D02*
X108391000Y-121000000D01*
X111260000Y-121040000D02*
X108420000Y-121040000D01*
X111260000Y-121080000D02*
X108450000Y-121080000D01*
X111260000Y-121120000D02*
X108480000Y-121120000D01*
X111260000Y-121160000D02*
X108512000Y-121160000D01*
X111260000Y-121200000D02*
X108543000Y-121200000D01*
X111260000Y-121240000D02*
X108576000Y-121240000D01*
X111260000Y-121280000D02*
X108609000Y-121280000D01*
X111260000Y-121320000D02*
X108642000Y-121320000D01*
X111260000Y-121360000D02*
X108677000Y-121360000D01*
X111260000Y-121400000D02*
X108712000Y-121400000D01*
X111260000Y-121440000D02*
X108748000Y-121440000D01*
X111260000Y-121480000D02*
X108784000Y-121480000D01*
X111260000Y-121520000D02*
X108822000Y-121520000D01*
X111260000Y-121560000D02*
X108860000Y-121560000D01*
X111260000Y-121600000D02*
X108899000Y-121600000D01*
X111260000Y-121640000D02*
X108939000Y-121640000D01*
X111260000Y-121680000D02*
X108980000Y-121680000D01*
X111260000Y-121720000D02*
X109022000Y-121720000D01*
X113099000Y-123080000D02*
X111901000Y-123080000D01*
X113362000Y-123040000D02*
X111638000Y-123040000D01*
X113562000Y-123000000D02*
X111438000Y-123000000D01*
X113730000Y-122960000D02*
X111270000Y-122960000D01*
X113877000Y-122920000D02*
X111123000Y-122920000D01*
X114009000Y-122880000D02*
X110991000Y-122880000D01*
X114130000Y-122840000D02*
X110870000Y-122840000D01*
X114242000Y-122800000D02*
X110758000Y-122800000D01*
X114346000Y-122760000D02*
X110654000Y-122760000D01*
X114444000Y-122720000D02*
X110556000Y-122720000D01*
X114537000Y-122680000D02*
X110463000Y-122680000D01*
X114624000Y-122640000D02*
X110376000Y-122640000D01*
X114708000Y-122600000D02*
X110292000Y-122600000D01*
X114788000Y-122560000D02*
X110212000Y-122560000D01*
X114865000Y-122520000D02*
X110135000Y-122520000D01*
X114939000Y-122480000D02*
X110061000Y-122480000D01*
X115010000Y-122440000D02*
X109990000Y-122440000D01*
X115078000Y-122400000D02*
X109922000Y-122400000D01*
X115144000Y-122360000D02*
X109856000Y-122360000D01*
X115208000Y-122320000D02*
X109792000Y-122320000D01*
X115270000Y-122280000D02*
X109730000Y-122280000D01*
X115330000Y-122240000D02*
X109670000Y-122240000D01*
X115375000Y-112520354D02*
X115375000Y-113520354D01*
X115388000Y-122200000D02*
X109612000Y-122200000D01*
X115445000Y-122160000D02*
X109555000Y-122160000D01*
X115500000Y-122120000D02*
X109500000Y-122120000D01*
X115553000Y-122080000D02*
X109447000Y-122080000D01*
X115605000Y-122040000D02*
X109395000Y-122040000D01*
X115656000Y-122000000D02*
X109344000Y-122000000D01*
X115705000Y-121960000D02*
X109295000Y-121960000D01*
X115754000Y-121920000D02*
X109246000Y-121920000D01*
X115801000Y-121880000D02*
X109199000Y-121880000D01*
X115847000Y-121840000D02*
X109153000Y-121840000D01*
X115875000Y-113020354D02*
X114875000Y-113020354D01*
X115891000Y-121800000D02*
X109109000Y-121800000D01*
X115935000Y-121760000D02*
X109065000Y-121760000D01*
X115978000Y-121720000D02*
X113740000Y-121720000D01*
X116020000Y-121680000D02*
X113740000Y-121680000D01*
X116061000Y-121640000D02*
X113740000Y-121640000D01*
X116101000Y-121600000D02*
X113740000Y-121600000D01*
X116140000Y-121560000D02*
X113740000Y-121560000D01*
X116178000Y-121520000D02*
X113740000Y-121520000D01*
X116216000Y-121480000D02*
X113740000Y-121480000D01*
X116252000Y-121440000D02*
X113740000Y-121440000D01*
X116288000Y-121400000D02*
X113740000Y-121400000D01*
X116323000Y-121360000D02*
X113740000Y-121360000D01*
X116358000Y-121320000D02*
X113740000Y-121320000D01*
X116391000Y-121280000D02*
X113740000Y-121280000D01*
X116424000Y-121240000D02*
X113740000Y-121240000D01*
X116457000Y-121200000D02*
X113740000Y-121200000D01*
X116488000Y-121160000D02*
X113740000Y-121160000D01*
X116520000Y-121120000D02*
X113740000Y-121120000D01*
X116550000Y-121080000D02*
X113740000Y-121080000D01*
X116580000Y-121040000D02*
X113740000Y-121040000D01*
X116609000Y-121000000D02*
X113740000Y-121000000D01*
X116638000Y-120960000D02*
X113740000Y-120960000D01*
X116666000Y-120920000D02*
X113740000Y-120920000D01*
X116693000Y-120880000D02*
X113740000Y-120880000D01*
X116720000Y-120840000D02*
X113740000Y-120840000D01*
X116747000Y-120800000D02*
X113740000Y-120800000D01*
X116772000Y-120760000D02*
X113740000Y-120760000D01*
X116798000Y-120720000D02*
X113740000Y-120720000D01*
X116823000Y-120680000D02*
X113740000Y-120680000D01*
X116847000Y-120640000D02*
X113740000Y-120640000D01*
X116871000Y-120600000D02*
X113740000Y-120600000D01*
X116894000Y-120560000D02*
X113740000Y-120560000D01*
X116917000Y-120520000D02*
X113740000Y-120520000D01*
X116939000Y-120480000D02*
X113740000Y-120480000D01*
X116961000Y-120440000D02*
X113740000Y-120440000D01*
X116983000Y-120400000D02*
X113740000Y-120400000D01*
X117004000Y-120360000D02*
X113740000Y-120360000D01*
X117024000Y-120320000D02*
X113740000Y-120320000D01*
X117044000Y-120280000D02*
X113740000Y-120280000D01*
X117064000Y-120240000D02*
X113740000Y-120240000D01*
X117083000Y-120200000D02*
X113740000Y-120200000D01*
X117102000Y-120160000D02*
X113740000Y-120160000D01*
X117120000Y-120120000D02*
X113740000Y-120120000D01*
X117138000Y-120080000D02*
X113740000Y-120080000D01*
X117156000Y-120040000D02*
X113740000Y-120040000D01*
X117173000Y-120000000D02*
X113740000Y-120000000D01*
X117190000Y-119960000D02*
X113740000Y-119960000D01*
X117206000Y-119920000D02*
X113740000Y-119920000D01*
X117222000Y-119880000D02*
X113740000Y-119880000D01*
X117238000Y-119840000D02*
X113740000Y-119840000D01*
X117253000Y-119800000D02*
X113740000Y-119800000D01*
X117268000Y-119760000D02*
X113740000Y-119760000D01*
X117282000Y-119720000D02*
X113740000Y-119720000D01*
X117297000Y-119680000D02*
X113740000Y-119680000D01*
X117310000Y-119640000D02*
X113740000Y-119640000D01*
X117324000Y-119600000D02*
X113740000Y-119600000D01*
X117337000Y-119560000D02*
X113740000Y-119560000D01*
X117349000Y-119520000D02*
X113740000Y-119520000D01*
X117361000Y-119480000D02*
X113740000Y-119480000D01*
X117373000Y-119440000D02*
X113740000Y-119440000D01*
X117385000Y-119400000D02*
X113740000Y-119400000D01*
X117396000Y-119360000D02*
X113740000Y-119360000D01*
X117407000Y-119320000D02*
X113740000Y-119320000D01*
X117417000Y-119280000D02*
X113740000Y-119280000D01*
X117428000Y-119240000D02*
X107572000Y-119240000D01*
X117437000Y-119200000D02*
X107563000Y-119200000D01*
X117447000Y-119160000D02*
X107553000Y-119160000D01*
X117456000Y-119120000D02*
X107544000Y-119120000D01*
X117465000Y-119080000D02*
X107535000Y-119080000D01*
X117473000Y-119040000D02*
X107527000Y-119040000D01*
X117481000Y-119000000D02*
X107519000Y-119000000D01*
X117489000Y-118960000D02*
X107511000Y-118960000D01*
X117497000Y-118920000D02*
X107503000Y-118920000D01*
X117504000Y-118880000D02*
X107496000Y-118880000D01*
X117511000Y-118840000D02*
X107489000Y-118840000D01*
X117517000Y-118800000D02*
X107483000Y-118800000D01*
X117523000Y-118760000D02*
X107477000Y-118760000D01*
X117529000Y-118720000D02*
X107471000Y-118720000D01*
X117535000Y-118680000D02*
X107465000Y-118680000D01*
X117540000Y-118640000D02*
X107460000Y-118640000D01*
X117545000Y-118600000D02*
X107455000Y-118600000D01*
X117549000Y-118560000D02*
X107451000Y-118560000D01*
X117554000Y-118520000D02*
X107446000Y-118520000D01*
X117557000Y-118480000D02*
X107443000Y-118480000D01*
X117561000Y-118440000D02*
X107439000Y-118440000D01*
X117564000Y-118400000D02*
X107436000Y-118400000D01*
X117567000Y-118360000D02*
X107433000Y-118360000D01*
X117570000Y-118320000D02*
X107430000Y-118320000D01*
X117572000Y-118280000D02*
X107428000Y-118280000D01*
X117574000Y-118240000D02*
X107426000Y-118240000D01*
X117576000Y-118200000D02*
X107424000Y-118200000D01*
X117577000Y-118160000D02*
X107423000Y-118160000D01*
X117579000Y-118080000D02*
X107421000Y-118080000D01*
X117579000Y-118120000D02*
X107421000Y-118120000D01*
X117580000Y-118000000D02*
X107420000Y-118000000D01*
X117580000Y-118040000D02*
X107420000Y-118040000D01*
X117620000Y-118000000D02*
G75*
G02*
X107380000Y-118000000I-5120000J0D01*
G01*
X107380000Y-118000000D02*
G75*
G02*
X117620000Y-118000000I5120000J0D01*
G01*
%TO.C,SDA*%
X162958000Y-108609000D02*
X164338000Y-108609000D01*
X162958000Y-109989000D02*
X162958000Y-108609000D01*
X162958000Y-111259000D02*
X162958000Y-111369000D01*
X162958000Y-111259000D02*
X165718000Y-111259000D01*
X162958000Y-111369000D02*
X165718000Y-111369000D01*
X165718000Y-111259000D02*
X165718000Y-111369000D01*
%TO.C,WS*%
X163720000Y-89570000D02*
X165100000Y-89570000D01*
X163720000Y-90950000D02*
X163720000Y-89570000D01*
X163720000Y-92220000D02*
X163720000Y-92330000D01*
X163720000Y-92220000D02*
X166480000Y-92220000D01*
X163720000Y-92330000D02*
X166480000Y-92330000D01*
X166480000Y-92220000D02*
X166480000Y-92330000D01*
%TO.C,L+*%
X122460000Y-46180000D02*
X122460000Y-46070000D01*
X125220000Y-46070000D02*
X122460000Y-46070000D01*
X125220000Y-46180000D02*
X122460000Y-46180000D01*
X125220000Y-46180000D02*
X125220000Y-46070000D01*
X125220000Y-47450000D02*
X125220000Y-48830000D01*
X125220000Y-48830000D02*
X123840000Y-48830000D01*
%TO.C,SCK*%
X163720000Y-80662000D02*
X165100000Y-80662000D01*
X163720000Y-82042000D02*
X163720000Y-80662000D01*
X163720000Y-83312000D02*
X163720000Y-83422000D01*
X163720000Y-83312000D02*
X166480000Y-83312000D01*
X163720000Y-83422000D02*
X166480000Y-83422000D01*
X166480000Y-83312000D02*
X166480000Y-83422000D01*
X162958000Y-112359000D02*
X164338000Y-112359000D01*
X162958000Y-113739000D02*
X162958000Y-112359000D01*
X162958000Y-115009000D02*
X162958000Y-115119000D01*
X162958000Y-115009000D02*
X165718000Y-115009000D01*
X162958000Y-115119000D02*
X165718000Y-115119000D01*
X165718000Y-115009000D02*
X165718000Y-115119000D01*
%TO.C,GND*%
X162958000Y-101109000D02*
X164338000Y-101109000D01*
X162958000Y-102489000D02*
X162958000Y-101109000D01*
X162958000Y-103759000D02*
X162958000Y-103869000D01*
X162958000Y-103759000D02*
X165718000Y-103759000D01*
X162958000Y-103869000D02*
X165718000Y-103869000D01*
X165718000Y-103759000D02*
X165718000Y-103869000D01*
%TD*%
%LPC*%
D14*
%TO.C,U1*%
X127762000Y-117303250D03*
X127762000Y-114763250D03*
X127762000Y-112223250D03*
X127762000Y-109683250D03*
X127762000Y-107143250D03*
X127762000Y-104603250D03*
X127762000Y-102063250D03*
X127762000Y-99523250D03*
X127762000Y-96983250D03*
X127762000Y-94443250D03*
X127762000Y-91903250D03*
X127762000Y-89363250D03*
X127762000Y-86823250D03*
X127762000Y-84283250D03*
X127762000Y-81743250D03*
X153162000Y-117303250D03*
X153162000Y-114763250D03*
X153162000Y-112223250D03*
X153162000Y-109683250D03*
X153162000Y-107143250D03*
X153162000Y-104603250D03*
X153162000Y-102063250D03*
X153162000Y-99523250D03*
X153162000Y-96983250D03*
X153162000Y-94443250D03*
X153162000Y-91903250D03*
X153162000Y-89363250D03*
X153162000Y-86823250D03*
X153162000Y-84283250D03*
X153162000Y-81743250D03*
%TD*%
D15*
%TO.C,C3*%
X116000000Y-90500000D03*
X116000000Y-85500000D03*
%TD*%
D16*
%TO.C,VDD*%
X164465000Y-106299000D03*
%TD*%
%TO.C,SD*%
X165000000Y-86500000D03*
%TD*%
D17*
%TO.C,U2*%
X133300000Y-66000000D03*
X135840000Y-66000000D03*
X138380000Y-66000000D03*
X146000000Y-66000000D03*
X148540000Y-66000000D03*
X148540000Y-46950000D03*
X146000000Y-46950000D03*
X135840000Y-46950000D03*
X133300000Y-46950000D03*
%TD*%
D16*
%TO.C,VDD*%
X165227000Y-96139000D03*
%TD*%
%TO.C,R+*%
X156130750Y-47450000D03*
%TD*%
%TO.C,L-*%
X123582750Y-54494500D03*
%TD*%
D15*
%TO.C,R4*%
X107000000Y-104580000D03*
X107000000Y-94420000D03*
%TD*%
D16*
%TO.C,GNDMIC1*%
X165227000Y-77216000D03*
%TD*%
D15*
%TO.C,C2*%
X107000000Y-90000000D03*
X107000000Y-85000000D03*
%TD*%
D16*
%TO.C,R-*%
X155921500Y-54562000D03*
%TD*%
D15*
%TO.C,R3*%
X116000000Y-104580000D03*
X116000000Y-94420000D03*
%TD*%
D18*
%TO.C,C1*%
X112500000Y-115500000D03*
D19*
X112500000Y-120500000D03*
%TD*%
D16*
%TO.C,SDA*%
X164338000Y-109989000D03*
%TD*%
%TO.C,WS*%
X165100000Y-90950000D03*
%TD*%
%TO.C,L+*%
X123840000Y-47450000D03*
%TD*%
%TO.C,SCK*%
X165100000Y-82042000D03*
%TD*%
%TO.C,SCK*%
X164338000Y-113739000D03*
%TD*%
%TO.C,GND*%
X164338000Y-102489000D03*
%TD*%
%LPD*%
M02*
