M48
INCH
T1C0.0300
T2C0.0315
T3C0.0394
%
G90
G05
T1
X5.248Y-1.8484
X5.248Y-2.5984
X5.348Y-1.8484
X5.348Y-2.5984
X5.448Y-2.5984
X5.748Y-1.8484
X5.748Y-2.5984
X5.848Y-1.8484
X5.848Y-2.5984
T2
X4.2126Y-3.3465
X4.2126Y-3.5433
X4.2126Y-3.7173
X4.2126Y-4.1173
X4.5669Y-3.3661
X4.5669Y-3.563
X4.5669Y-3.7173
X4.5669Y-4.1173
X5.03Y-3.2182
X5.03Y-3.3182
X5.03Y-3.4182
X5.03Y-3.5182
X5.03Y-3.6182
X5.03Y-3.7182
X5.03Y-3.8182
X5.03Y-3.9182
X5.03Y-4.0182
X5.03Y-4.1182
X5.03Y-4.2182
X5.03Y-4.3182
X5.03Y-4.4182
X5.03Y-4.5182
X5.03Y-4.6182
X6.03Y-3.2182
X6.03Y-3.3182
X6.03Y-3.4182
X6.03Y-3.5182
X6.03Y-3.6182
X6.03Y-3.7182
X6.03Y-3.8182
X6.03Y-3.9182
X6.03Y-4.0182
X6.03Y-4.1182
X6.03Y-4.2182
X6.03Y-4.3182
X6.03Y-4.4182
X6.03Y-4.5182
X6.03Y-4.6182
T3
X4.4291Y-4.5472
X4.4291Y-4.7441
X4.8655Y-2.1455
X4.8756Y-1.8681
X6.1386Y-2.1481
X6.1469Y-1.8681
X6.47Y-4.035
X6.47Y-4.3303
X6.47Y-4.4779
X6.475Y-4.185
X6.4961Y-3.4055
X6.5Y-3.23
X6.5Y-3.5807
X6.505Y-3.04
X6.505Y-3.785
M30
